<svg xmlns="http://www.w3.org/2000/svg" xmlns:xlink="http://www.w3.org/1999/xlink" contentStyleType="text/css" height="239px" preserveAspectRatio="none" style="width:764px;height:239px;background:#FFFFFF;" version="1.1" viewBox="0 0 764 239" width="764px" zoomAndPan="magnify"><defs/><g><rect fill="#F1F1F1" height="102.4414" rx="5" ry="5" style="stroke:#F1F1F1;stroke-width:1.5;" width="317" x="10" y="26.2793"/><text fill="#000000" font-family="sans-serif" font-size="14" font-weight="bold" lengthAdjust="spacing" textLength="101" x="15" y="41.8145">protokollnavn</text><text fill="#000000" font-family="sans-serif" font-size="14" lengthAdjust="spacing" textLength="102" x="126" y="41.8145">no.ks.fiks.arkiv</text><line style="stroke:#000000;stroke-width:1.0;" x1="121" x2="121" y1="26.2793" y2="46.7676"/><line style="stroke:#000000;stroke-width:1.0;" x1="10" x2="327" y1="46.7676" y2="46.7676"/><text fill="#000000" font-family="sans-serif" font-size="14" font-weight="bold" lengthAdjust="spacing" textLength="34" x="15" y="62.3027">navn</text><text fill="#000000" font-family="sans-serif" font-size="14" lengthAdjust="spacing" textLength="172" x="126" y="62.3027">moeteregistreringsstatus</text><line style="stroke:#000000;stroke-width:1.0;" x1="121" x2="121" y1="46.7676" y2="67.2559"/><line style="stroke:#000000;stroke-width:1.0;" x1="10" x2="327" y1="67.2559" y2="67.2559"/><text fill="#000000" font-family="sans-serif" font-size="14" font-weight="bold" lengthAdjust="spacing" textLength="53" x="15" y="82.791">versjon</text><text fill="#000000" font-family="sans-serif" font-size="14" lengthAdjust="spacing" textLength="16" x="126" y="82.791">v1</text><line style="stroke:#000000;stroke-width:1.0;" x1="121" x2="121" y1="67.2559" y2="87.7441"/><line style="stroke:#000000;stroke-width:1.0;" x1="10" x2="327" y1="87.7441" y2="87.7441"/><text fill="#000000" font-family="sans-serif" font-size="14" font-weight="bold" lengthAdjust="spacing" textLength="73" x="15" y="103.2793">definisjon</text><text fill="#000000" font-family="sans-serif" font-size="14" lengthAdjust="spacing" textLength="196" x="126" y="103.2793">Status til m&#248;teregistreringen</text><line style="stroke:#000000;stroke-width:1.0;" x1="121" x2="121" y1="87.7441" y2="108.2324"/><line style="stroke:#000000;stroke-width:1.0;" x1="10" x2="327" y1="108.2324" y2="108.2324"/><text fill="#000000" font-family="sans-serif" font-size="14" font-weight="bold" lengthAdjust="spacing" textLength="67" x="15" y="123.7676">kodeliste</text><text fill="#000000" font-family="sans-serif" font-size="14" lengthAdjust="spacing" textLength="12" x="126" y="123.7676">&#160;&#160;&#160;</text><line style="stroke:#000000;stroke-width:1.0;" x1="121" x2="121" y1="108.2324" y2="128.7207"/><rect fill="none" height="102.4414" rx="5" ry="5" style="stroke:#000000;stroke-width:1.5;" width="317" x="10" y="26.2793"/><rect fill="#F1F1F1" height="81.9531" rx="5" ry="5" style="stroke:#F1F1F1;stroke-width:1.5;" width="22" x="364" y="77.5"/><text fill="#000000" font-family="sans-serif" font-size="14" lengthAdjust="spacing" textLength="12" x="369" y="93.0352">&#160;&#160;&#160;</text><line style="stroke:#000000;stroke-width:1.0;" x1="364" x2="386" y1="97.9883" y2="97.9883"/><text fill="#000000" font-family="sans-serif" font-size="14" lengthAdjust="spacing" textLength="12" x="369" y="113.5234">&#160;&#160;&#160;</text><line style="stroke:#000000;stroke-width:1.0;" x1="364" x2="386" y1="118.4766" y2="118.4766"/><text fill="#000000" font-family="sans-serif" font-size="14" lengthAdjust="spacing" textLength="12" x="369" y="134.0117">&#160;&#160;&#160;</text><line style="stroke:#000000;stroke-width:1.0;" x1="364" x2="386" y1="138.9648" y2="138.9648"/><text fill="#000000" font-family="sans-serif" font-size="14" lengthAdjust="spacing" textLength="12" x="369" y="154.5">&#160;&#160;&#160;</text><rect fill="none" height="81.9531" rx="5" ry="5" style="stroke:#000000;stroke-width:1.5;" width="22" x="364" y="77.5"/><rect fill="#F1F1F1" height="40.9766" rx="5" ry="5" style="stroke:#F1F1F1;stroke-width:1.5;" width="329" x="423" y="10"/><text fill="#000000" font-family="sans-serif" font-size="14" font-weight="bold" lengthAdjust="spacing" textLength="71" x="428" y="25.5352">kodeverdi</text><text fill="#000000" font-family="sans-serif" font-size="14" lengthAdjust="spacing" textLength="8" x="555" y="25.5352">F</text><line style="stroke:#000000;stroke-width:1.0;" x1="550" x2="550" y1="10" y2="30.4883"/><line style="stroke:#000000;stroke-width:1.0;" x1="423" x2="752" y1="30.4883" y2="30.4883"/><text fill="#000000" font-family="sans-serif" font-size="14" font-weight="bold" lengthAdjust="spacing" textLength="117" x="428" y="46.0234">kodebeskrivelse</text><text fill="#000000" font-family="sans-serif" font-size="14" lengthAdjust="spacing" textLength="192" x="555" y="46.0234">Ferdigstilt av saksbehandler</text><line style="stroke:#000000;stroke-width:1.0;" x1="550" x2="550" y1="30.4883" y2="50.9766"/><rect fill="none" height="40.9766" rx="5" ry="5" style="stroke:#000000;stroke-width:1.5;" width="329" x="423" y="10"/><rect fill="#F1F1F1" height="40.9766" rx="5" ry="5" style="stroke:#F1F1F1;stroke-width:1.5;" width="257" x="459" y="69"/><text fill="#000000" font-family="sans-serif" font-size="14" font-weight="bold" lengthAdjust="spacing" textLength="71" x="464" y="84.5352">kodeverdi</text><text fill="#000000" font-family="sans-serif" font-size="14" lengthAdjust="spacing" textLength="10" x="591" y="84.5352">G</text><line style="stroke:#000000;stroke-width:1.0;" x1="586" x2="586" y1="69" y2="89.4883"/><line style="stroke:#000000;stroke-width:1.0;" x1="459" x2="716" y1="89.4883" y2="89.4883"/><text fill="#000000" font-family="sans-serif" font-size="14" font-weight="bold" lengthAdjust="spacing" textLength="117" x="464" y="105.0234">kodebeskrivelse</text><text fill="#000000" font-family="sans-serif" font-size="14" lengthAdjust="spacing" textLength="120" x="591" y="105.0234">Godkjent av leder</text><line style="stroke:#000000;stroke-width:1.0;" x1="586" x2="586" y1="89.4883" y2="109.9766"/><rect fill="none" height="40.9766" rx="5" ry="5" style="stroke:#000000;stroke-width:1.5;" width="257" x="459" y="69"/><rect fill="#F1F1F1" height="40.9766" rx="5" ry="5" style="stroke:#F1F1F1;stroke-width:1.5;" width="191" x="492" y="128"/><text fill="#000000" font-family="sans-serif" font-size="14" font-weight="bold" lengthAdjust="spacing" textLength="71" x="497" y="143.5352">kodeverdi</text><text fill="#000000" font-family="sans-serif" font-size="14" lengthAdjust="spacing" textLength="10" x="624" y="143.5352">A</text><line style="stroke:#000000;stroke-width:1.0;" x1="619" x2="619" y1="128" y2="148.4883"/><line style="stroke:#000000;stroke-width:1.0;" x1="492" x2="683" y1="148.4883" y2="148.4883"/><text fill="#000000" font-family="sans-serif" font-size="14" font-weight="bold" lengthAdjust="spacing" textLength="117" x="497" y="164.0234">kodebeskrivelse</text><text fill="#000000" font-family="sans-serif" font-size="14" lengthAdjust="spacing" textLength="54" x="624" y="164.0234">Arkivert</text><line style="stroke:#000000;stroke-width:1.0;" x1="619" x2="619" y1="148.4883" y2="168.9766"/><rect fill="none" height="40.9766" rx="5" ry="5" style="stroke:#000000;stroke-width:1.5;" width="191" x="492" y="128"/><rect fill="#F1F1F1" height="40.9766" rx="5" ry="5" style="stroke:#F1F1F1;stroke-width:1.5;" width="275" x="450" y="187"/><text fill="#000000" font-family="sans-serif" font-size="14" font-weight="bold" lengthAdjust="spacing" textLength="71" x="455" y="202.5352">kodeverdi</text><text fill="#000000" font-family="sans-serif" font-size="14" lengthAdjust="spacing" textLength="9" x="582" y="202.5352">R</text><line style="stroke:#000000;stroke-width:1.0;" x1="577" x2="577" y1="187" y2="207.4883"/><line style="stroke:#000000;stroke-width:1.0;" x1="450" x2="725" y1="207.4883" y2="207.4883"/><text fill="#000000" font-family="sans-serif" font-size="14" font-weight="bold" lengthAdjust="spacing" textLength="117" x="455" y="223.0234">kodebeskrivelse</text><text fill="#000000" font-family="sans-serif" font-size="14" lengthAdjust="spacing" textLength="138" x="582" y="223.0234">Reservert dokument</text><line style="stroke:#000000;stroke-width:1.0;" x1="577" x2="577" y1="207.4883" y2="227.9766"/><rect fill="none" height="40.9766" rx="5" ry="5" style="stroke:#000000;stroke-width:1.5;" width="275" x="450" y="187"/><path d="M374,87.5 L387,87.5 C407.2698,87.5 404.4756,67.7288 423,59.5 C427.7047,57.4101 432.5483,55.4706 437.4887,53.6707 " fill="none" style="stroke:#000000;stroke-width:1.0;stroke-dasharray:3.0,3.0;"/><path d="M438.5041,56.5918 L439.6795,52.9092 L436.4734,50.7497 L444.7914,51.1324 L438.5041,56.5918 " fill="#000000" style="stroke:#000000;stroke-width:1.0;"/><ellipse cx="374" cy="87.5" fill="#000000" rx="3" ry="3" style="stroke:#000000;stroke-width:1.0;"/><path d="M374,108.5 L387,108.5 C407.982,108.5 430.1469,107.4508 451.7801,105.8456 " fill="none" style="stroke:#000000;stroke-width:1.0;stroke-dasharray:3.0,3.0;"/><path d="M452.0162,108.8963 L454.0682,105.6685 L451.544,102.7948 L459.407,105.2554 L452.0162,108.8963 " fill="#000000" style="stroke:#000000;stroke-width:1.0;"/><ellipse cx="374" cy="108.5" fill="#000000" rx="3" ry="3" style="stroke:#000000;stroke-width:1.0;"/><path d="M374,128.5 L387,128.5 C418.9017,128.5 453.5243,131.0506 484.8561,134.3301 " fill="none" style="stroke:#000000;stroke-width:1.0;stroke-dasharray:3.0,3.0;"/><path d="M484.5353,137.3177 L487.0967,134.5706 L485.1768,131.3425 L492.325,135.1319 L484.5353,137.3177 " fill="#000000" style="stroke:#000000;stroke-width:1.0;"/><ellipse cx="374" cy="128.5" fill="#000000" rx="3" ry="3" style="stroke:#000000;stroke-width:1.0;"/><path d="M374,149.5 L387,149.5 C407.5456,149.5 404.2954,169.9992 423,178.5 C429.3792,181.3992 436.0203,184.0094 442.8166,186.3593 " fill="none" style="stroke:#000000;stroke-width:1.0;stroke-dasharray:3.0,3.0;"/><path d="M441.837,189.3315 L445.0458,187.094 L443.7962,183.387 L450.2471,188.8083 L441.837,189.3315 " fill="#000000" style="stroke:#000000;stroke-width:1.0;"/><ellipse cx="374" cy="149.5" fill="#000000" rx="3" ry="3" style="stroke:#000000;stroke-width:1.0;"/><path d="M315,118.5 L328,118.5 C337.4213,118.5 347.9164,118.5 356.5483,118.5 " fill="none" style="stroke:#000000;stroke-width:1.0;stroke-dasharray:3.0,3.0;"/><path d="M356.5483,121.5437 L358.8311,118.5 L356.5483,115.4563 L364.1575,118.5 L356.5483,121.5437 " fill="#000000" style="stroke:#000000;stroke-width:1.0;"/><ellipse cx="315" cy="118.5" fill="#000000" rx="3" ry="3" style="stroke:#000000;stroke-width:1.0;"/><!--SRC=[ZPA_Ri8m4CPtFyKf4qWKDGWGoWJbdqIX808iLGU3ZzGad97jH4A8z-hU5wiJe5KNn7B3ztttyybtRMEvjZkZY9qOW7VGogfO9GdnZBm0F5BLs5ItqXMkOvbvbJnsS_SABMgCfB4QjQJ8E9vDpIMLeJOxLGGp_o89t4gIDpKimc1b0lllh_yaf4j7h0GcJaNNyEu4W5DHhvPxGqWF76nGv7-DDPfOommJWnSx3qR6lMM1Ps1uRDRuoKaagBsYyLovXn_Unm-LY7T81Jj1yHYpSv_PoJySjNq4DR-FcgD1dRD0g3ZTkq6lK5S_s9craKHn1MoMSBBBoHZoxKb5u5ThpxLwjL4AKu89FqAj2RuV-8sWqO9kFrn0xfTPQJWRWr6ftY28V8rodLe7ABCHppZCKx9oZm5C3qYZtkjDW3vbKYlAPsAZrUGlqAm_lKWBOJ4uh2QiXrkUklNrQQE4Ev40bel1KukDEKKfZnmRYNMLu-fZ06_J7m00]--></g></svg>