<?xml version="1.0" encoding="us-ascii" standalone="no"?><svg xmlns="http://www.w3.org/2000/svg" xmlns:xlink="http://www.w3.org/1999/xlink" contentStyleType="text/css" height="164px" preserveAspectRatio="none" style="width:745px;height:164px;background:#FFFFFF;" version="1.1" viewBox="0 0 745 164" width="745px" zoomAndPan="magnify"><defs/><g><rect fill="#F1F1F1" height="102.4414" rx="5" ry="5" style="stroke:#F1F1F1;stroke-width:1.5;" width="267" x="10" y="10"/><text fill="#000000" font-family="sans-serif" font-size="14" font-weight="bold" lengthAdjust="spacing" textLength="101" x="15" y="25.5352">protokollnavn</text><text fill="#000000" font-family="sans-serif" font-size="14" lengthAdjust="spacing" textLength="102" x="126" y="25.5352">no.ks.fiks.arkiv</text><line style="stroke:#000000;stroke-width:1.0;" x1="121" x2="121" y1="10" y2="30.4883"/><line style="stroke:#000000;stroke-width:1.0;" x1="10" x2="277" y1="30.4883" y2="30.4883"/><text fill="#000000" font-family="sans-serif" font-size="14" font-weight="bold" lengthAdjust="spacing" textLength="34" x="15" y="46.0234">navn</text><text fill="#000000" font-family="sans-serif" font-size="14" lengthAdjust="spacing" textLength="111" x="126" y="46.0234">dokumentstatus</text><line style="stroke:#000000;stroke-width:1.0;" x1="121" x2="121" y1="30.4883" y2="50.9766"/><line style="stroke:#000000;stroke-width:1.0;" x1="10" x2="277" y1="50.9766" y2="50.9766"/><text fill="#000000" font-family="sans-serif" font-size="14" font-weight="bold" lengthAdjust="spacing" textLength="53" x="15" y="66.5117">versjon</text><text fill="#000000" font-family="sans-serif" font-size="14" lengthAdjust="spacing" textLength="16" x="126" y="66.5117">v1</text><line style="stroke:#000000;stroke-width:1.0;" x1="121" x2="121" y1="50.9766" y2="71.4648"/><line style="stroke:#000000;stroke-width:1.0;" x1="10" x2="277" y1="71.4648" y2="71.4648"/><text fill="#000000" font-family="sans-serif" font-size="14" font-weight="bold" lengthAdjust="spacing" textLength="73" x="15" y="87">definisjon</text><text fill="#000000" font-family="sans-serif" font-size="14" lengthAdjust="spacing" textLength="146" x="126" y="87">Status til dokumentet</text><line style="stroke:#000000;stroke-width:1.0;" x1="121" x2="121" y1="71.4648" y2="91.9531"/><line style="stroke:#000000;stroke-width:1.0;" x1="10" x2="277" y1="91.9531" y2="91.9531"/><text fill="#000000" font-family="sans-serif" font-size="14" font-weight="bold" lengthAdjust="spacing" textLength="67" x="15" y="107.4883">kodeliste</text><text fill="#000000" font-family="sans-serif" font-size="14" lengthAdjust="spacing" textLength="12" x="126" y="107.4883">&#160;&#160;&#160;</text><line style="stroke:#000000;stroke-width:1.0;" x1="121" x2="121" y1="91.9531" y2="112.4414"/><rect fill="none" height="102.4414" rx="5" ry="5" style="stroke:#000000;stroke-width:1.5;" width="267" x="10" y="10"/><rect fill="#F1F1F1" height="40.9766" rx="5" ry="5" style="stroke:#F1F1F1;stroke-width:1.5;" width="22" x="314" y="81.7207"/><text fill="#000000" font-family="sans-serif" font-size="14" lengthAdjust="spacing" textLength="12" x="319" y="97.2559">&#160;&#160;&#160;</text><line style="stroke:#000000;stroke-width:1.0;" x1="314" x2="336" y1="102.209" y2="102.209"/><text fill="#000000" font-family="sans-serif" font-size="14" lengthAdjust="spacing" textLength="12" x="319" y="117.7441">&#160;&#160;&#160;</text><rect fill="none" height="40.9766" rx="5" ry="5" style="stroke:#000000;stroke-width:1.5;" width="22" x="314" y="81.7207"/><rect fill="#F1F1F1" height="40.9766" rx="5" ry="5" style="stroke:#F1F1F1;stroke-width:1.5;" width="360" x="373" y="52.7207"/><text fill="#000000" font-family="sans-serif" font-size="14" font-weight="bold" lengthAdjust="spacing" textLength="71" x="378" y="68.2559">kodeverdi</text><text fill="#000000" font-family="sans-serif" font-size="14" lengthAdjust="spacing" textLength="8" x="505" y="68.2559">B</text><line style="stroke:#000000;stroke-width:1.0;" x1="500" x2="500" y1="52.7207" y2="73.209"/><line style="stroke:#000000;stroke-width:1.0;" x1="373" x2="733" y1="73.209" y2="73.209"/><text fill="#000000" font-family="sans-serif" font-size="14" font-weight="bold" lengthAdjust="spacing" textLength="117" x="378" y="88.7441">kodebeskrivelse</text><text fill="#000000" font-family="sans-serif" font-size="14" lengthAdjust="spacing" textLength="223" x="505" y="88.7441">Dokumentet er under redigering</text><line style="stroke:#000000;stroke-width:1.0;" x1="500" x2="500" y1="73.209" y2="93.6973"/><rect fill="none" height="40.9766" rx="5" ry="5" style="stroke:#000000;stroke-width:1.5;" width="360" x="373" y="52.7207"/><rect fill="#F1F1F1" height="40.9766" rx="5" ry="5" style="stroke:#F1F1F1;stroke-width:1.5;" width="309" x="398.5" y="111.7207"/><text fill="#000000" font-family="sans-serif" font-size="14" font-weight="bold" lengthAdjust="spacing" textLength="71" x="403.5" y="127.2559">kodeverdi</text><text fill="#000000" font-family="sans-serif" font-size="14" lengthAdjust="spacing" textLength="8" x="530.5" y="127.2559">F</text><line style="stroke:#000000;stroke-width:1.0;" x1="525.5" x2="525.5" y1="111.7207" y2="132.209"/><line style="stroke:#000000;stroke-width:1.0;" x1="398.5" x2="707.5" y1="132.209" y2="132.209"/><text fill="#000000" font-family="sans-serif" font-size="14" font-weight="bold" lengthAdjust="spacing" textLength="117" x="403.5" y="147.7441">kodebeskrivelse</text><text fill="#000000" font-family="sans-serif" font-size="14" lengthAdjust="spacing" textLength="172" x="530.5" y="147.7441">Dokumentet er ferdigstilt</text><line style="stroke:#000000;stroke-width:1.0;" x1="525.5" x2="525.5" y1="132.209" y2="152.6973"/><rect fill="none" height="40.9766" rx="5" ry="5" style="stroke:#000000;stroke-width:1.5;" width="309" x="398.5" y="111.7207"/><path d="M324,92.2207 L337,92.2207 C346.3353,92.2207 355.8893,92.0416 365.5316,91.7182 " fill="none" style="stroke:#000000;stroke-width:1.0;stroke-dasharray:3.0,3.0;"/><path d="M365.6474,94.8179 L367.8564,91.6313 L365.4157,88.6184 L373.2809,91.4285 L365.6474,94.8179 " fill="#000000" style="stroke:#000000;stroke-width:1.0;"/><ellipse cx="324" cy="92.2207" fill="#000000" rx="3" ry="3" style="stroke:#000000;stroke-width:1.0;"/><path d="M324,112.2207 L337,112.2207 C354.5071,112.2207 372.7802,112.8832 390.9604,113.9671 " fill="none" style="stroke:#000000;stroke-width:1.0;stroke-dasharray:3.0,3.0;"/><path d="M390.7645,117.0805 L393.2954,114.114 L391.1562,110.8538 L398.7437,114.4567 L390.7645,117.0805 " fill="#000000" style="stroke:#000000;stroke-width:1.0;"/><ellipse cx="324" cy="112.2207" fill="#000000" rx="3" ry="3" style="stroke:#000000;stroke-width:1.0;"/><path d="M265,102.2207 L278,102.2207 C287.4213,102.2207 297.9164,102.2207 306.5483,102.2207 " fill="none" style="stroke:#000000;stroke-width:1.0;stroke-dasharray:3.0,3.0;"/><path d="M306.5483,105.2644 L308.8311,102.2207 L306.5483,99.177 L314.1575,102.2207 L306.5483,105.2644 " fill="#000000" style="stroke:#000000;stroke-width:1.0;"/><ellipse cx="265" cy="102.2207" fill="#000000" rx="3" ry="3" style="stroke:#000000;stroke-width:1.0;"/><!--SRC=[bL1BQm8n4BxdLmnxKj35Hoco9_5Li5fBLxsK7g8PbxZhHF9OaDB_tkpMR8-bXqp2VA_9Z8tbsfwD8WRmwGz0TDNAgbmL1V6IeWGYKd5kufFqXUjSbb7dXnXmeN9tGRBUopeJq1ArEQkQKFP3K-19aWpzj1Q0bGK43xI1cYk1XJGMFVEzReK96zX721c1TvhSLGrqG9DhMM9Xi2RC6dz03Ow4hng5p51BogAx-AlpLz3YVq6dIfWP_qFRPDJt1wjUOoHHBv-z5fpiRhs2QcrI4VJZGMymZ4Ujr16i-Gq6VUZtak4ewVLWEa-tKE5jrdfwNO5HJXyHX5-NbWTdlK6RBNd9uSsHbHTCO7D5MiwUGmFcL4gjg1gLBVVhNyBZGtSYBQIe_IYmNxCPdhWhh5SSbV3BIc2tNNH7RCKfSppptaXighollYNmila6]--></g></svg>