<?xml version="1.0" encoding="us-ascii" standalone="no"?><svg xmlns="http://www.w3.org/2000/svg" xmlns:xlink="http://www.w3.org/1999/xlink" contentStyleType="text/css" height="164px" preserveAspectRatio="none" style="width:1241px;height:164px;background:#FFFFFF;" version="1.1" viewBox="0 0 1241 164" width="1241px" zoomAndPan="magnify"><defs/><g><rect fill="#F1F1F1" height="102.4414" rx="5" ry="5" style="stroke:#F1F1F1;stroke-width:1.5;" width="782" x="10" y="10"/><text fill="#000000" font-family="sans-serif" font-size="14" font-weight="bold" lengthAdjust="spacing" textLength="101" x="15" y="25.5352">protokollnavn</text><text fill="#000000" font-family="sans-serif" font-size="14" lengthAdjust="spacing" textLength="102" x="126" y="25.5352">no.ks.fiks.arkiv</text><line style="stroke:#000000;stroke-width:1.0;" x1="121" x2="121" y1="10" y2="30.4883"/><line style="stroke:#000000;stroke-width:1.0;" x1="10" x2="792" y1="30.4883" y2="30.4883"/><text fill="#000000" font-family="sans-serif" font-size="14" font-weight="bold" lengthAdjust="spacing" textLength="34" x="15" y="46.0234">navn</text><text fill="#000000" font-family="sans-serif" font-size="14" lengthAdjust="spacing" textLength="196" x="126" y="46.0234">elektroniskSignaturVerifisert</text><line style="stroke:#000000;stroke-width:1.0;" x1="121" x2="121" y1="30.4883" y2="50.9766"/><line style="stroke:#000000;stroke-width:1.0;" x1="10" x2="792" y1="50.9766" y2="50.9766"/><text fill="#000000" font-family="sans-serif" font-size="14" font-weight="bold" lengthAdjust="spacing" textLength="53" x="15" y="66.5117">versjon</text><text fill="#000000" font-family="sans-serif" font-size="14" lengthAdjust="spacing" textLength="16" x="126" y="66.5117">v1</text><line style="stroke:#000000;stroke-width:1.0;" x1="121" x2="121" y1="50.9766" y2="71.4648"/><line style="stroke:#000000;stroke-width:1.0;" x1="10" x2="792" y1="71.4648" y2="71.4648"/><text fill="#000000" font-family="sans-serif" font-size="14" font-weight="bold" lengthAdjust="spacing" textLength="73" x="15" y="87">definisjon</text><text fill="#000000" font-family="sans-serif" font-size="14" lengthAdjust="spacing" textLength="661" x="126" y="87">Angivelse av om et dokument er mottatt med elektronisk signatur, og om signaturen er verifisert</text><line style="stroke:#000000;stroke-width:1.0;" x1="121" x2="121" y1="71.4648" y2="91.9531"/><line style="stroke:#000000;stroke-width:1.0;" x1="10" x2="792" y1="91.9531" y2="91.9531"/><text fill="#000000" font-family="sans-serif" font-size="14" font-weight="bold" lengthAdjust="spacing" textLength="67" x="15" y="107.4883">kodeliste</text><text fill="#000000" font-family="sans-serif" font-size="14" lengthAdjust="spacing" textLength="12" x="126" y="107.4883">&#160;&#160;&#160;</text><line style="stroke:#000000;stroke-width:1.0;" x1="121" x2="121" y1="91.9531" y2="112.4414"/><rect fill="none" height="102.4414" rx="5" ry="5" style="stroke:#000000;stroke-width:1.5;" width="782" x="10" y="10"/><rect fill="#F1F1F1" height="40.9766" rx="5" ry="5" style="stroke:#F1F1F1;stroke-width:1.5;" width="22" x="829" y="81.7207"/><text fill="#000000" font-family="sans-serif" font-size="14" lengthAdjust="spacing" textLength="12" x="834" y="97.2559">&#160;&#160;&#160;</text><line style="stroke:#000000;stroke-width:1.0;" x1="829" x2="851" y1="102.209" y2="102.209"/><text fill="#000000" font-family="sans-serif" font-size="14" lengthAdjust="spacing" textLength="12" x="834" y="117.7441">&#160;&#160;&#160;</text><rect fill="none" height="40.9766" rx="5" ry="5" style="stroke:#000000;stroke-width:1.5;" width="22" x="829" y="81.7207"/><rect fill="#F1F1F1" height="40.9766" rx="5" ry="5" style="stroke:#F1F1F1;stroke-width:1.5;" width="341" x="888" y="52.7207"/><text fill="#000000" font-family="sans-serif" font-size="14" font-weight="bold" lengthAdjust="spacing" textLength="71" x="893" y="68.2559">kodeverdi</text><text fill="#000000" font-family="sans-serif" font-size="14" lengthAdjust="spacing" textLength="4" x="1020" y="68.2559">I</text><line style="stroke:#000000;stroke-width:1.0;" x1="1015" x2="1015" y1="52.7207" y2="73.209"/><line style="stroke:#000000;stroke-width:1.0;" x1="888" x2="1229" y1="73.209" y2="73.209"/><text fill="#000000" font-family="sans-serif" font-size="14" font-weight="bold" lengthAdjust="spacing" textLength="117" x="893" y="88.7441">kodebeskrivelse</text><text fill="#000000" font-family="sans-serif" font-size="14" lengthAdjust="spacing" textLength="204" x="1020" y="88.7441">Signatur p&#229;f&#248;rt, ikke verifisert</text><line style="stroke:#000000;stroke-width:1.0;" x1="1015" x2="1015" y1="73.209" y2="93.6973"/><rect fill="none" height="40.9766" rx="5" ry="5" style="stroke:#000000;stroke-width:1.5;" width="341" x="888" y="52.7207"/><rect fill="#F1F1F1" height="40.9766" rx="5" ry="5" style="stroke:#F1F1F1;stroke-width:1.5;" width="327" x="895" y="111.7207"/><text fill="#000000" font-family="sans-serif" font-size="14" font-weight="bold" lengthAdjust="spacing" textLength="71" x="900" y="127.2559">kodeverdi</text><text fill="#000000" font-family="sans-serif" font-size="14" lengthAdjust="spacing" textLength="9" x="1027" y="127.2559">V</text><line style="stroke:#000000;stroke-width:1.0;" x1="1022" x2="1022" y1="111.7207" y2="132.209"/><line style="stroke:#000000;stroke-width:1.0;" x1="895" x2="1222" y1="132.209" y2="132.209"/><text fill="#000000" font-family="sans-serif" font-size="14" font-weight="bold" lengthAdjust="spacing" textLength="117" x="900" y="147.7441">kodebeskrivelse</text><text fill="#000000" font-family="sans-serif" font-size="14" lengthAdjust="spacing" textLength="190" x="1027" y="147.7441">Signatur p&#229;f&#248;rt og verifisert</text><line style="stroke:#000000;stroke-width:1.0;" x1="1022" x2="1022" y1="132.209" y2="152.6973"/><rect fill="none" height="40.9766" rx="5" ry="5" style="stroke:#000000;stroke-width:1.5;" width="327" x="895" y="111.7207"/><path d="M839,92.2207 L852,92.2207 C861.3521,92.2207 870.933,92.0241 880.5993,91.671 " fill="none" style="stroke:#000000;stroke-width:1.0;stroke-dasharray:3.0,3.0;"/><path d="M880.7257,94.7781 L882.9297,91.5762 L880.4729,88.5639 L888.3671,91.3549 L880.7257,94.7781 " fill="#000000" style="stroke:#000000;stroke-width:1.0;"/><ellipse cx="839" cy="92.2207" fill="#000000" rx="3" ry="3" style="stroke:#000000;stroke-width:1.0;"/><path d="M839,112.2207 L852,112.2207 C863.6793,112.2207 875.7137,112.5431 887.8248,113.1061 " fill="none" style="stroke:#000000;stroke-width:1.0;stroke-dasharray:3.0,3.0;"/><path d="M887.6725,116.1254 L890.0893,113.2204 L887.9772,110.0868 L895.3731,113.487 L887.6725,116.1254 " fill="#000000" style="stroke:#000000;stroke-width:1.0;"/><ellipse cx="839" cy="112.2207" fill="#000000" rx="3" ry="3" style="stroke:#000000;stroke-width:1.0;"/><path d="M780,102.2207 L793,102.2207 C802.4213,102.2207 812.9164,102.2207 821.5483,102.2207 " fill="none" style="stroke:#000000;stroke-width:1.0;stroke-dasharray:3.0,3.0;"/><path d="M821.5483,105.2644 L823.8311,102.2207 L821.5483,99.177 L829.1575,102.2207 L821.5483,105.2644 " fill="#000000" style="stroke:#000000;stroke-width:1.0;"/><ellipse cx="780" cy="102.2207" fill="#000000" rx="3" ry="3" style="stroke:#000000;stroke-width:1.0;"/><!--SRC=[bL7BIWD14BpFLpHxKeWXYI9XJxx5c6Wmceju6DtUfPtTdZ3JEo3Yv_WFtlqnPpU9YeBWfM6wghggf_UyQ2UFth9wLW39mbcnnfObwy192WdRhl7Td6BHpb18EWrjZMA9HfnbycP61MkftHmTvUJHoP8QqFb7sx93VzdACASeMNNtkQ20fKVG0Mm5A91PKrV80kYWiY9Q12hCu9iT-9LV1spHoDPlv4OLVgGmDiEIl61ql8qDWEUshg18poY1cEQivNy2z-YDMyPhuVMMi7X_pT_Vd7I0ZC7lVgtyfVENoVoV9isAlnnYlLClQWyvQ- -dfgLckPcC6wedoz3l3dg3xUvmOrOpJFGJ3FhGxwNRmxJNWyFZsJKq-ARQE9sEmTlQFI1ayPCStTSI1sogaGuQhceMgZ25omNowEXytO1Z3XIlqLnAZUQJByBkpjO12SpGnIWmdwWZp7LTIbGys8ouIE7c-cHhgCQQYreNSJQoEhHnhdjAuUBo0m00]--></g></svg>