<svg xmlns="http://www.w3.org/2000/svg" xmlns:xlink="http://www.w3.org/1999/xlink" contentStyleType="text/css" height="298px" preserveAspectRatio="none" style="width:715px;height:298px;background:#FFFFFF;" version="1.1" viewBox="0 0 715 298" width="715px" zoomAndPan="magnify"><defs/><g><rect fill="#F1F1F1" height="102.4414" rx="5" ry="5" style="stroke:#F1F1F1;stroke-width:1.5;" width="271" x="10" y="56.2793"/><text fill="#000000" font-family="sans-serif" font-size="14" font-weight="bold" lengthAdjust="spacing" textLength="101" x="15" y="71.8145">protokollnavn</text><text fill="#000000" font-family="sans-serif" font-size="14" lengthAdjust="spacing" textLength="102" x="126" y="71.8145">no.ks.fiks.arkiv</text><line style="stroke:#000000;stroke-width:1.0;" x1="121" x2="121" y1="56.2793" y2="76.7676"/><line style="stroke:#000000;stroke-width:1.0;" x1="10" x2="281" y1="76.7676" y2="76.7676"/><text fill="#000000" font-family="sans-serif" font-size="14" font-weight="bold" lengthAdjust="spacing" textLength="34" x="15" y="92.3027">navn</text><text fill="#000000" font-family="sans-serif" font-size="14" lengthAdjust="spacing" textLength="102" x="126" y="92.3027">moetesakstype</text><line style="stroke:#000000;stroke-width:1.0;" x1="121" x2="121" y1="76.7676" y2="97.2559"/><line style="stroke:#000000;stroke-width:1.0;" x1="10" x2="281" y1="97.2559" y2="97.2559"/><text fill="#000000" font-family="sans-serif" font-size="14" font-weight="bold" lengthAdjust="spacing" textLength="53" x="15" y="112.791">versjon</text><text fill="#000000" font-family="sans-serif" font-size="14" lengthAdjust="spacing" textLength="16" x="126" y="112.791">v1</text><line style="stroke:#000000;stroke-width:1.0;" x1="121" x2="121" y1="97.2559" y2="117.7441"/><line style="stroke:#000000;stroke-width:1.0;" x1="10" x2="281" y1="117.7441" y2="117.7441"/><text fill="#000000" font-family="sans-serif" font-size="14" font-weight="bold" lengthAdjust="spacing" textLength="73" x="15" y="133.2793">definisjon</text><text fill="#000000" font-family="sans-serif" font-size="14" lengthAdjust="spacing" textLength="150" x="126" y="133.2793">Navn p&#229; type m&#248;tesak</text><line style="stroke:#000000;stroke-width:1.0;" x1="121" x2="121" y1="117.7441" y2="138.2324"/><line style="stroke:#000000;stroke-width:1.0;" x1="10" x2="281" y1="138.2324" y2="138.2324"/><text fill="#000000" font-family="sans-serif" font-size="14" font-weight="bold" lengthAdjust="spacing" textLength="67" x="15" y="153.7676">kodeliste</text><text fill="#000000" font-family="sans-serif" font-size="14" lengthAdjust="spacing" textLength="12" x="126" y="153.7676">&#160;&#160;&#160;</text><line style="stroke:#000000;stroke-width:1.0;" x1="121" x2="121" y1="138.2324" y2="158.7207"/><rect fill="none" height="102.4414" rx="5" ry="5" style="stroke:#000000;stroke-width:1.5;" width="271" x="10" y="56.2793"/><rect fill="#F1F1F1" height="102.4414" rx="5" ry="5" style="stroke:#F1F1F1;stroke-width:1.5;" width="22" x="318" y="97.2793"/><text fill="#000000" font-family="sans-serif" font-size="14" lengthAdjust="spacing" textLength="12" x="323" y="112.8145">&#160;&#160;&#160;</text><line style="stroke:#000000;stroke-width:1.0;" x1="318" x2="340" y1="117.7676" y2="117.7676"/><text fill="#000000" font-family="sans-serif" font-size="14" lengthAdjust="spacing" textLength="12" x="323" y="133.3027">&#160;&#160;&#160;</text><line style="stroke:#000000;stroke-width:1.0;" x1="318" x2="340" y1="138.2559" y2="138.2559"/><text fill="#000000" font-family="sans-serif" font-size="14" lengthAdjust="spacing" textLength="12" x="323" y="153.791">&#160;&#160;&#160;</text><line style="stroke:#000000;stroke-width:1.0;" x1="318" x2="340" y1="158.7441" y2="158.7441"/><text fill="#000000" font-family="sans-serif" font-size="14" lengthAdjust="spacing" textLength="12" x="323" y="174.2793">&#160;&#160;&#160;</text><line style="stroke:#000000;stroke-width:1.0;" x1="318" x2="340" y1="179.2324" y2="179.2324"/><text fill="#000000" font-family="sans-serif" font-size="14" lengthAdjust="spacing" textLength="12" x="323" y="194.7676">&#160;&#160;&#160;</text><rect fill="none" height="102.4414" rx="5" ry="5" style="stroke:#000000;stroke-width:1.5;" width="22" x="318" y="97.2793"/><rect fill="#F1F1F1" height="40.9766" rx="5" ry="5" style="stroke:#F1F1F1;stroke-width:1.5;" width="213" x="433.5" y="10"/><text fill="#000000" font-family="sans-serif" font-size="14" font-weight="bold" lengthAdjust="spacing" textLength="71" x="438.5" y="25.5352">kodeverdi</text><text fill="#000000" font-family="sans-serif" font-size="14" lengthAdjust="spacing" textLength="16" x="565.5" y="25.5352">PS</text><line style="stroke:#000000;stroke-width:1.0;" x1="560.5" x2="560.5" y1="10" y2="30.4883"/><line style="stroke:#000000;stroke-width:1.0;" x1="433.5" x2="646.5" y1="30.4883" y2="30.4883"/><text fill="#000000" font-family="sans-serif" font-size="14" font-weight="bold" lengthAdjust="spacing" textLength="117" x="438.5" y="46.0234">kodebeskrivelse</text><text fill="#000000" font-family="sans-serif" font-size="14" lengthAdjust="spacing" textLength="76" x="565.5" y="46.0234">Politisk sak</text><line style="stroke:#000000;stroke-width:1.0;" x1="560.5" x2="560.5" y1="30.4883" y2="50.9766"/><rect fill="none" height="40.9766" rx="5" ry="5" style="stroke:#000000;stroke-width:1.5;" width="213" x="433.5" y="10"/><rect fill="#F1F1F1" height="40.9766" rx="5" ry="5" style="stroke:#F1F1F1;stroke-width:1.5;" width="257" x="411.5" y="69"/><text fill="#000000" font-family="sans-serif" font-size="14" font-weight="bold" lengthAdjust="spacing" textLength="71" x="416.5" y="84.5352">kodeverdi</text><text fill="#000000" font-family="sans-serif" font-size="14" lengthAdjust="spacing" textLength="18" x="543.5" y="84.5352">DS</text><line style="stroke:#000000;stroke-width:1.0;" x1="538.5" x2="538.5" y1="69" y2="89.4883"/><line style="stroke:#000000;stroke-width:1.0;" x1="411.5" x2="668.5" y1="89.4883" y2="89.4883"/><text fill="#000000" font-family="sans-serif" font-size="14" font-weight="bold" lengthAdjust="spacing" textLength="117" x="416.5" y="105.0234">kodebeskrivelse</text><text fill="#000000" font-family="sans-serif" font-size="14" lengthAdjust="spacing" textLength="120" x="543.5" y="105.0234">Delegert m&#248;tesak</text><line style="stroke:#000000;stroke-width:1.0;" x1="538.5" x2="538.5" y1="89.4883" y2="109.9766"/><rect fill="none" height="40.9766" rx="5" ry="5" style="stroke:#000000;stroke-width:1.5;" width="257" x="411.5" y="69"/><rect fill="#F1F1F1" height="40.9766" rx="5" ry="5" style="stroke:#F1F1F1;stroke-width:1.5;" width="209" x="435.5" y="128"/><text fill="#000000" font-family="sans-serif" font-size="14" font-weight="bold" lengthAdjust="spacing" textLength="71" x="440.5" y="143.5352">kodeverdi</text><text fill="#000000" font-family="sans-serif" font-size="14" lengthAdjust="spacing" textLength="17" x="567.5" y="143.5352">RS</text><line style="stroke:#000000;stroke-width:1.0;" x1="562.5" x2="562.5" y1="128" y2="148.4883"/><line style="stroke:#000000;stroke-width:1.0;" x1="435.5" x2="644.5" y1="148.4883" y2="148.4883"/><text fill="#000000" font-family="sans-serif" font-size="14" font-weight="bold" lengthAdjust="spacing" textLength="117" x="440.5" y="164.0234">kodebeskrivelse</text><text fill="#000000" font-family="sans-serif" font-size="14" lengthAdjust="spacing" textLength="72" x="567.5" y="164.0234">Referatsak</text><line style="stroke:#000000;stroke-width:1.0;" x1="562.5" x2="562.5" y1="148.4883" y2="168.9766"/><rect fill="none" height="40.9766" rx="5" ry="5" style="stroke:#000000;stroke-width:1.5;" width="209" x="435.5" y="128"/><rect fill="#F1F1F1" height="40.9766" rx="5" ry="5" style="stroke:#F1F1F1;stroke-width:1.5;" width="326" x="377" y="187"/><text fill="#000000" font-family="sans-serif" font-size="14" font-weight="bold" lengthAdjust="spacing" textLength="71" x="382" y="202.5352">kodeverdi</text><text fill="#000000" font-family="sans-serif" font-size="14" lengthAdjust="spacing" textLength="19" x="509" y="202.5352">FO</text><line style="stroke:#000000;stroke-width:1.0;" x1="504" x2="504" y1="187" y2="207.4883"/><line style="stroke:#000000;stroke-width:1.0;" x1="377" x2="703" y1="207.4883" y2="207.4883"/><text fill="#000000" font-family="sans-serif" font-size="14" font-weight="bold" lengthAdjust="spacing" textLength="117" x="382" y="223.0234">kodebeskrivelse</text><text fill="#000000" font-family="sans-serif" font-size="14" lengthAdjust="spacing" textLength="189" x="509" y="223.0234">Foresp&#248;rsel (interpellasjon)</text><line style="stroke:#000000;stroke-width:1.0;" x1="504" x2="504" y1="207.4883" y2="227.9766"/><rect fill="none" height="40.9766" rx="5" ry="5" style="stroke:#000000;stroke-width:1.5;" width="326" x="377" y="187"/><rect fill="#F1F1F1" height="40.9766" rx="5" ry="5" style="stroke:#F1F1F1;stroke-width:1.5;" width="178" x="451" y="246"/><text fill="#000000" font-family="sans-serif" font-size="14" font-weight="bold" lengthAdjust="spacing" textLength="71" x="456" y="261.5352">kodeverdi</text><text fill="#000000" font-family="sans-serif" font-size="14" lengthAdjust="spacing" textLength="20" x="583" y="261.5352">AN</text><line style="stroke:#000000;stroke-width:1.0;" x1="578" x2="578" y1="246" y2="266.4883"/><line style="stroke:#000000;stroke-width:1.0;" x1="451" x2="629" y1="266.4883" y2="266.4883"/><text fill="#000000" font-family="sans-serif" font-size="14" font-weight="bold" lengthAdjust="spacing" textLength="117" x="456" y="282.0234">kodebeskrivelse</text><text fill="#000000" font-family="sans-serif" font-size="14" lengthAdjust="spacing" textLength="41" x="583" y="282.0234">Annet</text><line style="stroke:#000000;stroke-width:1.0;" x1="578" x2="578" y1="266.4883" y2="286.9766"/><rect fill="none" height="40.9766" rx="5" ry="5" style="stroke:#000000;stroke-width:1.5;" width="178" x="451" y="246"/><path d="M328,107.5 L341,107.5 C367.6667,107.5 354.2932,73.4826 377,59.5 C391.9462,50.2963 409.0427,43.8366 426.4048,39.3347 " fill="none" style="stroke:#000000;stroke-width:1.0;stroke-dasharray:3.0,3.0;"/><path d="M427.1295,42.3154 L428.6403,38.7912 L425.6801,36.354 L433.8565,37.5229 L427.1295,42.3154 " fill="#000000" style="stroke:#000000;stroke-width:1.0;"/><ellipse cx="328" cy="107.5" fill="#000000" rx="3" ry="3" style="stroke:#000000;stroke-width:1.0;"/><path d="M328,128.5 L341,128.5 C357.4924,128.5 360.883,122.9988 377,119.5 C389.5382,116.7781 402.6551,114.0917 415.7657,111.5114 " fill="none" style="stroke:#000000;stroke-width:1.0;stroke-dasharray:3.0,3.0;"/><path d="M416.3682,114.597 L418.0799,111.0594 L415.1631,108.4257 L423.4798,110.0049 L416.3682,114.597 " fill="#000000" style="stroke:#000000;stroke-width:1.0;"/><ellipse cx="328" cy="128.5" fill="#000000" rx="3" ry="3" style="stroke:#000000;stroke-width:1.0;"/><path d="M328,148.5 L341,148.5 C369.3132,148.5 399.898,148.5 428.3803,148.5 " fill="none" style="stroke:#000000;stroke-width:1.0;stroke-dasharray:3.0,3.0;"/><path d="M428.3803,151.5329 L430.6549,148.5 L428.3803,145.4671 L435.9625,148.5 L428.3803,151.5329 " fill="#000000" style="stroke:#000000;stroke-width:1.0;"/><ellipse cx="328" cy="148.5" fill="#000000" rx="3" ry="3" style="stroke:#000000;stroke-width:1.0;"/><path d="M328,168.5 L341,168.5 C357.6058,168.5 360.8082,174.815 377,178.5 C387.5572,180.9027 398.5377,183.2278 409.5865,185.4459 " fill="none" style="stroke:#000000;stroke-width:1.0;stroke-dasharray:3.0,3.0;"/><path d="M408.9792,188.5082 L411.8832,185.9014 L410.1938,182.3836 L417.2423,186.9641 L408.9792,188.5082 " fill="#000000" style="stroke:#000000;stroke-width:1.0;"/><ellipse cx="328" cy="168.5" fill="#000000" rx="3" ry="3" style="stroke:#000000;stroke-width:1.0;"/><path d="M328,189.5 L341,189.5 C367.6667,189.5 354.2932,223.5174 377,237.5 C396.9272,249.771 420.6765,257.1642 443.7818,261.5429 " fill="none" style="stroke:#000000;stroke-width:1.0;stroke-dasharray:3.0,3.0;"/><path d="M443.2546,264.5323 L446.0239,261.9383 L444.3091,258.5535 L451.2553,262.861 L443.2546,264.5323 " fill="#000000" style="stroke:#000000;stroke-width:1.0;"/><ellipse cx="328" cy="189.5" fill="#000000" rx="3" ry="3" style="stroke:#000000;stroke-width:1.0;"/><path d="M269,148.5 L282,148.5 C291.4213,148.5 301.9164,148.5 310.5483,148.5 " fill="none" style="stroke:#000000;stroke-width:1.0;stroke-dasharray:3.0,3.0;"/><path d="M310.5483,151.5437 L312.8311,148.5 L310.5483,145.4563 L318.1575,148.5 L310.5483,151.5437 " fill="#000000" style="stroke:#000000;stroke-width:1.0;"/><ellipse cx="269" cy="148.5" fill="#000000" rx="3" ry="3" style="stroke:#000000;stroke-width:1.0;"/><!--SRC=[ZP9DRi8m48NtFiKeAv0eQX2WAYjQVYfH_WI5JTM5smp8n8mZUn89LJrExz0z5wiJIjbHDhDuxyqt8uyxZgNbhJCaFWH0a5h39Z5QaymfY20WKqzSVQryaJPHUL0hOYTtPv3HoSJnFiMZbQDrMrEwUNYKObmhKYTrudiXFNn1qGExmtT9E2OJ4wDMZj47Nxm0y57MNykpOnM0XymMPSEVyuOkiIf7xV3e6wrOkGGAT1dyh5tYzVxXzL3Z1YsVzxq2Ely7EiSrMibNqWRJoxI1iUZImxTrgA6YYD6cgBKithrwpO3xoUK1zqJ8lo1VNyMdw235vUSHCos9b-CH5FTNXY2iDsuRpNghiiW8nd8FZJQ4OHIsejOTTFkBPoZyggWypaRWJ6RV4M9_UglUClQ0gXZANC8y8rOxZ62Q8WrxJoS1-fGhQsY7n6Au6fy3xURDWs9OeFMhm6eiUhYMcMRVyMvYHPi8bi-3cpinahJ9vCQpaKJNUAxTHp2P_W00]--></g></svg>