<?xml version="1.0" encoding="us-ascii" standalone="no"?><svg xmlns="http://www.w3.org/2000/svg" xmlns:xlink="http://www.w3.org/1999/xlink" contentStyleType="text/css" height="607px" preserveAspectRatio="none" style="width:2895px;height:607px;background:#FFFFFF;" version="1.1" viewBox="0 0 2895 607" width="2895px" zoomAndPan="magnify"><defs/><g><!--class dokumentbeskrivelseMinimum--><g id="elem_dokumentbeskrivelseMinimum"><rect codeLine="2" fill="#F1F1F1" height="163.418" id="dokumentbeskrivelseMinimum" rx="2.5" ry="2.5" style="stroke:#181818;stroke-width:0.5;" width="338" x="1764" y="23.49"/><ellipse cx="1823.75" cy="39.49" fill="#ADD1B2" rx="11" ry="11" style="stroke:#181818;stroke-width:1.0;"/><path d="M1826.2231,45.6331 Q1825.6421,45.9319 1825.0029,46.0813 Q1824.3638,46.2307 1823.6582,46.2307 Q1821.1514,46.2307 1819.8315,44.5789 Q1818.5117,42.927 1818.5117,39.8059 Q1818.5117,36.6765 1819.8315,35.0247 Q1821.1514,33.3728 1823.6582,33.3728 Q1824.3638,33.3728 1825.0112,33.5222 Q1825.6587,33.6716 1826.2231,33.9705 L1826.2231,36.6931 Q1825.5923,36.1121 1824.9988,35.8423 Q1824.4053,35.5725 1823.7744,35.5725 Q1822.4297,35.5725 1821.7449,36.6392 Q1821.0601,37.7058 1821.0601,39.8059 Q1821.0601,41.8977 1821.7449,42.9644 Q1822.4297,44.031 1823.7744,44.031 Q1824.4053,44.031 1824.9988,43.7612 Q1825.5923,43.4915 1826.2231,42.9104 Z " fill="#000000"/><text fill="#000000" font-family="sans-serif" font-size="14" lengthAdjust="spacing" textLength="210" x="1844.25" y="44.781">dokumentbeskrivelseMinimum</text><line style="stroke:#181818;stroke-width:0.5;" x1="1765" x2="2101" y1="55.49" y2="55.49"/><ellipse cx="1775" cy="69.2341" fill="none" rx="3" ry="3" style="stroke:#038048;stroke-width:1.0;"/><text fill="#000000" font-family="sans-serif" font-size="14" lengthAdjust="spacing" textLength="134" x="1784" y="73.0252">systemID : systemID</text><ellipse cx="1775" cy="85.7224" fill="none" rx="3" ry="3" style="stroke:#038048;stroke-width:1.0;"/><text fill="#000000" font-family="sans-serif" font-size="14" lengthAdjust="spacing" textLength="210" x="1784" y="89.5134">dokumenttype : dokumenttype</text><ellipse cx="1775" cy="102.2107" fill="none" rx="3" ry="3" style="stroke:#038048;stroke-width:1.0;"/><text fill="#000000" font-family="sans-serif" font-size="14" lengthAdjust="spacing" textLength="234" x="1784" y="106.0017">dokumentstatus : dokumentstatus</text><ellipse cx="1775" cy="118.699" fill="none" rx="3" ry="3" style="stroke:#038048;stroke-width:1.0;"/><text fill="#000000" font-family="sans-serif" font-size="14" lengthAdjust="spacing" textLength="83" x="1784" y="122.49">tittel : string</text><ellipse cx="1775" cy="135.1873" fill="none" rx="3" ry="3" style="stroke:#038048;stroke-width:1.0;"/><text fill="#000000" font-family="sans-serif" font-size="14" lengthAdjust="spacing" textLength="212" x="1784" y="138.9783">skjerming : skjermingMinimum</text><ellipse cx="1775" cy="151.6755" fill="none" rx="3" ry="3" style="stroke:#038048;stroke-width:1.0;"/><text fill="#000000" font-family="sans-serif" font-size="14" lengthAdjust="spacing" textLength="212" x="1784" y="155.4666">gradering : graderingMinimum</text><ellipse cx="1775" cy="168.1638" fill="none" rx="3" ry="3" style="stroke:#038048;stroke-width:1.0;"/><text fill="#000000" font-family="sans-serif" font-size="14" lengthAdjust="spacing" textLength="312" x="1784" y="171.9548">dokumentobjekt : dokumentobjektMinimum[]</text><line style="stroke:#181818;stroke-width:0.5;" x1="1765" x2="2101" y1="178.908" y2="178.908"/></g><!--class dokumentobjektMinimum--><g id="elem_dokumentobjektMinimum"><rect codeLine="11" fill="#F1F1F1" height="163.418" id="dokumentobjektMinimum" rx="2.5" ry="2.5" style="stroke:#181818;stroke-width:0.5;" width="227" x="2136.5" y="23.49"/><ellipse cx="2159.6" cy="39.49" fill="#ADD1B2" rx="11" ry="11" style="stroke:#181818;stroke-width:1.0;"/><path d="M2162.0731,45.6331 Q2161.4921,45.9319 2160.8529,46.0813 Q2160.2138,46.2307 2159.5082,46.2307 Q2157.0014,46.2307 2155.6815,44.5789 Q2154.3617,42.927 2154.3617,39.8059 Q2154.3617,36.6765 2155.6815,35.0247 Q2157.0014,33.3728 2159.5082,33.3728 Q2160.2138,33.3728 2160.8612,33.5222 Q2161.5087,33.6716 2162.0731,33.9705 L2162.0731,36.6931 Q2161.4423,36.1121 2160.8488,35.8423 Q2160.2553,35.5725 2159.6244,35.5725 Q2158.2797,35.5725 2157.5949,36.6392 Q2156.9101,37.7058 2156.9101,39.8059 Q2156.9101,41.8977 2157.5949,42.9644 Q2158.2797,44.031 2159.6244,44.031 Q2160.2553,44.031 2160.8488,43.7612 Q2161.4423,43.4915 2162.0731,42.9104 Z " fill="#000000"/><text fill="#000000" font-family="sans-serif" font-size="14" lengthAdjust="spacing" textLength="177" x="2175.4" y="44.781">dokumentobjektMinimum</text><line style="stroke:#181818;stroke-width:0.5;" x1="2137.5" x2="2362.5" y1="55.49" y2="55.49"/><ellipse cx="2147.5" cy="69.2341" fill="none" rx="3" ry="3" style="stroke:#038048;stroke-width:1.0;"/><text fill="#000000" font-family="sans-serif" font-size="14" lengthAdjust="spacing" textLength="134" x="2156.5" y="73.0252">systemID : systemID</text><ellipse cx="2147.5" cy="85.7224" fill="none" rx="3" ry="3" style="stroke:#038048;stroke-width:1.0;"/><text fill="#000000" font-family="sans-serif" font-size="14" lengthAdjust="spacing" textLength="145" x="2156.5" y="89.5134">versjonsnummer : int</text><ellipse cx="2147.5" cy="102.2107" fill="none" rx="3" ry="3" style="stroke:#038048;stroke-width:1.0;"/><text fill="#000000" font-family="sans-serif" font-size="14" lengthAdjust="spacing" textLength="198" x="2156.5" y="106.0017">variantformat : variantformat</text><ellipse cx="2147.5" cy="118.699" fill="none" rx="3" ry="3" style="stroke:#038048;stroke-width:1.0;"/><text fill="#000000" font-family="sans-serif" font-size="14" lengthAdjust="spacing" textLength="104" x="2156.5" y="122.49">format : format</text><ellipse cx="2147.5" cy="135.1873" fill="none" rx="3" ry="3" style="stroke:#038048;stroke-width:1.0;"/><text fill="#000000" font-family="sans-serif" font-size="14" lengthAdjust="spacing" textLength="151" x="2156.5" y="138.9783">formatDetaljer : string</text><ellipse cx="2147.5" cy="151.6755" fill="none" rx="3" ry="3" style="stroke:#038048;stroke-width:1.0;"/><text fill="#000000" font-family="sans-serif" font-size="14" lengthAdjust="spacing" textLength="201" x="2156.5" y="155.4666">referanseDokumentfil : string</text><ellipse cx="2147.5" cy="168.1638" fill="none" rx="3" ry="3" style="stroke:#038048;stroke-width:1.0;"/><text fill="#000000" font-family="sans-serif" font-size="14" lengthAdjust="spacing" textLength="111" x="2156.5" y="171.9548">filstoerrelse : int</text><line style="stroke:#181818;stroke-width:0.5;" x1="2137.5" x2="2362.5" y1="178.908" y2="178.908"/></g><!--class graderingMinimum--><g id="elem_graderingMinimum"><rect codeLine="20" fill="#F1F1F1" height="130.4414" id="graderingMinimum" rx="2.5" ry="2.5" style="stroke:#181818;stroke-width:0.5;" width="234" x="2399" y="39.98"/><ellipse cx="2445.75" cy="55.98" fill="#ADD1B2" rx="11" ry="11" style="stroke:#181818;stroke-width:1.0;"/><path d="M2448.2231,62.1231 Q2447.6421,62.4219 2447.0029,62.5713 Q2446.3638,62.7207 2445.6582,62.7207 Q2443.1514,62.7207 2441.8315,61.0689 Q2440.5117,59.417 2440.5117,56.2959 Q2440.5117,53.1665 2441.8315,51.5147 Q2443.1514,49.8628 2445.6582,49.8628 Q2446.3638,49.8628 2447.0112,50.0122 Q2447.6587,50.1616 2448.2231,50.4605 L2448.2231,53.1831 Q2447.5923,52.6021 2446.9988,52.3323 Q2446.4053,52.0625 2445.7744,52.0625 Q2444.4297,52.0625 2443.7449,53.1292 Q2443.0601,54.1958 2443.0601,56.2959 Q2443.0601,58.3877 2443.7449,59.4544 Q2444.4297,60.521 2445.7744,60.521 Q2446.4053,60.521 2446.9988,60.2512 Q2447.5923,59.9815 2448.2231,59.4004 Z " fill="#000000"/><text fill="#000000" font-family="sans-serif" font-size="14" lengthAdjust="spacing" textLength="132" x="2466.25" y="61.271">graderingMinimum</text><line style="stroke:#181818;stroke-width:0.5;" x1="2400" x2="2632" y1="71.98" y2="71.98"/><ellipse cx="2410" cy="85.7241" fill="none" rx="3" ry="3" style="stroke:#038048;stroke-width:1.0;"/><text fill="#000000" font-family="sans-serif" font-size="14" lengthAdjust="spacing" textLength="76" x="2419" y="89.5152">grad : grad</text><ellipse cx="2410" cy="102.2124" fill="none" rx="3" ry="3" style="stroke:#038048;stroke-width:1.0;"/><text fill="#000000" font-family="sans-serif" font-size="14" lengthAdjust="spacing" textLength="182" x="2419" y="106.0034">graderingsdato : dateTime</text><ellipse cx="2410" cy="118.7007" fill="none" rx="3" ry="3" style="stroke:#038048;stroke-width:1.0;"/><text fill="#000000" font-family="sans-serif" font-size="14" lengthAdjust="spacing" textLength="120" x="2419" y="122.4917">gradertAv : string</text><ellipse cx="2410" cy="135.189" fill="none" rx="3" ry="3" style="stroke:#038048;stroke-width:1.0;"/><text fill="#000000" font-family="sans-serif" font-size="14" lengthAdjust="spacing" textLength="208" x="2419" y="138.98">nedgraderingsdato : dateTime</text><ellipse cx="2410" cy="151.6773" fill="none" rx="3" ry="3" style="stroke:#038048;stroke-width:1.0;"/><text fill="#000000" font-family="sans-serif" font-size="14" lengthAdjust="spacing" textLength="146" x="2419" y="155.4683">nedgradertAv : string</text><line style="stroke:#181818;stroke-width:0.5;" x1="2400" x2="2632" y1="162.4214" y2="162.4214"/></g><!--class journalpostMedSaksmappeMinimum--><g id="elem_journalpostMedSaksmappeMinimum"><rect codeLine="27" fill="#F1F1F1" height="146.9297" id="journalpostMedSaksmappeMinimum" rx="2.5" ry="2.5" style="stroke:#181818;stroke-width:0.5;" width="294" x="7" y="31.74"/><ellipse cx="27.4" cy="47.74" fill="#ADD1B2" rx="11" ry="11" style="stroke:#181818;stroke-width:1.0;"/><path d="M29.8731,53.8831 Q29.2921,54.1819 28.6529,54.3313 Q28.0138,54.4807 27.3082,54.4807 Q24.8014,54.4807 23.4815,52.8289 Q22.1617,51.177 22.1617,48.0559 Q22.1617,44.9265 23.4815,43.2747 Q24.8014,41.6228 27.3082,41.6228 Q28.0138,41.6228 28.6612,41.7722 Q29.3087,41.9216 29.8731,42.2205 L29.8731,44.9431 Q29.2423,44.3621 28.6488,44.0923 Q28.0553,43.8225 27.4244,43.8225 Q26.0797,43.8225 25.3949,44.8892 Q24.7101,45.9558 24.7101,48.0559 Q24.7101,50.1477 25.3949,51.2144 Q26.0797,52.281 27.4244,52.281 Q28.0553,52.281 28.6488,52.0112 Q29.2423,51.7415 29.8731,51.1604 Z " fill="#000000"/><text fill="#000000" font-family="sans-serif" font-size="14" lengthAdjust="spacing" textLength="250" x="42.6" y="53.031">journalpostMedSaksmappeMinimum</text><line style="stroke:#181818;stroke-width:0.5;" x1="8" x2="300" y1="63.74" y2="63.74"/><ellipse cx="18" cy="77.4841" fill="none" rx="3" ry="3" style="stroke:#038048;stroke-width:1.0;"/><text fill="#000000" font-family="sans-serif" font-size="14" lengthAdjust="spacing" textLength="82" x="27" y="81.2752">saksaar : int</text><ellipse cx="18" cy="93.9724" fill="none" rx="3" ry="3" style="stroke:#038048;stroke-width:1.0;"/><text fill="#000000" font-family="sans-serif" font-size="14" lengthAdjust="spacing" textLength="172" x="27" y="97.7634">sakssekvensnummer : int</text><ellipse cx="18" cy="110.4607" fill="none" rx="3" ry="3" style="stroke:#038048;stroke-width:1.0;"/><text fill="#000000" font-family="sans-serif" font-size="14" lengthAdjust="spacing" textLength="103" x="27" y="114.2517">saksdato : date</text><ellipse cx="18" cy="126.949" fill="none" rx="3" ry="3" style="stroke:#038048;stroke-width:1.0;"/><text fill="#000000" font-family="sans-serif" font-size="14" lengthAdjust="spacing" textLength="268" x="27" y="130.74">administrativEnhet : administrativEnhet</text><ellipse cx="18" cy="143.4373" fill="none" rx="3" ry="3" style="stroke:#038048;stroke-width:1.0;"/><text fill="#000000" font-family="sans-serif" font-size="14" lengthAdjust="spacing" textLength="196" x="27" y="147.2283">saksansvarlig : saksansvarlig</text><ellipse cx="18" cy="159.9255" fill="none" rx="3" ry="3" style="stroke:#038048;stroke-width:1.0;"/><text fill="#000000" font-family="sans-serif" font-size="14" lengthAdjust="spacing" textLength="154" x="27" y="163.7166">saksstatus : saksstatus</text><line style="stroke:#181818;stroke-width:0.5;" x1="8" x2="300" y1="170.6697" y2="170.6697"/></g><!--class journalpostMinimum--><g id="elem_journalpostMinimum"><rect codeLine="36" fill="#F1F1F1" height="163.418" id="journalpostMinimum" rx="2.5" ry="2.5" style="stroke:#181818;stroke-width:0.5;" width="254" x="336" y="23.49"/><ellipse cx="387.25" cy="39.49" fill="#ADD1B2" rx="11" ry="11" style="stroke:#181818;stroke-width:1.0;"/><path d="M389.7231,45.6331 Q389.1421,45.9319 388.5029,46.0813 Q387.8638,46.2307 387.1582,46.2307 Q384.6514,46.2307 383.3315,44.5789 Q382.0117,42.927 382.0117,39.8059 Q382.0117,36.6765 383.3315,35.0247 Q384.6514,33.3728 387.1582,33.3728 Q387.8638,33.3728 388.5112,33.5222 Q389.1587,33.6716 389.7231,33.9705 L389.7231,36.6931 Q389.0923,36.1121 388.4988,35.8423 Q387.9053,35.5725 387.2744,35.5725 Q385.9297,35.5725 385.2449,36.6392 Q384.5601,37.7058 384.5601,39.8059 Q384.5601,41.8977 385.2449,42.9644 Q385.9297,44.031 387.2744,44.031 Q387.9053,44.031 388.4988,43.7612 Q389.0923,43.4915 389.7231,42.9104 Z " fill="#000000"/><text fill="#000000" font-family="sans-serif" font-size="14" lengthAdjust="spacing" textLength="143" x="407.75" y="44.781">journalpostMinimum</text><line style="stroke:#181818;stroke-width:0.5;" x1="337" x2="589" y1="55.49" y2="55.49"/><ellipse cx="347" cy="69.2341" fill="none" rx="3" ry="3" style="stroke:#038048;stroke-width:1.0;"/><text fill="#000000" font-family="sans-serif" font-size="14" lengthAdjust="spacing" textLength="101" x="356" y="73.0252">journalaar : int</text><ellipse cx="347" cy="85.7224" fill="none" rx="3" ry="3" style="stroke:#038048;stroke-width:1.0;"/><text fill="#000000" font-family="sans-serif" font-size="14" lengthAdjust="spacing" textLength="191" x="356" y="89.5134">journalsekvensnummer : int</text><ellipse cx="347" cy="102.2107" fill="none" rx="3" ry="3" style="stroke:#038048;stroke-width:1.0;"/><text fill="#000000" font-family="sans-serif" font-size="14" lengthAdjust="spacing" textLength="167" x="356" y="106.0017">journalpostnummer : int</text><ellipse cx="347" cy="118.699" fill="none" rx="3" ry="3" style="stroke:#038048;stroke-width:1.0;"/><text fill="#000000" font-family="sans-serif" font-size="14" lengthAdjust="spacing" textLength="228" x="356" y="122.49">journalposttype : journalposttype</text><ellipse cx="347" cy="135.1873" fill="none" rx="3" ry="3" style="stroke:#038048;stroke-width:1.0;"/><text fill="#000000" font-family="sans-serif" font-size="14" lengthAdjust="spacing" textLength="192" x="356" y="138.9783">journalstatus : journalstatus</text><ellipse cx="347" cy="151.6755" fill="none" rx="3" ry="3" style="stroke:#038048;stroke-width:1.0;"/><text fill="#000000" font-family="sans-serif" font-size="14" lengthAdjust="spacing" textLength="122" x="356" y="155.4666">journaldato : date</text><ellipse cx="347" cy="168.1638" fill="none" rx="3" ry="3" style="stroke:#038048;stroke-width:1.0;"/><text fill="#000000" font-family="sans-serif" font-size="14" lengthAdjust="spacing" textLength="164" x="356" y="171.9548">dokumentetsDato : date</text><line style="stroke:#181818;stroke-width:0.5;" x1="337" x2="589" y1="178.908" y2="178.908"/></g><!--class registreringMinimum--><g id="elem_registreringMinimum"><rect codeLine="80" fill="#F1F1F1" height="179.9063" id="registreringMinimum" rx="2.5" ry="2.5" style="stroke:#181818;stroke-width:0.5;" width="404" x="625" y="15.25"/><ellipse cx="750.25" cy="31.25" fill="#ADD1B2" rx="11" ry="11" style="stroke:#181818;stroke-width:1.0;"/><path d="M752.7231,37.3931 Q752.1421,37.6919 751.5029,37.8413 Q750.8638,37.9907 750.1582,37.9907 Q747.6514,37.9907 746.3315,36.3389 Q745.0117,34.687 745.0117,31.5659 Q745.0117,28.4365 746.3315,26.7847 Q747.6514,25.1328 750.1582,25.1328 Q750.8638,25.1328 751.5112,25.2822 Q752.1587,25.4316 752.7231,25.7305 L752.7231,28.4531 Q752.0923,27.8721 751.4988,27.6023 Q750.9053,27.3325 750.2744,27.3325 Q748.9297,27.3325 748.2449,28.3992 Q747.5601,29.4658 747.5601,31.5659 Q747.5601,33.6577 748.2449,34.7244 Q748.9297,35.791 750.2744,35.791 Q750.9053,35.791 751.4988,35.5212 Q752.0923,35.2515 752.7231,34.6704 Z " fill="#000000"/><text fill="#000000" font-family="sans-serif" font-size="14" lengthAdjust="spacing" textLength="145" x="770.75" y="36.541">registreringMinimum</text><line style="stroke:#181818;stroke-width:0.5;" x1="626" x2="1028" y1="47.25" y2="47.25"/><ellipse cx="636" cy="60.9941" fill="none" rx="3" ry="3" style="stroke:#038048;stroke-width:1.0;"/><text fill="#000000" font-family="sans-serif" font-size="14" lengthAdjust="spacing" textLength="134" x="645" y="64.7852">systemID : systemID</text><ellipse cx="636" cy="77.4824" fill="none" rx="3" ry="3" style="stroke:#038048;stroke-width:1.0;"/><text fill="#000000" font-family="sans-serif" font-size="14" lengthAdjust="spacing" textLength="212" x="645" y="81.2734">skjerming : skjermingMinimum</text><ellipse cx="636" cy="93.9707" fill="none" rx="3" ry="3" style="stroke:#038048;stroke-width:1.0;"/><text fill="#000000" font-family="sans-serif" font-size="14" lengthAdjust="spacing" textLength="212" x="645" y="97.7617">gradering : graderingMinimum</text><ellipse cx="636" cy="110.459" fill="none" rx="3" ry="3" style="stroke:#038048;stroke-width:1.0;"/><text fill="#000000" font-family="sans-serif" font-size="14" lengthAdjust="spacing" textLength="378" x="645" y="114.25">dokumentbeskrivelse : dokumentbeskrivelseMinimum[]</text><ellipse cx="636" cy="126.9473" fill="none" rx="3" ry="3" style="stroke:#038048;stroke-width:1.0;"/><text fill="#000000" font-family="sans-serif" font-size="14" lengthAdjust="spacing" textLength="154" x="645" y="130.7383">registreringsID : string</text><ellipse cx="636" cy="143.4355" fill="none" rx="3" ry="3" style="stroke:#038048;stroke-width:1.0;"/><text fill="#000000" font-family="sans-serif" font-size="14" lengthAdjust="spacing" textLength="83" x="645" y="147.2266">tittel : string</text><ellipse cx="636" cy="159.9238" fill="none" rx="3" ry="3" style="stroke:#038048;stroke-width:1.0;"/><text fill="#000000" font-family="sans-serif" font-size="14" lengthAdjust="spacing" textLength="145" x="645" y="163.7148">offentligTittel : string</text><ellipse cx="636" cy="176.4121" fill="none" rx="3" ry="3" style="stroke:#038048;stroke-width:1.0;"/><text fill="#000000" font-family="sans-serif" font-size="14" lengthAdjust="spacing" textLength="366" x="645" y="180.2031">korrespondansepart : korrespondansepartMinimum[]</text><line style="stroke:#181818;stroke-width:0.5;" x1="626" x2="1028" y1="187.1563" y2="187.1563"/></g><!--class klasseMinimum--><g id="elem_klasseMinimum"><rect codeLine="46" fill="#F1F1F1" height="130.4414" id="klasseMinimum" rx="2.5" ry="2.5" style="stroke:#181818;stroke-width:0.5;" width="394" x="1736" y="263.4"/><ellipse cx="1875.75" cy="279.4" fill="#ADD1B2" rx="11" ry="11" style="stroke:#181818;stroke-width:1.0;"/><path d="M1878.2231,285.5431 Q1877.6421,285.8419 1877.0029,285.9913 Q1876.3638,286.1407 1875.6582,286.1407 Q1873.1514,286.1407 1871.8315,284.4889 Q1870.5117,282.837 1870.5117,279.7159 Q1870.5117,276.5865 1871.8315,274.9347 Q1873.1514,273.2828 1875.6582,273.2828 Q1876.3638,273.2828 1877.0112,273.4322 Q1877.6587,273.5816 1878.2231,273.8805 L1878.2231,276.6031 Q1877.5923,276.0221 1876.9988,275.7523 Q1876.4053,275.4825 1875.7744,275.4825 Q1874.4297,275.4825 1873.7449,276.5492 Q1873.0601,277.6158 1873.0601,279.7159 Q1873.0601,281.8077 1873.7449,282.8744 Q1874.4297,283.941 1875.7744,283.941 Q1876.4053,283.941 1876.9988,283.6712 Q1877.5923,283.4015 1878.2231,282.8204 Z " fill="#000000"/><text fill="#000000" font-family="sans-serif" font-size="14" lengthAdjust="spacing" textLength="106" x="1896.25" y="284.691">klasseMinimum</text><line style="stroke:#181818;stroke-width:0.5;" x1="1737" x2="2129" y1="295.4" y2="295.4"/><ellipse cx="1747" cy="309.1441" fill="none" rx="3" ry="3" style="stroke:#038048;stroke-width:1.0;"/><text fill="#000000" font-family="sans-serif" font-size="14" lengthAdjust="spacing" textLength="108" x="1756" y="312.9352">klasseID : string</text><ellipse cx="1747" cy="325.6324" fill="none" rx="3" ry="3" style="stroke:#038048;stroke-width:1.0;"/><text fill="#000000" font-family="sans-serif" font-size="14" lengthAdjust="spacing" textLength="83" x="1756" y="329.4234">tittel : string</text><ellipse cx="1747" cy="342.1207" fill="none" rx="3" ry="3" style="stroke:#038048;stroke-width:1.0;"/><text fill="#000000" font-family="sans-serif" font-size="14" lengthAdjust="spacing" textLength="212" x="1756" y="345.9117">skjerming : skjermingMinimum</text><ellipse cx="1747" cy="358.609" fill="none" rx="3" ry="3" style="stroke:#038048;stroke-width:1.0;"/><text fill="#000000" font-family="sans-serif" font-size="14" lengthAdjust="spacing" textLength="212" x="1756" y="362.4">gradering : graderingMinimum</text><ellipse cx="1747" cy="375.0973" fill="none" rx="3" ry="3" style="stroke:#038048;stroke-width:1.0;"/><text fill="#000000" font-family="sans-serif" font-size="14" lengthAdjust="spacing" textLength="368" x="1756" y="378.8883">klassifikasjonssystem : klassifikasjonssystemMinimum</text><line style="stroke:#181818;stroke-width:0.5;" x1="1737" x2="2129" y1="385.8414" y2="385.8414"/></g><!--class klassifikasjon--><g id="elem_klassifikasjon"><rect codeLine="53" fill="#F1F1F1" height="130.4414" id="klassifikasjon" rx="2.5" ry="2.5" style="stroke:#181818;stroke-width:0.5;" width="394" x="2165" y="263.4"/><ellipse cx="2311.75" cy="279.4" fill="#ADD1B2" rx="11" ry="11" style="stroke:#181818;stroke-width:1.0;"/><path d="M2314.2231,285.5431 Q2313.6421,285.8419 2313.0029,285.9913 Q2312.3638,286.1407 2311.6582,286.1407 Q2309.1514,286.1407 2307.8315,284.4889 Q2306.5117,282.837 2306.5117,279.7159 Q2306.5117,276.5865 2307.8315,274.9347 Q2309.1514,273.2828 2311.6582,273.2828 Q2312.3638,273.2828 2313.0112,273.4322 Q2313.6587,273.5816 2314.2231,273.8805 L2314.2231,276.6031 Q2313.5923,276.0221 2312.9988,275.7523 Q2312.4053,275.4825 2311.7744,275.4825 Q2310.4297,275.4825 2309.7449,276.5492 Q2309.0601,277.6158 2309.0601,279.7159 Q2309.0601,281.8077 2309.7449,282.8744 Q2310.4297,283.941 2311.7744,283.941 Q2312.4053,283.941 2312.9988,283.6712 Q2313.5923,283.4015 2314.2231,282.8204 Z " fill="#000000"/><text fill="#000000" font-family="sans-serif" font-size="14" lengthAdjust="spacing" textLength="92" x="2332.25" y="284.691">klassifikasjon</text><line style="stroke:#181818;stroke-width:0.5;" x1="2166" x2="2558" y1="295.4" y2="295.4"/><ellipse cx="2176" cy="309.1441" fill="none" rx="3" ry="3" style="stroke:#038048;stroke-width:1.0;"/><text fill="#000000" font-family="sans-serif" font-size="14" lengthAdjust="spacing" textLength="158" x="2185" y="312.9352">klassifikasjonID : string</text><ellipse cx="2176" cy="325.6324" fill="none" rx="3" ry="3" style="stroke:#038048;stroke-width:1.0;"/><text fill="#000000" font-family="sans-serif" font-size="14" lengthAdjust="spacing" textLength="368" x="2185" y="329.4234">klassifikasjonssystem : klassifikasjonssystemMinimum</text><ellipse cx="2176" cy="342.1207" fill="none" rx="3" ry="3" style="stroke:#038048;stroke-width:1.0;"/><text fill="#000000" font-family="sans-serif" font-size="14" lengthAdjust="spacing" textLength="108" x="2185" y="345.9117">klasseID : string</text><ellipse cx="2176" cy="358.609" fill="none" rx="3" ry="3" style="stroke:#038048;stroke-width:1.0;"/><text fill="#000000" font-family="sans-serif" font-size="14" lengthAdjust="spacing" textLength="83" x="2185" y="362.4">tittel : string</text><ellipse cx="2176" cy="375.0973" fill="none" rx="3" ry="3" style="stroke:#038048;stroke-width:1.0;"/><text fill="#000000" font-family="sans-serif" font-size="14" lengthAdjust="spacing" textLength="142" x="2185" y="378.8883">erSkjermet : boolean</text><line style="stroke:#181818;stroke-width:0.5;" x1="2166" x2="2558" y1="385.8414" y2="385.8414"/></g><!--class klassifikasjonssystemMinimum--><g id="elem_klassifikasjonssystemMinimum"><rect codeLine="60" fill="#F1F1F1" height="97.4648" id="klassifikasjonssystemMinimum" rx="2.5" ry="2.5" style="stroke:#181818;stroke-width:0.5;" width="294" x="2594" y="279.89"/><ellipse cx="2632.4" cy="295.89" fill="#ADD1B2" rx="11" ry="11" style="stroke:#181818;stroke-width:1.0;"/><path d="M2634.8731,302.0331 Q2634.2921,302.3319 2633.6529,302.4813 Q2633.0138,302.6307 2632.3082,302.6307 Q2629.8014,302.6307 2628.4815,300.9789 Q2627.1617,299.327 2627.1617,296.2059 Q2627.1617,293.0765 2628.4815,291.4247 Q2629.8014,289.7728 2632.3082,289.7728 Q2633.0138,289.7728 2633.6612,289.9222 Q2634.3087,290.0716 2634.8731,290.3705 L2634.8731,293.0931 Q2634.2423,292.5121 2633.6488,292.2423 Q2633.0553,291.9725 2632.4244,291.9725 Q2631.0797,291.9725 2630.3949,293.0392 Q2629.7101,294.1058 2629.7101,296.2059 Q2629.7101,298.2977 2630.3949,299.3644 Q2631.0797,300.431 2632.4244,300.431 Q2633.0553,300.431 2633.6488,300.1612 Q2634.2423,299.8915 2634.8731,299.3104 Z " fill="#000000"/><text fill="#000000" font-family="sans-serif" font-size="14" lengthAdjust="spacing" textLength="210" x="2651.6" y="301.181">klassifikasjonssystemMinimum</text><line style="stroke:#181818;stroke-width:0.5;" x1="2595" x2="2887" y1="311.89" y2="311.89"/><ellipse cx="2605" cy="325.6341" fill="none" rx="3" ry="3" style="stroke:#038048;stroke-width:1.0;"/><text fill="#000000" font-family="sans-serif" font-size="14" lengthAdjust="spacing" textLength="212" x="2614" y="329.4252">klassifikasjonssystemID : string</text><ellipse cx="2605" cy="342.1224" fill="none" rx="3" ry="3" style="stroke:#038048;stroke-width:1.0;"/><text fill="#000000" font-family="sans-serif" font-size="14" lengthAdjust="spacing" textLength="268" x="2614" y="345.9134">klassifikasjonstype : klassifikasjonstype</text><ellipse cx="2605" cy="358.6107" fill="none" rx="3" ry="3" style="stroke:#038048;stroke-width:1.0;"/><text fill="#000000" font-family="sans-serif" font-size="14" lengthAdjust="spacing" textLength="83" x="2614" y="362.4017">tittel : string</text><line style="stroke:#181818;stroke-width:0.5;" x1="2595" x2="2887" y1="369.3548" y2="369.3548"/></g><!--class korrespondansepartMinimum--><g id="elem_korrespondansepartMinimum"><rect codeLine="65" fill="#F1F1F1" height="80.9766" id="korrespondansepartMinimum" rx="2.5" ry="2.5" style="stroke:#181818;stroke-width:0.5;" width="376" x="1745" y="486.82"/><ellipse cx="1826.75" cy="502.82" fill="#ADD1B2" rx="11" ry="11" style="stroke:#181818;stroke-width:1.0;"/><path d="M1829.2231,508.9631 Q1828.6421,509.2619 1828.0029,509.4113 Q1827.3638,509.5607 1826.6582,509.5607 Q1824.1514,509.5607 1822.8315,507.9089 Q1821.5117,506.257 1821.5117,503.1359 Q1821.5117,500.0065 1822.8315,498.3547 Q1824.1514,496.7028 1826.6582,496.7028 Q1827.3638,496.7028 1828.0112,496.8522 Q1828.6587,497.0016 1829.2231,497.3005 L1829.2231,500.0231 Q1828.5923,499.4421 1827.9988,499.1723 Q1827.4053,498.9025 1826.7744,498.9025 Q1825.4297,498.9025 1824.7449,499.9692 Q1824.0601,501.0358 1824.0601,503.1359 Q1824.0601,505.2277 1824.7449,506.2944 Q1825.4297,507.361 1826.7744,507.361 Q1827.4053,507.361 1827.9988,507.0912 Q1828.5923,506.8215 1829.2231,506.2404 Z " fill="#000000"/><text fill="#000000" font-family="sans-serif" font-size="14" lengthAdjust="spacing" textLength="204" x="1847.25" y="508.111">korrespondansepartMinimum</text><line style="stroke:#181818;stroke-width:0.5;" x1="1746" x2="2120" y1="518.82" y2="518.82"/><ellipse cx="1756" cy="532.5641" fill="none" rx="3" ry="3" style="stroke:#038048;stroke-width:1.0;"/><text fill="#000000" font-family="sans-serif" font-size="14" lengthAdjust="spacing" textLength="350" x="1765" y="536.3552">korrespondanseparttype : korrespondanseparttype</text><ellipse cx="1756" cy="549.0524" fill="none" rx="3" ry="3" style="stroke:#038048;stroke-width:1.0;"/><text fill="#000000" font-family="sans-serif" font-size="14" lengthAdjust="spacing" textLength="226" x="1765" y="552.8434">korrespondansepartNavn : string</text><line style="stroke:#181818;stroke-width:0.5;" x1="1746" x2="2120" y1="559.7966" y2="559.7966"/></g><!--class mappeMinimum--><g id="elem_mappeMinimum"><rect codeLine="69" fill="#F1F1F1" height="196.3945" id="mappeMinimum" rx="2.5" ry="2.5" style="stroke:#181818;stroke-width:0.5;" width="336" x="1393" y="7"/><ellipse cx="1501.25" cy="23" fill="#ADD1B2" rx="11" ry="11" style="stroke:#181818;stroke-width:1.0;"/><path d="M1503.7231,29.1431 Q1503.1421,29.4419 1502.5029,29.5913 Q1501.8638,29.7407 1501.1582,29.7407 Q1498.6514,29.7407 1497.3315,28.0889 Q1496.0117,26.437 1496.0117,23.3159 Q1496.0117,20.1865 1497.3315,18.5347 Q1498.6514,16.8828 1501.1582,16.8828 Q1501.8638,16.8828 1502.5112,17.0322 Q1503.1587,17.1816 1503.7231,17.4805 L1503.7231,20.2031 Q1503.0923,19.6221 1502.4988,19.3523 Q1501.9053,19.0825 1501.2744,19.0825 Q1499.9297,19.0825 1499.2449,20.1492 Q1498.5601,21.2158 1498.5601,23.3159 Q1498.5601,25.4077 1499.2449,26.4744 Q1499.9297,27.541 1501.2744,27.541 Q1501.9053,27.541 1502.4988,27.2712 Q1503.0923,27.0015 1503.7231,26.4204 Z " fill="#000000"/><text fill="#000000" font-family="sans-serif" font-size="14" lengthAdjust="spacing" textLength="111" x="1521.75" y="28.291">mappeMinimum</text><line style="stroke:#181818;stroke-width:0.5;" x1="1394" x2="1728" y1="39" y2="39"/><ellipse cx="1404" cy="52.7441" fill="none" rx="3" ry="3" style="stroke:#038048;stroke-width:1.0;"/><text fill="#000000" font-family="sans-serif" font-size="14" lengthAdjust="spacing" textLength="134" x="1413" y="56.5352">systemID : systemID</text><ellipse cx="1404" cy="69.2324" fill="none" rx="3" ry="3" style="stroke:#038048;stroke-width:1.0;"/><text fill="#000000" font-family="sans-serif" font-size="14" lengthAdjust="spacing" textLength="113" x="1413" y="73.0234">mappeID : string</text><ellipse cx="1404" cy="85.7207" fill="none" rx="3" ry="3" style="stroke:#038048;stroke-width:1.0;"/><text fill="#000000" font-family="sans-serif" font-size="14" lengthAdjust="spacing" textLength="310" x="1413" y="89.5117">referanseForeldermappe : referanseTilMappe</text><ellipse cx="1404" cy="102.209" fill="none" rx="3" ry="3" style="stroke:#038048;stroke-width:1.0;"/><text fill="#000000" font-family="sans-serif" font-size="14" lengthAdjust="spacing" textLength="83" x="1413" y="106">tittel : string</text><ellipse cx="1404" cy="118.6973" fill="none" rx="3" ry="3" style="stroke:#038048;stroke-width:1.0;"/><text fill="#000000" font-family="sans-serif" font-size="14" lengthAdjust="spacing" textLength="145" x="1413" y="122.4883">offentligTittel : string</text><ellipse cx="1404" cy="135.1855" fill="none" rx="3" ry="3" style="stroke:#038048;stroke-width:1.0;"/><text fill="#000000" font-family="sans-serif" font-size="14" lengthAdjust="spacing" textLength="212" x="1413" y="138.9766">skjerming : skjermingMinimum</text><ellipse cx="1404" cy="151.6738" fill="none" rx="3" ry="3" style="stroke:#038048;stroke-width:1.0;"/><text fill="#000000" font-family="sans-serif" font-size="14" lengthAdjust="spacing" textLength="212" x="1413" y="155.4648">gradering : graderingMinimum</text><ellipse cx="1404" cy="168.1621" fill="none" rx="3" ry="3" style="stroke:#038048;stroke-width:1.0;"/><text fill="#000000" font-family="sans-serif" font-size="14" lengthAdjust="spacing" textLength="206" x="1413" y="171.9531">klassifikasjon : klassifikasjon[]</text><ellipse cx="1404" cy="184.6504" fill="none" rx="3" ry="3" style="stroke:#038048;stroke-width:1.0;"/><text fill="#000000" font-family="sans-serif" font-size="14" lengthAdjust="spacing" textLength="289" x="1413" y="188.4414">referanseEksternNoekkel : eksternNoekkel</text><line style="stroke:#181818;stroke-width:0.5;" x1="1394" x2="1728" y1="195.3945" y2="195.3945"/></g><!--class saksmappeMinimum--><g id="elem_saksmappeMinimum"><rect codeLine="90" fill="#F1F1F1" height="146.9297" id="saksmappeMinimum" rx="2.5" ry="2.5" style="stroke:#181818;stroke-width:0.5;" width="294" x="1064" y="31.74"/><ellipse cx="1136.25" cy="47.74" fill="#ADD1B2" rx="11" ry="11" style="stroke:#181818;stroke-width:1.0;"/><path d="M1138.7231,53.8831 Q1138.1421,54.1819 1137.5029,54.3313 Q1136.8638,54.4807 1136.1582,54.4807 Q1133.6514,54.4807 1132.3315,52.8289 Q1131.0117,51.177 1131.0117,48.0559 Q1131.0117,44.9265 1132.3315,43.2747 Q1133.6514,41.6228 1136.1582,41.6228 Q1136.8638,41.6228 1137.5112,41.7722 Q1138.1587,41.9216 1138.7231,42.2205 L1138.7231,44.9431 Q1138.0923,44.3621 1137.4988,44.0923 Q1136.9053,43.8225 1136.2744,43.8225 Q1134.9297,43.8225 1134.2449,44.8892 Q1133.5601,45.9558 1133.5601,48.0559 Q1133.5601,50.1477 1134.2449,51.2144 Q1134.9297,52.281 1136.2744,52.281 Q1136.9053,52.281 1137.4988,52.0112 Q1138.0923,51.7415 1138.7231,51.1604 Z " fill="#000000"/><text fill="#000000" font-family="sans-serif" font-size="14" lengthAdjust="spacing" textLength="141" x="1156.75" y="53.031">saksmappeMinimum</text><line style="stroke:#181818;stroke-width:0.5;" x1="1065" x2="1357" y1="63.74" y2="63.74"/><ellipse cx="1075" cy="77.4841" fill="none" rx="3" ry="3" style="stroke:#038048;stroke-width:1.0;"/><text fill="#000000" font-family="sans-serif" font-size="14" lengthAdjust="spacing" textLength="82" x="1084" y="81.2752">saksaar : int</text><ellipse cx="1075" cy="93.9724" fill="none" rx="3" ry="3" style="stroke:#038048;stroke-width:1.0;"/><text fill="#000000" font-family="sans-serif" font-size="14" lengthAdjust="spacing" textLength="172" x="1084" y="97.7634">sakssekvensnummer : int</text><ellipse cx="1075" cy="110.4607" fill="none" rx="3" ry="3" style="stroke:#038048;stroke-width:1.0;"/><text fill="#000000" font-family="sans-serif" font-size="14" lengthAdjust="spacing" textLength="103" x="1084" y="114.2517">saksdato : date</text><ellipse cx="1075" cy="126.949" fill="none" rx="3" ry="3" style="stroke:#038048;stroke-width:1.0;"/><text fill="#000000" font-family="sans-serif" font-size="14" lengthAdjust="spacing" textLength="268" x="1084" y="130.74">administrativEnhet : administrativEnhet</text><ellipse cx="1075" cy="143.4373" fill="none" rx="3" ry="3" style="stroke:#038048;stroke-width:1.0;"/><text fill="#000000" font-family="sans-serif" font-size="14" lengthAdjust="spacing" textLength="196" x="1084" y="147.2283">saksansvarlig : saksansvarlig</text><ellipse cx="1075" cy="159.9255" fill="none" rx="3" ry="3" style="stroke:#038048;stroke-width:1.0;"/><text fill="#000000" font-family="sans-serif" font-size="14" lengthAdjust="spacing" textLength="154" x="1084" y="163.7166">saksstatus : saksstatus</text><line style="stroke:#181818;stroke-width:0.5;" x1="1065" x2="1357" y1="170.6697" y2="170.6697"/></g><!--class skjermingMinimum--><g id="elem_skjermingMinimum"><rect codeLine="99" fill="#F1F1F1" height="146.9297" id="skjermingMinimum" rx="2.5" ry="2.5" style="stroke:#181818;stroke-width:0.5;" width="316" x="2156" y="453.84"/><ellipse cx="2243.75" cy="469.84" fill="#ADD1B2" rx="11" ry="11" style="stroke:#181818;stroke-width:1.0;"/><path d="M2246.2231,475.9831 Q2245.6421,476.2819 2245.0029,476.4313 Q2244.3638,476.5807 2243.6582,476.5807 Q2241.1514,476.5807 2239.8315,474.9289 Q2238.5117,473.277 2238.5117,470.1559 Q2238.5117,467.0265 2239.8315,465.3747 Q2241.1514,463.7228 2243.6582,463.7228 Q2244.3638,463.7228 2245.0112,463.8722 Q2245.6587,464.0216 2246.2231,464.3205 L2246.2231,467.0431 Q2245.5923,466.4621 2244.9988,466.1923 Q2244.4053,465.9225 2243.7744,465.9225 Q2242.4297,465.9225 2241.7449,466.9892 Q2241.0601,468.0558 2241.0601,470.1559 Q2241.0601,472.2477 2241.7449,473.3144 Q2242.4297,474.381 2243.7744,474.381 Q2244.4053,474.381 2244.9988,474.1112 Q2245.5923,473.8415 2246.2231,473.2604 Z " fill="#000000"/><text fill="#000000" font-family="sans-serif" font-size="14" lengthAdjust="spacing" textLength="132" x="2264.25" y="475.131">skjermingMinimum</text><line style="stroke:#181818;stroke-width:0.5;" x1="2157" x2="2471" y1="485.84" y2="485.84"/><ellipse cx="2167" cy="499.5841" fill="none" rx="3" ry="3" style="stroke:#038048;stroke-width:1.0;"/><text fill="#000000" font-family="sans-serif" font-size="14" lengthAdjust="spacing" textLength="268" x="2176" y="503.3752">tilgangsrestriksjon : tilgangsrestriksjon</text><ellipse cx="2167" cy="516.0724" fill="none" rx="3" ry="3" style="stroke:#038048;stroke-width:1.0;"/><text fill="#000000" font-family="sans-serif" font-size="14" lengthAdjust="spacing" textLength="186" x="2176" y="519.8634">skjermingshjemmel : string</text><ellipse cx="2167" cy="532.5607" fill="none" rx="3" ry="3" style="stroke:#038048;stroke-width:1.0;"/><text fill="#000000" font-family="sans-serif" font-size="14" lengthAdjust="spacing" textLength="284" x="2176" y="536.3517">skjermingMetadata : skjermingMetadata[]</text><ellipse cx="2167" cy="549.049" fill="none" rx="3" ry="3" style="stroke:#038048;stroke-width:1.0;"/><text fill="#000000" font-family="sans-serif" font-size="14" lengthAdjust="spacing" textLength="290" x="2176" y="552.84">skjermingDokument : skjermingDokument</text><ellipse cx="2167" cy="565.5373" fill="none" rx="3" ry="3" style="stroke:#038048;stroke-width:1.0;"/><text fill="#000000" font-family="sans-serif" font-size="14" lengthAdjust="spacing" textLength="161" x="2176" y="569.3283">skjermingsvarighet : int</text><ellipse cx="2167" cy="582.0255" fill="none" rx="3" ry="3" style="stroke:#038048;stroke-width:1.0;"/><text fill="#000000" font-family="sans-serif" font-size="14" lengthAdjust="spacing" textLength="217" x="2176" y="585.8166">skjermingOpphoererDato : date</text><line style="stroke:#181818;stroke-width:0.5;" x1="2157" x2="2471" y1="592.7697" y2="592.7697"/></g><!--reverse link journalpostMedSaksmappeMinimum to journalpostMinimum--><g id="link_journalpostMedSaksmappeMinimum_journalpostMinimum"><path codeLine="35" d="M315.25,105.2 C322.06,105.2 328.88,105.2 335.69,105.2 " fill="none" id="journalpostMedSaksmappeMinimum-backto-journalpostMinimum" style="stroke:#181818;stroke-width:1.0;"/><polygon fill="#181818" points="302.26,105.2,308.26,109.2,314.26,105.2,308.26,101.2,302.26,105.2" style="stroke:#181818;stroke-width:1.0;"/></g><!--reverse link journalpostMinimum to registreringMinimum--><g id="link_journalpostMinimum_registreringMinimum"><path codeLine="45" d="M604.08,105.2 C611.03,105.2 617.98,105.2 624.94,105.2 " fill="none" id="journalpostMinimum-backto-registreringMinimum" style="stroke:#181818;stroke-width:1.0;"/><polygon fill="#181818" points="591.26,105.2,597.26,109.2,603.26,105.2,597.26,101.2,591.26,105.2" style="stroke:#181818;stroke-width:1.0;"/></g><!--reverse link saksmappeMinimum to mappeMinimum--><g id="link_saksmappeMinimum_mappeMinimum"><path codeLine="98" d="M1372.31,105.2 C1379.12,105.2 1385.94,105.2 1392.76,105.2 " fill="none" id="saksmappeMinimum-backto-mappeMinimum" style="stroke:#181818;stroke-width:1.0;"/><polygon fill="#181818" points="1359.31,105.2,1365.31,109.2,1371.31,105.2,1365.31,101.2,1359.31,105.2" style="stroke:#181818;stroke-width:1.0;"/></g><!--SRC=[tLQzZjim3Dxp59bRz0Mw5SWLw93hSDcA3ioPJcJPaY4g1Wx5lNifIt8aoqxQehsX6GBh8sMI7t_CvnQ8jfMMbmwLFI998mPi2VT2YUxIRNzijlnxJozaiVkostxSnaSlY5VjIuyiJ8-v0bcm5qfKFE2LhB0MM_ToQuGw1PkoGTFnqU7nEVZbDKu6AZHUOthEDA8nVMnGsiIw1uBkj- -RryrpHaKclyl2W8OQhKXTkWuDYuMoGG96WBArDXqu-zdPgqoo4joXXROPtvWoOx160ufm5xojnPmyHiXgDCObCpWKOvnJ5SDpU61onYzLOBLZ3omUH8Ufs7uQPhOLLdTkJXhPvUXVeoz6GTjhidkida1I1trVb2JZ01dP3YAK0ovbmWaJPpm85HULOFjWnV2WpkZoK8A9HKMSmbQCHPcU4mzYfLyF7DgTeDvzoC8EDLpoaNCG93CQ0hhAHFA-cyBGqpCajn5ZpSwPIi5vR36qj4jaEKLNMWoUN2wotlQyIFS_BmiF-XvDQlAVJPZHdgY5X742-Bd0sejulFcQHZ0fPI5CQ17A7rdyRMxGF8sCZ1rnrBf5K2j-vwQMew1qTgu74qfk0LrsTN98ywIZNglAZSKUpBnJIeLeQb6mTkaH1bLQNnnFQz-AKRdWOHhfdpMFRAwpKOsL9i51j7k7tSYPhclkAnv6XxUfzY9J_27DetcG7BfHZngb71t239WON6ZokqJ-pVqWsNoI9Q7SXwu1NlsbNskesyafIssnDik5XVwFpoCjV13JSunsbkSOhHNj2JWLJ1UJAaDnBg2pqg5pWyp4QgliUG5ZEY0hiO35MfW4SHjBbICsj-lsm9FdKnJIhtr_vjqDJVvz_0a0]--></g></svg>