<svg xmlns="http://www.w3.org/2000/svg" xmlns:xlink="http://www.w3.org/1999/xlink" contentStyleType="text/css" height="111px" preserveAspectRatio="none" style="width:1600px;height:111px;background:#FFFFFF;" version="1.1" viewBox="0 0 1600 111" width="1600px" zoomAndPan="magnify"><defs/><g><!--class dokumentbeskrivelseNoekler--><g id="elem_dokumentbeskrivelseNoekler"><rect codeLine="2" fill="#F1F1F1" height="64.4883" id="dokumentbeskrivelseNoekler" rx="2.5" ry="2.5" style="stroke:#181818;stroke-width:0.5;" width="231" x="1207" y="23.48"/><ellipse cx="1222" cy="39.48" fill="#ADD1B2" rx="11" ry="11" style="stroke:#181818;stroke-width:1.0;"/><path d="M1224.4731,45.6231 Q1223.8921,45.9219 1223.2529,46.0713 Q1222.6138,46.2207 1221.9082,46.2207 Q1219.4014,46.2207 1218.0815,44.5689 Q1216.7617,42.917 1216.7617,39.7959 Q1216.7617,36.6665 1218.0815,35.0147 Q1219.4014,33.3628 1221.9082,33.3628 Q1222.6138,33.3628 1223.2612,33.5122 Q1223.9087,33.6616 1224.4731,33.9605 L1224.4731,36.6831 Q1223.8423,36.1021 1223.2488,35.8323 Q1222.6553,35.5625 1222.0244,35.5625 Q1220.6797,35.5625 1219.9949,36.6292 Q1219.3101,37.6958 1219.3101,39.7959 Q1219.3101,41.8877 1219.9949,42.9544 Q1220.6797,44.021 1222.0244,44.021 Q1222.6553,44.021 1223.2488,43.7512 Q1223.8423,43.4815 1224.4731,42.9004 Z " fill="#000000"/><text fill="#000000" font-family="sans-serif" font-size="14" lengthAdjust="spacing" textLength="199" x="1236" y="44.771">dokumentbeskrivelseNoekler</text><line style="stroke:#181818;stroke-width:0.5;" x1="1208" x2="1437" y1="55.48" y2="55.48"/><ellipse cx="1218" cy="69.2241" fill="none" rx="3" ry="3" style="stroke:#038048;stroke-width:1.0;"/><text fill="#000000" font-family="sans-serif" font-size="14" lengthAdjust="spacing" textLength="134" x="1227" y="73.0152">systemID : systemID</text><line style="stroke:#181818;stroke-width:0.5;" x1="1208" x2="1437" y1="79.9683" y2="79.9683"/></g><!--class journalpostNoekler--><g id="elem_journalpostNoekler"><rect codeLine="5" fill="#F1F1F1" height="97.4648" id="journalpostNoekler" rx="2.5" ry="2.5" style="stroke:#181818;stroke-width:0.5;" width="217" x="7" y="7"/><ellipse cx="45.85" cy="23" fill="#ADD1B2" rx="11" ry="11" style="stroke:#181818;stroke-width:1.0;"/><path d="M48.3231,29.1431 Q47.7421,29.4419 47.1029,29.5913 Q46.4638,29.7407 45.7582,29.7407 Q43.2514,29.7407 41.9315,28.0889 Q40.6117,26.437 40.6117,23.3159 Q40.6117,20.1865 41.9315,18.5347 Q43.2514,16.8828 45.7582,16.8828 Q46.4638,16.8828 47.1112,17.0322 Q47.7587,17.1816 48.3231,17.4805 L48.3231,20.2031 Q47.6923,19.6221 47.0988,19.3523 Q46.5053,19.0825 45.8744,19.0825 Q44.5297,19.0825 43.8449,20.1492 Q43.1601,21.2158 43.1601,23.3159 Q43.1601,25.4077 43.8449,26.4744 Q44.5297,27.541 45.8744,27.541 Q46.5053,27.541 47.0988,27.2712 Q47.6923,27.0015 48.3231,26.4204 Z " fill="#000000"/><text fill="#000000" font-family="sans-serif" font-size="14" lengthAdjust="spacing" textLength="132" x="65.15" y="28.291">journalpostNoekler</text><line style="stroke:#181818;stroke-width:0.5;" x1="8" x2="223" y1="39" y2="39"/><ellipse cx="18" cy="52.7441" fill="none" rx="3" ry="3" style="stroke:#038048;stroke-width:1.0;"/><text fill="#000000" font-family="sans-serif" font-size="14" lengthAdjust="spacing" textLength="101" x="27" y="56.5352">journalaar : int</text><ellipse cx="18" cy="69.2324" fill="none" rx="3" ry="3" style="stroke:#038048;stroke-width:1.0;"/><text fill="#000000" font-family="sans-serif" font-size="14" lengthAdjust="spacing" textLength="191" x="27" y="73.0234">journalsekvensnummer : int</text><ellipse cx="18" cy="85.7207" fill="none" rx="3" ry="3" style="stroke:#038048;stroke-width:1.0;"/><text fill="#000000" font-family="sans-serif" font-size="14" lengthAdjust="spacing" textLength="167" x="27" y="89.5117">journalpostnummer : int</text><line style="stroke:#181818;stroke-width:0.5;" x1="8" x2="223" y1="96.4648" y2="96.4648"/></g><!--class registreringNoekler--><g id="elem_registreringNoekler"><rect codeLine="19" fill="#F1F1F1" height="80.9766" id="registreringNoekler" rx="2.5" ry="2.5" style="stroke:#181818;stroke-width:0.5;" width="315" x="259" y="15.24"/><ellipse cx="345.25" cy="31.24" fill="#ADD1B2" rx="11" ry="11" style="stroke:#181818;stroke-width:1.0;"/><path d="M347.7231,37.3831 Q347.1421,37.6819 346.5029,37.8313 Q345.8638,37.9807 345.1582,37.9807 Q342.6514,37.9807 341.3315,36.3289 Q340.0117,34.677 340.0117,31.5559 Q340.0117,28.4265 341.3315,26.7747 Q342.6514,25.1228 345.1582,25.1228 Q345.8638,25.1228 346.5112,25.2722 Q347.1587,25.4216 347.7231,25.7205 L347.7231,28.4431 Q347.0923,27.8621 346.4988,27.5923 Q345.9053,27.3225 345.2744,27.3225 Q343.9297,27.3225 343.2449,28.3892 Q342.5601,29.4558 342.5601,31.5559 Q342.5601,33.6477 343.2449,34.7144 Q343.9297,35.781 345.2744,35.781 Q345.9053,35.781 346.4988,35.5112 Q347.0923,35.2415 347.7231,34.6604 Z " fill="#000000"/><text fill="#000000" font-family="sans-serif" font-size="14" lengthAdjust="spacing" textLength="134" x="365.75" y="36.531">registreringNoekler</text><line style="stroke:#181818;stroke-width:0.5;" x1="260" x2="573" y1="47.24" y2="47.24"/><ellipse cx="270" cy="60.9841" fill="none" rx="3" ry="3" style="stroke:#038048;stroke-width:1.0;"/><text fill="#000000" font-family="sans-serif" font-size="14" lengthAdjust="spacing" textLength="134" x="279" y="64.7752">systemID : systemID</text><ellipse cx="270" cy="77.4724" fill="none" rx="3" ry="3" style="stroke:#038048;stroke-width:1.0;"/><text fill="#000000" font-family="sans-serif" font-size="14" lengthAdjust="spacing" textLength="289" x="279" y="81.2634">referanseEksternNoekkel : eksternNoekkel</text><line style="stroke:#181818;stroke-width:0.5;" x1="260" x2="573" y1="88.2166" y2="88.2166"/></g><!--class mappeNoekler--><g id="elem_mappeNoekler"><rect codeLine="11" fill="#F1F1F1" height="97.4648" id="mappeNoekler" rx="2.5" ry="2.5" style="stroke:#181818;stroke-width:0.5;" width="315" x="857" y="7"/><ellipse cx="960.25" cy="23" fill="#ADD1B2" rx="11" ry="11" style="stroke:#181818;stroke-width:1.0;"/><path d="M962.7231,29.1431 Q962.1421,29.4419 961.5029,29.5913 Q960.8638,29.7407 960.1582,29.7407 Q957.6514,29.7407 956.3315,28.0889 Q955.0117,26.437 955.0117,23.3159 Q955.0117,20.1865 956.3315,18.5347 Q957.6514,16.8828 960.1582,16.8828 Q960.8638,16.8828 961.5112,17.0322 Q962.1587,17.1816 962.7231,17.4805 L962.7231,20.2031 Q962.0923,19.6221 961.4988,19.3523 Q960.9053,19.0825 960.2744,19.0825 Q958.9297,19.0825 958.2449,20.1492 Q957.5601,21.2158 957.5601,23.3159 Q957.5601,25.4077 958.2449,26.4744 Q958.9297,27.541 960.2744,27.541 Q960.9053,27.541 961.4988,27.2712 Q962.0923,27.0015 962.7231,26.4204 Z " fill="#000000"/><text fill="#000000" font-family="sans-serif" font-size="14" lengthAdjust="spacing" textLength="100" x="980.75" y="28.291">mappeNoekler</text><line style="stroke:#181818;stroke-width:0.5;" x1="858" x2="1171" y1="39" y2="39"/><ellipse cx="868" cy="52.7441" fill="none" rx="3" ry="3" style="stroke:#038048;stroke-width:1.0;"/><text fill="#000000" font-family="sans-serif" font-size="14" lengthAdjust="spacing" textLength="134" x="877" y="56.5352">systemID : systemID</text><ellipse cx="868" cy="69.2324" fill="none" rx="3" ry="3" style="stroke:#038048;stroke-width:1.0;"/><text fill="#000000" font-family="sans-serif" font-size="14" lengthAdjust="spacing" textLength="113" x="877" y="73.0234">mappeID : string</text><ellipse cx="868" cy="85.7207" fill="none" rx="3" ry="3" style="stroke:#038048;stroke-width:1.0;"/><text fill="#000000" font-family="sans-serif" font-size="14" lengthAdjust="spacing" textLength="289" x="877" y="89.5117">referanseEksternNoekkel : eksternNoekkel</text><line style="stroke:#181818;stroke-width:0.5;" x1="858" x2="1171" y1="96.4648" y2="96.4648"/></g><!--class partNoekler--><g id="elem_partNoekler"><rect codeLine="16" fill="#F1F1F1" height="64.4883" id="partNoekler" rx="2.5" ry="2.5" style="stroke:#181818;stroke-width:0.5;" width="120" x="1473.5" y="23.48"/><ellipse cx="1491.65" cy="39.48" fill="#ADD1B2" rx="11" ry="11" style="stroke:#181818;stroke-width:1.0;"/><path d="M1494.1231,45.6231 Q1493.5421,45.9219 1492.9029,46.0713 Q1492.2638,46.2207 1491.5582,46.2207 Q1489.0514,46.2207 1487.7315,44.5689 Q1486.4117,42.917 1486.4117,39.7959 Q1486.4117,36.6665 1487.7315,35.0147 Q1489.0514,33.3628 1491.5582,33.3628 Q1492.2638,33.3628 1492.9112,33.5122 Q1493.5587,33.6616 1494.1231,33.9605 L1494.1231,36.6831 Q1493.4923,36.1021 1492.8988,35.8323 Q1492.3053,35.5625 1491.6744,35.5625 Q1490.3297,35.5625 1489.6449,36.6292 Q1488.9601,37.6958 1488.9601,39.7959 Q1488.9601,41.8877 1489.6449,42.9544 Q1490.3297,44.021 1491.6744,44.021 Q1492.3053,44.021 1492.8988,43.7512 Q1493.4923,43.4815 1494.1231,42.9004 Z " fill="#000000"/><text fill="#000000" font-family="sans-serif" font-size="14" lengthAdjust="spacing" textLength="81" x="1506.35" y="44.771">partNoekler</text><line style="stroke:#181818;stroke-width:0.5;" x1="1474.5" x2="1592.5" y1="55.48" y2="55.48"/><ellipse cx="1484.5" cy="69.2241" fill="none" rx="3" ry="3" style="stroke:#038048;stroke-width:1.0;"/><text fill="#000000" font-family="sans-serif" font-size="14" lengthAdjust="spacing" textLength="94" x="1493.5" y="73.0152">partID : string</text><line style="stroke:#181818;stroke-width:0.5;" x1="1474.5" x2="1592.5" y1="79.9683" y2="79.9683"/></g><!--class saksmappeNoekler--><g id="elem_saksmappeNoekler"><rect codeLine="23" fill="#F1F1F1" height="64.4883" id="saksmappeNoekler" rx="2.5" ry="2.5" style="stroke:#181818;stroke-width:0.5;" width="214" x="608.5" y="23.48"/><ellipse cx="646.9" cy="39.48" fill="#ADD1B2" rx="11" ry="11" style="stroke:#181818;stroke-width:1.0;"/><path d="M649.3731,45.6231 Q648.7921,45.9219 648.1529,46.0713 Q647.5138,46.2207 646.8082,46.2207 Q644.3014,46.2207 642.9815,44.5689 Q641.6617,42.917 641.6617,39.7959 Q641.6617,36.6665 642.9815,35.0147 Q644.3014,33.3628 646.8082,33.3628 Q647.5138,33.3628 648.1612,33.5122 Q648.8087,33.6616 649.3731,33.9605 L649.3731,36.6831 Q648.7423,36.1021 648.1488,35.8323 Q647.5553,35.5625 646.9244,35.5625 Q645.5797,35.5625 644.8949,36.6292 Q644.2101,37.6958 644.2101,39.7959 Q644.2101,41.8877 644.8949,42.9544 Q645.5797,44.021 646.9244,44.021 Q647.5553,44.021 648.1488,43.7512 Q648.7423,43.4815 649.3731,42.9004 Z " fill="#000000"/><text fill="#000000" font-family="sans-serif" font-size="14" lengthAdjust="spacing" textLength="130" x="666.1" y="44.771">saksmappeNoekler</text><line style="stroke:#181818;stroke-width:0.5;" x1="609.5" x2="821.5" y1="55.48" y2="55.48"/><ellipse cx="619.5" cy="69.2241" fill="none" rx="3" ry="3" style="stroke:#038048;stroke-width:1.0;"/><text fill="#000000" font-family="sans-serif" font-size="14" lengthAdjust="spacing" textLength="188" x="628.5" y="73.0152">saksnummer : saksnummer</text><line style="stroke:#181818;stroke-width:0.5;" x1="609.5" x2="821.5" y1="79.9683" y2="79.9683"/></g><!--reverse link journalpostNoekler to registreringNoekler--><g id="link_journalpostNoekler_registreringNoekler"><path codeLine="10" d="M236.26,55.73 C247.77,55.73 247.29,55.73 258.8,55.73 " fill="none" id="journalpostNoekler-backto-registreringNoekler" style="stroke:#181818;stroke-width:1.0;"/><polygon fill="#181818" points="224.26,55.73,230.26,59.73,236.26,55.73,230.26,51.73,224.26,55.73" style="stroke:#181818;stroke-width:1.0;"/></g><!--reverse link saksmappeNoekler to mappeNoekler--><g id="link_saksmappeNoekler_mappeNoekler"><path codeLine="26" d="M834.95,55.73 C846.18,55.73 845.4,55.73 856.62,55.73 " fill="none" id="saksmappeNoekler-backto-mappeNoekler" style="stroke:#181818;stroke-width:1.0;"/><polygon fill="#181818" points="822.95,55.73,828.95,59.73,834.95,55.73,828.95,51.73,822.95,55.73" style="stroke:#181818;stroke-width:1.0;"/></g><!--SRC=[bL0v3i8m4Epz2jSWFa0D1Gr_C668Wa_jEf4GojznJf8G2N3bdSlhoOnYbbUlImiNBs1DHGN3E7je0v9F8TFPyeCZxEaWztAuYbfahVlkItBA1CznuUePfIZv2XTdA4DNSEnAQx76DtapiXOhBsrsaf0N70bKkBo7-ysi2k6NdxH4A-xms4HrAE46Kevnr4bChadJC4c56J2s4HGjQsYWQV0WNLdywvP_xyDAyseF2H_hVG_9z-587KzdyG80]--></g></svg>