<svg xmlns="http://www.w3.org/2000/svg" xmlns:xlink="http://www.w3.org/1999/xlink" contentStyleType="text/css" height="283px" preserveAspectRatio="none" style="width:1601px;height:283px;background:#FFFFFF;" version="1.1" viewBox="0 0 1601 283" width="1601px" zoomAndPan="magnify"><defs/><g><!--class dokumentbeskrivelseNoekler--><g id="elem_dokumentbeskrivelseNoekler"><rect codeLine="2" fill="#F1F1F1" height="64.4883" id="dokumentbeskrivelseNoekler" rx="2.5" ry="2.5" style="stroke:#181818;stroke-width:0.5;" width="231" x="255.5" y="87.24"/><ellipse cx="270.5" cy="103.24" fill="#ADD1B2" rx="11" ry="11" style="stroke:#181818;stroke-width:1.0;"/><path d="M272.9731,109.3831 Q272.3921,109.6819 271.7529,109.8313 Q271.1138,109.9807 270.4082,109.9807 Q267.9014,109.9807 266.5815,108.3289 Q265.2617,106.677 265.2617,103.5559 Q265.2617,100.4265 266.5815,98.7747 Q267.9014,97.1228 270.4082,97.1228 Q271.1138,97.1228 271.7612,97.2722 Q272.4087,97.4216 272.9731,97.7205 L272.9731,100.4431 Q272.3423,99.8621 271.7488,99.5923 Q271.1553,99.3225 270.5244,99.3225 Q269.1797,99.3225 268.4949,100.3892 Q267.8101,101.4558 267.8101,103.5559 Q267.8101,105.6477 268.4949,106.7144 Q269.1797,107.781 270.5244,107.781 Q271.1553,107.781 271.7488,107.5112 Q272.3423,107.2415 272.9731,106.6604 Z " fill="#000000"/><text fill="#000000" font-family="sans-serif" font-size="14" lengthAdjust="spacing" textLength="199" x="284.5" y="108.531">dokumentbeskrivelseNoekler</text><line style="stroke:#181818;stroke-width:0.5;" x1="256.5" x2="485.5" y1="119.24" y2="119.24"/><ellipse cx="266.5" cy="132.9841" fill="none" rx="3" ry="3" style="stroke:#038048;stroke-width:1.0;"/><text fill="#000000" font-family="sans-serif" font-size="14" lengthAdjust="spacing" textLength="134" x="275.5" y="136.7752">systemID : systemID</text><line style="stroke:#181818;stroke-width:0.5;" x1="256.5" x2="485.5" y1="143.7283" y2="143.7283"/></g><!--class systemID--><g id="elem_systemID"><rect fill="#F1F1F1" height="48" id="systemID" rx="2.5" ry="2.5" style="stroke:#181818;stroke-width:0.5;" width="93" x="884.5" y="228.22"/><ellipse cx="899.5" cy="244.22" fill="#ADD1B2" rx="11" ry="11" style="stroke:#181818;stroke-width:1.0;"/><path d="M901.9731,250.3631 Q901.3921,250.6619 900.7529,250.8113 Q900.1138,250.9607 899.4082,250.9607 Q896.9014,250.9607 895.5815,249.3089 Q894.2617,247.657 894.2617,244.5359 Q894.2617,241.4065 895.5815,239.7547 Q896.9014,238.1028 899.4082,238.1028 Q900.1138,238.1028 900.7612,238.2522 Q901.4087,238.4016 901.9731,238.7005 L901.9731,241.4231 Q901.3423,240.8421 900.7488,240.5723 Q900.1553,240.3025 899.5244,240.3025 Q898.1797,240.3025 897.4949,241.3692 Q896.8101,242.4358 896.8101,244.5359 Q896.8101,246.6277 897.4949,247.6944 Q898.1797,248.761 899.5244,248.761 Q900.1553,248.761 900.7488,248.4912 Q901.3423,248.2215 901.9731,247.6404 Z " fill="#000000"/><text fill="#000000" font-family="sans-serif" font-size="14" lengthAdjust="spacing" textLength="61" x="913.5" y="249.511">systemID</text><line style="stroke:#181818;stroke-width:0.5;" x1="885.5" x2="976.5" y1="260.22" y2="260.22"/><line style="stroke:#181818;stroke-width:0.5;" x1="885.5" x2="976.5" y1="268.22" y2="268.22"/></g><!--class journalpostNoekler--><g id="elem_journalpostNoekler"><rect codeLine="6" fill="#F1F1F1" height="97.4648" id="journalpostNoekler" rx="2.5" ry="2.5" style="stroke:#181818;stroke-width:0.5;" width="217" x="521.5" y="70.76"/><ellipse cx="560.35" cy="86.76" fill="#ADD1B2" rx="11" ry="11" style="stroke:#181818;stroke-width:1.0;"/><path d="M562.8231,92.9031 Q562.2421,93.2019 561.6029,93.3513 Q560.9638,93.5007 560.2582,93.5007 Q557.7514,93.5007 556.4315,91.8489 Q555.1117,90.197 555.1117,87.0759 Q555.1117,83.9465 556.4315,82.2947 Q557.7514,80.6428 560.2582,80.6428 Q560.9638,80.6428 561.6112,80.7922 Q562.2587,80.9416 562.8231,81.2405 L562.8231,83.9631 Q562.1923,83.3821 561.5988,83.1123 Q561.0053,82.8425 560.3744,82.8425 Q559.0297,82.8425 558.3449,83.9092 Q557.6601,84.9758 557.6601,87.0759 Q557.6601,89.1677 558.3449,90.2344 Q559.0297,91.301 560.3744,91.301 Q561.0053,91.301 561.5988,91.0312 Q562.1923,90.7615 562.8231,90.1804 Z " fill="#000000"/><text fill="#000000" font-family="sans-serif" font-size="14" lengthAdjust="spacing" textLength="132" x="579.65" y="92.051">journalpostNoekler</text><line style="stroke:#181818;stroke-width:0.5;" x1="522.5" x2="737.5" y1="102.76" y2="102.76"/><ellipse cx="532.5" cy="116.5041" fill="none" rx="3" ry="3" style="stroke:#038048;stroke-width:1.0;"/><text fill="#000000" font-family="sans-serif" font-size="14" lengthAdjust="spacing" textLength="101" x="541.5" y="120.2952">journalaar : int</text><ellipse cx="532.5" cy="132.9924" fill="none" rx="3" ry="3" style="stroke:#038048;stroke-width:1.0;"/><text fill="#000000" font-family="sans-serif" font-size="14" lengthAdjust="spacing" textLength="191" x="541.5" y="136.7834">journalsekvensnummer : int</text><ellipse cx="532.5" cy="149.4807" fill="none" rx="3" ry="3" style="stroke:#038048;stroke-width:1.0;"/><text fill="#000000" font-family="sans-serif" font-size="14" lengthAdjust="spacing" textLength="167" x="541.5" y="153.2717">journalpostnummer : int</text><line style="stroke:#181818;stroke-width:0.5;" x1="522.5" x2="737.5" y1="160.2248" y2="160.2248"/></g><!--class registreringNoekler--><g id="elem_registreringNoekler"><rect codeLine="22" fill="#F1F1F1" height="80.9766" id="registreringNoekler" rx="2.5" ry="2.5" style="stroke:#181818;stroke-width:0.5;" width="315" x="1123.5" y="79"/><ellipse cx="1209.75" cy="95" fill="#ADD1B2" rx="11" ry="11" style="stroke:#181818;stroke-width:1.0;"/><path d="M1212.2231,101.1431 Q1211.6421,101.4419 1211.0029,101.5913 Q1210.3638,101.7407 1209.6582,101.7407 Q1207.1514,101.7407 1205.8315,100.0889 Q1204.5117,98.437 1204.5117,95.3159 Q1204.5117,92.1865 1205.8315,90.5347 Q1207.1514,88.8828 1209.6582,88.8828 Q1210.3638,88.8828 1211.0112,89.0322 Q1211.6587,89.1816 1212.2231,89.4805 L1212.2231,92.2031 Q1211.5923,91.6221 1210.9988,91.3523 Q1210.4053,91.0825 1209.7744,91.0825 Q1208.4297,91.0825 1207.7449,92.1492 Q1207.0601,93.2158 1207.0601,95.3159 Q1207.0601,97.4077 1207.7449,98.4744 Q1208.4297,99.541 1209.7744,99.541 Q1210.4053,99.541 1210.9988,99.2712 Q1211.5923,99.0015 1212.2231,98.4204 Z " fill="#000000"/><text fill="#000000" font-family="sans-serif" font-size="14" lengthAdjust="spacing" textLength="134" x="1230.25" y="100.291">registreringNoekler</text><line style="stroke:#181818;stroke-width:0.5;" x1="1124.5" x2="1437.5" y1="111" y2="111"/><ellipse cx="1134.5" cy="124.7441" fill="none" rx="3" ry="3" style="stroke:#038048;stroke-width:1.0;"/><text fill="#000000" font-family="sans-serif" font-size="14" lengthAdjust="spacing" textLength="134" x="1143.5" y="128.5352">systemID : systemID</text><ellipse cx="1134.5" cy="141.2324" fill="none" rx="3" ry="3" style="stroke:#038048;stroke-width:1.0;"/><text fill="#000000" font-family="sans-serif" font-size="14" lengthAdjust="spacing" textLength="289" x="1143.5" y="145.0234">referanseEksternNoekkel : eksternNoekkel</text><line style="stroke:#181818;stroke-width:0.5;" x1="1124.5" x2="1437.5" y1="151.9766" y2="151.9766"/></g><!--class mappeNoekler--><g id="elem_mappeNoekler"><rect codeLine="12" fill="#F1F1F1" height="97.4648" id="mappeNoekler" rx="2.5" ry="2.5" style="stroke:#181818;stroke-width:0.5;" width="315" x="773.5" y="70.76"/><ellipse cx="876.75" cy="86.76" fill="#ADD1B2" rx="11" ry="11" style="stroke:#181818;stroke-width:1.0;"/><path d="M879.2231,92.9031 Q878.6421,93.2019 878.0029,93.3513 Q877.3638,93.5007 876.6582,93.5007 Q874.1514,93.5007 872.8315,91.8489 Q871.5117,90.197 871.5117,87.0759 Q871.5117,83.9465 872.8315,82.2947 Q874.1514,80.6428 876.6582,80.6428 Q877.3638,80.6428 878.0112,80.7922 Q878.6587,80.9416 879.2231,81.2405 L879.2231,83.9631 Q878.5923,83.3821 877.9988,83.1123 Q877.4053,82.8425 876.7744,82.8425 Q875.4297,82.8425 874.7449,83.9092 Q874.0601,84.9758 874.0601,87.0759 Q874.0601,89.1677 874.7449,90.2344 Q875.4297,91.301 876.7744,91.301 Q877.4053,91.301 877.9988,91.0312 Q878.5923,90.7615 879.2231,90.1804 Z " fill="#000000"/><text fill="#000000" font-family="sans-serif" font-size="14" lengthAdjust="spacing" textLength="100" x="897.25" y="92.051">mappeNoekler</text><line style="stroke:#181818;stroke-width:0.5;" x1="774.5" x2="1087.5" y1="102.76" y2="102.76"/><ellipse cx="784.5" cy="116.5041" fill="none" rx="3" ry="3" style="stroke:#038048;stroke-width:1.0;"/><text fill="#000000" font-family="sans-serif" font-size="14" lengthAdjust="spacing" textLength="134" x="793.5" y="120.2952">systemID : systemID</text><ellipse cx="784.5" cy="132.9924" fill="none" rx="3" ry="3" style="stroke:#038048;stroke-width:1.0;"/><text fill="#000000" font-family="sans-serif" font-size="14" lengthAdjust="spacing" textLength="113" x="793.5" y="136.7834">mappeID : string</text><ellipse cx="784.5" cy="149.4807" fill="none" rx="3" ry="3" style="stroke:#038048;stroke-width:1.0;"/><text fill="#000000" font-family="sans-serif" font-size="14" lengthAdjust="spacing" textLength="289" x="793.5" y="153.2717">referanseEksternNoekkel : eksternNoekkel</text><line style="stroke:#181818;stroke-width:0.5;" x1="774.5" x2="1087.5" y1="160.2248" y2="160.2248"/></g><!--class eksternNoekkel--><g id="elem_eksternNoekkel"><rect fill="#F1F1F1" height="48" id="eksternNoekkel" rx="2.5" ry="2.5" style="stroke:#181818;stroke-width:0.5;" width="138" x="1112" y="228.22"/><ellipse cx="1127" cy="244.22" fill="#ADD1B2" rx="11" ry="11" style="stroke:#181818;stroke-width:1.0;"/><path d="M1129.4731,250.3631 Q1128.8921,250.6619 1128.2529,250.8113 Q1127.6138,250.9607 1126.9082,250.9607 Q1124.4014,250.9607 1123.0815,249.3089 Q1121.7617,247.657 1121.7617,244.5359 Q1121.7617,241.4065 1123.0815,239.7547 Q1124.4014,238.1028 1126.9082,238.1028 Q1127.6138,238.1028 1128.2612,238.2522 Q1128.9087,238.4016 1129.4731,238.7005 L1129.4731,241.4231 Q1128.8423,240.8421 1128.2488,240.5723 Q1127.6553,240.3025 1127.0244,240.3025 Q1125.6797,240.3025 1124.9949,241.3692 Q1124.3101,242.4358 1124.3101,244.5359 Q1124.3101,246.6277 1124.9949,247.6944 Q1125.6797,248.761 1127.0244,248.761 Q1127.6553,248.761 1128.2488,248.4912 Q1128.8423,248.2215 1129.4731,247.6404 Z " fill="#000000"/><text fill="#000000" font-family="sans-serif" font-size="14" lengthAdjust="spacing" textLength="106" x="1141" y="249.511">eksternNoekkel</text><line style="stroke:#181818;stroke-width:0.5;" x1="1113" x2="1249" y1="260.22" y2="260.22"/><line style="stroke:#181818;stroke-width:0.5;" x1="1113" x2="1249" y1="268.22" y2="268.22"/></g><!--class partNoekler--><g id="elem_partNoekler"><rect codeLine="19" fill="#F1F1F1" height="64.4883" id="partNoekler" rx="2.5" ry="2.5" style="stroke:#181818;stroke-width:0.5;" width="120" x="1474" y="87.24"/><ellipse cx="1492.15" cy="103.24" fill="#ADD1B2" rx="11" ry="11" style="stroke:#181818;stroke-width:1.0;"/><path d="M1494.6231,109.3831 Q1494.0421,109.6819 1493.4029,109.8313 Q1492.7638,109.9807 1492.0582,109.9807 Q1489.5514,109.9807 1488.2315,108.3289 Q1486.9117,106.677 1486.9117,103.5559 Q1486.9117,100.4265 1488.2315,98.7747 Q1489.5514,97.1228 1492.0582,97.1228 Q1492.7638,97.1228 1493.4112,97.2722 Q1494.0587,97.4216 1494.6231,97.7205 L1494.6231,100.4431 Q1493.9923,99.8621 1493.3988,99.5923 Q1492.8053,99.3225 1492.1744,99.3225 Q1490.8297,99.3225 1490.1449,100.3892 Q1489.4601,101.4558 1489.4601,103.5559 Q1489.4601,105.6477 1490.1449,106.7144 Q1490.8297,107.781 1492.1744,107.781 Q1492.8053,107.781 1493.3988,107.5112 Q1493.9923,107.2415 1494.6231,106.6604 Z " fill="#000000"/><text fill="#000000" font-family="sans-serif" font-size="14" lengthAdjust="spacing" textLength="81" x="1506.85" y="108.531">partNoekler</text><line style="stroke:#181818;stroke-width:0.5;" x1="1475" x2="1593" y1="119.24" y2="119.24"/><ellipse cx="1485" cy="132.9841" fill="none" rx="3" ry="3" style="stroke:#038048;stroke-width:1.0;"/><text fill="#000000" font-family="sans-serif" font-size="14" lengthAdjust="spacing" textLength="94" x="1494" y="136.7752">partID : string</text><line style="stroke:#181818;stroke-width:0.5;" x1="1475" x2="1593" y1="143.7283" y2="143.7283"/></g><!--class saksmappeNoekler--><g id="elem_saksmappeNoekler"><rect codeLine="28" fill="#F1F1F1" height="64.4883" id="saksmappeNoekler" rx="2.5" ry="2.5" style="stroke:#181818;stroke-width:0.5;" width="214" x="7" y="87.24"/><ellipse cx="45.4" cy="103.24" fill="#ADD1B2" rx="11" ry="11" style="stroke:#181818;stroke-width:1.0;"/><path d="M47.8731,109.3831 Q47.2921,109.6819 46.6529,109.8313 Q46.0138,109.9807 45.3082,109.9807 Q42.8014,109.9807 41.4815,108.3289 Q40.1617,106.677 40.1617,103.5559 Q40.1617,100.4265 41.4815,98.7747 Q42.8014,97.1228 45.3082,97.1228 Q46.0138,97.1228 46.6612,97.2722 Q47.3087,97.4216 47.8731,97.7205 L47.8731,100.4431 Q47.2423,99.8621 46.6488,99.5923 Q46.0553,99.3225 45.4244,99.3225 Q44.0797,99.3225 43.3949,100.3892 Q42.7101,101.4558 42.7101,103.5559 Q42.7101,105.6477 43.3949,106.7144 Q44.0797,107.781 45.4244,107.781 Q46.0553,107.781 46.6488,107.5112 Q47.2423,107.2415 47.8731,106.6604 Z " fill="#000000"/><text fill="#000000" font-family="sans-serif" font-size="14" lengthAdjust="spacing" textLength="130" x="64.6" y="108.531">saksmappeNoekler</text><line style="stroke:#181818;stroke-width:0.5;" x1="8" x2="220" y1="119.24" y2="119.24"/><ellipse cx="18" cy="132.9841" fill="none" rx="3" ry="3" style="stroke:#038048;stroke-width:1.0;"/><text fill="#000000" font-family="sans-serif" font-size="14" lengthAdjust="spacing" textLength="188" x="27" y="136.7752">saksnummer : saksnummer</text><line style="stroke:#181818;stroke-width:0.5;" x1="8" x2="220" y1="143.7283" y2="143.7283"/></g><!--class saksnummer--><g id="elem_saksnummer"><rect fill="#F1F1F1" height="48" id="saksnummer" rx="2.5" ry="2.5" style="stroke:#181818;stroke-width:0.5;" width="120" x="54" y="228.22"/><ellipse cx="69" cy="244.22" fill="#ADD1B2" rx="11" ry="11" style="stroke:#181818;stroke-width:1.0;"/><path d="M71.4731,250.3631 Q70.8921,250.6619 70.2529,250.8113 Q69.6138,250.9607 68.9082,250.9607 Q66.4014,250.9607 65.0815,249.3089 Q63.7617,247.657 63.7617,244.5359 Q63.7617,241.4065 65.0815,239.7547 Q66.4014,238.1028 68.9082,238.1028 Q69.6138,238.1028 70.2612,238.2522 Q70.9087,238.4016 71.4731,238.7005 L71.4731,241.4231 Q70.8423,240.8421 70.2488,240.5723 Q69.6553,240.3025 69.0244,240.3025 Q67.6797,240.3025 66.9949,241.3692 Q66.3101,242.4358 66.3101,244.5359 Q66.3101,246.6277 66.9949,247.6944 Q67.6797,248.761 69.0244,248.761 Q69.6553,248.761 70.2488,248.4912 Q70.8423,248.2215 71.4731,247.6404 Z " fill="#000000"/><text fill="#000000" font-family="sans-serif" font-size="14" lengthAdjust="spacing" textLength="88" x="83" y="249.511">saksnummer</text><line style="stroke:#181818;stroke-width:0.5;" x1="55" x2="173" y1="260.22" y2="260.22"/><line style="stroke:#181818;stroke-width:0.5;" x1="55" x2="173" y1="268.22" y2="268.22"/></g><!--link dokumentbeskrivelseNoekler to systemID--><g id="link_dokumentbeskrivelseNoekler_systemID"><path codeLine="5" d="M453.03,152.13 C469.75,157.96 487.32,163.64 504,168.22 C639.99,205.6 804.8,232.61 884.02,244.49 " fill="none" id="dokumentbeskrivelseNoekler-systemID" style="stroke:#181818;stroke-width:1.0;"/></g><!--reverse link journalpostNoekler to registreringNoekler--><g id="link_journalpostNoekler_registreringNoekler"><path codeLine="11" d="M713.4817,64.4656 C735.2417,52.3856 749.28,46.96 773.5,40.76 C909.12,6 951.13,13.75 1088.5,40.76 C1126.76,48.28 1167,63.47 1200.74,78.51 " fill="none" id="journalpostNoekler-backto-registreringNoekler" style="stroke:#181818;stroke-width:1.0;"/><polygon fill="#181818" points="702.99,70.29,710.1773,70.875,713.4817,64.4656,706.2944,63.8805,702.99,70.29" style="stroke:#181818;stroke-width:1.0;"/></g><!--link mappeNoekler to systemID--><g id="link_mappeNoekler_systemID"><path codeLine="17" d="M931,168.43 C931,188.68 931,211.35 931,227.84 " fill="none" id="mappeNoekler-systemID" style="stroke:#181818;stroke-width:1.0;"/></g><!--link mappeNoekler to eksternNoekkel--><g id="link_mappeNoekler_eksternNoekkel"><path codeLine="18" d="M1023.03,168.61 C1061.59,188.78 1104.67,211.3 1136.08,227.73 " fill="none" id="mappeNoekler-eksternNoekkel" style="stroke:#181818;stroke-width:1.0;"/></g><!--link registreringNoekler to systemID--><g id="link_registreringNoekler_systemID"><path codeLine="26" d="M1174.09,160.42 C1108.55,184.9 1027.92,215.02 977.99,233.67 " fill="none" id="registreringNoekler-systemID" style="stroke:#181818;stroke-width:1.0;"/></g><!--link registreringNoekler to eksternNoekkel--><g id="link_registreringNoekler_eksternNoekkel"><path codeLine="27" d="M1250.45,160.42 C1233.57,182.5 1213.17,209.16 1198.87,227.86 " fill="none" id="registreringNoekler-eksternNoekkel" style="stroke:#181818;stroke-width:1.0;"/></g><!--reverse link saksmappeNoekler to mappeNoekler--><g id="link_saksmappeNoekler_mappeNoekler"><path codeLine="31" d="M168.6756,80.3361 C195.3356,62.9161 220.67,49.79 255.5,40.76 C359.39,13.8 633.18,20.05 738.5,40.76 C769.85,46.92 802.54,58.23 831.88,70.39 " fill="none" id="saksmappeNoekler-backto-mappeNoekler" style="stroke:#181818;stroke-width:1.0;"/><polygon fill="#181818" points="158.63,86.9,165.8408,86.9666,168.6756,80.3361,161.4648,80.2695,158.63,86.9" style="stroke:#181818;stroke-width:1.0;"/></g><!--link saksmappeNoekler to saksnummer--><g id="link_saksmappeNoekler_saksnummer"><path codeLine="32" d="M114,152.13 C114,175.56 114,206.94 114,228.06 " fill="none" id="saksmappeNoekler-saksnummer" style="stroke:#181818;stroke-width:1.0;"/></g><!--SRC=[bL4v3i8m4Epp2jUWV80Q2Xh-OC8G1H-9TXqaXF9tx2IGorokx9dPsHrlfYMpE9MgDh3k25PKNA4PXn9AWyGz4Vwi-SOEPhyL6_6y9atoeIvD1s7MDhcKDLcfgvBTpBndf2HlNrWtGHdg2iksDWOnFlXDo2Q9T5gbWf0Nx0XKsBo7-ycChAfV0hT4A-vm5wmwb706ISlOAIyc6zmKj5TX0lZf9jt6tpGdPfNTh9Ma-VS5Q3nGqqiZWR-c-oD7p7uSvmqVJSLISNGB7dyjTtZuxeiAl-7nUoa8imqE3m00]--></g></svg>