<svg xmlns="http://www.w3.org/2000/svg" xmlns:xlink="http://www.w3.org/1999/xlink" contentStyleType="text/css" height="101px" preserveAspectRatio="none" style="width:176px;height:101px;background:#FFFFFF;" version="1.1" viewBox="0 0 176 101" width="176px" zoomAndPan="magnify"><defs/><g><!--class feilmeldingBase--><g id="elem_feilmeldingBase"><rect codeLine="2" fill="#F1F1F1" height="80.9766" id="feilmeldingBase" rx="2.5" ry="2.5" style="stroke:#181818;stroke-width:0.5;" width="155" x="7" y="7"/><ellipse cx="28.75" cy="23" fill="#ADD1B2" rx="11" ry="11" style="stroke:#181818;stroke-width:1.0;"/><path d="M31.2231,29.1431 Q30.6421,29.4419 30.0029,29.5913 Q29.3638,29.7407 28.6582,29.7407 Q26.1514,29.7407 24.8315,28.0889 Q23.5117,26.437 23.5117,23.3159 Q23.5117,20.1865 24.8315,18.5347 Q26.1514,16.8828 28.6582,16.8828 Q29.3638,16.8828 30.0112,17.0322 Q30.6587,17.1816 31.2231,17.4805 L31.2231,20.2031 Q30.5923,19.6221 29.9988,19.3523 Q29.4053,19.0825 28.7744,19.0825 Q27.4297,19.0825 26.7449,20.1492 Q26.0601,21.2158 26.0601,23.3159 Q26.0601,25.4077 26.7449,26.4744 Q27.4297,27.541 28.7744,27.541 Q29.4053,27.541 29.9988,27.2712 Q30.5923,27.0015 31.2231,26.4204 Z " fill="#000000"/><text fill="#000000" font-family="sans-serif" font-size="14" lengthAdjust="spacing" textLength="108" x="44.25" y="28.291">feilmeldingBase</text><line style="stroke:#181818;stroke-width:0.5;" x1="8" x2="161" y1="39" y2="39"/><ellipse cx="18" cy="52.7441" fill="none" rx="3" ry="3" style="stroke:#038048;stroke-width:1.0;"/><text fill="#000000" font-family="sans-serif" font-size="14" lengthAdjust="spacing" textLength="86" x="27" y="56.5352">feilId : string</text><ellipse cx="18" cy="69.2324" fill="none" rx="3" ry="3" style="stroke:#038048;stroke-width:1.0;"/><text fill="#000000" font-family="sans-serif" font-size="14" lengthAdjust="spacing" textLength="129" x="27" y="73.0234">feilmelding : string</text><line style="stroke:#181818;stroke-width:0.5;" x1="8" x2="161" y1="79.9766" y2="79.9766"/></g><!--SRC=[Iyv9B2vMI4lDpCbDpKd9p4jtIYnELQZcKW02RP2mPug2bK9nIH5G2Y48LOkGgUK20000]--></g></svg>