<?xml version="1.0" encoding="us-ascii" standalone="no"?><svg xmlns="http://www.w3.org/2000/svg" xmlns:xlink="http://www.w3.org/1999/xlink" contentStyleType="text/css" height="577px" preserveAspectRatio="none" style="width:8057px;height:577px;background:#FFFFFF;" version="1.1" viewBox="0 0 8057 577" width="8057px" zoomAndPan="magnify"><defs/><g><!--class administrativEnhet--><g id="elem_administrativEnhet"><rect codeLine="2" fill="#F1F1F1" height="48" id="administrativEnhet" rx="2.5" ry="2.5" style="stroke:#181818;stroke-width:0.5;" width="160" x="7" y="108.81"/><ellipse cx="22" cy="124.81" fill="#ADD1B2" rx="11" ry="11" style="stroke:#181818;stroke-width:1.0;"/><path d="M24.4731,130.9531 Q23.8921,131.2519 23.2529,131.4013 Q22.6138,131.5507 21.9082,131.5507 Q19.4014,131.5507 18.0815,129.8989 Q16.7617,128.247 16.7617,125.1259 Q16.7617,121.9965 18.0815,120.3447 Q19.4014,118.6928 21.9082,118.6928 Q22.6138,118.6928 23.2612,118.8422 Q23.9087,118.9916 24.4731,119.2905 L24.4731,122.0131 Q23.8423,121.4321 23.2488,121.1623 Q22.6553,120.8925 22.0244,120.8925 Q20.6797,120.8925 19.9949,121.9592 Q19.3101,123.0258 19.3101,125.1259 Q19.3101,127.2177 19.9949,128.2844 Q20.6797,129.351 22.0244,129.351 Q22.6553,129.351 23.2488,129.0812 Q23.8423,128.8115 24.4731,128.2304 Z " fill="#000000"/><text fill="#000000" font-family="sans-serif" font-size="14" lengthAdjust="spacing" textLength="128" x="36" y="130.101">administrativEnhet</text><line style="stroke:#181818;stroke-width:0.5;" x1="8" x2="166" y1="140.81" y2="140.81"/><line style="stroke:#181818;stroke-width:0.5;" x1="8" x2="166" y1="148.81" y2="148.81"/></g><!--class identifikatorer--><g id="elem_identifikatorer"><rect codeLine="42" fill="#F1F1F1" height="113.9531" id="identifikatorer" rx="2.5" ry="2.5" style="stroke:#181818;stroke-width:0.5;" width="169" x="527.5" y="75.83"/><ellipse cx="560.05" cy="91.83" fill="#ADD1B2" rx="11" ry="11" style="stroke:#181818;stroke-width:1.0;"/><path d="M562.5231,97.9731 Q561.9421,98.2719 561.3029,98.4213 Q560.6638,98.5707 559.9582,98.5707 Q557.4514,98.5707 556.1315,96.9189 Q554.8117,95.267 554.8117,92.1459 Q554.8117,89.0165 556.1315,87.3647 Q557.4514,85.7128 559.9582,85.7128 Q560.6638,85.7128 561.3112,85.8622 Q561.9587,86.0116 562.5231,86.3105 L562.5231,89.0331 Q561.8923,88.4521 561.2988,88.1823 Q560.7053,87.9125 560.0744,87.9125 Q558.7297,87.9125 558.0449,88.9792 Q557.3601,90.0458 557.3601,92.1459 Q557.3601,94.2377 558.0449,95.3044 Q558.7297,96.371 560.0744,96.371 Q560.7053,96.371 561.2988,96.1012 Q561.8923,95.8315 562.5231,95.2504 Z " fill="#000000"/><text fill="#000000" font-family="sans-serif" font-size="14" lengthAdjust="spacing" textLength="98" x="577.95" y="97.121">identifikatorer</text><line style="stroke:#181818;stroke-width:0.5;" x1="528.5" x2="695.5" y1="107.83" y2="107.83"/><ellipse cx="538.5" cy="121.5741" fill="none" rx="3" ry="3" style="stroke:#038048;stroke-width:1.0;"/><text fill="#000000" font-family="sans-serif" font-size="14" lengthAdjust="spacing" textLength="85" x="547.5" y="125.3652">navn : string</text><ellipse cx="538.5" cy="138.0624" fill="none" rx="3" ry="3" style="stroke:#038048;stroke-width:1.0;"/><text fill="#000000" font-family="sans-serif" font-size="14" lengthAdjust="spacing" textLength="136" x="547.5" y="141.8534">identifikator : string</text><ellipse cx="538.5" cy="154.5507" fill="none" rx="3" ry="3" style="stroke:#038048;stroke-width:1.0;"/><text fill="#000000" font-family="sans-serif" font-size="14" lengthAdjust="spacing" textLength="104" x="547.5" y="158.3417">initialer : string</text><ellipse cx="538.5" cy="171.039" fill="none" rx="3" ry="3" style="stroke:#038048;stroke-width:1.0;"/><text fill="#000000" font-family="sans-serif" font-size="14" lengthAdjust="spacing" textLength="143" x="547.5" y="174.83">epostadresse : string</text><line style="stroke:#181818;stroke-width:0.5;" x1="528.5" x2="695.5" y1="181.7831" y2="181.7831"/></g><!--class arkivdelstatus--><g id="elem_arkivdelstatus"><rect codeLine="5" fill="#F1F1F1" height="48" id="arkivdelstatus" rx="2.5" ry="2.5" style="stroke:#181818;stroke-width:0.5;" width="127" x="731.5" y="108.81"/><ellipse cx="746.5" cy="124.81" fill="#ADD1B2" rx="11" ry="11" style="stroke:#181818;stroke-width:1.0;"/><path d="M748.9731,130.9531 Q748.3921,131.2519 747.7529,131.4013 Q747.1138,131.5507 746.4082,131.5507 Q743.9014,131.5507 742.5815,129.8989 Q741.2617,128.247 741.2617,125.1259 Q741.2617,121.9965 742.5815,120.3447 Q743.9014,118.6928 746.4082,118.6928 Q747.1138,118.6928 747.7612,118.8422 Q748.4087,118.9916 748.9731,119.2905 L748.9731,122.0131 Q748.3423,121.4321 747.7488,121.1623 Q747.1553,120.8925 746.5244,120.8925 Q745.1797,120.8925 744.4949,121.9592 Q743.8101,123.0258 743.8101,125.1259 Q743.8101,127.2177 744.4949,128.2844 Q745.1797,129.351 746.5244,129.351 Q747.1553,129.351 747.7488,129.0812 Q748.3423,128.8115 748.9731,128.2304 Z " fill="#000000"/><text fill="#000000" font-family="sans-serif" font-size="14" lengthAdjust="spacing" textLength="95" x="760.5" y="130.101">arkivdelstatus</text><line style="stroke:#181818;stroke-width:0.5;" x1="732.5" x2="857.5" y1="140.81" y2="140.81"/><line style="stroke:#181818;stroke-width:0.5;" x1="732.5" x2="857.5" y1="148.81" y2="148.81"/></g><!--class kode--><g id="elem_kode"><rect codeLine="64" fill="#F1F1F1" height="80.9766" id="kode" rx="2.5" ry="2.5" style="stroke:#181818;stroke-width:0.5;" width="154" x="6510" y="92.32"/><ellipse cx="6565.75" cy="108.32" fill="#ADD1B2" rx="11" ry="11" style="stroke:#181818;stroke-width:1.0;"/><path d="M6568.2231,114.4631 Q6567.6421,114.7619 6567.0029,114.9113 Q6566.3638,115.0607 6565.6582,115.0607 Q6563.1514,115.0607 6561.8315,113.4089 Q6560.5117,111.757 6560.5117,108.6359 Q6560.5117,105.5065 6561.8315,103.8547 Q6563.1514,102.2028 6565.6582,102.2028 Q6566.3638,102.2028 6567.0112,102.3522 Q6567.6587,102.5016 6568.2231,102.8005 L6568.2231,105.5231 Q6567.5923,104.9421 6566.9988,104.6723 Q6566.4053,104.4025 6565.7744,104.4025 Q6564.4297,104.4025 6563.7449,105.4692 Q6563.0601,106.5358 6563.0601,108.6359 Q6563.0601,110.7277 6563.7449,111.7944 Q6564.4297,112.861 6565.7744,112.861 Q6566.4053,112.861 6566.9988,112.5912 Q6567.5923,112.3215 6568.2231,111.7404 Z " fill="#000000"/><text fill="#000000" font-family="sans-serif" font-size="14" lengthAdjust="spacing" textLength="34" x="6586.25" y="113.611">kode</text><line style="stroke:#181818;stroke-width:0.5;" x1="6511" x2="6663" y1="124.32" y2="124.32"/><ellipse cx="6521" cy="138.0641" fill="none" rx="3" ry="3" style="stroke:#038048;stroke-width:1.0;"/><text fill="#000000" font-family="sans-serif" font-size="14" lengthAdjust="spacing" textLength="86" x="6530" y="141.8552">kode : string</text><ellipse cx="6521" cy="154.5524" fill="none" rx="3" ry="3" style="stroke:#038048;stroke-width:1.0;"/><text fill="#000000" font-family="sans-serif" font-size="14" lengthAdjust="spacing" textLength="128" x="6530" y="158.3434">beskrivelse : string</text><line style="stroke:#181818;stroke-width:0.5;" x1="6511" x2="6663" y1="165.2966" y2="165.2966"/></g><!--class arkivstatus--><g id="elem_arkivstatus"><rect codeLine="8" fill="#F1F1F1" height="48" id="arkivstatus" rx="2.5" ry="2.5" style="stroke:#181818;stroke-width:0.5;" width="106" x="893" y="108.81"/><ellipse cx="908" cy="124.81" fill="#ADD1B2" rx="11" ry="11" style="stroke:#181818;stroke-width:1.0;"/><path d="M910.4731,130.9531 Q909.8921,131.2519 909.2529,131.4013 Q908.6138,131.5507 907.9082,131.5507 Q905.4014,131.5507 904.0815,129.8989 Q902.7617,128.247 902.7617,125.1259 Q902.7617,121.9965 904.0815,120.3447 Q905.4014,118.6928 907.9082,118.6928 Q908.6138,118.6928 909.2612,118.8422 Q909.9087,118.9916 910.4731,119.2905 L910.4731,122.0131 Q909.8423,121.4321 909.2488,121.1623 Q908.6553,120.8925 908.0244,120.8925 Q906.6797,120.8925 905.9949,121.9592 Q905.3101,123.0258 905.3101,125.1259 Q905.3101,127.2177 905.9949,128.2844 Q906.6797,129.351 908.0244,129.351 Q908.6553,129.351 909.2488,129.0812 Q909.8423,128.8115 910.4731,128.2304 Z " fill="#000000"/><text fill="#000000" font-family="sans-serif" font-size="14" lengthAdjust="spacing" textLength="74" x="922" y="130.101">arkivstatus</text><line style="stroke:#181818;stroke-width:0.5;" x1="894" x2="998" y1="140.81" y2="140.81"/><line style="stroke:#181818;stroke-width:0.5;" x1="894" x2="998" y1="148.81" y2="148.81"/></g><!--class avskrivningsmaate--><g id="elem_avskrivningsmaate"><rect codeLine="11" fill="#F1F1F1" height="48" id="avskrivningsmaate" rx="2.5" ry="2.5" style="stroke:#181818;stroke-width:0.5;" width="159" x="1033.5" y="108.81"/><ellipse cx="1048.5" cy="124.81" fill="#ADD1B2" rx="11" ry="11" style="stroke:#181818;stroke-width:1.0;"/><path d="M1050.9731,130.9531 Q1050.3921,131.2519 1049.7529,131.4013 Q1049.1138,131.5507 1048.4082,131.5507 Q1045.9014,131.5507 1044.5815,129.8989 Q1043.2617,128.247 1043.2617,125.1259 Q1043.2617,121.9965 1044.5815,120.3447 Q1045.9014,118.6928 1048.4082,118.6928 Q1049.1138,118.6928 1049.7612,118.8422 Q1050.4087,118.9916 1050.9731,119.2905 L1050.9731,122.0131 Q1050.3423,121.4321 1049.7488,121.1623 Q1049.1553,120.8925 1048.5244,120.8925 Q1047.1797,120.8925 1046.4949,121.9592 Q1045.8101,123.0258 1045.8101,125.1259 Q1045.8101,127.2177 1046.4949,128.2844 Q1047.1797,129.351 1048.5244,129.351 Q1049.1553,129.351 1049.7488,129.0812 Q1050.3423,128.8115 1050.9731,128.2304 Z " fill="#000000"/><text fill="#000000" font-family="sans-serif" font-size="14" lengthAdjust="spacing" textLength="127" x="1062.5" y="130.101">avskrivningsmaate</text><line style="stroke:#181818;stroke-width:0.5;" x1="1034.5" x2="1191.5" y1="140.81" y2="140.81"/><line style="stroke:#181818;stroke-width:0.5;" x1="1034.5" x2="1191.5" y1="148.81" y2="148.81"/></g><!--class dokumentmedium--><g id="elem_dokumentmedium"><rect codeLine="14" fill="#F1F1F1" height="48" id="dokumentmedium" rx="2.5" ry="2.5" style="stroke:#181818;stroke-width:0.5;" width="158" x="1227" y="108.81"/><ellipse cx="1242" cy="124.81" fill="#ADD1B2" rx="11" ry="11" style="stroke:#181818;stroke-width:1.0;"/><path d="M1244.4731,130.9531 Q1243.8921,131.2519 1243.2529,131.4013 Q1242.6138,131.5507 1241.9082,131.5507 Q1239.4014,131.5507 1238.0815,129.8989 Q1236.7617,128.247 1236.7617,125.1259 Q1236.7617,121.9965 1238.0815,120.3447 Q1239.4014,118.6928 1241.9082,118.6928 Q1242.6138,118.6928 1243.2612,118.8422 Q1243.9087,118.9916 1244.4731,119.2905 L1244.4731,122.0131 Q1243.8423,121.4321 1243.2488,121.1623 Q1242.6553,120.8925 1242.0244,120.8925 Q1240.6797,120.8925 1239.9949,121.9592 Q1239.3101,123.0258 1239.3101,125.1259 Q1239.3101,127.2177 1239.9949,128.2844 Q1240.6797,129.351 1242.0244,129.351 Q1242.6553,129.351 1243.2488,129.0812 Q1243.8423,128.8115 1244.4731,128.2304 Z " fill="#000000"/><text fill="#000000" font-family="sans-serif" font-size="14" lengthAdjust="spacing" textLength="126" x="1256" y="130.101">dokumentmedium</text><line style="stroke:#181818;stroke-width:0.5;" x1="1228" x2="1384" y1="140.81" y2="140.81"/><line style="stroke:#181818;stroke-width:0.5;" x1="1228" x2="1384" y1="148.81" y2="148.81"/></g><!--class dokumentstatus--><g id="elem_dokumentstatus"><rect codeLine="17" fill="#F1F1F1" height="48" id="dokumentstatus" rx="2.5" ry="2.5" style="stroke:#181818;stroke-width:0.5;" width="143" x="1419.5" y="108.81"/><ellipse cx="1434.5" cy="124.81" fill="#ADD1B2" rx="11" ry="11" style="stroke:#181818;stroke-width:1.0;"/><path d="M1436.9731,130.9531 Q1436.3921,131.2519 1435.7529,131.4013 Q1435.1138,131.5507 1434.4082,131.5507 Q1431.9014,131.5507 1430.5815,129.8989 Q1429.2617,128.247 1429.2617,125.1259 Q1429.2617,121.9965 1430.5815,120.3447 Q1431.9014,118.6928 1434.4082,118.6928 Q1435.1138,118.6928 1435.7612,118.8422 Q1436.4087,118.9916 1436.9731,119.2905 L1436.9731,122.0131 Q1436.3423,121.4321 1435.7488,121.1623 Q1435.1553,120.8925 1434.5244,120.8925 Q1433.1797,120.8925 1432.4949,121.9592 Q1431.8101,123.0258 1431.8101,125.1259 Q1431.8101,127.2177 1432.4949,128.2844 Q1433.1797,129.351 1434.5244,129.351 Q1435.1553,129.351 1435.7488,129.0812 Q1436.3423,128.8115 1436.9731,128.2304 Z " fill="#000000"/><text fill="#000000" font-family="sans-serif" font-size="14" lengthAdjust="spacing" textLength="111" x="1448.5" y="130.101">dokumentstatus</text><line style="stroke:#181818;stroke-width:0.5;" x1="1420.5" x2="1561.5" y1="140.81" y2="140.81"/><line style="stroke:#181818;stroke-width:0.5;" x1="1420.5" x2="1561.5" y1="148.81" y2="148.81"/></g><!--class dokumenttype--><g id="elem_dokumenttype"><rect codeLine="20" fill="#F1F1F1" height="48" id="dokumenttype" rx="2.5" ry="2.5" style="stroke:#181818;stroke-width:0.5;" width="131" x="1597.5" y="108.81"/><ellipse cx="1612.5" cy="124.81" fill="#ADD1B2" rx="11" ry="11" style="stroke:#181818;stroke-width:1.0;"/><path d="M1614.9731,130.9531 Q1614.3921,131.2519 1613.7529,131.4013 Q1613.1138,131.5507 1612.4082,131.5507 Q1609.9014,131.5507 1608.5815,129.8989 Q1607.2617,128.247 1607.2617,125.1259 Q1607.2617,121.9965 1608.5815,120.3447 Q1609.9014,118.6928 1612.4082,118.6928 Q1613.1138,118.6928 1613.7612,118.8422 Q1614.4087,118.9916 1614.9731,119.2905 L1614.9731,122.0131 Q1614.3423,121.4321 1613.7488,121.1623 Q1613.1553,120.8925 1612.5244,120.8925 Q1611.1797,120.8925 1610.4949,121.9592 Q1609.8101,123.0258 1609.8101,125.1259 Q1609.8101,127.2177 1610.4949,128.2844 Q1611.1797,129.351 1612.5244,129.351 Q1613.1553,129.351 1613.7488,129.0812 Q1614.3423,128.8115 1614.9731,128.2304 Z " fill="#000000"/><text fill="#000000" font-family="sans-serif" font-size="14" lengthAdjust="spacing" textLength="99" x="1626.5" y="130.101">dokumenttype</text><line style="stroke:#181818;stroke-width:0.5;" x1="1598.5" x2="1727.5" y1="140.81" y2="140.81"/><line style="stroke:#181818;stroke-width:0.5;" x1="1598.5" x2="1727.5" y1="148.81" y2="148.81"/></g><!--class eksternNoekkel--><g id="elem_eksternNoekkel"><rect codeLine="23" fill="#F1F1F1" height="80.9766" id="eksternNoekkel" rx="2.5" ry="2.5" style="stroke:#181818;stroke-width:0.5;" width="147" x="7167.5" y="92.32"/><ellipse cx="7186.55" cy="108.32" fill="#ADD1B2" rx="11" ry="11" style="stroke:#181818;stroke-width:1.0;"/><path d="M7189.0231,114.4631 Q7188.4421,114.7619 7187.8029,114.9113 Q7187.1638,115.0607 7186.4582,115.0607 Q7183.9514,115.0607 7182.6315,113.4089 Q7181.3117,111.757 7181.3117,108.6359 Q7181.3117,105.5065 7182.6315,103.8547 Q7183.9514,102.2028 7186.4582,102.2028 Q7187.1638,102.2028 7187.8112,102.3522 Q7188.4587,102.5016 7189.0231,102.8005 L7189.0231,105.5231 Q7188.3923,104.9421 7187.7988,104.6723 Q7187.2053,104.4025 7186.5744,104.4025 Q7185.2297,104.4025 7184.5449,105.4692 Q7183.8601,106.5358 7183.8601,108.6359 Q7183.8601,110.7277 7184.5449,111.7944 Q7185.2297,112.861 7186.5744,112.861 Q7187.2053,112.861 7187.7988,112.5912 Q7188.3923,112.3215 7189.0231,111.7404 Z " fill="#000000"/><text fill="#000000" font-family="sans-serif" font-size="14" lengthAdjust="spacing" textLength="106" x="7201.45" y="113.611">eksternNoekkel</text><line style="stroke:#181818;stroke-width:0.5;" x1="7168.5" x2="7313.5" y1="124.32" y2="124.32"/><ellipse cx="7178.5" cy="138.0641" fill="none" rx="3" ry="3" style="stroke:#038048;stroke-width:1.0;"/><text fill="#000000" font-family="sans-serif" font-size="14" lengthAdjust="spacing" textLength="121" x="7187.5" y="141.8552">fagsystem : string</text><ellipse cx="7178.5" cy="154.5524" fill="none" rx="3" ry="3" style="stroke:#038048;stroke-width:1.0;"/><text fill="#000000" font-family="sans-serif" font-size="14" lengthAdjust="spacing" textLength="106" x="7187.5" y="158.3434">noekkel : string</text><line style="stroke:#181818;stroke-width:0.5;" x1="7168.5" x2="7313.5" y1="165.2966" y2="165.2966"/></g><!--class elektroniskSignaturSikkerhetsnivaa--><g id="elem_elektroniskSignaturSikkerhetsnivaa"><rect codeLine="27" fill="#F1F1F1" height="48" id="elektroniskSignaturSikkerhetsnivaa" rx="2.5" ry="2.5" style="stroke:#181818;stroke-width:0.5;" width="273" x="1763.5" y="108.81"/><ellipse cx="1778.5" cy="124.81" fill="#ADD1B2" rx="11" ry="11" style="stroke:#181818;stroke-width:1.0;"/><path d="M1780.9731,130.9531 Q1780.3921,131.2519 1779.7529,131.4013 Q1779.1138,131.5507 1778.4082,131.5507 Q1775.9014,131.5507 1774.5815,129.8989 Q1773.2617,128.247 1773.2617,125.1259 Q1773.2617,121.9965 1774.5815,120.3447 Q1775.9014,118.6928 1778.4082,118.6928 Q1779.1138,118.6928 1779.7612,118.8422 Q1780.4087,118.9916 1780.9731,119.2905 L1780.9731,122.0131 Q1780.3423,121.4321 1779.7488,121.1623 Q1779.1553,120.8925 1778.5244,120.8925 Q1777.1797,120.8925 1776.4949,121.9592 Q1775.8101,123.0258 1775.8101,125.1259 Q1775.8101,127.2177 1776.4949,128.2844 Q1777.1797,129.351 1778.5244,129.351 Q1779.1553,129.351 1779.7488,129.0812 Q1780.3423,128.8115 1780.9731,128.2304 Z " fill="#000000"/><text fill="#000000" font-family="sans-serif" font-size="14" lengthAdjust="spacing" textLength="241" x="1792.5" y="130.101">elektroniskSignaturSikkerhetsnivaa</text><line style="stroke:#181818;stroke-width:0.5;" x1="1764.5" x2="2035.5" y1="140.81" y2="140.81"/><line style="stroke:#181818;stroke-width:0.5;" x1="1764.5" x2="2035.5" y1="148.81" y2="148.81"/></g><!--class elektroniskSignaturVerifisert--><g id="elem_elektroniskSignaturVerifisert"><rect codeLine="30" fill="#F1F1F1" height="48" id="elektroniskSignaturVerifisert" rx="2.5" ry="2.5" style="stroke:#181818;stroke-width:0.5;" width="228" x="2072" y="108.81"/><ellipse cx="2087" cy="124.81" fill="#ADD1B2" rx="11" ry="11" style="stroke:#181818;stroke-width:1.0;"/><path d="M2089.4731,130.9531 Q2088.8921,131.2519 2088.2529,131.4013 Q2087.6138,131.5507 2086.9082,131.5507 Q2084.4014,131.5507 2083.0815,129.8989 Q2081.7617,128.247 2081.7617,125.1259 Q2081.7617,121.9965 2083.0815,120.3447 Q2084.4014,118.6928 2086.9082,118.6928 Q2087.6138,118.6928 2088.2612,118.8422 Q2088.9087,118.9916 2089.4731,119.2905 L2089.4731,122.0131 Q2088.8423,121.4321 2088.2488,121.1623 Q2087.6553,120.8925 2087.0244,120.8925 Q2085.6797,120.8925 2084.9949,121.9592 Q2084.3101,123.0258 2084.3101,125.1259 Q2084.3101,127.2177 2084.9949,128.2844 Q2085.6797,129.351 2087.0244,129.351 Q2087.6553,129.351 2088.2488,129.0812 Q2088.8423,128.8115 2089.4731,128.2304 Z " fill="#000000"/><text fill="#000000" font-family="sans-serif" font-size="14" lengthAdjust="spacing" textLength="196" x="2101" y="130.101">elektroniskSignaturVerifisert</text><line style="stroke:#181818;stroke-width:0.5;" x1="2073" x2="2299" y1="140.81" y2="140.81"/><line style="stroke:#181818;stroke-width:0.5;" x1="2073" x2="2299" y1="148.81" y2="148.81"/></g><!--class flytStatus--><g id="elem_flytStatus"><rect codeLine="33" fill="#F1F1F1" height="48" id="flytStatus" rx="2.5" ry="2.5" style="stroke:#181818;stroke-width:0.5;" width="95" x="2334.5" y="108.81"/><ellipse cx="2349.5" cy="124.81" fill="#ADD1B2" rx="11" ry="11" style="stroke:#181818;stroke-width:1.0;"/><path d="M2351.9731,130.9531 Q2351.3921,131.2519 2350.7529,131.4013 Q2350.1138,131.5507 2349.4082,131.5507 Q2346.9014,131.5507 2345.5815,129.8989 Q2344.2617,128.247 2344.2617,125.1259 Q2344.2617,121.9965 2345.5815,120.3447 Q2346.9014,118.6928 2349.4082,118.6928 Q2350.1138,118.6928 2350.7612,118.8422 Q2351.4087,118.9916 2351.9731,119.2905 L2351.9731,122.0131 Q2351.3423,121.4321 2350.7488,121.1623 Q2350.1553,120.8925 2349.5244,120.8925 Q2348.1797,120.8925 2347.4949,121.9592 Q2346.8101,123.0258 2346.8101,125.1259 Q2346.8101,127.2177 2347.4949,128.2844 Q2348.1797,129.351 2349.5244,129.351 Q2350.1553,129.351 2350.7488,129.0812 Q2351.3423,128.8115 2351.9731,128.2304 Z " fill="#000000"/><text fill="#000000" font-family="sans-serif" font-size="14" lengthAdjust="spacing" textLength="63" x="2363.5" y="130.101">flytStatus</text><line style="stroke:#181818;stroke-width:0.5;" x1="2335.5" x2="2428.5" y1="140.81" y2="140.81"/><line style="stroke:#181818;stroke-width:0.5;" x1="2335.5" x2="2428.5" y1="148.81" y2="148.81"/></g><!--class format--><g id="elem_format"><rect codeLine="36" fill="#F1F1F1" height="48" id="format" rx="2.5" ry="2.5" style="stroke:#181818;stroke-width:0.5;" width="78" x="2464" y="108.81"/><ellipse cx="2479" cy="124.81" fill="#ADD1B2" rx="11" ry="11" style="stroke:#181818;stroke-width:1.0;"/><path d="M2481.4731,130.9531 Q2480.8921,131.2519 2480.2529,131.4013 Q2479.6138,131.5507 2478.9082,131.5507 Q2476.4014,131.5507 2475.0815,129.8989 Q2473.7617,128.247 2473.7617,125.1259 Q2473.7617,121.9965 2475.0815,120.3447 Q2476.4014,118.6928 2478.9082,118.6928 Q2479.6138,118.6928 2480.2612,118.8422 Q2480.9087,118.9916 2481.4731,119.2905 L2481.4731,122.0131 Q2480.8423,121.4321 2480.2488,121.1623 Q2479.6553,120.8925 2479.0244,120.8925 Q2477.6797,120.8925 2476.9949,121.9592 Q2476.3101,123.0258 2476.3101,125.1259 Q2476.3101,127.2177 2476.9949,128.2844 Q2477.6797,129.351 2479.0244,129.351 Q2479.6553,129.351 2480.2488,129.0812 Q2480.8423,128.8115 2481.4731,128.2304 Z " fill="#000000"/><text fill="#000000" font-family="sans-serif" font-size="14" lengthAdjust="spacing" textLength="46" x="2493" y="130.101">format</text><line style="stroke:#181818;stroke-width:0.5;" x1="2465" x2="2541" y1="140.81" y2="140.81"/><line style="stroke:#181818;stroke-width:0.5;" x1="2465" x2="2541" y1="148.81" y2="148.81"/></g><!--class grad--><g id="elem_grad"><rect codeLine="39" fill="#F1F1F1" height="48" id="grad" rx="2.5" ry="2.5" style="stroke:#181818;stroke-width:0.5;" width="64" x="2577" y="108.81"/><ellipse cx="2592" cy="124.81" fill="#ADD1B2" rx="11" ry="11" style="stroke:#181818;stroke-width:1.0;"/><path d="M2594.4731,130.9531 Q2593.8921,131.2519 2593.2529,131.4013 Q2592.6138,131.5507 2591.9082,131.5507 Q2589.4014,131.5507 2588.0815,129.8989 Q2586.7617,128.247 2586.7617,125.1259 Q2586.7617,121.9965 2588.0815,120.3447 Q2589.4014,118.6928 2591.9082,118.6928 Q2592.6138,118.6928 2593.2612,118.8422 Q2593.9087,118.9916 2594.4731,119.2905 L2594.4731,122.0131 Q2593.8423,121.4321 2593.2488,121.1623 Q2592.6553,120.8925 2592.0244,120.8925 Q2590.6797,120.8925 2589.9949,121.9592 Q2589.3101,123.0258 2589.3101,125.1259 Q2589.3101,127.2177 2589.9949,128.2844 Q2590.6797,129.351 2592.0244,129.351 Q2592.6553,129.351 2593.2488,129.0812 Q2593.8423,128.8115 2594.4731,128.2304 Z " fill="#000000"/><text fill="#000000" font-family="sans-serif" font-size="14" lengthAdjust="spacing" textLength="32" x="2606" y="130.101">grad</text><line style="stroke:#181818;stroke-width:0.5;" x1="2578" x2="2640" y1="140.81" y2="140.81"/><line style="stroke:#181818;stroke-width:0.5;" x1="2578" x2="2640" y1="148.81" y2="148.81"/></g><!--class journalnummer--><g id="elem_journalnummer"><rect codeLine="48" fill="#F1F1F1" height="80.9766" id="journalnummer" rx="2.5" ry="2.5" style="stroke:#181818;stroke-width:0.5;" width="217" x="7349.5" y="92.32"/><ellipse cx="7400.25" cy="108.32" fill="#ADD1B2" rx="11" ry="11" style="stroke:#181818;stroke-width:1.0;"/><path d="M7402.7231,114.4631 Q7402.1421,114.7619 7401.5029,114.9113 Q7400.8638,115.0607 7400.1582,115.0607 Q7397.6514,115.0607 7396.3315,113.4089 Q7395.0117,111.757 7395.0117,108.6359 Q7395.0117,105.5065 7396.3315,103.8547 Q7397.6514,102.2028 7400.1582,102.2028 Q7400.8638,102.2028 7401.5112,102.3522 Q7402.1587,102.5016 7402.7231,102.8005 L7402.7231,105.5231 Q7402.0923,104.9421 7401.4988,104.6723 Q7400.9053,104.4025 7400.2744,104.4025 Q7398.9297,104.4025 7398.2449,105.4692 Q7397.5601,106.5358 7397.5601,108.6359 Q7397.5601,110.7277 7398.2449,111.7944 Q7398.9297,112.861 7400.2744,112.861 Q7400.9053,112.861 7401.4988,112.5912 Q7402.0923,112.3215 7402.7231,111.7404 Z " fill="#000000"/><text fill="#000000" font-family="sans-serif" font-size="14" lengthAdjust="spacing" textLength="107" x="7420.75" y="113.611">journalnummer</text><line style="stroke:#181818;stroke-width:0.5;" x1="7350.5" x2="7565.5" y1="124.32" y2="124.32"/><ellipse cx="7360.5" cy="138.0641" fill="none" rx="3" ry="3" style="stroke:#038048;stroke-width:1.0;"/><text fill="#000000" font-family="sans-serif" font-size="14" lengthAdjust="spacing" textLength="101" x="7369.5" y="141.8552">journalaar : int</text><ellipse cx="7360.5" cy="154.5524" fill="none" rx="3" ry="3" style="stroke:#038048;stroke-width:1.0;"/><text fill="#000000" font-family="sans-serif" font-size="14" lengthAdjust="spacing" textLength="191" x="7369.5" y="158.3434">journalsekvensnummer : int</text><line style="stroke:#181818;stroke-width:0.5;" x1="7350.5" x2="7565.5" y1="165.2966" y2="165.2966"/></g><!--class journalposttype--><g id="elem_journalposttype"><rect codeLine="52" fill="#F1F1F1" height="48" id="journalposttype" rx="2.5" ry="2.5" style="stroke:#181818;stroke-width:0.5;" width="140" x="2676" y="108.81"/><ellipse cx="2691" cy="124.81" fill="#ADD1B2" rx="11" ry="11" style="stroke:#181818;stroke-width:1.0;"/><path d="M2693.4731,130.9531 Q2692.8921,131.2519 2692.2529,131.4013 Q2691.6138,131.5507 2690.9082,131.5507 Q2688.4014,131.5507 2687.0815,129.8989 Q2685.7617,128.247 2685.7617,125.1259 Q2685.7617,121.9965 2687.0815,120.3447 Q2688.4014,118.6928 2690.9082,118.6928 Q2691.6138,118.6928 2692.2612,118.8422 Q2692.9087,118.9916 2693.4731,119.2905 L2693.4731,122.0131 Q2692.8423,121.4321 2692.2488,121.1623 Q2691.6553,120.8925 2691.0244,120.8925 Q2689.6797,120.8925 2688.9949,121.9592 Q2688.3101,123.0258 2688.3101,125.1259 Q2688.3101,127.2177 2688.9949,128.2844 Q2689.6797,129.351 2691.0244,129.351 Q2691.6553,129.351 2692.2488,129.0812 Q2692.8423,128.8115 2693.4731,128.2304 Z " fill="#000000"/><text fill="#000000" font-family="sans-serif" font-size="14" lengthAdjust="spacing" textLength="108" x="2705" y="130.101">journalposttype</text><line style="stroke:#181818;stroke-width:0.5;" x1="2677" x2="2815" y1="140.81" y2="140.81"/><line style="stroke:#181818;stroke-width:0.5;" x1="2677" x2="2815" y1="148.81" y2="148.81"/></g><!--class journalstatus--><g id="elem_journalstatus"><rect codeLine="55" fill="#F1F1F1" height="48" id="journalstatus" rx="2.5" ry="2.5" style="stroke:#181818;stroke-width:0.5;" width="122" x="2851" y="108.81"/><ellipse cx="2866" cy="124.81" fill="#ADD1B2" rx="11" ry="11" style="stroke:#181818;stroke-width:1.0;"/><path d="M2868.4731,130.9531 Q2867.8921,131.2519 2867.2529,131.4013 Q2866.6138,131.5507 2865.9082,131.5507 Q2863.4014,131.5507 2862.0815,129.8989 Q2860.7617,128.247 2860.7617,125.1259 Q2860.7617,121.9965 2862.0815,120.3447 Q2863.4014,118.6928 2865.9082,118.6928 Q2866.6138,118.6928 2867.2612,118.8422 Q2867.9087,118.9916 2868.4731,119.2905 L2868.4731,122.0131 Q2867.8423,121.4321 2867.2488,121.1623 Q2866.6553,120.8925 2866.0244,120.8925 Q2864.6797,120.8925 2863.9949,121.9592 Q2863.3101,123.0258 2863.3101,125.1259 Q2863.3101,127.2177 2863.9949,128.2844 Q2864.6797,129.351 2866.0244,129.351 Q2866.6553,129.351 2867.2488,129.0812 Q2867.8423,128.8115 2868.4731,128.2304 Z " fill="#000000"/><text fill="#000000" font-family="sans-serif" font-size="14" lengthAdjust="spacing" textLength="90" x="2880" y="130.101">journalstatus</text><line style="stroke:#181818;stroke-width:0.5;" x1="2852" x2="2972" y1="140.81" y2="140.81"/><line style="stroke:#181818;stroke-width:0.5;" x1="2852" x2="2972" y1="148.81" y2="148.81"/></g><!--class kassasjonsvedtak--><g id="elem_kassasjonsvedtak"><rect codeLine="58" fill="#F1F1F1" height="48" id="kassasjonsvedtak" rx="2.5" ry="2.5" style="stroke:#181818;stroke-width:0.5;" width="151" x="3007.5" y="108.81"/><ellipse cx="3022.5" cy="124.81" fill="#ADD1B2" rx="11" ry="11" style="stroke:#181818;stroke-width:1.0;"/><path d="M3024.9731,130.9531 Q3024.3921,131.2519 3023.7529,131.4013 Q3023.1138,131.5507 3022.4082,131.5507 Q3019.9014,131.5507 3018.5815,129.8989 Q3017.2617,128.247 3017.2617,125.1259 Q3017.2617,121.9965 3018.5815,120.3447 Q3019.9014,118.6928 3022.4082,118.6928 Q3023.1138,118.6928 3023.7612,118.8422 Q3024.4087,118.9916 3024.9731,119.2905 L3024.9731,122.0131 Q3024.3423,121.4321 3023.7488,121.1623 Q3023.1553,120.8925 3022.5244,120.8925 Q3021.1797,120.8925 3020.4949,121.9592 Q3019.8101,123.0258 3019.8101,125.1259 Q3019.8101,127.2177 3020.4949,128.2844 Q3021.1797,129.351 3022.5244,129.351 Q3023.1553,129.351 3023.7488,129.0812 Q3024.3423,128.8115 3024.9731,128.2304 Z " fill="#000000"/><text fill="#000000" font-family="sans-serif" font-size="14" lengthAdjust="spacing" textLength="119" x="3036.5" y="130.101">kassasjonsvedtak</text><line style="stroke:#181818;stroke-width:0.5;" x1="3008.5" x2="3157.5" y1="140.81" y2="140.81"/><line style="stroke:#181818;stroke-width:0.5;" x1="3008.5" x2="3157.5" y1="148.81" y2="148.81"/></g><!--class klassifikasjonstype--><g id="elem_klassifikasjonstype"><rect codeLine="61" fill="#F1F1F1" height="48" id="klassifikasjonstype" rx="2.5" ry="2.5" style="stroke:#181818;stroke-width:0.5;" width="160" x="3193" y="108.81"/><ellipse cx="3208" cy="124.81" fill="#ADD1B2" rx="11" ry="11" style="stroke:#181818;stroke-width:1.0;"/><path d="M3210.4731,130.9531 Q3209.8921,131.2519 3209.2529,131.4013 Q3208.6138,131.5507 3207.9082,131.5507 Q3205.4014,131.5507 3204.0815,129.8989 Q3202.7617,128.247 3202.7617,125.1259 Q3202.7617,121.9965 3204.0815,120.3447 Q3205.4014,118.6928 3207.9082,118.6928 Q3208.6138,118.6928 3209.2612,118.8422 Q3209.9087,118.9916 3210.4731,119.2905 L3210.4731,122.0131 Q3209.8423,121.4321 3209.2488,121.1623 Q3208.6553,120.8925 3208.0244,120.8925 Q3206.6797,120.8925 3205.9949,121.9592 Q3205.3101,123.0258 3205.3101,125.1259 Q3205.3101,127.2177 3205.9949,128.2844 Q3206.6797,129.351 3208.0244,129.351 Q3208.6553,129.351 3209.2488,129.0812 Q3209.8423,128.8115 3210.4731,128.2304 Z " fill="#000000"/><text fill="#000000" font-family="sans-serif" font-size="14" lengthAdjust="spacing" textLength="128" x="3222" y="130.101">klassifikasjonstype</text><line style="stroke:#181818;stroke-width:0.5;" x1="3194" x2="3352" y1="140.81" y2="140.81"/><line style="stroke:#181818;stroke-width:0.5;" x1="3194" x2="3352" y1="148.81" y2="148.81"/></g><!--class korrespondanseparttype--><g id="elem_korrespondanseparttype"><rect codeLine="68" fill="#F1F1F1" height="48" id="korrespondanseparttype" rx="2.5" ry="2.5" style="stroke:#181818;stroke-width:0.5;" width="201" x="3388.5" y="108.81"/><ellipse cx="3403.5" cy="124.81" fill="#ADD1B2" rx="11" ry="11" style="stroke:#181818;stroke-width:1.0;"/><path d="M3405.9731,130.9531 Q3405.3921,131.2519 3404.7529,131.4013 Q3404.1138,131.5507 3403.4082,131.5507 Q3400.9014,131.5507 3399.5815,129.8989 Q3398.2617,128.247 3398.2617,125.1259 Q3398.2617,121.9965 3399.5815,120.3447 Q3400.9014,118.6928 3403.4082,118.6928 Q3404.1138,118.6928 3404.7612,118.8422 Q3405.4087,118.9916 3405.9731,119.2905 L3405.9731,122.0131 Q3405.3423,121.4321 3404.7488,121.1623 Q3404.1553,120.8925 3403.5244,120.8925 Q3402.1797,120.8925 3401.4949,121.9592 Q3400.8101,123.0258 3400.8101,125.1259 Q3400.8101,127.2177 3401.4949,128.2844 Q3402.1797,129.351 3403.5244,129.351 Q3404.1553,129.351 3404.7488,129.0812 Q3405.3423,128.8115 3405.9731,128.2304 Z " fill="#000000"/><text fill="#000000" font-family="sans-serif" font-size="14" lengthAdjust="spacing" textLength="169" x="3417.5" y="130.101">korrespondanseparttype</text><line style="stroke:#181818;stroke-width:0.5;" x1="3389.5" x2="3588.5" y1="140.81" y2="140.81"/><line style="stroke:#181818;stroke-width:0.5;" x1="3389.5" x2="3588.5" y1="148.81" y2="148.81"/></g><!--class merknadstype--><g id="elem_merknadstype"><rect codeLine="71" fill="#F1F1F1" height="48" id="merknadstype" rx="2.5" ry="2.5" style="stroke:#181818;stroke-width:0.5;" width="129" x="3624.5" y="108.81"/><ellipse cx="3639.5" cy="124.81" fill="#ADD1B2" rx="11" ry="11" style="stroke:#181818;stroke-width:1.0;"/><path d="M3641.9731,130.9531 Q3641.3921,131.2519 3640.7529,131.4013 Q3640.1138,131.5507 3639.4082,131.5507 Q3636.9014,131.5507 3635.5815,129.8989 Q3634.2617,128.247 3634.2617,125.1259 Q3634.2617,121.9965 3635.5815,120.3447 Q3636.9014,118.6928 3639.4082,118.6928 Q3640.1138,118.6928 3640.7612,118.8422 Q3641.4087,118.9916 3641.9731,119.2905 L3641.9731,122.0131 Q3641.3423,121.4321 3640.7488,121.1623 Q3640.1553,120.8925 3639.5244,120.8925 Q3638.1797,120.8925 3637.4949,121.9592 Q3636.8101,123.0258 3636.8101,125.1259 Q3636.8101,127.2177 3637.4949,128.2844 Q3638.1797,129.351 3639.5244,129.351 Q3640.1553,129.351 3640.7488,129.0812 Q3641.3423,128.8115 3641.9731,128.2304 Z " fill="#000000"/><text fill="#000000" font-family="sans-serif" font-size="14" lengthAdjust="spacing" textLength="97" x="3653.5" y="130.101">merknadstype</text><line style="stroke:#181818;stroke-width:0.5;" x1="3625.5" x2="3752.5" y1="140.81" y2="140.81"/><line style="stroke:#181818;stroke-width:0.5;" x1="3625.5" x2="3752.5" y1="148.81" y2="148.81"/></g><!--class moetedeltakerFunksjon--><g id="elem_moetedeltakerFunksjon"><rect codeLine="74" fill="#F1F1F1" height="48" id="moetedeltakerFunksjon" rx="2.5" ry="2.5" style="stroke:#181818;stroke-width:0.5;" width="194" x="3788" y="108.81"/><ellipse cx="3803" cy="124.81" fill="#ADD1B2" rx="11" ry="11" style="stroke:#181818;stroke-width:1.0;"/><path d="M3805.4731,130.9531 Q3804.8921,131.2519 3804.2529,131.4013 Q3803.6138,131.5507 3802.9082,131.5507 Q3800.4014,131.5507 3799.0815,129.8989 Q3797.7617,128.247 3797.7617,125.1259 Q3797.7617,121.9965 3799.0815,120.3447 Q3800.4014,118.6928 3802.9082,118.6928 Q3803.6138,118.6928 3804.2612,118.8422 Q3804.9087,118.9916 3805.4731,119.2905 L3805.4731,122.0131 Q3804.8423,121.4321 3804.2488,121.1623 Q3803.6553,120.8925 3803.0244,120.8925 Q3801.6797,120.8925 3800.9949,121.9592 Q3800.3101,123.0258 3800.3101,125.1259 Q3800.3101,127.2177 3800.9949,128.2844 Q3801.6797,129.351 3803.0244,129.351 Q3803.6553,129.351 3804.2488,129.0812 Q3804.8423,128.8115 3805.4731,128.2304 Z " fill="#000000"/><text fill="#000000" font-family="sans-serif" font-size="14" lengthAdjust="spacing" textLength="162" x="3817" y="130.101">moetedeltakerFunksjon</text><line style="stroke:#181818;stroke-width:0.5;" x1="3789" x2="3981" y1="140.81" y2="140.81"/><line style="stroke:#181818;stroke-width:0.5;" x1="3789" x2="3981" y1="148.81" y2="148.81"/></g><!--class moeteregistreringsstatus--><g id="elem_moeteregistreringsstatus"><rect codeLine="77" fill="#F1F1F1" height="48" id="moeteregistreringsstatus" rx="2.5" ry="2.5" style="stroke:#181818;stroke-width:0.5;" width="204" x="4017" y="108.81"/><ellipse cx="4032" cy="124.81" fill="#ADD1B2" rx="11" ry="11" style="stroke:#181818;stroke-width:1.0;"/><path d="M4034.4731,130.9531 Q4033.8921,131.2519 4033.2529,131.4013 Q4032.6138,131.5507 4031.9082,131.5507 Q4029.4014,131.5507 4028.0815,129.8989 Q4026.7617,128.247 4026.7617,125.1259 Q4026.7617,121.9965 4028.0815,120.3447 Q4029.4014,118.6928 4031.9082,118.6928 Q4032.6138,118.6928 4033.2612,118.8422 Q4033.9087,118.9916 4034.4731,119.2905 L4034.4731,122.0131 Q4033.8423,121.4321 4033.2488,121.1623 Q4032.6553,120.8925 4032.0244,120.8925 Q4030.6797,120.8925 4029.9949,121.9592 Q4029.3101,123.0258 4029.3101,125.1259 Q4029.3101,127.2177 4029.9949,128.2844 Q4030.6797,129.351 4032.0244,129.351 Q4032.6553,129.351 4033.2488,129.0812 Q4033.8423,128.8115 4034.4731,128.2304 Z " fill="#000000"/><text fill="#000000" font-family="sans-serif" font-size="14" lengthAdjust="spacing" textLength="172" x="4046" y="130.101">moeteregistreringsstatus</text><line style="stroke:#181818;stroke-width:0.5;" x1="4018" x2="4220" y1="140.81" y2="140.81"/><line style="stroke:#181818;stroke-width:0.5;" x1="4018" x2="4220" y1="148.81" y2="148.81"/></g><!--class moeteregistreringstype--><g id="elem_moeteregistreringstype"><rect codeLine="80" fill="#F1F1F1" height="48" id="moeteregistreringstype" rx="2.5" ry="2.5" style="stroke:#181818;stroke-width:0.5;" width="192" x="4256" y="108.81"/><ellipse cx="4271" cy="124.81" fill="#ADD1B2" rx="11" ry="11" style="stroke:#181818;stroke-width:1.0;"/><path d="M4273.4731,130.9531 Q4272.8921,131.2519 4272.2529,131.4013 Q4271.6138,131.5507 4270.9082,131.5507 Q4268.4014,131.5507 4267.0815,129.8989 Q4265.7617,128.247 4265.7617,125.1259 Q4265.7617,121.9965 4267.0815,120.3447 Q4268.4014,118.6928 4270.9082,118.6928 Q4271.6138,118.6928 4272.2612,118.8422 Q4272.9087,118.9916 4273.4731,119.2905 L4273.4731,122.0131 Q4272.8423,121.4321 4272.2488,121.1623 Q4271.6553,120.8925 4271.0244,120.8925 Q4269.6797,120.8925 4268.9949,121.9592 Q4268.3101,123.0258 4268.3101,125.1259 Q4268.3101,127.2177 4268.9949,128.2844 Q4269.6797,129.351 4271.0244,129.351 Q4271.6553,129.351 4272.2488,129.0812 Q4272.8423,128.8115 4273.4731,128.2304 Z " fill="#000000"/><text fill="#000000" font-family="sans-serif" font-size="14" lengthAdjust="spacing" textLength="160" x="4285" y="130.101">moeteregistreringstype</text><line style="stroke:#181818;stroke-width:0.5;" x1="4257" x2="4447" y1="140.81" y2="140.81"/><line style="stroke:#181818;stroke-width:0.5;" x1="4257" x2="4447" y1="148.81" y2="148.81"/></g><!--class moetesakstype--><g id="elem_moetesakstype"><rect codeLine="83" fill="#F1F1F1" height="48" id="moetesakstype" rx="2.5" ry="2.5" style="stroke:#181818;stroke-width:0.5;" width="134" x="4483" y="108.81"/><ellipse cx="4498" cy="124.81" fill="#ADD1B2" rx="11" ry="11" style="stroke:#181818;stroke-width:1.0;"/><path d="M4500.4731,130.9531 Q4499.8921,131.2519 4499.2529,131.4013 Q4498.6138,131.5507 4497.9082,131.5507 Q4495.4014,131.5507 4494.0815,129.8989 Q4492.7617,128.247 4492.7617,125.1259 Q4492.7617,121.9965 4494.0815,120.3447 Q4495.4014,118.6928 4497.9082,118.6928 Q4498.6138,118.6928 4499.2612,118.8422 Q4499.9087,118.9916 4500.4731,119.2905 L4500.4731,122.0131 Q4499.8423,121.4321 4499.2488,121.1623 Q4498.6553,120.8925 4498.0244,120.8925 Q4496.6797,120.8925 4495.9949,121.9592 Q4495.3101,123.0258 4495.3101,125.1259 Q4495.3101,127.2177 4495.9949,128.2844 Q4496.6797,129.351 4498.0244,129.351 Q4498.6553,129.351 4499.2488,129.0812 Q4499.8423,128.8115 4500.4731,128.2304 Z " fill="#000000"/><text fill="#000000" font-family="sans-serif" font-size="14" lengthAdjust="spacing" textLength="102" x="4512" y="130.101">moetesakstype</text><line style="stroke:#181818;stroke-width:0.5;" x1="4484" x2="4616" y1="140.81" y2="140.81"/><line style="stroke:#181818;stroke-width:0.5;" x1="4484" x2="4616" y1="148.81" y2="148.81"/></g><!--class partRolle--><g id="elem_partRolle"><rect codeLine="86" fill="#F1F1F1" height="48" id="partRolle" rx="2.5" ry="2.5" style="stroke:#181818;stroke-width:0.5;" width="94" x="4652" y="108.81"/><ellipse cx="4667" cy="124.81" fill="#ADD1B2" rx="11" ry="11" style="stroke:#181818;stroke-width:1.0;"/><path d="M4669.4731,130.9531 Q4668.8921,131.2519 4668.2529,131.4013 Q4667.6138,131.5507 4666.9082,131.5507 Q4664.4014,131.5507 4663.0815,129.8989 Q4661.7617,128.247 4661.7617,125.1259 Q4661.7617,121.9965 4663.0815,120.3447 Q4664.4014,118.6928 4666.9082,118.6928 Q4667.6138,118.6928 4668.2612,118.8422 Q4668.9087,118.9916 4669.4731,119.2905 L4669.4731,122.0131 Q4668.8423,121.4321 4668.2488,121.1623 Q4667.6553,120.8925 4667.0244,120.8925 Q4665.6797,120.8925 4664.9949,121.9592 Q4664.3101,123.0258 4664.3101,125.1259 Q4664.3101,127.2177 4664.9949,128.2844 Q4665.6797,129.351 4667.0244,129.351 Q4667.6553,129.351 4668.2488,129.0812 Q4668.8423,128.8115 4669.4731,128.2304 Z " fill="#000000"/><text fill="#000000" font-family="sans-serif" font-size="14" lengthAdjust="spacing" textLength="62" x="4681" y="130.101">partRolle</text><line style="stroke:#181818;stroke-width:0.5;" x1="4653" x2="4745" y1="140.81" y2="140.81"/><line style="stroke:#181818;stroke-width:0.5;" x1="4653" x2="4745" y1="148.81" y2="148.81"/></g><!--class presedensStatus--><g id="elem_presedensStatus"><rect codeLine="89" fill="#F1F1F1" height="48" id="presedensStatus" rx="2.5" ry="2.5" style="stroke:#181818;stroke-width:0.5;" width="145" x="4781.5" y="108.81"/><ellipse cx="4796.5" cy="124.81" fill="#ADD1B2" rx="11" ry="11" style="stroke:#181818;stroke-width:1.0;"/><path d="M4798.9731,130.9531 Q4798.3921,131.2519 4797.7529,131.4013 Q4797.1138,131.5507 4796.4082,131.5507 Q4793.9014,131.5507 4792.5815,129.8989 Q4791.2617,128.247 4791.2617,125.1259 Q4791.2617,121.9965 4792.5815,120.3447 Q4793.9014,118.6928 4796.4082,118.6928 Q4797.1138,118.6928 4797.7612,118.8422 Q4798.4087,118.9916 4798.9731,119.2905 L4798.9731,122.0131 Q4798.3423,121.4321 4797.7488,121.1623 Q4797.1553,120.8925 4796.5244,120.8925 Q4795.1797,120.8925 4794.4949,121.9592 Q4793.8101,123.0258 4793.8101,125.1259 Q4793.8101,127.2177 4794.4949,128.2844 Q4795.1797,129.351 4796.5244,129.351 Q4797.1553,129.351 4797.7488,129.0812 Q4798.3423,128.8115 4798.9731,128.2304 Z " fill="#000000"/><text fill="#000000" font-family="sans-serif" font-size="14" lengthAdjust="spacing" textLength="113" x="4810.5" y="130.101">presedensStatus</text><line style="stroke:#181818;stroke-width:0.5;" x1="4782.5" x2="4925.5" y1="140.81" y2="140.81"/><line style="stroke:#181818;stroke-width:0.5;" x1="4782.5" x2="4925.5" y1="148.81" y2="148.81"/></g><!--class referanseTilDokumentbeskrivelse--><g id="elem_referanseTilDokumentbeskrivelse"><rect codeLine="92" fill="#F1F1F1" height="64.4883" id="referanseTilDokumentbeskrivelse" rx="2.5" ry="2.5" style="stroke:#181818;stroke-width:0.5;" width="261" x="7601.5" y="100.57"/><ellipse cx="7616.5" cy="116.57" fill="#ADD1B2" rx="11" ry="11" style="stroke:#181818;stroke-width:1.0;"/><path d="M7618.9731,122.7131 Q7618.3921,123.0119 7617.7529,123.1613 Q7617.1138,123.3107 7616.4082,123.3107 Q7613.9014,123.3107 7612.5815,121.6589 Q7611.2617,120.007 7611.2617,116.8859 Q7611.2617,113.7565 7612.5815,112.1047 Q7613.9014,110.4528 7616.4082,110.4528 Q7617.1138,110.4528 7617.7612,110.6022 Q7618.4087,110.7516 7618.9731,111.0505 L7618.9731,113.7731 Q7618.3423,113.1921 7617.7488,112.9223 Q7617.1553,112.6525 7616.5244,112.6525 Q7615.1797,112.6525 7614.4949,113.7192 Q7613.8101,114.7858 7613.8101,116.8859 Q7613.8101,118.9777 7614.4949,120.0444 Q7615.1797,121.111 7616.5244,121.111 Q7617.1553,121.111 7617.7488,120.8412 Q7618.3423,120.5715 7618.9731,119.9904 Z " fill="#000000"/><text fill="#000000" font-family="sans-serif" font-size="14" lengthAdjust="spacing" textLength="229" x="7630.5" y="121.861">referanseTilDokumentbeskrivelse</text><line style="stroke:#181818;stroke-width:0.5;" x1="7602.5" x2="7861.5" y1="132.57" y2="132.57"/><ellipse cx="7612.5" cy="146.3141" fill="none" rx="3" ry="3" style="stroke:#038048;stroke-width:1.0;"/><text fill="#000000" font-family="sans-serif" font-size="14" lengthAdjust="spacing" textLength="134" x="7621.5" y="150.1052">systemID : systemID</text><line style="stroke:#181818;stroke-width:0.5;" x1="7602.5" x2="7861.5" y1="157.0583" y2="157.0583"/></g><!--class referanseTilJournalpost--><g id="elem_referanseTilJournalpost"><rect codeLine="95" fill="#F1F1F1" height="130.4414" id="referanseTilJournalpost" rx="2.5" ry="2.5" style="stroke:#181818;stroke-width:0.5;" width="372" x="7055" y="249.79"/><ellipse cx="7156.25" cy="265.79" fill="#ADD1B2" rx="11" ry="11" style="stroke:#181818;stroke-width:1.0;"/><path d="M7158.7231,271.9331 Q7158.1421,272.2319 7157.5029,272.3813 Q7156.8638,272.5307 7156.1582,272.5307 Q7153.6514,272.5307 7152.3315,270.8789 Q7151.0117,269.227 7151.0117,266.1059 Q7151.0117,262.9765 7152.3315,261.3247 Q7153.6514,259.6728 7156.1582,259.6728 Q7156.8638,259.6728 7157.5112,259.8222 Q7158.1587,259.9716 7158.7231,260.2705 L7158.7231,262.9931 Q7158.0923,262.4121 7157.4988,262.1423 Q7156.9053,261.8725 7156.2744,261.8725 Q7154.9297,261.8725 7154.2449,262.9392 Q7153.5601,264.0058 7153.5601,266.1059 Q7153.5601,268.1977 7154.2449,269.2644 Q7154.9297,270.331 7156.2744,270.331 Q7156.9053,270.331 7157.4988,270.0612 Q7158.0923,269.7915 7158.7231,269.2104 Z " fill="#000000"/><text fill="#000000" font-family="sans-serif" font-size="14" lengthAdjust="spacing" textLength="161" x="7176.75" y="271.081">referanseTilJournalpost</text><line style="stroke:#181818;stroke-width:0.5;" x1="7056" x2="7426" y1="281.79" y2="281.79"/><ellipse cx="7066" cy="295.5341" fill="none" rx="3" ry="3" style="stroke:#038048;stroke-width:1.0;"/><text fill="#000000" font-family="sans-serif" font-size="14" lengthAdjust="spacing" textLength="134" x="7075" y="299.3252">systemID : systemID</text><ellipse cx="7066" cy="312.0224" fill="none" rx="3" ry="3" style="stroke:#038048;stroke-width:1.0;"/><text fill="#000000" font-family="sans-serif" font-size="14" lengthAdjust="spacing" textLength="154" x="7075" y="315.8134">registreringsID : string</text><ellipse cx="7066" cy="328.5107" fill="none" rx="3" ry="3" style="stroke:#038048;stroke-width:1.0;"/><text fill="#000000" font-family="sans-serif" font-size="14" lengthAdjust="spacing" textLength="226" x="7075" y="332.3017">journalnummer : journalnummer</text><ellipse cx="7066" cy="344.999" fill="none" rx="3" ry="3" style="stroke:#038048;stroke-width:1.0;"/><text fill="#000000" font-family="sans-serif" font-size="14" lengthAdjust="spacing" textLength="346" x="7075" y="348.79">saksJournalpostnummer : saksJournalpostnummer</text><ellipse cx="7066" cy="361.4873" fill="none" rx="3" ry="3" style="stroke:#038048;stroke-width:1.0;"/><text fill="#000000" font-family="sans-serif" font-size="14" lengthAdjust="spacing" textLength="289" x="7075" y="365.2783">referanseEksternNoekkel : eksternNoekkel</text><line style="stroke:#181818;stroke-width:0.5;" x1="7056" x2="7426" y1="372.2314" y2="372.2314"/></g><!--class referanseTilKlassifikasjon--><g id="elem_referanseTilKlassifikasjon"><rect codeLine="102" fill="#F1F1F1" height="80.9766" id="referanseTilKlassifikasjon" rx="2.5" ry="2.5" style="stroke:#181818;stroke-width:0.5;" width="238" x="7462" y="274.52"/><ellipse cx="7490.95" cy="290.52" fill="#ADD1B2" rx="11" ry="11" style="stroke:#181818;stroke-width:1.0;"/><path d="M7493.4231,296.6631 Q7492.8421,296.9619 7492.2029,297.1113 Q7491.5638,297.2607 7490.8582,297.2607 Q7488.3514,297.2607 7487.0315,295.6089 Q7485.7117,293.957 7485.7117,290.8359 Q7485.7117,287.7065 7487.0315,286.0547 Q7488.3514,284.4028 7490.8582,284.4028 Q7491.5638,284.4028 7492.2112,284.5522 Q7492.8587,284.7016 7493.4231,285.0005 L7493.4231,287.7231 Q7492.7923,287.1421 7492.1988,286.8723 Q7491.6053,286.6025 7490.9744,286.6025 Q7489.6297,286.6025 7488.9449,287.6692 Q7488.2601,288.7358 7488.2601,290.8359 Q7488.2601,292.9277 7488.9449,293.9944 Q7489.6297,295.061 7490.9744,295.061 Q7491.6053,295.061 7492.1988,294.7912 Q7492.7923,294.5215 7493.4231,293.9404 Z " fill="#000000"/><text fill="#000000" font-family="sans-serif" font-size="14" lengthAdjust="spacing" textLength="175" x="7508.05" y="295.811">referanseTilKlassifikasjon</text><line style="stroke:#181818;stroke-width:0.5;" x1="7463" x2="7699" y1="306.52" y2="306.52"/><ellipse cx="7473" cy="320.2641" fill="none" rx="3" ry="3" style="stroke:#038048;stroke-width:1.0;"/><text fill="#000000" font-family="sans-serif" font-size="14" lengthAdjust="spacing" textLength="212" x="7482" y="324.0552">klassifikasjonssystemID : string</text><ellipse cx="7473" cy="336.7524" fill="none" rx="3" ry="3" style="stroke:#038048;stroke-width:1.0;"/><text fill="#000000" font-family="sans-serif" font-size="14" lengthAdjust="spacing" textLength="108" x="7482" y="340.5434">klasseID : string</text><line style="stroke:#181818;stroke-width:0.5;" x1="7463" x2="7699" y1="347.4966" y2="347.4966"/></g><!--class referanseTilMappe--><g id="elem_referanseTilMappe"><rect codeLine="106" fill="#F1F1F1" height="113.9531" id="referanseTilMappe" rx="2.5" ry="2.5" style="stroke:#181818;stroke-width:0.5;" width="315" x="7735.5" y="258.03"/><ellipse cx="7824.75" cy="274.03" fill="#ADD1B2" rx="11" ry="11" style="stroke:#181818;stroke-width:1.0;"/><path d="M7827.2231,280.1731 Q7826.6421,280.4719 7826.0029,280.6213 Q7825.3638,280.7707 7824.6582,280.7707 Q7822.1514,280.7707 7820.8315,279.1189 Q7819.5117,277.467 7819.5117,274.3459 Q7819.5117,271.2165 7820.8315,269.5647 Q7822.1514,267.9128 7824.6582,267.9128 Q7825.3638,267.9128 7826.0112,268.0622 Q7826.6587,268.2116 7827.2231,268.5105 L7827.2231,271.2331 Q7826.5923,270.6521 7825.9988,270.3823 Q7825.4053,270.1125 7824.7744,270.1125 Q7823.4297,270.1125 7822.7449,271.1792 Q7822.0601,272.2458 7822.0601,274.3459 Q7822.0601,276.4377 7822.7449,277.5044 Q7823.4297,278.571 7824.7744,278.571 Q7825.4053,278.571 7825.9988,278.3012 Q7826.5923,278.0315 7827.2231,277.4504 Z " fill="#000000"/><text fill="#000000" font-family="sans-serif" font-size="14" lengthAdjust="spacing" textLength="128" x="7845.25" y="279.321">referanseTilMappe</text><line style="stroke:#181818;stroke-width:0.5;" x1="7736.5" x2="8049.5" y1="290.03" y2="290.03"/><ellipse cx="7746.5" cy="303.7741" fill="none" rx="3" ry="3" style="stroke:#038048;stroke-width:1.0;"/><text fill="#000000" font-family="sans-serif" font-size="14" lengthAdjust="spacing" textLength="134" x="7755.5" y="307.5652">systemID : systemID</text><ellipse cx="7746.5" cy="320.2624" fill="none" rx="3" ry="3" style="stroke:#038048;stroke-width:1.0;"/><text fill="#000000" font-family="sans-serif" font-size="14" lengthAdjust="spacing" textLength="113" x="7755.5" y="324.0534">mappeID : string</text><ellipse cx="7746.5" cy="336.7507" fill="none" rx="3" ry="3" style="stroke:#038048;stroke-width:1.0;"/><text fill="#000000" font-family="sans-serif" font-size="14" lengthAdjust="spacing" textLength="188" x="7755.5" y="340.5417">saksnummer : saksnummer</text><ellipse cx="7746.5" cy="353.239" fill="none" rx="3" ry="3" style="stroke:#038048;stroke-width:1.0;"/><text fill="#000000" font-family="sans-serif" font-size="14" lengthAdjust="spacing" textLength="289" x="7755.5" y="357.03">referanseEksternNoekkel : eksternNoekkel</text><line style="stroke:#181818;stroke-width:0.5;" x1="7736.5" x2="8049.5" y1="363.9831" y2="363.9831"/></g><!--class referanseTilRegistrering--><g id="elem_referanseTilRegistrering"><rect codeLine="112" fill="#F1F1F1" height="130.4414" id="referanseTilRegistrering" rx="2.5" ry="2.5" style="stroke:#181818;stroke-width:0.5;" width="372" x="7055" y="440.23"/><ellipse cx="7153.75" cy="456.23" fill="#ADD1B2" rx="11" ry="11" style="stroke:#181818;stroke-width:1.0;"/><path d="M7156.2231,462.3731 Q7155.6421,462.6719 7155.0029,462.8213 Q7154.3638,462.9707 7153.6582,462.9707 Q7151.1514,462.9707 7149.8315,461.3189 Q7148.5117,459.667 7148.5117,456.5459 Q7148.5117,453.4165 7149.8315,451.7647 Q7151.1514,450.1128 7153.6582,450.1128 Q7154.3638,450.1128 7155.0112,450.2622 Q7155.6587,450.4116 7156.2231,450.7105 L7156.2231,453.4331 Q7155.5923,452.8521 7154.9988,452.5823 Q7154.4053,452.3125 7153.7744,452.3125 Q7152.4297,452.3125 7151.7449,453.3792 Q7151.0601,454.4458 7151.0601,456.5459 Q7151.0601,458.6377 7151.7449,459.7044 Q7152.4297,460.771 7153.7744,460.771 Q7154.4053,460.771 7154.9988,460.5012 Q7155.5923,460.2315 7156.2231,459.6504 Z " fill="#000000"/><text fill="#000000" font-family="sans-serif" font-size="14" lengthAdjust="spacing" textLength="166" x="7174.25" y="461.521">referanseTilRegistrering</text><line style="stroke:#181818;stroke-width:0.5;" x1="7056" x2="7426" y1="472.23" y2="472.23"/><ellipse cx="7066" cy="485.9741" fill="none" rx="3" ry="3" style="stroke:#038048;stroke-width:1.0;"/><text fill="#000000" font-family="sans-serif" font-size="14" lengthAdjust="spacing" textLength="134" x="7075" y="489.7652">systemID : systemID</text><ellipse cx="7066" cy="502.4624" fill="none" rx="3" ry="3" style="stroke:#038048;stroke-width:1.0;"/><text fill="#000000" font-family="sans-serif" font-size="14" lengthAdjust="spacing" textLength="154" x="7075" y="506.2534">registreringsID : string</text><ellipse cx="7066" cy="518.9507" fill="none" rx="3" ry="3" style="stroke:#038048;stroke-width:1.0;"/><text fill="#000000" font-family="sans-serif" font-size="14" lengthAdjust="spacing" textLength="226" x="7075" y="522.7417">journalnummer : journalnummer</text><ellipse cx="7066" cy="535.439" fill="none" rx="3" ry="3" style="stroke:#038048;stroke-width:1.0;"/><text fill="#000000" font-family="sans-serif" font-size="14" lengthAdjust="spacing" textLength="346" x="7075" y="539.23">saksJournalpostnummer : saksJournalpostnummer</text><ellipse cx="7066" cy="551.9273" fill="none" rx="3" ry="3" style="stroke:#038048;stroke-width:1.0;"/><text fill="#000000" font-family="sans-serif" font-size="14" lengthAdjust="spacing" textLength="289" x="7075" y="555.7183">referanseEksternNoekkel : eksternNoekkel</text><line style="stroke:#181818;stroke-width:0.5;" x1="7056" x2="7426" y1="562.6714" y2="562.6714"/></g><!--class saksJournalpostnummer--><g id="elem_saksJournalpostnummer"><rect codeLine="119" fill="#F1F1F1" height="64.4883" id="saksJournalpostnummer" rx="2.5" ry="2.5" style="stroke:#181818;stroke-width:0.5;" width="199" x="6699.5" y="100.57"/><ellipse cx="6714.5" cy="116.57" fill="#ADD1B2" rx="11" ry="11" style="stroke:#181818;stroke-width:1.0;"/><path d="M6716.9731,122.7131 Q6716.3921,123.0119 6715.7529,123.1613 Q6715.1138,123.3107 6714.4082,123.3107 Q6711.9014,123.3107 6710.5815,121.6589 Q6709.2617,120.007 6709.2617,116.8859 Q6709.2617,113.7565 6710.5815,112.1047 Q6711.9014,110.4528 6714.4082,110.4528 Q6715.1138,110.4528 6715.7612,110.6022 Q6716.4087,110.7516 6716.9731,111.0505 L6716.9731,113.7731 Q6716.3423,113.1921 6715.7488,112.9223 Q6715.1553,112.6525 6714.5244,112.6525 Q6713.1797,112.6525 6712.4949,113.7192 Q6711.8101,114.7858 6711.8101,116.8859 Q6711.8101,118.9777 6712.4949,120.0444 Q6713.1797,121.111 6714.5244,121.111 Q6715.1553,121.111 6715.7488,120.8412 Q6716.3423,120.5715 6716.9731,119.9904 Z " fill="#000000"/><text fill="#000000" font-family="sans-serif" font-size="14" lengthAdjust="spacing" textLength="167" x="6728.5" y="121.861">saksJournalpostnummer</text><line style="stroke:#181818;stroke-width:0.5;" x1="6700.5" x2="6897.5" y1="132.57" y2="132.57"/><ellipse cx="6710.5" cy="146.3141" fill="none" rx="3" ry="3" style="stroke:#038048;stroke-width:1.0;"/><text fill="#000000" font-family="sans-serif" font-size="14" lengthAdjust="spacing" textLength="167" x="6719.5" y="150.1052">journalpostnummer : int</text><line style="stroke:#181818;stroke-width:0.5;" x1="6700.5" x2="6897.5" y1="157.0583" y2="157.0583"/></g><!--class saksnummer--><g id="elem_saksnummer"><rect codeLine="129" fill="#F1F1F1" height="80.9766" id="saksnummer" rx="2.5" ry="2.5" style="stroke:#181818;stroke-width:0.5;" width="198" x="6934" y="92.32"/><ellipse cx="6984.75" cy="108.32" fill="#ADD1B2" rx="11" ry="11" style="stroke:#181818;stroke-width:1.0;"/><path d="M6987.2231,114.4631 Q6986.6421,114.7619 6986.0029,114.9113 Q6985.3638,115.0607 6984.6582,115.0607 Q6982.1514,115.0607 6980.8315,113.4089 Q6979.5117,111.757 6979.5117,108.6359 Q6979.5117,105.5065 6980.8315,103.8547 Q6982.1514,102.2028 6984.6582,102.2028 Q6985.3638,102.2028 6986.0112,102.3522 Q6986.6587,102.5016 6987.2231,102.8005 L6987.2231,105.5231 Q6986.5923,104.9421 6985.9988,104.6723 Q6985.4053,104.4025 6984.7744,104.4025 Q6983.4297,104.4025 6982.7449,105.4692 Q6982.0601,106.5358 6982.0601,108.6359 Q6982.0601,110.7277 6982.7449,111.7944 Q6983.4297,112.861 6984.7744,112.861 Q6985.4053,112.861 6985.9988,112.5912 Q6986.5923,112.3215 6987.2231,111.7404 Z " fill="#000000"/><text fill="#000000" font-family="sans-serif" font-size="14" lengthAdjust="spacing" textLength="88" x="7005.25" y="113.611">saksnummer</text><line style="stroke:#181818;stroke-width:0.5;" x1="6935" x2="7131" y1="124.32" y2="124.32"/><ellipse cx="6945" cy="138.0641" fill="none" rx="3" ry="3" style="stroke:#038048;stroke-width:1.0;"/><text fill="#000000" font-family="sans-serif" font-size="14" lengthAdjust="spacing" textLength="82" x="6954" y="141.8552">saksaar : int</text><ellipse cx="6945" cy="154.5524" fill="none" rx="3" ry="3" style="stroke:#038048;stroke-width:1.0;"/><text fill="#000000" font-family="sans-serif" font-size="14" lengthAdjust="spacing" textLength="172" x="6954" y="158.3434">sakssekvensnummer : int</text><line style="stroke:#181818;stroke-width:0.5;" x1="6935" x2="7131" y1="165.2966" y2="165.2966"/></g><!--class saksansvarlig--><g id="elem_saksansvarlig"><rect codeLine="123" fill="#F1F1F1" height="48" id="saksansvarlig" rx="2.5" ry="2.5" style="stroke:#181818;stroke-width:0.5;" width="124" x="202" y="108.81"/><ellipse cx="217" cy="124.81" fill="#ADD1B2" rx="11" ry="11" style="stroke:#181818;stroke-width:1.0;"/><path d="M219.4731,130.9531 Q218.8921,131.2519 218.2529,131.4013 Q217.6138,131.5507 216.9082,131.5507 Q214.4014,131.5507 213.0815,129.8989 Q211.7617,128.247 211.7617,125.1259 Q211.7617,121.9965 213.0815,120.3447 Q214.4014,118.6928 216.9082,118.6928 Q217.6138,118.6928 218.2612,118.8422 Q218.9087,118.9916 219.4731,119.2905 L219.4731,122.0131 Q218.8423,121.4321 218.2488,121.1623 Q217.6553,120.8925 217.0244,120.8925 Q215.6797,120.8925 214.9949,121.9592 Q214.3101,123.0258 214.3101,125.1259 Q214.3101,127.2177 214.9949,128.2844 Q215.6797,129.351 217.0244,129.351 Q217.6553,129.351 218.2488,129.0812 Q218.8423,128.8115 219.4731,128.2304 Z " fill="#000000"/><text fill="#000000" font-family="sans-serif" font-size="14" lengthAdjust="spacing" textLength="92" x="231" y="130.101">saksansvarlig</text><line style="stroke:#181818;stroke-width:0.5;" x1="203" x2="325" y1="140.81" y2="140.81"/><line style="stroke:#181818;stroke-width:0.5;" x1="203" x2="325" y1="148.81" y2="148.81"/></g><!--class saksbehandler--><g id="elem_saksbehandler"><rect codeLine="126" fill="#F1F1F1" height="48" id="saksbehandler" rx="2.5" ry="2.5" style="stroke:#181818;stroke-width:0.5;" width="132" x="361" y="108.81"/><ellipse cx="376" cy="124.81" fill="#ADD1B2" rx="11" ry="11" style="stroke:#181818;stroke-width:1.0;"/><path d="M378.4731,130.9531 Q377.8921,131.2519 377.2529,131.4013 Q376.6138,131.5507 375.9082,131.5507 Q373.4014,131.5507 372.0815,129.8989 Q370.7617,128.247 370.7617,125.1259 Q370.7617,121.9965 372.0815,120.3447 Q373.4014,118.6928 375.9082,118.6928 Q376.6138,118.6928 377.2612,118.8422 Q377.9087,118.9916 378.4731,119.2905 L378.4731,122.0131 Q377.8423,121.4321 377.2488,121.1623 Q376.6553,120.8925 376.0244,120.8925 Q374.6797,120.8925 373.9949,121.9592 Q373.3101,123.0258 373.3101,125.1259 Q373.3101,127.2177 373.9949,128.2844 Q374.6797,129.351 376.0244,129.351 Q376.6553,129.351 377.2488,129.0812 Q377.8423,128.8115 378.4731,128.2304 Z " fill="#000000"/><text fill="#000000" font-family="sans-serif" font-size="14" lengthAdjust="spacing" textLength="100" x="390" y="130.101">saksbehandler</text><line style="stroke:#181818;stroke-width:0.5;" x1="362" x2="492" y1="140.81" y2="140.81"/><line style="stroke:#181818;stroke-width:0.5;" x1="362" x2="492" y1="148.81" y2="148.81"/></g><!--class saksstatus--><g id="elem_saksstatus"><rect codeLine="133" fill="#F1F1F1" height="48" id="saksstatus" rx="2.5" ry="2.5" style="stroke:#181818;stroke-width:0.5;" width="103" x="4961.5" y="108.81"/><ellipse cx="4976.5" cy="124.81" fill="#ADD1B2" rx="11" ry="11" style="stroke:#181818;stroke-width:1.0;"/><path d="M4978.9731,130.9531 Q4978.3921,131.2519 4977.7529,131.4013 Q4977.1138,131.5507 4976.4082,131.5507 Q4973.9014,131.5507 4972.5815,129.8989 Q4971.2617,128.247 4971.2617,125.1259 Q4971.2617,121.9965 4972.5815,120.3447 Q4973.9014,118.6928 4976.4082,118.6928 Q4977.1138,118.6928 4977.7612,118.8422 Q4978.4087,118.9916 4978.9731,119.2905 L4978.9731,122.0131 Q4978.3423,121.4321 4977.7488,121.1623 Q4977.1553,120.8925 4976.5244,120.8925 Q4975.1797,120.8925 4974.4949,121.9592 Q4973.8101,123.0258 4973.8101,125.1259 Q4973.8101,127.2177 4974.4949,128.2844 Q4975.1797,129.351 4976.5244,129.351 Q4977.1553,129.351 4977.7488,129.0812 Q4978.3423,128.8115 4978.9731,128.2304 Z " fill="#000000"/><text fill="#000000" font-family="sans-serif" font-size="14" lengthAdjust="spacing" textLength="71" x="4990.5" y="130.101">saksstatus</text><line style="stroke:#181818;stroke-width:0.5;" x1="4962.5" x2="5063.5" y1="140.81" y2="140.81"/><line style="stroke:#181818;stroke-width:0.5;" x1="4962.5" x2="5063.5" y1="148.81" y2="148.81"/></g><!--class skjermingDokument--><g id="elem_skjermingDokument"><rect codeLine="136" fill="#F1F1F1" height="48" id="skjermingDokument" rx="2.5" ry="2.5" style="stroke:#181818;stroke-width:0.5;" width="171" x="5099.5" y="108.81"/><ellipse cx="5114.5" cy="124.81" fill="#ADD1B2" rx="11" ry="11" style="stroke:#181818;stroke-width:1.0;"/><path d="M5116.9731,130.9531 Q5116.3921,131.2519 5115.7529,131.4013 Q5115.1138,131.5507 5114.4082,131.5507 Q5111.9014,131.5507 5110.5815,129.8989 Q5109.2617,128.247 5109.2617,125.1259 Q5109.2617,121.9965 5110.5815,120.3447 Q5111.9014,118.6928 5114.4082,118.6928 Q5115.1138,118.6928 5115.7612,118.8422 Q5116.4087,118.9916 5116.9731,119.2905 L5116.9731,122.0131 Q5116.3423,121.4321 5115.7488,121.1623 Q5115.1553,120.8925 5114.5244,120.8925 Q5113.1797,120.8925 5112.4949,121.9592 Q5111.8101,123.0258 5111.8101,125.1259 Q5111.8101,127.2177 5112.4949,128.2844 Q5113.1797,129.351 5114.5244,129.351 Q5115.1553,129.351 5115.7488,129.0812 Q5116.3423,128.8115 5116.9731,128.2304 Z " fill="#000000"/><text fill="#000000" font-family="sans-serif" font-size="14" lengthAdjust="spacing" textLength="139" x="5128.5" y="130.101">skjermingDokument</text><line style="stroke:#181818;stroke-width:0.5;" x1="5100.5" x2="5269.5" y1="140.81" y2="140.81"/><line style="stroke:#181818;stroke-width:0.5;" x1="5100.5" x2="5269.5" y1="148.81" y2="148.81"/></g><!--class skjermingMetadata--><g id="elem_skjermingMetadata"><rect codeLine="139" fill="#F1F1F1" height="48" id="skjermingMetadata" rx="2.5" ry="2.5" style="stroke:#181818;stroke-width:0.5;" width="163" x="5305.5" y="108.81"/><ellipse cx="5320.5" cy="124.81" fill="#ADD1B2" rx="11" ry="11" style="stroke:#181818;stroke-width:1.0;"/><path d="M5322.9731,130.9531 Q5322.3921,131.2519 5321.7529,131.4013 Q5321.1138,131.5507 5320.4082,131.5507 Q5317.9014,131.5507 5316.5815,129.8989 Q5315.2617,128.247 5315.2617,125.1259 Q5315.2617,121.9965 5316.5815,120.3447 Q5317.9014,118.6928 5320.4082,118.6928 Q5321.1138,118.6928 5321.7612,118.8422 Q5322.4087,118.9916 5322.9731,119.2905 L5322.9731,122.0131 Q5322.3423,121.4321 5321.7488,121.1623 Q5321.1553,120.8925 5320.5244,120.8925 Q5319.1797,120.8925 5318.4949,121.9592 Q5317.8101,123.0258 5317.8101,125.1259 Q5317.8101,127.2177 5318.4949,128.2844 Q5319.1797,129.351 5320.5244,129.351 Q5321.1553,129.351 5321.7488,129.0812 Q5322.3423,128.8115 5322.9731,128.2304 Z " fill="#000000"/><text fill="#000000" font-family="sans-serif" font-size="14" lengthAdjust="spacing" textLength="131" x="5334.5" y="130.101">skjermingMetadata</text><line style="stroke:#181818;stroke-width:0.5;" x1="5306.5" x2="5467.5" y1="140.81" y2="140.81"/><line style="stroke:#181818;stroke-width:0.5;" x1="5306.5" x2="5467.5" y1="148.81" y2="148.81"/></g><!--class skjermingOpphoererAksjon--><g id="elem_skjermingOpphoererAksjon"><rect codeLine="142" fill="#F1F1F1" height="48" id="skjermingOpphoererAksjon" rx="2.5" ry="2.5" style="stroke:#181818;stroke-width:0.5;" width="222" x="5503" y="108.81"/><ellipse cx="5518" cy="124.81" fill="#ADD1B2" rx="11" ry="11" style="stroke:#181818;stroke-width:1.0;"/><path d="M5520.4731,130.9531 Q5519.8921,131.2519 5519.2529,131.4013 Q5518.6138,131.5507 5517.9082,131.5507 Q5515.4014,131.5507 5514.0815,129.8989 Q5512.7617,128.247 5512.7617,125.1259 Q5512.7617,121.9965 5514.0815,120.3447 Q5515.4014,118.6928 5517.9082,118.6928 Q5518.6138,118.6928 5519.2612,118.8422 Q5519.9087,118.9916 5520.4731,119.2905 L5520.4731,122.0131 Q5519.8423,121.4321 5519.2488,121.1623 Q5518.6553,120.8925 5518.0244,120.8925 Q5516.6797,120.8925 5515.9949,121.9592 Q5515.3101,123.0258 5515.3101,125.1259 Q5515.3101,127.2177 5515.9949,128.2844 Q5516.6797,129.351 5518.0244,129.351 Q5518.6553,129.351 5519.2488,129.0812 Q5519.8423,128.8115 5520.4731,128.2304 Z " fill="#000000"/><text fill="#000000" font-family="sans-serif" font-size="14" lengthAdjust="spacing" textLength="190" x="5532" y="130.101">skjermingOpphoererAksjon</text><line style="stroke:#181818;stroke-width:0.5;" x1="5504" x2="5724" y1="140.81" y2="140.81"/><line style="stroke:#181818;stroke-width:0.5;" x1="5504" x2="5724" y1="148.81" y2="148.81"/></g><!--class slettingstype--><g id="elem_slettingstype"><rect codeLine="145" fill="#F1F1F1" height="48" id="slettingstype" rx="2.5" ry="2.5" style="stroke:#181818;stroke-width:0.5;" width="119" x="5759.5" y="108.81"/><ellipse cx="5774.5" cy="124.81" fill="#ADD1B2" rx="11" ry="11" style="stroke:#181818;stroke-width:1.0;"/><path d="M5776.9731,130.9531 Q5776.3921,131.2519 5775.7529,131.4013 Q5775.1138,131.5507 5774.4082,131.5507 Q5771.9014,131.5507 5770.5815,129.8989 Q5769.2617,128.247 5769.2617,125.1259 Q5769.2617,121.9965 5770.5815,120.3447 Q5771.9014,118.6928 5774.4082,118.6928 Q5775.1138,118.6928 5775.7612,118.8422 Q5776.4087,118.9916 5776.9731,119.2905 L5776.9731,122.0131 Q5776.3423,121.4321 5775.7488,121.1623 Q5775.1553,120.8925 5774.5244,120.8925 Q5773.1797,120.8925 5772.4949,121.9592 Q5771.8101,123.0258 5771.8101,125.1259 Q5771.8101,127.2177 5772.4949,128.2844 Q5773.1797,129.351 5774.5244,129.351 Q5775.1553,129.351 5775.7488,129.0812 Q5776.3423,128.8115 5776.9731,128.2304 Z " fill="#000000"/><text fill="#000000" font-family="sans-serif" font-size="14" lengthAdjust="spacing" textLength="87" x="5788.5" y="130.101">slettingstype</text><line style="stroke:#181818;stroke-width:0.5;" x1="5760.5" x2="5877.5" y1="140.81" y2="140.81"/><line style="stroke:#181818;stroke-width:0.5;" x1="5760.5" x2="5877.5" y1="148.81" y2="148.81"/></g><!--class systemID--><g id="elem_systemID"><rect codeLine="148" fill="#F1F1F1" height="80.9766" id="systemID" rx="2.5" ry="2.5" style="stroke:#181818;stroke-width:0.5;" width="114" x="7462" y="464.96"/><ellipse cx="7486.45" cy="480.96" fill="#ADD1B2" rx="11" ry="11" style="stroke:#181818;stroke-width:1.0;"/><path d="M7488.9231,487.1031 Q7488.3421,487.4019 7487.7029,487.5513 Q7487.0638,487.7007 7486.3582,487.7007 Q7483.8514,487.7007 7482.5315,486.0489 Q7481.2117,484.397 7481.2117,481.2759 Q7481.2117,478.1465 7482.5315,476.4947 Q7483.8514,474.8428 7486.3582,474.8428 Q7487.0638,474.8428 7487.7112,474.9922 Q7488.3587,475.1416 7488.9231,475.4405 L7488.9231,478.1631 Q7488.2923,477.5821 7487.6988,477.3123 Q7487.1053,477.0425 7486.4744,477.0425 Q7485.1297,477.0425 7484.4449,478.1092 Q7483.7601,479.1758 7483.7601,481.2759 Q7483.7601,483.3677 7484.4449,484.4344 Q7485.1297,485.501 7486.4744,485.501 Q7487.1053,485.501 7487.6988,485.2312 Q7488.2923,484.9615 7488.9231,484.3804 Z " fill="#000000"/><text fill="#000000" font-family="sans-serif" font-size="14" lengthAdjust="spacing" textLength="61" x="7502.55" y="486.251">systemID</text><line style="stroke:#181818;stroke-width:0.5;" x1="7463" x2="7575" y1="496.96" y2="496.96"/><ellipse cx="7473" cy="510.7041" fill="none" rx="3" ry="3" style="stroke:#038048;stroke-width:1.0;"/><text fill="#000000" font-family="sans-serif" font-size="14" lengthAdjust="spacing" textLength="88" x="7482" y="514.4952">value : string</text><ellipse cx="7473" cy="527.1924" fill="none" rx="3" ry="3" style="stroke:#038048;stroke-width:1.0;"/><text fill="#000000" font-family="sans-serif" font-size="14" lengthAdjust="spacing" textLength="85" x="7482" y="530.9834">label : string</text><line style="stroke:#181818;stroke-width:0.5;" x1="7463" x2="7575" y1="537.9366" y2="537.9366"/></g><!--class tilgangsrestriksjon--><g id="elem_tilgangsrestriksjon"><rect codeLine="152" fill="#F1F1F1" height="48" id="tilgangsrestriksjon" rx="2.5" ry="2.5" style="stroke:#181818;stroke-width:0.5;" width="160" x="5914" y="108.81"/><ellipse cx="5929" cy="124.81" fill="#ADD1B2" rx="11" ry="11" style="stroke:#181818;stroke-width:1.0;"/><path d="M5931.4731,130.9531 Q5930.8921,131.2519 5930.2529,131.4013 Q5929.6138,131.5507 5928.9082,131.5507 Q5926.4014,131.5507 5925.0815,129.8989 Q5923.7617,128.247 5923.7617,125.1259 Q5923.7617,121.9965 5925.0815,120.3447 Q5926.4014,118.6928 5928.9082,118.6928 Q5929.6138,118.6928 5930.2612,118.8422 Q5930.9087,118.9916 5931.4731,119.2905 L5931.4731,122.0131 Q5930.8423,121.4321 5930.2488,121.1623 Q5929.6553,120.8925 5929.0244,120.8925 Q5927.6797,120.8925 5926.9949,121.9592 Q5926.3101,123.0258 5926.3101,125.1259 Q5926.3101,127.2177 5926.9949,128.2844 Q5927.6797,129.351 5929.0244,129.351 Q5929.6553,129.351 5930.2488,129.0812 Q5930.8423,128.8115 5931.4731,128.2304 Z " fill="#000000"/><text fill="#000000" font-family="sans-serif" font-size="14" lengthAdjust="spacing" textLength="128" x="5943" y="130.101">tilgangsrestriksjon</text><line style="stroke:#181818;stroke-width:0.5;" x1="5915" x2="6073" y1="140.81" y2="140.81"/><line style="stroke:#181818;stroke-width:0.5;" x1="5915" x2="6073" y1="148.81" y2="148.81"/></g><!--class tilknyttetRegistreringSom--><g id="elem_tilknyttetRegistreringSom"><rect codeLine="155" fill="#F1F1F1" height="48" id="tilknyttetRegistreringSom" rx="2.5" ry="2.5" style="stroke:#181818;stroke-width:0.5;" width="206" x="6109" y="108.81"/><ellipse cx="6124" cy="124.81" fill="#ADD1B2" rx="11" ry="11" style="stroke:#181818;stroke-width:1.0;"/><path d="M6126.4731,130.9531 Q6125.8921,131.2519 6125.2529,131.4013 Q6124.6138,131.5507 6123.9082,131.5507 Q6121.4014,131.5507 6120.0815,129.8989 Q6118.7617,128.247 6118.7617,125.1259 Q6118.7617,121.9965 6120.0815,120.3447 Q6121.4014,118.6928 6123.9082,118.6928 Q6124.6138,118.6928 6125.2612,118.8422 Q6125.9087,118.9916 6126.4731,119.2905 L6126.4731,122.0131 Q6125.8423,121.4321 6125.2488,121.1623 Q6124.6553,120.8925 6124.0244,120.8925 Q6122.6797,120.8925 6121.9949,121.9592 Q6121.3101,123.0258 6121.3101,125.1259 Q6121.3101,127.2177 6121.9949,128.2844 Q6122.6797,129.351 6124.0244,129.351 Q6124.6553,129.351 6125.2488,129.0812 Q6125.8423,128.8115 6126.4731,128.2304 Z " fill="#000000"/><text fill="#000000" font-family="sans-serif" font-size="14" lengthAdjust="spacing" textLength="174" x="6138" y="130.101">tilknyttetRegistreringSom</text><line style="stroke:#181818;stroke-width:0.5;" x1="6110" x2="6314" y1="140.81" y2="140.81"/><line style="stroke:#181818;stroke-width:0.5;" x1="6110" x2="6314" y1="148.81" y2="148.81"/></g><!--class variantformat--><g id="elem_variantformat"><rect codeLine="158" fill="#F1F1F1" height="48" id="variantformat" rx="2.5" ry="2.5" style="stroke:#181818;stroke-width:0.5;" width="125" x="6349.5" y="108.81"/><ellipse cx="6364.5" cy="124.81" fill="#ADD1B2" rx="11" ry="11" style="stroke:#181818;stroke-width:1.0;"/><path d="M6366.9731,130.9531 Q6366.3921,131.2519 6365.7529,131.4013 Q6365.1138,131.5507 6364.4082,131.5507 Q6361.9014,131.5507 6360.5815,129.8989 Q6359.2617,128.247 6359.2617,125.1259 Q6359.2617,121.9965 6360.5815,120.3447 Q6361.9014,118.6928 6364.4082,118.6928 Q6365.1138,118.6928 6365.7612,118.8422 Q6366.4087,118.9916 6366.9731,119.2905 L6366.9731,122.0131 Q6366.3423,121.4321 6365.7488,121.1623 Q6365.1553,120.8925 6364.5244,120.8925 Q6363.1797,120.8925 6362.4949,121.9592 Q6361.8101,123.0258 6361.8101,125.1259 Q6361.8101,127.2177 6362.4949,128.2844 Q6363.1797,129.351 6364.5244,129.351 Q6365.1553,129.351 6365.7488,129.0812 Q6366.3423,128.8115 6366.9731,128.2304 Z " fill="#000000"/><text fill="#000000" font-family="sans-serif" font-size="14" lengthAdjust="spacing" textLength="93" x="6378.5" y="130.101">variantformat</text><line style="stroke:#181818;stroke-width:0.5;" x1="6350.5" x2="6473.5" y1="140.81" y2="140.81"/><line style="stroke:#181818;stroke-width:0.5;" x1="6350.5" x2="6473.5" y1="148.81" y2="148.81"/></g><!--reverse link administrativEnhet to identifikatorer--><g id="link_administrativEnhet_identifikatorer"><path codeLine="4" d="M119.64,99.02 C141.08,79.35 170.93,56.39 202.5,45.83 C263.62,25.4 431.22,25.89 492.5,45.83 C512.26,52.27 531.49,63.33 548.53,75.46 " fill="none" id="administrativEnhet-backto-identifikatorer" style="stroke:#181818;stroke-width:1.0;"/><polygon fill="#181818" points="110.52,107.64,117.6241,106.4021,119.2137,99.3684,112.1097,100.6063,110.52,107.64" style="stroke:#181818;stroke-width:1.0;"/></g><!--reverse link arkivdelstatus to kode--><g id="link_arkivdelstatus_kode"><path codeLine="7" d="M822.96,97.94 C840.82,78.57 865.77,56.32 893.5,45.83 C966,18.41 6401.15,20.78 6474.5,45.83 C6501.83,55.17 6527.68,74.14 6547.69,91.99 " fill="none" id="arkivdelstatus-backto-kode" style="stroke:#181818;stroke-width:1.0;"/><polygon fill="#181818" points="814.8,107.31,821.7694,105.4588,822.7412,98.3135,815.7718,100.1647,814.8,107.31" style="stroke:#181818;stroke-width:1.0;"/></g><!--reverse link arkivstatus to kode--><g id="link_arkivstatus_kode"><path codeLine="10" d="M970.47,97.49 C986.03,78.28 1008.01,56.35 1033.5,45.83 C1103.36,17.02 6402.99,21.41 6474.5,45.83 C6501.83,55.17 6527.68,74.14 6547.69,91.99 " fill="none" id="arkivstatus-backto-kode" style="stroke:#181818;stroke-width:1.0;"/><polygon fill="#181818" points="962.08,107.38,968.9095,105.0654,969.3997,97.871,962.5702,100.1856,962.08,107.38" style="stroke:#181818;stroke-width:1.0;"/></g><!--reverse link avskrivningsmaate to kode--><g id="link_avskrivningsmaate_kode"><path codeLine="13" d="M1145.3,99.03 C1166.54,79.35 1196.13,56.4 1227.5,45.83 C1296.56,22.58 6405.54,22.28 6474.5,45.83 C6501.83,55.17 6527.68,74.14 6547.69,91.99 " fill="none" id="avskrivningsmaate-backto-kode" style="stroke:#181818;stroke-width:1.0;"/><polygon fill="#181818" points="1136.28,107.64,1143.3782,106.369,1144.9351,99.328,1137.8369,100.599,1136.28,107.64" style="stroke:#181818;stroke-width:1.0;"/></g><!--reverse link dokumentmedium to kode--><g id="link_dokumentmedium_kode"><path codeLine="16" d="M1337.96,99.03 C1359,79.36 1388.33,56.41 1419.5,45.83 C1485.99,23.29 6408.06,23.15 6474.5,45.83 C6501.83,55.17 6527.68,74.14 6547.69,91.99 " fill="none" id="dokumentmedium-backto-kode" style="stroke:#181818;stroke-width:1.0;"/><polygon fill="#181818" points="1329.04,107.65,1336.1332,106.3513,1337.6626,99.3043,1330.5694,100.6029,1329.04,107.65" style="stroke:#181818;stroke-width:1.0;"/></g><!--reverse link dokumentstatus to kode--><g id="link_dokumentstatus_kode"><path codeLine="19" d="M1520.87,98.8 C1540.43,79.21 1567.82,56.41 1597.5,45.83 C1661.3,23.09 6410.4,23.94 6474.5,45.83 C6501.83,55.17 6527.68,74.14 6547.69,91.99 " fill="none" id="dokumentstatus-backto-kode" style="stroke:#181818;stroke-width:1.0;"/><polygon fill="#181818" points="1512.38,107.68,1519.4223,106.1287,1520.6989,99.0315,1513.6566,100.5828,1512.38,107.68" style="stroke:#181818;stroke-width:1.0;"/></g><!--reverse link dokumenttype to kode--><g id="link_dokumenttype_kode"><path codeLine="22" d="M1691.06,98.57 C1709.37,79.05 1735.09,56.42 1763.5,45.83 C1824.81,22.99 6412.58,24.69 6474.5,45.83 C6501.83,55.17 6527.68,74.14 6547.69,91.99 " fill="none" id="dokumenttype-backto-kode" style="stroke:#181818;stroke-width:1.0;"/><polygon fill="#181818" points="1682.94,107.71,1689.9265,105.9244,1690.9654,98.7885,1683.9789,100.5741,1682.94,107.71" style="stroke:#181818;stroke-width:1.0;"/></g><!--reverse link elektroniskSignaturSikkerhetsnivaa to kode--><g id="link_elektroniskSignaturSikkerhetsnivaa_kode"><path codeLine="29" d="M1947.13,101.26 C1980.33,81 2026.68,56.55 2071.5,45.83 C2190.45,17.39 6358.76,6.31 6474.5,45.83 C6501.83,55.17 6527.68,74.14 6547.69,91.99 " fill="none" id="elektroniskSignaturSikkerhetsnivaa-backto-kode" style="stroke:#181818;stroke-width:1.0;"/><polygon fill="#181818" points="1936.52,108.5,1943.7279,108.7154,1946.6989,102.1448,1939.4911,101.9294,1936.52,108.5" style="stroke:#181818;stroke-width:1.0;"/></g><!--reverse link elektroniskSignaturVerifisert to kode--><g id="link_elektroniskSignaturVerifisert_kode"><path codeLine="32" d="M2227.58,100.31 C2255.95,80.28 2295.34,56.46 2334.5,45.83 C2445.49,15.72 6365.67,8.67 6474.5,45.83 C6501.83,55.17 6527.68,74.14 6547.69,91.99 " fill="none" id="elektroniskSignaturVerifisert-backto-kode" style="stroke:#181818;stroke-width:1.0;"/><polygon fill="#181818" points="2217.51,108.33,2224.7156,108.0487,2227.2274,101.2892,2220.0217,101.5705,2217.51,108.33" style="stroke:#181818;stroke-width:1.0;"/></g><!--reverse link flytStatus to kode--><g id="link_flytStatus_kode"><path codeLine="35" d="M2404.85,97.27 C2419.36,78.14 2440,56.36 2464.5,45.83 C2515.67,23.84 6421.79,27.84 6474.5,45.83 C6501.83,55.17 6527.68,74.14 6547.69,91.99 " fill="none" id="flytStatus-backto-kode" style="stroke:#181818;stroke-width:1.0;"/><polygon fill="#181818" points="2396.83,107.42,2403.5795,104.8815,2403.8323,97.6748,2397.0827,100.2133,2396.83,107.42" style="stroke:#181818;stroke-width:1.0;"/></g><!--reverse link format to kode--><g id="link_format_kode"><path codeLine="38" d="M2522.85,96.83 C2535.48,77.87 2553.74,56.4 2576.5,45.83 C2625.61,23.04 6423.27,28.34 6474.5,45.83 C6501.83,55.17 6527.68,74.14 6547.69,91.99 " fill="none" id="format-backto-kode" style="stroke:#181818;stroke-width:1.0;"/><polygon fill="#181818" points="2515.55,107.5,2522.1234,104.5351,2521.9147,97.327,2515.3414,100.2919,2515.55,107.5" style="stroke:#181818;stroke-width:1.0;"/></g><!--reverse link grad to kode--><g id="link_grad_kode"><path codeLine="41" d="M2626.88,96.38 C2638.25,77.57 2654.92,56.4 2676.5,45.83 C2723.87,22.63 6424.58,28.79 6474.5,45.83 C6501.83,55.17 6527.68,74.14 6547.69,91.99 " fill="none" id="grad-backto-kode" style="stroke:#181818;stroke-width:1.0;"/><polygon fill="#181818" points="2620.02,107.56,2626.4494,104.2947,2625.9081,97.1039,2619.4787,100.3692,2620.02,107.56" style="stroke:#181818;stroke-width:1.0;"/></g><!--reverse link journalposttype to kode--><g id="link_journalposttype_kode"><path codeLine="54" d="M2775.52,98.81 C2794.89,79.21 2822.01,56.42 2851.5,45.83 C2946.22,11.82 6379.26,13.31 6474.5,45.83 C6501.83,55.17 6527.68,74.14 6547.69,91.99 " fill="none" id="journalposttype-backto-kode" style="stroke:#181818;stroke-width:1.0;"/><polygon fill="#181818" points="2767.14,107.68,2774.1737,106.0903,2775.4116,98.9863,2768.3779,100.5759,2767.14,107.68" style="stroke:#181818;stroke-width:1.0;"/></g><!--reverse link journalstatus to kode--><g id="link_journalstatus_kode"><path codeLine="57" d="M2939.14,97.69 C2956.36,78.4 2980.45,56.31 3007.5,45.83 C3097.31,11.07 6383.36,14.71 6474.5,45.83 C6501.83,55.17 6527.68,74.14 6547.69,91.99 " fill="none" id="journalstatus-backto-kode" style="stroke:#181818;stroke-width:1.0;"/><polygon fill="#181818" points="2930.06,107.33,2936.9966,105.3594,2937.8456,98.1985,2930.9089,100.169,2930.06,107.33" style="stroke:#181818;stroke-width:1.0;"/></g><!--reverse link kassasjonsvedtak to kode--><g id="link_kassasjonsvedtak_kode"><path codeLine="60" d="M3114.23,98.78 C3134.62,79.17 3163.05,56.38 3193.5,45.83 C3279.62,16.01 6388.25,16.38 6474.5,45.83 C6501.83,55.17 6527.68,74.14 6547.69,91.99 " fill="none" id="kassasjonsvedtak-backto-kode" style="stroke:#181818;stroke-width:1.0;"/><polygon fill="#181818" points="3105.33,107.66,3112.4022,106.2513,3113.8219,99.1813,3106.7497,100.59,3105.33,107.66" style="stroke:#181818;stroke-width:1.0;"/></g><!--reverse link klassifikasjonstype to kode--><g id="link_klassifikasjonstype_kode"><path codeLine="63" d="M3305.64,99.02 C3327.08,79.35 3356.93,56.39 3388.5,45.83 C3469.8,18.65 6393.38,18.13 6474.5,45.83 C6501.83,55.17 6527.68,74.14 6547.69,91.99 " fill="none" id="klassifikasjonstype-backto-kode" style="stroke:#181818;stroke-width:1.0;"/><polygon fill="#181818" points="3296.52,107.64,3303.6241,106.4021,3305.2137,99.3684,3298.1097,100.6063,3296.52,107.64" style="stroke:#181818;stroke-width:1.0;"/></g><!--reverse link korrespondanseparttype to kode--><g id="link_korrespondanseparttype_kode"><path codeLine="70" d="M3527.17,99.82 C3552.81,79.92 3588.4,56.42 3624.5,45.83 C3700.47,23.55 6399.58,20.25 6474.5,45.83 C6501.83,55.17 6527.68,74.14 6547.69,91.99 " fill="none" id="korrespondanseparttype-backto-kode" style="stroke:#181818;stroke-width:1.0;"/><polygon fill="#181818" points="3517.47,108.37,3524.6544,107.7502,3526.8456,100.8801,3519.6611,101.4999,3517.47,108.37" style="stroke:#181818;stroke-width:1.0;"/></g><!--reverse link merknadstype to kode--><g id="link_merknadstype_kode"><path codeLine="73" d="M3716.97,98.31 C3735.05,78.85 3760.41,56.38 3788.5,45.83 C3858.35,19.61 6403.89,21.72 6474.5,45.83 C6501.83,55.17 6527.68,74.14 6547.69,91.99 " fill="none" id="merknadstype-backto-kode" style="stroke:#181818;stroke-width:1.0;"/><polygon fill="#181818" points="3708.7,107.72,3715.6795,105.907,3716.6904,98.7671,3709.7109,100.5801,3708.7,107.72" style="stroke:#181818;stroke-width:1.0;"/></g><!--reverse link moetedeltakerFunksjon to kode--><g id="link_moetedeltakerFunksjon_kode"><path codeLine="76" d="M3922.29,99.76 C3947.31,79.87 3982.06,56.43 4017.5,45.83 C4082.89,26.29 6409.91,23.78 6474.5,45.83 C6501.83,55.17 6527.68,74.14 6547.69,91.99 " fill="none" id="moetedeltakerFunksjon-backto-kode" style="stroke:#181818;stroke-width:1.0;"/><polygon fill="#181818" points="3912.52,108.58,3919.6966,107.8753,3921.8063,100.9797,3914.6297,101.6844,3912.52,108.58" style="stroke:#181818;stroke-width:1.0;"/></g><!--reverse link moeteregistreringsstatus to kode--><g id="link_moeteregistreringsstatus_kode"><path codeLine="79" d="M4157.49,99.82 C4183.33,79.91 4219.19,56.42 4255.5,45.83 C4373.85,11.33 6357.84,6 6474.5,45.83 C6501.83,55.17 6527.68,74.14 6547.69,91.99 " fill="none" id="moeteregistreringsstatus-backto-kode" style="stroke:#181818;stroke-width:1.0;"/><polygon fill="#181818" points="4147.7,108.36,4154.8867,107.7673,4157.1037,100.9055,4149.917,101.4982,4147.7,108.36" style="stroke:#181818;stroke-width:1.0;"/></g><!--reverse link moeteregistreringstype to kode--><g id="link_moeteregistreringstype_kode"><path codeLine="82" d="M4388.97,99.76 C4413.78,79.88 4448.27,56.43 4483.5,45.83 C4589.42,13.97 6369.82,10.09 6474.5,45.83 C6501.83,55.17 6527.68,74.14 6547.69,91.99 " fill="none" id="moeteregistreringstype-backto-kode" style="stroke:#181818;stroke-width:1.0;"/><polygon fill="#181818" points="4379.28,108.58,4386.4539,107.8481,4388.5375,100.9446,4381.3636,101.6765,4379.28,108.58" style="stroke:#181818;stroke-width:1.0;"/></g><!--reverse link moetesakstype to kode--><g id="link_moetesakstype_kode"><path codeLine="85" d="M4578.41,98.57 C4596.92,79.04 4622.9,56.41 4651.5,45.83 C4746.49,10.7 6378.66,13.1 6474.5,45.83 C6501.83,55.17 6527.68,74.14 6547.69,91.99 " fill="none" id="moetesakstype-backto-kode" style="stroke:#181818;stroke-width:1.0;"/><polygon fill="#181818" points="4570.18,107.7,4577.1788,105.963,4578.2672,98.8345,4571.2684,100.5715,4570.18,107.7" style="stroke:#181818;stroke-width:1.0;"/></g><!--reverse link partRolle to kode--><g id="link_partRolle_kode"><path codeLine="88" d="M4721.85,97.27 C4736.36,78.14 4757,56.36 4781.5,45.83 C4867.91,8.7 6385.49,15.44 6474.5,45.83 C6501.83,55.17 6527.68,74.14 6547.69,91.99 " fill="none" id="partRolle-backto-kode" style="stroke:#181818;stroke-width:1.0;"/><polygon fill="#181818" points="4713.83,107.42,4720.5795,104.8815,4720.8323,97.6748,4714.0827,100.2133,4713.83,107.42" style="stroke:#181818;stroke-width:1.0;"/></g><!--reverse link presedensStatus to kode--><g id="link_presedensStatus_kode"><path codeLine="91" d="M4884.21,98.8 C4903.98,79.2 4931.63,56.41 4961.5,45.83 C5040.74,17.79 6394.95,18.67 6474.5,45.83 C6501.83,55.17 6527.68,74.14 6547.69,91.99 " fill="none" id="presedensStatus-backto-kode" style="stroke:#181818;stroke-width:1.0;"/><polygon fill="#181818" points="4875.61,107.68,4882.6594,106.1616,4883.9691,99.0704,4876.9197,100.5888,4875.61,107.68" style="stroke:#181818;stroke-width:1.0;"/></g><!--reverse link saksJournalpostnummer to saksnummer--><g id="link_saksJournalpostnummer_saksnummer"><path codeLine="122" d="M6912.54,132.81 C6919.54,132.81 6926.54,132.81 6933.54,132.81 " fill="none" id="saksJournalpostnummer-backto-saksnummer" style="stroke:#181818;stroke-width:1.0;"/><polygon fill="#181818" points="6899.63,132.81,6905.63,136.81,6911.63,132.81,6905.63,128.81,6899.63,132.81" style="stroke:#181818;stroke-width:1.0;"/></g><!--reverse link saksansvarlig to identifikatorer--><g id="link_saksansvarlig_identifikatorer"><path codeLine="125" d="M291.61,97.95 C309.26,78.58 333.96,56.33 361.5,45.83 C415.9,25.09 437.13,27.82 492.5,45.83 C512.26,52.27 531.49,63.33 548.53,75.46 " fill="none" id="saksansvarlig-backto-identifikatorer" style="stroke:#181818;stroke-width:1.0;"/><polygon fill="#181818" points="282.56,107.32,289.5208,105.4364,290.4593,98.2866,283.4985,100.1702,282.56,107.32" style="stroke:#181818;stroke-width:1.0;"/></g><!--reverse link saksbehandler to identifikatorer--><g id="link_saksbehandler_identifikatorer"><path codeLine="128" d="M507.48,132.81 C514.08,132.81 520.68,132.81 527.28,132.81 " fill="none" id="saksbehandler-backto-identifikatorer" style="stroke:#181818;stroke-width:1.0;"/><polygon fill="#181818" points="494.48,132.81,500.48,136.81,506.48,132.81,500.48,128.81,494.48,132.81" style="stroke:#181818;stroke-width:1.0;"/></g><!--reverse link saksstatus to kode--><g id="link_saksstatus_kode"><path codeLine="135" d="M5037.11,97.5 C5052.46,78.29 5074.19,56.36 5099.5,45.83 C5170.03,16.5 6402.21,21.15 6474.5,45.83 C6501.83,55.17 6527.68,74.14 6547.69,91.99 " fill="none" id="saksstatus-backto-kode" style="stroke:#181818;stroke-width:1.0;"/><polygon fill="#181818" points="5028.83,107.39,5035.6447,105.0319,5036.089,97.8345,5029.2743,100.1926,5028.83,107.39" style="stroke:#181818;stroke-width:1.0;"/></g><!--reverse link skjermingDokument to kode--><g id="link_skjermingDokument_kode"><path codeLine="138" d="M5219.01,99.27 C5241.5,79.52 5272.8,56.4 5305.5,45.83 C5367.3,25.86 6413.04,24.85 6474.5,45.83 C6501.83,55.17 6527.68,74.14 6547.69,91.99 " fill="none" id="skjermingDokument-backto-kode" style="stroke:#181818;stroke-width:1.0;"/><polygon fill="#181818" points="5209.7,107.62,5216.831,106.5485,5218.5847,99.5538,5211.4536,100.6254,5209.7,107.62" style="stroke:#181818;stroke-width:1.0;"/></g><!--reverse link skjermingMetadata to kode--><g id="link_skjermingMetadata_kode"><path codeLine="141" d="M5419.68,99.29 C5441.35,79.55 5471.59,56.43 5503.5,45.83 C5605.89,11.83 6372.4,10.97 6474.5,45.83 C6501.83,55.17 6527.68,74.14 6547.69,91.99 " fill="none" id="skjermingMetadata-backto-kode" style="stroke:#181818;stroke-width:1.0;"/><polygon fill="#181818" points="5410.75,107.64,5417.8598,106.4353,5419.4822,99.409,5412.3724,100.6138,5410.75,107.64" style="stroke:#181818;stroke-width:1.0;"/></g><!--reverse link skjermingOpphoererAksjon to kode--><g id="link_skjermingOpphoererAksjon_kode"><path codeLine="144" d="M5655.01,100.06 C5682.73,80.08 5721.15,56.42 5759.5,45.83 C5836.08,24.69 6399.32,20.16 6474.5,45.83 C6501.83,55.17 6527.68,74.14 6547.69,91.99 " fill="none" id="skjermingOpphoererAksjon-backto-kode" style="stroke:#181818;stroke-width:1.0;"/><polygon fill="#181818" points="5644.81,108.34,5652.0123,107.9843,5654.4541,101.1992,5647.2518,101.5549,5644.81,108.34" style="stroke:#181818;stroke-width:1.0;"/></g><!--reverse link slettingstype to kode--><g id="link_slettingstype_kode"><path codeLine="147" d="M5846.14,97.69 C5863.36,78.4 5887.45,56.31 5914.5,45.83 C5972.53,23.37 6415.62,25.73 6474.5,45.83 C6501.83,55.17 6527.68,74.14 6547.69,91.99 " fill="none" id="slettingstype-backto-kode" style="stroke:#181818;stroke-width:1.0;"/><polygon fill="#181818" points="5837.06,107.33,5843.9966,105.3594,5844.8456,98.1985,5837.9089,100.169,5837.06,107.33" style="stroke:#181818;stroke-width:1.0;"/></g><!--reverse link tilgangsrestriksjon to kode--><g id="link_tilgangsrestriksjon_kode"><path codeLine="154" d="M6026.64,99.02 C6048.08,79.35 6077.93,56.39 6109.5,45.83 C6186.42,20.11 6397.74,19.62 6474.5,45.83 C6501.83,55.17 6527.68,74.14 6547.69,91.99 " fill="none" id="tilgangsrestriksjon-backto-kode" style="stroke:#181818;stroke-width:1.0;"/><polygon fill="#181818" points="6017.52,107.64,6024.6241,106.4021,6026.2137,99.3684,6019.1097,100.6063,6017.52,107.64" style="stroke:#181818;stroke-width:1.0;"/></g><!--reverse link tilknyttetRegistreringSom to kode--><g id="link_tilknyttetRegistreringSom_kode"><path codeLine="157" d="M6250.81,99.81 C6276.86,79.91 6312.99,56.41 6349.5,45.83 C6402.86,30.37 6421.93,27.88 6474.5,45.83 C6501.83,55.17 6527.68,74.14 6547.69,91.99 " fill="none" id="tilknyttetRegistreringSom-backto-kode" style="stroke:#181818;stroke-width:1.0;"/><polygon fill="#181818" points="6240.94,108.36,6248.1286,107.7908,6250.368,100.9362,6243.1794,101.5054,6240.94,108.36" style="stroke:#181818;stroke-width:1.0;"/></g><!--reverse link variantformat to kode--><g id="link_variantformat_kode"><path codeLine="160" d="M6488.85,132.81 C6495.87,132.81 6502.9,132.81 6509.92,132.81 " fill="none" id="variantformat-backto-kode" style="stroke:#181818;stroke-width:1.0;"/><polygon fill="#181818" points="6475.89,132.81,6481.89,136.81,6487.89,132.81,6481.89,128.81,6475.89,132.81" style="stroke:#181818;stroke-width:1.0;"/></g><!--SRC=[tLPDRzmW4BtdL-ovLVz0RfMIIcsLLifMlK_YMOU0mG9iQLNbltS0sp0iJdheAJb4tZVlpIUC_QZ0kGDqWz32UGjUpBVw2VtXpzNBLGF-yEaWEjHUd8G4RopQgyVamaenTwYS1p-v9ESGIQNfiEJNv3PpTjAAMGlTkm70O-9Ve5pL6JaDbEY0dPY6AAcWDhz8gOBQV7yUaR4ZmBaedKUhVnYK4XMn3_JtyGIzEvDXE5mVgCTKICBrGjlGbzMDGkcjeOd8e-Wr9MMFWgYM1kEqc05Y8lz0gzAx5Fn6InDsQFsUouB1lPtKsHzp4ukV5S_O0PBxvP7RUmjTjCO7RgkEuDfH3REkcicOjKqBBq1XZUDeQEITHUVmSWhFPh8Qb9w68KTUG83WIsZFK8ToHkqMHR9NtaB4xIJL6AzzTPfRp17EblGFtBFHRiREWuo22x3IXF-nPv6pvTN2AoKzhYs9pxon3nZlB6s4Hb-biTJnqUWEjCCHR6x8Zed7fjvA3LrEbm4Lrw17sanKEzelavQXe2HgMXfgYttOZ1XgSCKmTerl-SXvjqqDlGDPoJQ4iqFBxerIYPb_LIngCjMkNN5zQumhB9xGXfdy4kfcsN_ba9UZaDRSrvimzELn6tlfubi- -Az9eu4rADcBayOlwJM_j8jdQbKHSACsyJNcakijN-ZNrOPl5lUTtPxjbl0xLPPRb1DPMCAj27SmZlXcuuR0keWGgcOj-6zrtnU3UXzJRSVWRm8MF2tyjemkLD7k780Ici4gqSTho97TZx10Uy0dq9sA6ILXHbuLyZfYHFuw2z1hxx9epwkZ-CctXfFFQEdBibzNHg9Ve3kgEwINCtZWgWtTKVqSnoT3QzL-pij-rrZvKEWzMz4SgTZhsLuQEOEQwXUXWeVM1vuNgWVoIZkN33dF5iw34aFgi_Veo-jsDCEgtx5oBtIy16XVV9bnP6N_1G00]--></g></svg>