<?xml version="1.0" encoding="us-ascii" standalone="no"?><svg xmlns="http://www.w3.org/2000/svg" xmlns:xlink="http://www.w3.org/1999/xlink" contentStyleType="text/css" height="406px" preserveAspectRatio="none" style="width:7981px;height:406px;background:#FFFFFF;" version="1.1" viewBox="0 0 7981 406" width="7981px" zoomAndPan="magnify"><defs/><g><!--class administrativEnhet--><g id="elem_administrativEnhet"><rect codeLine="2" fill="#F1F1F1" height="48" id="administrativEnhet" rx="2.5" ry="2.5" style="stroke:#181818;stroke-width:0.5;" width="160" x="7" y="119.63"/><ellipse cx="22" cy="135.63" fill="#ADD1B2" rx="11" ry="11" style="stroke:#181818;stroke-width:1.0;"/><path d="M24.4731,141.7731 Q23.8921,142.0719 23.2529,142.2213 Q22.6138,142.3707 21.9082,142.3707 Q19.4014,142.3707 18.0815,140.7189 Q16.7617,139.067 16.7617,135.9459 Q16.7617,132.8165 18.0815,131.1647 Q19.4014,129.5128 21.9082,129.5128 Q22.6138,129.5128 23.2612,129.6622 Q23.9087,129.8116 24.4731,130.1105 L24.4731,132.8331 Q23.8423,132.2521 23.2488,131.9823 Q22.6553,131.7125 22.0244,131.7125 Q20.6797,131.7125 19.9949,132.7792 Q19.3101,133.8458 19.3101,135.9459 Q19.3101,138.0377 19.9949,139.1044 Q20.6797,140.171 22.0244,140.171 Q22.6553,140.171 23.2488,139.9012 Q23.8423,139.6315 24.4731,139.0504 Z " fill="#000000"/><text fill="#000000" font-family="sans-serif" font-size="14" lengthAdjust="spacing" textLength="128" x="36" y="140.921">administrativEnhet</text><line style="stroke:#181818;stroke-width:0.5;" x1="8" x2="166" y1="151.63" y2="151.63"/><line style="stroke:#181818;stroke-width:0.5;" x1="8" x2="166" y1="159.63" y2="159.63"/></g><!--class identifikatorer--><g id="elem_identifikatorer"><rect codeLine="42" fill="#F1F1F1" height="113.9531" id="identifikatorer" rx="2.5" ry="2.5" style="stroke:#181818;stroke-width:0.5;" width="169" x="527.5" y="86.65"/><ellipse cx="560.05" cy="102.65" fill="#ADD1B2" rx="11" ry="11" style="stroke:#181818;stroke-width:1.0;"/><path d="M562.5231,108.7931 Q561.9421,109.0919 561.3029,109.2413 Q560.6638,109.3907 559.9582,109.3907 Q557.4514,109.3907 556.1315,107.7389 Q554.8117,106.087 554.8117,102.9659 Q554.8117,99.8365 556.1315,98.1847 Q557.4514,96.5328 559.9582,96.5328 Q560.6638,96.5328 561.3112,96.6822 Q561.9587,96.8316 562.5231,97.1305 L562.5231,99.8531 Q561.8923,99.2721 561.2988,99.0023 Q560.7053,98.7325 560.0744,98.7325 Q558.7297,98.7325 558.0449,99.7992 Q557.3601,100.8658 557.3601,102.9659 Q557.3601,105.0577 558.0449,106.1244 Q558.7297,107.191 560.0744,107.191 Q560.7053,107.191 561.2988,106.9212 Q561.8923,106.6515 562.5231,106.0704 Z " fill="#000000"/><text fill="#000000" font-family="sans-serif" font-size="14" lengthAdjust="spacing" textLength="98" x="577.95" y="107.941">identifikatorer</text><line style="stroke:#181818;stroke-width:0.5;" x1="528.5" x2="695.5" y1="118.65" y2="118.65"/><ellipse cx="538.5" cy="132.3941" fill="none" rx="3" ry="3" style="stroke:#038048;stroke-width:1.0;"/><text fill="#000000" font-family="sans-serif" font-size="14" lengthAdjust="spacing" textLength="85" x="547.5" y="136.1852">navn : string</text><ellipse cx="538.5" cy="148.8824" fill="none" rx="3" ry="3" style="stroke:#038048;stroke-width:1.0;"/><text fill="#000000" font-family="sans-serif" font-size="14" lengthAdjust="spacing" textLength="136" x="547.5" y="152.6734">identifikator : string</text><ellipse cx="538.5" cy="165.3707" fill="none" rx="3" ry="3" style="stroke:#038048;stroke-width:1.0;"/><text fill="#000000" font-family="sans-serif" font-size="14" lengthAdjust="spacing" textLength="104" x="547.5" y="169.1617">initialer : string</text><ellipse cx="538.5" cy="181.859" fill="none" rx="3" ry="3" style="stroke:#038048;stroke-width:1.0;"/><text fill="#000000" font-family="sans-serif" font-size="14" lengthAdjust="spacing" textLength="143" x="547.5" y="185.65">epostadresse : string</text><line style="stroke:#181818;stroke-width:0.5;" x1="528.5" x2="695.5" y1="192.6031" y2="192.6031"/></g><!--class arkivdelstatus--><g id="elem_arkivdelstatus"><rect codeLine="5" fill="#F1F1F1" height="48" id="arkivdelstatus" rx="2.5" ry="2.5" style="stroke:#181818;stroke-width:0.5;" width="127" x="731.5" y="119.63"/><ellipse cx="746.5" cy="135.63" fill="#ADD1B2" rx="11" ry="11" style="stroke:#181818;stroke-width:1.0;"/><path d="M748.9731,141.7731 Q748.3921,142.0719 747.7529,142.2213 Q747.1138,142.3707 746.4082,142.3707 Q743.9014,142.3707 742.5815,140.7189 Q741.2617,139.067 741.2617,135.9459 Q741.2617,132.8165 742.5815,131.1647 Q743.9014,129.5128 746.4082,129.5128 Q747.1138,129.5128 747.7612,129.6622 Q748.4087,129.8116 748.9731,130.1105 L748.9731,132.8331 Q748.3423,132.2521 747.7488,131.9823 Q747.1553,131.7125 746.5244,131.7125 Q745.1797,131.7125 744.4949,132.7792 Q743.8101,133.8458 743.8101,135.9459 Q743.8101,138.0377 744.4949,139.1044 Q745.1797,140.171 746.5244,140.171 Q747.1553,140.171 747.7488,139.9012 Q748.3423,139.6315 748.9731,139.0504 Z " fill="#000000"/><text fill="#000000" font-family="sans-serif" font-size="14" lengthAdjust="spacing" textLength="95" x="760.5" y="140.921">arkivdelstatus</text><line style="stroke:#181818;stroke-width:0.5;" x1="732.5" x2="857.5" y1="151.63" y2="151.63"/><line style="stroke:#181818;stroke-width:0.5;" x1="732.5" x2="857.5" y1="159.63" y2="159.63"/></g><!--class kode--><g id="elem_kode"><rect codeLine="64" fill="#F1F1F1" height="80.9766" id="kode" rx="2.5" ry="2.5" style="stroke:#181818;stroke-width:0.5;" width="154" x="6510" y="103.14"/><ellipse cx="6565.75" cy="119.14" fill="#ADD1B2" rx="11" ry="11" style="stroke:#181818;stroke-width:1.0;"/><path d="M6568.2231,125.2831 Q6567.6421,125.5819 6567.0029,125.7313 Q6566.3638,125.8807 6565.6582,125.8807 Q6563.1514,125.8807 6561.8315,124.2289 Q6560.5117,122.577 6560.5117,119.4559 Q6560.5117,116.3265 6561.8315,114.6747 Q6563.1514,113.0228 6565.6582,113.0228 Q6566.3638,113.0228 6567.0112,113.1722 Q6567.6587,113.3216 6568.2231,113.6205 L6568.2231,116.3431 Q6567.5923,115.7621 6566.9988,115.4923 Q6566.4053,115.2225 6565.7744,115.2225 Q6564.4297,115.2225 6563.7449,116.2892 Q6563.0601,117.3558 6563.0601,119.4559 Q6563.0601,121.5477 6563.7449,122.6144 Q6564.4297,123.681 6565.7744,123.681 Q6566.4053,123.681 6566.9988,123.4112 Q6567.5923,123.1415 6568.2231,122.5604 Z " fill="#000000"/><text fill="#000000" font-family="sans-serif" font-size="14" lengthAdjust="spacing" textLength="34" x="6586.25" y="124.431">kode</text><line style="stroke:#181818;stroke-width:0.5;" x1="6511" x2="6663" y1="135.14" y2="135.14"/><ellipse cx="6521" cy="148.8841" fill="none" rx="3" ry="3" style="stroke:#038048;stroke-width:1.0;"/><text fill="#000000" font-family="sans-serif" font-size="14" lengthAdjust="spacing" textLength="86" x="6530" y="152.6752">kode : string</text><ellipse cx="6521" cy="165.3724" fill="none" rx="3" ry="3" style="stroke:#038048;stroke-width:1.0;"/><text fill="#000000" font-family="sans-serif" font-size="14" lengthAdjust="spacing" textLength="128" x="6530" y="169.1634">beskrivelse : string</text><line style="stroke:#181818;stroke-width:0.5;" x1="6511" x2="6663" y1="176.1166" y2="176.1166"/></g><!--class arkivstatus--><g id="elem_arkivstatus"><rect codeLine="8" fill="#F1F1F1" height="48" id="arkivstatus" rx="2.5" ry="2.5" style="stroke:#181818;stroke-width:0.5;" width="106" x="893" y="119.63"/><ellipse cx="908" cy="135.63" fill="#ADD1B2" rx="11" ry="11" style="stroke:#181818;stroke-width:1.0;"/><path d="M910.4731,141.7731 Q909.8921,142.0719 909.2529,142.2213 Q908.6138,142.3707 907.9082,142.3707 Q905.4014,142.3707 904.0815,140.7189 Q902.7617,139.067 902.7617,135.9459 Q902.7617,132.8165 904.0815,131.1647 Q905.4014,129.5128 907.9082,129.5128 Q908.6138,129.5128 909.2612,129.6622 Q909.9087,129.8116 910.4731,130.1105 L910.4731,132.8331 Q909.8423,132.2521 909.2488,131.9823 Q908.6553,131.7125 908.0244,131.7125 Q906.6797,131.7125 905.9949,132.7792 Q905.3101,133.8458 905.3101,135.9459 Q905.3101,138.0377 905.9949,139.1044 Q906.6797,140.171 908.0244,140.171 Q908.6553,140.171 909.2488,139.9012 Q909.8423,139.6315 910.4731,139.0504 Z " fill="#000000"/><text fill="#000000" font-family="sans-serif" font-size="14" lengthAdjust="spacing" textLength="74" x="922" y="140.921">arkivstatus</text><line style="stroke:#181818;stroke-width:0.5;" x1="894" x2="998" y1="151.63" y2="151.63"/><line style="stroke:#181818;stroke-width:0.5;" x1="894" x2="998" y1="159.63" y2="159.63"/></g><!--class avskrivningsmaate--><g id="elem_avskrivningsmaate"><rect codeLine="11" fill="#F1F1F1" height="48" id="avskrivningsmaate" rx="2.5" ry="2.5" style="stroke:#181818;stroke-width:0.5;" width="159" x="1033.5" y="119.63"/><ellipse cx="1048.5" cy="135.63" fill="#ADD1B2" rx="11" ry="11" style="stroke:#181818;stroke-width:1.0;"/><path d="M1050.9731,141.7731 Q1050.3921,142.0719 1049.7529,142.2213 Q1049.1138,142.3707 1048.4082,142.3707 Q1045.9014,142.3707 1044.5815,140.7189 Q1043.2617,139.067 1043.2617,135.9459 Q1043.2617,132.8165 1044.5815,131.1647 Q1045.9014,129.5128 1048.4082,129.5128 Q1049.1138,129.5128 1049.7612,129.6622 Q1050.4087,129.8116 1050.9731,130.1105 L1050.9731,132.8331 Q1050.3423,132.2521 1049.7488,131.9823 Q1049.1553,131.7125 1048.5244,131.7125 Q1047.1797,131.7125 1046.4949,132.7792 Q1045.8101,133.8458 1045.8101,135.9459 Q1045.8101,138.0377 1046.4949,139.1044 Q1047.1797,140.171 1048.5244,140.171 Q1049.1553,140.171 1049.7488,139.9012 Q1050.3423,139.6315 1050.9731,139.0504 Z " fill="#000000"/><text fill="#000000" font-family="sans-serif" font-size="14" lengthAdjust="spacing" textLength="127" x="1062.5" y="140.921">avskrivningsmaate</text><line style="stroke:#181818;stroke-width:0.5;" x1="1034.5" x2="1191.5" y1="151.63" y2="151.63"/><line style="stroke:#181818;stroke-width:0.5;" x1="1034.5" x2="1191.5" y1="159.63" y2="159.63"/></g><!--class dokumentmedium--><g id="elem_dokumentmedium"><rect codeLine="14" fill="#F1F1F1" height="48" id="dokumentmedium" rx="2.5" ry="2.5" style="stroke:#181818;stroke-width:0.5;" width="158" x="1227" y="119.63"/><ellipse cx="1242" cy="135.63" fill="#ADD1B2" rx="11" ry="11" style="stroke:#181818;stroke-width:1.0;"/><path d="M1244.4731,141.7731 Q1243.8921,142.0719 1243.2529,142.2213 Q1242.6138,142.3707 1241.9082,142.3707 Q1239.4014,142.3707 1238.0815,140.7189 Q1236.7617,139.067 1236.7617,135.9459 Q1236.7617,132.8165 1238.0815,131.1647 Q1239.4014,129.5128 1241.9082,129.5128 Q1242.6138,129.5128 1243.2612,129.6622 Q1243.9087,129.8116 1244.4731,130.1105 L1244.4731,132.8331 Q1243.8423,132.2521 1243.2488,131.9823 Q1242.6553,131.7125 1242.0244,131.7125 Q1240.6797,131.7125 1239.9949,132.7792 Q1239.3101,133.8458 1239.3101,135.9459 Q1239.3101,138.0377 1239.9949,139.1044 Q1240.6797,140.171 1242.0244,140.171 Q1242.6553,140.171 1243.2488,139.9012 Q1243.8423,139.6315 1244.4731,139.0504 Z " fill="#000000"/><text fill="#000000" font-family="sans-serif" font-size="14" lengthAdjust="spacing" textLength="126" x="1256" y="140.921">dokumentmedium</text><line style="stroke:#181818;stroke-width:0.5;" x1="1228" x2="1384" y1="151.63" y2="151.63"/><line style="stroke:#181818;stroke-width:0.5;" x1="1228" x2="1384" y1="159.63" y2="159.63"/></g><!--class dokumentstatus--><g id="elem_dokumentstatus"><rect codeLine="17" fill="#F1F1F1" height="48" id="dokumentstatus" rx="2.5" ry="2.5" style="stroke:#181818;stroke-width:0.5;" width="143" x="1419.5" y="119.63"/><ellipse cx="1434.5" cy="135.63" fill="#ADD1B2" rx="11" ry="11" style="stroke:#181818;stroke-width:1.0;"/><path d="M1436.9731,141.7731 Q1436.3921,142.0719 1435.7529,142.2213 Q1435.1138,142.3707 1434.4082,142.3707 Q1431.9014,142.3707 1430.5815,140.7189 Q1429.2617,139.067 1429.2617,135.9459 Q1429.2617,132.8165 1430.5815,131.1647 Q1431.9014,129.5128 1434.4082,129.5128 Q1435.1138,129.5128 1435.7612,129.6622 Q1436.4087,129.8116 1436.9731,130.1105 L1436.9731,132.8331 Q1436.3423,132.2521 1435.7488,131.9823 Q1435.1553,131.7125 1434.5244,131.7125 Q1433.1797,131.7125 1432.4949,132.7792 Q1431.8101,133.8458 1431.8101,135.9459 Q1431.8101,138.0377 1432.4949,139.1044 Q1433.1797,140.171 1434.5244,140.171 Q1435.1553,140.171 1435.7488,139.9012 Q1436.3423,139.6315 1436.9731,139.0504 Z " fill="#000000"/><text fill="#000000" font-family="sans-serif" font-size="14" lengthAdjust="spacing" textLength="111" x="1448.5" y="140.921">dokumentstatus</text><line style="stroke:#181818;stroke-width:0.5;" x1="1420.5" x2="1561.5" y1="151.63" y2="151.63"/><line style="stroke:#181818;stroke-width:0.5;" x1="1420.5" x2="1561.5" y1="159.63" y2="159.63"/></g><!--class dokumenttype--><g id="elem_dokumenttype"><rect codeLine="20" fill="#F1F1F1" height="48" id="dokumenttype" rx="2.5" ry="2.5" style="stroke:#181818;stroke-width:0.5;" width="131" x="1597.5" y="119.63"/><ellipse cx="1612.5" cy="135.63" fill="#ADD1B2" rx="11" ry="11" style="stroke:#181818;stroke-width:1.0;"/><path d="M1614.9731,141.7731 Q1614.3921,142.0719 1613.7529,142.2213 Q1613.1138,142.3707 1612.4082,142.3707 Q1609.9014,142.3707 1608.5815,140.7189 Q1607.2617,139.067 1607.2617,135.9459 Q1607.2617,132.8165 1608.5815,131.1647 Q1609.9014,129.5128 1612.4082,129.5128 Q1613.1138,129.5128 1613.7612,129.6622 Q1614.4087,129.8116 1614.9731,130.1105 L1614.9731,132.8331 Q1614.3423,132.2521 1613.7488,131.9823 Q1613.1553,131.7125 1612.5244,131.7125 Q1611.1797,131.7125 1610.4949,132.7792 Q1609.8101,133.8458 1609.8101,135.9459 Q1609.8101,138.0377 1610.4949,139.1044 Q1611.1797,140.171 1612.5244,140.171 Q1613.1553,140.171 1613.7488,139.9012 Q1614.3423,139.6315 1614.9731,139.0504 Z " fill="#000000"/><text fill="#000000" font-family="sans-serif" font-size="14" lengthAdjust="spacing" textLength="99" x="1626.5" y="140.921">dokumenttype</text><line style="stroke:#181818;stroke-width:0.5;" x1="1598.5" x2="1727.5" y1="151.63" y2="151.63"/><line style="stroke:#181818;stroke-width:0.5;" x1="1598.5" x2="1727.5" y1="159.63" y2="159.63"/></g><!--class eksternNoekkel--><g id="elem_eksternNoekkel"><rect codeLine="23" fill="#F1F1F1" height="80.9766" id="eksternNoekkel" rx="2.5" ry="2.5" style="stroke:#181818;stroke-width:0.5;" width="147" x="7167.5" y="103.14"/><ellipse cx="7186.55" cy="119.14" fill="#ADD1B2" rx="11" ry="11" style="stroke:#181818;stroke-width:1.0;"/><path d="M7189.0231,125.2831 Q7188.4421,125.5819 7187.8029,125.7313 Q7187.1638,125.8807 7186.4582,125.8807 Q7183.9514,125.8807 7182.6315,124.2289 Q7181.3117,122.577 7181.3117,119.4559 Q7181.3117,116.3265 7182.6315,114.6747 Q7183.9514,113.0228 7186.4582,113.0228 Q7187.1638,113.0228 7187.8112,113.1722 Q7188.4587,113.3216 7189.0231,113.6205 L7189.0231,116.3431 Q7188.3923,115.7621 7187.7988,115.4923 Q7187.2053,115.2225 7186.5744,115.2225 Q7185.2297,115.2225 7184.5449,116.2892 Q7183.8601,117.3558 7183.8601,119.4559 Q7183.8601,121.5477 7184.5449,122.6144 Q7185.2297,123.681 7186.5744,123.681 Q7187.2053,123.681 7187.7988,123.4112 Q7188.3923,123.1415 7189.0231,122.5604 Z " fill="#000000"/><text fill="#000000" font-family="sans-serif" font-size="14" lengthAdjust="spacing" textLength="106" x="7201.45" y="124.431">eksternNoekkel</text><line style="stroke:#181818;stroke-width:0.5;" x1="7168.5" x2="7313.5" y1="135.14" y2="135.14"/><ellipse cx="7178.5" cy="148.8841" fill="none" rx="3" ry="3" style="stroke:#038048;stroke-width:1.0;"/><text fill="#000000" font-family="sans-serif" font-size="14" lengthAdjust="spacing" textLength="121" x="7187.5" y="152.6752">fagsystem : string</text><ellipse cx="7178.5" cy="165.3724" fill="none" rx="3" ry="3" style="stroke:#038048;stroke-width:1.0;"/><text fill="#000000" font-family="sans-serif" font-size="14" lengthAdjust="spacing" textLength="106" x="7187.5" y="169.1634">noekkel : string</text><line style="stroke:#181818;stroke-width:0.5;" x1="7168.5" x2="7313.5" y1="176.1166" y2="176.1166"/></g><!--class elektroniskSignaturSikkerhetsnivaa--><g id="elem_elektroniskSignaturSikkerhetsnivaa"><rect codeLine="27" fill="#F1F1F1" height="48" id="elektroniskSignaturSikkerhetsnivaa" rx="2.5" ry="2.5" style="stroke:#181818;stroke-width:0.5;" width="273" x="1763.5" y="119.63"/><ellipse cx="1778.5" cy="135.63" fill="#ADD1B2" rx="11" ry="11" style="stroke:#181818;stroke-width:1.0;"/><path d="M1780.9731,141.7731 Q1780.3921,142.0719 1779.7529,142.2213 Q1779.1138,142.3707 1778.4082,142.3707 Q1775.9014,142.3707 1774.5815,140.7189 Q1773.2617,139.067 1773.2617,135.9459 Q1773.2617,132.8165 1774.5815,131.1647 Q1775.9014,129.5128 1778.4082,129.5128 Q1779.1138,129.5128 1779.7612,129.6622 Q1780.4087,129.8116 1780.9731,130.1105 L1780.9731,132.8331 Q1780.3423,132.2521 1779.7488,131.9823 Q1779.1553,131.7125 1778.5244,131.7125 Q1777.1797,131.7125 1776.4949,132.7792 Q1775.8101,133.8458 1775.8101,135.9459 Q1775.8101,138.0377 1776.4949,139.1044 Q1777.1797,140.171 1778.5244,140.171 Q1779.1553,140.171 1779.7488,139.9012 Q1780.3423,139.6315 1780.9731,139.0504 Z " fill="#000000"/><text fill="#000000" font-family="sans-serif" font-size="14" lengthAdjust="spacing" textLength="241" x="1792.5" y="140.921">elektroniskSignaturSikkerhetsnivaa</text><line style="stroke:#181818;stroke-width:0.5;" x1="1764.5" x2="2035.5" y1="151.63" y2="151.63"/><line style="stroke:#181818;stroke-width:0.5;" x1="1764.5" x2="2035.5" y1="159.63" y2="159.63"/></g><!--class elektroniskSignaturVerifisert--><g id="elem_elektroniskSignaturVerifisert"><rect codeLine="30" fill="#F1F1F1" height="48" id="elektroniskSignaturVerifisert" rx="2.5" ry="2.5" style="stroke:#181818;stroke-width:0.5;" width="228" x="2072" y="119.63"/><ellipse cx="2087" cy="135.63" fill="#ADD1B2" rx="11" ry="11" style="stroke:#181818;stroke-width:1.0;"/><path d="M2089.4731,141.7731 Q2088.8921,142.0719 2088.2529,142.2213 Q2087.6138,142.3707 2086.9082,142.3707 Q2084.4014,142.3707 2083.0815,140.7189 Q2081.7617,139.067 2081.7617,135.9459 Q2081.7617,132.8165 2083.0815,131.1647 Q2084.4014,129.5128 2086.9082,129.5128 Q2087.6138,129.5128 2088.2612,129.6622 Q2088.9087,129.8116 2089.4731,130.1105 L2089.4731,132.8331 Q2088.8423,132.2521 2088.2488,131.9823 Q2087.6553,131.7125 2087.0244,131.7125 Q2085.6797,131.7125 2084.9949,132.7792 Q2084.3101,133.8458 2084.3101,135.9459 Q2084.3101,138.0377 2084.9949,139.1044 Q2085.6797,140.171 2087.0244,140.171 Q2087.6553,140.171 2088.2488,139.9012 Q2088.8423,139.6315 2089.4731,139.0504 Z " fill="#000000"/><text fill="#000000" font-family="sans-serif" font-size="14" lengthAdjust="spacing" textLength="196" x="2101" y="140.921">elektroniskSignaturVerifisert</text><line style="stroke:#181818;stroke-width:0.5;" x1="2073" x2="2299" y1="151.63" y2="151.63"/><line style="stroke:#181818;stroke-width:0.5;" x1="2073" x2="2299" y1="159.63" y2="159.63"/></g><!--class flytStatus--><g id="elem_flytStatus"><rect codeLine="33" fill="#F1F1F1" height="48" id="flytStatus" rx="2.5" ry="2.5" style="stroke:#181818;stroke-width:0.5;" width="95" x="2334.5" y="119.63"/><ellipse cx="2349.5" cy="135.63" fill="#ADD1B2" rx="11" ry="11" style="stroke:#181818;stroke-width:1.0;"/><path d="M2351.9731,141.7731 Q2351.3921,142.0719 2350.7529,142.2213 Q2350.1138,142.3707 2349.4082,142.3707 Q2346.9014,142.3707 2345.5815,140.7189 Q2344.2617,139.067 2344.2617,135.9459 Q2344.2617,132.8165 2345.5815,131.1647 Q2346.9014,129.5128 2349.4082,129.5128 Q2350.1138,129.5128 2350.7612,129.6622 Q2351.4087,129.8116 2351.9731,130.1105 L2351.9731,132.8331 Q2351.3423,132.2521 2350.7488,131.9823 Q2350.1553,131.7125 2349.5244,131.7125 Q2348.1797,131.7125 2347.4949,132.7792 Q2346.8101,133.8458 2346.8101,135.9459 Q2346.8101,138.0377 2347.4949,139.1044 Q2348.1797,140.171 2349.5244,140.171 Q2350.1553,140.171 2350.7488,139.9012 Q2351.3423,139.6315 2351.9731,139.0504 Z " fill="#000000"/><text fill="#000000" font-family="sans-serif" font-size="14" lengthAdjust="spacing" textLength="63" x="2363.5" y="140.921">flytStatus</text><line style="stroke:#181818;stroke-width:0.5;" x1="2335.5" x2="2428.5" y1="151.63" y2="151.63"/><line style="stroke:#181818;stroke-width:0.5;" x1="2335.5" x2="2428.5" y1="159.63" y2="159.63"/></g><!--class format--><g id="elem_format"><rect codeLine="36" fill="#F1F1F1" height="48" id="format" rx="2.5" ry="2.5" style="stroke:#181818;stroke-width:0.5;" width="78" x="2464" y="119.63"/><ellipse cx="2479" cy="135.63" fill="#ADD1B2" rx="11" ry="11" style="stroke:#181818;stroke-width:1.0;"/><path d="M2481.4731,141.7731 Q2480.8921,142.0719 2480.2529,142.2213 Q2479.6138,142.3707 2478.9082,142.3707 Q2476.4014,142.3707 2475.0815,140.7189 Q2473.7617,139.067 2473.7617,135.9459 Q2473.7617,132.8165 2475.0815,131.1647 Q2476.4014,129.5128 2478.9082,129.5128 Q2479.6138,129.5128 2480.2612,129.6622 Q2480.9087,129.8116 2481.4731,130.1105 L2481.4731,132.8331 Q2480.8423,132.2521 2480.2488,131.9823 Q2479.6553,131.7125 2479.0244,131.7125 Q2477.6797,131.7125 2476.9949,132.7792 Q2476.3101,133.8458 2476.3101,135.9459 Q2476.3101,138.0377 2476.9949,139.1044 Q2477.6797,140.171 2479.0244,140.171 Q2479.6553,140.171 2480.2488,139.9012 Q2480.8423,139.6315 2481.4731,139.0504 Z " fill="#000000"/><text fill="#000000" font-family="sans-serif" font-size="14" lengthAdjust="spacing" textLength="46" x="2493" y="140.921">format</text><line style="stroke:#181818;stroke-width:0.5;" x1="2465" x2="2541" y1="151.63" y2="151.63"/><line style="stroke:#181818;stroke-width:0.5;" x1="2465" x2="2541" y1="159.63" y2="159.63"/></g><!--class grad--><g id="elem_grad"><rect codeLine="39" fill="#F1F1F1" height="48" id="grad" rx="2.5" ry="2.5" style="stroke:#181818;stroke-width:0.5;" width="64" x="2577" y="119.63"/><ellipse cx="2592" cy="135.63" fill="#ADD1B2" rx="11" ry="11" style="stroke:#181818;stroke-width:1.0;"/><path d="M2594.4731,141.7731 Q2593.8921,142.0719 2593.2529,142.2213 Q2592.6138,142.3707 2591.9082,142.3707 Q2589.4014,142.3707 2588.0815,140.7189 Q2586.7617,139.067 2586.7617,135.9459 Q2586.7617,132.8165 2588.0815,131.1647 Q2589.4014,129.5128 2591.9082,129.5128 Q2592.6138,129.5128 2593.2612,129.6622 Q2593.9087,129.8116 2594.4731,130.1105 L2594.4731,132.8331 Q2593.8423,132.2521 2593.2488,131.9823 Q2592.6553,131.7125 2592.0244,131.7125 Q2590.6797,131.7125 2589.9949,132.7792 Q2589.3101,133.8458 2589.3101,135.9459 Q2589.3101,138.0377 2589.9949,139.1044 Q2590.6797,140.171 2592.0244,140.171 Q2592.6553,140.171 2593.2488,139.9012 Q2593.8423,139.6315 2594.4731,139.0504 Z " fill="#000000"/><text fill="#000000" font-family="sans-serif" font-size="14" lengthAdjust="spacing" textLength="32" x="2606" y="140.921">grad</text><line style="stroke:#181818;stroke-width:0.5;" x1="2578" x2="2640" y1="151.63" y2="151.63"/><line style="stroke:#181818;stroke-width:0.5;" x1="2578" x2="2640" y1="159.63" y2="159.63"/></g><!--class journalnummer--><g id="elem_journalnummer"><rect codeLine="48" fill="#F1F1F1" height="80.9766" id="journalnummer" rx="2.5" ry="2.5" style="stroke:#181818;stroke-width:0.5;" width="217" x="7349.5" y="103.14"/><ellipse cx="7400.25" cy="119.14" fill="#ADD1B2" rx="11" ry="11" style="stroke:#181818;stroke-width:1.0;"/><path d="M7402.7231,125.2831 Q7402.1421,125.5819 7401.5029,125.7313 Q7400.8638,125.8807 7400.1582,125.8807 Q7397.6514,125.8807 7396.3315,124.2289 Q7395.0117,122.577 7395.0117,119.4559 Q7395.0117,116.3265 7396.3315,114.6747 Q7397.6514,113.0228 7400.1582,113.0228 Q7400.8638,113.0228 7401.5112,113.1722 Q7402.1587,113.3216 7402.7231,113.6205 L7402.7231,116.3431 Q7402.0923,115.7621 7401.4988,115.4923 Q7400.9053,115.2225 7400.2744,115.2225 Q7398.9297,115.2225 7398.2449,116.2892 Q7397.5601,117.3558 7397.5601,119.4559 Q7397.5601,121.5477 7398.2449,122.6144 Q7398.9297,123.681 7400.2744,123.681 Q7400.9053,123.681 7401.4988,123.4112 Q7402.0923,123.1415 7402.7231,122.5604 Z " fill="#000000"/><text fill="#000000" font-family="sans-serif" font-size="14" lengthAdjust="spacing" textLength="107" x="7420.75" y="124.431">journalnummer</text><line style="stroke:#181818;stroke-width:0.5;" x1="7350.5" x2="7565.5" y1="135.14" y2="135.14"/><ellipse cx="7360.5" cy="148.8841" fill="none" rx="3" ry="3" style="stroke:#038048;stroke-width:1.0;"/><text fill="#000000" font-family="sans-serif" font-size="14" lengthAdjust="spacing" textLength="101" x="7369.5" y="152.6752">journalaar : int</text><ellipse cx="7360.5" cy="165.3724" fill="none" rx="3" ry="3" style="stroke:#038048;stroke-width:1.0;"/><text fill="#000000" font-family="sans-serif" font-size="14" lengthAdjust="spacing" textLength="191" x="7369.5" y="169.1634">journalsekvensnummer : int</text><line style="stroke:#181818;stroke-width:0.5;" x1="7350.5" x2="7565.5" y1="176.1166" y2="176.1166"/></g><!--class journalposttype--><g id="elem_journalposttype"><rect codeLine="52" fill="#F1F1F1" height="48" id="journalposttype" rx="2.5" ry="2.5" style="stroke:#181818;stroke-width:0.5;" width="140" x="2676" y="119.63"/><ellipse cx="2691" cy="135.63" fill="#ADD1B2" rx="11" ry="11" style="stroke:#181818;stroke-width:1.0;"/><path d="M2693.4731,141.7731 Q2692.8921,142.0719 2692.2529,142.2213 Q2691.6138,142.3707 2690.9082,142.3707 Q2688.4014,142.3707 2687.0815,140.7189 Q2685.7617,139.067 2685.7617,135.9459 Q2685.7617,132.8165 2687.0815,131.1647 Q2688.4014,129.5128 2690.9082,129.5128 Q2691.6138,129.5128 2692.2612,129.6622 Q2692.9087,129.8116 2693.4731,130.1105 L2693.4731,132.8331 Q2692.8423,132.2521 2692.2488,131.9823 Q2691.6553,131.7125 2691.0244,131.7125 Q2689.6797,131.7125 2688.9949,132.7792 Q2688.3101,133.8458 2688.3101,135.9459 Q2688.3101,138.0377 2688.9949,139.1044 Q2689.6797,140.171 2691.0244,140.171 Q2691.6553,140.171 2692.2488,139.9012 Q2692.8423,139.6315 2693.4731,139.0504 Z " fill="#000000"/><text fill="#000000" font-family="sans-serif" font-size="14" lengthAdjust="spacing" textLength="108" x="2705" y="140.921">journalposttype</text><line style="stroke:#181818;stroke-width:0.5;" x1="2677" x2="2815" y1="151.63" y2="151.63"/><line style="stroke:#181818;stroke-width:0.5;" x1="2677" x2="2815" y1="159.63" y2="159.63"/></g><!--class journalstatus--><g id="elem_journalstatus"><rect codeLine="55" fill="#F1F1F1" height="48" id="journalstatus" rx="2.5" ry="2.5" style="stroke:#181818;stroke-width:0.5;" width="122" x="2851" y="119.63"/><ellipse cx="2866" cy="135.63" fill="#ADD1B2" rx="11" ry="11" style="stroke:#181818;stroke-width:1.0;"/><path d="M2868.4731,141.7731 Q2867.8921,142.0719 2867.2529,142.2213 Q2866.6138,142.3707 2865.9082,142.3707 Q2863.4014,142.3707 2862.0815,140.7189 Q2860.7617,139.067 2860.7617,135.9459 Q2860.7617,132.8165 2862.0815,131.1647 Q2863.4014,129.5128 2865.9082,129.5128 Q2866.6138,129.5128 2867.2612,129.6622 Q2867.9087,129.8116 2868.4731,130.1105 L2868.4731,132.8331 Q2867.8423,132.2521 2867.2488,131.9823 Q2866.6553,131.7125 2866.0244,131.7125 Q2864.6797,131.7125 2863.9949,132.7792 Q2863.3101,133.8458 2863.3101,135.9459 Q2863.3101,138.0377 2863.9949,139.1044 Q2864.6797,140.171 2866.0244,140.171 Q2866.6553,140.171 2867.2488,139.9012 Q2867.8423,139.6315 2868.4731,139.0504 Z " fill="#000000"/><text fill="#000000" font-family="sans-serif" font-size="14" lengthAdjust="spacing" textLength="90" x="2880" y="140.921">journalstatus</text><line style="stroke:#181818;stroke-width:0.5;" x1="2852" x2="2972" y1="151.63" y2="151.63"/><line style="stroke:#181818;stroke-width:0.5;" x1="2852" x2="2972" y1="159.63" y2="159.63"/></g><!--class kassasjonsvedtak--><g id="elem_kassasjonsvedtak"><rect codeLine="58" fill="#F1F1F1" height="48" id="kassasjonsvedtak" rx="2.5" ry="2.5" style="stroke:#181818;stroke-width:0.5;" width="151" x="3007.5" y="119.63"/><ellipse cx="3022.5" cy="135.63" fill="#ADD1B2" rx="11" ry="11" style="stroke:#181818;stroke-width:1.0;"/><path d="M3024.9731,141.7731 Q3024.3921,142.0719 3023.7529,142.2213 Q3023.1138,142.3707 3022.4082,142.3707 Q3019.9014,142.3707 3018.5815,140.7189 Q3017.2617,139.067 3017.2617,135.9459 Q3017.2617,132.8165 3018.5815,131.1647 Q3019.9014,129.5128 3022.4082,129.5128 Q3023.1138,129.5128 3023.7612,129.6622 Q3024.4087,129.8116 3024.9731,130.1105 L3024.9731,132.8331 Q3024.3423,132.2521 3023.7488,131.9823 Q3023.1553,131.7125 3022.5244,131.7125 Q3021.1797,131.7125 3020.4949,132.7792 Q3019.8101,133.8458 3019.8101,135.9459 Q3019.8101,138.0377 3020.4949,139.1044 Q3021.1797,140.171 3022.5244,140.171 Q3023.1553,140.171 3023.7488,139.9012 Q3024.3423,139.6315 3024.9731,139.0504 Z " fill="#000000"/><text fill="#000000" font-family="sans-serif" font-size="14" lengthAdjust="spacing" textLength="119" x="3036.5" y="140.921">kassasjonsvedtak</text><line style="stroke:#181818;stroke-width:0.5;" x1="3008.5" x2="3157.5" y1="151.63" y2="151.63"/><line style="stroke:#181818;stroke-width:0.5;" x1="3008.5" x2="3157.5" y1="159.63" y2="159.63"/></g><!--class klassifikasjonstype--><g id="elem_klassifikasjonstype"><rect codeLine="61" fill="#F1F1F1" height="48" id="klassifikasjonstype" rx="2.5" ry="2.5" style="stroke:#181818;stroke-width:0.5;" width="160" x="3193" y="119.63"/><ellipse cx="3208" cy="135.63" fill="#ADD1B2" rx="11" ry="11" style="stroke:#181818;stroke-width:1.0;"/><path d="M3210.4731,141.7731 Q3209.8921,142.0719 3209.2529,142.2213 Q3208.6138,142.3707 3207.9082,142.3707 Q3205.4014,142.3707 3204.0815,140.7189 Q3202.7617,139.067 3202.7617,135.9459 Q3202.7617,132.8165 3204.0815,131.1647 Q3205.4014,129.5128 3207.9082,129.5128 Q3208.6138,129.5128 3209.2612,129.6622 Q3209.9087,129.8116 3210.4731,130.1105 L3210.4731,132.8331 Q3209.8423,132.2521 3209.2488,131.9823 Q3208.6553,131.7125 3208.0244,131.7125 Q3206.6797,131.7125 3205.9949,132.7792 Q3205.3101,133.8458 3205.3101,135.9459 Q3205.3101,138.0377 3205.9949,139.1044 Q3206.6797,140.171 3208.0244,140.171 Q3208.6553,140.171 3209.2488,139.9012 Q3209.8423,139.6315 3210.4731,139.0504 Z " fill="#000000"/><text fill="#000000" font-family="sans-serif" font-size="14" lengthAdjust="spacing" textLength="128" x="3222" y="140.921">klassifikasjonstype</text><line style="stroke:#181818;stroke-width:0.5;" x1="3194" x2="3352" y1="151.63" y2="151.63"/><line style="stroke:#181818;stroke-width:0.5;" x1="3194" x2="3352" y1="159.63" y2="159.63"/></g><!--class korrespondanseparttype--><g id="elem_korrespondanseparttype"><rect codeLine="68" fill="#F1F1F1" height="48" id="korrespondanseparttype" rx="2.5" ry="2.5" style="stroke:#181818;stroke-width:0.5;" width="201" x="3388.5" y="119.63"/><ellipse cx="3403.5" cy="135.63" fill="#ADD1B2" rx="11" ry="11" style="stroke:#181818;stroke-width:1.0;"/><path d="M3405.9731,141.7731 Q3405.3921,142.0719 3404.7529,142.2213 Q3404.1138,142.3707 3403.4082,142.3707 Q3400.9014,142.3707 3399.5815,140.7189 Q3398.2617,139.067 3398.2617,135.9459 Q3398.2617,132.8165 3399.5815,131.1647 Q3400.9014,129.5128 3403.4082,129.5128 Q3404.1138,129.5128 3404.7612,129.6622 Q3405.4087,129.8116 3405.9731,130.1105 L3405.9731,132.8331 Q3405.3423,132.2521 3404.7488,131.9823 Q3404.1553,131.7125 3403.5244,131.7125 Q3402.1797,131.7125 3401.4949,132.7792 Q3400.8101,133.8458 3400.8101,135.9459 Q3400.8101,138.0377 3401.4949,139.1044 Q3402.1797,140.171 3403.5244,140.171 Q3404.1553,140.171 3404.7488,139.9012 Q3405.3423,139.6315 3405.9731,139.0504 Z " fill="#000000"/><text fill="#000000" font-family="sans-serif" font-size="14" lengthAdjust="spacing" textLength="169" x="3417.5" y="140.921">korrespondanseparttype</text><line style="stroke:#181818;stroke-width:0.5;" x1="3389.5" x2="3588.5" y1="151.63" y2="151.63"/><line style="stroke:#181818;stroke-width:0.5;" x1="3389.5" x2="3588.5" y1="159.63" y2="159.63"/></g><!--class merknadstype--><g id="elem_merknadstype"><rect codeLine="71" fill="#F1F1F1" height="48" id="merknadstype" rx="2.5" ry="2.5" style="stroke:#181818;stroke-width:0.5;" width="129" x="3624.5" y="119.63"/><ellipse cx="3639.5" cy="135.63" fill="#ADD1B2" rx="11" ry="11" style="stroke:#181818;stroke-width:1.0;"/><path d="M3641.9731,141.7731 Q3641.3921,142.0719 3640.7529,142.2213 Q3640.1138,142.3707 3639.4082,142.3707 Q3636.9014,142.3707 3635.5815,140.7189 Q3634.2617,139.067 3634.2617,135.9459 Q3634.2617,132.8165 3635.5815,131.1647 Q3636.9014,129.5128 3639.4082,129.5128 Q3640.1138,129.5128 3640.7612,129.6622 Q3641.4087,129.8116 3641.9731,130.1105 L3641.9731,132.8331 Q3641.3423,132.2521 3640.7488,131.9823 Q3640.1553,131.7125 3639.5244,131.7125 Q3638.1797,131.7125 3637.4949,132.7792 Q3636.8101,133.8458 3636.8101,135.9459 Q3636.8101,138.0377 3637.4949,139.1044 Q3638.1797,140.171 3639.5244,140.171 Q3640.1553,140.171 3640.7488,139.9012 Q3641.3423,139.6315 3641.9731,139.0504 Z " fill="#000000"/><text fill="#000000" font-family="sans-serif" font-size="14" lengthAdjust="spacing" textLength="97" x="3653.5" y="140.921">merknadstype</text><line style="stroke:#181818;stroke-width:0.5;" x1="3625.5" x2="3752.5" y1="151.63" y2="151.63"/><line style="stroke:#181818;stroke-width:0.5;" x1="3625.5" x2="3752.5" y1="159.63" y2="159.63"/></g><!--class moetedeltakerFunksjon--><g id="elem_moetedeltakerFunksjon"><rect codeLine="74" fill="#F1F1F1" height="48" id="moetedeltakerFunksjon" rx="2.5" ry="2.5" style="stroke:#181818;stroke-width:0.5;" width="194" x="3788" y="119.63"/><ellipse cx="3803" cy="135.63" fill="#ADD1B2" rx="11" ry="11" style="stroke:#181818;stroke-width:1.0;"/><path d="M3805.4731,141.7731 Q3804.8921,142.0719 3804.2529,142.2213 Q3803.6138,142.3707 3802.9082,142.3707 Q3800.4014,142.3707 3799.0815,140.7189 Q3797.7617,139.067 3797.7617,135.9459 Q3797.7617,132.8165 3799.0815,131.1647 Q3800.4014,129.5128 3802.9082,129.5128 Q3803.6138,129.5128 3804.2612,129.6622 Q3804.9087,129.8116 3805.4731,130.1105 L3805.4731,132.8331 Q3804.8423,132.2521 3804.2488,131.9823 Q3803.6553,131.7125 3803.0244,131.7125 Q3801.6797,131.7125 3800.9949,132.7792 Q3800.3101,133.8458 3800.3101,135.9459 Q3800.3101,138.0377 3800.9949,139.1044 Q3801.6797,140.171 3803.0244,140.171 Q3803.6553,140.171 3804.2488,139.9012 Q3804.8423,139.6315 3805.4731,139.0504 Z " fill="#000000"/><text fill="#000000" font-family="sans-serif" font-size="14" lengthAdjust="spacing" textLength="162" x="3817" y="140.921">moetedeltakerFunksjon</text><line style="stroke:#181818;stroke-width:0.5;" x1="3789" x2="3981" y1="151.63" y2="151.63"/><line style="stroke:#181818;stroke-width:0.5;" x1="3789" x2="3981" y1="159.63" y2="159.63"/></g><!--class moeteregistreringsstatus--><g id="elem_moeteregistreringsstatus"><rect codeLine="77" fill="#F1F1F1" height="48" id="moeteregistreringsstatus" rx="2.5" ry="2.5" style="stroke:#181818;stroke-width:0.5;" width="204" x="4017" y="119.63"/><ellipse cx="4032" cy="135.63" fill="#ADD1B2" rx="11" ry="11" style="stroke:#181818;stroke-width:1.0;"/><path d="M4034.4731,141.7731 Q4033.8921,142.0719 4033.2529,142.2213 Q4032.6138,142.3707 4031.9082,142.3707 Q4029.4014,142.3707 4028.0815,140.7189 Q4026.7617,139.067 4026.7617,135.9459 Q4026.7617,132.8165 4028.0815,131.1647 Q4029.4014,129.5128 4031.9082,129.5128 Q4032.6138,129.5128 4033.2612,129.6622 Q4033.9087,129.8116 4034.4731,130.1105 L4034.4731,132.8331 Q4033.8423,132.2521 4033.2488,131.9823 Q4032.6553,131.7125 4032.0244,131.7125 Q4030.6797,131.7125 4029.9949,132.7792 Q4029.3101,133.8458 4029.3101,135.9459 Q4029.3101,138.0377 4029.9949,139.1044 Q4030.6797,140.171 4032.0244,140.171 Q4032.6553,140.171 4033.2488,139.9012 Q4033.8423,139.6315 4034.4731,139.0504 Z " fill="#000000"/><text fill="#000000" font-family="sans-serif" font-size="14" lengthAdjust="spacing" textLength="172" x="4046" y="140.921">moeteregistreringsstatus</text><line style="stroke:#181818;stroke-width:0.5;" x1="4018" x2="4220" y1="151.63" y2="151.63"/><line style="stroke:#181818;stroke-width:0.5;" x1="4018" x2="4220" y1="159.63" y2="159.63"/></g><!--class moeteregistreringstype--><g id="elem_moeteregistreringstype"><rect codeLine="80" fill="#F1F1F1" height="48" id="moeteregistreringstype" rx="2.5" ry="2.5" style="stroke:#181818;stroke-width:0.5;" width="192" x="4256" y="119.63"/><ellipse cx="4271" cy="135.63" fill="#ADD1B2" rx="11" ry="11" style="stroke:#181818;stroke-width:1.0;"/><path d="M4273.4731,141.7731 Q4272.8921,142.0719 4272.2529,142.2213 Q4271.6138,142.3707 4270.9082,142.3707 Q4268.4014,142.3707 4267.0815,140.7189 Q4265.7617,139.067 4265.7617,135.9459 Q4265.7617,132.8165 4267.0815,131.1647 Q4268.4014,129.5128 4270.9082,129.5128 Q4271.6138,129.5128 4272.2612,129.6622 Q4272.9087,129.8116 4273.4731,130.1105 L4273.4731,132.8331 Q4272.8423,132.2521 4272.2488,131.9823 Q4271.6553,131.7125 4271.0244,131.7125 Q4269.6797,131.7125 4268.9949,132.7792 Q4268.3101,133.8458 4268.3101,135.9459 Q4268.3101,138.0377 4268.9949,139.1044 Q4269.6797,140.171 4271.0244,140.171 Q4271.6553,140.171 4272.2488,139.9012 Q4272.8423,139.6315 4273.4731,139.0504 Z " fill="#000000"/><text fill="#000000" font-family="sans-serif" font-size="14" lengthAdjust="spacing" textLength="160" x="4285" y="140.921">moeteregistreringstype</text><line style="stroke:#181818;stroke-width:0.5;" x1="4257" x2="4447" y1="151.63" y2="151.63"/><line style="stroke:#181818;stroke-width:0.5;" x1="4257" x2="4447" y1="159.63" y2="159.63"/></g><!--class moetesakstype--><g id="elem_moetesakstype"><rect codeLine="83" fill="#F1F1F1" height="48" id="moetesakstype" rx="2.5" ry="2.5" style="stroke:#181818;stroke-width:0.5;" width="134" x="4483" y="119.63"/><ellipse cx="4498" cy="135.63" fill="#ADD1B2" rx="11" ry="11" style="stroke:#181818;stroke-width:1.0;"/><path d="M4500.4731,141.7731 Q4499.8921,142.0719 4499.2529,142.2213 Q4498.6138,142.3707 4497.9082,142.3707 Q4495.4014,142.3707 4494.0815,140.7189 Q4492.7617,139.067 4492.7617,135.9459 Q4492.7617,132.8165 4494.0815,131.1647 Q4495.4014,129.5128 4497.9082,129.5128 Q4498.6138,129.5128 4499.2612,129.6622 Q4499.9087,129.8116 4500.4731,130.1105 L4500.4731,132.8331 Q4499.8423,132.2521 4499.2488,131.9823 Q4498.6553,131.7125 4498.0244,131.7125 Q4496.6797,131.7125 4495.9949,132.7792 Q4495.3101,133.8458 4495.3101,135.9459 Q4495.3101,138.0377 4495.9949,139.1044 Q4496.6797,140.171 4498.0244,140.171 Q4498.6553,140.171 4499.2488,139.9012 Q4499.8423,139.6315 4500.4731,139.0504 Z " fill="#000000"/><text fill="#000000" font-family="sans-serif" font-size="14" lengthAdjust="spacing" textLength="102" x="4512" y="140.921">moetesakstype</text><line style="stroke:#181818;stroke-width:0.5;" x1="4484" x2="4616" y1="151.63" y2="151.63"/><line style="stroke:#181818;stroke-width:0.5;" x1="4484" x2="4616" y1="159.63" y2="159.63"/></g><!--class partRolle--><g id="elem_partRolle"><rect codeLine="86" fill="#F1F1F1" height="48" id="partRolle" rx="2.5" ry="2.5" style="stroke:#181818;stroke-width:0.5;" width="94" x="4652" y="119.63"/><ellipse cx="4667" cy="135.63" fill="#ADD1B2" rx="11" ry="11" style="stroke:#181818;stroke-width:1.0;"/><path d="M4669.4731,141.7731 Q4668.8921,142.0719 4668.2529,142.2213 Q4667.6138,142.3707 4666.9082,142.3707 Q4664.4014,142.3707 4663.0815,140.7189 Q4661.7617,139.067 4661.7617,135.9459 Q4661.7617,132.8165 4663.0815,131.1647 Q4664.4014,129.5128 4666.9082,129.5128 Q4667.6138,129.5128 4668.2612,129.6622 Q4668.9087,129.8116 4669.4731,130.1105 L4669.4731,132.8331 Q4668.8423,132.2521 4668.2488,131.9823 Q4667.6553,131.7125 4667.0244,131.7125 Q4665.6797,131.7125 4664.9949,132.7792 Q4664.3101,133.8458 4664.3101,135.9459 Q4664.3101,138.0377 4664.9949,139.1044 Q4665.6797,140.171 4667.0244,140.171 Q4667.6553,140.171 4668.2488,139.9012 Q4668.8423,139.6315 4669.4731,139.0504 Z " fill="#000000"/><text fill="#000000" font-family="sans-serif" font-size="14" lengthAdjust="spacing" textLength="62" x="4681" y="140.921">partRolle</text><line style="stroke:#181818;stroke-width:0.5;" x1="4653" x2="4745" y1="151.63" y2="151.63"/><line style="stroke:#181818;stroke-width:0.5;" x1="4653" x2="4745" y1="159.63" y2="159.63"/></g><!--class presedensStatus--><g id="elem_presedensStatus"><rect codeLine="89" fill="#F1F1F1" height="48" id="presedensStatus" rx="2.5" ry="2.5" style="stroke:#181818;stroke-width:0.5;" width="145" x="4781.5" y="119.63"/><ellipse cx="4796.5" cy="135.63" fill="#ADD1B2" rx="11" ry="11" style="stroke:#181818;stroke-width:1.0;"/><path d="M4798.9731,141.7731 Q4798.3921,142.0719 4797.7529,142.2213 Q4797.1138,142.3707 4796.4082,142.3707 Q4793.9014,142.3707 4792.5815,140.7189 Q4791.2617,139.067 4791.2617,135.9459 Q4791.2617,132.8165 4792.5815,131.1647 Q4793.9014,129.5128 4796.4082,129.5128 Q4797.1138,129.5128 4797.7612,129.6622 Q4798.4087,129.8116 4798.9731,130.1105 L4798.9731,132.8331 Q4798.3423,132.2521 4797.7488,131.9823 Q4797.1553,131.7125 4796.5244,131.7125 Q4795.1797,131.7125 4794.4949,132.7792 Q4793.8101,133.8458 4793.8101,135.9459 Q4793.8101,138.0377 4794.4949,139.1044 Q4795.1797,140.171 4796.5244,140.171 Q4797.1553,140.171 4797.7488,139.9012 Q4798.3423,139.6315 4798.9731,139.0504 Z " fill="#000000"/><text fill="#000000" font-family="sans-serif" font-size="14" lengthAdjust="spacing" textLength="113" x="4810.5" y="140.921">presedensStatus</text><line style="stroke:#181818;stroke-width:0.5;" x1="4782.5" x2="4925.5" y1="151.63" y2="151.63"/><line style="stroke:#181818;stroke-width:0.5;" x1="4782.5" x2="4925.5" y1="159.63" y2="159.63"/></g><!--class referanseTilJournalpost--><g id="elem_referanseTilJournalpost"><rect codeLine="92" fill="#F1F1F1" height="130.4414" id="referanseTilJournalpost" rx="2.5" ry="2.5" style="stroke:#181818;stroke-width:0.5;" width="372" x="7602" y="78.41"/><ellipse cx="7703.25" cy="94.41" fill="#ADD1B2" rx="11" ry="11" style="stroke:#181818;stroke-width:1.0;"/><path d="M7705.7231,100.5531 Q7705.1421,100.8519 7704.5029,101.0013 Q7703.8638,101.1507 7703.1582,101.1507 Q7700.6514,101.1507 7699.3315,99.4989 Q7698.0117,97.847 7698.0117,94.7259 Q7698.0117,91.5965 7699.3315,89.9447 Q7700.6514,88.2928 7703.1582,88.2928 Q7703.8638,88.2928 7704.5112,88.4422 Q7705.1587,88.5916 7705.7231,88.8905 L7705.7231,91.6131 Q7705.0923,91.0321 7704.4988,90.7623 Q7703.9053,90.4925 7703.2744,90.4925 Q7701.9297,90.4925 7701.2449,91.5592 Q7700.5601,92.6258 7700.5601,94.7259 Q7700.5601,96.8177 7701.2449,97.8844 Q7701.9297,98.951 7703.2744,98.951 Q7703.9053,98.951 7704.4988,98.6812 Q7705.0923,98.4115 7705.7231,97.8304 Z " fill="#000000"/><text fill="#000000" font-family="sans-serif" font-size="14" lengthAdjust="spacing" textLength="161" x="7723.75" y="99.701">referanseTilJournalpost</text><line style="stroke:#181818;stroke-width:0.5;" x1="7603" x2="7973" y1="110.41" y2="110.41"/><ellipse cx="7613" cy="124.1541" fill="none" rx="3" ry="3" style="stroke:#038048;stroke-width:1.0;"/><text fill="#000000" font-family="sans-serif" font-size="14" lengthAdjust="spacing" textLength="134" x="7622" y="127.9452">systemID : systemID</text><ellipse cx="7613" cy="140.6424" fill="none" rx="3" ry="3" style="stroke:#038048;stroke-width:1.0;"/><text fill="#000000" font-family="sans-serif" font-size="14" lengthAdjust="spacing" textLength="154" x="7622" y="144.4334">registreringsID : string</text><ellipse cx="7613" cy="157.1307" fill="none" rx="3" ry="3" style="stroke:#038048;stroke-width:1.0;"/><text fill="#000000" font-family="sans-serif" font-size="14" lengthAdjust="spacing" textLength="226" x="7622" y="160.9217">journalnummer : journalnummer</text><ellipse cx="7613" cy="173.619" fill="none" rx="3" ry="3" style="stroke:#038048;stroke-width:1.0;"/><text fill="#000000" font-family="sans-serif" font-size="14" lengthAdjust="spacing" textLength="346" x="7622" y="177.41">saksJournalpostnummer : saksJournalpostnummer</text><ellipse cx="7613" cy="190.1073" fill="none" rx="3" ry="3" style="stroke:#038048;stroke-width:1.0;"/><text fill="#000000" font-family="sans-serif" font-size="14" lengthAdjust="spacing" textLength="289" x="7622" y="193.8983">referanseEksternNoekkel : eksternNoekkel</text><line style="stroke:#181818;stroke-width:0.5;" x1="7603" x2="7973" y1="200.8514" y2="200.8514"/></g><!--class referanseTilMappe--><g id="elem_referanseTilMappe"><rect codeLine="99" fill="#F1F1F1" height="113.9531" id="referanseTilMappe" rx="2.5" ry="2.5" style="stroke:#181818;stroke-width:0.5;" width="315" x="7083.5" y="277.09"/><ellipse cx="7172.75" cy="293.09" fill="#ADD1B2" rx="11" ry="11" style="stroke:#181818;stroke-width:1.0;"/><path d="M7175.2231,299.2331 Q7174.6421,299.5319 7174.0029,299.6813 Q7173.3638,299.8307 7172.6582,299.8307 Q7170.1514,299.8307 7168.8315,298.1789 Q7167.5117,296.527 7167.5117,293.4059 Q7167.5117,290.2765 7168.8315,288.6247 Q7170.1514,286.9728 7172.6582,286.9728 Q7173.3638,286.9728 7174.0112,287.1222 Q7174.6587,287.2716 7175.2231,287.5705 L7175.2231,290.2931 Q7174.5923,289.7121 7173.9988,289.4423 Q7173.4053,289.1725 7172.7744,289.1725 Q7171.4297,289.1725 7170.7449,290.2392 Q7170.0601,291.3058 7170.0601,293.4059 Q7170.0601,295.4977 7170.7449,296.5644 Q7171.4297,297.631 7172.7744,297.631 Q7173.4053,297.631 7173.9988,297.3612 Q7174.5923,297.0915 7175.2231,296.5104 Z " fill="#000000"/><text fill="#000000" font-family="sans-serif" font-size="14" lengthAdjust="spacing" textLength="128" x="7193.25" y="298.381">referanseTilMappe</text><line style="stroke:#181818;stroke-width:0.5;" x1="7084.5" x2="7397.5" y1="309.09" y2="309.09"/><ellipse cx="7094.5" cy="322.8341" fill="none" rx="3" ry="3" style="stroke:#038048;stroke-width:1.0;"/><text fill="#000000" font-family="sans-serif" font-size="14" lengthAdjust="spacing" textLength="134" x="7103.5" y="326.6252">systemID : systemID</text><ellipse cx="7094.5" cy="339.3224" fill="none" rx="3" ry="3" style="stroke:#038048;stroke-width:1.0;"/><text fill="#000000" font-family="sans-serif" font-size="14" lengthAdjust="spacing" textLength="113" x="7103.5" y="343.1134">mappeID : string</text><ellipse cx="7094.5" cy="355.8107" fill="none" rx="3" ry="3" style="stroke:#038048;stroke-width:1.0;"/><text fill="#000000" font-family="sans-serif" font-size="14" lengthAdjust="spacing" textLength="188" x="7103.5" y="359.6017">saksnummer : saksnummer</text><ellipse cx="7094.5" cy="372.299" fill="none" rx="3" ry="3" style="stroke:#038048;stroke-width:1.0;"/><text fill="#000000" font-family="sans-serif" font-size="14" lengthAdjust="spacing" textLength="289" x="7103.5" y="376.09">referanseEksternNoekkel : eksternNoekkel</text><line style="stroke:#181818;stroke-width:0.5;" x1="7084.5" x2="7397.5" y1="383.0431" y2="383.0431"/></g><!--class referanseTilRegistrering--><g id="elem_referanseTilRegistrering"><rect codeLine="105" fill="#F1F1F1" height="130.4414" id="referanseTilRegistrering" rx="2.5" ry="2.5" style="stroke:#181818;stroke-width:0.5;" width="372" x="7434" y="268.85"/><ellipse cx="7532.75" cy="284.85" fill="#ADD1B2" rx="11" ry="11" style="stroke:#181818;stroke-width:1.0;"/><path d="M7535.2231,290.9931 Q7534.6421,291.2919 7534.0029,291.4413 Q7533.3638,291.5907 7532.6582,291.5907 Q7530.1514,291.5907 7528.8315,289.9389 Q7527.5117,288.287 7527.5117,285.1659 Q7527.5117,282.0365 7528.8315,280.3847 Q7530.1514,278.7328 7532.6582,278.7328 Q7533.3638,278.7328 7534.0112,278.8822 Q7534.6587,279.0316 7535.2231,279.3305 L7535.2231,282.0531 Q7534.5923,281.4721 7533.9988,281.2023 Q7533.4053,280.9325 7532.7744,280.9325 Q7531.4297,280.9325 7530.7449,281.9992 Q7530.0601,283.0658 7530.0601,285.1659 Q7530.0601,287.2577 7530.7449,288.3244 Q7531.4297,289.391 7532.7744,289.391 Q7533.4053,289.391 7533.9988,289.1212 Q7534.5923,288.8515 7535.2231,288.2704 Z " fill="#000000"/><text fill="#000000" font-family="sans-serif" font-size="14" lengthAdjust="spacing" textLength="166" x="7553.25" y="290.141">referanseTilRegistrering</text><line style="stroke:#181818;stroke-width:0.5;" x1="7435" x2="7805" y1="300.85" y2="300.85"/><ellipse cx="7445" cy="314.5941" fill="none" rx="3" ry="3" style="stroke:#038048;stroke-width:1.0;"/><text fill="#000000" font-family="sans-serif" font-size="14" lengthAdjust="spacing" textLength="134" x="7454" y="318.3852">systemID : systemID</text><ellipse cx="7445" cy="331.0824" fill="none" rx="3" ry="3" style="stroke:#038048;stroke-width:1.0;"/><text fill="#000000" font-family="sans-serif" font-size="14" lengthAdjust="spacing" textLength="154" x="7454" y="334.8734">registreringsID : string</text><ellipse cx="7445" cy="347.5707" fill="none" rx="3" ry="3" style="stroke:#038048;stroke-width:1.0;"/><text fill="#000000" font-family="sans-serif" font-size="14" lengthAdjust="spacing" textLength="226" x="7454" y="351.3617">journalnummer : journalnummer</text><ellipse cx="7445" cy="364.059" fill="none" rx="3" ry="3" style="stroke:#038048;stroke-width:1.0;"/><text fill="#000000" font-family="sans-serif" font-size="14" lengthAdjust="spacing" textLength="346" x="7454" y="367.85">saksJournalpostnummer : saksJournalpostnummer</text><ellipse cx="7445" cy="380.5473" fill="none" rx="3" ry="3" style="stroke:#038048;stroke-width:1.0;"/><text fill="#000000" font-family="sans-serif" font-size="14" lengthAdjust="spacing" textLength="289" x="7454" y="384.3383">referanseEksternNoekkel : eksternNoekkel</text><line style="stroke:#181818;stroke-width:0.5;" x1="7435" x2="7805" y1="391.2914" y2="391.2914"/></g><!--class saksJournalpostnummer--><g id="elem_saksJournalpostnummer"><rect codeLine="112" fill="#F1F1F1" height="64.4883" id="saksJournalpostnummer" rx="2.5" ry="2.5" style="stroke:#181818;stroke-width:0.5;" width="199" x="6699.5" y="111.38"/><ellipse cx="6714.5" cy="127.38" fill="#ADD1B2" rx="11" ry="11" style="stroke:#181818;stroke-width:1.0;"/><path d="M6716.9731,133.5231 Q6716.3921,133.8219 6715.7529,133.9713 Q6715.1138,134.1207 6714.4082,134.1207 Q6711.9014,134.1207 6710.5815,132.4689 Q6709.2617,130.817 6709.2617,127.6959 Q6709.2617,124.5665 6710.5815,122.9147 Q6711.9014,121.2628 6714.4082,121.2628 Q6715.1138,121.2628 6715.7612,121.4122 Q6716.4087,121.5616 6716.9731,121.8605 L6716.9731,124.5831 Q6716.3423,124.0021 6715.7488,123.7323 Q6715.1553,123.4625 6714.5244,123.4625 Q6713.1797,123.4625 6712.4949,124.5292 Q6711.8101,125.5958 6711.8101,127.6959 Q6711.8101,129.7877 6712.4949,130.8544 Q6713.1797,131.921 6714.5244,131.921 Q6715.1553,131.921 6715.7488,131.6512 Q6716.3423,131.3815 6716.9731,130.8004 Z " fill="#000000"/><text fill="#000000" font-family="sans-serif" font-size="14" lengthAdjust="spacing" textLength="167" x="6728.5" y="132.671">saksJournalpostnummer</text><line style="stroke:#181818;stroke-width:0.5;" x1="6700.5" x2="6897.5" y1="143.38" y2="143.38"/><ellipse cx="6710.5" cy="157.1241" fill="none" rx="3" ry="3" style="stroke:#038048;stroke-width:1.0;"/><text fill="#000000" font-family="sans-serif" font-size="14" lengthAdjust="spacing" textLength="167" x="6719.5" y="160.9152">journalpostnummer : int</text><line style="stroke:#181818;stroke-width:0.5;" x1="6700.5" x2="6897.5" y1="167.8683" y2="167.8683"/></g><!--class saksnummer--><g id="elem_saksnummer"><rect codeLine="122" fill="#F1F1F1" height="80.9766" id="saksnummer" rx="2.5" ry="2.5" style="stroke:#181818;stroke-width:0.5;" width="198" x="6934" y="103.14"/><ellipse cx="6984.75" cy="119.14" fill="#ADD1B2" rx="11" ry="11" style="stroke:#181818;stroke-width:1.0;"/><path d="M6987.2231,125.2831 Q6986.6421,125.5819 6986.0029,125.7313 Q6985.3638,125.8807 6984.6582,125.8807 Q6982.1514,125.8807 6980.8315,124.2289 Q6979.5117,122.577 6979.5117,119.4559 Q6979.5117,116.3265 6980.8315,114.6747 Q6982.1514,113.0228 6984.6582,113.0228 Q6985.3638,113.0228 6986.0112,113.1722 Q6986.6587,113.3216 6987.2231,113.6205 L6987.2231,116.3431 Q6986.5923,115.7621 6985.9988,115.4923 Q6985.4053,115.2225 6984.7744,115.2225 Q6983.4297,115.2225 6982.7449,116.2892 Q6982.0601,117.3558 6982.0601,119.4559 Q6982.0601,121.5477 6982.7449,122.6144 Q6983.4297,123.681 6984.7744,123.681 Q6985.4053,123.681 6985.9988,123.4112 Q6986.5923,123.1415 6987.2231,122.5604 Z " fill="#000000"/><text fill="#000000" font-family="sans-serif" font-size="14" lengthAdjust="spacing" textLength="88" x="7005.25" y="124.431">saksnummer</text><line style="stroke:#181818;stroke-width:0.5;" x1="6935" x2="7131" y1="135.14" y2="135.14"/><ellipse cx="6945" cy="148.8841" fill="none" rx="3" ry="3" style="stroke:#038048;stroke-width:1.0;"/><text fill="#000000" font-family="sans-serif" font-size="14" lengthAdjust="spacing" textLength="82" x="6954" y="152.6752">saksaar : int</text><ellipse cx="6945" cy="165.3724" fill="none" rx="3" ry="3" style="stroke:#038048;stroke-width:1.0;"/><text fill="#000000" font-family="sans-serif" font-size="14" lengthAdjust="spacing" textLength="172" x="6954" y="169.1634">sakssekvensnummer : int</text><line style="stroke:#181818;stroke-width:0.5;" x1="6935" x2="7131" y1="176.1166" y2="176.1166"/></g><!--class saksansvarlig--><g id="elem_saksansvarlig"><rect codeLine="116" fill="#F1F1F1" height="48" id="saksansvarlig" rx="2.5" ry="2.5" style="stroke:#181818;stroke-width:0.5;" width="124" x="202" y="119.63"/><ellipse cx="217" cy="135.63" fill="#ADD1B2" rx="11" ry="11" style="stroke:#181818;stroke-width:1.0;"/><path d="M219.4731,141.7731 Q218.8921,142.0719 218.2529,142.2213 Q217.6138,142.3707 216.9082,142.3707 Q214.4014,142.3707 213.0815,140.7189 Q211.7617,139.067 211.7617,135.9459 Q211.7617,132.8165 213.0815,131.1647 Q214.4014,129.5128 216.9082,129.5128 Q217.6138,129.5128 218.2612,129.6622 Q218.9087,129.8116 219.4731,130.1105 L219.4731,132.8331 Q218.8423,132.2521 218.2488,131.9823 Q217.6553,131.7125 217.0244,131.7125 Q215.6797,131.7125 214.9949,132.7792 Q214.3101,133.8458 214.3101,135.9459 Q214.3101,138.0377 214.9949,139.1044 Q215.6797,140.171 217.0244,140.171 Q217.6553,140.171 218.2488,139.9012 Q218.8423,139.6315 219.4731,139.0504 Z " fill="#000000"/><text fill="#000000" font-family="sans-serif" font-size="14" lengthAdjust="spacing" textLength="92" x="231" y="140.921">saksansvarlig</text><line style="stroke:#181818;stroke-width:0.5;" x1="203" x2="325" y1="151.63" y2="151.63"/><line style="stroke:#181818;stroke-width:0.5;" x1="203" x2="325" y1="159.63" y2="159.63"/></g><!--class saksbehandler--><g id="elem_saksbehandler"><rect codeLine="119" fill="#F1F1F1" height="48" id="saksbehandler" rx="2.5" ry="2.5" style="stroke:#181818;stroke-width:0.5;" width="132" x="361" y="119.63"/><ellipse cx="376" cy="135.63" fill="#ADD1B2" rx="11" ry="11" style="stroke:#181818;stroke-width:1.0;"/><path d="M378.4731,141.7731 Q377.8921,142.0719 377.2529,142.2213 Q376.6138,142.3707 375.9082,142.3707 Q373.4014,142.3707 372.0815,140.7189 Q370.7617,139.067 370.7617,135.9459 Q370.7617,132.8165 372.0815,131.1647 Q373.4014,129.5128 375.9082,129.5128 Q376.6138,129.5128 377.2612,129.6622 Q377.9087,129.8116 378.4731,130.1105 L378.4731,132.8331 Q377.8423,132.2521 377.2488,131.9823 Q376.6553,131.7125 376.0244,131.7125 Q374.6797,131.7125 373.9949,132.7792 Q373.3101,133.8458 373.3101,135.9459 Q373.3101,138.0377 373.9949,139.1044 Q374.6797,140.171 376.0244,140.171 Q376.6553,140.171 377.2488,139.9012 Q377.8423,139.6315 378.4731,139.0504 Z " fill="#000000"/><text fill="#000000" font-family="sans-serif" font-size="14" lengthAdjust="spacing" textLength="100" x="390" y="140.921">saksbehandler</text><line style="stroke:#181818;stroke-width:0.5;" x1="362" x2="492" y1="151.63" y2="151.63"/><line style="stroke:#181818;stroke-width:0.5;" x1="362" x2="492" y1="159.63" y2="159.63"/></g><!--class saksstatus--><g id="elem_saksstatus"><rect codeLine="126" fill="#F1F1F1" height="48" id="saksstatus" rx="2.5" ry="2.5" style="stroke:#181818;stroke-width:0.5;" width="103" x="4961.5" y="119.63"/><ellipse cx="4976.5" cy="135.63" fill="#ADD1B2" rx="11" ry="11" style="stroke:#181818;stroke-width:1.0;"/><path d="M4978.9731,141.7731 Q4978.3921,142.0719 4977.7529,142.2213 Q4977.1138,142.3707 4976.4082,142.3707 Q4973.9014,142.3707 4972.5815,140.7189 Q4971.2617,139.067 4971.2617,135.9459 Q4971.2617,132.8165 4972.5815,131.1647 Q4973.9014,129.5128 4976.4082,129.5128 Q4977.1138,129.5128 4977.7612,129.6622 Q4978.4087,129.8116 4978.9731,130.1105 L4978.9731,132.8331 Q4978.3423,132.2521 4977.7488,131.9823 Q4977.1553,131.7125 4976.5244,131.7125 Q4975.1797,131.7125 4974.4949,132.7792 Q4973.8101,133.8458 4973.8101,135.9459 Q4973.8101,138.0377 4974.4949,139.1044 Q4975.1797,140.171 4976.5244,140.171 Q4977.1553,140.171 4977.7488,139.9012 Q4978.3423,139.6315 4978.9731,139.0504 Z " fill="#000000"/><text fill="#000000" font-family="sans-serif" font-size="14" lengthAdjust="spacing" textLength="71" x="4990.5" y="140.921">saksstatus</text><line style="stroke:#181818;stroke-width:0.5;" x1="4962.5" x2="5063.5" y1="151.63" y2="151.63"/><line style="stroke:#181818;stroke-width:0.5;" x1="4962.5" x2="5063.5" y1="159.63" y2="159.63"/></g><!--class skjermingDokument--><g id="elem_skjermingDokument"><rect codeLine="129" fill="#F1F1F1" height="48" id="skjermingDokument" rx="2.5" ry="2.5" style="stroke:#181818;stroke-width:0.5;" width="171" x="5099.5" y="119.63"/><ellipse cx="5114.5" cy="135.63" fill="#ADD1B2" rx="11" ry="11" style="stroke:#181818;stroke-width:1.0;"/><path d="M5116.9731,141.7731 Q5116.3921,142.0719 5115.7529,142.2213 Q5115.1138,142.3707 5114.4082,142.3707 Q5111.9014,142.3707 5110.5815,140.7189 Q5109.2617,139.067 5109.2617,135.9459 Q5109.2617,132.8165 5110.5815,131.1647 Q5111.9014,129.5128 5114.4082,129.5128 Q5115.1138,129.5128 5115.7612,129.6622 Q5116.4087,129.8116 5116.9731,130.1105 L5116.9731,132.8331 Q5116.3423,132.2521 5115.7488,131.9823 Q5115.1553,131.7125 5114.5244,131.7125 Q5113.1797,131.7125 5112.4949,132.7792 Q5111.8101,133.8458 5111.8101,135.9459 Q5111.8101,138.0377 5112.4949,139.1044 Q5113.1797,140.171 5114.5244,140.171 Q5115.1553,140.171 5115.7488,139.9012 Q5116.3423,139.6315 5116.9731,139.0504 Z " fill="#000000"/><text fill="#000000" font-family="sans-serif" font-size="14" lengthAdjust="spacing" textLength="139" x="5128.5" y="140.921">skjermingDokument</text><line style="stroke:#181818;stroke-width:0.5;" x1="5100.5" x2="5269.5" y1="151.63" y2="151.63"/><line style="stroke:#181818;stroke-width:0.5;" x1="5100.5" x2="5269.5" y1="159.63" y2="159.63"/></g><!--class skjermingMetadata--><g id="elem_skjermingMetadata"><rect codeLine="132" fill="#F1F1F1" height="48" id="skjermingMetadata" rx="2.5" ry="2.5" style="stroke:#181818;stroke-width:0.5;" width="163" x="5305.5" y="119.63"/><ellipse cx="5320.5" cy="135.63" fill="#ADD1B2" rx="11" ry="11" style="stroke:#181818;stroke-width:1.0;"/><path d="M5322.9731,141.7731 Q5322.3921,142.0719 5321.7529,142.2213 Q5321.1138,142.3707 5320.4082,142.3707 Q5317.9014,142.3707 5316.5815,140.7189 Q5315.2617,139.067 5315.2617,135.9459 Q5315.2617,132.8165 5316.5815,131.1647 Q5317.9014,129.5128 5320.4082,129.5128 Q5321.1138,129.5128 5321.7612,129.6622 Q5322.4087,129.8116 5322.9731,130.1105 L5322.9731,132.8331 Q5322.3423,132.2521 5321.7488,131.9823 Q5321.1553,131.7125 5320.5244,131.7125 Q5319.1797,131.7125 5318.4949,132.7792 Q5317.8101,133.8458 5317.8101,135.9459 Q5317.8101,138.0377 5318.4949,139.1044 Q5319.1797,140.171 5320.5244,140.171 Q5321.1553,140.171 5321.7488,139.9012 Q5322.3423,139.6315 5322.9731,139.0504 Z " fill="#000000"/><text fill="#000000" font-family="sans-serif" font-size="14" lengthAdjust="spacing" textLength="131" x="5334.5" y="140.921">skjermingMetadata</text><line style="stroke:#181818;stroke-width:0.5;" x1="5306.5" x2="5467.5" y1="151.63" y2="151.63"/><line style="stroke:#181818;stroke-width:0.5;" x1="5306.5" x2="5467.5" y1="159.63" y2="159.63"/></g><!--class skjermingOpphoererAksjon--><g id="elem_skjermingOpphoererAksjon"><rect codeLine="135" fill="#F1F1F1" height="48" id="skjermingOpphoererAksjon" rx="2.5" ry="2.5" style="stroke:#181818;stroke-width:0.5;" width="222" x="5503" y="119.63"/><ellipse cx="5518" cy="135.63" fill="#ADD1B2" rx="11" ry="11" style="stroke:#181818;stroke-width:1.0;"/><path d="M5520.4731,141.7731 Q5519.8921,142.0719 5519.2529,142.2213 Q5518.6138,142.3707 5517.9082,142.3707 Q5515.4014,142.3707 5514.0815,140.7189 Q5512.7617,139.067 5512.7617,135.9459 Q5512.7617,132.8165 5514.0815,131.1647 Q5515.4014,129.5128 5517.9082,129.5128 Q5518.6138,129.5128 5519.2612,129.6622 Q5519.9087,129.8116 5520.4731,130.1105 L5520.4731,132.8331 Q5519.8423,132.2521 5519.2488,131.9823 Q5518.6553,131.7125 5518.0244,131.7125 Q5516.6797,131.7125 5515.9949,132.7792 Q5515.3101,133.8458 5515.3101,135.9459 Q5515.3101,138.0377 5515.9949,139.1044 Q5516.6797,140.171 5518.0244,140.171 Q5518.6553,140.171 5519.2488,139.9012 Q5519.8423,139.6315 5520.4731,139.0504 Z " fill="#000000"/><text fill="#000000" font-family="sans-serif" font-size="14" lengthAdjust="spacing" textLength="190" x="5532" y="140.921">skjermingOpphoererAksjon</text><line style="stroke:#181818;stroke-width:0.5;" x1="5504" x2="5724" y1="151.63" y2="151.63"/><line style="stroke:#181818;stroke-width:0.5;" x1="5504" x2="5724" y1="159.63" y2="159.63"/></g><!--class slettingstype--><g id="elem_slettingstype"><rect codeLine="138" fill="#F1F1F1" height="48" id="slettingstype" rx="2.5" ry="2.5" style="stroke:#181818;stroke-width:0.5;" width="119" x="5759.5" y="119.63"/><ellipse cx="5774.5" cy="135.63" fill="#ADD1B2" rx="11" ry="11" style="stroke:#181818;stroke-width:1.0;"/><path d="M5776.9731,141.7731 Q5776.3921,142.0719 5775.7529,142.2213 Q5775.1138,142.3707 5774.4082,142.3707 Q5771.9014,142.3707 5770.5815,140.7189 Q5769.2617,139.067 5769.2617,135.9459 Q5769.2617,132.8165 5770.5815,131.1647 Q5771.9014,129.5128 5774.4082,129.5128 Q5775.1138,129.5128 5775.7612,129.6622 Q5776.4087,129.8116 5776.9731,130.1105 L5776.9731,132.8331 Q5776.3423,132.2521 5775.7488,131.9823 Q5775.1553,131.7125 5774.5244,131.7125 Q5773.1797,131.7125 5772.4949,132.7792 Q5771.8101,133.8458 5771.8101,135.9459 Q5771.8101,138.0377 5772.4949,139.1044 Q5773.1797,140.171 5774.5244,140.171 Q5775.1553,140.171 5775.7488,139.9012 Q5776.3423,139.6315 5776.9731,139.0504 Z " fill="#000000"/><text fill="#000000" font-family="sans-serif" font-size="14" lengthAdjust="spacing" textLength="87" x="5788.5" y="140.921">slettingstype</text><line style="stroke:#181818;stroke-width:0.5;" x1="5760.5" x2="5877.5" y1="151.63" y2="151.63"/><line style="stroke:#181818;stroke-width:0.5;" x1="5760.5" x2="5877.5" y1="159.63" y2="159.63"/></g><!--class systemID--><g id="elem_systemID"><rect codeLine="141" fill="#F1F1F1" height="80.9766" id="systemID" rx="2.5" ry="2.5" style="stroke:#181818;stroke-width:0.5;" width="114" x="7841" y="293.58"/><ellipse cx="7865.45" cy="309.58" fill="#ADD1B2" rx="11" ry="11" style="stroke:#181818;stroke-width:1.0;"/><path d="M7867.9231,315.7231 Q7867.3421,316.0219 7866.7029,316.1713 Q7866.0638,316.3207 7865.3582,316.3207 Q7862.8514,316.3207 7861.5315,314.6689 Q7860.2117,313.017 7860.2117,309.8959 Q7860.2117,306.7665 7861.5315,305.1147 Q7862.8514,303.4628 7865.3582,303.4628 Q7866.0638,303.4628 7866.7112,303.6122 Q7867.3587,303.7616 7867.9231,304.0605 L7867.9231,306.7831 Q7867.2923,306.2021 7866.6988,305.9323 Q7866.1053,305.6625 7865.4744,305.6625 Q7864.1297,305.6625 7863.4449,306.7292 Q7862.7601,307.7958 7862.7601,309.8959 Q7862.7601,311.9877 7863.4449,313.0544 Q7864.1297,314.121 7865.4744,314.121 Q7866.1053,314.121 7866.6988,313.8512 Q7867.2923,313.5815 7867.9231,313.0004 Z " fill="#000000"/><text fill="#000000" font-family="sans-serif" font-size="14" lengthAdjust="spacing" textLength="61" x="7881.55" y="314.871">systemID</text><line style="stroke:#181818;stroke-width:0.5;" x1="7842" x2="7954" y1="325.58" y2="325.58"/><ellipse cx="7852" cy="339.3241" fill="none" rx="3" ry="3" style="stroke:#038048;stroke-width:1.0;"/><text fill="#000000" font-family="sans-serif" font-size="14" lengthAdjust="spacing" textLength="88" x="7861" y="343.1152">value : string</text><ellipse cx="7852" cy="355.8124" fill="none" rx="3" ry="3" style="stroke:#038048;stroke-width:1.0;"/><text fill="#000000" font-family="sans-serif" font-size="14" lengthAdjust="spacing" textLength="85" x="7861" y="359.6034">label : string</text><line style="stroke:#181818;stroke-width:0.5;" x1="7842" x2="7954" y1="366.5566" y2="366.5566"/></g><!--class tilgangsrestriksjon--><g id="elem_tilgangsrestriksjon"><rect codeLine="145" fill="#F1F1F1" height="48" id="tilgangsrestriksjon" rx="2.5" ry="2.5" style="stroke:#181818;stroke-width:0.5;" width="160" x="5914" y="119.63"/><ellipse cx="5929" cy="135.63" fill="#ADD1B2" rx="11" ry="11" style="stroke:#181818;stroke-width:1.0;"/><path d="M5931.4731,141.7731 Q5930.8921,142.0719 5930.2529,142.2213 Q5929.6138,142.3707 5928.9082,142.3707 Q5926.4014,142.3707 5925.0815,140.7189 Q5923.7617,139.067 5923.7617,135.9459 Q5923.7617,132.8165 5925.0815,131.1647 Q5926.4014,129.5128 5928.9082,129.5128 Q5929.6138,129.5128 5930.2612,129.6622 Q5930.9087,129.8116 5931.4731,130.1105 L5931.4731,132.8331 Q5930.8423,132.2521 5930.2488,131.9823 Q5929.6553,131.7125 5929.0244,131.7125 Q5927.6797,131.7125 5926.9949,132.7792 Q5926.3101,133.8458 5926.3101,135.9459 Q5926.3101,138.0377 5926.9949,139.1044 Q5927.6797,140.171 5929.0244,140.171 Q5929.6553,140.171 5930.2488,139.9012 Q5930.8423,139.6315 5931.4731,139.0504 Z " fill="#000000"/><text fill="#000000" font-family="sans-serif" font-size="14" lengthAdjust="spacing" textLength="128" x="5943" y="140.921">tilgangsrestriksjon</text><line style="stroke:#181818;stroke-width:0.5;" x1="5915" x2="6073" y1="151.63" y2="151.63"/><line style="stroke:#181818;stroke-width:0.5;" x1="5915" x2="6073" y1="159.63" y2="159.63"/></g><!--class tilknyttetRegistreringSom--><g id="elem_tilknyttetRegistreringSom"><rect codeLine="148" fill="#F1F1F1" height="48" id="tilknyttetRegistreringSom" rx="2.5" ry="2.5" style="stroke:#181818;stroke-width:0.5;" width="206" x="6109" y="119.63"/><ellipse cx="6124" cy="135.63" fill="#ADD1B2" rx="11" ry="11" style="stroke:#181818;stroke-width:1.0;"/><path d="M6126.4731,141.7731 Q6125.8921,142.0719 6125.2529,142.2213 Q6124.6138,142.3707 6123.9082,142.3707 Q6121.4014,142.3707 6120.0815,140.7189 Q6118.7617,139.067 6118.7617,135.9459 Q6118.7617,132.8165 6120.0815,131.1647 Q6121.4014,129.5128 6123.9082,129.5128 Q6124.6138,129.5128 6125.2612,129.6622 Q6125.9087,129.8116 6126.4731,130.1105 L6126.4731,132.8331 Q6125.8423,132.2521 6125.2488,131.9823 Q6124.6553,131.7125 6124.0244,131.7125 Q6122.6797,131.7125 6121.9949,132.7792 Q6121.3101,133.8458 6121.3101,135.9459 Q6121.3101,138.0377 6121.9949,139.1044 Q6122.6797,140.171 6124.0244,140.171 Q6124.6553,140.171 6125.2488,139.9012 Q6125.8423,139.6315 6126.4731,139.0504 Z " fill="#000000"/><text fill="#000000" font-family="sans-serif" font-size="14" lengthAdjust="spacing" textLength="174" x="6138" y="140.921">tilknyttetRegistreringSom</text><line style="stroke:#181818;stroke-width:0.5;" x1="6110" x2="6314" y1="151.63" y2="151.63"/><line style="stroke:#181818;stroke-width:0.5;" x1="6110" x2="6314" y1="159.63" y2="159.63"/></g><!--class variantformat--><g id="elem_variantformat"><rect codeLine="151" fill="#F1F1F1" height="48" id="variantformat" rx="2.5" ry="2.5" style="stroke:#181818;stroke-width:0.5;" width="125" x="6349.5" y="119.63"/><ellipse cx="6364.5" cy="135.63" fill="#ADD1B2" rx="11" ry="11" style="stroke:#181818;stroke-width:1.0;"/><path d="M6366.9731,141.7731 Q6366.3921,142.0719 6365.7529,142.2213 Q6365.1138,142.3707 6364.4082,142.3707 Q6361.9014,142.3707 6360.5815,140.7189 Q6359.2617,139.067 6359.2617,135.9459 Q6359.2617,132.8165 6360.5815,131.1647 Q6361.9014,129.5128 6364.4082,129.5128 Q6365.1138,129.5128 6365.7612,129.6622 Q6366.4087,129.8116 6366.9731,130.1105 L6366.9731,132.8331 Q6366.3423,132.2521 6365.7488,131.9823 Q6365.1553,131.7125 6364.5244,131.7125 Q6363.1797,131.7125 6362.4949,132.7792 Q6361.8101,133.8458 6361.8101,135.9459 Q6361.8101,138.0377 6362.4949,139.1044 Q6363.1797,140.171 6364.5244,140.171 Q6365.1553,140.171 6365.7488,139.9012 Q6366.3423,139.6315 6366.9731,139.0504 Z " fill="#000000"/><text fill="#000000" font-family="sans-serif" font-size="14" lengthAdjust="spacing" textLength="93" x="6378.5" y="140.921">variantformat</text><line style="stroke:#181818;stroke-width:0.5;" x1="6350.5" x2="6473.5" y1="151.63" y2="151.63"/><line style="stroke:#181818;stroke-width:0.5;" x1="6350.5" x2="6473.5" y1="159.63" y2="159.63"/></g><!--reverse link administrativEnhet to identifikatorer--><g id="link_administrativEnhet_identifikatorer"><path codeLine="4" d="M116.42,109.37 C137.76,87.3 168.72,60.54 202.5,48.41 C263.15,26.63 431.67,27.13 492.5,48.41 C515.54,56.46 537.45,71.03 556.07,86.38 " fill="none" id="administrativEnhet-backto-identifikatorer" style="stroke:#181818;stroke-width:1.0;"/><polygon fill="#181818" points="108.04,118.43,115.0586,116.7748,116.2302,109.6595,109.2116,111.3147,108.04,118.43" style="stroke:#181818;stroke-width:1.0;"/></g><!--reverse link arkivdelstatus to kode--><g id="link_arkivdelstatus_kode"><path codeLine="7" d="M819.77,108.59 C837.49,86.74 863.46,60.55 893.5,48.41 C965.36,19.35 6401.72,21.74 6474.5,48.41 C6504.53,59.41 6532.06,82.37 6552.37,102.99 " fill="none" id="arkivdelstatus-backto-kode" style="stroke:#181818;stroke-width:1.0;"/><polygon fill="#181818" points="811.28,118.52,818.1186,116.2324,818.6372,109.04,811.7986,111.3276,811.28,118.52" style="stroke:#181818;stroke-width:1.0;"/></g><!--reverse link arkivstatus to kode--><g id="link_arkivstatus_kode"><path codeLine="10" d="M967.85,107.68 C983.22,86.09 1005.92,60.52 1033.5,48.41 C1102.69,18.02 6403.54,22.41 6474.5,48.41 C6504.53,59.41 6532.06,82.37 6552.37,102.99 " fill="none" id="arkivstatus-backto-kode" style="stroke:#181818;stroke-width:1.0;"/><polygon fill="#181818" points="960.09,118.16,966.7665,115.4353,966.8193,108.2244,960.1428,110.9491,960.09,118.16" style="stroke:#181818;stroke-width:1.0;"/></g><!--reverse link avskrivningsmaate to kode--><g id="link_avskrivningsmaate_kode"><path codeLine="13" d="M1142.11,109.38 C1163.24,87.31 1193.92,60.55 1227.5,48.41 C1296.03,23.63 6406.07,23.34 6474.5,48.41 C6504.53,59.41 6532.06,82.37 6552.37,102.99 " fill="none" id="avskrivningsmaate-backto-kode" style="stroke:#181818;stroke-width:1.0;"/><polygon fill="#181818" points="1133.82,118.43,1140.8294,116.7365,1141.9621,109.6149,1134.9527,111.3084,1133.82,118.43" style="stroke:#181818;stroke-width:1.0;"/></g><!--reverse link dokumentmedium to kode--><g id="link_dokumentmedium_kode"><path codeLine="16" d="M1334.8,109.38 C1355.71,87.32 1386.11,60.56 1419.5,48.41 C1485.48,24.4 6408.58,24.25 6474.5,48.41 C6504.53,59.41 6532.06,82.37 6552.37,102.99 " fill="none" id="dokumentmedium-backto-kode" style="stroke:#181818;stroke-width:1.0;"/><polygon fill="#181818" points="1326.6,118.44,1333.6028,116.7195,1334.7081,109.5936,1327.7053,111.3141,1326.6,118.44" style="stroke:#181818;stroke-width:1.0;"/></g><!--reverse link dokumentstatus to kode--><g id="link_dokumentstatus_kode"><path codeLine="19" d="M1518.12,108.83 C1537.54,86.9 1565.79,60.52 1597.5,48.41 C1660.78,24.24 6410.9,25.1 6474.5,48.41 C6504.53,59.41 6532.06,82.37 6552.37,102.99 " fill="none" id="dokumentstatus-backto-kode" style="stroke:#181818;stroke-width:1.0;"/><polygon fill="#181818" points="1509.06,118.47,1515.9952,116.4945,1516.8391,109.3329,1509.9038,111.3084,1509.06,118.47" style="stroke:#181818;stroke-width:1.0;"/></g><!--reverse link dokumenttype to kode--><g id="link_dokumenttype_kode"><path codeLine="22" d="M1688.43,108.57 C1706.57,86.72 1733.08,60.53 1763.5,48.41 C1824.28,24.19 6413.06,25.9 6474.5,48.41 C6504.53,59.41 6532.06,82.37 6552.37,102.99 " fill="none" id="dokumenttype-backto-kode" style="stroke:#181818;stroke-width:1.0;"/><polygon fill="#181818" points="1679.73,118.51,1686.5968,116.3082,1687.2054,109.1229,1680.3387,111.3246,1679.73,118.51" style="stroke:#181818;stroke-width:1.0;"/></g><!--reverse link elektroniskSignaturSikkerhetsnivaa to kode--><g id="link_elektroniskSignaturSikkerhetsnivaa_kode"><path codeLine="29" d="M1943.1,111.54 C1976.28,88.95 2024.31,60.63 2071.5,48.41 C2189.9,17.74 6359.66,6.33 6474.5,48.41 C6504.53,59.41 6532.06,82.37 6552.37,102.99 " fill="none" id="elektroniskSignaturSikkerhetsnivaa-backto-kode" style="stroke:#181818;stroke-width:1.0;"/><polygon fill="#181818" points="1933.01,119.26,1940.2196,119.115,1942.8587,112.4041,1935.6491,112.5492,1933.01,119.26" style="stroke:#181818;stroke-width:1.0;"/></g><!--reverse link elektroniskSignaturVerifisert to kode--><g id="link_elektroniskSignaturVerifisert_kode"><path codeLine="32" d="M2223.74,110.72 C2252.08,88.3 2292.99,60.57 2334.5,48.41 C2444.86,16.06 6366.52,8.84 6474.5,48.41 C6504.53,59.41 6532.06,82.37 6552.37,102.99 " fill="none" id="elektroniskSignaturVerifisert-backto-kode" style="stroke:#181818;stroke-width:1.0;"/><polygon fill="#181818" points="2214.15,119.31,2221.3288,118.6286,2223.4609,111.7399,2216.2821,112.4213,2214.15,119.31" style="stroke:#181818;stroke-width:1.0;"/></g><!--reverse link flytStatus to kode--><g id="link_flytStatus_kode"><path codeLine="35" d="M2402.34,107.43 C2416.63,85.93 2437.93,60.54 2464.5,48.41 C2515.16,25.27 6422.21,29.25 6474.5,48.41 C6504.53,59.41 6532.06,82.37 6552.37,102.99 " fill="none" id="flytStatus-backto-kode" style="stroke:#181818;stroke-width:1.0;"/><polygon fill="#181818" points="2394.93,118.2,2401.5123,115.255,2401.3255,108.0463,2394.7432,110.9913,2394.93,118.2" style="stroke:#181818;stroke-width:1.0;"/></g><!--reverse link format to kode--><g id="link_format_kode"><path codeLine="38" d="M2520.36,107.25 C2532.73,85.85 2551.59,60.65 2576.5,48.41 C2625.09,24.53 6423.67,29.78 6474.5,48.41 C6504.53,59.41 6532.06,82.37 6552.37,102.99 " fill="none" id="format-backto-kode" style="stroke:#181818;stroke-width:1.0;"/><polygon fill="#181818" points="2513.82,118.28,2520.197,114.9135,2519.5422,107.7322,2513.1652,111.0987,2513.82,118.28" style="stroke:#181818;stroke-width:1.0;"/></g><!--reverse link grad to kode--><g id="link_grad_kode"><path codeLine="41" d="M2624.37,107.03 C2635.46,85.73 2652.69,60.72 2676.5,48.41 C2723.36,24.19 6424.97,30.26 6474.5,48.41 C6504.53,59.41 6532.06,82.37 6552.37,102.99 " fill="none" id="grad-backto-kode" style="stroke:#181818;stroke-width:1.0;"/><polygon fill="#181818" points="2618.4,118.35,2624.6166,114.6957,2623.6343,107.5518,2617.4177,111.2061,2618.4,118.35" style="stroke:#181818;stroke-width:1.0;"/></g><!--reverse link journalposttype to kode--><g id="link_journalposttype_kode"><path codeLine="54" d="M2772.8,108.84 C2792.01,86.91 2819.98,60.53 2851.5,48.41 C2945.43,12.29 6380,13.78 6474.5,48.41 C6504.53,59.41 6532.06,82.37 6552.37,102.99 " fill="none" id="journalposttype-backto-kode" style="stroke:#181818;stroke-width:1.0;"/><polygon fill="#181818" points="2763.84,118.48,2770.7643,116.4665,2771.5688,109.3004,2764.6445,111.3139,2763.84,118.48" style="stroke:#181818;stroke-width:1.0;"/></g><!--reverse link journalstatus to kode--><g id="link_journalstatus_kode"><path codeLine="57" d="M2935.79,108.61 C2952.87,86.78 2978.02,60.59 3007.5,48.41 C3096.5,11.62 6384.07,15.28 6474.5,48.41 C6504.53,59.41 6532.06,82.37 6552.37,102.99 " fill="none" id="journalstatus-backto-kode" style="stroke:#181818;stroke-width:1.0;"/><polygon fill="#181818" points="2927.61,118.54,2934.41,116.14,2934.81,108.94,2928.01,111.34,2927.61,118.54" style="stroke:#181818;stroke-width:1.0;"/></g><!--reverse link kassasjonsvedtak to kode--><g id="link_kassasjonsvedtak_kode"><path codeLine="60" d="M3111.13,109.1 C3131.4,87.1 3160.86,60.53 3193.5,48.41 C3278.94,16.67 6388.92,17.05 6474.5,48.41 C6504.53,59.41 6532.06,82.37 6552.37,102.99 " fill="none" id="kassasjonsvedtak-backto-kode" style="stroke:#181818;stroke-width:1.0;"/><polygon fill="#181818" points="3102.94,118.45,3109.9152,116.6205,3110.9091,109.4782,3103.9339,111.3077,3102.94,118.45" style="stroke:#181818;stroke-width:1.0;"/></g><!--reverse link klassifikasjonstype to kode--><g id="link_klassifikasjonstype_kode"><path codeLine="63" d="M3302.42,109.37 C3323.76,87.3 3354.72,60.54 3388.5,48.41 C3469.18,19.44 6394.01,18.92 6474.5,48.41 C6504.53,59.41 6532.06,82.37 6552.37,102.99 " fill="none" id="klassifikasjonstype-backto-kode" style="stroke:#181818;stroke-width:1.0;"/><polygon fill="#181818" points="3294.04,118.43,3301.0586,116.7748,3302.2302,109.6595,3295.2116,111.3147,3294.04,118.43" style="stroke:#181818;stroke-width:1.0;"/></g><!--reverse link korrespondanseparttype to kode--><g id="link_korrespondanseparttype_kode"><path codeLine="70" d="M3523.61,110.17 C3549.19,87.88 3586.12,60.54 3624.5,48.41 C3699.98,24.54 6400.17,21.17 6474.5,48.41 C6504.53,59.41 6532.06,82.37 6552.37,102.99 " fill="none" id="korrespondanseparttype-backto-kode" style="stroke:#181818;stroke-width:1.0;"/><polygon fill="#181818" points="3514.37,118.35,3521.5067,117.317,3523.298,110.3319,3516.1613,111.3649,3514.37,118.35" style="stroke:#181818;stroke-width:1.0;"/></g><!--reverse link merknadstype to kode--><g id="link_merknadstype_kode"><path codeLine="73" d="M3714.1,108.58 C3732.03,86.73 3758.27,60.54 3788.5,48.41 C3857.74,20.61 6404.44,22.74 6474.5,48.41 C6504.53,59.41 6532.06,82.37 6552.37,102.99 " fill="none" id="merknadstype-backto-kode" style="stroke:#181818;stroke-width:1.0;"/><polygon fill="#181818" points="3705.5,118.51,3712.353,116.2659,3712.9173,109.0769,3706.0643,111.321,3705.5,118.51" style="stroke:#181818;stroke-width:1.0;"/></g><!--reverse link moetedeltakerFunksjon to kode--><g id="link_moetedeltakerFunksjon_kode"><path codeLine="76" d="M3918.71,110.18 C3943.66,87.9 3979.75,60.56 4017.5,48.41 C4082.46,27.49 6410.42,24.93 6474.5,48.41 C6504.53,59.41 6532.06,82.37 6552.37,102.99 " fill="none" id="moetedeltakerFunksjon-backto-kode" style="stroke:#181818;stroke-width:1.0;"/><polygon fill="#181818" points="3909.72,118.36,3916.8442,117.2437,3918.5538,110.2382,3911.4296,111.3545,3909.72,118.36" style="stroke:#181818;stroke-width:1.0;"/></g><!--reverse link moeteregistreringsstatus to kode--><g id="link_moeteregistreringsstatus_kode"><path codeLine="79" d="M4153.91,110.16 C4179.7,87.88 4216.91,60.54 4255.5,48.41 C4373.1,11.44 6358.75,6 6474.5,48.41 C6504.53,59.41 6532.06,82.37 6552.37,102.99 " fill="none" id="moeteregistreringsstatus-backto-kode" style="stroke:#181818;stroke-width:1.0;"/><polygon fill="#181818" points="4144.58,118.35,4151.7215,117.3502,4153.5453,110.3735,4146.4038,111.3733,4144.58,118.35" style="stroke:#181818;stroke-width:1.0;"/></g><!--reverse link moeteregistreringstype to kode--><g id="link_moeteregistreringstype_kode"><path codeLine="82" d="M4385.74,109.89 C4410.47,87.67 4446.13,60.52 4483.5,48.41 C4588.72,14.31 6370.64,10.35 6474.5,48.41 C6504.53,59.41 6532.06,82.37 6552.37,102.99 " fill="none" id="moeteregistreringstype-backto-kode" style="stroke:#181818;stroke-width:1.0;"/><polygon fill="#181818" points="4376.51,118.36,4383.6298,117.2158,4385.312,110.2037,4378.1922,111.3479,4376.51,118.36" style="stroke:#181818;stroke-width:1.0;"/></g><!--reverse link moetesakstype to kode--><g id="link_moetesakstype_kode"><path codeLine="85" d="M4575.5,108.86 C4593.86,86.95 4620.75,60.57 4651.5,48.41 C4745.67,11.15 6379.4,13.56 6474.5,48.41 C6504.53,59.41 6532.06,82.37 6552.37,102.99 " fill="none" id="moetesakstype-backto-kode" style="stroke:#181818;stroke-width:1.0;"/><polygon fill="#181818" points="4566.95,118.5,4573.8269,116.3301,4574.4688,109.1476,4567.592,111.3175,4566.95,118.5" style="stroke:#181818;stroke-width:1.0;"/></g><!--reverse link partRolle to kode--><g id="link_partRolle_kode"><path codeLine="88" d="M4719.34,107.43 C4733.63,85.93 4754.93,60.54 4781.5,48.41 C4867.05,9.33 6386.19,16.05 6474.5,48.41 C6504.53,59.41 6532.06,82.37 6552.37,102.99 " fill="none" id="partRolle-backto-kode" style="stroke:#181818;stroke-width:1.0;"/><polygon fill="#181818" points="4711.93,118.2,4718.5123,115.255,4718.3255,108.0463,4711.7432,110.9913,4711.93,118.2" style="stroke:#181818;stroke-width:1.0;"/></g><!--reverse link presedensStatus to kode--><g id="link_presedensStatus_kode"><path codeLine="91" d="M4881.17,109.12 C4900.81,87.13 4929.45,60.56 4961.5,48.41 C5040.09,18.6 6395.58,19.49 6474.5,48.41 C6504.53,59.41 6532.06,82.37 6552.37,102.99 " fill="none" id="presedensStatus-backto-kode" style="stroke:#181818;stroke-width:1.0;"/><polygon fill="#181818" points="4872.28,118.47,4879.2259,116.5325,4880.109,109.3757,4873.1631,111.3132,4872.28,118.47" style="stroke:#181818;stroke-width:1.0;"/></g><!--reverse link saksJournalpostnummer to saksnummer--><g id="link_saksJournalpostnummer_saksnummer"><path codeLine="115" d="M6912.54,143.63 C6919.54,143.63 6926.54,143.63 6933.54,143.63 " fill="none" id="saksJournalpostnummer-backto-saksnummer" style="stroke:#181818;stroke-width:1.0;"/><polygon fill="#181818" points="6899.63,143.63,6905.63,147.63,6911.63,143.63,6905.63,139.63,6899.63,143.63" style="stroke:#181818;stroke-width:1.0;"/></g><!--reverse link saksansvarlig to identifikatorer--><g id="link_saksansvarlig_identifikatorer"><path codeLine="118" d="M288.44,108.6 C305.95,86.76 331.64,60.57 361.5,48.41 C415.42,26.44 437.54,29.19 492.5,48.41 C515.54,56.46 537.45,71.03 556.07,86.38 " fill="none" id="saksansvarlig-backto-identifikatorer" style="stroke:#181818;stroke-width:1.0;"/><polygon fill="#181818" points="280.06,118.52,286.886,116.1949,287.3651,108.9997,280.5391,111.3248,280.06,118.52" style="stroke:#181818;stroke-width:1.0;"/></g><!--reverse link saksbehandler to identifikatorer--><g id="link_saksbehandler_identifikatorer"><path codeLine="121" d="M507.48,143.63 C514.08,143.63 520.68,143.63 527.28,143.63 " fill="none" id="saksbehandler-backto-identifikatorer" style="stroke:#181818;stroke-width:1.0;"/><polygon fill="#181818" points="494.48,143.63,500.48,147.63,506.48,143.63,500.48,139.63,494.48,143.63" style="stroke:#181818;stroke-width:1.0;"/></g><!--reverse link saksstatus to kode--><g id="link_saksstatus_kode"><path codeLine="128" d="M5034.51,107.69 C5049.66,86.1 5072.1,60.53 5099.5,48.41 C5169.35,17.49 6402.77,22.13 6474.5,48.41 C6504.53,59.41 6532.06,82.37 6552.37,102.99 " fill="none" id="saksstatus-backto-kode" style="stroke:#181818;stroke-width:1.0;"/><polygon fill="#181818" points="5026.86,118.17,5033.5172,115.3985,5033.5194,108.1874,5026.8622,110.9589,5026.86,118.17" style="stroke:#181818;stroke-width:1.0;"/></g><!--reverse link skjermingDokument to kode--><g id="link_skjermingDokument_kode"><path codeLine="131" d="M5215.69,109.64 C5238.09,87.5 5270.55,60.55 5305.5,48.41 C5366.85,27.09 6413.52,26.06 6474.5,48.41 C6504.53,59.41 6532.06,82.37 6552.37,102.99 " fill="none" id="skjermingDokument-backto-kode" style="stroke:#181818;stroke-width:1.0;"/><polygon fill="#181818" points="5207.13,118.41,5214.1864,116.9244,5215.5291,109.8394,5208.4727,111.325,5207.13,118.41" style="stroke:#181818;stroke-width:1.0;"/></g><!--reverse link skjermingMetadata to kode--><g id="link_skjermingMetadata_kode"><path codeLine="134" d="M5416.74,109.36 C5438.29,87.29 5469.52,60.53 5503.5,48.41 C5605.12,12.16 6373.2,11.29 6474.5,48.41 C6504.53,59.41 6532.06,82.37 6552.37,102.99 " fill="none" id="skjermingMetadata-backto-kode" style="stroke:#181818;stroke-width:1.0;"/><polygon fill="#181818" points="5408.25,118.42,5415.2775,116.8032,5416.4879,109.6944,5409.4604,111.3112,5408.25,118.42" style="stroke:#181818;stroke-width:1.0;"/></g><!--reverse link skjermingOpphoererAksjon to kode--><g id="link_skjermingOpphoererAksjon_kode"><path codeLine="137" d="M5651.23,110.43 C5678.92,88.07 5718.82,60.54 5759.5,48.41 C5835.63,25.71 6399.9,21.08 6474.5,48.41 C6504.53,59.41 6532.06,82.37 6552.37,102.99 " fill="none" id="skjermingOpphoererAksjon-backto-kode" style="stroke:#181818;stroke-width:1.0;"/><polygon fill="#181818" points="5641.51,119.32,5648.6821,118.5709,5650.7491,111.6624,5643.5771,112.4115,5641.51,119.32" style="stroke:#181818;stroke-width:1.0;"/></g><!--reverse link slettingstype to kode--><g id="link_slettingstype_kode"><path codeLine="140" d="M5842.79,108.61 C5859.87,86.78 5885.02,60.59 5914.5,48.41 C5972,24.64 6416.08,27 6474.5,48.41 C6504.53,59.41 6532.06,82.37 6552.37,102.99 " fill="none" id="slettingstype-backto-kode" style="stroke:#181818;stroke-width:1.0;"/><polygon fill="#181818" points="5834.61,118.54,5841.41,116.14,5841.81,108.94,5835.01,111.34,5834.61,118.54" style="stroke:#181818;stroke-width:1.0;"/></g><!--reverse link tilgangsrestriksjon to kode--><g id="link_tilgangsrestriksjon_kode"><path codeLine="147" d="M6023.42,109.37 C6044.76,87.3 6075.72,60.54 6109.5,48.41 C6185.84,21 6398.34,20.5 6474.5,48.41 C6504.53,59.41 6532.06,82.37 6552.37,102.99 " fill="none" id="tilgangsrestriksjon-backto-kode" style="stroke:#181818;stroke-width:1.0;"/><polygon fill="#181818" points="6015.04,118.43,6022.0586,116.7748,6023.2302,109.6595,6016.2116,111.3147,6015.04,118.43" style="stroke:#181818;stroke-width:1.0;"/></g><!--reverse link tilknyttetRegistreringSom to kode--><g id="link_tilknyttetRegistreringSom_kode"><path codeLine="150" d="M6247.21,110.16 C6273.21,87.87 6310.7,60.53 6349.5,48.41 C6402.53,31.84 6422.34,29.29 6474.5,48.41 C6504.53,59.41 6532.06,82.37 6552.37,102.99 " fill="none" id="tilknyttetRegistreringSom-backto-kode" style="stroke:#181818;stroke-width:1.0;"/><polygon fill="#181818" points="6237.8,118.34,6244.946,117.3734,6246.8023,110.4053,6239.6563,111.3719,6237.8,118.34" style="stroke:#181818;stroke-width:1.0;"/></g><!--reverse link variantformat to kode--><g id="link_variantformat_kode"><path codeLine="153" d="M6488.85,143.63 C6495.87,143.63 6502.9,143.63 6509.92,143.63 " fill="none" id="variantformat-backto-kode" style="stroke:#181818;stroke-width:1.0;"/><polygon fill="#181818" points="6475.89,143.63,6481.89,147.63,6487.89,143.63,6481.89,139.63,6475.89,143.63" style="stroke:#181818;stroke-width:1.0;"/></g><!--SRC=[tLPDRzmW4BtdL-ovLVz0RfMIIgsKLifMlS_6imu1WmNOqghAV-y0jc5OdFJGK_Umij-yDr_0c2S5pXsW6uGMpblmOhxNp-WFlszURnhmXqy7qQ7suYmaU6FHtZmb5rQAkKFbFFZ99Jc7I2fDXoM_9hUPivDMp5hetWq07XF_2kMgpiXfe4G7xCGqH4a5jVb5IXNKvllBY8mT0Sv5wJnQ_TsWbAY8VQ3VnpFqxaA6uN1xe1vJ8GdN2sr3NrSt2gMtXbP47aMlAIbx54Irj31EYnaW9l8Nj2gzQy4ljBJ23gtVSramkBUpklXZRcBnMl6C7I2vNnwvlRVGHMjyuBPg2wuTrJ3hgfcCMTkqy08KrZYEXfQyi-WSNg_2Yvci1gMdOSYH5n0W-1BQCzIXd56xHP7ibRSGSTj9DSPhNvtc5dE4ioNzWNinsitOUP1HS0LMcl0VUnOvMrujl5BIuzgI-CmRUy9uPcaYDFegZQMEZqPte1sEO7D3TamyDlLMQkXokWoek0OzqcIYsj5-cRGC1ILHqz9GM-p3PCHGWoiMOzVude-STzlKq3kGbMn3E3kqxD4ebPZvhM9HawbsxOhZMsDSOV6CDgp9Jw6-vLsxRe4qthxUXSLU7fE1LPVinJRX9-oMdxZ5CzLP1DoeJNoDkUHwpwVnRJMUjmrP5lS0uuZlbZK4rbKv8IUMu3_Bwh5eu__HytOCFcHPy3HBspBQgqMxSm1AQ0QhH1ztE4TsxpU1Ti9dq9sA6ILXHjuKyZfYHFwb2D1RdubepwUoUEK7qiaNj7Hfw- -MsqYYNw4xgWUaxnvuuAeDtL7z6CTdGnFBVivpTDTO-L3eFPj-7AdOwzvU6Zc3ckflZ89Jw-xaXUg1lD8u8qFEiuNpeCIG-k8z-lAu7SsmwdUit0jjBm7Q5vSUZgpiFm00]--></g></svg>