<svg xmlns="http://www.w3.org/2000/svg" xmlns:xlink="http://www.w3.org/1999/xlink" contentStyleType="text/css" height="242px" preserveAspectRatio="none" style="width:3796px;height:242px;background:#FFFFFF;" version="1.1" viewBox="0 0 3796 242" width="3796px" zoomAndPan="magnify"><defs/><g><!--cluster arkivstrukturNoekler--><g id="cluster_arkivstrukturNoekler"><path d="M3267,68.48 L3419,68.48 A3.75,3.75 0 0 1 3421.5,70.98 L3428.5,90.9683 L3478,90.9683 A2.5,2.5 0 0 1 3480.5,93.4683 L3480.5,153.47 A2.5,2.5 0 0 1 3478,155.97 L3267,155.97 A2.5,2.5 0 0 1 3264.5,153.47 L3264.5,70.98 A2.5,2.5 0 0 1 3267,68.48 " fill="none" style="stroke:#000000;stroke-width:1.5;"/><line style="stroke:#000000;stroke-width:1.5;" x1="3264.5" x2="3428.5" y1="90.9683" y2="90.9683"/><text fill="#000000" font-family="sans-serif" font-size="14" font-weight="bold" lengthAdjust="spacing" textLength="151" x="3268.5" y="84.0152">arkivstrukturNoekler</text></g><g id="elem_xsd"><rect fill="#F1F1F1" height="36.4883" style="stroke:#181818;stroke-width:0.5;" width="184" x="3280.5" y="103.48"/><text fill="#000000" font-family="sans-serif" font-size="14" lengthAdjust="spacing" textLength="170" x="3287.5" y="119.0152">arkivstrukturNoekler.xsd</text><line style="stroke:#181818;stroke-width:0.5;" x1="3281.5" x2="3463.5" y1="123.9683" y2="123.9683"/></g><g id="elem_arkivmeldingOpprett"><rect fill="#F1F1F1" height="36.4883" style="stroke:#181818;stroke-width:0.5;" width="386" x="567.5" y="103.48"/><text fill="#000000" font-family="sans-serif" font-size="14" lengthAdjust="spacing" textLength="372" x="574.5" y="119.0152">no.ks.fiks.arkiv.v1.arkivering.arkivmelding.opprett.xsd</text><line style="stroke:#181818;stroke-width:0.5;" x1="568.5" x2="952.5" y1="123.9683" y2="123.9683"/></g><g id="elem_arkivmeldingOpprettKvittering"><rect fill="#F1F1F1" height="36.4883" style="stroke:#181818;stroke-width:0.5;" width="455" x="7" y="103.48"/><text fill="#000000" font-family="sans-serif" font-size="14" lengthAdjust="spacing" textLength="441" x="14" y="119.0152">no.ks.fiks.arkiv.v1.arkivering.arkivmelding.opprett.kvittering.xsd</text><line style="stroke:#181818;stroke-width:0.5;" x1="8" x2="461" y1="123.9683" y2="123.9683"/></g><g id="elem_arkivmeldingOppdater"><rect fill="#F1F1F1" height="36.4883" style="stroke:#181818;stroke-width:0.5;" width="398" x="329.5" y="7"/><text fill="#000000" font-family="sans-serif" font-size="14" lengthAdjust="spacing" textLength="384" x="336.5" y="22.5352">no.ks.fiks.arkiv.v1.arkivering.arkivmelding.oppdater.xsd</text><line style="stroke:#181818;stroke-width:0.5;" x1="330.5" x2="726.5" y1="27.4883" y2="27.4883"/></g><g id="elem_dokumentobjektOpprett"><rect fill="#F1F1F1" height="36.4883" style="stroke:#181818;stroke-width:0.5;" width="410" x="775.5" y="7"/><text fill="#000000" font-family="sans-serif" font-size="14" lengthAdjust="spacing" textLength="396" x="782.5" y="22.5352">no.ks.fiks.arkiv.v1.arkivering.dokumentobjekt.opprett.xsd</text><line style="stroke:#181818;stroke-width:0.5;" x1="776.5" x2="1184.5" y1="27.4883" y2="27.4883"/></g><g id="elem_dokumentobjektOpprettKvittering"><rect fill="#F1F1F1" height="36.4883" style="stroke:#181818;stroke-width:0.5;" width="479" x="1060" y="103.48"/><text fill="#000000" font-family="sans-serif" font-size="14" lengthAdjust="spacing" textLength="465" x="1067" y="119.0152">no.ks.fiks.arkiv.v1.arkivering.dokumentobjekt.opprett.kvittering.xsd</text><line style="stroke:#181818;stroke-width:0.5;" x1="1061" x2="1538" y1="123.9683" y2="123.9683"/></g><g id="elem_avskrivningOpprett"><rect fill="#F1F1F1" height="36.4883" style="stroke:#181818;stroke-width:0.5;" width="375" x="1574" y="103.48"/><text fill="#000000" font-family="sans-serif" font-size="14" lengthAdjust="spacing" textLength="361" x="1581" y="119.0152">no.ks.fiks.arkiv.v1.arkivering.avskrivning.opprett.xsd</text><line style="stroke:#181818;stroke-width:0.5;" x1="1575" x2="1948" y1="123.9683" y2="123.9683"/></g><g id="elem_avskrivningSlett"><rect fill="#F1F1F1" height="36.4883" style="stroke:#181818;stroke-width:0.5;" width="353" x="1984" y="103.48"/><text fill="#000000" font-family="sans-serif" font-size="14" lengthAdjust="spacing" textLength="339" x="1991" y="119.0152">no.ks.fiks.arkiv.v1.arkivering.avskrivning.slett.xsd</text><line style="stroke:#181818;stroke-width:0.5;" x1="1985" x2="2336" y1="123.9683" y2="123.9683"/></g><g id="elem_arkivstruktur"><rect fill="#F1F1F1" height="36.4883" style="stroke:#181818;stroke-width:0.5;" width="131" x="2443" y="103.48"/><text fill="#000000" font-family="sans-serif" font-size="14" lengthAdjust="spacing" textLength="117" x="2450" y="119.0152">arkivstruktur.xsd</text><line style="stroke:#181818;stroke-width:0.5;" x1="2444" x2="2573" y1="123.9683" y2="123.9683"/></g><g id="elem_arkivstrukturMinimum"><rect fill="#F1F1F1" height="36.4883" style="stroke:#181818;stroke-width:0.5;" width="195" x="2679" y="103.48"/><text fill="#000000" font-family="sans-serif" font-size="14" lengthAdjust="spacing" textLength="181" x="2686" y="119.0152">arkivstrukturMinimum.xsd</text><line style="stroke:#181818;stroke-width:0.5;" x1="2680" x2="2873" y1="123.9683" y2="123.9683"/></g><g id="elem_metadatakatalog"><rect fill="#F1F1F1" height="36.4883" style="stroke:#181818;stroke-width:0.5;" width="158" x="2081.5" y="199.97"/><text fill="#000000" font-family="sans-serif" font-size="14" lengthAdjust="spacing" textLength="144" x="2088.5" y="215.5052">metadatakatalog.xsd</text><line style="stroke:#181818;stroke-width:0.5;" x1="2082.5" x2="2238.5" y1="220.4583" y2="220.4583"/></g><g id="elem_dokumentfilHent"><rect fill="#F1F1F1" height="36.4883" style="stroke:#181818;stroke-width:0.5;" width="336" x="2909.5" y="103.48"/><text fill="#000000" font-family="sans-serif" font-size="14" lengthAdjust="spacing" textLength="322" x="2916.5" y="119.0152">no.ks.fiks.arkiv.v1.innsyn.dokumentfil.hent.xsd</text><line style="stroke:#181818;stroke-width:0.5;" x1="2910.5" x2="3244.5" y1="123.9683" y2="123.9683"/></g><g id="elem_registreringHent"><rect fill="#F1F1F1" height="36.4883" style="stroke:#181818;stroke-width:0.5;" width="334" x="1550.5" y="7"/><text fill="#000000" font-family="sans-serif" font-size="14" lengthAdjust="spacing" textLength="320" x="1557.5" y="22.5352">no.ks.fiks.arkiv.v1.innsyn.registrering.hent.xsd</text><line style="stroke:#181818;stroke-width:0.5;" x1="1551.5" x2="1883.5" y1="27.4883" y2="27.4883"/></g><g id="elem_registreringHentResultat"><rect fill="#F1F1F1" height="36.4883" style="stroke:#181818;stroke-width:0.5;" width="390" x="3400.5" y="7"/><text fill="#000000" font-family="sans-serif" font-size="14" lengthAdjust="spacing" textLength="376" x="3407.5" y="22.5352">no.ks.fiks.arkiv.v1.innsyn.registrering.hent.resultat.xsd</text><line style="stroke:#181818;stroke-width:0.5;" x1="3401.5" x2="3789.5" y1="27.4883" y2="27.4883"/></g><g id="elem_mappeHent"><rect fill="#F1F1F1" height="36.4883" style="stroke:#181818;stroke-width:0.5;" width="300" x="3065.5" y="7"/><text fill="#000000" font-family="sans-serif" font-size="14" lengthAdjust="spacing" textLength="286" x="3072.5" y="22.5352">no.ks.fiks.arkiv.v1.innsyn.mappe.hent.xsd</text><line style="stroke:#181818;stroke-width:0.5;" x1="3066.5" x2="3364.5" y1="27.4883" y2="27.4883"/></g><g id="elem_mappeHentResultat"><rect fill="#F1F1F1" height="36.4883" style="stroke:#181818;stroke-width:0.5;" width="356" x="1919.5" y="7"/><text fill="#000000" font-family="sans-serif" font-size="14" lengthAdjust="spacing" textLength="342" x="1926.5" y="22.5352">no.ks.fiks.arkiv.v1.innsyn.mappe.hent.resultat.xsd</text><line style="stroke:#181818;stroke-width:0.5;" x1="1920.5" x2="2274.5" y1="27.4883" y2="27.4883"/></g><g id="elem_sok"><rect fill="#F1F1F1" height="36.4883" style="stroke:#181818;stroke-width:0.5;" width="67" x="2311" y="7"/><text fill="#000000" font-family="sans-serif" font-size="14" lengthAdjust="spacing" textLength="53" x="2318" y="22.5352">sok.xsd</text><line style="stroke:#181818;stroke-width:0.5;" x1="2312" x2="2377" y1="27.4883" y2="27.4883"/></g><g id="elem_sokeresultatMinimum"><rect fill="#F1F1F1" height="36.4883" style="stroke:#181818;stroke-width:0.5;" width="191" x="2413" y="7"/><text fill="#000000" font-family="sans-serif" font-size="14" lengthAdjust="spacing" textLength="177" x="2420" y="22.5352">sokeresultatMinimum.xsd</text><line style="stroke:#181818;stroke-width:0.5;" x1="2414" x2="2603" y1="27.4883" y2="27.4883"/></g><g id="elem_sokeresultatNoekler"><rect fill="#F1F1F1" height="36.4883" style="stroke:#181818;stroke-width:0.5;" width="180" x="2639.5" y="7"/><text fill="#000000" font-family="sans-serif" font-size="14" lengthAdjust="spacing" textLength="166" x="2646.5" y="22.5352">sokeresultatNoekler.xsd</text><line style="stroke:#181818;stroke-width:0.5;" x1="2640.5" x2="2818.5" y1="27.4883" y2="27.4883"/></g><g id="elem_sokeresultatUtvidet"><rect fill="#F1F1F1" height="36.4883" style="stroke:#181818;stroke-width:0.5;" width="175" x="2855" y="7"/><text fill="#000000" font-family="sans-serif" font-size="14" lengthAdjust="spacing" textLength="161" x="2862" y="22.5352">sokeresultatUtvidet.xsd</text><line style="stroke:#181818;stroke-width:0.5;" x1="2856" x2="3029" y1="27.4883" y2="27.4883"/></g><!--link arkivmeldingOpprett to metadatakatalog--><g id="link_arkivmeldingOpprett_metadatakatalog"><path codeLine="23" d="M840.03,140.42 C881.66,148.98 933.6,158.54 980.5,163.97 C1392.76,211.68 1884.64,217.2224 2075.13,217.4624 " fill="none" id="arkivmeldingOpprett-to-metadatakatalog" style="stroke:#181818;stroke-width:1.0;"/><polygon fill="#181818" points="2081.13,217.47,2072.135,213.4587,2076.13,217.4637,2072.125,221.4587,2081.13,217.47" style="stroke:#181818;stroke-width:1.0;"/></g><!--link arkivmeldingOpprettKvittering to metadatakatalog--><g id="link_arkivmeldingOpprettKvittering_metadatakatalog"><path codeLine="24" d="M325.54,140.43 C373.77,149.07 434.14,158.71 488.5,163.97 C803.41,194.42 1787.3707,211.5175 2075.2507,215.9575 " fill="none" id="arkivmeldingOpprettKvittering-to-metadatakatalog" style="stroke:#181818;stroke-width:1.0;"/><polygon fill="#181818" points="2081.25,216.05,2072.3128,211.9117,2076.2506,215.9729,2072.1894,219.9107,2081.25,216.05" style="stroke:#181818;stroke-width:1.0;"/></g><!--link arkivmeldingOppdater to arkivmeldingOpprett--><g id="link_arkivmeldingOppdater_arkivmeldingOpprett"><path codeLine="25" d="M571.87,43.9 C613.31,60.78 669.8931,83.8271 711.3931,100.7271 " fill="none" id="arkivmeldingOppdater-to-arkivmeldingOpprett" style="stroke:#181818;stroke-width:1.0;"/><polygon fill="#181818" points="716.95,102.99,710.1233,95.891,712.3192,101.1042,707.106,103.3002,716.95,102.99" style="stroke:#181818;stroke-width:1.0;"/></g><!--link arkivmeldingOppdater to metadatakatalog--><g id="link_arkivmeldingOppdater_metadatakatalog"><path codeLine="26" d="M525.1,43.86 C520.5,73.7 516.36,133.86 550.5,163.97 C608.41,215.04 1758.89,217.6247 2075.16,217.3747 " fill="none" id="arkivmeldingOppdater-to-metadatakatalog" style="stroke:#181818;stroke-width:1.0;"/><polygon fill="#181818" points="2081.16,217.37,2072.16,213.37,2076.16,217.37,2072.16,221.37,2081.16,217.37" style="stroke:#181818;stroke-width:1.0;"/></g><!--link avskrivningOpprett to metadatakatalog--><g id="link_avskrivningOpprett_metadatakatalog"><path codeLine="27" d="M1836.08,140.39 C1907.36,157.27 2008.3914,181.1977 2079.7714,198.0977 " fill="none" id="avskrivningOpprett-to-metadatakatalog" style="stroke:#181818;stroke-width:1.0;"/><polygon fill="#181818" points="2085.61,199.48,2077.7737,193.5141,2080.7445,198.328,2075.9306,201.2989,2085.61,199.48" style="stroke:#181818;stroke-width:1.0;"/></g><!--link avskrivningSlett to metadatakatalog--><g id="link_avskrivningSlett_metadatakatalog"><path codeLine="28" d="M2160.5,140.06 C2160.5,157 2160.5,176.66 2160.5,193.68 " fill="none" id="avskrivningSlett-to-metadatakatalog" style="stroke:#181818;stroke-width:1.0;"/><polygon fill="#181818" points="2160.5,199.68,2164.5,190.68,2160.5,194.68,2156.5,190.68,2160.5,199.68" style="stroke:#181818;stroke-width:1.0;"/></g><!--link dokumentobjektOpprett to metadatakatalog--><g id="link_dokumentobjektOpprett_metadatakatalog"><path codeLine="29" d="M982.6,43.87 C987.26,74.3 1001.53,136.08 1042.5,163.97 C1085.34,193.14 1827.4612,210.5483 2075.4012,215.5783 " fill="none" id="dokumentobjektOpprett-to-metadatakatalog" style="stroke:#181818;stroke-width:1.0;"/><polygon fill="#181818" points="2081.4,215.7,2072.483,211.5183,2076.401,215.5986,2072.3207,219.5166,2081.4,215.7" style="stroke:#181818;stroke-width:1.0;"/></g><!--link dokumentobjektOpprett to arkivmeldingOpprett--><g id="link_dokumentobjektOpprett_arkivmeldingOpprett"><path codeLine="30" d="M939.38,43.9 C900.08,60.78 846.6633,83.7228 807.3033,100.6228 " fill="none" id="dokumentobjektOpprett-to-arkivmeldingOpprett" style="stroke:#181818;stroke-width:1.0;"/><polygon fill="#181818" points="801.79,102.99,811.6381,103.1147,806.3844,101.0173,808.4818,95.7636,801.79,102.99" style="stroke:#181818;stroke-width:1.0;"/></g><!--link dokumentobjektOpprettKvittering to metadatakatalog--><g id="link_dokumentobjektOpprettKvittering_metadatakatalog"><path codeLine="31" d="M1399.34,140.45 C1446.84,148.44 1504.48,157.51 1556.5,163.97 C1744.02,187.25 1959.5342,203.6475 2075.1742,211.6175 " fill="none" id="dokumentobjektOpprettKvittering-to-metadatakatalog" style="stroke:#181818;stroke-width:1.0;"/><polygon fill="#181818" points="2081.16,212.03,2072.4563,207.4206,2076.1718,211.6862,2071.9063,215.4017,2081.16,212.03" style="stroke:#181818;stroke-width:1.0;"/></g><!--link arkivstruktur to metadatakatalog--><g id="link_arkivstruktur_metadatakatalog"><path codeLine="32" d="M2473.82,140.42 C2456.87,148.5 2435.98,157.66 2416.5,163.97 C2358.52,182.75 2296.863,195.4618 2245.703,204.2718 " fill="none" id="arkivstruktur-to-metadatakatalog" style="stroke:#181818;stroke-width:1.0;"/><polygon fill="#181818" points="2239.79,205.29,2249.3383,207.7046,2244.7175,204.4415,2247.9806,199.8207,2239.79,205.29" style="stroke:#181818;stroke-width:1.0;"/></g><!--link arkivstrukturMinimum to metadatakatalog--><g id="link_arkivstrukturMinimum_metadatakatalog"><path codeLine="33" d="M2731.22,140.37 C2708.01,148.75 2679.1,158.18 2652.5,163.97 C2508.95,195.24 2343.6411,208.1627 2245.7211,213.5127 " fill="none" id="arkivstrukturMinimum-to-metadatakatalog" style="stroke:#181818;stroke-width:1.0;"/><polygon fill="#181818" points="2239.73,213.84,2248.9348,217.343,2244.7226,213.5672,2248.4984,209.355,2239.73,213.84" style="stroke:#181818;stroke-width:1.0;"/></g><!--link xsd to metadatakatalog--><g id="link_xsd_metadatakatalog"><path codeLine="34" d="M3334.54,140.46 C3313.98,149.19 3287.87,158.91 3263.5,163.97 C3067.7,204.68 2464.4997,214.3397 2245.7297,216.5397 " fill="none" id="xsd-to-metadatakatalog" style="stroke:#181818;stroke-width:1.0;"/><polygon fill="#181818" points="2239.73,216.6,2248.7698,220.5093,2244.7297,216.5497,2248.6893,212.5097,2239.73,216.6" style="stroke:#181818;stroke-width:1.0;"/></g><!--link dokumentfilHent to metadatakatalog--><g id="link_dokumentfilHent_metadatakatalog"><path codeLine="35" d="M3009.04,140.41 C2974.1,148.8 2930.77,158.22 2891.5,163.97 C2656.06,198.46 2380.527,210.7812 2245.877,215.0212 " fill="none" id="dokumentfilHent-to-metadatakatalog" style="stroke:#181818;stroke-width:1.0;"/><polygon fill="#181818" points="2239.88,215.21,2249.0014,218.9248,2244.8775,215.0526,2248.7496,210.9287,2239.88,215.21" style="stroke:#181818;stroke-width:1.0;"/></g><!--link registreringHent to arkivstruktur--><g id="link_registreringHent_arkivstruktur"><path codeLine="36" d="M1884.86,42.29 C1890.81,42.72 1896.71,43.12 1902.5,43.48 C1959.53,47.08 2362.02,43.25 2416.5,60.48 C2443.99,69.18 2466.4248,84.7701 2484.0048,99.2201 " fill="none" id="registreringHent-to-arkivstruktur" style="stroke:#181818;stroke-width:1.0;"/><polygon fill="#181818" points="2488.64,103.03,2484.2272,94.225,2484.7774,99.8551,2479.1473,100.4053,2488.64,103.03" style="stroke:#181818;stroke-width:1.0;"/></g><!--link registreringHent to metadatakatalog--><g id="link_registreringHent_metadatakatalog"><path codeLine="37" d="M1884.86,42.26 C1890.81,42.69 1896.71,43.1 1902.5,43.48 C1927.58,45.12 2337.07,42.38 2354.5,60.48 C2386.41,93.61 2382.39,127.4 2354.5,163.97 C2340.21,182.72 2292.9369,195.3925 2245.8669,204.2325 " fill="none" id="registreringHent-to-metadatakatalog" style="stroke:#181818;stroke-width:1.0;"/><polygon fill="#181818" points="2239.97,205.34,2249.5537,207.6101,2244.8841,204.4171,2248.077,199.7475,2239.97,205.34" style="stroke:#181818;stroke-width:1.0;"/></g><!--link mappeHent to arkivstruktur--><g id="link_mappeHent_arkivstruktur"><path codeLine="38" d="M3065.33,42.14 C3059.31,42.62 3053.35,43.07 3047.5,43.48 C2997.92,46.97 2647.85,45.37 2600.5,60.48 C2573.04,69.25 2550.5988,84.8245 2533.0088,99.2545 " fill="none" id="mappeHent-to-arkivstruktur" style="stroke:#181818;stroke-width:1.0;"/><polygon fill="#181818" points="2528.37,103.06,2537.8652,100.4444,2532.2357,99.8888,2532.7912,94.2593,2528.37,103.06" style="stroke:#181818;stroke-width:1.0;"/></g><!--link mappeHent to metadatakatalog--><g id="link_mappeHent_metadatakatalog"><path codeLine="39" d="M3065.33,42.09 C3059.31,42.59 3053.35,43.05 3047.5,43.48 C3004.68,46.62 2698.97,39.52 2661.5,60.48 C2613.04,87.59 2638.85,134.97 2591.5,163.97 C2534.2,199.07 2353.7357,210.8735 2245.7557,214.9535 " fill="none" id="mappeHent-to-metadatakatalog" style="stroke:#181818;stroke-width:1.0;"/><polygon fill="#181818" points="2239.76,215.18,2248.9046,218.8373,2244.7564,214.9912,2248.6026,210.843,2239.76,215.18" style="stroke:#181818;stroke-width:1.0;"/></g><!--link sok to arkivstruktur--><g id="link_sok_arkivstruktur"><path codeLine="40" d="M2378.32,41.17 C2390.53,46.86 2404.31,53.64 2416.5,60.48 C2439.97,73.67 2460.5614,87.2027 2478.7514,99.7527 " fill="none" id="sok-to-arkivstruktur" style="stroke:#181818;stroke-width:1.0;"/><polygon fill="#181818" points="2483.69,103.16,2478.5536,94.7566,2479.5745,100.3205,2474.0105,101.3414,2483.69,103.16" style="stroke:#181818;stroke-width:1.0;"/></g><!--link mappeHentResultat to arkivstruktur--><g id="link_mappeHentResultat_arkivstruktur"><path codeLine="41" d="M2275.91,41.87 C2340.87,48.25 2402.04,55.32 2416.5,60.48 C2443.47,70.12 2465.7281,85.4102 2483.4181,99.5102 " fill="none" id="mappeHentResultat-to-arkivstruktur" style="stroke:#181818;stroke-width:1.0;"/><polygon fill="#181818" points="2488.11,103.25,2483.5653,94.5124,2484.2001,100.1335,2478.5789,100.7683,2488.11,103.25" style="stroke:#181818;stroke-width:1.0;"/></g><!--link sokeresultatMinimum to arkivstruktur--><g id="link_sokeresultatMinimum_arkivstruktur"><path codeLine="42" d="M2508.5,43.57 C2508.5,60.51 2508.5,80.17 2508.5,97.19 " fill="none" id="sokeresultatMinimum-to-arkivstruktur" style="stroke:#181818;stroke-width:1.0;"/><polygon fill="#181818" points="2508.5,103.19,2512.5,94.19,2508.5,98.19,2504.5,94.19,2508.5,103.19" style="stroke:#181818;stroke-width:1.0;"/></g><!--link sokeresultatNoekler to arkivstruktur--><g id="link_sokeresultatNoekler_arkivstruktur"><path codeLine="43" d="M2646.94,43.93 C2631.2,48.48 2615.1,53.97 2600.5,60.48 C2575.04,71.84 2553.5109,86.2546 2535.5709,99.6246 " fill="none" id="sokeresultatNoekler-to-arkivstruktur" style="stroke:#181818;stroke-width:1.0;"/><polygon fill="#181818" points="2530.76,103.21,2540.3666,101.0392,2534.7691,100.2222,2535.5861,94.6246,2530.76,103.21" style="stroke:#181818;stroke-width:1.0;"/></g><!--link sokeresultatUtvidet to arkivstruktur--><g id="link_sokeresultatUtvidet_arkivstruktur"><path codeLine="44" d="M2854.64,41.27 C2848.85,42.08 2843.1,42.82 2837.5,43.48 C2785.06,49.66 2650.53,43.59 2600.5,60.48 C2573.37,69.65 2551.1171,84.9793 2533.4671,99.2393 " fill="none" id="sokeresultatUtvidet-to-arkivstruktur" style="stroke:#181818;stroke-width:1.0;"/><polygon fill="#181818" points="2528.8,103.01,2538.3145,100.4654,2532.6893,99.8678,2533.2869,94.2426,2528.8,103.01" style="stroke:#181818;stroke-width:1.0;"/></g><!--SRC=[fLJBJiGW5DttAvhPJnD_mBM9KHED7u2M6H4A3TmI_NkPbb9QRfykPaev3-XzgOzl-WdvIQg2c-B2t1_HdDd2tdKBgfcyTikAYlBsekfQKu3YnvIdd9Wy1bywB5F_yEMM0NJumX6FWNNqi98u_TmHBRZLkLIygQY46vr34g0nl3D4Czv8aD1Z3eJ96gwPbMYg1snlfYDN8sOytqJisAeDw8P3CybJlujpdvXaLLFX4Wy6PKM1k6GJxdv23T6SxFVyaTUpebnqDRGO1oQb-PKXbHScYY_tJ3BdW0VtsEAbwPMvQtJ17Pd5o74tJKqZWCpRldh25lkAr3KTtxBTsdgzI9_SAnWb5pAA1vPRn_kqjvcM2eAXkYZpYSvZgEuTB2ife3gFPLc6ZBlyVBvFQd9nB6vHj5Ek9M93V9QSk2PZOOtMTZfAGgVOJYRsCIlJSJvQVRElCtp1h1EZwbdyCZyFKCwq7uSF3yCHfKnzGlyW1cDigdIrkwJf-n7X85ssml8HMs7v3a9OVm00]--></g></svg>