<?xml version="1.0" encoding="us-ascii" standalone="no"?><svg xmlns="http://www.w3.org/2000/svg" xmlns:xlink="http://www.w3.org/1999/xlink" contentStyleType="text/css" height="242px" preserveAspectRatio="none" style="width:3796px;height:242px;background:#FFFFFF;" version="1.1" viewBox="0 0 3796 242" width="3796px" zoomAndPan="magnify"><defs/><g><!--cluster arkivstrukturNoekler--><g id="cluster_arkivstrukturNoekler"><path d="M3267,68.48 L3419,68.48 A3.75,3.75 0 0 1 3421.5,70.98 L3428.5,90.9683 L3478,90.9683 A2.5,2.5 0 0 1 3480.5,93.4683 L3480.5,153.47 A2.5,2.5 0 0 1 3478,155.97 L3267,155.97 A2.5,2.5 0 0 1 3264.5,153.47 L3264.5,70.98 A2.5,2.5 0 0 1 3267,68.48 " fill="none" style="stroke:#000000;stroke-width:1.5;"/><line style="stroke:#000000;stroke-width:1.5;" x1="3264.5" x2="3428.5" y1="90.9683" y2="90.9683"/><text fill="#000000" font-family="sans-serif" font-size="14" font-weight="bold" lengthAdjust="spacing" textLength="151" x="3268.5" y="84.0152">arkivstrukturNoekler</text></g><g id="elem_xsd"><rect fill="#F1F1F1" height="36.4883" style="stroke:#181818;stroke-width:0.5;" width="184" x="3280.5" y="103.48"/><text fill="#000000" font-family="sans-serif" font-size="14" lengthAdjust="spacing" textLength="170" x="3287.5" y="119.0152">arkivstrukturNoekler.xsd</text><line style="stroke:#181818;stroke-width:0.5;" x1="3281.5" x2="3463.5" y1="123.9683" y2="123.9683"/></g><g id="elem_arkivmeldingOpprett"><rect fill="#F1F1F1" height="36.4883" style="stroke:#181818;stroke-width:0.5;" width="386" x="567.5" y="103.48"/><text fill="#000000" font-family="sans-serif" font-size="14" lengthAdjust="spacing" textLength="372" x="574.5" y="119.0152">no.ks.fiks.arkiv.v1.arkivering.arkivmelding.opprett.xsd</text><line style="stroke:#181818;stroke-width:0.5;" x1="568.5" x2="952.5" y1="123.9683" y2="123.9683"/></g><g id="elem_arkivmeldingOpprettKvittering"><rect fill="#F1F1F1" height="36.4883" style="stroke:#181818;stroke-width:0.5;" width="455" x="7" y="103.48"/><text fill="#000000" font-family="sans-serif" font-size="14" lengthAdjust="spacing" textLength="441" x="14" y="119.0152">no.ks.fiks.arkiv.v1.arkivering.arkivmelding.opprett.kvittering.xsd</text><line style="stroke:#181818;stroke-width:0.5;" x1="8" x2="461" y1="123.9683" y2="123.9683"/></g><g id="elem_arkivmeldingOppdater"><rect fill="#F1F1F1" height="36.4883" style="stroke:#181818;stroke-width:0.5;" width="398" x="329.5" y="7"/><text fill="#000000" font-family="sans-serif" font-size="14" lengthAdjust="spacing" textLength="384" x="336.5" y="22.5352">no.ks.fiks.arkiv.v1.arkivering.arkivmelding.oppdater.xsd</text><line style="stroke:#181818;stroke-width:0.5;" x1="330.5" x2="726.5" y1="27.4883" y2="27.4883"/></g><g id="elem_dokumentobjektOpprett"><rect fill="#F1F1F1" height="36.4883" style="stroke:#181818;stroke-width:0.5;" width="410" x="775.5" y="7"/><text fill="#000000" font-family="sans-serif" font-size="14" lengthAdjust="spacing" textLength="396" x="782.5" y="22.5352">no.ks.fiks.arkiv.v1.arkivering.dokumentobjekt.opprett.xsd</text><line style="stroke:#181818;stroke-width:0.5;" x1="776.5" x2="1184.5" y1="27.4883" y2="27.4883"/></g><g id="elem_dokumentobjektOpprettKvittering"><rect fill="#F1F1F1" height="36.4883" style="stroke:#181818;stroke-width:0.5;" width="479" x="1060" y="103.48"/><text fill="#000000" font-family="sans-serif" font-size="14" lengthAdjust="spacing" textLength="465" x="1067" y="119.0152">no.ks.fiks.arkiv.v1.arkivering.dokumentobjekt.opprett.kvittering.xsd</text><line style="stroke:#181818;stroke-width:0.5;" x1="1061" x2="1538" y1="123.9683" y2="123.9683"/></g><g id="elem_avskrivningOpprett"><rect fill="#F1F1F1" height="36.4883" style="stroke:#181818;stroke-width:0.5;" width="375" x="1574" y="103.48"/><text fill="#000000" font-family="sans-serif" font-size="14" lengthAdjust="spacing" textLength="361" x="1581" y="119.0152">no.ks.fiks.arkiv.v1.arkivering.avskrivning.opprett.xsd</text><line style="stroke:#181818;stroke-width:0.5;" x1="1575" x2="1948" y1="123.9683" y2="123.9683"/></g><g id="elem_avskrivningSlett"><rect fill="#F1F1F1" height="36.4883" style="stroke:#181818;stroke-width:0.5;" width="353" x="1984" y="103.48"/><text fill="#000000" font-family="sans-serif" font-size="14" lengthAdjust="spacing" textLength="339" x="1991" y="119.0152">no.ks.fiks.arkiv.v1.arkivering.avskrivning.slett.xsd</text><line style="stroke:#181818;stroke-width:0.5;" x1="1985" x2="2336" y1="123.9683" y2="123.9683"/></g><g id="elem_arkivstruktur"><rect fill="#F1F1F1" height="36.4883" style="stroke:#181818;stroke-width:0.5;" width="131" x="2443" y="103.48"/><text fill="#000000" font-family="sans-serif" font-size="14" lengthAdjust="spacing" textLength="117" x="2450" y="119.0152">arkivstruktur.xsd</text><line style="stroke:#181818;stroke-width:0.5;" x1="2444" x2="2573" y1="123.9683" y2="123.9683"/></g><g id="elem_arkivstrukturMinimum"><rect fill="#F1F1F1" height="36.4883" style="stroke:#181818;stroke-width:0.5;" width="195" x="2679" y="103.48"/><text fill="#000000" font-family="sans-serif" font-size="14" lengthAdjust="spacing" textLength="181" x="2686" y="119.0152">arkivstrukturMinimum.xsd</text><line style="stroke:#181818;stroke-width:0.5;" x1="2680" x2="2873" y1="123.9683" y2="123.9683"/></g><g id="elem_metadatakatalog"><rect fill="#F1F1F1" height="36.4883" style="stroke:#181818;stroke-width:0.5;" width="158" x="2081.5" y="199.97"/><text fill="#000000" font-family="sans-serif" font-size="14" lengthAdjust="spacing" textLength="144" x="2088.5" y="215.5052">metadatakatalog.xsd</text><line style="stroke:#181818;stroke-width:0.5;" x1="2082.5" x2="2238.5" y1="220.4583" y2="220.4583"/></g><g id="elem_dokumentfilHent"><rect fill="#F1F1F1" height="36.4883" style="stroke:#181818;stroke-width:0.5;" width="336" x="2909.5" y="103.48"/><text fill="#000000" font-family="sans-serif" font-size="14" lengthAdjust="spacing" textLength="322" x="2916.5" y="119.0152">no.ks.fiks.arkiv.v1.innsyn.dokumentfil.hent.xsd</text><line style="stroke:#181818;stroke-width:0.5;" x1="2910.5" x2="3244.5" y1="123.9683" y2="123.9683"/></g><g id="elem_registreringHent"><rect fill="#F1F1F1" height="36.4883" style="stroke:#181818;stroke-width:0.5;" width="334" x="1550.5" y="7"/><text fill="#000000" font-family="sans-serif" font-size="14" lengthAdjust="spacing" textLength="320" x="1557.5" y="22.5352">no.ks.fiks.arkiv.v1.innsyn.registrering.hent.xsd</text><line style="stroke:#181818;stroke-width:0.5;" x1="1551.5" x2="1883.5" y1="27.4883" y2="27.4883"/></g><g id="elem_registreringHentResultat"><rect fill="#F1F1F1" height="36.4883" style="stroke:#181818;stroke-width:0.5;" width="390" x="3400.5" y="7"/><text fill="#000000" font-family="sans-serif" font-size="14" lengthAdjust="spacing" textLength="376" x="3407.5" y="22.5352">no.ks.fiks.arkiv.v1.innsyn.registrering.hent.resultat.xsd</text><line style="stroke:#181818;stroke-width:0.5;" x1="3401.5" x2="3789.5" y1="27.4883" y2="27.4883"/></g><g id="elem_mappeHent"><rect fill="#F1F1F1" height="36.4883" style="stroke:#181818;stroke-width:0.5;" width="300" x="3065.5" y="7"/><text fill="#000000" font-family="sans-serif" font-size="14" lengthAdjust="spacing" textLength="286" x="3072.5" y="22.5352">no.ks.fiks.arkiv.v1.innsyn.mappe.hent.xsd</text><line style="stroke:#181818;stroke-width:0.5;" x1="3066.5" x2="3364.5" y1="27.4883" y2="27.4883"/></g><g id="elem_mappeHentResultat"><rect fill="#F1F1F1" height="36.4883" style="stroke:#181818;stroke-width:0.5;" width="356" x="1919.5" y="7"/><text fill="#000000" font-family="sans-serif" font-size="14" lengthAdjust="spacing" textLength="342" x="1926.5" y="22.5352">no.ks.fiks.arkiv.v1.innsyn.mappe.hent.resultat.xsd</text><line style="stroke:#181818;stroke-width:0.5;" x1="1920.5" x2="2274.5" y1="27.4883" y2="27.4883"/></g><g id="elem_sok"><rect fill="#F1F1F1" height="36.4883" style="stroke:#181818;stroke-width:0.5;" width="67" x="2311" y="7"/><text fill="#000000" font-family="sans-serif" font-size="14" lengthAdjust="spacing" textLength="53" x="2318" y="22.5352">sok.xsd</text><line style="stroke:#181818;stroke-width:0.5;" x1="2312" x2="2377" y1="27.4883" y2="27.4883"/></g><g id="elem_sokeresultatMinimum"><rect fill="#F1F1F1" height="36.4883" style="stroke:#181818;stroke-width:0.5;" width="191" x="2413" y="7"/><text fill="#000000" font-family="sans-serif" font-size="14" lengthAdjust="spacing" textLength="177" x="2420" y="22.5352">sokeresultatMinimum.xsd</text><line style="stroke:#181818;stroke-width:0.5;" x1="2414" x2="2603" y1="27.4883" y2="27.4883"/></g><g id="elem_sokeresultatNoekler"><rect fill="#F1F1F1" height="36.4883" style="stroke:#181818;stroke-width:0.5;" width="180" x="2639.5" y="7"/><text fill="#000000" font-family="sans-serif" font-size="14" lengthAdjust="spacing" textLength="166" x="2646.5" y="22.5352">sokeresultatNoekler.xsd</text><line style="stroke:#181818;stroke-width:0.5;" x1="2640.5" x2="2818.5" y1="27.4883" y2="27.4883"/></g><g id="elem_sokeresultatUtvidet"><rect fill="#F1F1F1" height="36.4883" style="stroke:#181818;stroke-width:0.5;" width="175" x="2855" y="7"/><text fill="#000000" font-family="sans-serif" font-size="14" lengthAdjust="spacing" textLength="161" x="2862" y="22.5352">sokeresultatUtvidet.xsd</text><line style="stroke:#181818;stroke-width:0.5;" x1="2856" x2="3029" y1="27.4883" y2="27.4883"/></g><!--link arkivmeldingOpprett to metadatakatalog--><g id="link_arkivmeldingOpprett_metadatakatalog"><path codeLine="23" d="M840.03,140.42 C881.66,148.98 933.6,158.54 980.5,163.97 C1388.53,211.19 1880.43,217.11 2075.17,217.46 " fill="none" id="arkivmeldingOpprett-to-metadatakatalog" style="stroke:#181818;stroke-width:1.0;"/><polygon fill="#181818" points="2080.13,217.47,2071.13,213.47,2075.13,217.47,2071.13,221.47,2080.13,217.47" style="stroke:#181818;stroke-width:1.0;"/></g><!--link arkivmeldingOpprettKvittering to metadatakatalog--><g id="link_arkivmeldingOpprettKvittering_metadatakatalog"><path codeLine="24" d="M325.54,140.43 C373.77,149.07 434.14,158.71 488.5,163.97 C801.41,194.23 1780.83,211.39 2075.68,215.96 " fill="none" id="arkivmeldingOpprettKvittering-to-metadatakatalog" style="stroke:#181818;stroke-width:1.0;"/><polygon fill="#181818" points="2080.25,216.05,2071.3199,211.8963,2075.2507,215.9643,2071.1828,219.8951,2080.25,216.05" style="stroke:#181818;stroke-width:1.0;"/></g><!--link arkivmeldingOppdater to arkivmeldingOpprett--><g id="link_arkivmeldingOppdater_arkivmeldingOpprett"><path codeLine="25" d="M571.87,43.9 C611.53,60.05 670.15,83.93 711.49,100.77 " fill="none" id="arkivmeldingOppdater-to-arkivmeldingOpprett" style="stroke:#181818;stroke-width:1.0;"/><polygon fill="#181818" points="715.95,102.99,709.1244,95.89,711.3195,101.1035,706.106,103.2987,715.95,102.99" style="stroke:#181818;stroke-width:1.0;"/></g><!--link arkivmeldingOppdater to metadatakatalog--><g id="link_arkivmeldingOppdater_metadatakatalog"><path codeLine="26" d="M525.1,43.86 C520.5,73.7 516.36,133.86 550.5,163.97 C608.07,214.74 1751.38,217.59 2075.51,217.37 " fill="none" id="arkivmeldingOppdater-to-metadatakatalog" style="stroke:#181818;stroke-width:1.0;"/><polygon fill="#181818" points="2080.16,217.37,2071.16,213.37,2075.16,217.37,2071.16,221.37,2080.16,217.37" style="stroke:#181818;stroke-width:1.0;"/></g><!--link avskrivningOpprett to metadatakatalog--><g id="link_avskrivningOpprett_metadatakatalog"><path codeLine="27" d="M1836.08,140.39 C1905.55,156.84 2008.83,181.3 2080.1,198.18 " fill="none" id="avskrivningOpprett-to-metadatakatalog" style="stroke:#181818;stroke-width:1.0;"/><polygon fill="#181818" points="2084.61,199.48,2076.782,193.5032,2079.7461,198.3213,2074.928,201.2854,2084.61,199.48" style="stroke:#181818;stroke-width:1.0;"/></g><!--link avskrivningSlett to metadatakatalog--><g id="link_avskrivningSlett_metadatakatalog"><path codeLine="28" d="M2160.5,140.06 C2160.5,155.15 2160.5,177.15 2160.5,193.8 " fill="none" id="avskrivningSlett-to-metadatakatalog" style="stroke:#181818;stroke-width:1.0;"/><polygon fill="#181818" points="2160.5,198.68,2164.5,189.68,2160.5,193.68,2156.5,189.68,2160.5,198.68" style="stroke:#181818;stroke-width:1.0;"/></g><!--link dokumentobjektOpprett to metadatakatalog--><g id="link_dokumentobjektOpprett_metadatakatalog"><path codeLine="29" d="M982.6,43.87 C987.26,74.3 1001.53,136.08 1042.5,163.97 C1085.01,192.91 1821.81,210.4 2075.5,215.58 " fill="none" id="dokumentobjektOpprett-to-metadatakatalog" style="stroke:#181818;stroke-width:1.0;"/><polygon fill="#181818" points="2080.4,215.7,2071.4818,211.5208,2075.401,215.6,2071.3218,219.5192,2080.4,215.7" style="stroke:#181818;stroke-width:1.0;"/></g><!--link dokumentobjektOpprett to arkivmeldingOpprett--><g id="link_dokumentobjektOpprett_arkivmeldingOpprett"><path codeLine="30" d="M939.38,43.9 C901.77,60.05 846.18,83.93 806.97,100.77 " fill="none" id="dokumentobjektOpprett-to-arkivmeldingOpprett" style="stroke:#181818;stroke-width:1.0;"/><polygon fill="#181818" points="802.79,102.99,812.638,103.1213,807.3857,101.0204,809.4866,95.7681,802.79,102.99" style="stroke:#181818;stroke-width:1.0;"/></g><!--link dokumentobjektOpprettKvittering to metadatakatalog--><g id="link_dokumentobjektOpprettKvittering_metadatakatalog"><path codeLine="31" d="M1399.34,140.45 C1446.84,148.44 1504.48,157.51 1556.5,163.97 C1740.9,186.87 1958.18,203.5 2075.32,211.63 " fill="none" id="dokumentobjektOpprettKvittering-to-metadatakatalog" style="stroke:#181818;stroke-width:1.0;"/><polygon fill="#181818" points="2080.16,212.03,2071.4556,207.422,2075.1718,211.687,2070.9068,215.4031,2080.16,212.03" style="stroke:#181818;stroke-width:1.0;"/></g><!--link arkivstruktur to metadatakatalog--><g id="link_arkivstruktur_metadatakatalog"><path codeLine="32" d="M2473.82,140.42 C2456.87,148.5 2435.98,157.66 2416.5,163.97 C2360.67,182.05 2295.95,195.45 2245.55,204.28 " fill="none" id="arkivstruktur-to-metadatakatalog" style="stroke:#181818;stroke-width:1.0;"/><polygon fill="#181818" points="2240.79,205.29,2250.3434,207.6841,2245.7156,204.4309,2248.9688,199.8031,2240.79,205.29" style="stroke:#181818;stroke-width:1.0;"/></g><!--link arkivstrukturMinimum to metadatakatalog--><g id="link_arkivstrukturMinimum_metadatakatalog"><path codeLine="33" d="M2731.22,140.37 C2708.01,148.75 2679.1,158.18 2652.5,163.97 C2511.75,194.63 2344.33,207.97 2245.55,213.52 " fill="none" id="arkivstrukturMinimum-to-metadatakatalog" style="stroke:#181818;stroke-width:1.0;"/><polygon fill="#181818" points="2240.73,213.84,2249.9336,217.3463,2245.7226,213.569,2249.4999,209.358,2240.73,213.84" style="stroke:#181818;stroke-width:1.0;"/></g><!--link xsd to metadatakatalog--><g id="link_xsd_metadatakatalog"><path codeLine="34" d="M3334.54,140.46 C3313.98,149.19 3287.87,158.91 3263.5,163.97 C3069.42,204.32 2469.17,214.23 2245.58,216.54 " fill="none" id="xsd-to-metadatakatalog" style="stroke:#181818;stroke-width:1.0;"/><polygon fill="#181818" points="2240.73,216.6,2249.764,220.5227,2245.7298,216.5571,2249.6954,212.523,2240.73,216.6" style="stroke:#181818;stroke-width:1.0;"/></g><!--link dokumentfilHent to metadatakatalog--><g id="link_dokumentfilHent_metadatakatalog"><path codeLine="35" d="M3009.04,140.41 C2974.1,148.8 2930.77,158.22 2891.5,163.97 C2659.28,197.99 2382.22,210.63 2245.48,215.04 " fill="none" id="dokumentfilHent-to-metadatakatalog" style="stroke:#181818;stroke-width:1.0;"/><polygon fill="#181818" points="2240.88,215.21,2250.0015,218.9245,2245.8775,215.0525,2249.7495,210.9285,2240.88,215.21" style="stroke:#181818;stroke-width:1.0;"/></g><!--link registreringHent to arkivstruktur--><g id="link_registreringHent_arkivstruktur"><path codeLine="36" d="M1884.86,42.29 C1890.81,42.72 1896.71,43.12 1902.5,43.48 C1959.53,47.08 2362.02,43.25 2416.5,60.48 C2441.84,68.5 2466.82,85.61 2484.35,99.56 " fill="none" id="registreringHent-to-arkivstruktur" style="stroke:#181818;stroke-width:1.0;"/><polygon fill="#181818" points="2487.64,103.03,2483.1579,94.2601,2483.7524,99.8857,2478.1269,100.4802,2487.64,103.03" style="stroke:#181818;stroke-width:1.0;"/></g><!--link registreringHent to metadatakatalog--><g id="link_registreringHent_metadatakatalog"><path codeLine="37" d="M1884.86,42.26 C1890.81,42.69 1896.71,43.1 1902.5,43.48 C1927.58,45.12 2337.07,42.38 2354.5,60.48 C2386.41,93.61 2382.39,127.4 2354.5,163.97 C2340.79,181.95 2291.33,195.36 2245.79,204.23 " fill="none" id="registreringHent-to-metadatakatalog" style="stroke:#181818;stroke-width:1.0;"/><polygon fill="#181818" points="2240.97,205.34,2250.5625,207.5725,2245.8804,204.3979,2249.0551,199.7158,2240.97,205.34" style="stroke:#181818;stroke-width:1.0;"/></g><!--link mappeHent to arkivstruktur--><g id="link_mappeHent_arkivstruktur"><path codeLine="38" d="M3065.33,42.14 C3059.31,42.62 3053.35,43.07 3047.5,43.48 C2997.92,46.97 2647.85,45.37 2600.5,60.48 C2575.18,68.56 2550.19,85.67 2532.67,99.6 " fill="none" id="mappeHent-to-arkivstruktur" style="stroke:#181818;stroke-width:1.0;"/><polygon fill="#181818" points="2529.37,103.06,2538.8887,100.5314,2533.2645,99.9243,2533.8716,94.3001,2529.37,103.06" style="stroke:#181818;stroke-width:1.0;"/></g><!--link mappeHent to metadatakatalog--><g id="link_mappeHent_metadatakatalog"><path codeLine="39" d="M3065.33,42.09 C3059.31,42.59 3053.35,43.05 3047.5,43.48 C3004.68,46.62 2698.97,39.52 2661.5,60.48 C2613.04,87.59 2638.85,134.97 2591.5,163.97 C2535.2,198.45 2354.25,210.67 2245.53,214.95 " fill="none" id="mappeHent-to-metadatakatalog" style="stroke:#181818;stroke-width:1.0;"/><polygon fill="#181818" points="2240.76,215.18,2249.9027,218.8422,2245.7565,214.9939,2249.6049,210.8478,2240.76,215.18" style="stroke:#181818;stroke-width:1.0;"/></g><!--link sok to arkivstruktur--><g id="link_sok_arkivstruktur"><path codeLine="40" d="M2378.32,41.17 C2390.53,46.86 2404.31,53.64 2416.5,60.48 C2437.95,72.54 2461.12,87.72 2478.84,99.83 " fill="none" id="sok-to-arkivstruktur" style="stroke:#181818;stroke-width:1.0;"/><polygon fill="#181818" points="2482.69,103.16,2477.5397,94.7651,2478.5698,100.3274,2473.0075,101.3574,2482.69,103.16" style="stroke:#181818;stroke-width:1.0;"/></g><!--link mappeHentResultat to arkivstruktur--><g id="link_mappeHentResultat_arkivstruktur"><path codeLine="41" d="M2275.91,41.87 C2340.87,48.25 2402.04,55.32 2416.5,60.48 C2441.36,69.37 2466.21,86.23 2483.8,99.86 " fill="none" id="mappeHentResultat-to-arkivstruktur" style="stroke:#181818;stroke-width:1.0;"/><polygon fill="#181818" points="2487.11,103.25,2482.503,94.5451,2483.1779,100.1615,2477.5615,100.8364,2487.11,103.25" style="stroke:#181818;stroke-width:1.0;"/></g><!--link sokeresultatMinimum to arkivstruktur--><g id="link_sokeresultatMinimum_arkivstruktur"><path codeLine="42" d="M2508.5,43.57 C2508.5,58.66 2508.5,80.66 2508.5,97.32 " fill="none" id="sokeresultatMinimum-to-arkivstruktur" style="stroke:#181818;stroke-width:1.0;"/><polygon fill="#181818" points="2508.5,102.19,2512.5,93.19,2508.5,97.19,2504.5,93.19,2508.5,102.19" style="stroke:#181818;stroke-width:1.0;"/></g><!--link sokeresultatNoekler to arkivstruktur--><g id="link_sokeresultatNoekler_arkivstruktur"><path codeLine="43" d="M2646.94,43.93 C2631.2,48.48 2615.1,53.97 2600.5,60.48 C2577.23,70.86 2553.22,86.79 2535.57,99.67 " fill="none" id="sokeresultatNoekler-to-arkivstruktur" style="stroke:#181818;stroke-width:1.0;"/><polygon fill="#181818" points="2531.76,103.21,2541.3821,101.1089,2535.7907,100.2513,2536.6482,94.6599,2531.76,103.21" style="stroke:#181818;stroke-width:1.0;"/></g><!--link sokeresultatUtvidet to arkivstruktur--><g id="link_sokeresultatUtvidet_arkivstruktur"><path codeLine="44" d="M2854.67,41.15 C2848.53,42 2842.43,42.79 2836.5,43.48 C2784.28,49.6 2650.31,43.65 2600.5,60.48 C2575.49,68.93 2550.65,85.83 2533.1,99.59 " fill="none" id="sokeresultatUtvidet-to-arkivstruktur" style="stroke:#181818;stroke-width:1.0;"/><polygon fill="#181818" points="2529.8,103.01,2539.3388,100.5581,2533.7196,99.9058,2534.372,94.2866,2529.8,103.01" style="stroke:#181818;stroke-width:1.0;"/></g><!--SRC=[fLJBJiGW5DttAvhPJnD_mBM9KHED7u2M6H4A3TmI_NkPbb9QRfykPaev3-XzgOzl-WdvIQg2c-B2t1_HdDd2tdKBgfcyTikAYlBsekfQKu3YnvIdd9Wy1bywB5F_yEMM0NJumX6FWNNqi98u_TmHBRZLkLIygQY46vr34g0nl3D4Czv8aD1Z3eJ96gwPbMYg1snlfYDN8sOytqJisAeDw8P3CybJlujpdvXaLLFX4Wy6PKM1k6GJxdv23T6SxFVyaTUpebnqDRGO1oQb-PKXbHScYY_tJ3BdW0VtsEAbwPMvQtJ17Pd5o74tJKqZWCpRldh25lkAr3KTtxBTsdgzI9_SAnWb5pAA1vPRn_kqjvcM2eAXkYZpYSvZgEuTB2ife3gFPLc6ZBlyVBvFQd9nB6vHj5Ek9M93V9QSk2PZOOtMTZfAGgVOJYRsCIlJSJvQVRElCtp1h1EZwbdyCZyFKCwq7uSF3yCHfKnzGlyW1cDigdIrkwJf-n7X85ssml8HMs7v3a9OVm00]--></g></svg>