<svg xmlns="http://www.w3.org/2000/svg" xmlns:xlink="http://www.w3.org/1999/xlink" contentStyleType="text/css" height="624px" preserveAspectRatio="none" style="width:511px;height:624px;background:#FFFFFF;" version="1.1" viewBox="0 0 511 624" width="511px" zoomAndPan="magnify"><defs/><g><text fill="#000000" font-family="sans-serif" font-size="14" font-weight="bold" lengthAdjust="spacing" textLength="397" x="56" y="28.5352">Eksempel p&#229; dialog mellom fagsystem og arkivsystem</text><text fill="#000000" font-family="sans-serif" font-size="14" font-weight="bold" lengthAdjust="spacing" textLength="305" x="102" y="45.0234">ved opprette ny journalpost p&#229; elevmappe</text><line style="stroke:#181818;stroke-width:0.5;stroke-dasharray:5.0,5.0;" x1="48" x2="48" y1="90.4648" y2="100.4648"/><line style="stroke:#A80036;stroke-width:1.0;stroke-dasharray:1.0,4.0;" x1="48" x2="48" y1="100.4648" y2="154.375"/><line style="stroke:#181818;stroke-width:0.5;stroke-dasharray:5.0,5.0;" x1="48" x2="48" y1="154.375" y2="154.375"/><line style="stroke:#A80036;stroke-width:1.0;stroke-dasharray:1.0,4.0;" x1="48" x2="48" y1="154.375" y2="195.3301"/><line style="stroke:#181818;stroke-width:0.5;stroke-dasharray:5.0,5.0;" x1="48" x2="48" y1="195.3301" y2="224.6406"/><line style="stroke:#A80036;stroke-width:1.0;stroke-dasharray:1.0,4.0;" x1="48" x2="48" y1="224.6406" y2="278.5508"/><line style="stroke:#181818;stroke-width:0.5;stroke-dasharray:5.0,5.0;" x1="48" x2="48" y1="278.5508" y2="307.8613"/><line style="stroke:#A80036;stroke-width:1.0;stroke-dasharray:1.0,4.0;" x1="48" x2="48" y1="307.8613" y2="361.7715"/><line style="stroke:#181818;stroke-width:0.5;stroke-dasharray:5.0,5.0;" x1="48" x2="48" y1="361.7715" y2="449.7031"/><line style="stroke:#A80036;stroke-width:1.0;stroke-dasharray:1.0,4.0;" x1="48" x2="48" y1="449.7031" y2="490.6582"/><line style="stroke:#181818;stroke-width:0.5;stroke-dasharray:5.0,5.0;" x1="48" x2="48" y1="490.6582" y2="588.5898"/><line style="stroke:#181818;stroke-width:0.5;stroke-dasharray:5.0,5.0;" x1="457" x2="457" y1="90.4648" y2="100.4648"/><line style="stroke:#A80036;stroke-width:1.0;stroke-dasharray:1.0,4.0;" x1="457" x2="457" y1="100.4648" y2="154.375"/><line style="stroke:#181818;stroke-width:0.5;stroke-dasharray:5.0,5.0;" x1="457" x2="457" y1="154.375" y2="154.375"/><line style="stroke:#A80036;stroke-width:1.0;stroke-dasharray:1.0,4.0;" x1="457" x2="457" y1="154.375" y2="195.3301"/><line style="stroke:#181818;stroke-width:0.5;stroke-dasharray:5.0,5.0;" x1="457" x2="457" y1="195.3301" y2="224.6406"/><line style="stroke:#A80036;stroke-width:1.0;stroke-dasharray:1.0,4.0;" x1="457" x2="457" y1="224.6406" y2="278.5508"/><line style="stroke:#181818;stroke-width:0.5;stroke-dasharray:5.0,5.0;" x1="457" x2="457" y1="278.5508" y2="307.8613"/><line style="stroke:#A80036;stroke-width:1.0;stroke-dasharray:1.0,4.0;" x1="457" x2="457" y1="307.8613" y2="361.7715"/><line style="stroke:#181818;stroke-width:0.5;stroke-dasharray:5.0,5.0;" x1="457" x2="457" y1="361.7715" y2="449.7031"/><line style="stroke:#A80036;stroke-width:1.0;stroke-dasharray:1.0,4.0;" x1="457" x2="457" y1="449.7031" y2="490.6582"/><line style="stroke:#181818;stroke-width:0.5;stroke-dasharray:5.0,5.0;" x1="457" x2="457" y1="490.6582" y2="588.5898"/><rect fill="#E2E2F0" height="30.4883" rx="2.5" ry="2.5" style="stroke:#181818;stroke-width:0.5;" width="86" x="5" y="58.9766"/><text fill="#000000" font-family="sans-serif" font-size="14" lengthAdjust="spacing" textLength="72" x="12" y="79.5117">Fagsystem</text><rect fill="#E2E2F0" height="30.4883" rx="2.5" ry="2.5" style="stroke:#181818;stroke-width:0.5;" width="86" x="5" y="587.5898"/><text fill="#000000" font-family="sans-serif" font-size="14" lengthAdjust="spacing" textLength="72" x="12" y="608.125">Fagsystem</text><rect fill="#E2E2F0" height="30.4883" rx="2.5" ry="2.5" style="stroke:#181818;stroke-width:0.5;" width="96" x="409" y="58.9766"/><text fill="#000000" font-family="sans-serif" font-size="14" lengthAdjust="spacing" textLength="82" x="416" y="79.5117">Arkivsystem</text><rect fill="#E2E2F0" height="30.4883" rx="2.5" ry="2.5" style="stroke:#181818;stroke-width:0.5;" width="96" x="409" y="587.5898"/><text fill="#000000" font-family="sans-serif" font-size="14" lengthAdjust="spacing" textLength="82" x="416" y="608.125">Arkivsystem</text><text fill="#000000" font-family="sans-serif" font-size="11" lengthAdjust="spacing" textLength="249" x="128" y="125.0996">Fagsystem s&#248;ker etter elevmappe (saksmappe)</text><text fill="#000000" font-family="sans-serif" font-size="11" lengthAdjust="spacing" textLength="162" x="171.5" y="138.0547">for &#229; se om mappen eksisterer</text><text fill="#000000" font-family="sans-serif" font-size="11" lengthAdjust="spacing" textLength="167" x="169" y="179.0098">S&#248;k med s&#248;keresultat minimum</text><polygon fill="#181818" points="445,212.6406,455,216.6406,445,220.6406,449,216.6406" style="stroke:#181818;stroke-width:1.0;"/><line style="stroke:#181818;stroke-width:1.0;" x1="48" x2="451" y1="216.6406" y2="216.6406"/><text fill="#000000" font-family="sans-serif" font-size="13" lengthAdjust="spacing" textLength="190" x="157.5" y="211.8984">no.ks.fiks.arkiv.v1.innsyn.sok</text><text fill="#000000" font-family="sans-serif" font-size="11" lengthAdjust="spacing" textLength="175" x="165" y="249.2754">Arkiv leverer tilbake s&#248;keresultat</text><text fill="#000000" font-family="sans-serif" font-size="11" lengthAdjust="spacing" textLength="185" x="160" y="262.2305">for elevmappen som ble etterspurt</text><polygon fill="#181818" points="59,295.8613,49,299.8613,59,303.8613,55,299.8613" style="stroke:#181818;stroke-width:1.0;"/><line style="stroke:#181818;stroke-width:1.0;" x1="53" x2="456" y1="299.8613" y2="299.8613"/><text fill="#000000" font-family="sans-serif" font-size="13" lengthAdjust="spacing" textLength="306" x="99.5" y="295.1191">no.ks.fiks.arkiv.v1.innsyn.sok.resultat.minimum</text><text fill="#000000" font-family="sans-serif" font-size="11" lengthAdjust="spacing" textLength="242" x="131.5" y="332.4961">Alternativ 1: Fagsystem oppretter saksmappe</text><text fill="#000000" font-family="sans-serif" font-size="11" lengthAdjust="spacing" textLength="190" x="157.5" y="345.4512">for elev hvis mappen ikke eksisterte</text><polygon fill="#181818" points="445,379.082,455,383.082,445,387.082,449,383.082" style="stroke:#181818;stroke-width:1.0;"/><line style="stroke:#181818;stroke-width:1.0;" x1="48" x2="451" y1="383.082" y2="383.082"/><text fill="#000000" font-family="sans-serif" font-size="13" lengthAdjust="spacing" textLength="320" x="92.5" y="378.3398">no.ks.fiks.arkiv.v1.arkivering.arkivmelding.opprett</text><polygon fill="#181818" points="59,408.3926,49,412.3926,59,416.3926,55,412.3926" style="stroke:#181818;stroke-width:1.0;"/><line style="stroke:#181818;stroke-width:1.0;" x1="53" x2="456" y1="412.3926" y2="412.3926"/><text fill="#000000" font-family="sans-serif" font-size="13" lengthAdjust="spacing" textLength="321" x="92" y="407.6504">no.ks.fiks.arkiv.v1.arkivering.arkivmelding.mottatt</text><polygon fill="#181818" points="59,437.7031,49,441.7031,59,445.7031,55,441.7031" style="stroke:#181818;stroke-width:1.0;"/><line style="stroke:#181818;stroke-width:1.0;" x1="53" x2="456" y1="441.7031" y2="441.7031"/><text fill="#000000" font-family="sans-serif" font-size="13" lengthAdjust="spacing" textLength="385" x="60" y="436.9609">no.ks.fiks.arkiv.v1.arkivering.arkivmelding.opprett.kvittering</text><text fill="#000000" font-family="sans-serif" font-size="11" lengthAdjust="spacing" textLength="275" x="113.5" y="474.3379">Fagsystem oppretter journalposten p&#229; saksmappen</text><polygon fill="#181818" points="445,507.9688,455,511.9688,445,515.9688,449,511.9688" style="stroke:#181818;stroke-width:1.0;"/><line style="stroke:#181818;stroke-width:1.0;" x1="48" x2="451" y1="511.9688" y2="511.9688"/><text fill="#000000" font-family="sans-serif" font-size="13" lengthAdjust="spacing" textLength="320" x="92.5" y="507.2266">no.ks.fiks.arkiv.v1.arkivering.arkivmelding.opprett</text><polygon fill="#181818" points="59,537.2793,49,541.2793,59,545.2793,55,541.2793" style="stroke:#181818;stroke-width:1.0;"/><line style="stroke:#181818;stroke-width:1.0;" x1="53" x2="456" y1="541.2793" y2="541.2793"/><text fill="#000000" font-family="sans-serif" font-size="13" lengthAdjust="spacing" textLength="321" x="92" y="536.5371">no.ks.fiks.arkiv.v1.arkivering.arkivmelding.mottatt</text><polygon fill="#181818" points="59,566.5898,49,570.5898,59,574.5898,55,570.5898" style="stroke:#181818;stroke-width:1.0;"/><line style="stroke:#181818;stroke-width:1.0;" x1="53" x2="456" y1="570.5898" y2="570.5898"/><text fill="#000000" font-family="sans-serif" font-size="13" lengthAdjust="spacing" textLength="385" x="60" y="565.8477">no.ks.fiks.arkiv.v1.arkivering.arkivmelding.opprett.kvittering</text><!--SRC=[vPCzJWGn38NxEOMr5HH4eaK8YG8wAjfjmgvtC4cS46T6sWDn1tekXYSxFxj8520wcb5iPPw_zvA88qussm22hnto1XzGnBPuwwbbs20NpD0qXOf7MDqvmP3GG_fuWorP7ri8w7qCiBEjxALW0EtPxAW_b6lkSGinfOob8F0UNcANsVeKfLGTzDW7cnAkcgPHc48RIfOBtC-ILc0rLwkJJRVBgBhjg5OzOyoY8X_lJjqC77cP2cTYdTJb-PftCOCo2O9wgaq6T48ga36ht23vg4BgUpigedI-s0A1c48NXatBq8kR4yGhu6YSc1tffyPa-aj3pB9d8z4rbRd-0Keu38L2_iawF9rsG9rTC8W2F-aXLNkIkbnEGQulVWHYfa5cjDMCQ5xbsHRbkxmwEgBfX3FCSQuP9aPuxaccFCcfcIbKlHE_2AmkC1EtXwLUmkrGZ1G_jVsTN8X54_WpkP7Ek9w6fBJrvOOk8Huz4ariU2PphFoV0_i4]--></g></svg>