<?xml version="1.0" encoding="us-ascii" standalone="no"?><svg xmlns="http://www.w3.org/2000/svg" xmlns:xlink="http://www.w3.org/1999/xlink" contentStyleType="text/css" height="599px" preserveAspectRatio="none" style="width:527px;height:599px;background:#FFFFFF;" version="1.1" viewBox="0 0 527 599" width="527px" zoomAndPan="magnify"><defs/><g><text fill="#000000" font-family="sans-serif" font-size="14" font-weight="bold" lengthAdjust="spacing" textLength="434" x="45.75" y="28.5352">Eksempel p&#229; dialog mellom s&#248;knadssystem og arkivsystem</text><text fill="#000000" font-family="sans-serif" font-size="14" font-weight="bold" lengthAdjust="spacing" textLength="121" x="202.25" y="45.0234">Fra start til slutt</text><line style="stroke:#181818;stroke-width:0.5;stroke-dasharray:5.0,5.0;" x1="64" x2="64" y1="90.4648" y2="100.4648"/><line style="stroke:#A80036;stroke-width:1.0;stroke-dasharray:1.0,4.0;" x1="64" x2="64" y1="100.4648" y2="141.4199"/><line style="stroke:#181818;stroke-width:0.5;stroke-dasharray:5.0,5.0;" x1="64" x2="64" y1="141.4199" y2="229.3516"/><line style="stroke:#A80036;stroke-width:1.0;stroke-dasharray:1.0,4.0;" x1="64" x2="64" y1="229.3516" y2="296.2168"/><line style="stroke:#181818;stroke-width:0.5;stroke-dasharray:5.0,5.0;" x1="64" x2="64" y1="296.2168" y2="296.2168"/><line style="stroke:#A80036;stroke-width:1.0;stroke-dasharray:1.0,4.0;" x1="64" x2="64" y1="296.2168" y2="337.1719"/><line style="stroke:#181818;stroke-width:0.5;stroke-dasharray:5.0,5.0;" x1="64" x2="64" y1="337.1719" y2="425.1035"/><line style="stroke:#A80036;stroke-width:1.0;stroke-dasharray:1.0,4.0;" x1="64" x2="64" y1="425.1035" y2="466.0586"/><line style="stroke:#181818;stroke-width:0.5;stroke-dasharray:5.0,5.0;" x1="64" x2="64" y1="466.0586" y2="563.9902"/><line style="stroke:#181818;stroke-width:0.5;stroke-dasharray:5.0,5.0;" x1="473.5" x2="473.5" y1="90.4648" y2="100.4648"/><line style="stroke:#A80036;stroke-width:1.0;stroke-dasharray:1.0,4.0;" x1="473.5" x2="473.5" y1="100.4648" y2="141.4199"/><line style="stroke:#181818;stroke-width:0.5;stroke-dasharray:5.0,5.0;" x1="473.5" x2="473.5" y1="141.4199" y2="229.3516"/><line style="stroke:#A80036;stroke-width:1.0;stroke-dasharray:1.0,4.0;" x1="473.5" x2="473.5" y1="229.3516" y2="296.2168"/><line style="stroke:#181818;stroke-width:0.5;stroke-dasharray:5.0,5.0;" x1="473.5" x2="473.5" y1="296.2168" y2="296.2168"/><line style="stroke:#A80036;stroke-width:1.0;stroke-dasharray:1.0,4.0;" x1="473.5" x2="473.5" y1="296.2168" y2="337.1719"/><line style="stroke:#181818;stroke-width:0.5;stroke-dasharray:5.0,5.0;" x1="473.5" x2="473.5" y1="337.1719" y2="425.1035"/><line style="stroke:#A80036;stroke-width:1.0;stroke-dasharray:1.0,4.0;" x1="473.5" x2="473.5" y1="425.1035" y2="466.0586"/><line style="stroke:#181818;stroke-width:0.5;stroke-dasharray:5.0,5.0;" x1="473.5" x2="473.5" y1="466.0586" y2="563.9902"/><rect fill="#E2E2F0" height="30.4883" rx="2.5" ry="2.5" style="stroke:#181818;stroke-width:0.5;" width="119" x="5" y="58.9766"/><text fill="#000000" font-family="sans-serif" font-size="14" lengthAdjust="spacing" textLength="105" x="12" y="79.5117">S&#248;knadssystem</text><rect fill="#E2E2F0" height="30.4883" rx="2.5" ry="2.5" style="stroke:#181818;stroke-width:0.5;" width="119" x="5" y="562.9902"/><text fill="#000000" font-family="sans-serif" font-size="14" lengthAdjust="spacing" textLength="105" x="12" y="583.5254">S&#248;knadssystem</text><rect fill="#E2E2F0" height="30.4883" rx="2.5" ry="2.5" style="stroke:#181818;stroke-width:0.5;" width="96" x="425.5" y="58.9766"/><text fill="#000000" font-family="sans-serif" font-size="14" lengthAdjust="spacing" textLength="82" x="432.5" y="79.5117">Arkivsystem</text><rect fill="#E2E2F0" height="30.4883" rx="2.5" ry="2.5" style="stroke:#181818;stroke-width:0.5;" width="96" x="425.5" y="562.9902"/><text fill="#000000" font-family="sans-serif" font-size="14" lengthAdjust="spacing" textLength="82" x="432.5" y="583.5254">Arkivsystem</text><text fill="#000000" font-family="sans-serif" font-size="11" lengthAdjust="spacing" textLength="266" x="136" y="125.0996">S&#248;knadssystem oppretter saksmappe for prosjekt</text><polygon fill="#181818" points="461.5,158.7305,471.5,162.7305,461.5,166.7305,465.5,162.7305" style="stroke:#181818;stroke-width:1.0;"/><line style="stroke:#181818;stroke-width:1.0;" x1="64.5" x2="467.5" y1="162.7305" y2="162.7305"/><text fill="#000000" font-family="sans-serif" font-size="13" lengthAdjust="spacing" textLength="346" x="96" y="157.9883">no.ks.fiks.arkiv.v1.arkivering.arkivmelding.opprett (*1)</text><polygon fill="#181818" points="75.5,188.041,65.5,192.041,75.5,196.041,71.5,192.041" style="stroke:#181818;stroke-width:1.0;"/><line style="stroke:#181818;stroke-width:1.0;" x1="69.5" x2="472.5" y1="192.041" y2="192.041"/><text fill="#000000" font-family="sans-serif" font-size="13" lengthAdjust="spacing" textLength="168" x="185" y="187.2988">no.ks.fiks.arkiv.v1.mottatt</text><polygon fill="#181818" points="75.5,217.3516,65.5,221.3516,75.5,225.3516,71.5,221.3516" style="stroke:#181818;stroke-width:1.0;"/><line style="stroke:#181818;stroke-width:1.0;" x1="69.5" x2="472.5" y1="221.3516" y2="221.3516"/><text fill="#000000" font-family="sans-serif" font-size="13" lengthAdjust="spacing" textLength="385" x="76.5" y="216.6094">no.ks.fiks.arkiv.v1.arkivering.arkivmelding.opprett.kvittering</text><text fill="#000000" font-family="sans-serif" font-size="11" lengthAdjust="spacing" textLength="285" x="126.5" y="253.9863">S&#248;knadsprosess med s&#248;knader som eventuelt endres</text><text fill="#000000" font-family="sans-serif" font-size="11" lengthAdjust="spacing" textLength="247" x="145.5" y="266.9414">forblir i s&#248;knadssystem til prosjektet avsluttes</text><text fill="#000000" font-family="sans-serif" font-size="11" lengthAdjust="spacing" textLength="154" x="193.5" y="279.8965">f.eks. s&#248;knadsfrist har utg&#229;tt</text><text fill="#000000" font-family="sans-serif" font-size="11" lengthAdjust="spacing" textLength="356" x="89.5" y="320.8516">S&#248;knadssystem oppretter journalpost(er) med endelige s&#248;knad(er)</text><polygon fill="#181818" points="461.5,354.4824,471.5,358.4824,461.5,362.4824,465.5,358.4824" style="stroke:#181818;stroke-width:1.0;"/><line style="stroke:#181818;stroke-width:1.0;" x1="64.5" x2="467.5" y1="358.4824" y2="358.4824"/><text fill="#000000" font-family="sans-serif" font-size="13" lengthAdjust="spacing" textLength="346" x="96" y="353.7402">no.ks.fiks.arkiv.v1.arkivering.arkivmelding.opprett (*2)</text><polygon fill="#181818" points="75.5,383.793,65.5,387.793,75.5,391.793,71.5,387.793" style="stroke:#181818;stroke-width:1.0;"/><line style="stroke:#181818;stroke-width:1.0;" x1="69.5" x2="472.5" y1="387.793" y2="387.793"/><text fill="#000000" font-family="sans-serif" font-size="13" lengthAdjust="spacing" textLength="168" x="185" y="383.0508">no.ks.fiks.arkiv.v1.mottatt</text><polygon fill="#181818" points="75.5,413.1035,65.5,417.1035,75.5,421.1035,71.5,417.1035" style="stroke:#181818;stroke-width:1.0;"/><line style="stroke:#181818;stroke-width:1.0;" x1="69.5" x2="472.5" y1="417.1035" y2="417.1035"/><text fill="#000000" font-family="sans-serif" font-size="13" lengthAdjust="spacing" textLength="385" x="76.5" y="412.3613">no.ks.fiks.arkiv.v1.arkivering.arkivmelding.opprett.kvittering</text><text fill="#000000" font-family="sans-serif" font-size="11" lengthAdjust="spacing" textLength="180" x="179" y="449.7383">S&#248;knadssystem avslutter prosjekt</text><polygon fill="#181818" points="461.5,483.3691,471.5,487.3691,461.5,491.3691,465.5,487.3691" style="stroke:#181818;stroke-width:1.0;"/><line style="stroke:#181818;stroke-width:1.0;" x1="64.5" x2="467.5" y1="487.3691" y2="487.3691"/><text fill="#000000" font-family="sans-serif" font-size="13" lengthAdjust="spacing" textLength="346" x="96" y="482.627">no.ks.fiks.arkiv.v1.arkivering.arkivmelding.opprett (*3)</text><polygon fill="#181818" points="75.5,512.6797,65.5,516.6797,75.5,520.6797,71.5,516.6797" style="stroke:#181818;stroke-width:1.0;"/><line style="stroke:#181818;stroke-width:1.0;" x1="69.5" x2="472.5" y1="516.6797" y2="516.6797"/><text fill="#000000" font-family="sans-serif" font-size="13" lengthAdjust="spacing" textLength="168" x="185" y="511.9375">no.ks.fiks.arkiv.v1.mottatt</text><polygon fill="#181818" points="75.5,541.9902,65.5,545.9902,75.5,549.9902,71.5,545.9902" style="stroke:#181818;stroke-width:1.0;"/><line style="stroke:#181818;stroke-width:1.0;" x1="69.5" x2="472.5" y1="545.9902" y2="545.9902"/><text fill="#000000" font-family="sans-serif" font-size="13" lengthAdjust="spacing" textLength="385" x="76.5" y="541.248">no.ks.fiks.arkiv.v1.arkivering.arkivmelding.opprett.kvittering</text><!--SRC=[pPE_JiCm4CRtFCKfKujKIuKD8QGEi36nTZcQQt3jsCPtYSG3zHtO-sBOwHz81a18e2wHp_PzT_v-5pRQ1OpO0DDBIsv53yICDIsihXsio0b5A0hHOWdAEyFK1B8GTbkeD5fVGqFM-fI_UpCEA-PN5ceW7M0qkjk7ItSV4LWm2eYsmBOLAOkYIBL5htH09_0uL426ShXL3gulFkJxkv_YfAoK6kdv4299VWwZuGP385Zx225wtf2Hb56CKcQtWohNuBmohDOwVVhNgMw-Nr3KhjulanzL3WxrO78nduw5RsO_46wy28hyAlURffJfTBOYRVLMdRpFPgG1I52h8z5iME9BNPg5bgm0kIeImz9b-vwiZg37z3FZewyaW5qF_92aA7LwobX7pGBF6A6LUhULp06-vhVnRNHeWsUPK9pspQQcA8qi7NNxWxz3UddsICT_qm71VypxrLcRymu0]--></g></svg>