<svg xmlns="http://www.w3.org/2000/svg" xmlns:xlink="http://www.w3.org/1999/xlink" contentStyleType="text/css" height="534px" preserveAspectRatio="none" style="width:1418px;height:534px;background:#FFFFFF;" version="1.1" viewBox="0 0 1418 534" width="1418px" zoomAndPan="magnify"><defs/><g><rect fill="#F1F1F1" height="102.4414" rx="5" ry="5" style="stroke:#F1F1F1;stroke-width:1.5;" width="790" x="10" y="174.2793"/><text fill="#000000" font-family="sans-serif" font-size="14" font-weight="bold" lengthAdjust="spacing" textLength="101" x="15" y="189.8145">protokollnavn</text><text fill="#000000" font-family="sans-serif" font-size="14" lengthAdjust="spacing" textLength="102" x="126" y="189.8145">no.ks.fiks.arkiv</text><line style="stroke:#000000;stroke-width:1.0;" x1="121" x2="121" y1="174.2793" y2="194.7676"/><line style="stroke:#000000;stroke-width:1.0;" x1="10" x2="800" y1="194.7676" y2="194.7676"/><text fill="#000000" font-family="sans-serif" font-size="14" font-weight="bold" lengthAdjust="spacing" textLength="34" x="15" y="210.3027">navn</text><text fill="#000000" font-family="sans-serif" font-size="14" lengthAdjust="spacing" textLength="90" x="126" y="210.3027">journalstatus</text><line style="stroke:#000000;stroke-width:1.0;" x1="121" x2="121" y1="194.7676" y2="215.2559"/><line style="stroke:#000000;stroke-width:1.0;" x1="10" x2="800" y1="215.2559" y2="215.2559"/><text fill="#000000" font-family="sans-serif" font-size="14" font-weight="bold" lengthAdjust="spacing" textLength="53" x="15" y="230.791">versjon</text><text fill="#000000" font-family="sans-serif" font-size="14" lengthAdjust="spacing" textLength="16" x="126" y="230.791">v1</text><line style="stroke:#000000;stroke-width:1.0;" x1="121" x2="121" y1="215.2559" y2="235.7441"/><line style="stroke:#000000;stroke-width:1.0;" x1="10" x2="800" y1="235.7441" y2="235.7441"/><text fill="#000000" font-family="sans-serif" font-size="14" font-weight="bold" lengthAdjust="spacing" textLength="73" x="15" y="251.2793">definisjon</text><text fill="#000000" font-family="sans-serif" font-size="14" lengthAdjust="spacing" textLength="669" x="126" y="251.2793">Status til journalposten, dvs. om dokumentet er registrert, under behandling eller endelig arkivert</text><line style="stroke:#000000;stroke-width:1.0;" x1="121" x2="121" y1="235.7441" y2="256.2324"/><line style="stroke:#000000;stroke-width:1.0;" x1="10" x2="800" y1="256.2324" y2="256.2324"/><text fill="#000000" font-family="sans-serif" font-size="14" font-weight="bold" lengthAdjust="spacing" textLength="67" x="15" y="271.7676">kodeliste</text><text fill="#000000" font-family="sans-serif" font-size="14" lengthAdjust="spacing" textLength="12" x="126" y="271.7676">&#160;&#160;&#160;</text><line style="stroke:#000000;stroke-width:1.0;" x1="121" x2="121" y1="256.2324" y2="276.7207"/><rect fill="none" height="102.4414" rx="5" ry="5" style="stroke:#000000;stroke-width:1.5;" width="790" x="10" y="174.2793"/><rect fill="#F1F1F1" height="184.3945" rx="5" ry="5" style="stroke:#F1F1F1;stroke-width:1.5;" width="22" x="837" y="174.3027"/><text fill="#000000" font-family="sans-serif" font-size="14" lengthAdjust="spacing" textLength="12" x="842" y="189.8379">&#160;&#160;&#160;</text><line style="stroke:#000000;stroke-width:1.0;" x1="837" x2="859" y1="194.791" y2="194.791"/><text fill="#000000" font-family="sans-serif" font-size="14" lengthAdjust="spacing" textLength="12" x="842" y="210.3262">&#160;&#160;&#160;</text><line style="stroke:#000000;stroke-width:1.0;" x1="837" x2="859" y1="215.2793" y2="215.2793"/><text fill="#000000" font-family="sans-serif" font-size="14" lengthAdjust="spacing" textLength="12" x="842" y="230.8145">&#160;&#160;&#160;</text><line style="stroke:#000000;stroke-width:1.0;" x1="837" x2="859" y1="235.7676" y2="235.7676"/><text fill="#000000" font-family="sans-serif" font-size="14" lengthAdjust="spacing" textLength="12" x="842" y="251.3027">&#160;&#160;&#160;</text><line style="stroke:#000000;stroke-width:1.0;" x1="837" x2="859" y1="256.2559" y2="256.2559"/><text fill="#000000" font-family="sans-serif" font-size="14" lengthAdjust="spacing" textLength="12" x="842" y="271.791">&#160;&#160;&#160;</text><line style="stroke:#000000;stroke-width:1.0;" x1="837" x2="859" y1="276.7441" y2="276.7441"/><text fill="#000000" font-family="sans-serif" font-size="14" lengthAdjust="spacing" textLength="12" x="842" y="292.2793">&#160;&#160;&#160;</text><line style="stroke:#000000;stroke-width:1.0;" x1="837" x2="859" y1="297.2324" y2="297.2324"/><text fill="#000000" font-family="sans-serif" font-size="14" lengthAdjust="spacing" textLength="12" x="842" y="312.7676">&#160;&#160;&#160;</text><line style="stroke:#000000;stroke-width:1.0;" x1="837" x2="859" y1="317.7207" y2="317.7207"/><text fill="#000000" font-family="sans-serif" font-size="14" lengthAdjust="spacing" textLength="12" x="842" y="333.2559">&#160;&#160;&#160;</text><line style="stroke:#000000;stroke-width:1.0;" x1="837" x2="859" y1="338.209" y2="338.209"/><text fill="#000000" font-family="sans-serif" font-size="14" lengthAdjust="spacing" textLength="12" x="842" y="353.7441">&#160;&#160;&#160;</text><rect fill="none" height="184.3945" rx="5" ry="5" style="stroke:#000000;stroke-width:1.5;" width="22" x="837" y="174.3027"/><rect fill="#F1F1F1" height="40.9766" rx="5" ry="5" style="stroke:#F1F1F1;stroke-width:1.5;" width="211" x="1045.5" y="10"/><text fill="#000000" font-family="sans-serif" font-size="14" font-weight="bold" lengthAdjust="spacing" textLength="71" x="1050.5" y="25.5352">kodeverdi</text><text fill="#000000" font-family="sans-serif" font-size="14" lengthAdjust="spacing" textLength="4" x="1177.5" y="25.5352">J</text><line style="stroke:#000000;stroke-width:1.0;" x1="1172.5" x2="1172.5" y1="10" y2="30.4883"/><line style="stroke:#000000;stroke-width:1.0;" x1="1045.5" x2="1256.5" y1="30.4883" y2="30.4883"/><text fill="#000000" font-family="sans-serif" font-size="14" font-weight="bold" lengthAdjust="spacing" textLength="117" x="1050.5" y="46.0234">kodebeskrivelse</text><text fill="#000000" font-family="sans-serif" font-size="14" lengthAdjust="spacing" textLength="74" x="1177.5" y="46.0234">Journalf&#248;rt</text><line style="stroke:#000000;stroke-width:1.0;" x1="1172.5" x2="1172.5" y1="30.4883" y2="50.9766"/><rect fill="none" height="40.9766" rx="5" ry="5" style="stroke:#000000;stroke-width:1.5;" width="211" x="1045.5" y="10"/><rect fill="#F1F1F1" height="40.9766" rx="5" ry="5" style="stroke:#F1F1F1;stroke-width:1.5;" width="329" x="986.5" y="69"/><text fill="#000000" font-family="sans-serif" font-size="14" font-weight="bold" lengthAdjust="spacing" textLength="71" x="991.5" y="84.5352">kodeverdi</text><text fill="#000000" font-family="sans-serif" font-size="14" lengthAdjust="spacing" textLength="8" x="1118.5" y="84.5352">F</text><line style="stroke:#000000;stroke-width:1.0;" x1="1113.5" x2="1113.5" y1="69" y2="89.4883"/><line style="stroke:#000000;stroke-width:1.0;" x1="986.5" x2="1315.5" y1="89.4883" y2="89.4883"/><text fill="#000000" font-family="sans-serif" font-size="14" font-weight="bold" lengthAdjust="spacing" textLength="117" x="991.5" y="105.0234">kodebeskrivelse</text><text fill="#000000" font-family="sans-serif" font-size="14" lengthAdjust="spacing" textLength="192" x="1118.5" y="105.0234">Ferdigstilt av saksbehandler</text><line style="stroke:#000000;stroke-width:1.0;" x1="1113.5" x2="1113.5" y1="89.4883" y2="109.9766"/><rect fill="none" height="40.9766" rx="5" ry="5" style="stroke:#000000;stroke-width:1.5;" width="329" x="986.5" y="69"/><rect fill="#F1F1F1" height="40.9766" rx="5" ry="5" style="stroke:#F1F1F1;stroke-width:1.5;" width="257" x="1022.5" y="128"/><text fill="#000000" font-family="sans-serif" font-size="14" font-weight="bold" lengthAdjust="spacing" textLength="71" x="1027.5" y="143.5352">kodeverdi</text><text fill="#000000" font-family="sans-serif" font-size="14" lengthAdjust="spacing" textLength="10" x="1154.5" y="143.5352">G</text><line style="stroke:#000000;stroke-width:1.0;" x1="1149.5" x2="1149.5" y1="128" y2="148.4883"/><line style="stroke:#000000;stroke-width:1.0;" x1="1022.5" x2="1279.5" y1="148.4883" y2="148.4883"/><text fill="#000000" font-family="sans-serif" font-size="14" font-weight="bold" lengthAdjust="spacing" textLength="117" x="1027.5" y="164.0234">kodebeskrivelse</text><text fill="#000000" font-family="sans-serif" font-size="14" lengthAdjust="spacing" textLength="120" x="1154.5" y="164.0234">Godkjent av leder</text><line style="stroke:#000000;stroke-width:1.0;" x1="1149.5" x2="1149.5" y1="148.4883" y2="168.9766"/><rect fill="none" height="40.9766" rx="5" ry="5" style="stroke:#000000;stroke-width:1.5;" width="257" x="1022.5" y="128"/><rect fill="#F1F1F1" height="40.9766" rx="5" ry="5" style="stroke:#F1F1F1;stroke-width:1.5;" width="205" x="1048.5" y="187"/><text fill="#000000" font-family="sans-serif" font-size="14" font-weight="bold" lengthAdjust="spacing" textLength="71" x="1053.5" y="202.5352">kodeverdi</text><text fill="#000000" font-family="sans-serif" font-size="14" lengthAdjust="spacing" textLength="8" x="1180.5" y="202.5352">E</text><line style="stroke:#000000;stroke-width:1.0;" x1="1175.5" x2="1175.5" y1="187" y2="207.4883"/><line style="stroke:#000000;stroke-width:1.0;" x1="1048.5" x2="1253.5" y1="207.4883" y2="207.4883"/><text fill="#000000" font-family="sans-serif" font-size="14" font-weight="bold" lengthAdjust="spacing" textLength="117" x="1053.5" y="223.0234">kodebeskrivelse</text><text fill="#000000" font-family="sans-serif" font-size="14" lengthAdjust="spacing" textLength="68" x="1180.5" y="223.0234">Ekspedert</text><line style="stroke:#000000;stroke-width:1.0;" x1="1175.5" x2="1175.5" y1="207.4883" y2="227.9766"/><rect fill="none" height="40.9766" rx="5" ry="5" style="stroke:#000000;stroke-width:1.5;" width="205" x="1048.5" y="187"/><rect fill="#F1F1F1" height="40.9766" rx="5" ry="5" style="stroke:#F1F1F1;stroke-width:1.5;" width="191" x="1055.5" y="246"/><text fill="#000000" font-family="sans-serif" font-size="14" font-weight="bold" lengthAdjust="spacing" textLength="71" x="1060.5" y="261.5352">kodeverdi</text><text fill="#000000" font-family="sans-serif" font-size="14" lengthAdjust="spacing" textLength="10" x="1187.5" y="261.5352">A</text><line style="stroke:#000000;stroke-width:1.0;" x1="1182.5" x2="1182.5" y1="246" y2="266.4883"/><line style="stroke:#000000;stroke-width:1.0;" x1="1055.5" x2="1246.5" y1="266.4883" y2="266.4883"/><text fill="#000000" font-family="sans-serif" font-size="14" font-weight="bold" lengthAdjust="spacing" textLength="117" x="1060.5" y="282.0234">kodebeskrivelse</text><text fill="#000000" font-family="sans-serif" font-size="14" lengthAdjust="spacing" textLength="54" x="1187.5" y="282.0234">Arkivert</text><line style="stroke:#000000;stroke-width:1.0;" x1="1182.5" x2="1182.5" y1="266.4883" y2="286.9766"/><rect fill="none" height="40.9766" rx="5" ry="5" style="stroke:#000000;stroke-width:1.5;" width="191" x="1055.5" y="246"/><rect fill="#F1F1F1" height="40.9766" rx="5" ry="5" style="stroke:#F1F1F1;stroke-width:1.5;" width="175" x="1063.5" y="305"/><text fill="#000000" font-family="sans-serif" font-size="14" font-weight="bold" lengthAdjust="spacing" textLength="71" x="1068.5" y="320.5352">kodeverdi</text><text fill="#000000" font-family="sans-serif" font-size="14" lengthAdjust="spacing" textLength="10" x="1195.5" y="320.5352">U</text><line style="stroke:#000000;stroke-width:1.0;" x1="1190.5" x2="1190.5" y1="305" y2="325.4883"/><line style="stroke:#000000;stroke-width:1.0;" x1="1063.5" x2="1238.5" y1="325.4883" y2="325.4883"/><text fill="#000000" font-family="sans-serif" font-size="14" font-weight="bold" lengthAdjust="spacing" textLength="117" x="1068.5" y="341.0234">kodebeskrivelse</text><text fill="#000000" font-family="sans-serif" font-size="14" lengthAdjust="spacing" textLength="38" x="1195.5" y="341.0234">Utg&#229;r</text><line style="stroke:#000000;stroke-width:1.0;" x1="1190.5" x2="1190.5" y1="325.4883" y2="345.9766"/><rect fill="none" height="40.9766" rx="5" ry="5" style="stroke:#000000;stroke-width:1.5;" width="175" x="1063.5" y="305"/><rect fill="#F1F1F1" height="40.9766" rx="5" ry="5" style="stroke:#F1F1F1;stroke-width:1.5;" width="492" x="905" y="364"/><text fill="#000000" font-family="sans-serif" font-size="14" font-weight="bold" lengthAdjust="spacing" textLength="71" x="910" y="379.5352">kodeverdi</text><text fill="#000000" font-family="sans-serif" font-size="14" lengthAdjust="spacing" textLength="12" x="1037" y="379.5352">M</text><line style="stroke:#000000;stroke-width:1.0;" x1="1032" x2="1032" y1="364" y2="384.4883"/><line style="stroke:#000000;stroke-width:1.0;" x1="905" x2="1397" y1="384.4883" y2="384.4883"/><text fill="#000000" font-family="sans-serif" font-size="14" font-weight="bold" lengthAdjust="spacing" textLength="117" x="910" y="400.0234">kodebeskrivelse</text><text fill="#000000" font-family="sans-serif" font-size="14" lengthAdjust="spacing" textLength="355" x="1037" y="400.0234">Midlertidig registrering av innkommende dokument</text><line style="stroke:#000000;stroke-width:1.0;" x1="1032" x2="1032" y1="384.4883" y2="404.9766"/><rect fill="none" height="40.9766" rx="5" ry="5" style="stroke:#000000;stroke-width:1.5;" width="492" x="905" y="364"/><rect fill="#F1F1F1" height="40.9766" rx="5" ry="5" style="stroke:#F1F1F1;stroke-width:1.5;" width="510" x="896" y="423"/><text fill="#000000" font-family="sans-serif" font-size="14" font-weight="bold" lengthAdjust="spacing" textLength="71" x="901" y="438.5352">kodeverdi</text><text fill="#000000" font-family="sans-serif" font-size="14" lengthAdjust="spacing" textLength="8" x="1028" y="438.5352">S</text><line style="stroke:#000000;stroke-width:1.0;" x1="1023" x2="1023" y1="423" y2="443.4883"/><line style="stroke:#000000;stroke-width:1.0;" x1="896" x2="1406" y1="443.4883" y2="443.4883"/><text fill="#000000" font-family="sans-serif" font-size="14" font-weight="bold" lengthAdjust="spacing" textLength="117" x="901" y="459.0234">kodebeskrivelse</text><text fill="#000000" font-family="sans-serif" font-size="14" lengthAdjust="spacing" textLength="373" x="1028" y="459.0234">Saksbehandler har registrert innkommende dokument</text><line style="stroke:#000000;stroke-width:1.0;" x1="1023" x2="1023" y1="443.4883" y2="463.9766"/><rect fill="none" height="40.9766" rx="5" ry="5" style="stroke:#000000;stroke-width:1.5;" width="510" x="896" y="423"/><rect fill="#F1F1F1" height="40.9766" rx="5" ry="5" style="stroke:#F1F1F1;stroke-width:1.5;" width="275" x="1013.5" y="482"/><text fill="#000000" font-family="sans-serif" font-size="14" font-weight="bold" lengthAdjust="spacing" textLength="71" x="1018.5" y="497.5352">kodeverdi</text><text fill="#000000" font-family="sans-serif" font-size="14" lengthAdjust="spacing" textLength="9" x="1145.5" y="497.5352">R</text><line style="stroke:#000000;stroke-width:1.0;" x1="1140.5" x2="1140.5" y1="482" y2="502.4883"/><line style="stroke:#000000;stroke-width:1.0;" x1="1013.5" x2="1288.5" y1="502.4883" y2="502.4883"/><text fill="#000000" font-family="sans-serif" font-size="14" font-weight="bold" lengthAdjust="spacing" textLength="117" x="1018.5" y="518.0234">kodebeskrivelse</text><text fill="#000000" font-family="sans-serif" font-size="14" lengthAdjust="spacing" textLength="138" x="1145.5" y="518.0234">Reservert dokument</text><line style="stroke:#000000;stroke-width:1.0;" x1="1140.5" x2="1140.5" y1="502.4883" y2="522.9766"/><rect fill="none" height="40.9766" rx="5" ry="5" style="stroke:#000000;stroke-width:1.5;" width="275" x="1013.5" y="482"/><path d="M847,184.5 L860,184.5 C917.8137,184.5 851.8533,96.8295 896,59.5 C934.6796,26.7934 989.3237,17.4508 1038.0679,17.1559 " fill="none" style="stroke:#000000;stroke-width:1.0;stroke-dasharray:3.0,3.0;"/><path d="M1038.0566,20.2636 L1040.3987,17.1644 L1038.0792,14.0483 L1045.8371,17.1841 L1038.0566,20.2636 " fill="#000000" style="stroke:#000000;stroke-width:1.0;"/><ellipse cx="847" cy="184.5" fill="#000000" rx="3" ry="3" style="stroke:#000000;stroke-width:1.0;"/><path d="M847,205.5 L860,205.5 C901.8463,205.5 862.5848,143.6899 896,118.5 C920.061,100.3617 949.2141,89.7935 979.0782,84.0587 " fill="none" style="stroke:#000000;stroke-width:1.0;stroke-dasharray:3.0,3.0;"/><path d="M979.6204,87.1008 L981.3597,83.652 L978.536,81.0166 L986.6834,82.7032 L979.6204,87.1008 " fill="#000000" style="stroke:#000000;stroke-width:1.0;"/><ellipse cx="847" cy="205.5" fill="#000000" rx="3" ry="3" style="stroke:#000000;stroke-width:1.0;"/><path d="M847,225.5 L860,225.5 C886.6667,225.5 872.8632,190.7589 896,177.5 C931.6871,157.049 974.8087,147.5904 1015.3341,143.8506 " fill="none" style="stroke:#000000;stroke-width:1.0;stroke-dasharray:3.0,3.0;"/><path d="M1015.5874,146.8643 L1017.5944,143.6606 L1015.0809,140.8368 L1022.8685,143.2175 L1015.5874,146.8643 " fill="#000000" style="stroke:#000000;stroke-width:1.0;"/><ellipse cx="847" cy="225.5" fill="#000000" rx="3" ry="3" style="stroke:#000000;stroke-width:1.0;"/><path d="M847,246.5 L860,246.5 C876.4924,246.5 879.7775,240.4714 896,237.5 C943.3614,228.825 996.1628,222.1232 1041.3403,217.2766 " fill="none" style="stroke:#000000;stroke-width:1.0;stroke-dasharray:3.0,3.0;"/><path d="M1041.6571,220.2653 L1043.5819,217.0389 L1041.0234,214.2878 L1048.8122,216.4844 L1041.6571,220.2653 " fill="#000000" style="stroke:#000000;stroke-width:1.0;"/><ellipse cx="847" cy="246.5" fill="#000000" rx="3" ry="3" style="stroke:#000000;stroke-width:1.0;"/><path d="M847,266.5 L860,266.5 C922.4985,266.5 992.5605,266.5 1048.2186,266.5 " fill="none" style="stroke:#000000;stroke-width:1.0;stroke-dasharray:3.0,3.0;"/><path d="M1048.2186,269.6023 L1050.5454,266.5 L1048.2186,263.3977 L1055.9744,266.5 L1048.2186,269.6023 " fill="#000000" style="stroke:#000000;stroke-width:1.0;"/><ellipse cx="847" cy="266.5" fill="#000000" rx="3" ry="3" style="stroke:#000000;stroke-width:1.0;"/><path d="M847,286.5 L860,286.5 C876.6058,286.5 879.7,293.3279 896,296.5 C948.6217,306.7405 1008.1191,313.7671 1056.3478,318.336 " fill="none" style="stroke:#000000;stroke-width:1.0;stroke-dasharray:3.0,3.0;"/><path d="M1056.0629,321.3923 L1058.64,318.5496 L1056.6327,315.2796 L1063.9887,319.0482 L1056.0629,321.3923 " fill="#000000" style="stroke:#000000;stroke-width:1.0;"/><ellipse cx="847" cy="286.5" fill="#000000" rx="3" ry="3" style="stroke:#000000;stroke-width:1.0;"/><path d="M847,307.5 L860,307.5 C886.6667,307.5 872.8632,342.2411 896,355.5 C899.0671,357.2576 902.1891,358.9341 905.3596,360.5327 " fill="none" style="stroke:#000000;stroke-width:1.0;stroke-dasharray:3.0,3.0;"/><path d="M904.009,363.3391 L907.4644,361.5456 L906.7103,357.7263 L912.3757,363.9092 L904.009,363.3391 " fill="#000000" style="stroke:#000000;stroke-width:1.0;"/><ellipse cx="847" cy="307.5" fill="#000000" rx="3" ry="3" style="stroke:#000000;stroke-width:1.0;"/><path d="M847,327.5 L860,327.5 C901.8463,327.5 862.5848,389.3101 896,414.5 C897.8726,415.9117 899.7761,417.2775 901.7083,418.5987 " fill="none" style="stroke:#000000;stroke-width:1.0;stroke-dasharray:3.0,3.0;"/><path d="M899.9793,421.2697 L903.7116,419.8954 L903.4373,415.9277 L908.3858,422.9211 L899.9793,421.2697 " fill="#000000" style="stroke:#000000;stroke-width:1.0;"/><ellipse cx="847" cy="327.5" fill="#000000" rx="3" ry="3" style="stroke:#000000;stroke-width:1.0;"/><path d="M847,348.5 L860,348.5 C917.8137,348.5 851.8533,436.1705 896,473.5 C926.3229,499.1404 966.4572,510.4217 1005.8687,514.2416 " fill="none" style="stroke:#000000;stroke-width:1.0;stroke-dasharray:3.0,3.0;"/><path d="M1005.6021,517.3895 L1008.2296,514.4416 L1006.1354,511.0938 L1013.7383,514.9082 L1005.6021,517.3895 " fill="#000000" style="stroke:#000000;stroke-width:1.0;"/><ellipse cx="847" cy="348.5" fill="#000000" rx="3" ry="3" style="stroke:#000000;stroke-width:1.0;"/><path d="M788,266.5 L801,266.5 C810.4213,266.5 820.9164,266.5 829.5483,266.5 " fill="none" style="stroke:#000000;stroke-width:1.0;stroke-dasharray:3.0,3.0;"/><path d="M829.5483,269.5437 L831.8311,266.5 L829.5483,263.4563 L837.1575,266.5 L829.5483,269.5437 " fill="#000000" style="stroke:#000000;stroke-width:1.0;"/><ellipse cx="788" cy="266.5" fill="#000000" rx="3" ry="3" style="stroke:#000000;stroke-width:1.0;"/><!--SRC=[dPJFJkCm4CRlVefHJo2LQbjHX7A2XRHIjrbGGxciEBXa6jmuuyfs8Y74u-mxSEV5TfosW3X4qLvy-ERBR_vud0ldfVKRPqYy283UrXfl2gCroPfw4VJ830etM2i-f2rKtUi7so6wCPKbgHdYAxSBrMZTnZJHUhYJCbmhKWSrRSpWbORzvrlZF58VijeDm9IGcQ8gaJnwG0iMS-MyHUlxK576oWgV96LQKGweDGl8ibOvD1MoSPUsC45bD6VzmmB0ItFkGspCL0-uebdZ_mYiq1MMEThXBhohSlt-nkJ6-DflmqtQSPDWp1ttxq7Mu6JXzWsXxOAVjkEd9YisFBp0rfXrOyRjpBXmsu3grFvbE-loS4STKCjsrDBdxtyxzPUqWn8LXkyLtyldkeNruXageiAKPLYnZyNiaZ9jJvb-lNPuab_t_BzpBjfpBj2X3RF_3kNpGRoA2qxO_0h4hPRabyaSmcjMXc0u6FqOdGx6Hsb5aCXd69t1S1WDnz7u7AxYz0v2_5WSJM_duFZ1F7BbeHsrgZm3ZiLCrX8M5NbLOWGtMwJPzQ-3037LoXeADOdPVV9fE3iz-Qayf4tXS9-8QrpBYfzEJ8ycupkAO7atEJaNSqbv9NDc8uahmrpx7C7lcty0]--></g></svg>