<svg xmlns="http://www.w3.org/2000/svg" xmlns:xlink="http://www.w3.org/1999/xlink" contentStyleType="text/css" height="351px" preserveAspectRatio="none" style="width:439px;height:351px;background:#FFFFFF;" version="1.1" viewBox="0 0 439 351" width="439px" zoomAndPan="magnify"><defs/><g><!--class inkluder--><g id="elem_inkluder"><rect codeLine="2" fill="#F1F1F1" height="163.418" id="inkluder" rx="2.5" ry="2.5" style="stroke:#181818;stroke-width:0.5;" width="231" x="7" y="180.95"/><ellipse cx="89.75" cy="196.95" fill="#EB937F" rx="11" ry="11" style="stroke:#181818;stroke-width:1.0;"/><path d="M93.3643,203.45 L85.6445,203.45 L85.6445,191.0569 L93.3643,191.0569 L93.3643,193.2151 L88.0933,193.2151 L88.0933,195.888 L92.8662,195.888 L92.8662,198.0462 L88.0933,198.0462 L88.0933,201.2918 L93.3643,201.2918 Z " fill="#000000"/><text fill="#000000" font-family="sans-serif" font-size="14" lengthAdjust="spacing" textLength="57" x="110.25" y="202.241">inkluder</text><line style="stroke:#181818;stroke-width:0.5;" x1="8" x2="237" y1="212.95" y2="212.95"/><text fill="#000000" font-family="sans-serif" font-size="14" lengthAdjust="spacing" textLength="141" x="13" y="230.4852">merknad = merknad</text><text fill="#000000" font-family="sans-serif" font-size="14" lengthAdjust="spacing" textLength="175" x="13" y="246.9734">noekkelord = noekkelord</text><text fill="#000000" font-family="sans-serif" font-size="14" lengthAdjust="spacing" textLength="219" x="13" y="263.4617">kryssreferanse = kryssreferanse</text><text fill="#000000" font-family="sans-serif" font-size="14" lengthAdjust="spacing" textLength="103" x="13" y="279.95">klasse = klasse</text><text fill="#000000" font-family="sans-serif" font-size="14" lengthAdjust="spacing" textLength="75" x="13" y="296.4383">part = part</text><text fill="#000000" font-family="sans-serif" font-size="14" lengthAdjust="spacing" textLength="161" x="13" y="312.9266">presedens = presedens</text><text fill="#000000" font-family="sans-serif" font-size="14" lengthAdjust="spacing" textLength="217" x="13" y="329.4148">moetedeltaker = moetedeltaker</text><line style="stroke:#181818;stroke-width:0.5;" x1="8" x2="237" y1="336.368" y2="336.368"/></g><!--class mappeHent--><g id="elem_mappeHent"><rect codeLine="11" fill="#F1F1F1" height="113.9531" id="mappeHent" rx="2.5" ry="2.5" style="stroke:#181818;stroke-width:0.5;" width="294" x="90.5" y="7"/><ellipse cx="193.75" cy="23" fill="#ADD1B2" rx="11" ry="11" style="stroke:#181818;stroke-width:1.0;"/><path d="M196.2231,29.1431 Q195.6421,29.4419 195.0029,29.5913 Q194.3638,29.7407 193.6582,29.7407 Q191.1514,29.7407 189.8315,28.0889 Q188.5117,26.437 188.5117,23.3159 Q188.5117,20.1865 189.8315,18.5347 Q191.1514,16.8828 193.6582,16.8828 Q194.3638,16.8828 195.0112,17.0322 Q195.6587,17.1816 196.2231,17.4805 L196.2231,20.2031 Q195.5923,19.6221 194.9988,19.3523 Q194.4053,19.0825 193.7744,19.0825 Q192.4297,19.0825 191.7449,20.1492 Q191.0601,21.2158 191.0601,23.3159 Q191.0601,25.4077 191.7449,26.4744 Q192.4297,27.541 193.7744,27.541 Q194.4053,27.541 194.9988,27.2712 Q195.5923,27.0015 196.2231,26.4204 Z " fill="#000000"/><text fill="#000000" font-family="sans-serif" font-size="14" lengthAdjust="spacing" textLength="79" x="214.25" y="28.291">mappeHent</text><line style="stroke:#181818;stroke-width:0.5;" x1="91.5" x2="383.5" y1="39" y2="39"/><ellipse cx="101.5" cy="52.7441" fill="none" rx="3" ry="3" style="stroke:#038048;stroke-width:1.0;"/><text fill="#000000" font-family="sans-serif" font-size="14" lengthAdjust="spacing" textLength="99" x="110.5" y="56.5352">system : string</text><ellipse cx="101.5" cy="69.2324" fill="none" rx="3" ry="3" style="stroke:#038048;stroke-width:1.0;"/><text fill="#000000" font-family="sans-serif" font-size="14" lengthAdjust="spacing" textLength="268" x="110.5" y="73.0234">referanseTilMappe : referanseTilMappe</text><ellipse cx="101.5" cy="85.7207" fill="none" rx="3" ry="3" style="stroke:#038048;stroke-width:1.0;"/><text fill="#000000" font-family="sans-serif" font-size="14" lengthAdjust="spacing" textLength="136" x="110.5" y="89.5117">inkluder : inkluder[]</text><ellipse cx="101.5" cy="102.209" fill="none" rx="3" ry="3" style="stroke:#038048;stroke-width:1.0;"/><text fill="#000000" font-family="sans-serif" font-size="14" lengthAdjust="spacing" textLength="98" x="110.5" y="106">spraak : string</text><line style="stroke:#181818;stroke-width:0.5;" x1="91.5" x2="383.5" y1="112.9531" y2="112.9531"/></g><!--class referanseTilMappe--><g id="elem_referanseTilMappe"><rect fill="#F1F1F1" height="48" id="referanseTilMappe" rx="2.5" ry="2.5" style="stroke:#181818;stroke-width:0.5;" width="160" x="272.5" y="238.66"/><ellipse cx="287.5" cy="254.66" fill="#ADD1B2" rx="11" ry="11" style="stroke:#181818;stroke-width:1.0;"/><path d="M289.9731,260.8031 Q289.3921,261.1019 288.7529,261.2513 Q288.1138,261.4007 287.4082,261.4007 Q284.9014,261.4007 283.5815,259.7489 Q282.2617,258.097 282.2617,254.9759 Q282.2617,251.8465 283.5815,250.1947 Q284.9014,248.5428 287.4082,248.5428 Q288.1138,248.5428 288.7612,248.6922 Q289.4087,248.8416 289.9731,249.1405 L289.9731,251.8631 Q289.3423,251.2821 288.7488,251.0123 Q288.1553,250.7425 287.5244,250.7425 Q286.1797,250.7425 285.4949,251.8092 Q284.8101,252.8758 284.8101,254.9759 Q284.8101,257.0677 285.4949,258.1344 Q286.1797,259.201 287.5244,259.201 Q288.1553,259.201 288.7488,258.9312 Q289.3423,258.6615 289.9731,258.0804 Z " fill="#000000"/><text fill="#000000" font-family="sans-serif" font-size="14" lengthAdjust="spacing" textLength="128" x="301.5" y="259.951">referanseTilMappe</text><line style="stroke:#181818;stroke-width:0.5;" x1="273.5" x2="431.5" y1="270.66" y2="270.66"/><line style="stroke:#181818;stroke-width:0.5;" x1="273.5" x2="431.5" y1="278.66" y2="278.66"/></g><!--link mappeHent to inkluder--><g id="link_mappeHent_inkluder"><path codeLine="3" d="M204.55,121.34 C193.73,139.84 181.48,160.78 169.81,180.74 " fill="none" id="mappeHent-inkluder" style="stroke:#181818;stroke-width:1.0;stroke-dasharray:7.0,7.0;"/></g><!--link mappeHent to referanseTilMappe--><g id="link_mappeHent_referanseTilMappe"><path codeLine="4" d="M270.45,121.34 C293.15,160.16 322.14,209.73 338.88,238.36 " fill="none" id="mappeHent-referanseTilMappe" style="stroke:#181818;stroke-width:1.0;stroke-dasharray:7.0,7.0;"/></g><!--SRC=[KypCIyufJKbLo4ZDAz4hAENYoaqiA4Zr0F8KzFGKClEoGR95gA95gMcfHObvnQaXcJc-80ak0000]--></g></svg>