<svg xmlns="http://www.w3.org/2000/svg" xmlns:xlink="http://www.w3.org/1999/xlink" contentStyleType="text/css" height="475px" preserveAspectRatio="none" style="width:799px;height:475px;background:#FFFFFF;" version="1.1" viewBox="0 0 799 475" width="799px" zoomAndPan="magnify"><defs/><g><rect fill="#F1F1F1" height="102.4414" rx="5" ry="5" style="stroke:#F1F1F1;stroke-width:1.5;" width="304" x="10" y="144.2793"/><text fill="#000000" font-family="sans-serif" font-size="14" font-weight="bold" lengthAdjust="spacing" textLength="101" x="15" y="159.8145">protokollnavn</text><text fill="#000000" font-family="sans-serif" font-size="14" lengthAdjust="spacing" textLength="102" x="126" y="159.8145">no.ks.fiks.arkiv</text><line style="stroke:#000000;stroke-width:1.0;" x1="121" x2="121" y1="144.2793" y2="164.7676"/><line style="stroke:#000000;stroke-width:1.0;" x1="10" x2="314" y1="164.7676" y2="164.7676"/><text fill="#000000" font-family="sans-serif" font-size="14" font-weight="bold" lengthAdjust="spacing" textLength="34" x="15" y="180.3027">navn</text><text fill="#000000" font-family="sans-serif" font-size="14" lengthAdjust="spacing" textLength="128" x="126" y="180.3027">klassifikasjonstype</text><line style="stroke:#000000;stroke-width:1.0;" x1="121" x2="121" y1="164.7676" y2="185.2559"/><line style="stroke:#000000;stroke-width:1.0;" x1="10" x2="314" y1="185.2559" y2="185.2559"/><text fill="#000000" font-family="sans-serif" font-size="14" font-weight="bold" lengthAdjust="spacing" textLength="53" x="15" y="200.791">versjon</text><text fill="#000000" font-family="sans-serif" font-size="14" lengthAdjust="spacing" textLength="16" x="126" y="200.791">v1</text><line style="stroke:#000000;stroke-width:1.0;" x1="121" x2="121" y1="185.2559" y2="205.7441"/><line style="stroke:#000000;stroke-width:1.0;" x1="10" x2="314" y1="205.7441" y2="205.7441"/><text fill="#000000" font-family="sans-serif" font-size="14" font-weight="bold" lengthAdjust="spacing" textLength="73" x="15" y="221.2793">definisjon</text><text fill="#000000" font-family="sans-serif" font-size="14" lengthAdjust="spacing" textLength="183" x="126" y="221.2793">Type klassifikasjonssystem</text><line style="stroke:#000000;stroke-width:1.0;" x1="121" x2="121" y1="205.7441" y2="226.2324"/><line style="stroke:#000000;stroke-width:1.0;" x1="10" x2="314" y1="226.2324" y2="226.2324"/><text fill="#000000" font-family="sans-serif" font-size="14" font-weight="bold" lengthAdjust="spacing" textLength="67" x="15" y="241.7676">kodeliste</text><text fill="#000000" font-family="sans-serif" font-size="14" lengthAdjust="spacing" textLength="12" x="126" y="241.7676">&#160;&#160;&#160;</text><line style="stroke:#000000;stroke-width:1.0;" x1="121" x2="121" y1="226.2324" y2="246.7207"/><rect fill="none" height="102.4414" rx="5" ry="5" style="stroke:#000000;stroke-width:1.5;" width="304" x="10" y="144.2793"/><rect fill="#F1F1F1" height="163.9063" rx="5" ry="5" style="stroke:#F1F1F1;stroke-width:1.5;" width="22" x="351" y="154.5"/><text fill="#000000" font-family="sans-serif" font-size="14" lengthAdjust="spacing" textLength="12" x="356" y="170.0352">&#160;&#160;&#160;</text><line style="stroke:#000000;stroke-width:1.0;" x1="351" x2="373" y1="174.9883" y2="174.9883"/><text fill="#000000" font-family="sans-serif" font-size="14" lengthAdjust="spacing" textLength="12" x="356" y="190.5234">&#160;&#160;&#160;</text><line style="stroke:#000000;stroke-width:1.0;" x1="351" x2="373" y1="195.4766" y2="195.4766"/><text fill="#000000" font-family="sans-serif" font-size="14" lengthAdjust="spacing" textLength="12" x="356" y="211.0117">&#160;&#160;&#160;</text><line style="stroke:#000000;stroke-width:1.0;" x1="351" x2="373" y1="215.9648" y2="215.9648"/><text fill="#000000" font-family="sans-serif" font-size="14" lengthAdjust="spacing" textLength="12" x="356" y="231.5">&#160;&#160;&#160;</text><line style="stroke:#000000;stroke-width:1.0;" x1="351" x2="373" y1="236.4531" y2="236.4531"/><text fill="#000000" font-family="sans-serif" font-size="14" lengthAdjust="spacing" textLength="12" x="356" y="251.9883">&#160;&#160;&#160;</text><line style="stroke:#000000;stroke-width:1.0;" x1="351" x2="373" y1="256.9414" y2="256.9414"/><text fill="#000000" font-family="sans-serif" font-size="14" lengthAdjust="spacing" textLength="12" x="356" y="272.4766">&#160;&#160;&#160;</text><line style="stroke:#000000;stroke-width:1.0;" x1="351" x2="373" y1="277.4297" y2="277.4297"/><text fill="#000000" font-family="sans-serif" font-size="14" lengthAdjust="spacing" textLength="12" x="356" y="292.9648">&#160;&#160;&#160;</text><line style="stroke:#000000;stroke-width:1.0;" x1="351" x2="373" y1="297.918" y2="297.918"/><text fill="#000000" font-family="sans-serif" font-size="14" lengthAdjust="spacing" textLength="12" x="356" y="313.4531">&#160;&#160;&#160;</text><rect fill="none" height="163.9063" rx="5" ry="5" style="stroke:#000000;stroke-width:1.5;" width="22" x="351" y="154.5"/><rect fill="#F1F1F1" height="40.9766" rx="5" ry="5" style="stroke:#F1F1F1;stroke-width:1.5;" width="308" x="444.5" y="10"/><text fill="#000000" font-family="sans-serif" font-size="14" font-weight="bold" lengthAdjust="spacing" textLength="71" x="449.5" y="25.5352">kodeverdi</text><text fill="#000000" font-family="sans-serif" font-size="14" lengthAdjust="spacing" textLength="28" x="576.5" y="25.5352">GBN</text><line style="stroke:#000000;stroke-width:1.0;" x1="571.5" x2="571.5" y1="10" y2="30.4883"/><line style="stroke:#000000;stroke-width:1.0;" x1="444.5" x2="752.5" y1="30.4883" y2="30.4883"/><text fill="#000000" font-family="sans-serif" font-size="14" font-weight="bold" lengthAdjust="spacing" textLength="117" x="449.5" y="46.0234">kodebeskrivelse</text><text fill="#000000" font-family="sans-serif" font-size="14" lengthAdjust="spacing" textLength="171" x="576.5" y="46.0234">G&#229;rds- og bruksnummer</text><line style="stroke:#000000;stroke-width:1.0;" x1="571.5" x2="571.5" y1="30.4883" y2="50.9766"/><rect fill="none" height="40.9766" rx="5" ry="5" style="stroke:#000000;stroke-width:1.5;" width="308" x="444.5" y="10"/><rect fill="#F1F1F1" height="40.9766" rx="5" ry="5" style="stroke:#F1F1F1;stroke-width:1.5;" width="326" x="435.5" y="69"/><text fill="#000000" font-family="sans-serif" font-size="14" font-weight="bold" lengthAdjust="spacing" textLength="71" x="440.5" y="84.5352">kodeverdi</text><text fill="#000000" font-family="sans-serif" font-size="14" lengthAdjust="spacing" textLength="18" x="567.5" y="84.5352">FH</text><line style="stroke:#000000;stroke-width:1.0;" x1="562.5" x2="562.5" y1="69" y2="89.4883"/><line style="stroke:#000000;stroke-width:1.0;" x1="435.5" x2="761.5" y1="89.4883" y2="89.4883"/><text fill="#000000" font-family="sans-serif" font-size="14" font-weight="bold" lengthAdjust="spacing" textLength="117" x="440.5" y="105.0234">kodebeskrivelse</text><text fill="#000000" font-family="sans-serif" font-size="14" lengthAdjust="spacing" textLength="189" x="567.5" y="105.0234">Funksjonsbasert, hierarkisk</text><line style="stroke:#000000;stroke-width:1.0;" x1="562.5" x2="562.5" y1="89.4883" y2="109.9766"/><rect fill="none" height="40.9766" rx="5" ry="5" style="stroke:#000000;stroke-width:1.5;" width="326" x="435.5" y="69"/><rect fill="#F1F1F1" height="40.9766" rx="5" ry="5" style="stroke:#F1F1F1;stroke-width:1.5;" width="377" x="410" y="128"/><text fill="#000000" font-family="sans-serif" font-size="14" font-weight="bold" lengthAdjust="spacing" textLength="71" x="415" y="143.5352">kodeverdi</text><text fill="#000000" font-family="sans-serif" font-size="14" lengthAdjust="spacing" textLength="18" x="542" y="143.5352">EH</text><line style="stroke:#000000;stroke-width:1.0;" x1="537" x2="537" y1="128" y2="148.4883"/><line style="stroke:#000000;stroke-width:1.0;" x1="410" x2="787" y1="148.4883" y2="148.4883"/><text fill="#000000" font-family="sans-serif" font-size="14" font-weight="bold" lengthAdjust="spacing" textLength="117" x="415" y="164.0234">kodebeskrivelse</text><text fill="#000000" font-family="sans-serif" font-size="14" lengthAdjust="spacing" textLength="240" x="542" y="164.0234">Emnebasert, hierarkisk arkivn&#248;kkel</text><line style="stroke:#000000;stroke-width:1.0;" x1="537" x2="537" y1="148.4883" y2="168.9766"/><rect fill="none" height="40.9766" rx="5" ry="5" style="stroke:#000000;stroke-width:1.5;" width="377" x="410" y="128"/><rect fill="#F1F1F1" height="40.9766" rx="5" ry="5" style="stroke:#F1F1F1;stroke-width:1.5;" width="276" x="460.5" y="187"/><text fill="#000000" font-family="sans-serif" font-size="14" font-weight="bold" lengthAdjust="spacing" textLength="71" x="465.5" y="202.5352">kodeverdi</text><text fill="#000000" font-family="sans-serif" font-size="14" lengthAdjust="spacing" textLength="17" x="592.5" y="202.5352">E1</text><line style="stroke:#000000;stroke-width:1.0;" x1="587.5" x2="587.5" y1="187" y2="207.4883"/><line style="stroke:#000000;stroke-width:1.0;" x1="460.5" x2="736.5" y1="207.4883" y2="207.4883"/><text fill="#000000" font-family="sans-serif" font-size="14" font-weight="bold" lengthAdjust="spacing" textLength="117" x="465.5" y="223.0234">kodebeskrivelse</text><text fill="#000000" font-family="sans-serif" font-size="14" lengthAdjust="spacing" textLength="139" x="592.5" y="223.0234">Emnebasert, ett niv&#229;</text><line style="stroke:#000000;stroke-width:1.0;" x1="587.5" x2="587.5" y1="207.4883" y2="227.9766"/><rect fill="none" height="40.9766" rx="5" ry="5" style="stroke:#000000;stroke-width:1.5;" width="276" x="460.5" y="187"/><rect fill="#F1F1F1" height="40.9766" rx="5" ry="5" style="stroke:#F1F1F1;stroke-width:1.5;" width="194" x="501.5" y="246"/><text fill="#000000" font-family="sans-serif" font-size="14" font-weight="bold" lengthAdjust="spacing" textLength="71" x="506.5" y="261.5352">kodeverdi</text><text fill="#000000" font-family="sans-serif" font-size="14" lengthAdjust="spacing" textLength="18" x="633.5" y="261.5352">KK</text><line style="stroke:#000000;stroke-width:1.0;" x1="628.5" x2="628.5" y1="246" y2="266.4883"/><line style="stroke:#000000;stroke-width:1.0;" x1="501.5" x2="695.5" y1="266.4883" y2="266.4883"/><text fill="#000000" font-family="sans-serif" font-size="14" font-weight="bold" lengthAdjust="spacing" textLength="117" x="506.5" y="282.0234">kodebeskrivelse</text><text fill="#000000" font-family="sans-serif" font-size="14" lengthAdjust="spacing" textLength="57" x="633.5" y="282.0234">K-koder</text><line style="stroke:#000000;stroke-width:1.0;" x1="628.5" x2="628.5" y1="266.4883" y2="286.9766"/><rect fill="none" height="40.9766" rx="5" ry="5" style="stroke:#000000;stroke-width:1.5;" width="194" x="501.5" y="246"/><rect fill="#F1F1F1" height="40.9766" rx="5" ry="5" style="stroke:#F1F1F1;stroke-width:1.5;" width="333" x="432" y="305"/><text fill="#000000" font-family="sans-serif" font-size="14" font-weight="bold" lengthAdjust="spacing" textLength="71" x="437" y="320.5352">kodeverdi</text><text fill="#000000" font-family="sans-serif" font-size="14" lengthAdjust="spacing" textLength="20" x="564" y="320.5352">MF</text><line style="stroke:#000000;stroke-width:1.0;" x1="559" x2="559" y1="305" y2="325.4883"/><line style="stroke:#000000;stroke-width:1.0;" x1="432" x2="765" y1="325.4883" y2="325.4883"/><text fill="#000000" font-family="sans-serif" font-size="14" font-weight="bold" lengthAdjust="spacing" textLength="117" x="437" y="341.0234">kodebeskrivelse</text><text fill="#000000" font-family="sans-serif" font-size="14" lengthAdjust="spacing" textLength="196" x="564" y="341.0234">Mangefasettert, ikke hierarki</text><line style="stroke:#000000;stroke-width:1.0;" x1="559" x2="559" y1="325.4883" y2="345.9766"/><rect fill="none" height="40.9766" rx="5" ry="5" style="stroke:#000000;stroke-width:1.5;" width="333" x="432" y="305"/><rect fill="#F1F1F1" height="40.9766" rx="5" ry="5" style="stroke:#F1F1F1;stroke-width:1.5;" width="225" x="486" y="364"/><text fill="#000000" font-family="sans-serif" font-size="14" font-weight="bold" lengthAdjust="spacing" textLength="71" x="491" y="379.5352">kodeverdi</text><text fill="#000000" font-family="sans-serif" font-size="14" lengthAdjust="spacing" textLength="21" x="618" y="379.5352">UO</text><line style="stroke:#000000;stroke-width:1.0;" x1="613" x2="613" y1="364" y2="384.4883"/><line style="stroke:#000000;stroke-width:1.0;" x1="486" x2="711" y1="384.4883" y2="384.4883"/><text fill="#000000" font-family="sans-serif" font-size="14" font-weight="bold" lengthAdjust="spacing" textLength="117" x="491" y="400.0234">kodebeskrivelse</text><text fill="#000000" font-family="sans-serif" font-size="14" lengthAdjust="spacing" textLength="88" x="618" y="400.0234">Objektbasert</text><line style="stroke:#000000;stroke-width:1.0;" x1="613" x2="613" y1="384.4883" y2="404.9766"/><rect fill="none" height="40.9766" rx="5" ry="5" style="stroke:#000000;stroke-width:1.5;" width="225" x="486" y="364"/><rect fill="#F1F1F1" height="40.9766" rx="5" ry="5" style="stroke:#F1F1F1;stroke-width:1.5;" width="247" x="475" y="423"/><text fill="#000000" font-family="sans-serif" font-size="14" font-weight="bold" lengthAdjust="spacing" textLength="71" x="480" y="438.5352">kodeverdi</text><text fill="#000000" font-family="sans-serif" font-size="14" lengthAdjust="spacing" textLength="27" x="607" y="438.5352">PNR</text><line style="stroke:#000000;stroke-width:1.0;" x1="602" x2="602" y1="423" y2="443.4883"/><line style="stroke:#000000;stroke-width:1.0;" x1="475" x2="722" y1="443.4883" y2="443.4883"/><text fill="#000000" font-family="sans-serif" font-size="14" font-weight="bold" lengthAdjust="spacing" textLength="117" x="480" y="459.0234">kodebeskrivelse</text><text fill="#000000" font-family="sans-serif" font-size="14" lengthAdjust="spacing" textLength="110" x="607" y="459.0234">F&#248;dselsnummer</text><line style="stroke:#000000;stroke-width:1.0;" x1="602" x2="602" y1="443.4883" y2="463.9766"/><rect fill="none" height="40.9766" rx="5" ry="5" style="stroke:#000000;stroke-width:1.5;" width="247" x="475" y="423"/><path d="M361,164.5 L374,164.5 C423.3333,164.5 372.1655,91.1595 410,59.5 C418.4372,52.4399 427.862,46.7261 437.8744,42.1279 " fill="none" style="stroke:#000000;stroke-width:1.0;stroke-dasharray:3.0,3.0;"/><path d="M439.0776,44.9361 L439.9806,41.2255 L436.6712,39.3196 L444.8951,39.1198 L439.0776,44.9361 " fill="#000000" style="stroke:#000000;stroke-width:1.0;"/><ellipse cx="361" cy="164.5" fill="#000000" rx="3" ry="3" style="stroke:#000000;stroke-width:1.0;"/><path d="M361,185.5 L374,185.5 C407.8041,185.5 382.3975,138.0145 410,118.5 C415.842,114.3698 422.0416,110.731 428.4964,107.5299 " fill="none" style="stroke:#000000;stroke-width:1.0;stroke-dasharray:3.0,3.0;"/><path d="M429.8181,110.3697 L430.6262,106.5386 L427.1747,104.6901 L435.5959,104.2257 L429.8181,110.3697 " fill="#000000" style="stroke:#000000;stroke-width:1.0;"/><ellipse cx="361" cy="185.5" fill="#000000" rx="3" ry="3" style="stroke:#000000;stroke-width:1.0;"/><path d="M361,205.5 L374,205.5 C394,205.5 391.5856,186.3044 410,178.5 C416.015,175.9507 422.2219,173.6163 428.5552,171.4787 " fill="none" style="stroke:#000000;stroke-width:1.0;stroke-dasharray:3.0,3.0;"/><path d="M429.5232,174.4742 L430.8018,170.7527 L427.5871,168.4831 L436.044,169.0586 L429.5232,174.4742 " fill="#000000" style="stroke:#000000;stroke-width:1.0;"/><ellipse cx="361" cy="205.5" fill="#000000" rx="3" ry="3" style="stroke:#000000;stroke-width:1.0;"/><path d="M361,226.5 L374,226.5 C399.5759,226.5 426.7358,225.255 452.9929,223.4024 " fill="none" style="stroke:#000000;stroke-width:1.0;stroke-dasharray:3.0,3.0;"/><path d="M453.2192,226.5012 L455.317,223.2327 L452.7666,220.3036 L460.7398,222.8366 L453.2192,226.5012 " fill="#000000" style="stroke:#000000;stroke-width:1.0;"/><ellipse cx="361" cy="226.5" fill="#000000" rx="3" ry="3" style="stroke:#000000;stroke-width:1.0;"/><path d="M361,246.5 L374,246.5 C413.4401,246.5 456.6322,249.6141 494.4743,253.3846 " fill="none" style="stroke:#000000;stroke-width:1.0;stroke-dasharray:3.0,3.0;"/><path d="M494.1694,256.3824 L496.7226,253.6133 L494.7792,250.3869 L501.9687,254.1468 L494.1694,256.3824 " fill="#000000" style="stroke:#000000;stroke-width:1.0;"/><ellipse cx="361" cy="246.5" fill="#000000" rx="3" ry="3" style="stroke:#000000;stroke-width:1.0;"/><path d="M361,267.5 L374,267.5 C394.5456,267.5 391.2032,288.2052 410,296.5 C414.7705,298.6052 419.6677,300.5609 424.6578,302.3778 " fill="none" style="stroke:#000000;stroke-width:1.0;stroke-dasharray:3.0,3.0;"/><path d="M423.6323,305.3272 L426.8698,303.1469 L425.6832,299.4283 L432.0314,304.9415 L423.6323,305.3272 " fill="#000000" style="stroke:#000000;stroke-width:1.0;"/><ellipse cx="361" cy="267.5" fill="#000000" rx="3" ry="3" style="stroke:#000000;stroke-width:1.0;"/><path d="M361,287.5 L374,287.5 C408.1962,287.5 382.1381,335.6733 410,355.5 C429.9957,369.729 454.2242,378.1408 478.5433,382.9137 " fill="none" style="stroke:#000000;stroke-width:1.0;stroke-dasharray:3.0,3.0;"/><path d="M477.9965,385.9319 L480.8069,383.3238 L479.09,379.8955 L486.0889,384.2805 L477.9965,385.9319 " fill="#000000" style="stroke:#000000;stroke-width:1.0;"/><ellipse cx="361" cy="287.5" fill="#000000" rx="3" ry="3" style="stroke:#000000;stroke-width:1.0;"/><path d="M361,308.5 L374,308.5 C423.754,308.5 371.8892,382.5153 410,414.5 C426.5189,428.3636 446.843,437.0414 467.9561,442.277 " fill="none" style="stroke:#000000;stroke-width:1.0;stroke-dasharray:3.0,3.0;"/><path d="M467.2716,445.2753 L470.2049,442.7903 L468.6406,439.2786 L475.452,443.9882 L467.2716,445.2753 " fill="#000000" style="stroke:#000000;stroke-width:1.0;"/><ellipse cx="361" cy="308.5" fill="#000000" rx="3" ry="3" style="stroke:#000000;stroke-width:1.0;"/><path d="M302,236.5 L315,236.5 C324.4213,236.5 334.9164,236.5 343.5483,236.5 " fill="none" style="stroke:#000000;stroke-width:1.0;stroke-dasharray:3.0,3.0;"/><path d="M343.5483,239.5437 L345.8311,236.5 L343.5483,233.4563 L351.1575,236.5 L343.5483,239.5437 " fill="#000000" style="stroke:#000000;stroke-width:1.0;"/><ellipse cx="302" cy="236.5" fill="#000000" rx="3" ry="3" style="stroke:#000000;stroke-width:1.0;"/><!--SRC=[ZPF1Rk9038RlynHMJgq4Q8DALULKjOMkW00gq4krXw4nx3291yrC8g6gZzDtw9qNgvCiNNLNehbO6lltPuzdVEsyj7xh38aN0H3ihF56cpGbML0GGK2cerrdhTX8grKHj4hPCQfJwPpYg7HRGyxlTrWB2hIbfzGKOUrASAr87RqBbi8_wMxlF6QrMfi4KyLd5Z-n0-2bidz2p4zK00owlvbK6P-X5JfjLO6fmrfmUBE9QuFPmChcsb6UPMY3AkMrTGez-7cQFCX9Luslf4FhM_1ReIsdv7GJVFyRV3yZ_9yCrJFGuLrhJ1kL2PkNGU-1L75uQm8UZKw3H-tIssZIyU0qAfQqmJKtwNtLf-BBVywaIO7bz7I1wMgBsjTZQCARJHw- -Hk7zyJnwSjlO_jBl8fhfAHQEJ5B9VbbF8PoNvGX23lT7zsBJkzidXF4SW_TImZ3AEn5lIkuxSyNKCRFnTdzR0pEvFOP8U4riMgLUmQSYw4i93pav5M64KntICExqT41VIgKDPGXUJ5yZFyABY_QDyh372st0e-nkEDvvwddZ6UJADf4i5mCsbTYp4-HomspaSIjOQxTHp2PVW00]--></g></svg>