<?xml version="1.0" encoding="us-ascii" standalone="no"?><svg xmlns="http://www.w3.org/2000/svg" xmlns:xlink="http://www.w3.org/1999/xlink" contentStyleType="text/css" height="164px" preserveAspectRatio="none" style="width:808px;height:164px;background:#FFFFFF;" version="1.1" viewBox="0 0 808 164" width="808px" zoomAndPan="magnify"><defs/><g><rect fill="#F1F1F1" height="102.4414" rx="5" ry="5" style="stroke:#F1F1F1;stroke-width:1.5;" width="484" x="10" y="10"/><text fill="#000000" font-family="sans-serif" font-size="14" font-weight="bold" lengthAdjust="spacing" textLength="101" x="15" y="25.5352">protokollnavn</text><text fill="#000000" font-family="sans-serif" font-size="14" lengthAdjust="spacing" textLength="102" x="126" y="25.5352">no.ks.fiks.arkiv</text><line style="stroke:#000000;stroke-width:1.0;" x1="121" x2="121" y1="10" y2="30.4883"/><line style="stroke:#000000;stroke-width:1.0;" x1="10" x2="494" y1="30.4883" y2="30.4883"/><text fill="#000000" font-family="sans-serif" font-size="14" font-weight="bold" lengthAdjust="spacing" textLength="34" x="15" y="46.0234">navn</text><text fill="#000000" font-family="sans-serif" font-size="14" lengthAdjust="spacing" textLength="159" x="126" y="46.0234">moetedeltakerfunksjon</text><line style="stroke:#000000;stroke-width:1.0;" x1="121" x2="121" y1="30.4883" y2="50.9766"/><line style="stroke:#000000;stroke-width:1.0;" x1="10" x2="494" y1="50.9766" y2="50.9766"/><text fill="#000000" font-family="sans-serif" font-size="14" font-weight="bold" lengthAdjust="spacing" textLength="53" x="15" y="66.5117">versjon</text><text fill="#000000" font-family="sans-serif" font-size="14" lengthAdjust="spacing" textLength="16" x="126" y="66.5117">v1</text><line style="stroke:#000000;stroke-width:1.0;" x1="121" x2="121" y1="50.9766" y2="71.4648"/><line style="stroke:#000000;stroke-width:1.0;" x1="10" x2="494" y1="71.4648" y2="71.4648"/><text fill="#000000" font-family="sans-serif" font-size="14" font-weight="bold" lengthAdjust="spacing" textLength="73" x="15" y="87">definisjon</text><text fill="#000000" font-family="sans-serif" font-size="14" lengthAdjust="spacing" textLength="363" x="126" y="87">Funksjon eller rolle til personen som deltok p&#229; m&#248;tet</text><line style="stroke:#000000;stroke-width:1.0;" x1="121" x2="121" y1="71.4648" y2="91.9531"/><line style="stroke:#000000;stroke-width:1.0;" x1="10" x2="494" y1="91.9531" y2="91.9531"/><text fill="#000000" font-family="sans-serif" font-size="14" font-weight="bold" lengthAdjust="spacing" textLength="67" x="15" y="107.4883">kodeliste</text><text fill="#000000" font-family="sans-serif" font-size="14" lengthAdjust="spacing" textLength="12" x="126" y="107.4883">&#160;&#160;&#160;</text><line style="stroke:#000000;stroke-width:1.0;" x1="121" x2="121" y1="91.9531" y2="112.4414"/><rect fill="none" height="102.4414" rx="5" ry="5" style="stroke:#000000;stroke-width:1.5;" width="484" x="10" y="10"/><rect fill="#F1F1F1" height="40.9766" rx="5" ry="5" style="stroke:#F1F1F1;stroke-width:1.5;" width="22" x="531" y="81.7207"/><text fill="#000000" font-family="sans-serif" font-size="14" lengthAdjust="spacing" textLength="12" x="536" y="97.2559">&#160;&#160;&#160;</text><line style="stroke:#000000;stroke-width:1.0;" x1="531" x2="553" y1="102.209" y2="102.209"/><text fill="#000000" font-family="sans-serif" font-size="14" lengthAdjust="spacing" textLength="12" x="536" y="117.7441">&#160;&#160;&#160;</text><rect fill="none" height="40.9766" rx="5" ry="5" style="stroke:#000000;stroke-width:1.5;" width="22" x="531" y="81.7207"/><rect fill="#F1F1F1" height="40.9766" rx="5" ry="5" style="stroke:#F1F1F1;stroke-width:1.5;" width="206" x="590" y="52.7207"/><text fill="#000000" font-family="sans-serif" font-size="14" font-weight="bold" lengthAdjust="spacing" textLength="71" x="595" y="68.2559">kodeverdi</text><text fill="#000000" font-family="sans-serif" font-size="14" lengthAdjust="spacing" textLength="12" x="722" y="68.2559">M</text><line style="stroke:#000000;stroke-width:1.0;" x1="717" x2="717" y1="52.7207" y2="73.209"/><line style="stroke:#000000;stroke-width:1.0;" x1="590" x2="796" y1="73.209" y2="73.209"/><text fill="#000000" font-family="sans-serif" font-size="14" font-weight="bold" lengthAdjust="spacing" textLength="117" x="595" y="88.7441">kodebeskrivelse</text><text fill="#000000" font-family="sans-serif" font-size="14" lengthAdjust="spacing" textLength="69" x="722" y="88.7441">M&#248;teleder</text><line style="stroke:#000000;stroke-width:1.0;" x1="717" x2="717" y1="73.209" y2="93.6973"/><rect fill="none" height="40.9766" rx="5" ry="5" style="stroke:#000000;stroke-width:1.5;" width="206" x="590" y="52.7207"/><rect fill="#F1F1F1" height="40.9766" rx="5" ry="5" style="stroke:#F1F1F1;stroke-width:1.5;" width="195" x="595.5" y="111.7207"/><text fill="#000000" font-family="sans-serif" font-size="14" font-weight="bold" lengthAdjust="spacing" textLength="71" x="600.5" y="127.2559">kodeverdi</text><text fill="#000000" font-family="sans-serif" font-size="14" lengthAdjust="spacing" textLength="9" x="727.5" y="127.2559">R</text><line style="stroke:#000000;stroke-width:1.0;" x1="722.5" x2="722.5" y1="111.7207" y2="132.209"/><line style="stroke:#000000;stroke-width:1.0;" x1="595.5" x2="790.5" y1="132.209" y2="132.209"/><text fill="#000000" font-family="sans-serif" font-size="14" font-weight="bold" lengthAdjust="spacing" textLength="117" x="600.5" y="147.7441">kodebeskrivelse</text><text fill="#000000" font-family="sans-serif" font-size="14" lengthAdjust="spacing" textLength="58" x="727.5" y="147.7441">Referent</text><line style="stroke:#000000;stroke-width:1.0;" x1="722.5" x2="722.5" y1="132.209" y2="152.6973"/><rect fill="none" height="40.9766" rx="5" ry="5" style="stroke:#000000;stroke-width:1.5;" width="195" x="595.5" y="111.7207"/><path d="M541,92.2207 L554,92.2207 C563.2881,92.2207 572.8944,91.7961 582.5162,91.0739 " fill="none" style="stroke:#000000;stroke-width:1.0;stroke-dasharray:3.0,3.0;"/><path d="M582.7724,94.1594 L584.8303,90.8817 L582.2599,87.9883 L590.2301,90.4332 L582.7724,94.1594 " fill="#000000" style="stroke:#000000;stroke-width:1.0;"/><ellipse cx="541" cy="92.2207" fill="#000000" rx="3" ry="3" style="stroke:#000000;stroke-width:1.0;"/><path d="M541,112.2207 L554,112.2207 C565.1603,112.2207 576.775,112.8647 588.3217,113.9216 " fill="none" style="stroke:#000000;stroke-width:1.0;stroke-dasharray:3.0,3.0;"/><path d="M588.0211,116.9506 L590.5934,114.147 L588.6223,110.8926 L595.8942,114.6731 L588.0211,116.9506 " fill="#000000" style="stroke:#000000;stroke-width:1.0;"/><ellipse cx="541" cy="112.2207" fill="#000000" rx="3" ry="3" style="stroke:#000000;stroke-width:1.0;"/><path d="M482,102.2207 L495,102.2207 C504.4213,102.2207 514.9164,102.2207 523.5483,102.2207 " fill="none" style="stroke:#000000;stroke-width:1.0;stroke-dasharray:3.0,3.0;"/><path d="M523.5483,105.2644 L525.8311,102.2207 L523.5483,99.177 L531.1575,102.2207 L523.5483,105.2644 " fill="#000000" style="stroke:#000000;stroke-width:1.0;"/><ellipse cx="482" cy="102.2207" fill="#000000" rx="3" ry="3" style="stroke:#000000;stroke-width:1.0;"/><!--SRC=[VP3BQi9058RtynI7h1HKefOYMKcz5AofucrJkXZDYOoPd979923Yu_GTkk-BzIHgktDpOFx_d-zS-fcJrXqoG-8i0BoZDSuaHckI1Na1U6HQITQA5HTf4rLuZJ9sTrE33YFKJYPeuvoIx63e6YdGLWzE5Ush566iIDtLyIqEg3LQiDmKmIaDH_vf20aoaq89DmaSVxuW_VbswAwenB2XCeTC-c01u5pLcyND8-K1Tmch_9-nnIonga2TuTKkcPfNi5uLkpGUmHQFOGkCqIAv6uhhfxY8Fb9K7LZCjIIt3gTGtaRnvkrMn-zqMxtQCYS8vGawRMZxGRSN-3uCHiiLb7vTr5xdKxv6RdS84MzjrJPt3AYBYImaB79oAiK0PaUaoV3jBi282cKDfJoJc6p2_y3pK_D5ELYYvL5W4ueXnZBNZd_iJAHe7y1wDMxsn5JIFfTxPYE9WM6kFGNmFli5]--></g></svg>