<?xml version="1.0" encoding="us-ascii" standalone="no"?><svg xmlns="http://www.w3.org/2000/svg" xmlns:xlink="http://www.w3.org/1999/xlink" contentStyleType="text/css" height="298px" preserveAspectRatio="none" style="width:781px;height:298px;background:#FFFFFF;" version="1.1" viewBox="0 0 781 298" width="781px" zoomAndPan="magnify"><defs/><g><rect fill="#F1F1F1" height="102.4414" rx="5" ry="5" style="stroke:#F1F1F1;stroke-width:1.5;" width="484" x="10" y="56.2793"/><text fill="#000000" font-family="sans-serif" font-size="14" font-weight="bold" lengthAdjust="spacing" textLength="101" x="15" y="71.8145">protokollnavn</text><text fill="#000000" font-family="sans-serif" font-size="14" lengthAdjust="spacing" textLength="102" x="126" y="71.8145">no.ks.fiks.arkiv</text><line style="stroke:#000000;stroke-width:1.0;" x1="121" x2="121" y1="56.2793" y2="76.7676"/><line style="stroke:#000000;stroke-width:1.0;" x1="10" x2="494" y1="76.7676" y2="76.7676"/><text fill="#000000" font-family="sans-serif" font-size="14" font-weight="bold" lengthAdjust="spacing" textLength="34" x="15" y="92.3027">navn</text><text fill="#000000" font-family="sans-serif" font-size="14" lengthAdjust="spacing" textLength="159" x="126" y="92.3027">moetedeltakerfunksjon</text><line style="stroke:#000000;stroke-width:1.0;" x1="121" x2="121" y1="76.7676" y2="97.2559"/><line style="stroke:#000000;stroke-width:1.0;" x1="10" x2="494" y1="97.2559" y2="97.2559"/><text fill="#000000" font-family="sans-serif" font-size="14" font-weight="bold" lengthAdjust="spacing" textLength="53" x="15" y="112.791">versjon</text><text fill="#000000" font-family="sans-serif" font-size="14" lengthAdjust="spacing" textLength="16" x="126" y="112.791">v1</text><line style="stroke:#000000;stroke-width:1.0;" x1="121" x2="121" y1="97.2559" y2="117.7441"/><line style="stroke:#000000;stroke-width:1.0;" x1="10" x2="494" y1="117.7441" y2="117.7441"/><text fill="#000000" font-family="sans-serif" font-size="14" font-weight="bold" lengthAdjust="spacing" textLength="73" x="15" y="133.2793">definisjon</text><text fill="#000000" font-family="sans-serif" font-size="14" lengthAdjust="spacing" textLength="363" x="126" y="133.2793">Funksjon eller rolle til personen som deltok p&#229; m&#248;tet</text><line style="stroke:#000000;stroke-width:1.0;" x1="121" x2="121" y1="117.7441" y2="138.2324"/><line style="stroke:#000000;stroke-width:1.0;" x1="10" x2="494" y1="138.2324" y2="138.2324"/><text fill="#000000" font-family="sans-serif" font-size="14" font-weight="bold" lengthAdjust="spacing" textLength="67" x="15" y="153.7676">kodeliste</text><text fill="#000000" font-family="sans-serif" font-size="14" lengthAdjust="spacing" textLength="12" x="126" y="153.7676">&#160;&#160;&#160;</text><line style="stroke:#000000;stroke-width:1.0;" x1="121" x2="121" y1="138.2324" y2="158.7207"/><rect fill="none" height="102.4414" rx="5" ry="5" style="stroke:#000000;stroke-width:1.5;" width="484" x="10" y="56.2793"/><rect fill="#F1F1F1" height="102.4414" rx="5" ry="5" style="stroke:#F1F1F1;stroke-width:1.5;" width="22" x="531" y="97.2793"/><text fill="#000000" font-family="sans-serif" font-size="14" lengthAdjust="spacing" textLength="12" x="536" y="112.8145">&#160;&#160;&#160;</text><line style="stroke:#000000;stroke-width:1.0;" x1="531" x2="553" y1="117.7676" y2="117.7676"/><text fill="#000000" font-family="sans-serif" font-size="14" lengthAdjust="spacing" textLength="12" x="536" y="133.3027">&#160;&#160;&#160;</text><line style="stroke:#000000;stroke-width:1.0;" x1="531" x2="553" y1="138.2559" y2="138.2559"/><text fill="#000000" font-family="sans-serif" font-size="14" lengthAdjust="spacing" textLength="12" x="536" y="153.791">&#160;&#160;&#160;</text><line style="stroke:#000000;stroke-width:1.0;" x1="531" x2="553" y1="158.7441" y2="158.7441"/><text fill="#000000" font-family="sans-serif" font-size="14" lengthAdjust="spacing" textLength="12" x="536" y="174.2793">&#160;&#160;&#160;</text><line style="stroke:#000000;stroke-width:1.0;" x1="531" x2="553" y1="179.2324" y2="179.2324"/><text fill="#000000" font-family="sans-serif" font-size="14" lengthAdjust="spacing" textLength="12" x="536" y="194.7676">&#160;&#160;&#160;</text><rect fill="none" height="102.4414" rx="5" ry="5" style="stroke:#000000;stroke-width:1.5;" width="22" x="531" y="97.2793"/><rect fill="#F1F1F1" height="40.9766" rx="5" ry="5" style="stroke:#F1F1F1;stroke-width:1.5;" width="179" x="590" y="10"/><text fill="#000000" font-family="sans-serif" font-size="14" font-weight="bold" lengthAdjust="spacing" textLength="71" x="595" y="25.5352">kodeverdi</text><text fill="#000000" font-family="sans-serif" font-size="14" lengthAdjust="spacing" textLength="42" x="722" y="25.5352">LEDER</text><line style="stroke:#000000;stroke-width:1.0;" x1="717" x2="717" y1="10" y2="30.4883"/><line style="stroke:#000000;stroke-width:1.0;" x1="590" x2="769" y1="30.4883" y2="30.4883"/><text fill="#000000" font-family="sans-serif" font-size="14" font-weight="bold" lengthAdjust="spacing" textLength="117" x="595" y="46.0234">kodebeskrivelse</text><text fill="#000000" font-family="sans-serif" font-size="14" lengthAdjust="spacing" textLength="4" x="722" y="46.0234">&#160;</text><line style="stroke:#000000;stroke-width:1.0;" x1="717" x2="717" y1="30.4883" y2="50.9766"/><rect fill="none" height="40.9766" rx="5" ry="5" style="stroke:#000000;stroke-width:1.5;" width="179" x="590" y="10"/><rect fill="#F1F1F1" height="40.9766" rx="5" ry="5" style="stroke:#F1F1F1;stroke-width:1.5;" width="171" x="594" y="69"/><text fill="#000000" font-family="sans-serif" font-size="14" font-weight="bold" lengthAdjust="spacing" textLength="71" x="599" y="84.5352">kodeverdi</text><text fill="#000000" font-family="sans-serif" font-size="14" lengthAdjust="spacing" textLength="34" x="726" y="84.5352">NETL</text><line style="stroke:#000000;stroke-width:1.0;" x1="721" x2="721" y1="69" y2="89.4883"/><line style="stroke:#000000;stroke-width:1.0;" x1="594" x2="765" y1="89.4883" y2="89.4883"/><text fill="#000000" font-family="sans-serif" font-size="14" font-weight="bold" lengthAdjust="spacing" textLength="117" x="599" y="105.0234">kodebeskrivelse</text><text fill="#000000" font-family="sans-serif" font-size="14" lengthAdjust="spacing" textLength="4" x="726" y="105.0234">&#160;</text><line style="stroke:#000000;stroke-width:1.0;" x1="721" x2="721" y1="89.4883" y2="109.9766"/><rect fill="none" height="40.9766" rx="5" ry="5" style="stroke:#000000;stroke-width:1.5;" width="171" x="594" y="69"/><rect fill="#F1F1F1" height="40.9766" rx="5" ry="5" style="stroke:#F1F1F1;stroke-width:1.5;" width="174" x="592.5" y="128"/><text fill="#000000" font-family="sans-serif" font-size="14" font-weight="bold" lengthAdjust="spacing" textLength="71" x="597.5" y="143.5352">kodeverdi</text><text fill="#000000" font-family="sans-serif" font-size="14" lengthAdjust="spacing" textLength="37" x="724.5" y="143.5352">MEDL</text><line style="stroke:#000000;stroke-width:1.0;" x1="719.5" x2="719.5" y1="128" y2="148.4883"/><line style="stroke:#000000;stroke-width:1.0;" x1="592.5" x2="766.5" y1="148.4883" y2="148.4883"/><text fill="#000000" font-family="sans-serif" font-size="14" font-weight="bold" lengthAdjust="spacing" textLength="117" x="597.5" y="164.0234">kodebeskrivelse</text><text fill="#000000" font-family="sans-serif" font-size="14" lengthAdjust="spacing" textLength="4" x="724.5" y="164.0234">&#160;</text><line style="stroke:#000000;stroke-width:1.0;" x1="719.5" x2="719.5" y1="148.4883" y2="168.9766"/><rect fill="none" height="40.9766" rx="5" ry="5" style="stroke:#000000;stroke-width:1.5;" width="174" x="592.5" y="128"/><rect fill="#F1F1F1" height="40.9766" rx="5" ry="5" style="stroke:#F1F1F1;stroke-width:1.5;" width="173" x="593" y="187"/><text fill="#000000" font-family="sans-serif" font-size="14" font-weight="bold" lengthAdjust="spacing" textLength="71" x="598" y="202.5352">kodeverdi</text><text fill="#000000" font-family="sans-serif" font-size="14" lengthAdjust="spacing" textLength="36" x="725" y="202.5352">VARE</text><line style="stroke:#000000;stroke-width:1.0;" x1="720" x2="720" y1="187" y2="207.4883"/><line style="stroke:#000000;stroke-width:1.0;" x1="593" x2="766" y1="207.4883" y2="207.4883"/><text fill="#000000" font-family="sans-serif" font-size="14" font-weight="bold" lengthAdjust="spacing" textLength="117" x="598" y="223.0234">kodebeskrivelse</text><text fill="#000000" font-family="sans-serif" font-size="14" lengthAdjust="spacing" textLength="4" x="725" y="223.0234">&#160;</text><line style="stroke:#000000;stroke-width:1.0;" x1="720" x2="720" y1="207.4883" y2="227.9766"/><rect fill="none" height="40.9766" rx="5" ry="5" style="stroke:#000000;stroke-width:1.5;" width="173" x="593" y="187"/><rect fill="#F1F1F1" height="40.9766" rx="5" ry="5" style="stroke:#F1F1F1;stroke-width:1.5;" width="171" x="594" y="246"/><text fill="#000000" font-family="sans-serif" font-size="14" font-weight="bold" lengthAdjust="spacing" textLength="71" x="599" y="261.5352">kodeverdi</text><text fill="#000000" font-family="sans-serif" font-size="14" lengthAdjust="spacing" textLength="34" x="726" y="261.5352">SEKR</text><line style="stroke:#000000;stroke-width:1.0;" x1="721" x2="721" y1="246" y2="266.4883"/><line style="stroke:#000000;stroke-width:1.0;" x1="594" x2="765" y1="266.4883" y2="266.4883"/><text fill="#000000" font-family="sans-serif" font-size="14" font-weight="bold" lengthAdjust="spacing" textLength="117" x="599" y="282.0234">kodebeskrivelse</text><text fill="#000000" font-family="sans-serif" font-size="14" lengthAdjust="spacing" textLength="4" x="726" y="282.0234">&#160;</text><line style="stroke:#000000;stroke-width:1.0;" x1="721" x2="721" y1="266.4883" y2="286.9766"/><rect fill="none" height="40.9766" rx="5" ry="5" style="stroke:#000000;stroke-width:1.5;" width="171" x="594" y="246"/><path d="M541,107.5 L554,107.5 C580.6667,107.5 568.3143,75.0191 590,59.5 C592.3168,57.842 594.7337,56.275 597.2261,54.7945 " fill="none" style="stroke:#000000;stroke-width:1.0;stroke-dasharray:3.0,3.0;"/><path d="M598.7144,57.4973 L599.2532,53.6783 L595.7379,52.0917 L603.9831,51.0739 L598.7144,57.4973 " fill="#000000" style="stroke:#000000;stroke-width:1.0;"/><ellipse cx="541" cy="107.5" fill="#000000" rx="3" ry="3" style="stroke:#000000;stroke-width:1.0;"/><path d="M541,128.5 L554,128.5 C560.4157,128.5 585.4793,120.9165 611.4972,112.4376 " fill="none" style="stroke:#000000;stroke-width:1.0;stroke-dasharray:3.0,3.0;"/><path d="M612.4611,115.3772 L613.7019,111.7147 L610.5334,109.498 L618.8462,110.0279 L612.4611,115.3772 " fill="#000000" style="stroke:#000000;stroke-width:1.0;"/><ellipse cx="541" cy="128.5" fill="#000000" rx="3" ry="3" style="stroke:#000000;stroke-width:1.0;"/><path d="M541,148.5 L554,148.5 C564.1284,148.5 574.7185,148.5 585.2653,148.5 " fill="none" style="stroke:#000000;stroke-width:1.0;stroke-dasharray:3.0,3.0;"/><path d="M585.2653,151.5659 L587.5647,148.5 L585.2653,145.4341 L592.9301,148.5 L585.2653,151.5659 " fill="#000000" style="stroke:#000000;stroke-width:1.0;"/><ellipse cx="541" cy="148.5" fill="#000000" rx="3" ry="3" style="stroke:#000000;stroke-width:1.0;"/><path d="M541,168.5 L554,168.5 C557.2215,168.5 582.1041,176.1485 608.8308,184.6712 " fill="none" style="stroke:#000000;stroke-width:1.0;stroke-dasharray:3.0,3.0;"/><path d="M607.9104,187.5492 L610.9893,185.3615 L609.7512,181.7932 L616.0258,186.9721 L607.9104,187.5492 " fill="#000000" style="stroke:#000000;stroke-width:1.0;"/><ellipse cx="541" cy="168.5" fill="#000000" rx="3" ry="3" style="stroke:#000000;stroke-width:1.0;"/><path d="M541,189.5 L554,189.5 C580.6667,189.5 568.3143,221.9809 590,237.5 C592.3168,239.158 594.7337,240.725 597.2261,242.2055 " fill="none" style="stroke:#000000;stroke-width:1.0;stroke-dasharray:3.0,3.0;"/><path d="M595.7379,244.9083 L599.2532,243.3217 L598.7144,239.5027 L603.9831,245.9261 L595.7379,244.9083 " fill="#000000" style="stroke:#000000;stroke-width:1.0;"/><ellipse cx="541" cy="189.5" fill="#000000" rx="3" ry="3" style="stroke:#000000;stroke-width:1.0;"/><path d="M482,148.5 L495,148.5 C504.4213,148.5 514.9164,148.5 523.5483,148.5 " fill="none" style="stroke:#000000;stroke-width:1.0;stroke-dasharray:3.0,3.0;"/><path d="M523.5483,151.5437 L525.8311,148.5 L523.5483,145.4563 L531.1575,148.5 L523.5483,151.5437 " fill="#000000" style="stroke:#000000;stroke-width:1.0;"/><ellipse cx="482" cy="148.5" fill="#000000" rx="3" ry="3" style="stroke:#000000;stroke-width:1.0;"/><!--SRC=[hPB1IiD048Rl-nH3JXOqDAr8oKbjKw4cAatRYtXOcsdPPZCRDfk0Y8_ZEtZlYpbDMxs9e9U1dV-VRvRzzx9oqhfDPKYy2W2ljCQPt6XDiY4l18-CdrV-Id6HDbUDTxgp7TN2eCCCjPCvsbLDURKnjBSqQDi3kvfWtyfmfKWTk-E37L1hj61vAO9J6agUD8G4bIbW1pSvbDjtABOV3jqUbHiMLEMGIO_S07Xjwq7YvPdoWBV4qIYQjZDVuZDMkLKDwWfRYzUARwS_OUwYMVntIXAD_e6ok9f6VwUaqUtlteNhatWJbqXP-q_4WvRavaaCkuWL1nZulMwlxmzEqfeWaI_G2o3eXlr1sEt2C4fdiDCxukJc8UPGQxj4o3Wygvvhnu2EcCX6mhGcfmeCuRv4cenkZms8g57MK87an6IHV1ikpi-kbOCKBLy55eaOuKhMsl74qcIArY7CP-EpWOWbhMkvPZQI61hcsfSGxku_0G00]--></g></svg>