<svg xmlns="http://www.w3.org/2000/svg" xmlns:xlink="http://www.w3.org/1999/xlink" contentStyleType="text/css" height="298px" preserveAspectRatio="none" style="width:802px;height:298px;background:#FFFFFF;" version="1.1" viewBox="0 0 802 298" width="802px" zoomAndPan="magnify"><defs/><g><rect fill="#F1F1F1" height="102.4414" rx="5" ry="5" style="stroke:#F1F1F1;stroke-width:1.5;" width="414" x="10" y="56.2793"/><text fill="#000000" font-family="sans-serif" font-size="14" font-weight="bold" lengthAdjust="spacing" textLength="101" x="15" y="71.8145">protokollnavn</text><text fill="#000000" font-family="sans-serif" font-size="14" lengthAdjust="spacing" textLength="102" x="126" y="71.8145">no.ks.fiks.arkiv</text><line style="stroke:#000000;stroke-width:1.0;" x1="121" x2="121" y1="56.2793" y2="76.7676"/><line style="stroke:#000000;stroke-width:1.0;" x1="10" x2="424" y1="76.7676" y2="76.7676"/><text fill="#000000" font-family="sans-serif" font-size="14" font-weight="bold" lengthAdjust="spacing" textLength="34" x="15" y="92.3027">navn</text><text fill="#000000" font-family="sans-serif" font-size="14" lengthAdjust="spacing" textLength="127" x="126" y="92.3027">avskrivningsmaate</text><line style="stroke:#000000;stroke-width:1.0;" x1="121" x2="121" y1="76.7676" y2="97.2559"/><line style="stroke:#000000;stroke-width:1.0;" x1="10" x2="424" y1="97.2559" y2="97.2559"/><text fill="#000000" font-family="sans-serif" font-size="14" font-weight="bold" lengthAdjust="spacing" textLength="53" x="15" y="112.791">versjon</text><text fill="#000000" font-family="sans-serif" font-size="14" lengthAdjust="spacing" textLength="16" x="126" y="112.791">v1</text><line style="stroke:#000000;stroke-width:1.0;" x1="121" x2="121" y1="97.2559" y2="117.7441"/><line style="stroke:#000000;stroke-width:1.0;" x1="10" x2="424" y1="117.7441" y2="117.7441"/><text fill="#000000" font-family="sans-serif" font-size="14" font-weight="bold" lengthAdjust="spacing" textLength="73" x="15" y="133.2793">definisjon</text><text fill="#000000" font-family="sans-serif" font-size="14" lengthAdjust="spacing" textLength="293" x="126" y="133.2793">M&#229;ten en journalpost har blitt avskrevet p&#229;</text><line style="stroke:#000000;stroke-width:1.0;" x1="121" x2="121" y1="117.7441" y2="138.2324"/><line style="stroke:#000000;stroke-width:1.0;" x1="10" x2="424" y1="138.2324" y2="138.2324"/><text fill="#000000" font-family="sans-serif" font-size="14" font-weight="bold" lengthAdjust="spacing" textLength="67" x="15" y="153.7676">kodeliste</text><text fill="#000000" font-family="sans-serif" font-size="14" lengthAdjust="spacing" textLength="12" x="126" y="153.7676">&#160;&#160;&#160;</text><line style="stroke:#000000;stroke-width:1.0;" x1="121" x2="121" y1="138.2324" y2="158.7207"/><rect fill="none" height="102.4414" rx="5" ry="5" style="stroke:#000000;stroke-width:1.5;" width="414" x="10" y="56.2793"/><rect fill="#F1F1F1" height="102.4414" rx="5" ry="5" style="stroke:#F1F1F1;stroke-width:1.5;" width="22" x="461" y="97.2793"/><text fill="#000000" font-family="sans-serif" font-size="14" lengthAdjust="spacing" textLength="12" x="466" y="112.8145">&#160;&#160;&#160;</text><line style="stroke:#000000;stroke-width:1.0;" x1="461" x2="483" y1="117.7676" y2="117.7676"/><text fill="#000000" font-family="sans-serif" font-size="14" lengthAdjust="spacing" textLength="12" x="466" y="133.3027">&#160;&#160;&#160;</text><line style="stroke:#000000;stroke-width:1.0;" x1="461" x2="483" y1="138.2559" y2="138.2559"/><text fill="#000000" font-family="sans-serif" font-size="14" lengthAdjust="spacing" textLength="12" x="466" y="153.791">&#160;&#160;&#160;</text><line style="stroke:#000000;stroke-width:1.0;" x1="461" x2="483" y1="158.7441" y2="158.7441"/><text fill="#000000" font-family="sans-serif" font-size="14" lengthAdjust="spacing" textLength="12" x="466" y="174.2793">&#160;&#160;&#160;</text><line style="stroke:#000000;stroke-width:1.0;" x1="461" x2="483" y1="179.2324" y2="179.2324"/><text fill="#000000" font-family="sans-serif" font-size="14" lengthAdjust="spacing" textLength="12" x="466" y="194.7676">&#160;&#160;&#160;</text><rect fill="none" height="102.4414" rx="5" ry="5" style="stroke:#000000;stroke-width:1.5;" width="22" x="461" y="97.2793"/><rect fill="#F1F1F1" height="40.9766" rx="5" ry="5" style="stroke:#F1F1F1;stroke-width:1.5;" width="254" x="528" y="10"/><text fill="#000000" font-family="sans-serif" font-size="14" font-weight="bold" lengthAdjust="spacing" textLength="71" x="533" y="25.5352">kodeverdi</text><text fill="#000000" font-family="sans-serif" font-size="14" lengthAdjust="spacing" textLength="18" x="660" y="25.5352">BU</text><line style="stroke:#000000;stroke-width:1.0;" x1="655" x2="655" y1="10" y2="30.4883"/><line style="stroke:#000000;stroke-width:1.0;" x1="528" x2="782" y1="30.4883" y2="30.4883"/><text fill="#000000" font-family="sans-serif" font-size="14" font-weight="bold" lengthAdjust="spacing" textLength="117" x="533" y="46.0234">kodebeskrivelse</text><text fill="#000000" font-family="sans-serif" font-size="14" lengthAdjust="spacing" textLength="117" x="660" y="46.0234">Besvart med brev</text><line style="stroke:#000000;stroke-width:1.0;" x1="655" x2="655" y1="30.4883" y2="50.9766"/><rect fill="none" height="40.9766" rx="5" ry="5" style="stroke:#000000;stroke-width:1.5;" width="254" x="528" y="10"/><rect fill="#F1F1F1" height="40.9766" rx="5" ry="5" style="stroke:#F1F1F1;stroke-width:1.5;" width="270" x="520" y="69"/><text fill="#000000" font-family="sans-serif" font-size="14" font-weight="bold" lengthAdjust="spacing" textLength="71" x="525" y="84.5352">kodeverdi</text><text fill="#000000" font-family="sans-serif" font-size="14" lengthAdjust="spacing" textLength="16" x="652" y="84.5352">BE</text><line style="stroke:#000000;stroke-width:1.0;" x1="647" x2="647" y1="69" y2="89.4883"/><line style="stroke:#000000;stroke-width:1.0;" x1="520" x2="790" y1="89.4883" y2="89.4883"/><text fill="#000000" font-family="sans-serif" font-size="14" font-weight="bold" lengthAdjust="spacing" textLength="117" x="525" y="105.0234">kodebeskrivelse</text><text fill="#000000" font-family="sans-serif" font-size="14" lengthAdjust="spacing" textLength="133" x="652" y="105.0234">Besvart med e-post</text><line style="stroke:#000000;stroke-width:1.0;" x1="647" x2="647" y1="89.4883" y2="109.9766"/><rect fill="none" height="40.9766" rx="5" ry="5" style="stroke:#000000;stroke-width:1.5;" width="270" x="520" y="69"/><rect fill="#F1F1F1" height="40.9766" rx="5" ry="5" style="stroke:#F1F1F1;stroke-width:1.5;" width="259" x="525.5" y="128"/><text fill="#000000" font-family="sans-serif" font-size="14" font-weight="bold" lengthAdjust="spacing" textLength="71" x="530.5" y="143.5352">kodeverdi</text><text fill="#000000" font-family="sans-serif" font-size="14" lengthAdjust="spacing" textLength="24" x="657.5" y="143.5352">TLF</text><line style="stroke:#000000;stroke-width:1.0;" x1="652.5" x2="652.5" y1="128" y2="148.4883"/><line style="stroke:#000000;stroke-width:1.0;" x1="525.5" x2="784.5" y1="148.4883" y2="148.4883"/><text fill="#000000" font-family="sans-serif" font-size="14" font-weight="bold" lengthAdjust="spacing" textLength="117" x="530.5" y="164.0234">kodebeskrivelse</text><text fill="#000000" font-family="sans-serif" font-size="14" lengthAdjust="spacing" textLength="122" x="657.5" y="164.0234">Besvart p&#229; telefon</text><line style="stroke:#000000;stroke-width:1.0;" x1="652.5" x2="652.5" y1="148.4883" y2="168.9766"/><rect fill="none" height="40.9766" rx="5" ry="5" style="stroke:#000000;stroke-width:1.5;" width="259" x="525.5" y="128"/><rect fill="#F1F1F1" height="40.9766" rx="5" ry="5" style="stroke:#F1F1F1;stroke-width:1.5;" width="261" x="524.5" y="187"/><text fill="#000000" font-family="sans-serif" font-size="14" font-weight="bold" lengthAdjust="spacing" textLength="71" x="529.5" y="202.5352">kodeverdi</text><text fill="#000000" font-family="sans-serif" font-size="14" lengthAdjust="spacing" textLength="17" x="656.5" y="202.5352">TE</text><line style="stroke:#000000;stroke-width:1.0;" x1="651.5" x2="651.5" y1="187" y2="207.4883"/><line style="stroke:#000000;stroke-width:1.0;" x1="524.5" x2="785.5" y1="207.4883" y2="207.4883"/><text fill="#000000" font-family="sans-serif" font-size="14" font-weight="bold" lengthAdjust="spacing" textLength="117" x="529.5" y="223.0234">kodebeskrivelse</text><text fill="#000000" font-family="sans-serif" font-size="14" lengthAdjust="spacing" textLength="124" x="656.5" y="223.0234">Tatt til etteretning</text><line style="stroke:#000000;stroke-width:1.0;" x1="651.5" x2="651.5" y1="207.4883" y2="227.9766"/><rect fill="none" height="40.9766" rx="5" ry="5" style="stroke:#000000;stroke-width:1.5;" width="261" x="524.5" y="187"/><rect fill="#F1F1F1" height="40.9766" rx="5" ry="5" style="stroke:#F1F1F1;stroke-width:1.5;" width="262" x="524" y="246"/><text fill="#000000" font-family="sans-serif" font-size="14" font-weight="bold" lengthAdjust="spacing" textLength="71" x="529" y="261.5352">kodeverdi</text><text fill="#000000" font-family="sans-serif" font-size="14" lengthAdjust="spacing" textLength="20" x="656" y="261.5352">TO</text><line style="stroke:#000000;stroke-width:1.0;" x1="651" x2="651" y1="246" y2="266.4883"/><line style="stroke:#000000;stroke-width:1.0;" x1="524" x2="786" y1="266.4883" y2="266.4883"/><text fill="#000000" font-family="sans-serif" font-size="14" font-weight="bold" lengthAdjust="spacing" textLength="117" x="529" y="282.0234">kodebeskrivelse</text><text fill="#000000" font-family="sans-serif" font-size="14" lengthAdjust="spacing" textLength="125" x="656" y="282.0234">Tatt til orientering</text><line style="stroke:#000000;stroke-width:1.0;" x1="651" x2="651" y1="266.4883" y2="286.9766"/><rect fill="none" height="40.9766" rx="5" ry="5" style="stroke:#000000;stroke-width:1.5;" width="262" x="524" y="246"/><path d="M471,107.5 L484,107.5 C510.6667,107.5 497.5468,73.8863 520,59.5 C522.7718,57.724 525.635,56.0552 528.5716,54.4872 " fill="none" style="stroke:#000000;stroke-width:1.0;stroke-dasharray:3.0,3.0;"/><path d="M529.9632,57.278 L530.6648,53.4435 L527.1801,51.6963 L535.5488,51.0083 L529.9632,57.278 " fill="#000000" style="stroke:#000000;stroke-width:1.0;"/><ellipse cx="471" cy="107.5" fill="#000000" rx="3" ry="3" style="stroke:#000000;stroke-width:1.0;"/><path d="M471,128.5 L484,128.5 C500.4924,128.5 503.9503,123.2955 520,119.5 C530.8863,116.9256 542.2828,114.2908 553.6401,111.7035 " fill="none" style="stroke:#000000;stroke-width:1.0;stroke-dasharray:3.0,3.0;"/><path d="M554.3169,114.6843 L555.8756,111.1958 L552.9632,108.7228 L561.0919,110.0113 L554.3169,114.6843 " fill="#000000" style="stroke:#000000;stroke-width:1.0;"/><ellipse cx="471" cy="128.5" fill="#000000" rx="3" ry="3" style="stroke:#000000;stroke-width:1.0;"/><path d="M471,148.5 L484,148.5 C495.0482,148.5 506.4992,148.5 518.0005,148.5 " fill="none" style="stroke:#000000;stroke-width:1.0;stroke-dasharray:3.0,3.0;"/><path d="M518.0005,151.5246 L520.269,148.5 L518.0005,145.4754 L525.5621,148.5 L518.0005,151.5246 " fill="#000000" style="stroke:#000000;stroke-width:1.0;"/><ellipse cx="471" cy="148.5" fill="#000000" rx="3" ry="3" style="stroke:#000000;stroke-width:1.0;"/><path d="M471,168.5 L484,168.5 C500.6058,168.5 503.8767,174.5261 520,178.5 C529.241,180.7777 538.8636,183.0488 548.5251,185.2603 " fill="none" style="stroke:#000000;stroke-width:1.0;stroke-dasharray:3.0,3.0;"/><path d="M547.8537,188.2164 L550.7422,185.7639 L549.1966,182.3043 L555.9153,186.939 L547.8537,188.2164 " fill="#000000" style="stroke:#000000;stroke-width:1.0;"/><ellipse cx="471" cy="168.5" fill="#000000" rx="3" ry="3" style="stroke:#000000;stroke-width:1.0;"/><path d="M471,189.5 L484,189.5 C510.6667,189.5 497.5468,223.1137 520,237.5 C522.7718,239.276 525.635,240.9448 528.5716,242.5128 " fill="none" style="stroke:#000000;stroke-width:1.0;stroke-dasharray:3.0,3.0;"/><path d="M527.1801,245.3037 L530.6648,243.5565 L529.9632,239.722 L535.5488,245.9917 L527.1801,245.3037 " fill="#000000" style="stroke:#000000;stroke-width:1.0;"/><ellipse cx="471" cy="189.5" fill="#000000" rx="3" ry="3" style="stroke:#000000;stroke-width:1.0;"/><path d="M412,148.5 L425,148.5 C434.4213,148.5 444.9164,148.5 453.5483,148.5 " fill="none" style="stroke:#000000;stroke-width:1.0;stroke-dasharray:3.0,3.0;"/><path d="M453.5483,151.5437 L455.8311,148.5 L453.5483,145.4563 L461.1575,148.5 L453.5483,151.5437 " fill="#000000" style="stroke:#000000;stroke-width:1.0;"/><ellipse cx="412" cy="148.5" fill="#000000" rx="3" ry="3" style="stroke:#000000;stroke-width:1.0;"/><!--SRC=[ZPBDJiCm3CVlUGgh9v3OH2U6K4y864XZPOXzN127Z7eZQ-PCYHi98Hw79-75S3i6DwWK-U2__VD7V1vOUru7H-fD0IHRxzYLpbhIaP8C4dBTCdINHepsfOd9KHssLtKCfJUH3At2Hcl6dHpHXxLh8cAwSnMuD6JstlppWv50tjfLdhJTki3meZqih666XeiH6RQV7pj0wGgq9aY931x50V3Ms6z9IXOc0M5Vp9g47sM1JOze0-vq355cXWqMi90YIHFyVlGdSz2UYPrwc3RKwUYw7LQM08mMbxAzDjn_kfrgMJ4R2yYC7hd-lbRSSKkkymP9qBzSiK_gNPqZ5SsngNkhYMVv2EfRCOuWxVQEUoVT_i6a8iZrA_HE8Kspj9_rp-1oC9b2hH-gWvlx4GIvccU4Gkx1cqN50ZXKGnqrF5J4PeCPZBT8mwlRlGC658rtj976r72U_mQSddGk3CC4lRG2yrnTuL9NbYNZsHKoGWQpwNNdJ8qqhIgz4ZQIkdJ2zQyPt8s_0000]--></g></svg>