<?xml version="1.0" encoding="us-ascii" standalone="no"?><svg xmlns="http://www.w3.org/2000/svg" xmlns:xlink="http://www.w3.org/1999/xlink" contentStyleType="text/css" height="416px" preserveAspectRatio="none" style="width:811px;height:416px;background:#FFFFFF;" version="1.1" viewBox="0 0 811 416" width="811px" zoomAndPan="magnify"><defs/><g><rect fill="#F1F1F1" height="102.4414" rx="5" ry="5" style="stroke:#F1F1F1;stroke-width:1.5;" width="421" x="10" y="115.2793"/><text fill="#000000" font-family="sans-serif" font-size="14" font-weight="bold" lengthAdjust="spacing" textLength="101" x="15" y="130.8145">protokollnavn</text><text fill="#000000" font-family="sans-serif" font-size="14" lengthAdjust="spacing" textLength="102" x="126" y="130.8145">no.ks.fiks.arkiv</text><line style="stroke:#000000;stroke-width:1.0;" x1="121" x2="121" y1="115.2793" y2="135.7676"/><line style="stroke:#000000;stroke-width:1.0;" x1="10" x2="431" y1="135.7676" y2="135.7676"/><text fill="#000000" font-family="sans-serif" font-size="14" font-weight="bold" lengthAdjust="spacing" textLength="34" x="15" y="151.3027">navn</text><text fill="#000000" font-family="sans-serif" font-size="14" lengthAdjust="spacing" textLength="160" x="126" y="151.3027">moeteregistreringstype</text><line style="stroke:#000000;stroke-width:1.0;" x1="121" x2="121" y1="135.7676" y2="156.2559"/><line style="stroke:#000000;stroke-width:1.0;" x1="10" x2="431" y1="156.2559" y2="156.2559"/><text fill="#000000" font-family="sans-serif" font-size="14" font-weight="bold" lengthAdjust="spacing" textLength="53" x="15" y="171.791">versjon</text><text fill="#000000" font-family="sans-serif" font-size="14" lengthAdjust="spacing" textLength="16" x="126" y="171.791">v1</text><line style="stroke:#000000;stroke-width:1.0;" x1="121" x2="121" y1="156.2559" y2="176.7441"/><line style="stroke:#000000;stroke-width:1.0;" x1="10" x2="431" y1="176.7441" y2="176.7441"/><text fill="#000000" font-family="sans-serif" font-size="14" font-weight="bold" lengthAdjust="spacing" textLength="73" x="15" y="192.2793">definisjon</text><text fill="#000000" font-family="sans-serif" font-size="14" lengthAdjust="spacing" textLength="300" x="126" y="192.2793">Navn p&#229; type Navn p&#229; type m&#248;teregistrering</text><line style="stroke:#000000;stroke-width:1.0;" x1="121" x2="121" y1="176.7441" y2="197.2324"/><line style="stroke:#000000;stroke-width:1.0;" x1="10" x2="431" y1="197.2324" y2="197.2324"/><text fill="#000000" font-family="sans-serif" font-size="14" font-weight="bold" lengthAdjust="spacing" textLength="67" x="15" y="212.7676">kodeliste</text><text fill="#000000" font-family="sans-serif" font-size="14" lengthAdjust="spacing" textLength="12" x="126" y="212.7676">&#160;&#160;&#160;</text><line style="stroke:#000000;stroke-width:1.0;" x1="121" x2="121" y1="197.2324" y2="217.7207"/><rect fill="none" height="102.4414" rx="5" ry="5" style="stroke:#000000;stroke-width:1.5;" width="421" x="10" y="115.2793"/><rect fill="#F1F1F1" height="143.418" rx="5" ry="5" style="stroke:#F1F1F1;stroke-width:1.5;" width="22" x="468" y="135.791"/><text fill="#000000" font-family="sans-serif" font-size="14" lengthAdjust="spacing" textLength="12" x="473" y="151.3262">&#160;&#160;&#160;</text><line style="stroke:#000000;stroke-width:1.0;" x1="468" x2="490" y1="156.2793" y2="156.2793"/><text fill="#000000" font-family="sans-serif" font-size="14" lengthAdjust="spacing" textLength="12" x="473" y="171.8145">&#160;&#160;&#160;</text><line style="stroke:#000000;stroke-width:1.0;" x1="468" x2="490" y1="176.7676" y2="176.7676"/><text fill="#000000" font-family="sans-serif" font-size="14" lengthAdjust="spacing" textLength="12" x="473" y="192.3027">&#160;&#160;&#160;</text><line style="stroke:#000000;stroke-width:1.0;" x1="468" x2="490" y1="197.2559" y2="197.2559"/><text fill="#000000" font-family="sans-serif" font-size="14" lengthAdjust="spacing" textLength="12" x="473" y="212.791">&#160;&#160;&#160;</text><line style="stroke:#000000;stroke-width:1.0;" x1="468" x2="490" y1="217.7441" y2="217.7441"/><text fill="#000000" font-family="sans-serif" font-size="14" lengthAdjust="spacing" textLength="12" x="473" y="233.2793">&#160;&#160;&#160;</text><line style="stroke:#000000;stroke-width:1.0;" x1="468" x2="490" y1="238.2324" y2="238.2324"/><text fill="#000000" font-family="sans-serif" font-size="14" lengthAdjust="spacing" textLength="12" x="473" y="253.7676">&#160;&#160;&#160;</text><line style="stroke:#000000;stroke-width:1.0;" x1="468" x2="490" y1="258.7207" y2="258.7207"/><text fill="#000000" font-family="sans-serif" font-size="14" lengthAdjust="spacing" textLength="12" x="473" y="274.2559">&#160;&#160;&#160;</text><rect fill="none" height="143.418" rx="5" ry="5" style="stroke:#000000;stroke-width:1.5;" width="22" x="468" y="135.791"/><rect fill="#F1F1F1" height="40.9766" rx="5" ry="5" style="stroke:#F1F1F1;stroke-width:1.5;" width="239" x="543.5" y="10"/><text fill="#000000" font-family="sans-serif" font-size="14" font-weight="bold" lengthAdjust="spacing" textLength="71" x="548.5" y="25.5352">kodeverdi</text><text fill="#000000" font-family="sans-serif" font-size="14" lengthAdjust="spacing" textLength="16" x="675.5" y="25.5352">MI</text><line style="stroke:#000000;stroke-width:1.0;" x1="670.5" x2="670.5" y1="10" y2="30.4883"/><line style="stroke:#000000;stroke-width:1.0;" x1="543.5" x2="782.5" y1="30.4883" y2="30.4883"/><text fill="#000000" font-family="sans-serif" font-size="14" font-weight="bold" lengthAdjust="spacing" textLength="117" x="548.5" y="46.0234">kodebeskrivelse</text><text fill="#000000" font-family="sans-serif" font-size="14" lengthAdjust="spacing" textLength="102" x="675.5" y="46.0234">M&#248;teinnkalling</text><line style="stroke:#000000;stroke-width:1.0;" x1="670.5" x2="670.5" y1="30.4883" y2="50.9766"/><rect fill="none" height="40.9766" rx="5" ry="5" style="stroke:#000000;stroke-width:1.5;" width="239" x="543.5" y="10"/><rect fill="#F1F1F1" height="40.9766" rx="5" ry="5" style="stroke:#F1F1F1;stroke-width:1.5;" width="230" x="548" y="69"/><text fill="#000000" font-family="sans-serif" font-size="14" font-weight="bold" lengthAdjust="spacing" textLength="71" x="553" y="84.5352">kodeverdi</text><text fill="#000000" font-family="sans-serif" font-size="14" lengthAdjust="spacing" textLength="16" x="680" y="84.5352">SF</text><line style="stroke:#000000;stroke-width:1.0;" x1="675" x2="675" y1="69" y2="89.4883"/><line style="stroke:#000000;stroke-width:1.0;" x1="548" x2="778" y1="89.4883" y2="89.4883"/><text fill="#000000" font-family="sans-serif" font-size="14" font-weight="bold" lengthAdjust="spacing" textLength="117" x="553" y="105.0234">kodebeskrivelse</text><text fill="#000000" font-family="sans-serif" font-size="14" lengthAdjust="spacing" textLength="93" x="680" y="105.0234">Saksframlegg</text><line style="stroke:#000000;stroke-width:1.0;" x1="675" x2="675" y1="89.4883" y2="109.9766"/><rect fill="none" height="40.9766" rx="5" ry="5" style="stroke:#000000;stroke-width:1.5;" width="230" x="548" y="69"/><rect fill="#F1F1F1" height="40.9766" rx="5" ry="5" style="stroke:#F1F1F1;stroke-width:1.5;" width="231" x="547.5" y="128"/><text fill="#000000" font-family="sans-serif" font-size="14" font-weight="bold" lengthAdjust="spacing" textLength="71" x="552.5" y="143.5352">kodeverdi</text><text fill="#000000" font-family="sans-serif" font-size="14" lengthAdjust="spacing" textLength="16" x="679.5" y="143.5352">SP</text><line style="stroke:#000000;stroke-width:1.0;" x1="674.5" x2="674.5" y1="128" y2="148.4883"/><line style="stroke:#000000;stroke-width:1.0;" x1="547.5" x2="778.5" y1="148.4883" y2="148.4883"/><text fill="#000000" font-family="sans-serif" font-size="14" font-weight="bold" lengthAdjust="spacing" textLength="117" x="552.5" y="164.0234">kodebeskrivelse</text><text fill="#000000" font-family="sans-serif" font-size="14" lengthAdjust="spacing" textLength="94" x="679.5" y="164.0234">Saksprotokoll</text><line style="stroke:#000000;stroke-width:1.0;" x1="674.5" x2="674.5" y1="148.4883" y2="168.9766"/><rect fill="none" height="40.9766" rx="5" ry="5" style="stroke:#000000;stroke-width:1.5;" width="231" x="547.5" y="128"/><rect fill="#F1F1F1" height="40.9766" rx="5" ry="5" style="stroke:#F1F1F1;stroke-width:1.5;" width="234" x="546" y="187"/><text fill="#000000" font-family="sans-serif" font-size="14" font-weight="bold" lengthAdjust="spacing" textLength="71" x="551" y="202.5352">kodeverdi</text><text fill="#000000" font-family="sans-serif" font-size="14" lengthAdjust="spacing" textLength="20" x="678" y="202.5352">MP</text><line style="stroke:#000000;stroke-width:1.0;" x1="673" x2="673" y1="187" y2="207.4883"/><line style="stroke:#000000;stroke-width:1.0;" x1="546" x2="780" y1="207.4883" y2="207.4883"/><text fill="#000000" font-family="sans-serif" font-size="14" font-weight="bold" lengthAdjust="spacing" textLength="117" x="551" y="223.0234">kodebeskrivelse</text><text fill="#000000" font-family="sans-serif" font-size="14" lengthAdjust="spacing" textLength="97" x="678" y="223.0234">M&#248;teprotokoll</text><line style="stroke:#000000;stroke-width:1.0;" x1="673" x2="673" y1="207.4883" y2="227.9766"/><rect fill="none" height="40.9766" rx="5" ry="5" style="stroke:#000000;stroke-width:1.5;" width="234" x="546" y="187"/><rect fill="#F1F1F1" height="40.9766" rx="5" ry="5" style="stroke:#F1F1F1;stroke-width:1.5;" width="196" x="565" y="246"/><text fill="#000000" font-family="sans-serif" font-size="14" font-weight="bold" lengthAdjust="spacing" textLength="71" x="570" y="261.5352">kodeverdi</text><text fill="#000000" font-family="sans-serif" font-size="14" lengthAdjust="spacing" textLength="15" x="697" y="261.5352">SL</text><line style="stroke:#000000;stroke-width:1.0;" x1="692" x2="692" y1="246" y2="266.4883"/><line style="stroke:#000000;stroke-width:1.0;" x1="565" x2="761" y1="266.4883" y2="266.4883"/><text fill="#000000" font-family="sans-serif" font-size="14" font-weight="bold" lengthAdjust="spacing" textLength="117" x="570" y="282.0234">kodebeskrivelse</text><text fill="#000000" font-family="sans-serif" font-size="14" lengthAdjust="spacing" textLength="59" x="697" y="282.0234">Saksliste</text><line style="stroke:#000000;stroke-width:1.0;" x1="692" x2="692" y1="266.4883" y2="286.9766"/><rect fill="none" height="40.9766" rx="5" ry="5" style="stroke:#000000;stroke-width:1.5;" width="196" x="565" y="246"/><rect fill="#F1F1F1" height="40.9766" rx="5" ry="5" style="stroke:#F1F1F1;stroke-width:1.5;" width="259" x="533.5" y="305"/><text fill="#000000" font-family="sans-serif" font-size="14" font-weight="bold" lengthAdjust="spacing" textLength="71" x="538.5" y="320.5352">kodeverdi</text><text fill="#000000" font-family="sans-serif" font-size="14" lengthAdjust="spacing" textLength="18" x="665.5" y="320.5352">OL</text><line style="stroke:#000000;stroke-width:1.0;" x1="660.5" x2="660.5" y1="305" y2="325.4883"/><line style="stroke:#000000;stroke-width:1.0;" x1="533.5" x2="792.5" y1="325.4883" y2="325.4883"/><text fill="#000000" font-family="sans-serif" font-size="14" font-weight="bold" lengthAdjust="spacing" textLength="117" x="538.5" y="341.0234">kodebeskrivelse</text><text fill="#000000" font-family="sans-serif" font-size="14" lengthAdjust="spacing" textLength="122" x="665.5" y="341.0234">Offentlig saksliste</text><line style="stroke:#000000;stroke-width:1.0;" x1="660.5" x2="660.5" y1="325.4883" y2="345.9766"/><rect fill="none" height="40.9766" rx="5" ry="5" style="stroke:#000000;stroke-width:1.5;" width="259" x="533.5" y="305"/><rect fill="#F1F1F1" height="40.9766" rx="5" ry="5" style="stroke:#F1F1F1;stroke-width:1.5;" width="272" x="527" y="364"/><text fill="#000000" font-family="sans-serif" font-size="14" font-weight="bold" lengthAdjust="spacing" textLength="71" x="532" y="379.5352">kodeverdi</text><text fill="#000000" font-family="sans-serif" font-size="14" lengthAdjust="spacing" textLength="16" x="659" y="379.5352">VL</text><line style="stroke:#000000;stroke-width:1.0;" x1="654" x2="654" y1="364" y2="384.4883"/><line style="stroke:#000000;stroke-width:1.0;" x1="527" x2="799" y1="384.4883" y2="384.4883"/><text fill="#000000" font-family="sans-serif" font-size="14" font-weight="bold" lengthAdjust="spacing" textLength="117" x="532" y="400.0234">kodebeskrivelse</text><text fill="#000000" font-family="sans-serif" font-size="14" lengthAdjust="spacing" textLength="135" x="659" y="400.0234">Vedlegg til m&#248;tesak</text><line style="stroke:#000000;stroke-width:1.0;" x1="654" x2="654" y1="384.4883" y2="404.9766"/><rect fill="none" height="40.9766" rx="5" ry="5" style="stroke:#000000;stroke-width:1.5;" width="272" x="527" y="364"/><path d="M478,146.5 L491,146.5 C532.8463,146.5 494.8504,86.2865 527,59.5 C530.2344,56.8051 533.6599,54.3432 537.235,52.0949 " fill="none" style="stroke:#000000;stroke-width:1.0;stroke-dasharray:3.0,3.0;"/><path d="M538.7632,54.7302 L539.2115,50.9488 L535.7069,49.4596 L543.8232,48.2746 L538.7632,54.7302 " fill="#000000" style="stroke:#000000;stroke-width:1.0;"/><ellipse cx="478" cy="146.5" fill="#000000" rx="3" ry="3" style="stroke:#000000;stroke-width:1.0;"/><path d="M478,166.5 L491,166.5 C517.6667,166.5 504.5359,132.8693 527,118.5 C531.5978,115.559 536.4449,112.9115 541.4609,110.5286 " fill="none" style="stroke:#000000;stroke-width:1.0;stroke-dasharray:3.0,3.0;"/><path d="M542.6962,113.3035 L543.5421,109.6022 L540.2257,107.7537 L548.3982,107.4405 L542.6962,113.3035 " fill="#000000" style="stroke:#000000;stroke-width:1.0;"/><ellipse cx="478" cy="166.5" fill="#000000" rx="3" ry="3" style="stroke:#000000;stroke-width:1.0;"/><path d="M478,187.5 L491,187.5 C507.4924,187.5 510.9473,182.2829 527,178.5 C537.8693,175.9386 549.2442,173.3213 560.5855,170.7524 " fill="none" style="stroke:#000000;stroke-width:1.0;stroke-dasharray:3.0,3.0;"/><path d="M561.2575,173.7293 L562.8182,170.2484 L559.9134,167.7755 L568.0278,169.0723 L561.2575,173.7293 " fill="#000000" style="stroke:#000000;stroke-width:1.0;"/><ellipse cx="478" cy="187.5" fill="#000000" rx="3" ry="3" style="stroke:#000000;stroke-width:1.0;"/><path d="M478,207.5 L491,207.5 C506.3524,207.5 522.4778,207.5 538.4421,207.5 " fill="none" style="stroke:#000000;stroke-width:1.0;stroke-dasharray:3.0,3.0;"/><path d="M538.4421,210.628 L540.788,207.5 L538.4421,204.372 L546.262,207.5 L538.4421,210.628 " fill="#000000" style="stroke:#000000;stroke-width:1.0;"/><ellipse cx="478" cy="207.5" fill="#000000" rx="3" ry="3" style="stroke:#000000;stroke-width:1.0;"/><path d="M478,227.5 L491,227.5 C507.6058,227.5 510.8737,233.5383 527,237.5 C536.9637,239.9477 547.3683,242.3848 557.7902,244.7467 " fill="none" style="stroke:#000000;stroke-width:1.0;stroke-dasharray:3.0,3.0;"/><path d="M557.108,247.7811 L560.066,245.2584 L558.4725,241.7124 L565.3761,246.4524 L557.108,247.7811 " fill="#000000" style="stroke:#000000;stroke-width:1.0;"/><ellipse cx="478" cy="227.5" fill="#000000" rx="3" ry="3" style="stroke:#000000;stroke-width:1.0;"/><path d="M478,248.5 L491,248.5 C517.6667,248.5 504.5359,282.1307 527,296.5 C529.7359,298.25 532.56,299.8961 535.4555,301.4444 " fill="none" style="stroke:#000000;stroke-width:1.0;stroke-dasharray:3.0,3.0;"/><path d="M534.0803,304.1954 L537.5188,302.4757 L536.8307,298.6933 L542.3332,304.8823 L534.0803,304.1954 " fill="#000000" style="stroke:#000000;stroke-width:1.0;"/><ellipse cx="478" cy="248.5" fill="#000000" rx="3" ry="3" style="stroke:#000000;stroke-width:1.0;"/><path d="M478,268.5 L491,268.5 C532.8463,268.5 494.8504,328.7135 527,355.5 C528.7327,356.9437 530.5203,358.3205 532.3563,359.6335 " fill="none" style="stroke:#000000;stroke-width:1.0;stroke-dasharray:3.0,3.0;"/><path d="M530.6674,362.2015 L534.2823,360.9001 L534.0452,357.0655 L538.7763,363.8556 L530.6674,362.2015 " fill="#000000" style="stroke:#000000;stroke-width:1.0;"/><ellipse cx="478" cy="268.5" fill="#000000" rx="3" ry="3" style="stroke:#000000;stroke-width:1.0;"/><path d="M419,207.5 L432,207.5 C441.4213,207.5 451.9164,207.5 460.5483,207.5 " fill="none" style="stroke:#000000;stroke-width:1.0;stroke-dasharray:3.0,3.0;"/><path d="M460.5483,210.5437 L462.8311,207.5 L460.5483,204.4563 L468.1575,207.5 L460.5483,210.5437 " fill="#000000" style="stroke:#000000;stroke-width:1.0;"/><ellipse cx="419" cy="207.5" fill="#000000" rx="3" ry="3" style="stroke:#000000;stroke-width:1.0;"/><!--SRC=[bPF1Ji9048Rl-nIJdZJ11j0OqfDHq8WKY0KkniDgfytQxIpPtJOXXCVn7RppOcvRq70Hl4pI___dsztCzCPOhks7KSJM3C1RQcLLfgGaNf8NW4VApuoV25UupaJfjQhOtiqLMjIO2cCrQa6fiQibDfaIjVbGTQpiD5ACYI2nLySE0ilj9rGzSFYLRxyEmGqWKp5Afw7hVt42mBgkEyiT6GiF73jyh1j-d3SqcHObIeEDN_45KSQbhEXrTjFw2ndT_usCU6OIpNE9wMcywN7UppXE0ORJ4zxyBs8qEdx5PXmdm2P7O9CaGR9If63-WrqSmIumhYO2LiXcgnnzntNrbMtO3L9S_m5iAZdPUJY2QdU58kZutNRtqk-THGL1o5VGxK2d7LpsWdORxWRH32h_d9qzJ4TWLA7V4U9gPyLROHtWd0rvoU6v82jo362oH1hsd_O23AWKMb7k7iw6Y_0tS7rrSIiiHAZTLM0HiZucl93MTRohs6ri0FFP_KMFZJYb1KyT6udTASVLgm36asy0]--></g></svg>