<?xml version="1.0" encoding="us-ascii" standalone="no"?><svg xmlns="http://www.w3.org/2000/svg" xmlns:xlink="http://www.w3.org/1999/xlink" contentStyleType="text/css" height="682px" preserveAspectRatio="none" style="width:1381px;height:682px;background:#FFFFFF;" version="1.1" viewBox="0 0 1381 682" width="1381px" zoomAndPan="magnify"><defs/><g><!--class resultatListeMinimum--><g id="elem_resultatListeMinimum"><rect codeLine="2" fill="#F1F1F1" height="64.4883" id="resultatListeMinimum" rx="2.5" ry="2.5" style="stroke:#181818;stroke-width:0.5;" width="280" x="446.5" y="255.15"/><ellipse cx="508.75" cy="271.15" fill="#ADD1B2" rx="11" ry="11" style="stroke:#181818;stroke-width:1.0;"/><path d="M511.2231,277.2931 Q510.6421,277.5919 510.0029,277.7413 Q509.3638,277.8907 508.6582,277.8907 Q506.1514,277.8907 504.8315,276.2389 Q503.5117,274.587 503.5117,271.4659 Q503.5117,268.3365 504.8315,266.6847 Q506.1514,265.0328 508.6582,265.0328 Q509.3638,265.0328 510.0112,265.1822 Q510.6587,265.3316 511.2231,265.6305 L511.2231,268.3531 Q510.5923,267.7721 509.9988,267.5023 Q509.4053,267.2325 508.7744,267.2325 Q507.4297,267.2325 506.7449,268.2992 Q506.0601,269.3658 506.0601,271.4659 Q506.0601,273.5577 506.7449,274.6244 Q507.4297,275.691 508.7744,275.691 Q509.4053,275.691 509.9988,275.4212 Q510.5923,275.1515 511.2231,274.5704 Z " fill="#000000"/><text fill="#000000" font-family="sans-serif" font-size="14" lengthAdjust="spacing" textLength="147" x="529.25" y="276.441">resultatListeMinimum</text><line style="stroke:#181818;stroke-width:0.5;" x1="447.5" x2="725.5" y1="287.15" y2="287.15"/><ellipse cx="457.5" cy="300.8941" fill="none" rx="3" ry="3" style="stroke:#038048;stroke-width:1.0;"/><text fill="#000000" font-family="sans-serif" font-size="14" lengthAdjust="spacing" textLength="254" x="466.5" y="304.6852">resultatMinimum : resultatMinimum[]</text><line style="stroke:#181818;stroke-width:0.5;" x1="447.5" x2="725.5" y1="311.6383" y2="311.6383"/></g><!--class resultatMinimum--><g id="elem_resultatMinimum"><rect codeLine="6" fill="#F1F1F1" height="146.9297" id="resultatMinimum" rx="2.5" ry="2.5" style="stroke:#181818;stroke-width:0.5;" width="474" x="349.5" y="420.86"/><ellipse cx="524.25" cy="436.86" fill="#ADD1B2" rx="11" ry="11" style="stroke:#181818;stroke-width:1.0;"/><path d="M526.7231,443.0031 Q526.1421,443.3019 525.5029,443.4513 Q524.8638,443.6007 524.1582,443.6007 Q521.6514,443.6007 520.3315,441.9489 Q519.0117,440.297 519.0117,437.1759 Q519.0117,434.0465 520.3315,432.3947 Q521.6514,430.7428 524.1582,430.7428 Q524.8638,430.7428 525.5112,430.8922 Q526.1587,431.0416 526.7231,431.3405 L526.7231,434.0631 Q526.0923,433.4821 525.4988,433.2123 Q524.9053,432.9425 524.2744,432.9425 Q522.9297,432.9425 522.2449,434.0092 Q521.5601,435.0758 521.5601,437.1759 Q521.5601,439.2677 522.2449,440.3344 Q522.9297,441.401 524.2744,441.401 Q524.9053,441.401 525.4988,441.1312 Q526.0923,440.8615 526.7231,440.2804 Z " fill="#000000"/><text fill="#000000" font-family="sans-serif" font-size="14" lengthAdjust="spacing" textLength="116" x="544.75" y="442.151">resultatMinimum</text><line style="stroke:#181818;stroke-width:0.5;" x1="350.5" x2="822.5" y1="452.86" y2="452.86"/><ellipse cx="360.5" cy="466.6041" fill="none" rx="3" ry="3" style="stroke:#038048;stroke-width:1.0;"/><text fill="#000000" font-family="sans-serif" font-size="14" lengthAdjust="spacing" textLength="170" x="369.5" y="470.3952">mappe : mappeMinimum</text><ellipse cx="360.5" cy="483.0924" fill="none" rx="3" ry="3" style="stroke:#038048;stroke-width:1.0;"/><text fill="#000000" font-family="sans-serif" font-size="14" lengthAdjust="spacing" textLength="230" x="369.5" y="486.8834">saksmappe : saksmappeMinimum</text><ellipse cx="360.5" cy="499.5807" fill="none" rx="3" ry="3" style="stroke:#038048;stroke-width:1.0;"/><text fill="#000000" font-family="sans-serif" font-size="14" lengthAdjust="spacing" textLength="238" x="369.5" y="503.3717">registrering : registreringMinimum</text><ellipse cx="360.5" cy="516.069" fill="none" rx="3" ry="3" style="stroke:#038048;stroke-width:1.0;"/><text fill="#000000" font-family="sans-serif" font-size="14" lengthAdjust="spacing" textLength="234" x="369.5" y="519.86">journalpost : journalpostMinimum</text><ellipse cx="360.5" cy="532.5573" fill="none" rx="3" ry="3" style="stroke:#038048;stroke-width:1.0;"/><text fill="#000000" font-family="sans-serif" font-size="14" lengthAdjust="spacing" textLength="448" x="369.5" y="536.3483">journalpostMedSaksmappe : journalpostMedSaksmappeMinimum</text><ellipse cx="360.5" cy="549.0455" fill="none" rx="3" ry="3" style="stroke:#038048;stroke-width:1.0;"/><text fill="#000000" font-family="sans-serif" font-size="14" lengthAdjust="spacing" textLength="368" x="369.5" y="552.8366">dokumentbeskrivelse : dokumentbeskrivelseMinimum</text><line style="stroke:#181818;stroke-width:0.5;" x1="350.5" x2="822.5" y1="559.7897" y2="559.7897"/></g><!--class mappeMinimum--><g id="elem_mappeMinimum"><rect fill="#F1F1F1" height="48" id="mappeMinimum" rx="2.5" ry="2.5" style="stroke:#181818;stroke-width:0.5;" width="143" x="7" y="627.79"/><ellipse cx="22" cy="643.79" fill="#ADD1B2" rx="11" ry="11" style="stroke:#181818;stroke-width:1.0;"/><path d="M24.4731,649.9331 Q23.8921,650.2319 23.2529,650.3813 Q22.6138,650.5307 21.9082,650.5307 Q19.4014,650.5307 18.0815,648.8789 Q16.7617,647.227 16.7617,644.1059 Q16.7617,640.9765 18.0815,639.3247 Q19.4014,637.6728 21.9082,637.6728 Q22.6138,637.6728 23.2612,637.8222 Q23.9087,637.9716 24.4731,638.2705 L24.4731,640.9931 Q23.8423,640.4121 23.2488,640.1423 Q22.6553,639.8725 22.0244,639.8725 Q20.6797,639.8725 19.9949,640.9392 Q19.3101,642.0058 19.3101,644.1059 Q19.3101,646.1977 19.9949,647.2644 Q20.6797,648.331 22.0244,648.331 Q22.6553,648.331 23.2488,648.0612 Q23.8423,647.7915 24.4731,647.2104 Z " fill="#000000"/><text fill="#000000" font-family="sans-serif" font-size="14" lengthAdjust="spacing" textLength="111" x="36" y="649.081">mappeMinimum</text><line style="stroke:#181818;stroke-width:0.5;" x1="8" x2="149" y1="659.79" y2="659.79"/><line style="stroke:#181818;stroke-width:0.5;" x1="8" x2="149" y1="667.79" y2="667.79"/></g><!--class saksmappeMinimum--><g id="elem_saksmappeMinimum"><rect fill="#F1F1F1" height="48" id="saksmappeMinimum" rx="2.5" ry="2.5" style="stroke:#181818;stroke-width:0.5;" width="173" x="185" y="627.79"/><ellipse cx="200" cy="643.79" fill="#ADD1B2" rx="11" ry="11" style="stroke:#181818;stroke-width:1.0;"/><path d="M202.4731,649.9331 Q201.8921,650.2319 201.2529,650.3813 Q200.6138,650.5307 199.9082,650.5307 Q197.4014,650.5307 196.0815,648.8789 Q194.7617,647.227 194.7617,644.1059 Q194.7617,640.9765 196.0815,639.3247 Q197.4014,637.6728 199.9082,637.6728 Q200.6138,637.6728 201.2612,637.8222 Q201.9087,637.9716 202.4731,638.2705 L202.4731,640.9931 Q201.8423,640.4121 201.2488,640.1423 Q200.6553,639.8725 200.0244,639.8725 Q198.6797,639.8725 197.9949,640.9392 Q197.3101,642.0058 197.3101,644.1059 Q197.3101,646.1977 197.9949,647.2644 Q198.6797,648.331 200.0244,648.331 Q200.6553,648.331 201.2488,648.0612 Q201.8423,647.7915 202.4731,647.2104 Z " fill="#000000"/><text fill="#000000" font-family="sans-serif" font-size="14" lengthAdjust="spacing" textLength="141" x="214" y="649.081">saksmappeMinimum</text><line style="stroke:#181818;stroke-width:0.5;" x1="186" x2="357" y1="659.79" y2="659.79"/><line style="stroke:#181818;stroke-width:0.5;" x1="186" x2="357" y1="667.79" y2="667.79"/></g><!--class registreringMinimum--><g id="elem_registreringMinimum"><rect fill="#F1F1F1" height="48" id="registreringMinimum" rx="2.5" ry="2.5" style="stroke:#181818;stroke-width:0.5;" width="177" x="393" y="627.79"/><ellipse cx="408" cy="643.79" fill="#ADD1B2" rx="11" ry="11" style="stroke:#181818;stroke-width:1.0;"/><path d="M410.4731,649.9331 Q409.8921,650.2319 409.2529,650.3813 Q408.6138,650.5307 407.9082,650.5307 Q405.4014,650.5307 404.0815,648.8789 Q402.7617,647.227 402.7617,644.1059 Q402.7617,640.9765 404.0815,639.3247 Q405.4014,637.6728 407.9082,637.6728 Q408.6138,637.6728 409.2612,637.8222 Q409.9087,637.9716 410.4731,638.2705 L410.4731,640.9931 Q409.8423,640.4121 409.2488,640.1423 Q408.6553,639.8725 408.0244,639.8725 Q406.6797,639.8725 405.9949,640.9392 Q405.3101,642.0058 405.3101,644.1059 Q405.3101,646.1977 405.9949,647.2644 Q406.6797,648.331 408.0244,648.331 Q408.6553,648.331 409.2488,648.0612 Q409.8423,647.7915 410.4731,647.2104 Z " fill="#000000"/><text fill="#000000" font-family="sans-serif" font-size="14" lengthAdjust="spacing" textLength="145" x="422" y="649.081">registreringMinimum</text><line style="stroke:#181818;stroke-width:0.5;" x1="394" x2="569" y1="659.79" y2="659.79"/><line style="stroke:#181818;stroke-width:0.5;" x1="394" x2="569" y1="667.79" y2="667.79"/></g><!--class journalpostMinimum--><g id="elem_journalpostMinimum"><rect fill="#F1F1F1" height="48" id="journalpostMinimum" rx="2.5" ry="2.5" style="stroke:#181818;stroke-width:0.5;" width="175" x="605" y="627.79"/><ellipse cx="620" cy="643.79" fill="#ADD1B2" rx="11" ry="11" style="stroke:#181818;stroke-width:1.0;"/><path d="M622.4731,649.9331 Q621.8921,650.2319 621.2529,650.3813 Q620.6138,650.5307 619.9082,650.5307 Q617.4014,650.5307 616.0815,648.8789 Q614.7617,647.227 614.7617,644.1059 Q614.7617,640.9765 616.0815,639.3247 Q617.4014,637.6728 619.9082,637.6728 Q620.6138,637.6728 621.2612,637.8222 Q621.9087,637.9716 622.4731,638.2705 L622.4731,640.9931 Q621.8423,640.4121 621.2488,640.1423 Q620.6553,639.8725 620.0244,639.8725 Q618.6797,639.8725 617.9949,640.9392 Q617.3101,642.0058 617.3101,644.1059 Q617.3101,646.1977 617.9949,647.2644 Q618.6797,648.331 620.0244,648.331 Q620.6553,648.331 621.2488,648.0612 Q621.8423,647.7915 622.4731,647.2104 Z " fill="#000000"/><text fill="#000000" font-family="sans-serif" font-size="14" lengthAdjust="spacing" textLength="143" x="634" y="649.081">journalpostMinimum</text><line style="stroke:#181818;stroke-width:0.5;" x1="606" x2="779" y1="659.79" y2="659.79"/><line style="stroke:#181818;stroke-width:0.5;" x1="606" x2="779" y1="667.79" y2="667.79"/></g><!--class journalpostMedSaksmappeMinimum--><g id="elem_journalpostMedSaksmappeMinimum"><rect fill="#F1F1F1" height="48" id="journalpostMedSaksmappeMinimum" rx="2.5" ry="2.5" style="stroke:#181818;stroke-width:0.5;" width="282" x="815.5" y="627.79"/><ellipse cx="830.5" cy="643.79" fill="#ADD1B2" rx="11" ry="11" style="stroke:#181818;stroke-width:1.0;"/><path d="M832.9731,649.9331 Q832.3921,650.2319 831.7529,650.3813 Q831.1138,650.5307 830.4082,650.5307 Q827.9014,650.5307 826.5815,648.8789 Q825.2617,647.227 825.2617,644.1059 Q825.2617,640.9765 826.5815,639.3247 Q827.9014,637.6728 830.4082,637.6728 Q831.1138,637.6728 831.7612,637.8222 Q832.4087,637.9716 832.9731,638.2705 L832.9731,640.9931 Q832.3423,640.4121 831.7488,640.1423 Q831.1553,639.8725 830.5244,639.8725 Q829.1797,639.8725 828.4949,640.9392 Q827.8101,642.0058 827.8101,644.1059 Q827.8101,646.1977 828.4949,647.2644 Q829.1797,648.331 830.5244,648.331 Q831.1553,648.331 831.7488,648.0612 Q832.3423,647.7915 832.9731,647.2104 Z " fill="#000000"/><text fill="#000000" font-family="sans-serif" font-size="14" lengthAdjust="spacing" textLength="250" x="844.5" y="649.081">journalpostMedSaksmappeMinimum</text><line style="stroke:#181818;stroke-width:0.5;" x1="816.5" x2="1096.5" y1="659.79" y2="659.79"/><line style="stroke:#181818;stroke-width:0.5;" x1="816.5" x2="1096.5" y1="667.79" y2="667.79"/></g><!--class dokumentbeskrivelseMinimum--><g id="elem_dokumentbeskrivelseMinimum"><rect fill="#F1F1F1" height="48" id="dokumentbeskrivelseMinimum" rx="2.5" ry="2.5" style="stroke:#181818;stroke-width:0.5;" width="242" x="1132.5" y="627.79"/><ellipse cx="1147.5" cy="643.79" fill="#ADD1B2" rx="11" ry="11" style="stroke:#181818;stroke-width:1.0;"/><path d="M1149.9731,649.9331 Q1149.3921,650.2319 1148.7529,650.3813 Q1148.1138,650.5307 1147.4082,650.5307 Q1144.9014,650.5307 1143.5815,648.8789 Q1142.2617,647.227 1142.2617,644.1059 Q1142.2617,640.9765 1143.5815,639.3247 Q1144.9014,637.6728 1147.4082,637.6728 Q1148.1138,637.6728 1148.7612,637.8222 Q1149.4087,637.9716 1149.9731,638.2705 L1149.9731,640.9931 Q1149.3423,640.4121 1148.7488,640.1423 Q1148.1553,639.8725 1147.5244,639.8725 Q1146.1797,639.8725 1145.4949,640.9392 Q1144.8101,642.0058 1144.8101,644.1059 Q1144.8101,646.1977 1145.4949,647.2644 Q1146.1797,648.331 1147.5244,648.331 Q1148.1553,648.331 1148.7488,648.0612 Q1149.3423,647.7915 1149.9731,647.2104 Z " fill="#000000"/><text fill="#000000" font-family="sans-serif" font-size="14" lengthAdjust="spacing" textLength="210" x="1161.5" y="649.081">dokumentbeskrivelseMinimum</text><line style="stroke:#181818;stroke-width:0.5;" x1="1133.5" x2="1373.5" y1="659.79" y2="659.79"/><line style="stroke:#181818;stroke-width:0.5;" x1="1133.5" x2="1373.5" y1="667.79" y2="667.79"/></g><!--class resultatTypeMinimum--><g id="elem_resultatTypeMinimum"><rect codeLine="21" fill="#F1F1F1" height="146.9297" id="resultatTypeMinimum" rx="2.5" ry="2.5" style="stroke:#181818;stroke-width:0.5;" width="403" x="761" y="213.93"/><ellipse cx="883.75" cy="229.93" fill="#EB937F" rx="11" ry="11" style="stroke:#181818;stroke-width:1.0;"/><path d="M887.3643,236.43 L879.6445,236.43 L879.6445,224.0369 L887.3643,224.0369 L887.3643,226.1951 L882.0933,226.1951 L882.0933,228.868 L886.8662,228.868 L886.8662,231.0262 L882.0933,231.0262 L882.0933,234.2718 L887.3643,234.2718 Z " fill="#000000"/><text fill="#000000" font-family="sans-serif" font-size="14" lengthAdjust="spacing" textLength="149" x="904.25" y="235.221">resultatTypeMinimum</text><line style="stroke:#181818;stroke-width:0.5;" x1="762" x2="1163" y1="245.93" y2="245.93"/><text fill="#000000" font-family="sans-serif" font-size="14" lengthAdjust="spacing" textLength="113" x="767" y="263.4652">mappe = mappe</text><text fill="#000000" font-family="sans-serif" font-size="14" lengthAdjust="spacing" textLength="173" x="767" y="279.9534">saksmappe = saksmappe</text><text fill="#000000" font-family="sans-serif" font-size="14" lengthAdjust="spacing" textLength="181" x="767" y="296.4417">registrering = registrering</text><text fill="#000000" font-family="sans-serif" font-size="14" lengthAdjust="spacing" textLength="177" x="767" y="312.93">journalpost = journalpost</text><text fill="#000000" font-family="sans-serif" font-size="14" lengthAdjust="spacing" textLength="391" x="767" y="329.4183">journalpostMedSaksmappe = journalpostMedSaksmappe</text><text fill="#000000" font-family="sans-serif" font-size="14" lengthAdjust="spacing" textLength="311" x="767" y="345.9066">dokumentbeskrivelse = dokumentbeskrivelse</text><line style="stroke:#181818;stroke-width:0.5;" x1="762" x2="1163" y1="352.8597" y2="352.8597"/></g><!--class sokeresultatMinimum--><g id="elem_sokeresultatMinimum"><rect codeLine="29" fill="#F1F1F1" height="146.9297" id="sokeresultatMinimum" rx="2.5" ry="2.5" style="stroke:#181818;stroke-width:0.5;" width="268" x="640.5" y="7"/><ellipse cx="696.25" cy="23" fill="#ADD1B2" rx="11" ry="11" style="stroke:#181818;stroke-width:1.0;"/><path d="M698.7231,29.1431 Q698.1421,29.4419 697.5029,29.5913 Q696.8638,29.7407 696.1582,29.7407 Q693.6514,29.7407 692.3315,28.0889 Q691.0117,26.437 691.0117,23.3159 Q691.0117,20.1865 692.3315,18.5347 Q693.6514,16.8828 696.1582,16.8828 Q696.8638,16.8828 697.5112,17.0322 Q698.1587,17.1816 698.7231,17.4805 L698.7231,20.2031 Q698.0923,19.6221 697.4988,19.3523 Q696.9053,19.0825 696.2744,19.0825 Q694.9297,19.0825 694.2449,20.1492 Q693.5601,21.2158 693.5601,23.3159 Q693.5601,25.4077 694.2449,26.4744 Q694.9297,27.541 696.2744,27.541 Q696.9053,27.541 697.4988,27.2712 Q698.0923,27.0015 698.7231,26.4204 Z " fill="#000000"/><text fill="#000000" font-family="sans-serif" font-size="14" lengthAdjust="spacing" textLength="148" x="716.75" y="28.291">sokeresultatMinimum</text><line style="stroke:#181818;stroke-width:0.5;" x1="641.5" x2="907.5" y1="39" y2="39"/><ellipse cx="651.5" cy="52.7441" fill="none" rx="3" ry="3" style="stroke:#038048;stroke-width:1.0;"/><text fill="#000000" font-family="sans-serif" font-size="14" lengthAdjust="spacing" textLength="99" x="660.5" y="56.5352">system : string</text><ellipse cx="651.5" cy="69.2324" fill="none" rx="3" ry="3" style="stroke:#038048;stroke-width:1.0;"/><text fill="#000000" font-family="sans-serif" font-size="14" lengthAdjust="spacing" textLength="59" x="660.5" y="73.0234">take : int</text><ellipse cx="651.5" cy="85.7207" fill="none" rx="3" ry="3" style="stroke:#038048;stroke-width:1.0;"/><text fill="#000000" font-family="sans-serif" font-size="14" lengthAdjust="spacing" textLength="58" x="660.5" y="89.5117">skip : int</text><ellipse cx="651.5" cy="102.209" fill="none" rx="3" ry="3" style="stroke:#038048;stroke-width:1.0;"/><text fill="#000000" font-family="sans-serif" font-size="14" lengthAdjust="spacing" textLength="69" x="660.5" y="106">count : int</text><ellipse cx="651.5" cy="118.6973" fill="none" rx="3" ry="3" style="stroke:#038048;stroke-width:1.0;"/><text fill="#000000" font-family="sans-serif" font-size="14" lengthAdjust="spacing" textLength="242" x="660.5" y="122.4883">resultattype : resultatTypeMinimum</text><ellipse cx="651.5" cy="135.1855" fill="none" rx="3" ry="3" style="stroke:#038048;stroke-width:1.0;"/><text fill="#000000" font-family="sans-serif" font-size="14" lengthAdjust="spacing" textLength="242" x="660.5" y="138.9766">resultatListe : resultatListeMinimum</text><line style="stroke:#181818;stroke-width:0.5;" x1="641.5" x2="907.5" y1="145.9297" y2="145.9297"/></g><!--link resultatListeMinimum to resultatMinimum--><g id="link_resultatListeMinimum_resultatMinimum"><path codeLine="5" d="M586.5,319.97 C586.5,346.69 586.5,386.03 586.5,420.48 " fill="none" id="resultatListeMinimum-resultatMinimum" style="stroke:#181818;stroke-width:1.0;"/></g><!--link resultatMinimum to mappeMinimum--><g id="link_resultatMinimum_mappeMinimum"><path codeLine="14" d="M349.23,567.94 C276.87,590.08 202.68,612.79 150.31,628.81 " fill="none" id="resultatMinimum-mappeMinimum" style="stroke:#181818;stroke-width:1.0;"/></g><!--link resultatMinimum to saksmappeMinimum--><g id="link_resultatMinimum_saksmappeMinimum"><path codeLine="15" d="M438.68,568.28 C395.37,589.66 351.07,611.52 318.96,627.37 " fill="none" id="resultatMinimum-saksmappeMinimum" style="stroke:#181818;stroke-width:1.0;"/></g><!--link resultatMinimum to registreringMinimum--><g id="link_resultatMinimum_registreringMinimum"><path codeLine="16" d="M537.38,568.05 C522.86,589.55 508,611.55 497.26,627.46 " fill="none" id="resultatMinimum-registreringMinimum" style="stroke:#181818;stroke-width:1.0;"/></g><!--link resultatMinimum to journalpostMinimum--><g id="link_resultatMinimum_journalpostMinimum"><path codeLine="17" d="M636.09,568.05 C650.74,589.55 665.75,611.55 676.59,627.46 " fill="none" id="resultatMinimum-journalpostMinimum" style="stroke:#181818;stroke-width:1.0;"/></g><!--link resultatMinimum to journalpostMedSaksmappeMinimum--><g id="link_resultatMinimum_journalpostMedSaksmappeMinimum"><path codeLine="18" d="M760.12,568.28 C811.01,589.66 863.04,611.52 900.75,627.37 " fill="none" id="resultatMinimum-journalpostMedSaksmappeMinimum" style="stroke:#181818;stroke-width:1.0;"/></g><!--link resultatMinimum to dokumentbeskrivelseMinimum--><g id="link_resultatMinimum_dokumentbeskrivelseMinimum"><path codeLine="19" d="M823.54,550.57 C936.62,576.93 1065.89,607.06 1152.91,627.34 " fill="none" id="resultatMinimum-dokumentbeskrivelseMinimum" style="stroke:#181818;stroke-width:1.0;"/></g><!--link sokeresultatMinimum to resultatTypeMinimum--><g id="link_sokeresultatMinimum_resultatTypeMinimum"><path codeLine="37" d="M841.31,154.29 C858.94,173.51 877.96,194.24 895.59,213.46 " fill="none" id="sokeresultatMinimum-resultatTypeMinimum" style="stroke:#181818;stroke-width:1.0;"/></g><!--link sokeresultatMinimum to resultatListeMinimum--><g id="link_sokeresultatMinimum_resultatListeMinimum"><path codeLine="38" d="M707.69,154.29 C676.13,188.69 640.1,227.97 615.59,254.69 " fill="none" id="sokeresultatMinimum-resultatListeMinimum" style="stroke:#181818;stroke-width:1.0;"/></g><!--SRC=[XLDBRiGW3DrpYkn7Su5AtA2pQdTL5pHZZIW980oLegftBo6bCTJfi07xFN_mPvmKuX00qnHLVDGOuQAjdjCyV8eXdrF5glfXw3Glh-9Bi1xEvvuhnYPU5sfMtaCEKEvgKH1K1Ylw-suO0MuvT82WxQtak8iDxzsbODNa7SPC8z8HwmBN9nBz06cihywa6Mny0pH1Vy24goMZhLPx_KZf6hyC_gSE38Sh0qDZod27nNoTiVZdom9ivbIRvyLtSxVLMsvtqUmp8FTtGPhUoqOiEEsvf5AFDhsMHqYnudeiEMrkxZRqw0mS33ukUMlMrSffrwHFKPbrRBIDFoIZFPL7bsoaYkeyBcLIcTgslBAhX4XtDsVDvKischgzGsqSVmC0]--></g></svg>