<?xml version="1.0" encoding="us-ascii" standalone="no"?><svg xmlns="http://www.w3.org/2000/svg" xmlns:xlink="http://www.w3.org/1999/xlink" contentStyleType="text/css" height="384px" preserveAspectRatio="none" style="width:864px;height:384px;background:#FFFFFF;" version="1.1" viewBox="0 0 864 384" width="864px" zoomAndPan="magnify"><defs/><g><!--class resultatListeMinimum--><g id="elem_resultatListeMinimum"><rect codeLine="2" fill="#F1F1F1" height="64.4883" id="resultatListeMinimum" rx="2.5" ry="2.5" style="stroke:#181818;stroke-width:0.5;" width="280" x="68.5" y="48.22"/><ellipse cx="130.75" cy="64.22" fill="#ADD1B2" rx="11" ry="11" style="stroke:#181818;stroke-width:1.0;"/><path d="M133.2231,70.3631 Q132.6421,70.6619 132.0029,70.8113 Q131.3638,70.9607 130.6582,70.9607 Q128.1514,70.9607 126.8315,69.3089 Q125.5117,67.657 125.5117,64.5359 Q125.5117,61.4065 126.8315,59.7547 Q128.1514,58.1028 130.6582,58.1028 Q131.3638,58.1028 132.0112,58.2522 Q132.6587,58.4016 133.2231,58.7005 L133.2231,61.4231 Q132.5923,60.8421 131.9988,60.5723 Q131.4053,60.3025 130.7744,60.3025 Q129.4297,60.3025 128.7449,61.3692 Q128.0601,62.4358 128.0601,64.5359 Q128.0601,66.6277 128.7449,67.6944 Q129.4297,68.761 130.7744,68.761 Q131.4053,68.761 131.9988,68.4912 Q132.5923,68.2215 133.2231,67.6404 Z " fill="#000000"/><text fill="#000000" font-family="sans-serif" font-size="14" lengthAdjust="spacing" textLength="147" x="151.25" y="69.511">resultatListeMinimum</text><line style="stroke:#181818;stroke-width:0.5;" x1="69.5" x2="347.5" y1="80.22" y2="80.22"/><ellipse cx="79.5" cy="93.9641" fill="none" rx="3" ry="3" style="stroke:#038048;stroke-width:1.0;"/><text fill="#000000" font-family="sans-serif" font-size="14" lengthAdjust="spacing" textLength="254" x="88.5" y="97.7552">resultatMinimum : resultatMinimum[]</text><line style="stroke:#181818;stroke-width:0.5;" x1="69.5" x2="347.5" y1="104.7083" y2="104.7083"/></g><!--class resultatMinimum--><g id="elem_resultatMinimum"><rect codeLine="5" fill="#F1F1F1" height="146.9297" id="resultatMinimum" rx="2.5" ry="2.5" style="stroke:#181818;stroke-width:0.5;" width="474" x="383.5" y="7"/><ellipse cx="558.25" cy="23" fill="#ADD1B2" rx="11" ry="11" style="stroke:#181818;stroke-width:1.0;"/><path d="M560.7231,29.1431 Q560.1421,29.4419 559.5029,29.5913 Q558.8638,29.7407 558.1582,29.7407 Q555.6514,29.7407 554.3315,28.0889 Q553.0117,26.437 553.0117,23.3159 Q553.0117,20.1865 554.3315,18.5347 Q555.6514,16.8828 558.1582,16.8828 Q558.8638,16.8828 559.5112,17.0322 Q560.1587,17.1816 560.7231,17.4805 L560.7231,20.2031 Q560.0923,19.6221 559.4988,19.3523 Q558.9053,19.0825 558.2744,19.0825 Q556.9297,19.0825 556.2449,20.1492 Q555.5601,21.2158 555.5601,23.3159 Q555.5601,25.4077 556.2449,26.4744 Q556.9297,27.541 558.2744,27.541 Q558.9053,27.541 559.4988,27.2712 Q560.0923,27.0015 560.7231,26.4204 Z " fill="#000000"/><text fill="#000000" font-family="sans-serif" font-size="14" lengthAdjust="spacing" textLength="116" x="578.75" y="28.291">resultatMinimum</text><line style="stroke:#181818;stroke-width:0.5;" x1="384.5" x2="856.5" y1="39" y2="39"/><ellipse cx="394.5" cy="52.7441" fill="none" rx="3" ry="3" style="stroke:#038048;stroke-width:1.0;"/><text fill="#000000" font-family="sans-serif" font-size="14" lengthAdjust="spacing" textLength="170" x="403.5" y="56.5352">mappe : mappeMinimum</text><ellipse cx="394.5" cy="69.2324" fill="none" rx="3" ry="3" style="stroke:#038048;stroke-width:1.0;"/><text fill="#000000" font-family="sans-serif" font-size="14" lengthAdjust="spacing" textLength="230" x="403.5" y="73.0234">saksmappe : saksmappeMinimum</text><ellipse cx="394.5" cy="85.7207" fill="none" rx="3" ry="3" style="stroke:#038048;stroke-width:1.0;"/><text fill="#000000" font-family="sans-serif" font-size="14" lengthAdjust="spacing" textLength="238" x="403.5" y="89.5117">registrering : registreringMinimum</text><ellipse cx="394.5" cy="102.209" fill="none" rx="3" ry="3" style="stroke:#038048;stroke-width:1.0;"/><text fill="#000000" font-family="sans-serif" font-size="14" lengthAdjust="spacing" textLength="234" x="403.5" y="106">journalpost : journalpostMinimum</text><ellipse cx="394.5" cy="118.6973" fill="none" rx="3" ry="3" style="stroke:#038048;stroke-width:1.0;"/><text fill="#000000" font-family="sans-serif" font-size="14" lengthAdjust="spacing" textLength="448" x="403.5" y="122.4883">journalpostMedSaksmappe : journalpostMedSaksmappeMinimum</text><ellipse cx="394.5" cy="135.1855" fill="none" rx="3" ry="3" style="stroke:#038048;stroke-width:1.0;"/><text fill="#000000" font-family="sans-serif" font-size="14" lengthAdjust="spacing" textLength="368" x="403.5" y="138.9766">dokumentbeskrivelse : dokumentbeskrivelseMinimum</text><line style="stroke:#181818;stroke-width:0.5;" x1="384.5" x2="856.5" y1="145.9297" y2="145.9297"/></g><!--class resultatTypeMinimum--><g id="elem_resultatTypeMinimum"><rect codeLine="13" fill="#F1F1F1" height="146.9297" id="resultatTypeMinimum" rx="2.5" ry="2.5" style="stroke:#181818;stroke-width:0.5;" width="403" x="7" y="222.18"/><ellipse cx="129.75" cy="238.18" fill="#EB937F" rx="11" ry="11" style="stroke:#181818;stroke-width:1.0;"/><path d="M133.3643,244.68 L125.6445,244.68 L125.6445,232.2869 L133.3643,232.2869 L133.3643,234.4451 L128.0933,234.4451 L128.0933,237.118 L132.8662,237.118 L132.8662,239.2762 L128.0933,239.2762 L128.0933,242.5218 L133.3643,242.5218 Z " fill="#000000"/><text fill="#000000" font-family="sans-serif" font-size="14" lengthAdjust="spacing" textLength="149" x="150.25" y="243.471">resultatTypeMinimum</text><line style="stroke:#181818;stroke-width:0.5;" x1="8" x2="409" y1="254.18" y2="254.18"/><text fill="#000000" font-family="sans-serif" font-size="14" lengthAdjust="spacing" textLength="113" x="13" y="271.7152">mappe = mappe</text><text fill="#000000" font-family="sans-serif" font-size="14" lengthAdjust="spacing" textLength="173" x="13" y="288.2034">saksmappe = saksmappe</text><text fill="#000000" font-family="sans-serif" font-size="14" lengthAdjust="spacing" textLength="181" x="13" y="304.6917">registrering = registrering</text><text fill="#000000" font-family="sans-serif" font-size="14" lengthAdjust="spacing" textLength="177" x="13" y="321.18">journalpost = journalpost</text><text fill="#000000" font-family="sans-serif" font-size="14" lengthAdjust="spacing" textLength="391" x="13" y="337.6683">journalpostMedSaksmappe = journalpostMedSaksmappe</text><text fill="#000000" font-family="sans-serif" font-size="14" lengthAdjust="spacing" textLength="311" x="13" y="354.1566">dokumentbeskrivelse = dokumentbeskrivelse</text><line style="stroke:#181818;stroke-width:0.5;" x1="8" x2="409" y1="361.1097" y2="361.1097"/></g><!--class sokeresultatMinimum--><g id="elem_sokeresultatMinimum"><rect codeLine="21" fill="#F1F1F1" height="163.418" id="sokeresultatMinimum" rx="2.5" ry="2.5" style="stroke:#181818;stroke-width:0.5;" width="268" x="444.5" y="213.93"/><ellipse cx="500.25" cy="229.93" fill="#ADD1B2" rx="11" ry="11" style="stroke:#181818;stroke-width:1.0;"/><path d="M502.7231,236.0731 Q502.1421,236.3719 501.5029,236.5213 Q500.8638,236.6707 500.1582,236.6707 Q497.6514,236.6707 496.3315,235.0189 Q495.0117,233.367 495.0117,230.2459 Q495.0117,227.1165 496.3315,225.4647 Q497.6514,223.8128 500.1582,223.8128 Q500.8638,223.8128 501.5112,223.9622 Q502.1587,224.1116 502.7231,224.4105 L502.7231,227.1331 Q502.0923,226.5521 501.4988,226.2823 Q500.9053,226.0125 500.2744,226.0125 Q498.9297,226.0125 498.2449,227.0792 Q497.5601,228.1458 497.5601,230.2459 Q497.5601,232.3377 498.2449,233.4044 Q498.9297,234.471 500.2744,234.471 Q500.9053,234.471 501.4988,234.2012 Q502.0923,233.9315 502.7231,233.3504 Z " fill="#000000"/><text fill="#000000" font-family="sans-serif" font-size="14" lengthAdjust="spacing" textLength="148" x="520.75" y="235.221">sokeresultatMinimum</text><line style="stroke:#181818;stroke-width:0.5;" x1="445.5" x2="711.5" y1="245.93" y2="245.93"/><ellipse cx="455.5" cy="259.6741" fill="none" rx="3" ry="3" style="stroke:#038048;stroke-width:1.0;"/><text fill="#000000" font-family="sans-serif" font-size="14" lengthAdjust="spacing" textLength="99" x="464.5" y="263.4652">system : string</text><ellipse cx="455.5" cy="276.1624" fill="none" rx="3" ry="3" style="stroke:#038048;stroke-width:1.0;"/><text fill="#000000" font-family="sans-serif" font-size="14" lengthAdjust="spacing" textLength="141" x="464.5" y="279.9534">tidspunkt : dateTime</text><ellipse cx="455.5" cy="292.6507" fill="none" rx="3" ry="3" style="stroke:#038048;stroke-width:1.0;"/><text fill="#000000" font-family="sans-serif" font-size="14" lengthAdjust="spacing" textLength="59" x="464.5" y="296.4417">take : int</text><ellipse cx="455.5" cy="309.139" fill="none" rx="3" ry="3" style="stroke:#038048;stroke-width:1.0;"/><text fill="#000000" font-family="sans-serif" font-size="14" lengthAdjust="spacing" textLength="58" x="464.5" y="312.93">skip : int</text><ellipse cx="455.5" cy="325.6273" fill="none" rx="3" ry="3" style="stroke:#038048;stroke-width:1.0;"/><text fill="#000000" font-family="sans-serif" font-size="14" lengthAdjust="spacing" textLength="69" x="464.5" y="329.4183">count : int</text><ellipse cx="455.5" cy="342.1155" fill="none" rx="3" ry="3" style="stroke:#038048;stroke-width:1.0;"/><text fill="#000000" font-family="sans-serif" font-size="14" lengthAdjust="spacing" textLength="242" x="464.5" y="345.9066">resultattype : resultatTypeMinimum</text><ellipse cx="455.5" cy="358.6038" fill="none" rx="3" ry="3" style="stroke:#038048;stroke-width:1.0;"/><text fill="#000000" font-family="sans-serif" font-size="14" lengthAdjust="spacing" textLength="242" x="464.5" y="362.3948">resultatListe : resultatListeMinimum</text><line style="stroke:#181818;stroke-width:0.5;" x1="445.5" x2="711.5" y1="369.348" y2="369.348"/></g><!--SRC=[TL9BhiCW3Dpd5Ddt1fMuGRjwtLLlmKkioe_m4JQLegftBo6XWIXX0_RCO3Eu6oHHwu72m98lI0nNDAY3RbzD6zSfOpbzRZUP-s_pRhhgdiqLMZe7KPZs1PiHaeeo-ZrN30-Fs9G7Z-QHQgzXnVktmHivE4iSQKLqnBf2_rDKFq0gTMzLq63u3qXvVC90at8dcrNl1aoq8Tjo6zt6tRcwcFUKMHqHwpaXbHEY2XDUEY3AQ8jMBnT7I5BjlLZiPRyZG5R1mHZG6ATh6g3OTcxwnDYJ2qPDlzPBXXjgM12f9dlHy29NwCguiy5mcSXbUKm_kkDwpKlJNX3BwO_l-G00]--></g></svg>