<?xml version="1.0" encoding="us-ascii" standalone="no"?><svg xmlns="http://www.w3.org/2000/svg" xmlns:xlink="http://www.w3.org/1999/xlink" contentStyleType="text/css" height="351px" preserveAspectRatio="none" style="width:722px;height:351px;background:#FFFFFF;" version="1.1" viewBox="0 0 722 351" width="722px" zoomAndPan="magnify"><defs/><g><!--class resultatListeNoekler--><g id="elem_resultatListeNoekler"><rect codeLine="2" fill="#F1F1F1" height="64.4883" id="resultatListeNoekler" rx="2.5" ry="2.5" style="stroke:#181818;stroke-width:0.5;" width="258" x="39.5" y="39.98"/><ellipse cx="96.25" cy="55.98" fill="#ADD1B2" rx="11" ry="11" style="stroke:#181818;stroke-width:1.0;"/><path d="M98.7231,62.1231 Q98.1421,62.4219 97.5029,62.5713 Q96.8638,62.7207 96.1582,62.7207 Q93.6514,62.7207 92.3315,61.0689 Q91.0117,59.417 91.0117,56.2959 Q91.0117,53.1665 92.3315,51.5147 Q93.6514,49.8628 96.1582,49.8628 Q96.8638,49.8628 97.5112,50.0122 Q98.1587,50.1616 98.7231,50.4605 L98.7231,53.1831 Q98.0923,52.6021 97.4988,52.3323 Q96.9053,52.0625 96.2744,52.0625 Q94.9297,52.0625 94.2449,53.1292 Q93.5601,54.1958 93.5601,56.2959 Q93.5601,58.3877 94.2449,59.4544 Q94.9297,60.521 96.2744,60.521 Q96.9053,60.521 97.4988,60.2512 Q98.0923,59.9815 98.7231,59.4004 Z " fill="#000000"/><text fill="#000000" font-family="sans-serif" font-size="14" lengthAdjust="spacing" textLength="136" x="116.75" y="61.271">resultatListeNoekler</text><line style="stroke:#181818;stroke-width:0.5;" x1="40.5" x2="296.5" y1="71.98" y2="71.98"/><ellipse cx="50.5" cy="85.7241" fill="none" rx="3" ry="3" style="stroke:#038048;stroke-width:1.0;"/><text fill="#000000" font-family="sans-serif" font-size="14" lengthAdjust="spacing" textLength="232" x="59.5" y="89.5152">resultatNoekler : resultatNoekler[]</text><line style="stroke:#181818;stroke-width:0.5;" x1="40.5" x2="296.5" y1="96.4683" y2="96.4683"/></g><!--class resultatNoekler--><g id="elem_resultatNoekler"><rect codeLine="5" fill="#F1F1F1" height="130.4414" id="resultatNoekler" rx="2.5" ry="2.5" style="stroke:#181818;stroke-width:0.5;" width="383" x="332" y="7"/><ellipse cx="466.75" cy="23" fill="#ADD1B2" rx="11" ry="11" style="stroke:#181818;stroke-width:1.0;"/><path d="M469.2231,29.1431 Q468.6421,29.4419 468.0029,29.5913 Q467.3638,29.7407 466.6582,29.7407 Q464.1514,29.7407 462.8315,28.0889 Q461.5117,26.437 461.5117,23.3159 Q461.5117,20.1865 462.8315,18.5347 Q464.1514,16.8828 466.6582,16.8828 Q467.3638,16.8828 468.0112,17.0322 Q468.6587,17.1816 469.2231,17.4805 L469.2231,20.2031 Q468.5923,19.6221 467.9988,19.3523 Q467.4053,19.0825 466.7744,19.0825 Q465.4297,19.0825 464.7449,20.1492 Q464.0601,21.2158 464.0601,23.3159 Q464.0601,25.4077 464.7449,26.4744 Q465.4297,27.541 466.7744,27.541 Q467.4053,27.541 467.9988,27.2712 Q468.5923,27.0015 469.2231,26.4204 Z " fill="#000000"/><text fill="#000000" font-family="sans-serif" font-size="14" lengthAdjust="spacing" textLength="105" x="487.25" y="28.291">resultatNoekler</text><line style="stroke:#181818;stroke-width:0.5;" x1="333" x2="714" y1="39" y2="39"/><ellipse cx="343" cy="52.7441" fill="none" rx="3" ry="3" style="stroke:#038048;stroke-width:1.0;"/><text fill="#000000" font-family="sans-serif" font-size="14" lengthAdjust="spacing" textLength="159" x="352" y="56.5352">mappe : mappeNoekler</text><ellipse cx="343" cy="69.2324" fill="none" rx="3" ry="3" style="stroke:#038048;stroke-width:1.0;"/><text fill="#000000" font-family="sans-serif" font-size="14" lengthAdjust="spacing" textLength="219" x="352" y="73.0234">saksmappe : saksmappeNoekler</text><ellipse cx="343" cy="85.7207" fill="none" rx="3" ry="3" style="stroke:#038048;stroke-width:1.0;"/><text fill="#000000" font-family="sans-serif" font-size="14" lengthAdjust="spacing" textLength="227" x="352" y="89.5117">registrering : registreringNoekler</text><ellipse cx="343" cy="102.209" fill="none" rx="3" ry="3" style="stroke:#038048;stroke-width:1.0;"/><text fill="#000000" font-family="sans-serif" font-size="14" lengthAdjust="spacing" textLength="223" x="352" y="106">journalpost : journalpostNoekler</text><ellipse cx="343" cy="118.6973" fill="none" rx="3" ry="3" style="stroke:#038048;stroke-width:1.0;"/><text fill="#000000" font-family="sans-serif" font-size="14" lengthAdjust="spacing" textLength="357" x="352" y="122.4883">dokumentbeskrivelse : dokumentbeskrivelseNoekler</text><line style="stroke:#181818;stroke-width:0.5;" x1="333" x2="714" y1="129.4414" y2="129.4414"/></g><!--class resultatTypeNoekler--><g id="elem_resultatTypeNoekler"><rect codeLine="12" fill="#F1F1F1" height="130.4414" id="resultatTypeNoekler" rx="2.5" ry="2.5" style="stroke:#181818;stroke-width:0.5;" width="323" x="7" y="205.68"/><ellipse cx="95.25" cy="221.68" fill="#EB937F" rx="11" ry="11" style="stroke:#181818;stroke-width:1.0;"/><path d="M98.8643,228.18 L91.1445,228.18 L91.1445,215.7869 L98.8643,215.7869 L98.8643,217.9451 L93.5933,217.9451 L93.5933,220.618 L98.3662,220.618 L98.3662,222.7762 L93.5933,222.7762 L93.5933,226.0218 L98.8643,226.0218 Z " fill="#000000"/><text fill="#000000" font-family="sans-serif" font-size="14" lengthAdjust="spacing" textLength="138" x="115.75" y="226.971">resultatTypeNoekler</text><line style="stroke:#181818;stroke-width:0.5;" x1="8" x2="329" y1="237.68" y2="237.68"/><text fill="#000000" font-family="sans-serif" font-size="14" lengthAdjust="spacing" textLength="113" x="13" y="255.2152">mappe = mappe</text><text fill="#000000" font-family="sans-serif" font-size="14" lengthAdjust="spacing" textLength="173" x="13" y="271.7034">saksmappe = saksmappe</text><text fill="#000000" font-family="sans-serif" font-size="14" lengthAdjust="spacing" textLength="181" x="13" y="288.1917">registrering = registrering</text><text fill="#000000" font-family="sans-serif" font-size="14" lengthAdjust="spacing" textLength="177" x="13" y="304.68">journalpost = journalpost</text><text fill="#000000" font-family="sans-serif" font-size="14" lengthAdjust="spacing" textLength="311" x="13" y="321.1683">dokumentbeskrivelse = dokumentbeskrivelse</text><line style="stroke:#181818;stroke-width:0.5;" x1="8" x2="329" y1="328.1214" y2="328.1214"/></g><!--class sokeresultatNoekler--><g id="elem_sokeresultatNoekler"><rect codeLine="19" fill="#F1F1F1" height="146.9297" id="sokeresultatNoekler" rx="2.5" ry="2.5" style="stroke:#181818;stroke-width:0.5;" width="257" x="365" y="197.44"/><ellipse cx="420.75" cy="213.44" fill="#ADD1B2" rx="11" ry="11" style="stroke:#181818;stroke-width:1.0;"/><path d="M423.2231,219.5831 Q422.6421,219.8819 422.0029,220.0313 Q421.3638,220.1807 420.6582,220.1807 Q418.1514,220.1807 416.8315,218.5289 Q415.5117,216.877 415.5117,213.7559 Q415.5117,210.6265 416.8315,208.9747 Q418.1514,207.3228 420.6582,207.3228 Q421.3638,207.3228 422.0112,207.4722 Q422.6587,207.6216 423.2231,207.9205 L423.2231,210.6431 Q422.5923,210.0621 421.9988,209.7923 Q421.4053,209.5225 420.7744,209.5225 Q419.4297,209.5225 418.7449,210.5892 Q418.0601,211.6558 418.0601,213.7559 Q418.0601,215.8477 418.7449,216.9144 Q419.4297,217.981 420.7744,217.981 Q421.4053,217.981 421.9988,217.7112 Q422.5923,217.4415 423.2231,216.8604 Z " fill="#000000"/><text fill="#000000" font-family="sans-serif" font-size="14" lengthAdjust="spacing" textLength="137" x="441.25" y="218.731">sokeresultatNoekler</text><line style="stroke:#181818;stroke-width:0.5;" x1="366" x2="621" y1="229.44" y2="229.44"/><ellipse cx="376" cy="243.1841" fill="none" rx="3" ry="3" style="stroke:#038048;stroke-width:1.0;"/><text fill="#000000" font-family="sans-serif" font-size="14" lengthAdjust="spacing" textLength="99" x="385" y="246.9752">system : string</text><ellipse cx="376" cy="259.6724" fill="none" rx="3" ry="3" style="stroke:#038048;stroke-width:1.0;"/><text fill="#000000" font-family="sans-serif" font-size="14" lengthAdjust="spacing" textLength="59" x="385" y="263.4634">take : int</text><ellipse cx="376" cy="276.1607" fill="none" rx="3" ry="3" style="stroke:#038048;stroke-width:1.0;"/><text fill="#000000" font-family="sans-serif" font-size="14" lengthAdjust="spacing" textLength="58" x="385" y="279.9517">skip : int</text><ellipse cx="376" cy="292.649" fill="none" rx="3" ry="3" style="stroke:#038048;stroke-width:1.0;"/><text fill="#000000" font-family="sans-serif" font-size="14" lengthAdjust="spacing" textLength="69" x="385" y="296.44">count : int</text><ellipse cx="376" cy="309.1373" fill="none" rx="3" ry="3" style="stroke:#038048;stroke-width:1.0;"/><text fill="#000000" font-family="sans-serif" font-size="14" lengthAdjust="spacing" textLength="231" x="385" y="312.9283">resultattype : resultatTypeNoekler</text><ellipse cx="376" cy="325.6255" fill="none" rx="3" ry="3" style="stroke:#038048;stroke-width:1.0;"/><text fill="#000000" font-family="sans-serif" font-size="14" lengthAdjust="spacing" textLength="231" x="385" y="329.4166">resultatListe : resultatListeNoekler</text><line style="stroke:#181818;stroke-width:0.5;" x1="366" x2="621" y1="336.3697" y2="336.3697"/></g><!--SRC=[TL9B3i8W4Dtt5EozWGatCAxS6HTO9mr2WJ23IMDwToajBJIL3SnxR_wqMY0o3nWq2Rf89BXQK1ey-pOidbFcCdncE-J-QCQchUBiGlJ2EOYEwLwucK6XCBFhkr9uw69H7hmqNSgzcPNkROCtGZkB56M5LQbULeKU33q1bPSVq3XbFa2przY02VtQs6rmk_dCrVFvJiZM4z_UYQbwuPMP-B87Nbg9FQgT7w7hEj0g-BCI7EAc-sdgjAO_aL3JEAIXHQIaA-tM1aCba8FJa3PuCALQb_vN8Ip_Mwpw1m00]--></g></svg>