<svg xmlns="http://www.w3.org/2000/svg" xmlns:xlink="http://www.w3.org/1999/xlink" contentStyleType="text/css" height="649px" preserveAspectRatio="none" style="width:1008px;height:649px;background:#FFFFFF;" version="1.1" viewBox="0 0 1008 649" width="1008px" zoomAndPan="magnify"><defs/><g><!--class resultatListeNoekler--><g id="elem_resultatListeNoekler"><rect codeLine="2" fill="#F1F1F1" height="64.4883" id="resultatListeNoekler" rx="2.5" ry="2.5" style="stroke:#181818;stroke-width:0.5;" width="258" x="325" y="246.9"/><ellipse cx="381.75" cy="262.9" fill="#ADD1B2" rx="11" ry="11" style="stroke:#181818;stroke-width:1.0;"/><path d="M384.2231,269.0431 Q383.6421,269.3419 383.0029,269.4913 Q382.3638,269.6407 381.6582,269.6407 Q379.1514,269.6407 377.8315,267.9889 Q376.5117,266.337 376.5117,263.2159 Q376.5117,260.0865 377.8315,258.4347 Q379.1514,256.7828 381.6582,256.7828 Q382.3638,256.7828 383.0112,256.9322 Q383.6587,257.0816 384.2231,257.3805 L384.2231,260.1031 Q383.5923,259.5221 382.9988,259.2523 Q382.4053,258.9825 381.7744,258.9825 Q380.4297,258.9825 379.7449,260.0492 Q379.0601,261.1158 379.0601,263.2159 Q379.0601,265.3077 379.7449,266.3744 Q380.4297,267.441 381.7744,267.441 Q382.4053,267.441 382.9988,267.1712 Q383.5923,266.9015 384.2231,266.3204 Z " fill="#000000"/><text fill="#000000" font-family="sans-serif" font-size="14" lengthAdjust="spacing" textLength="136" x="402.25" y="268.191">resultatListeNoekler</text><line style="stroke:#181818;stroke-width:0.5;" x1="326" x2="582" y1="278.9" y2="278.9"/><ellipse cx="336" cy="292.6441" fill="none" rx="3" ry="3" style="stroke:#038048;stroke-width:1.0;"/><text fill="#000000" font-family="sans-serif" font-size="14" lengthAdjust="spacing" textLength="232" x="345" y="296.4352">resultatNoekler : resultatNoekler[]</text><line style="stroke:#181818;stroke-width:0.5;" x1="326" x2="582" y1="303.3883" y2="303.3883"/></g><!--class resultatNoekler--><g id="elem_resultatNoekler"><rect codeLine="5" fill="#F1F1F1" height="130.4414" id="resultatNoekler" rx="2.5" ry="2.5" style="stroke:#181818;stroke-width:0.5;" width="383" x="262.5" y="404.37"/><ellipse cx="397.25" cy="420.37" fill="#ADD1B2" rx="11" ry="11" style="stroke:#181818;stroke-width:1.0;"/><path d="M399.7231,426.5131 Q399.1421,426.8119 398.5029,426.9613 Q397.8638,427.1107 397.1582,427.1107 Q394.6514,427.1107 393.3315,425.4589 Q392.0117,423.807 392.0117,420.6859 Q392.0117,417.5565 393.3315,415.9047 Q394.6514,414.2528 397.1582,414.2528 Q397.8638,414.2528 398.5112,414.4022 Q399.1587,414.5516 399.7231,414.8505 L399.7231,417.5731 Q399.0923,416.9921 398.4988,416.7223 Q397.9053,416.4525 397.2744,416.4525 Q395.9297,416.4525 395.2449,417.5192 Q394.5601,418.5858 394.5601,420.6859 Q394.5601,422.7777 395.2449,423.8444 Q395.9297,424.911 397.2744,424.911 Q397.9053,424.911 398.4988,424.6412 Q399.0923,424.3715 399.7231,423.7904 Z " fill="#000000"/><text fill="#000000" font-family="sans-serif" font-size="14" lengthAdjust="spacing" textLength="105" x="417.75" y="425.661">resultatNoekler</text><line style="stroke:#181818;stroke-width:0.5;" x1="263.5" x2="644.5" y1="436.37" y2="436.37"/><ellipse cx="273.5" cy="450.1141" fill="none" rx="3" ry="3" style="stroke:#038048;stroke-width:1.0;"/><text fill="#000000" font-family="sans-serif" font-size="14" lengthAdjust="spacing" textLength="159" x="282.5" y="453.9052">mappe : mappeNoekler</text><ellipse cx="273.5" cy="466.6024" fill="none" rx="3" ry="3" style="stroke:#038048;stroke-width:1.0;"/><text fill="#000000" font-family="sans-serif" font-size="14" lengthAdjust="spacing" textLength="219" x="282.5" y="470.3934">saksmappe : saksmappeNoekler</text><ellipse cx="273.5" cy="483.0907" fill="none" rx="3" ry="3" style="stroke:#038048;stroke-width:1.0;"/><text fill="#000000" font-family="sans-serif" font-size="14" lengthAdjust="spacing" textLength="227" x="282.5" y="486.8817">registrering : registreringNoekler</text><ellipse cx="273.5" cy="499.579" fill="none" rx="3" ry="3" style="stroke:#038048;stroke-width:1.0;"/><text fill="#000000" font-family="sans-serif" font-size="14" lengthAdjust="spacing" textLength="223" x="282.5" y="503.37">journalpost : journalpostNoekler</text><ellipse cx="273.5" cy="516.0673" fill="none" rx="3" ry="3" style="stroke:#038048;stroke-width:1.0;"/><text fill="#000000" font-family="sans-serif" font-size="14" lengthAdjust="spacing" textLength="357" x="282.5" y="519.8583">dokumentbeskrivelse : dokumentbeskrivelseNoekler</text><line style="stroke:#181818;stroke-width:0.5;" x1="263.5" x2="644.5" y1="526.8114" y2="526.8114"/></g><!--class resultatTypeNoekler--><g id="elem_resultatTypeNoekler"><rect codeLine="12" fill="#F1F1F1" height="130.4414" id="resultatTypeNoekler" rx="2.5" ry="2.5" style="stroke:#181818;stroke-width:0.5;" width="323" x="617.5" y="213.93"/><ellipse cx="705.75" cy="229.93" fill="#EB937F" rx="11" ry="11" style="stroke:#181818;stroke-width:1.0;"/><path d="M709.3643,236.43 L701.6445,236.43 L701.6445,224.0369 L709.3643,224.0369 L709.3643,226.1951 L704.0933,226.1951 L704.0933,228.868 L708.8662,228.868 L708.8662,231.0262 L704.0933,231.0262 L704.0933,234.2718 L709.3643,234.2718 Z " fill="#000000"/><text fill="#000000" font-family="sans-serif" font-size="14" lengthAdjust="spacing" textLength="138" x="726.25" y="235.221">resultatTypeNoekler</text><line style="stroke:#181818;stroke-width:0.5;" x1="618.5" x2="939.5" y1="245.93" y2="245.93"/><text fill="#000000" font-family="sans-serif" font-size="14" lengthAdjust="spacing" textLength="113" x="623.5" y="263.4652">mappe = mappe</text><text fill="#000000" font-family="sans-serif" font-size="14" lengthAdjust="spacing" textLength="173" x="623.5" y="279.9534">saksmappe = saksmappe</text><text fill="#000000" font-family="sans-serif" font-size="14" lengthAdjust="spacing" textLength="181" x="623.5" y="296.4417">registrering = registrering</text><text fill="#000000" font-family="sans-serif" font-size="14" lengthAdjust="spacing" textLength="177" x="623.5" y="312.93">journalpost = journalpost</text><text fill="#000000" font-family="sans-serif" font-size="14" lengthAdjust="spacing" textLength="311" x="623.5" y="329.4183">dokumentbeskrivelse = dokumentbeskrivelse</text><line style="stroke:#181818;stroke-width:0.5;" x1="618.5" x2="939.5" y1="336.3714" y2="336.3714"/></g><!--class sokeresultatNoekler--><g id="elem_sokeresultatNoekler"><rect codeLine="19" fill="#F1F1F1" height="146.9297" id="sokeresultatNoekler" rx="2.5" ry="2.5" style="stroke:#181818;stroke-width:0.5;" width="257" x="487.5" y="7"/><ellipse cx="543.25" cy="23" fill="#ADD1B2" rx="11" ry="11" style="stroke:#181818;stroke-width:1.0;"/><path d="M545.7231,29.1431 Q545.1421,29.4419 544.5029,29.5913 Q543.8638,29.7407 543.1582,29.7407 Q540.6514,29.7407 539.3315,28.0889 Q538.0117,26.437 538.0117,23.3159 Q538.0117,20.1865 539.3315,18.5347 Q540.6514,16.8828 543.1582,16.8828 Q543.8638,16.8828 544.5112,17.0322 Q545.1587,17.1816 545.7231,17.4805 L545.7231,20.2031 Q545.0923,19.6221 544.4988,19.3523 Q543.9053,19.0825 543.2744,19.0825 Q541.9297,19.0825 541.2449,20.1492 Q540.5601,21.2158 540.5601,23.3159 Q540.5601,25.4077 541.2449,26.4744 Q541.9297,27.541 543.2744,27.541 Q543.9053,27.541 544.4988,27.2712 Q545.0923,27.0015 545.7231,26.4204 Z " fill="#000000"/><text fill="#000000" font-family="sans-serif" font-size="14" lengthAdjust="spacing" textLength="137" x="563.75" y="28.291">sokeresultatNoekler</text><line style="stroke:#181818;stroke-width:0.5;" x1="488.5" x2="743.5" y1="39" y2="39"/><ellipse cx="498.5" cy="52.7441" fill="none" rx="3" ry="3" style="stroke:#038048;stroke-width:1.0;"/><text fill="#000000" font-family="sans-serif" font-size="14" lengthAdjust="spacing" textLength="99" x="507.5" y="56.5352">system : string</text><ellipse cx="498.5" cy="69.2324" fill="none" rx="3" ry="3" style="stroke:#038048;stroke-width:1.0;"/><text fill="#000000" font-family="sans-serif" font-size="14" lengthAdjust="spacing" textLength="59" x="507.5" y="73.0234">take : int</text><ellipse cx="498.5" cy="85.7207" fill="none" rx="3" ry="3" style="stroke:#038048;stroke-width:1.0;"/><text fill="#000000" font-family="sans-serif" font-size="14" lengthAdjust="spacing" textLength="58" x="507.5" y="89.5117">skip : int</text><ellipse cx="498.5" cy="102.209" fill="none" rx="3" ry="3" style="stroke:#038048;stroke-width:1.0;"/><text fill="#000000" font-family="sans-serif" font-size="14" lengthAdjust="spacing" textLength="69" x="507.5" y="106">count : int</text><ellipse cx="498.5" cy="118.6973" fill="none" rx="3" ry="3" style="stroke:#038048;stroke-width:1.0;"/><text fill="#000000" font-family="sans-serif" font-size="14" lengthAdjust="spacing" textLength="231" x="507.5" y="122.4883">resultattype : resultatTypeNoekler</text><ellipse cx="498.5" cy="135.1855" fill="none" rx="3" ry="3" style="stroke:#038048;stroke-width:1.0;"/><text fill="#000000" font-family="sans-serif" font-size="14" lengthAdjust="spacing" textLength="231" x="507.5" y="138.9766">resultatListe : resultatListeNoekler</text><line style="stroke:#181818;stroke-width:0.5;" x1="488.5" x2="743.5" y1="145.9297" y2="145.9297"/></g><!--class mappeNoekler--><g id="elem_mappeNoekler"><rect fill="#F1F1F1" height="48" id="mappeNoekler" rx="2.5" ry="2.5" style="stroke:#181818;stroke-width:0.5;" width="132" x="7" y="594.81"/><ellipse cx="22" cy="610.81" fill="#ADD1B2" rx="11" ry="11" style="stroke:#181818;stroke-width:1.0;"/><path d="M24.4731,616.9531 Q23.8921,617.2519 23.2529,617.4013 Q22.6138,617.5507 21.9082,617.5507 Q19.4014,617.5507 18.0815,615.8989 Q16.7617,614.247 16.7617,611.1259 Q16.7617,607.9965 18.0815,606.3447 Q19.4014,604.6928 21.9082,604.6928 Q22.6138,604.6928 23.2612,604.8422 Q23.9087,604.9916 24.4731,605.2905 L24.4731,608.0131 Q23.8423,607.4321 23.2488,607.1623 Q22.6553,606.8925 22.0244,606.8925 Q20.6797,606.8925 19.9949,607.9592 Q19.3101,609.0258 19.3101,611.1259 Q19.3101,613.2177 19.9949,614.2844 Q20.6797,615.351 22.0244,615.351 Q22.6553,615.351 23.2488,615.0812 Q23.8423,614.8115 24.4731,614.2304 Z " fill="#000000"/><text fill="#000000" font-family="sans-serif" font-size="14" lengthAdjust="spacing" textLength="100" x="36" y="616.101">mappeNoekler</text><line style="stroke:#181818;stroke-width:0.5;" x1="8" x2="138" y1="626.81" y2="626.81"/><line style="stroke:#181818;stroke-width:0.5;" x1="8" x2="138" y1="634.81" y2="634.81"/></g><!--class saksmappeNoekler--><g id="elem_saksmappeNoekler"><rect fill="#F1F1F1" height="48" id="saksmappeNoekler" rx="2.5" ry="2.5" style="stroke:#181818;stroke-width:0.5;" width="162" x="174" y="594.81"/><ellipse cx="189" cy="610.81" fill="#ADD1B2" rx="11" ry="11" style="stroke:#181818;stroke-width:1.0;"/><path d="M191.4731,616.9531 Q190.8921,617.2519 190.2529,617.4013 Q189.6138,617.5507 188.9082,617.5507 Q186.4014,617.5507 185.0815,615.8989 Q183.7617,614.247 183.7617,611.1259 Q183.7617,607.9965 185.0815,606.3447 Q186.4014,604.6928 188.9082,604.6928 Q189.6138,604.6928 190.2612,604.8422 Q190.9087,604.9916 191.4731,605.2905 L191.4731,608.0131 Q190.8423,607.4321 190.2488,607.1623 Q189.6553,606.8925 189.0244,606.8925 Q187.6797,606.8925 186.9949,607.9592 Q186.3101,609.0258 186.3101,611.1259 Q186.3101,613.2177 186.9949,614.2844 Q187.6797,615.351 189.0244,615.351 Q189.6553,615.351 190.2488,615.0812 Q190.8423,614.8115 191.4731,614.2304 Z " fill="#000000"/><text fill="#000000" font-family="sans-serif" font-size="14" lengthAdjust="spacing" textLength="130" x="203" y="616.101">saksmappeNoekler</text><line style="stroke:#181818;stroke-width:0.5;" x1="175" x2="335" y1="626.81" y2="626.81"/><line style="stroke:#181818;stroke-width:0.5;" x1="175" x2="335" y1="634.81" y2="634.81"/></g><!--class registreringNoekler--><g id="elem_registreringNoekler"><rect fill="#F1F1F1" height="48" id="registreringNoekler" rx="2.5" ry="2.5" style="stroke:#181818;stroke-width:0.5;" width="166" x="371" y="594.81"/><ellipse cx="386" cy="610.81" fill="#ADD1B2" rx="11" ry="11" style="stroke:#181818;stroke-width:1.0;"/><path d="M388.4731,616.9531 Q387.8921,617.2519 387.2529,617.4013 Q386.6138,617.5507 385.9082,617.5507 Q383.4014,617.5507 382.0815,615.8989 Q380.7617,614.247 380.7617,611.1259 Q380.7617,607.9965 382.0815,606.3447 Q383.4014,604.6928 385.9082,604.6928 Q386.6138,604.6928 387.2612,604.8422 Q387.9087,604.9916 388.4731,605.2905 L388.4731,608.0131 Q387.8423,607.4321 387.2488,607.1623 Q386.6553,606.8925 386.0244,606.8925 Q384.6797,606.8925 383.9949,607.9592 Q383.3101,609.0258 383.3101,611.1259 Q383.3101,613.2177 383.9949,614.2844 Q384.6797,615.351 386.0244,615.351 Q386.6553,615.351 387.2488,615.0812 Q387.8423,614.8115 388.4731,614.2304 Z " fill="#000000"/><text fill="#000000" font-family="sans-serif" font-size="14" lengthAdjust="spacing" textLength="134" x="400" y="616.101">registreringNoekler</text><line style="stroke:#181818;stroke-width:0.5;" x1="372" x2="536" y1="626.81" y2="626.81"/><line style="stroke:#181818;stroke-width:0.5;" x1="372" x2="536" y1="634.81" y2="634.81"/></g><!--class journalpostNoekler--><g id="elem_journalpostNoekler"><rect fill="#F1F1F1" height="48" id="journalpostNoekler" rx="2.5" ry="2.5" style="stroke:#181818;stroke-width:0.5;" width="164" x="572" y="594.81"/><ellipse cx="587" cy="610.81" fill="#ADD1B2" rx="11" ry="11" style="stroke:#181818;stroke-width:1.0;"/><path d="M589.4731,616.9531 Q588.8921,617.2519 588.2529,617.4013 Q587.6138,617.5507 586.9082,617.5507 Q584.4014,617.5507 583.0815,615.8989 Q581.7617,614.247 581.7617,611.1259 Q581.7617,607.9965 583.0815,606.3447 Q584.4014,604.6928 586.9082,604.6928 Q587.6138,604.6928 588.2612,604.8422 Q588.9087,604.9916 589.4731,605.2905 L589.4731,608.0131 Q588.8423,607.4321 588.2488,607.1623 Q587.6553,606.8925 587.0244,606.8925 Q585.6797,606.8925 584.9949,607.9592 Q584.3101,609.0258 584.3101,611.1259 Q584.3101,613.2177 584.9949,614.2844 Q585.6797,615.351 587.0244,615.351 Q587.6553,615.351 588.2488,615.0812 Q588.8423,614.8115 589.4731,614.2304 Z " fill="#000000"/><text fill="#000000" font-family="sans-serif" font-size="14" lengthAdjust="spacing" textLength="132" x="601" y="616.101">journalpostNoekler</text><line style="stroke:#181818;stroke-width:0.5;" x1="573" x2="735" y1="626.81" y2="626.81"/><line style="stroke:#181818;stroke-width:0.5;" x1="573" x2="735" y1="634.81" y2="634.81"/></g><!--class dokumentbeskrivelseNoekler--><g id="elem_dokumentbeskrivelseNoekler"><rect fill="#F1F1F1" height="48" id="dokumentbeskrivelseNoekler" rx="2.5" ry="2.5" style="stroke:#181818;stroke-width:0.5;" width="231" x="770.5" y="594.81"/><ellipse cx="785.5" cy="610.81" fill="#ADD1B2" rx="11" ry="11" style="stroke:#181818;stroke-width:1.0;"/><path d="M787.9731,616.9531 Q787.3921,617.2519 786.7529,617.4013 Q786.1138,617.5507 785.4082,617.5507 Q782.9014,617.5507 781.5815,615.8989 Q780.2617,614.247 780.2617,611.1259 Q780.2617,607.9965 781.5815,606.3447 Q782.9014,604.6928 785.4082,604.6928 Q786.1138,604.6928 786.7612,604.8422 Q787.4087,604.9916 787.9731,605.2905 L787.9731,608.0131 Q787.3423,607.4321 786.7488,607.1623 Q786.1553,606.8925 785.5244,606.8925 Q784.1797,606.8925 783.4949,607.9592 Q782.8101,609.0258 782.8101,611.1259 Q782.8101,613.2177 783.4949,614.2844 Q784.1797,615.351 785.5244,615.351 Q786.1553,615.351 786.7488,615.0812 Q787.3423,614.8115 787.9731,614.2304 Z " fill="#000000"/><text fill="#000000" font-family="sans-serif" font-size="14" lengthAdjust="spacing" textLength="199" x="799.5" y="616.101">dokumentbeskrivelseNoekler</text><line style="stroke:#181818;stroke-width:0.5;" x1="771.5" x2="1000.5" y1="626.81" y2="626.81"/><line style="stroke:#181818;stroke-width:0.5;" x1="771.5" x2="1000.5" y1="634.81" y2="634.81"/></g><!--link sokeresultatNoekler to resultatListeNoekler--><g id="link_sokeresultatNoekler_resultatListeNoekler"><path codeLine="3" d="M555.91,154.42 C529.79,186.13 500.57,221.61 480.13,246.42 " fill="none" id="sokeresultatNoekler-resultatListeNoekler" style="stroke:#181818;stroke-width:1.0;stroke-dasharray:7.0,7.0;"/></g><!--link sokeresultatNoekler to resultatTypeNoekler--><g id="link_sokeresultatNoekler_resultatTypeNoekler"><path codeLine="4" d="M676.46,154.42 C692.59,173.88 709.9,194.76 725.61,213.73 " fill="none" id="sokeresultatNoekler-resultatTypeNoekler" style="stroke:#181818;stroke-width:1.0;stroke-dasharray:7.0,7.0;"/></g><!--link resultatListeNoekler to resultatNoekler--><g id="link_resultatListeNoekler_resultatNoekler"><path codeLine="6" d="M454,311.69 C454,336.83 454,372.88 454,404.08 " fill="none" id="resultatListeNoekler-resultatNoekler" style="stroke:#181818;stroke-width:1.0;stroke-dasharray:7.0,7.0;"/></g><!--link resultatNoekler to mappeNoekler--><g id="link_resultatNoekler_mappeNoekler"><path codeLine="8" d="M286.61,535.27 C232.07,556.35 174.96,578.41 133.53,594.42 " fill="none" id="resultatNoekler-mappeNoekler" style="stroke:#181818;stroke-width:1.0;stroke-dasharray:7.0,7.0;"/></g><!--link resultatNoekler to saksmappeNoekler--><g id="link_resultatNoekler_saksmappeNoekler"><path codeLine="9" d="M366.72,535.16 C338.1,556.33 308.12,578.51 286.43,594.56 " fill="none" id="resultatNoekler-saksmappeNoekler" style="stroke:#181818;stroke-width:1.0;stroke-dasharray:7.0,7.0;"/></g><!--link resultatNoekler to registreringNoekler--><g id="link_resultatNoekler_registreringNoekler"><path codeLine="10" d="M454,535.16 C454,556.33 454,578.51 454,594.56 " fill="none" id="resultatNoekler-registreringNoekler" style="stroke:#181818;stroke-width:1.0;stroke-dasharray:7.0,7.0;"/></g><!--link resultatNoekler to journalpostNoekler--><g id="link_resultatNoekler_journalpostNoekler"><path codeLine="11" d="M541.72,535.16 C570.48,556.33 600.61,578.51 622.41,594.56 " fill="none" id="resultatNoekler-journalpostNoekler" style="stroke:#181818;stroke-width:1.0;stroke-dasharray:7.0,7.0;"/></g><!--link resultatNoekler to dokumentbeskrivelseNoekler--><g id="link_resultatNoekler_dokumentbeskrivelseNoekler"><path codeLine="12" d="M643.8,535.27 C705.53,556.31 770.16,578.33 817.11,594.33 " fill="none" id="resultatNoekler-dokumentbeskrivelseNoekler" style="stroke:#181818;stroke-width:1.0;stroke-dasharray:7.0,7.0;"/></g><!--SRC=[XStB3S8m44NHlQim3RWIn8e67F8KcN5iQpwHqZr8aCyYIhPtZjxSKdbbw-5B1MLmQEQSL093B6lKnw_x4FoIxaaK_tvbdtDRgJiQsECbRNA7njYsgOExH98hmnY-hncSod32tjMunDogw8dgAzc8eXs4E4t8ihx-0000]--></g></svg>