<?xml version="1.0" encoding="us-ascii" standalone="no"?><svg xmlns="http://www.w3.org/2000/svg" xmlns:xlink="http://www.w3.org/1999/xlink" contentStyleType="text/css" height="459px" preserveAspectRatio="none" style="width:1239px;height:459px;background:#FFFFFF;" version="1.1" viewBox="0 0 1239 459" width="1239px" zoomAndPan="magnify"><defs/><g><!--class resultatListeNoekler--><g id="elem_resultatListeNoekler"><rect codeLine="2" fill="#F1F1F1" height="64.4883" id="resultatListeNoekler" rx="2.5" ry="2.5" style="stroke:#181818;stroke-width:0.5;" width="258" x="325" y="48.22"/><ellipse cx="381.75" cy="64.22" fill="#ADD1B2" rx="11" ry="11" style="stroke:#181818;stroke-width:1.0;"/><path d="M384.2231,70.3631 Q383.6421,70.6619 383.0029,70.8113 Q382.3638,70.9607 381.6582,70.9607 Q379.1514,70.9607 377.8315,69.3089 Q376.5117,67.657 376.5117,64.5359 Q376.5117,61.4065 377.8315,59.7547 Q379.1514,58.1028 381.6582,58.1028 Q382.3638,58.1028 383.0112,58.2522 Q383.6587,58.4016 384.2231,58.7005 L384.2231,61.4231 Q383.5923,60.8421 382.9988,60.5723 Q382.4053,60.3025 381.7744,60.3025 Q380.4297,60.3025 379.7449,61.3692 Q379.0601,62.4358 379.0601,64.5359 Q379.0601,66.6277 379.7449,67.6944 Q380.4297,68.761 381.7744,68.761 Q382.4053,68.761 382.9988,68.4912 Q383.5923,68.2215 384.2231,67.6404 Z " fill="#000000"/><text fill="#000000" font-family="sans-serif" font-size="14" lengthAdjust="spacing" textLength="136" x="402.25" y="69.511">resultatListeNoekler</text><line style="stroke:#181818;stroke-width:0.5;" x1="326" x2="582" y1="80.22" y2="80.22"/><ellipse cx="336" cy="93.9641" fill="none" rx="3" ry="3" style="stroke:#038048;stroke-width:1.0;"/><text fill="#000000" font-family="sans-serif" font-size="14" lengthAdjust="spacing" textLength="232" x="345" y="97.7552">resultatNoekler : resultatNoekler[]</text><line style="stroke:#181818;stroke-width:0.5;" x1="326" x2="582" y1="104.7083" y2="104.7083"/></g><!--class resultatNoekler--><g id="elem_resultatNoekler"><rect codeLine="6" fill="#F1F1F1" height="130.4414" id="resultatNoekler" rx="2.5" ry="2.5" style="stroke:#181818;stroke-width:0.5;" width="383" x="262.5" y="213.93"/><ellipse cx="397.25" cy="229.93" fill="#ADD1B2" rx="11" ry="11" style="stroke:#181818;stroke-width:1.0;"/><path d="M399.7231,236.0731 Q399.1421,236.3719 398.5029,236.5213 Q397.8638,236.6707 397.1582,236.6707 Q394.6514,236.6707 393.3315,235.0189 Q392.0117,233.367 392.0117,230.2459 Q392.0117,227.1165 393.3315,225.4647 Q394.6514,223.8128 397.1582,223.8128 Q397.8638,223.8128 398.5112,223.9622 Q399.1587,224.1116 399.7231,224.4105 L399.7231,227.1331 Q399.0923,226.5521 398.4988,226.2823 Q397.9053,226.0125 397.2744,226.0125 Q395.9297,226.0125 395.2449,227.0792 Q394.5601,228.1458 394.5601,230.2459 Q394.5601,232.3377 395.2449,233.4044 Q395.9297,234.471 397.2744,234.471 Q397.9053,234.471 398.4988,234.2012 Q399.0923,233.9315 399.7231,233.3504 Z " fill="#000000"/><text fill="#000000" font-family="sans-serif" font-size="14" lengthAdjust="spacing" textLength="105" x="417.75" y="235.221">resultatNoekler</text><line style="stroke:#181818;stroke-width:0.5;" x1="263.5" x2="644.5" y1="245.93" y2="245.93"/><ellipse cx="273.5" cy="259.6741" fill="none" rx="3" ry="3" style="stroke:#038048;stroke-width:1.0;"/><text fill="#000000" font-family="sans-serif" font-size="14" lengthAdjust="spacing" textLength="159" x="282.5" y="263.4652">mappe : mappeNoekler</text><ellipse cx="273.5" cy="276.1624" fill="none" rx="3" ry="3" style="stroke:#038048;stroke-width:1.0;"/><text fill="#000000" font-family="sans-serif" font-size="14" lengthAdjust="spacing" textLength="219" x="282.5" y="279.9534">saksmappe : saksmappeNoekler</text><ellipse cx="273.5" cy="292.6507" fill="none" rx="3" ry="3" style="stroke:#038048;stroke-width:1.0;"/><text fill="#000000" font-family="sans-serif" font-size="14" lengthAdjust="spacing" textLength="227" x="282.5" y="296.4417">registrering : registreringNoekler</text><ellipse cx="273.5" cy="309.139" fill="none" rx="3" ry="3" style="stroke:#038048;stroke-width:1.0;"/><text fill="#000000" font-family="sans-serif" font-size="14" lengthAdjust="spacing" textLength="223" x="282.5" y="312.93">journalpost : journalpostNoekler</text><ellipse cx="273.5" cy="325.6273" fill="none" rx="3" ry="3" style="stroke:#038048;stroke-width:1.0;"/><text fill="#000000" font-family="sans-serif" font-size="14" lengthAdjust="spacing" textLength="357" x="282.5" y="329.4183">dokumentbeskrivelse : dokumentbeskrivelseNoekler</text><line style="stroke:#181818;stroke-width:0.5;" x1="263.5" x2="644.5" y1="336.3714" y2="336.3714"/></g><!--class mappeNoekler--><g id="elem_mappeNoekler"><rect fill="#F1F1F1" height="48" id="mappeNoekler" rx="2.5" ry="2.5" style="stroke:#181818;stroke-width:0.5;" width="132" x="7" y="404.37"/><ellipse cx="22" cy="420.37" fill="#ADD1B2" rx="11" ry="11" style="stroke:#181818;stroke-width:1.0;"/><path d="M24.4731,426.5131 Q23.8921,426.8119 23.2529,426.9613 Q22.6138,427.1107 21.9082,427.1107 Q19.4014,427.1107 18.0815,425.4589 Q16.7617,423.807 16.7617,420.6859 Q16.7617,417.5565 18.0815,415.9047 Q19.4014,414.2528 21.9082,414.2528 Q22.6138,414.2528 23.2612,414.4022 Q23.9087,414.5516 24.4731,414.8505 L24.4731,417.5731 Q23.8423,416.9921 23.2488,416.7223 Q22.6553,416.4525 22.0244,416.4525 Q20.6797,416.4525 19.9949,417.5192 Q19.3101,418.5858 19.3101,420.6859 Q19.3101,422.7777 19.9949,423.8444 Q20.6797,424.911 22.0244,424.911 Q22.6553,424.911 23.2488,424.6412 Q23.8423,424.3715 24.4731,423.7904 Z " fill="#000000"/><text fill="#000000" font-family="sans-serif" font-size="14" lengthAdjust="spacing" textLength="100" x="36" y="425.661">mappeNoekler</text><line style="stroke:#181818;stroke-width:0.5;" x1="8" x2="138" y1="436.37" y2="436.37"/><line style="stroke:#181818;stroke-width:0.5;" x1="8" x2="138" y1="444.37" y2="444.37"/></g><!--class saksmappeNoekler--><g id="elem_saksmappeNoekler"><rect fill="#F1F1F1" height="48" id="saksmappeNoekler" rx="2.5" ry="2.5" style="stroke:#181818;stroke-width:0.5;" width="162" x="174" y="404.37"/><ellipse cx="189" cy="420.37" fill="#ADD1B2" rx="11" ry="11" style="stroke:#181818;stroke-width:1.0;"/><path d="M191.4731,426.5131 Q190.8921,426.8119 190.2529,426.9613 Q189.6138,427.1107 188.9082,427.1107 Q186.4014,427.1107 185.0815,425.4589 Q183.7617,423.807 183.7617,420.6859 Q183.7617,417.5565 185.0815,415.9047 Q186.4014,414.2528 188.9082,414.2528 Q189.6138,414.2528 190.2612,414.4022 Q190.9087,414.5516 191.4731,414.8505 L191.4731,417.5731 Q190.8423,416.9921 190.2488,416.7223 Q189.6553,416.4525 189.0244,416.4525 Q187.6797,416.4525 186.9949,417.5192 Q186.3101,418.5858 186.3101,420.6859 Q186.3101,422.7777 186.9949,423.8444 Q187.6797,424.911 189.0244,424.911 Q189.6553,424.911 190.2488,424.6412 Q190.8423,424.3715 191.4731,423.7904 Z " fill="#000000"/><text fill="#000000" font-family="sans-serif" font-size="14" lengthAdjust="spacing" textLength="130" x="203" y="425.661">saksmappeNoekler</text><line style="stroke:#181818;stroke-width:0.5;" x1="175" x2="335" y1="436.37" y2="436.37"/><line style="stroke:#181818;stroke-width:0.5;" x1="175" x2="335" y1="444.37" y2="444.37"/></g><!--class registreringNoekler--><g id="elem_registreringNoekler"><rect fill="#F1F1F1" height="48" id="registreringNoekler" rx="2.5" ry="2.5" style="stroke:#181818;stroke-width:0.5;" width="166" x="371" y="404.37"/><ellipse cx="386" cy="420.37" fill="#ADD1B2" rx="11" ry="11" style="stroke:#181818;stroke-width:1.0;"/><path d="M388.4731,426.5131 Q387.8921,426.8119 387.2529,426.9613 Q386.6138,427.1107 385.9082,427.1107 Q383.4014,427.1107 382.0815,425.4589 Q380.7617,423.807 380.7617,420.6859 Q380.7617,417.5565 382.0815,415.9047 Q383.4014,414.2528 385.9082,414.2528 Q386.6138,414.2528 387.2612,414.4022 Q387.9087,414.5516 388.4731,414.8505 L388.4731,417.5731 Q387.8423,416.9921 387.2488,416.7223 Q386.6553,416.4525 386.0244,416.4525 Q384.6797,416.4525 383.9949,417.5192 Q383.3101,418.5858 383.3101,420.6859 Q383.3101,422.7777 383.9949,423.8444 Q384.6797,424.911 386.0244,424.911 Q386.6553,424.911 387.2488,424.6412 Q387.8423,424.3715 388.4731,423.7904 Z " fill="#000000"/><text fill="#000000" font-family="sans-serif" font-size="14" lengthAdjust="spacing" textLength="134" x="400" y="425.661">registreringNoekler</text><line style="stroke:#181818;stroke-width:0.5;" x1="372" x2="536" y1="436.37" y2="436.37"/><line style="stroke:#181818;stroke-width:0.5;" x1="372" x2="536" y1="444.37" y2="444.37"/></g><!--class journalpostNoekler--><g id="elem_journalpostNoekler"><rect fill="#F1F1F1" height="48" id="journalpostNoekler" rx="2.5" ry="2.5" style="stroke:#181818;stroke-width:0.5;" width="164" x="572" y="404.37"/><ellipse cx="587" cy="420.37" fill="#ADD1B2" rx="11" ry="11" style="stroke:#181818;stroke-width:1.0;"/><path d="M589.4731,426.5131 Q588.8921,426.8119 588.2529,426.9613 Q587.6138,427.1107 586.9082,427.1107 Q584.4014,427.1107 583.0815,425.4589 Q581.7617,423.807 581.7617,420.6859 Q581.7617,417.5565 583.0815,415.9047 Q584.4014,414.2528 586.9082,414.2528 Q587.6138,414.2528 588.2612,414.4022 Q588.9087,414.5516 589.4731,414.8505 L589.4731,417.5731 Q588.8423,416.9921 588.2488,416.7223 Q587.6553,416.4525 587.0244,416.4525 Q585.6797,416.4525 584.9949,417.5192 Q584.3101,418.5858 584.3101,420.6859 Q584.3101,422.7777 584.9949,423.8444 Q585.6797,424.911 587.0244,424.911 Q587.6553,424.911 588.2488,424.6412 Q588.8423,424.3715 589.4731,423.7904 Z " fill="#000000"/><text fill="#000000" font-family="sans-serif" font-size="14" lengthAdjust="spacing" textLength="132" x="601" y="425.661">journalpostNoekler</text><line style="stroke:#181818;stroke-width:0.5;" x1="573" x2="735" y1="436.37" y2="436.37"/><line style="stroke:#181818;stroke-width:0.5;" x1="573" x2="735" y1="444.37" y2="444.37"/></g><!--class dokumentbeskrivelseNoekler--><g id="elem_dokumentbeskrivelseNoekler"><rect fill="#F1F1F1" height="48" id="dokumentbeskrivelseNoekler" rx="2.5" ry="2.5" style="stroke:#181818;stroke-width:0.5;" width="231" x="770.5" y="404.37"/><ellipse cx="785.5" cy="420.37" fill="#ADD1B2" rx="11" ry="11" style="stroke:#181818;stroke-width:1.0;"/><path d="M787.9731,426.5131 Q787.3921,426.8119 786.7529,426.9613 Q786.1138,427.1107 785.4082,427.1107 Q782.9014,427.1107 781.5815,425.4589 Q780.2617,423.807 780.2617,420.6859 Q780.2617,417.5565 781.5815,415.9047 Q782.9014,414.2528 785.4082,414.2528 Q786.1138,414.2528 786.7612,414.4022 Q787.4087,414.5516 787.9731,414.8505 L787.9731,417.5731 Q787.3423,416.9921 786.7488,416.7223 Q786.1553,416.4525 785.5244,416.4525 Q784.1797,416.4525 783.4949,417.5192 Q782.8101,418.5858 782.8101,420.6859 Q782.8101,422.7777 783.4949,423.8444 Q784.1797,424.911 785.5244,424.911 Q786.1553,424.911 786.7488,424.6412 Q787.3423,424.3715 787.9731,423.7904 Z " fill="#000000"/><text fill="#000000" font-family="sans-serif" font-size="14" lengthAdjust="spacing" textLength="199" x="799.5" y="425.661">dokumentbeskrivelseNoekler</text><line style="stroke:#181818;stroke-width:0.5;" x1="771.5" x2="1000.5" y1="436.37" y2="436.37"/><line style="stroke:#181818;stroke-width:0.5;" x1="771.5" x2="1000.5" y1="444.37" y2="444.37"/></g><!--class resultatTypeNoekler--><g id="elem_resultatTypeNoekler"><rect codeLine="19" fill="#F1F1F1" height="130.4414" id="resultatTypeNoekler" rx="2.5" ry="2.5" style="stroke:#181818;stroke-width:0.5;" width="323" x="617.5" y="15.24"/><ellipse cx="705.75" cy="31.24" fill="#EB937F" rx="11" ry="11" style="stroke:#181818;stroke-width:1.0;"/><path d="M709.3643,37.74 L701.6445,37.74 L701.6445,25.3469 L709.3643,25.3469 L709.3643,27.5051 L704.0933,27.5051 L704.0933,30.178 L708.8662,30.178 L708.8662,32.3362 L704.0933,32.3362 L704.0933,35.5818 L709.3643,35.5818 Z " fill="#000000"/><text fill="#000000" font-family="sans-serif" font-size="14" lengthAdjust="spacing" textLength="138" x="726.25" y="36.531">resultatTypeNoekler</text><line style="stroke:#181818;stroke-width:0.5;" x1="618.5" x2="939.5" y1="47.24" y2="47.24"/><text fill="#000000" font-family="sans-serif" font-size="14" lengthAdjust="spacing" textLength="113" x="623.5" y="64.7752">mappe = mappe</text><text fill="#000000" font-family="sans-serif" font-size="14" lengthAdjust="spacing" textLength="173" x="623.5" y="81.2634">saksmappe = saksmappe</text><text fill="#000000" font-family="sans-serif" font-size="14" lengthAdjust="spacing" textLength="181" x="623.5" y="97.7517">registrering = registrering</text><text fill="#000000" font-family="sans-serif" font-size="14" lengthAdjust="spacing" textLength="177" x="623.5" y="114.24">journalpost = journalpost</text><text fill="#000000" font-family="sans-serif" font-size="14" lengthAdjust="spacing" textLength="311" x="623.5" y="130.7283">dokumentbeskrivelse = dokumentbeskrivelse</text><line style="stroke:#181818;stroke-width:0.5;" x1="618.5" x2="939.5" y1="137.6814" y2="137.6814"/></g><!--class sokeresultatNoekler--><g id="elem_sokeresultatNoekler"><rect codeLine="26" fill="#F1F1F1" height="146.9297" id="sokeresultatNoekler" rx="2.5" ry="2.5" style="stroke:#181818;stroke-width:0.5;" width="257" x="975.5" y="7"/><ellipse cx="1031.25" cy="23" fill="#ADD1B2" rx="11" ry="11" style="stroke:#181818;stroke-width:1.0;"/><path d="M1033.7231,29.1431 Q1033.1421,29.4419 1032.5029,29.5913 Q1031.8638,29.7407 1031.1582,29.7407 Q1028.6514,29.7407 1027.3315,28.0889 Q1026.0117,26.437 1026.0117,23.3159 Q1026.0117,20.1865 1027.3315,18.5347 Q1028.6514,16.8828 1031.1582,16.8828 Q1031.8638,16.8828 1032.5112,17.0322 Q1033.1587,17.1816 1033.7231,17.4805 L1033.7231,20.2031 Q1033.0923,19.6221 1032.4988,19.3523 Q1031.9053,19.0825 1031.2744,19.0825 Q1029.9297,19.0825 1029.2449,20.1492 Q1028.5601,21.2158 1028.5601,23.3159 Q1028.5601,25.4077 1029.2449,26.4744 Q1029.9297,27.541 1031.2744,27.541 Q1031.9053,27.541 1032.4988,27.2712 Q1033.0923,27.0015 1033.7231,26.4204 Z " fill="#000000"/><text fill="#000000" font-family="sans-serif" font-size="14" lengthAdjust="spacing" textLength="137" x="1051.75" y="28.291">sokeresultatNoekler</text><line style="stroke:#181818;stroke-width:0.5;" x1="976.5" x2="1231.5" y1="39" y2="39"/><ellipse cx="986.5" cy="52.7441" fill="none" rx="3" ry="3" style="stroke:#038048;stroke-width:1.0;"/><text fill="#000000" font-family="sans-serif" font-size="14" lengthAdjust="spacing" textLength="99" x="995.5" y="56.5352">system : string</text><ellipse cx="986.5" cy="69.2324" fill="none" rx="3" ry="3" style="stroke:#038048;stroke-width:1.0;"/><text fill="#000000" font-family="sans-serif" font-size="14" lengthAdjust="spacing" textLength="59" x="995.5" y="73.0234">take : int</text><ellipse cx="986.5" cy="85.7207" fill="none" rx="3" ry="3" style="stroke:#038048;stroke-width:1.0;"/><text fill="#000000" font-family="sans-serif" font-size="14" lengthAdjust="spacing" textLength="58" x="995.5" y="89.5117">skip : int</text><ellipse cx="986.5" cy="102.209" fill="none" rx="3" ry="3" style="stroke:#038048;stroke-width:1.0;"/><text fill="#000000" font-family="sans-serif" font-size="14" lengthAdjust="spacing" textLength="69" x="995.5" y="106">count : int</text><ellipse cx="986.5" cy="118.6973" fill="none" rx="3" ry="3" style="stroke:#038048;stroke-width:1.0;"/><text fill="#000000" font-family="sans-serif" font-size="14" lengthAdjust="spacing" textLength="231" x="995.5" y="122.4883">resultattype : resultatTypeNoekler</text><ellipse cx="986.5" cy="135.1855" fill="none" rx="3" ry="3" style="stroke:#038048;stroke-width:1.0;"/><text fill="#000000" font-family="sans-serif" font-size="14" lengthAdjust="spacing" textLength="231" x="995.5" y="138.9766">resultatListe : resultatListeNoekler</text><line style="stroke:#181818;stroke-width:0.5;" x1="976.5" x2="1231.5" y1="145.9297" y2="145.9297"/></g><!--link resultatListeNoekler to resultatNoekler--><g id="link_resultatListeNoekler_resultatNoekler"><path codeLine="5" d="M454,113.06 C454,140.1 454,179.89 454,213.63 " fill="none" id="resultatListeNoekler-resultatNoekler" style="stroke:#181818;stroke-width:1.0;"/></g><!--link resultatNoekler to mappeNoekler--><g id="link_resultatNoekler_mappeNoekler"><path codeLine="13" d="M286.61,344.83 C232.07,365.91 174.96,387.97 133.53,403.98 " fill="none" id="resultatNoekler-mappeNoekler" style="stroke:#181818;stroke-width:1.0;"/></g><!--link resultatNoekler to saksmappeNoekler--><g id="link_resultatNoekler_saksmappeNoekler"><path codeLine="14" d="M366.72,344.72 C338.1,365.89 308.12,388.07 286.43,404.12 " fill="none" id="resultatNoekler-saksmappeNoekler" style="stroke:#181818;stroke-width:1.0;"/></g><!--link resultatNoekler to registreringNoekler--><g id="link_resultatNoekler_registreringNoekler"><path codeLine="15" d="M454,344.72 C454,365.89 454,388.07 454,404.12 " fill="none" id="resultatNoekler-registreringNoekler" style="stroke:#181818;stroke-width:1.0;"/></g><!--link resultatNoekler to journalpostNoekler--><g id="link_resultatNoekler_journalpostNoekler"><path codeLine="16" d="M541.72,344.72 C570.48,365.89 600.61,388.07 622.41,404.12 " fill="none" id="resultatNoekler-journalpostNoekler" style="stroke:#181818;stroke-width:1.0;"/></g><!--link resultatNoekler to dokumentbeskrivelseNoekler--><g id="link_resultatNoekler_dokumentbeskrivelseNoekler"><path codeLine="17" d="M643.8,344.83 C705.53,365.87 770.16,387.89 817.11,403.89 " fill="none" id="resultatNoekler-dokumentbeskrivelseNoekler" style="stroke:#181818;stroke-width:1.0;"/></g><!--SRC=[VLDBRiCW4Drp2k-ZN20IDwYwwgxAWhgZY881CKCbA-hTYt6nmPs43Soy1_DxZ5OX3X4mMLBqef7WrOEn48Ux6F8wLQowByF1ytuLFu9zuNm-SiNOnJk4cbG8a0EKlTue22g35TtE7IF2BOUE4BMxbHnti-Dz-HITii4ZPLfZTQnFRz84ZZu0JTJVO769p7ZhhRq3JV5TbWp-hnA6mnN2q9X26DQJ0WIuD6s3UPl3GGThz-Mw5yy-4xcV2zBDGdPcmTiPoDOgADTxoNbpqrSveJVmG58uPprEYsfe2tyYPPPnQaT_9AD3Quy-EMeTzN6QYmAPBlMyyWiQOlihSjQ_]--></g></svg>