<?xml version="1.0" encoding="us-ascii" standalone="no"?><svg xmlns="http://www.w3.org/2000/svg" xmlns:xlink="http://www.w3.org/1999/xlink" contentStyleType="text/css" height="367px" preserveAspectRatio="none" style="width:659px;height:367px;background:#FFFFFF;" version="1.1" viewBox="0 0 659 367" width="659px" zoomAndPan="magnify"><defs/><g><!--class resultat--><g id="elem_resultat"><rect codeLine="2" fill="#F1F1F1" height="146.9297" id="resultat" rx="2.5" ry="2.5" style="stroke:#181818;stroke-width:0.5;" width="410" x="7" y="7"/><ellipse cx="181.75" cy="23" fill="#ADD1B2" rx="11" ry="11" style="stroke:#181818;stroke-width:1.0;"/><path d="M184.2231,29.1431 Q183.6421,29.4419 183.0029,29.5913 Q182.3638,29.7407 181.6582,29.7407 Q179.1514,29.7407 177.8315,28.0889 Q176.5117,26.437 176.5117,23.3159 Q176.5117,20.1865 177.8315,18.5347 Q179.1514,16.8828 181.6582,16.8828 Q182.3638,16.8828 183.0112,17.0322 Q183.6587,17.1816 184.2231,17.4805 L184.2231,20.2031 Q183.5923,19.6221 182.9988,19.3523 Q182.4053,19.0825 181.7744,19.0825 Q180.4297,19.0825 179.7449,20.1492 Q179.0601,21.2158 179.0601,23.3159 Q179.0601,25.4077 179.7449,26.4744 Q180.4297,27.541 181.7744,27.541 Q182.4053,27.541 182.9988,27.2712 Q183.5923,27.0015 184.2231,26.4204 Z " fill="#000000"/><text fill="#000000" font-family="sans-serif" font-size="14" lengthAdjust="spacing" textLength="52" x="202.25" y="28.291">resultat</text><line style="stroke:#181818;stroke-width:0.5;" x1="8" x2="416" y1="39" y2="39"/><ellipse cx="18" cy="52.7441" fill="none" rx="3" ry="3" style="stroke:#038048;stroke-width:1.0;"/><text fill="#000000" font-family="sans-serif" font-size="14" lengthAdjust="spacing" textLength="106" x="27" y="56.5352">mappe : mappe</text><ellipse cx="18" cy="69.2324" fill="none" rx="3" ry="3" style="stroke:#038048;stroke-width:1.0;"/><text fill="#000000" font-family="sans-serif" font-size="14" lengthAdjust="spacing" textLength="166" x="27" y="73.0234">saksmappe : saksmappe</text><ellipse cx="18" cy="85.7207" fill="none" rx="3" ry="3" style="stroke:#038048;stroke-width:1.0;"/><text fill="#000000" font-family="sans-serif" font-size="14" lengthAdjust="spacing" textLength="174" x="27" y="89.5117">registrering : registrering</text><ellipse cx="18" cy="102.209" fill="none" rx="3" ry="3" style="stroke:#038048;stroke-width:1.0;"/><text fill="#000000" font-family="sans-serif" font-size="14" lengthAdjust="spacing" textLength="170" x="27" y="106">journalpost : journalpost</text><ellipse cx="18" cy="118.6973" fill="none" rx="3" ry="3" style="stroke:#038048;stroke-width:1.0;"/><text fill="#000000" font-family="sans-serif" font-size="14" lengthAdjust="spacing" textLength="384" x="27" y="122.4883">journalpostMedSaksmappe : journalpostMedSaksmappe</text><ellipse cx="18" cy="135.1855" fill="none" rx="3" ry="3" style="stroke:#038048;stroke-width:1.0;"/><text fill="#000000" font-family="sans-serif" font-size="14" lengthAdjust="spacing" textLength="304" x="27" y="138.9766">dokumentbeskrivelse : dokumentbeskrivelse</text><line style="stroke:#181818;stroke-width:0.5;" x1="8" x2="416" y1="145.9297" y2="145.9297"/></g><!--class resultatListe--><g id="elem_resultatListe"><rect codeLine="10" fill="#F1F1F1" height="64.4883" id="resultatListe" rx="2.5" ry="2.5" style="stroke:#181818;stroke-width:0.5;" width="152" x="452" y="48.22"/><ellipse cx="483.65" cy="64.22" fill="#ADD1B2" rx="11" ry="11" style="stroke:#181818;stroke-width:1.0;"/><path d="M486.1231,70.3631 Q485.5421,70.6619 484.9029,70.8113 Q484.2638,70.9607 483.5582,70.9607 Q481.0514,70.9607 479.7315,69.3089 Q478.4117,67.657 478.4117,64.5359 Q478.4117,61.4065 479.7315,59.7547 Q481.0514,58.1028 483.5582,58.1028 Q484.2638,58.1028 484.9112,58.2522 Q485.5587,58.4016 486.1231,58.7005 L486.1231,61.4231 Q485.4923,60.8421 484.8988,60.5723 Q484.3053,60.3025 483.6744,60.3025 Q482.3297,60.3025 481.6449,61.3692 Q480.9601,62.4358 480.9601,64.5359 Q480.9601,66.6277 481.6449,67.6944 Q482.3297,68.761 483.6744,68.761 Q484.3053,68.761 484.8988,68.4912 Q485.4923,68.2215 486.1231,67.6404 Z " fill="#000000"/><text fill="#000000" font-family="sans-serif" font-size="14" lengthAdjust="spacing" textLength="83" x="501.35" y="69.511">resultatListe</text><line style="stroke:#181818;stroke-width:0.5;" x1="453" x2="603" y1="80.22" y2="80.22"/><ellipse cx="463" cy="93.9641" fill="none" rx="3" ry="3" style="stroke:#038048;stroke-width:1.0;"/><text fill="#000000" font-family="sans-serif" font-size="14" lengthAdjust="spacing" textLength="126" x="472" y="97.7552">resultat : resultat[]</text><line style="stroke:#181818;stroke-width:0.5;" x1="453" x2="603" y1="104.7083" y2="104.7083"/></g><!--class resultatType--><g id="elem_resultatType"><rect codeLine="13" fill="#F1F1F1" height="146.9297" id="resultatType" rx="2.5" ry="2.5" style="stroke:#181818;stroke-width:0.5;" width="403" x="10.5" y="213.93"/><ellipse cx="165.25" cy="229.93" fill="#EB937F" rx="11" ry="11" style="stroke:#181818;stroke-width:1.0;"/><path d="M168.8643,236.43 L161.1445,236.43 L161.1445,224.0369 L168.8643,224.0369 L168.8643,226.1951 L163.5933,226.1951 L163.5933,228.868 L168.3662,228.868 L168.3662,231.0262 L163.5933,231.0262 L163.5933,234.2718 L168.8643,234.2718 Z " fill="#000000"/><text fill="#000000" font-family="sans-serif" font-size="14" lengthAdjust="spacing" textLength="85" x="185.75" y="235.221">resultatType</text><line style="stroke:#181818;stroke-width:0.5;" x1="11.5" x2="412.5" y1="245.93" y2="245.93"/><text fill="#000000" font-family="sans-serif" font-size="14" lengthAdjust="spacing" textLength="113" x="16.5" y="263.4652">mappe = mappe</text><text fill="#000000" font-family="sans-serif" font-size="14" lengthAdjust="spacing" textLength="173" x="16.5" y="279.9534">saksmappe = saksmappe</text><text fill="#000000" font-family="sans-serif" font-size="14" lengthAdjust="spacing" textLength="181" x="16.5" y="296.4417">registrering = registrering</text><text fill="#000000" font-family="sans-serif" font-size="14" lengthAdjust="spacing" textLength="177" x="16.5" y="312.93">journalpost = journalpost</text><text fill="#000000" font-family="sans-serif" font-size="14" lengthAdjust="spacing" textLength="391" x="16.5" y="329.4183">journalpostMedSaksmappe = journalpostMedSaksmappe</text><text fill="#000000" font-family="sans-serif" font-size="14" lengthAdjust="spacing" textLength="311" x="16.5" y="345.9066">dokumentbeskrivelse = dokumentbeskrivelse</text><line style="stroke:#181818;stroke-width:0.5;" x1="11.5" x2="412.5" y1="352.8597" y2="352.8597"/></g><!--class sokeresultat--><g id="elem_sokeresultat"><rect codeLine="21" fill="#F1F1F1" height="146.9297" id="sokeresultat" rx="2.5" ry="2.5" style="stroke:#181818;stroke-width:0.5;" width="204" x="448" y="213.93"/><ellipse cx="503.75" cy="229.93" fill="#ADD1B2" rx="11" ry="11" style="stroke:#181818;stroke-width:1.0;"/><path d="M506.2231,236.0731 Q505.6421,236.3719 505.0029,236.5213 Q504.3638,236.6707 503.6582,236.6707 Q501.1514,236.6707 499.8315,235.0189 Q498.5117,233.367 498.5117,230.2459 Q498.5117,227.1165 499.8315,225.4647 Q501.1514,223.8128 503.6582,223.8128 Q504.3638,223.8128 505.0112,223.9622 Q505.6587,224.1116 506.2231,224.4105 L506.2231,227.1331 Q505.5923,226.5521 504.9988,226.2823 Q504.4053,226.0125 503.7744,226.0125 Q502.4297,226.0125 501.7449,227.0792 Q501.0601,228.1458 501.0601,230.2459 Q501.0601,232.3377 501.7449,233.4044 Q502.4297,234.471 503.7744,234.471 Q504.4053,234.471 504.9988,234.2012 Q505.5923,233.9315 506.2231,233.3504 Z " fill="#000000"/><text fill="#000000" font-family="sans-serif" font-size="14" lengthAdjust="spacing" textLength="84" x="524.25" y="235.221">sokeresultat</text><line style="stroke:#181818;stroke-width:0.5;" x1="449" x2="651" y1="245.93" y2="245.93"/><ellipse cx="459" cy="259.6741" fill="none" rx="3" ry="3" style="stroke:#038048;stroke-width:1.0;"/><text fill="#000000" font-family="sans-serif" font-size="14" lengthAdjust="spacing" textLength="99" x="468" y="263.4652">system : string</text><ellipse cx="459" cy="276.1624" fill="none" rx="3" ry="3" style="stroke:#038048;stroke-width:1.0;"/><text fill="#000000" font-family="sans-serif" font-size="14" lengthAdjust="spacing" textLength="59" x="468" y="279.9534">take : int</text><ellipse cx="459" cy="292.6507" fill="none" rx="3" ry="3" style="stroke:#038048;stroke-width:1.0;"/><text fill="#000000" font-family="sans-serif" font-size="14" lengthAdjust="spacing" textLength="58" x="468" y="296.4417">skip : int</text><ellipse cx="459" cy="309.139" fill="none" rx="3" ry="3" style="stroke:#038048;stroke-width:1.0;"/><text fill="#000000" font-family="sans-serif" font-size="14" lengthAdjust="spacing" textLength="69" x="468" y="312.93">count : int</text><ellipse cx="459" cy="325.6273" fill="none" rx="3" ry="3" style="stroke:#038048;stroke-width:1.0;"/><text fill="#000000" font-family="sans-serif" font-size="14" lengthAdjust="spacing" textLength="178" x="468" y="329.4183">resultattype : resultatType</text><ellipse cx="459" cy="342.1155" fill="none" rx="3" ry="3" style="stroke:#038048;stroke-width:1.0;"/><text fill="#000000" font-family="sans-serif" font-size="14" lengthAdjust="spacing" textLength="178" x="468" y="345.9066">resultatListe : resultatListe</text><line style="stroke:#181818;stroke-width:0.5;" x1="449" x2="651" y1="352.8597" y2="352.8597"/></g><!--SRC=[VP9D3e8m48NtdA9xRq3I6-XATyP5XGcfXRRfJ4s8yUuMAb1-sS2yru6Pxr7K0f4vG5-J8FR9MBXEZR0MMCxwUvHGA1payJbQ3Yg9vC19NGKtBUE1b_5EYzeQfE0drSg-G7bDFhJZnBRIAD-0fYUWSl8DDNOj6shspOhPckSm7moxZhldetz_X1RGlXcLMsk7XZWRJzXCQFW2pOmCNvD9mV0Lc3qk_93B5XP-Y0MDWkKVW6r0r7HPqvGZ2TKXbleV72ffqxemNbCg36-bjeypfJa_41F9vmc50Ny0]--></g></svg>