<svg xmlns="http://www.w3.org/2000/svg" xmlns:xlink="http://www.w3.org/1999/xlink" contentStyleType="text/css" height="682px" preserveAspectRatio="none" style="width:997px;height:682px;background:#FFFFFF;" version="1.1" viewBox="0 0 997 682" width="997px" zoomAndPan="magnify"><defs/><g><!--class resultat--><g id="elem_resultat"><rect codeLine="2" fill="#F1F1F1" height="146.9297" id="resultat" rx="2.5" ry="2.5" style="stroke:#181818;stroke-width:0.5;" width="410" x="189.5" y="420.86"/><ellipse cx="364.25" cy="436.86" fill="#ADD1B2" rx="11" ry="11" style="stroke:#181818;stroke-width:1.0;"/><path d="M366.7231,443.0031 Q366.1421,443.3019 365.5029,443.4513 Q364.8638,443.6007 364.1582,443.6007 Q361.6514,443.6007 360.3315,441.9489 Q359.0117,440.297 359.0117,437.1759 Q359.0117,434.0465 360.3315,432.3947 Q361.6514,430.7428 364.1582,430.7428 Q364.8638,430.7428 365.5112,430.8922 Q366.1587,431.0416 366.7231,431.3405 L366.7231,434.0631 Q366.0923,433.4821 365.4988,433.2123 Q364.9053,432.9425 364.2744,432.9425 Q362.9297,432.9425 362.2449,434.0092 Q361.5601,435.0758 361.5601,437.1759 Q361.5601,439.2677 362.2449,440.3344 Q362.9297,441.401 364.2744,441.401 Q364.9053,441.401 365.4988,441.1312 Q366.0923,440.8615 366.7231,440.2804 Z " fill="#000000"/><text fill="#000000" font-family="sans-serif" font-size="14" lengthAdjust="spacing" textLength="52" x="384.75" y="442.151">resultat</text><line style="stroke:#181818;stroke-width:0.5;" x1="190.5" x2="598.5" y1="452.86" y2="452.86"/><ellipse cx="200.5" cy="466.6041" fill="none" rx="3" ry="3" style="stroke:#038048;stroke-width:1.0;"/><text fill="#000000" font-family="sans-serif" font-size="14" lengthAdjust="spacing" textLength="106" x="209.5" y="470.3952">mappe : mappe</text><ellipse cx="200.5" cy="483.0924" fill="none" rx="3" ry="3" style="stroke:#038048;stroke-width:1.0;"/><text fill="#000000" font-family="sans-serif" font-size="14" lengthAdjust="spacing" textLength="166" x="209.5" y="486.8834">saksmappe : saksmappe</text><ellipse cx="200.5" cy="499.5807" fill="none" rx="3" ry="3" style="stroke:#038048;stroke-width:1.0;"/><text fill="#000000" font-family="sans-serif" font-size="14" lengthAdjust="spacing" textLength="174" x="209.5" y="503.3717">registrering : registrering</text><ellipse cx="200.5" cy="516.069" fill="none" rx="3" ry="3" style="stroke:#038048;stroke-width:1.0;"/><text fill="#000000" font-family="sans-serif" font-size="14" lengthAdjust="spacing" textLength="170" x="209.5" y="519.86">journalpost : journalpost</text><ellipse cx="200.5" cy="532.5573" fill="none" rx="3" ry="3" style="stroke:#038048;stroke-width:1.0;"/><text fill="#000000" font-family="sans-serif" font-size="14" lengthAdjust="spacing" textLength="384" x="209.5" y="536.3483">journalpostMedSaksmappe : journalpostMedSaksmappe</text><ellipse cx="200.5" cy="549.0455" fill="none" rx="3" ry="3" style="stroke:#038048;stroke-width:1.0;"/><text fill="#000000" font-family="sans-serif" font-size="14" lengthAdjust="spacing" textLength="304" x="209.5" y="552.8366">dokumentbeskrivelse : dokumentbeskrivelse</text><line style="stroke:#181818;stroke-width:0.5;" x1="190.5" x2="598.5" y1="559.7897" y2="559.7897"/></g><!--class resultatListe--><g id="elem_resultatListe"><rect codeLine="10" fill="#F1F1F1" height="64.4883" id="resultatListe" rx="2.5" ry="2.5" style="stroke:#181818;stroke-width:0.5;" width="152" x="318.5" y="255.15"/><ellipse cx="350.15" cy="271.15" fill="#ADD1B2" rx="11" ry="11" style="stroke:#181818;stroke-width:1.0;"/><path d="M352.6231,277.2931 Q352.0421,277.5919 351.4029,277.7413 Q350.7638,277.8907 350.0582,277.8907 Q347.5514,277.8907 346.2315,276.2389 Q344.9117,274.587 344.9117,271.4659 Q344.9117,268.3365 346.2315,266.6847 Q347.5514,265.0328 350.0582,265.0328 Q350.7638,265.0328 351.4112,265.1822 Q352.0587,265.3316 352.6231,265.6305 L352.6231,268.3531 Q351.9923,267.7721 351.3988,267.5023 Q350.8053,267.2325 350.1744,267.2325 Q348.8297,267.2325 348.1449,268.2992 Q347.4601,269.3658 347.4601,271.4659 Q347.4601,273.5577 348.1449,274.6244 Q348.8297,275.691 350.1744,275.691 Q350.8053,275.691 351.3988,275.4212 Q351.9923,275.1515 352.6231,274.5704 Z " fill="#000000"/><text fill="#000000" font-family="sans-serif" font-size="14" lengthAdjust="spacing" textLength="83" x="367.85" y="276.441">resultatListe</text><line style="stroke:#181818;stroke-width:0.5;" x1="319.5" x2="469.5" y1="287.15" y2="287.15"/><ellipse cx="329.5" cy="300.8941" fill="none" rx="3" ry="3" style="stroke:#038048;stroke-width:1.0;"/><text fill="#000000" font-family="sans-serif" font-size="14" lengthAdjust="spacing" textLength="126" x="338.5" y="304.6852">resultat : resultat[]</text><line style="stroke:#181818;stroke-width:0.5;" x1="319.5" x2="469.5" y1="311.6383" y2="311.6383"/></g><!--class resultatType--><g id="elem_resultatType"><rect codeLine="13" fill="#F1F1F1" height="146.9297" id="resultatType" rx="2.5" ry="2.5" style="stroke:#181818;stroke-width:0.5;" width="403" x="505" y="213.93"/><ellipse cx="659.75" cy="229.93" fill="#EB937F" rx="11" ry="11" style="stroke:#181818;stroke-width:1.0;"/><path d="M663.3643,236.43 L655.6445,236.43 L655.6445,224.0369 L663.3643,224.0369 L663.3643,226.1951 L658.0933,226.1951 L658.0933,228.868 L662.8662,228.868 L662.8662,231.0262 L658.0933,231.0262 L658.0933,234.2718 L663.3643,234.2718 Z " fill="#000000"/><text fill="#000000" font-family="sans-serif" font-size="14" lengthAdjust="spacing" textLength="85" x="680.25" y="235.221">resultatType</text><line style="stroke:#181818;stroke-width:0.5;" x1="506" x2="907" y1="245.93" y2="245.93"/><text fill="#000000" font-family="sans-serif" font-size="14" lengthAdjust="spacing" textLength="113" x="511" y="263.4652">mappe = mappe</text><text fill="#000000" font-family="sans-serif" font-size="14" lengthAdjust="spacing" textLength="173" x="511" y="279.9534">saksmappe = saksmappe</text><text fill="#000000" font-family="sans-serif" font-size="14" lengthAdjust="spacing" textLength="181" x="511" y="296.4417">registrering = registrering</text><text fill="#000000" font-family="sans-serif" font-size="14" lengthAdjust="spacing" textLength="177" x="511" y="312.93">journalpost = journalpost</text><text fill="#000000" font-family="sans-serif" font-size="14" lengthAdjust="spacing" textLength="391" x="511" y="329.4183">journalpostMedSaksmappe = journalpostMedSaksmappe</text><text fill="#000000" font-family="sans-serif" font-size="14" lengthAdjust="spacing" textLength="311" x="511" y="345.9066">dokumentbeskrivelse = dokumentbeskrivelse</text><line style="stroke:#181818;stroke-width:0.5;" x1="506" x2="907" y1="352.8597" y2="352.8597"/></g><!--class sokeresultat--><g id="elem_sokeresultat"><rect codeLine="21" fill="#F1F1F1" height="146.9297" id="sokeresultat" rx="2.5" ry="2.5" style="stroke:#181818;stroke-width:0.5;" width="204" x="448.5" y="7"/><ellipse cx="504.25" cy="23" fill="#ADD1B2" rx="11" ry="11" style="stroke:#181818;stroke-width:1.0;"/><path d="M506.7231,29.1431 Q506.1421,29.4419 505.5029,29.5913 Q504.8638,29.7407 504.1582,29.7407 Q501.6514,29.7407 500.3315,28.0889 Q499.0117,26.437 499.0117,23.3159 Q499.0117,20.1865 500.3315,18.5347 Q501.6514,16.8828 504.1582,16.8828 Q504.8638,16.8828 505.5112,17.0322 Q506.1587,17.1816 506.7231,17.4805 L506.7231,20.2031 Q506.0923,19.6221 505.4988,19.3523 Q504.9053,19.0825 504.2744,19.0825 Q502.9297,19.0825 502.2449,20.1492 Q501.5601,21.2158 501.5601,23.3159 Q501.5601,25.4077 502.2449,26.4744 Q502.9297,27.541 504.2744,27.541 Q504.9053,27.541 505.4988,27.2712 Q506.0923,27.0015 506.7231,26.4204 Z " fill="#000000"/><text fill="#000000" font-family="sans-serif" font-size="14" lengthAdjust="spacing" textLength="84" x="524.75" y="28.291">sokeresultat</text><line style="stroke:#181818;stroke-width:0.5;" x1="449.5" x2="651.5" y1="39" y2="39"/><ellipse cx="459.5" cy="52.7441" fill="none" rx="3" ry="3" style="stroke:#038048;stroke-width:1.0;"/><text fill="#000000" font-family="sans-serif" font-size="14" lengthAdjust="spacing" textLength="99" x="468.5" y="56.5352">system : string</text><ellipse cx="459.5" cy="69.2324" fill="none" rx="3" ry="3" style="stroke:#038048;stroke-width:1.0;"/><text fill="#000000" font-family="sans-serif" font-size="14" lengthAdjust="spacing" textLength="59" x="468.5" y="73.0234">take : int</text><ellipse cx="459.5" cy="85.7207" fill="none" rx="3" ry="3" style="stroke:#038048;stroke-width:1.0;"/><text fill="#000000" font-family="sans-serif" font-size="14" lengthAdjust="spacing" textLength="58" x="468.5" y="89.5117">skip : int</text><ellipse cx="459.5" cy="102.209" fill="none" rx="3" ry="3" style="stroke:#038048;stroke-width:1.0;"/><text fill="#000000" font-family="sans-serif" font-size="14" lengthAdjust="spacing" textLength="69" x="468.5" y="106">count : int</text><ellipse cx="459.5" cy="118.6973" fill="none" rx="3" ry="3" style="stroke:#038048;stroke-width:1.0;"/><text fill="#000000" font-family="sans-serif" font-size="14" lengthAdjust="spacing" textLength="178" x="468.5" y="122.4883">resultattype : resultatType</text><ellipse cx="459.5" cy="135.1855" fill="none" rx="3" ry="3" style="stroke:#038048;stroke-width:1.0;"/><text fill="#000000" font-family="sans-serif" font-size="14" lengthAdjust="spacing" textLength="178" x="468.5" y="138.9766">resultatListe : resultatListe</text><line style="stroke:#181818;stroke-width:0.5;" x1="449.5" x2="651.5" y1="145.9297" y2="145.9297"/></g><!--class mappe--><g id="elem_mappe"><rect fill="#F1F1F1" height="48" id="mappe" rx="2.5" ry="2.5" style="stroke:#181818;stroke-width:0.5;" width="79" x="7" y="627.79"/><ellipse cx="22" cy="643.79" fill="#ADD1B2" rx="11" ry="11" style="stroke:#181818;stroke-width:1.0;"/><path d="M24.4731,649.9331 Q23.8921,650.2319 23.2529,650.3813 Q22.6138,650.5307 21.9082,650.5307 Q19.4014,650.5307 18.0815,648.8789 Q16.7617,647.227 16.7617,644.1059 Q16.7617,640.9765 18.0815,639.3247 Q19.4014,637.6728 21.9082,637.6728 Q22.6138,637.6728 23.2612,637.8222 Q23.9087,637.9716 24.4731,638.2705 L24.4731,640.9931 Q23.8423,640.4121 23.2488,640.1423 Q22.6553,639.8725 22.0244,639.8725 Q20.6797,639.8725 19.9949,640.9392 Q19.3101,642.0058 19.3101,644.1059 Q19.3101,646.1977 19.9949,647.2644 Q20.6797,648.331 22.0244,648.331 Q22.6553,648.331 23.2488,648.0612 Q23.8423,647.7915 24.4731,647.2104 Z " fill="#000000"/><text fill="#000000" font-family="sans-serif" font-size="14" lengthAdjust="spacing" textLength="47" x="36" y="649.081">mappe</text><line style="stroke:#181818;stroke-width:0.5;" x1="8" x2="85" y1="659.79" y2="659.79"/><line style="stroke:#181818;stroke-width:0.5;" x1="8" x2="85" y1="667.79" y2="667.79"/></g><!--class saksmappe--><g id="elem_saksmappe"><rect fill="#F1F1F1" height="48" id="saksmappe" rx="2.5" ry="2.5" style="stroke:#181818;stroke-width:0.5;" width="109" x="121" y="627.79"/><ellipse cx="136" cy="643.79" fill="#ADD1B2" rx="11" ry="11" style="stroke:#181818;stroke-width:1.0;"/><path d="M138.4731,649.9331 Q137.8921,650.2319 137.2529,650.3813 Q136.6138,650.5307 135.9082,650.5307 Q133.4014,650.5307 132.0815,648.8789 Q130.7617,647.227 130.7617,644.1059 Q130.7617,640.9765 132.0815,639.3247 Q133.4014,637.6728 135.9082,637.6728 Q136.6138,637.6728 137.2612,637.8222 Q137.9087,637.9716 138.4731,638.2705 L138.4731,640.9931 Q137.8423,640.4121 137.2488,640.1423 Q136.6553,639.8725 136.0244,639.8725 Q134.6797,639.8725 133.9949,640.9392 Q133.3101,642.0058 133.3101,644.1059 Q133.3101,646.1977 133.9949,647.2644 Q134.6797,648.331 136.0244,648.331 Q136.6553,648.331 137.2488,648.0612 Q137.8423,647.7915 138.4731,647.2104 Z " fill="#000000"/><text fill="#000000" font-family="sans-serif" font-size="14" lengthAdjust="spacing" textLength="77" x="150" y="649.081">saksmappe</text><line style="stroke:#181818;stroke-width:0.5;" x1="122" x2="229" y1="659.79" y2="659.79"/><line style="stroke:#181818;stroke-width:0.5;" x1="122" x2="229" y1="667.79" y2="667.79"/></g><!--class registrering--><g id="elem_registrering"><rect fill="#F1F1F1" height="48" id="registrering" rx="2.5" ry="2.5" style="stroke:#181818;stroke-width:0.5;" width="113" x="265" y="627.79"/><ellipse cx="280" cy="643.79" fill="#ADD1B2" rx="11" ry="11" style="stroke:#181818;stroke-width:1.0;"/><path d="M282.4731,649.9331 Q281.8921,650.2319 281.2529,650.3813 Q280.6138,650.5307 279.9082,650.5307 Q277.4014,650.5307 276.0815,648.8789 Q274.7617,647.227 274.7617,644.1059 Q274.7617,640.9765 276.0815,639.3247 Q277.4014,637.6728 279.9082,637.6728 Q280.6138,637.6728 281.2612,637.8222 Q281.9087,637.9716 282.4731,638.2705 L282.4731,640.9931 Q281.8423,640.4121 281.2488,640.1423 Q280.6553,639.8725 280.0244,639.8725 Q278.6797,639.8725 277.9949,640.9392 Q277.3101,642.0058 277.3101,644.1059 Q277.3101,646.1977 277.9949,647.2644 Q278.6797,648.331 280.0244,648.331 Q280.6553,648.331 281.2488,648.0612 Q281.8423,647.7915 282.4731,647.2104 Z " fill="#000000"/><text fill="#000000" font-family="sans-serif" font-size="14" lengthAdjust="spacing" textLength="81" x="294" y="649.081">registrering</text><line style="stroke:#181818;stroke-width:0.5;" x1="266" x2="377" y1="659.79" y2="659.79"/><line style="stroke:#181818;stroke-width:0.5;" x1="266" x2="377" y1="667.79" y2="667.79"/></g><!--class journalpost--><g id="elem_journalpost"><rect fill="#F1F1F1" height="48" id="journalpost" rx="2.5" ry="2.5" style="stroke:#181818;stroke-width:0.5;" width="111" x="413" y="627.79"/><ellipse cx="428" cy="643.79" fill="#ADD1B2" rx="11" ry="11" style="stroke:#181818;stroke-width:1.0;"/><path d="M430.4731,649.9331 Q429.8921,650.2319 429.2529,650.3813 Q428.6138,650.5307 427.9082,650.5307 Q425.4014,650.5307 424.0815,648.8789 Q422.7617,647.227 422.7617,644.1059 Q422.7617,640.9765 424.0815,639.3247 Q425.4014,637.6728 427.9082,637.6728 Q428.6138,637.6728 429.2612,637.8222 Q429.9087,637.9716 430.4731,638.2705 L430.4731,640.9931 Q429.8423,640.4121 429.2488,640.1423 Q428.6553,639.8725 428.0244,639.8725 Q426.6797,639.8725 425.9949,640.9392 Q425.3101,642.0058 425.3101,644.1059 Q425.3101,646.1977 425.9949,647.2644 Q426.6797,648.331 428.0244,648.331 Q428.6553,648.331 429.2488,648.0612 Q429.8423,647.7915 430.4731,647.2104 Z " fill="#000000"/><text fill="#000000" font-family="sans-serif" font-size="14" lengthAdjust="spacing" textLength="79" x="442" y="649.081">journalpost</text><line style="stroke:#181818;stroke-width:0.5;" x1="414" x2="523" y1="659.79" y2="659.79"/><line style="stroke:#181818;stroke-width:0.5;" x1="414" x2="523" y1="667.79" y2="667.79"/></g><!--class journalpostMedSaksmappe--><g id="elem_journalpostMedSaksmappe"><rect fill="#F1F1F1" height="48" id="journalpostMedSaksmappe" rx="2.5" ry="2.5" style="stroke:#181818;stroke-width:0.5;" width="218" x="559.5" y="627.79"/><ellipse cx="574.5" cy="643.79" fill="#ADD1B2" rx="11" ry="11" style="stroke:#181818;stroke-width:1.0;"/><path d="M576.9731,649.9331 Q576.3921,650.2319 575.7529,650.3813 Q575.1138,650.5307 574.4082,650.5307 Q571.9014,650.5307 570.5815,648.8789 Q569.2617,647.227 569.2617,644.1059 Q569.2617,640.9765 570.5815,639.3247 Q571.9014,637.6728 574.4082,637.6728 Q575.1138,637.6728 575.7612,637.8222 Q576.4087,637.9716 576.9731,638.2705 L576.9731,640.9931 Q576.3423,640.4121 575.7488,640.1423 Q575.1553,639.8725 574.5244,639.8725 Q573.1797,639.8725 572.4949,640.9392 Q571.8101,642.0058 571.8101,644.1059 Q571.8101,646.1977 572.4949,647.2644 Q573.1797,648.331 574.5244,648.331 Q575.1553,648.331 575.7488,648.0612 Q576.3423,647.7915 576.9731,647.2104 Z " fill="#000000"/><text fill="#000000" font-family="sans-serif" font-size="14" lengthAdjust="spacing" textLength="186" x="588.5" y="649.081">journalpostMedSaksmappe</text><line style="stroke:#181818;stroke-width:0.5;" x1="560.5" x2="776.5" y1="659.79" y2="659.79"/><line style="stroke:#181818;stroke-width:0.5;" x1="560.5" x2="776.5" y1="667.79" y2="667.79"/></g><!--class dokumentbeskrivelse--><g id="elem_dokumentbeskrivelse"><rect fill="#F1F1F1" height="48" id="dokumentbeskrivelse" rx="2.5" ry="2.5" style="stroke:#181818;stroke-width:0.5;" width="178" x="812.5" y="627.79"/><ellipse cx="827.5" cy="643.79" fill="#ADD1B2" rx="11" ry="11" style="stroke:#181818;stroke-width:1.0;"/><path d="M829.9731,649.9331 Q829.3921,650.2319 828.7529,650.3813 Q828.1138,650.5307 827.4082,650.5307 Q824.9014,650.5307 823.5815,648.8789 Q822.2617,647.227 822.2617,644.1059 Q822.2617,640.9765 823.5815,639.3247 Q824.9014,637.6728 827.4082,637.6728 Q828.1138,637.6728 828.7612,637.8222 Q829.4087,637.9716 829.9731,638.2705 L829.9731,640.9931 Q829.3423,640.4121 828.7488,640.1423 Q828.1553,639.8725 827.5244,639.8725 Q826.1797,639.8725 825.4949,640.9392 Q824.8101,642.0058 824.8101,644.1059 Q824.8101,646.1977 825.4949,647.2644 Q826.1797,648.331 827.5244,648.331 Q828.1553,648.331 828.7488,648.0612 Q829.3423,647.7915 829.9731,647.2104 Z " fill="#000000"/><text fill="#000000" font-family="sans-serif" font-size="14" lengthAdjust="spacing" textLength="146" x="841.5" y="649.081">dokumentbeskrivelse</text><line style="stroke:#181818;stroke-width:0.5;" x1="813.5" x2="989.5" y1="659.79" y2="659.79"/><line style="stroke:#181818;stroke-width:0.5;" x1="813.5" x2="989.5" y1="667.79" y2="667.79"/></g><!--link resultat to mappe--><g id="link_resultat_mappe"><path codeLine="3" d="M231.2,568.28 C177.34,592.34 122.1,617.01 86.25,633.03 " fill="none" id="resultat-mappe" style="stroke:#181818;stroke-width:1.0;stroke-dasharray:7.0,7.0;"/></g><!--link resultat to saksmappe--><g id="link_resultat_saksmappe"><path codeLine="4" d="M291.73,568.28 C261.51,589.74 230.59,611.68 208.25,627.54 " fill="none" id="resultat-saksmappe" style="stroke:#181818;stroke-width:1.0;stroke-dasharray:7.0,7.0;"/></g><!--link resultat to registrering--><g id="link_resultat_registrering"><path codeLine="5" d="M360.35,568.05 C350.26,589.55 339.92,611.55 332.45,627.46 " fill="none" id="resultat-registrering" style="stroke:#181818;stroke-width:1.0;stroke-dasharray:7.0,7.0;"/></g><!--link resultat to journalpost--><g id="link_resultat_journalpost"><path codeLine="6" d="M429.12,568.05 C439.35,589.55 449.82,611.55 457.4,627.46 " fill="none" id="resultat-journalpost" style="stroke:#181818;stroke-width:1.0;stroke-dasharray:7.0,7.0;"/></g><!--link resultat to journalpostMedSaksmappe--><g id="link_resultat_journalpostMedSaksmappe"><path codeLine="7" d="M523.08,568.28 C560.76,589.66 599.29,611.52 627.22,627.37 " fill="none" id="resultat-journalpostMedSaksmappe" style="stroke:#181818;stroke-width:1.0;stroke-dasharray:7.0,7.0;"/></g><!--link resultat to dokumentbeskrivelse--><g id="link_resultat_dokumentbeskrivelse"><path codeLine="8" d="M599.99,558.33 C679.31,582.66 765.15,608.98 824.88,627.29 " fill="none" id="resultat-dokumentbeskrivelse" style="stroke:#181818;stroke-width:1.0;stroke-dasharray:7.0,7.0;"/></g><!--link resultatListe to resultat--><g id="link_resultatListe_resultat"><path codeLine="10" d="M394.5,319.97 C394.5,346.69 394.5,386.03 394.5,420.48 " fill="none" id="resultatListe-resultat" style="stroke:#181818;stroke-width:1.0;stroke-dasharray:7.0,7.0;"/></g><!--link sokeresultat to resultatType--><g id="link_sokeresultat_resultatType"><path codeLine="12" d="M605.94,154.29 C620.56,173.51 636.35,194.24 650.98,213.46 " fill="none" id="sokeresultat-resultatType" style="stroke:#181818;stroke-width:1.0;stroke-dasharray:7.0,7.0;"/></g><!--link sokeresultat to resultatListe--><g id="link_sokeresultat_resultatListe"><path codeLine="13" d="M495.06,154.29 C468.88,188.69 438.98,227.97 418.64,254.69 " fill="none" id="sokeresultat-resultatListe" style="stroke:#181818;stroke-width:1.0;stroke-dasharray:7.0,7.0;"/></g><!--SRC=[TOvB3W8X44Jtd08lm4bqfHT0gKnQ623zcSJREv658JgxoglaLPseFeebUDED4ZHqSuuXLZIg3y6liNTCH6AMNyfOI9J1L9UfU3RZ6ajleaVyWdJzAqqjsuggTqXcsb04ttVdVGzZUW3df6NCfqQ-lNRnKVdnk3S0]--></g></svg>