<svg xmlns="http://www.w3.org/2000/svg" xmlns:xlink="http://www.w3.org/1999/xlink" contentStyleType="text/css" height="164px" preserveAspectRatio="none" style="width:1039px;height:164px;background:#FFFFFF;" version="1.1" viewBox="0 0 1039 164" width="1039px" zoomAndPan="magnify"><defs/><g><rect fill="#F1F1F1" height="102.4414" rx="5" ry="5" style="stroke:#F1F1F1;stroke-width:1.5;" width="551" x="10" y="10"/><text fill="#000000" font-family="sans-serif" font-size="14" font-weight="bold" lengthAdjust="spacing" textLength="101" x="15" y="25.5352">protokollnavn</text><text fill="#000000" font-family="sans-serif" font-size="14" lengthAdjust="spacing" textLength="102" x="126" y="25.5352">no.ks.fiks.arkiv</text><line style="stroke:#000000;stroke-width:1.0;" x1="121" x2="121" y1="10" y2="30.4883"/><line style="stroke:#000000;stroke-width:1.0;" x1="10" x2="561" y1="30.4883" y2="30.4883"/><text fill="#000000" font-family="sans-serif" font-size="14" font-weight="bold" lengthAdjust="spacing" textLength="34" x="15" y="46.0234">navn</text><text fill="#000000" font-family="sans-serif" font-size="14" lengthAdjust="spacing" textLength="138" x="126" y="46.0234">skjermingdokument</text><line style="stroke:#000000;stroke-width:1.0;" x1="121" x2="121" y1="30.4883" y2="50.9766"/><line style="stroke:#000000;stroke-width:1.0;" x1="10" x2="561" y1="50.9766" y2="50.9766"/><text fill="#000000" font-family="sans-serif" font-size="14" font-weight="bold" lengthAdjust="spacing" textLength="53" x="15" y="66.5117">versjon</text><text fill="#000000" font-family="sans-serif" font-size="14" lengthAdjust="spacing" textLength="16" x="126" y="66.5117">v1</text><line style="stroke:#000000;stroke-width:1.0;" x1="121" x2="121" y1="50.9766" y2="71.4648"/><line style="stroke:#000000;stroke-width:1.0;" x1="10" x2="561" y1="71.4648" y2="71.4648"/><text fill="#000000" font-family="sans-serif" font-size="14" font-weight="bold" lengthAdjust="spacing" textLength="73" x="15" y="87">definisjon</text><text fill="#000000" font-family="sans-serif" font-size="14" lengthAdjust="spacing" textLength="430" x="126" y="87">Angivelse av at hele dokumentet eller deler av det m&#229; skjermes</text><line style="stroke:#000000;stroke-width:1.0;" x1="121" x2="121" y1="71.4648" y2="91.9531"/><line style="stroke:#000000;stroke-width:1.0;" x1="10" x2="561" y1="91.9531" y2="91.9531"/><text fill="#000000" font-family="sans-serif" font-size="14" font-weight="bold" lengthAdjust="spacing" textLength="67" x="15" y="107.4883">kodeliste</text><text fill="#000000" font-family="sans-serif" font-size="14" lengthAdjust="spacing" textLength="12" x="126" y="107.4883">&#160;&#160;&#160;</text><line style="stroke:#000000;stroke-width:1.0;" x1="121" x2="121" y1="91.9531" y2="112.4414"/><rect fill="none" height="102.4414" rx="5" ry="5" style="stroke:#000000;stroke-width:1.5;" width="551" x="10" y="10"/><rect fill="#F1F1F1" height="40.9766" rx="5" ry="5" style="stroke:#F1F1F1;stroke-width:1.5;" width="22" x="598" y="81.7207"/><text fill="#000000" font-family="sans-serif" font-size="14" lengthAdjust="spacing" textLength="12" x="603" y="97.2559">&#160;&#160;&#160;</text><line style="stroke:#000000;stroke-width:1.0;" x1="598" x2="620" y1="102.209" y2="102.209"/><text fill="#000000" font-family="sans-serif" font-size="14" lengthAdjust="spacing" textLength="12" x="603" y="117.7441">&#160;&#160;&#160;</text><rect fill="none" height="40.9766" rx="5" ry="5" style="stroke:#000000;stroke-width:1.5;" width="22" x="598" y="81.7207"/><rect fill="#F1F1F1" height="40.9766" rx="5" ry="5" style="stroke:#F1F1F1;stroke-width:1.5;" width="345" x="669.5" y="52.7207"/><text fill="#000000" font-family="sans-serif" font-size="14" font-weight="bold" lengthAdjust="spacing" textLength="71" x="674.5" y="68.2559">kodeverdi</text><text fill="#000000" font-family="sans-serif" font-size="14" lengthAdjust="spacing" textLength="10" x="801.5" y="68.2559">H</text><line style="stroke:#000000;stroke-width:1.0;" x1="796.5" x2="796.5" y1="52.7207" y2="73.209"/><line style="stroke:#000000;stroke-width:1.0;" x1="669.5" x2="1014.5" y1="73.209" y2="73.209"/><text fill="#000000" font-family="sans-serif" font-size="14" font-weight="bold" lengthAdjust="spacing" textLength="117" x="674.5" y="88.7441">kodebeskrivelse</text><text fill="#000000" font-family="sans-serif" font-size="14" lengthAdjust="spacing" textLength="208" x="801.5" y="88.7441">Skjerming av hele dokumentet</text><line style="stroke:#000000;stroke-width:1.0;" x1="796.5" x2="796.5" y1="73.209" y2="93.6973"/><rect fill="none" height="40.9766" rx="5" ry="5" style="stroke:#000000;stroke-width:1.5;" width="345" x="669.5" y="52.7207"/><rect fill="#F1F1F1" height="40.9766" rx="5" ry="5" style="stroke:#F1F1F1;stroke-width:1.5;" width="370" x="657" y="111.7207"/><text fill="#000000" font-family="sans-serif" font-size="14" font-weight="bold" lengthAdjust="spacing" textLength="71" x="662" y="127.2559">kodeverdi</text><text fill="#000000" font-family="sans-serif" font-size="14" lengthAdjust="spacing" textLength="10" x="789" y="127.2559">D</text><line style="stroke:#000000;stroke-width:1.0;" x1="784" x2="784" y1="111.7207" y2="132.209"/><line style="stroke:#000000;stroke-width:1.0;" x1="657" x2="1027" y1="132.209" y2="132.209"/><text fill="#000000" font-family="sans-serif" font-size="14" font-weight="bold" lengthAdjust="spacing" textLength="117" x="662" y="147.7441">kodebeskrivelse</text><text fill="#000000" font-family="sans-serif" font-size="14" lengthAdjust="spacing" textLength="233" x="789" y="147.7441">Skjerming av deler av dokumentet</text><line style="stroke:#000000;stroke-width:1.0;" x1="784" x2="784" y1="132.209" y2="152.6973"/><rect fill="none" height="40.9766" rx="5" ry="5" style="stroke:#000000;stroke-width:1.5;" width="370" x="657" y="111.7207"/><path d="M608,92.2207 L621,92.2207 C634.373,92.2207 648.1855,91.8695 662.0707,91.2626 " fill="none" style="stroke:#000000;stroke-width:1.0;stroke-dasharray:3.0,3.0;"/><path d="M662.2159,94.3503 L664.3865,91.1538 L661.9256,88.1749 L669.7899,90.8997 L662.2159,94.3503 " fill="#000000" style="stroke:#000000;stroke-width:1.0;"/><ellipse cx="608" cy="92.2207" fill="#000000" rx="3" ry="3" style="stroke:#000000;stroke-width:1.0;"/><path d="M608,112.2207 L621,112.2207 C630.3266,112.2207 639.866,112.4004 649.4942,112.7256 " fill="none" style="stroke:#000000;stroke-width:1.0;stroke-dasharray:3.0,3.0;"/><path d="M649.3776,115.8209 L651.8156,112.8131 L649.6107,109.6303 L657.2324,113.0171 L649.3776,115.8209 " fill="#000000" style="stroke:#000000;stroke-width:1.0;"/><ellipse cx="608" cy="112.2207" fill="#000000" rx="3" ry="3" style="stroke:#000000;stroke-width:1.0;"/><path d="M549,102.2207 L562,102.2207 C571.4213,102.2207 581.9164,102.2207 590.5483,102.2207 " fill="none" style="stroke:#000000;stroke-width:1.0;stroke-dasharray:3.0,3.0;"/><path d="M590.5483,105.2644 L592.8311,102.2207 L590.5483,99.177 L598.1575,102.2207 L590.5483,105.2644 " fill="#000000" style="stroke:#000000;stroke-width:1.0;"/><ellipse cx="549" cy="102.2207" fill="#000000" rx="3" ry="3" style="stroke:#000000;stroke-width:1.0;"/><!--SRC=[bL7BRi8m4BpxArOvWGIeGO1GJhH0Mr4eg3mkLG-6BDGah97jH4A8p-cNzCUwIPeYzL2fbptCZ6Tcrpthf75xgqcS1O1tDDhfICSnoPIy03pIZSWsjeg7D95AlLecAraRxT4S5Er27IK795VGAHgxrxaYzGienAqYLQAtj5CfnXP1fY0Tl6ECK7gW0unZD11YDbaHCdJu_80Y3crX6MaMAEkG7LyP03ZdyvlY4g7oWDCUS_qFiKORcI8-f-Vb4bdKhoPU_l1I-yj-y0_xwqg_8tY-YOle8ONvTuXPBCaj9sF8hgaqWTzetZHRZNPbdX1Cv0cQ7V3zm6y7xIxqX_C5P7nLL1vcOx0wCHlUXEzZr3fnR50L8vbAU4d8gGC6C3qYZGPF9G13IfNHbBKIezNaAkYqwdVAmHmDLu7LH0nmAvFOyOkD3dcp09QB-tfNZ2Nj4hbZRoJHr-nhJW4yJxy0]--></g></svg>