<?xml version="1.0" encoding="us-ascii" standalone="no"?><svg xmlns="http://www.w3.org/2000/svg" xmlns:xlink="http://www.w3.org/1999/xlink" contentStyleType="text/css" height="416px" preserveAspectRatio="none" style="width:690px;height:416px;background:#FFFFFF;" version="1.1" viewBox="0 0 690 416" width="690px" zoomAndPan="magnify"><defs/><g><rect fill="#F1F1F1" height="102.4414" rx="5" ry="5" style="stroke:#F1F1F1;stroke-width:1.5;" width="298" x="10" y="115.2793"/><text fill="#000000" font-family="sans-serif" font-size="14" font-weight="bold" lengthAdjust="spacing" textLength="101" x="15" y="130.8145">protokollnavn</text><text fill="#000000" font-family="sans-serif" font-size="14" lengthAdjust="spacing" textLength="102" x="126" y="130.8145">no.ks.fiks.arkiv</text><line style="stroke:#000000;stroke-width:1.0;" x1="121" x2="121" y1="115.2793" y2="135.7676"/><line style="stroke:#000000;stroke-width:1.0;" x1="10" x2="308" y1="135.7676" y2="135.7676"/><text fill="#000000" font-family="sans-serif" font-size="14" font-weight="bold" lengthAdjust="spacing" textLength="34" x="15" y="151.3027">navn</text><text fill="#000000" font-family="sans-serif" font-size="14" lengthAdjust="spacing" textLength="169" x="126" y="151.3027">korrespondanseparttype</text><line style="stroke:#000000;stroke-width:1.0;" x1="121" x2="121" y1="135.7676" y2="156.2559"/><line style="stroke:#000000;stroke-width:1.0;" x1="10" x2="308" y1="156.2559" y2="156.2559"/><text fill="#000000" font-family="sans-serif" font-size="14" font-weight="bold" lengthAdjust="spacing" textLength="53" x="15" y="171.791">versjon</text><text fill="#000000" font-family="sans-serif" font-size="14" lengthAdjust="spacing" textLength="16" x="126" y="171.791">v1</text><line style="stroke:#000000;stroke-width:1.0;" x1="121" x2="121" y1="156.2559" y2="176.7441"/><line style="stroke:#000000;stroke-width:1.0;" x1="10" x2="308" y1="176.7441" y2="176.7441"/><text fill="#000000" font-family="sans-serif" font-size="14" font-weight="bold" lengthAdjust="spacing" textLength="73" x="15" y="192.2793">definisjon</text><text fill="#000000" font-family="sans-serif" font-size="14" lengthAdjust="spacing" textLength="177" x="126" y="192.2793">Type korrespondansepart</text><line style="stroke:#000000;stroke-width:1.0;" x1="121" x2="121" y1="176.7441" y2="197.2324"/><line style="stroke:#000000;stroke-width:1.0;" x1="10" x2="308" y1="197.2324" y2="197.2324"/><text fill="#000000" font-family="sans-serif" font-size="14" font-weight="bold" lengthAdjust="spacing" textLength="67" x="15" y="212.7676">kodeliste</text><text fill="#000000" font-family="sans-serif" font-size="14" lengthAdjust="spacing" textLength="12" x="126" y="212.7676">&#160;&#160;&#160;</text><line style="stroke:#000000;stroke-width:1.0;" x1="121" x2="121" y1="197.2324" y2="217.7207"/><rect fill="none" height="102.4414" rx="5" ry="5" style="stroke:#000000;stroke-width:1.5;" width="298" x="10" y="115.2793"/><rect fill="#F1F1F1" height="143.418" rx="5" ry="5" style="stroke:#F1F1F1;stroke-width:1.5;" width="22" x="345" y="135.791"/><text fill="#000000" font-family="sans-serif" font-size="14" lengthAdjust="spacing" textLength="12" x="350" y="151.3262">&#160;&#160;&#160;</text><line style="stroke:#000000;stroke-width:1.0;" x1="345" x2="367" y1="156.2793" y2="156.2793"/><text fill="#000000" font-family="sans-serif" font-size="14" lengthAdjust="spacing" textLength="12" x="350" y="171.8145">&#160;&#160;&#160;</text><line style="stroke:#000000;stroke-width:1.0;" x1="345" x2="367" y1="176.7676" y2="176.7676"/><text fill="#000000" font-family="sans-serif" font-size="14" lengthAdjust="spacing" textLength="12" x="350" y="192.3027">&#160;&#160;&#160;</text><line style="stroke:#000000;stroke-width:1.0;" x1="345" x2="367" y1="197.2559" y2="197.2559"/><text fill="#000000" font-family="sans-serif" font-size="14" lengthAdjust="spacing" textLength="12" x="350" y="212.791">&#160;&#160;&#160;</text><line style="stroke:#000000;stroke-width:1.0;" x1="345" x2="367" y1="217.7441" y2="217.7441"/><text fill="#000000" font-family="sans-serif" font-size="14" lengthAdjust="spacing" textLength="12" x="350" y="233.2793">&#160;&#160;&#160;</text><line style="stroke:#000000;stroke-width:1.0;" x1="345" x2="367" y1="238.2324" y2="238.2324"/><text fill="#000000" font-family="sans-serif" font-size="14" lengthAdjust="spacing" textLength="12" x="350" y="253.7676">&#160;&#160;&#160;</text><line style="stroke:#000000;stroke-width:1.0;" x1="345" x2="367" y1="258.7207" y2="258.7207"/><text fill="#000000" font-family="sans-serif" font-size="14" lengthAdjust="spacing" textLength="12" x="350" y="274.2559">&#160;&#160;&#160;</text><rect fill="none" height="143.418" rx="5" ry="5" style="stroke:#000000;stroke-width:1.5;" width="22" x="345" y="135.791"/><rect fill="#F1F1F1" height="40.9766" rx="5" ry="5" style="stroke:#F1F1F1;stroke-width:1.5;" width="201" x="440.5" y="10"/><text fill="#000000" font-family="sans-serif" font-size="14" font-weight="bold" lengthAdjust="spacing" textLength="71" x="445.5" y="25.5352">kodeverdi</text><text fill="#000000" font-family="sans-serif" font-size="14" lengthAdjust="spacing" textLength="18" x="572.5" y="25.5352">EA</text><line style="stroke:#000000;stroke-width:1.0;" x1="567.5" x2="567.5" y1="10" y2="30.4883"/><line style="stroke:#000000;stroke-width:1.0;" x1="440.5" x2="641.5" y1="30.4883" y2="30.4883"/><text fill="#000000" font-family="sans-serif" font-size="14" font-weight="bold" lengthAdjust="spacing" textLength="117" x="445.5" y="46.0234">kodebeskrivelse</text><text fill="#000000" font-family="sans-serif" font-size="14" lengthAdjust="spacing" textLength="64" x="572.5" y="46.0234">Avsender</text><line style="stroke:#000000;stroke-width:1.0;" x1="567.5" x2="567.5" y1="30.4883" y2="50.9766"/><rect fill="none" height="40.9766" rx="5" ry="5" style="stroke:#000000;stroke-width:1.5;" width="201" x="440.5" y="10"/><rect fill="#F1F1F1" height="40.9766" rx="5" ry="5" style="stroke:#F1F1F1;stroke-width:1.5;" width="198" x="442" y="69"/><text fill="#000000" font-family="sans-serif" font-size="14" font-weight="bold" lengthAdjust="spacing" textLength="71" x="447" y="84.5352">kodeverdi</text><text fill="#000000" font-family="sans-serif" font-size="14" lengthAdjust="spacing" textLength="20" x="574" y="84.5352">EM</text><line style="stroke:#000000;stroke-width:1.0;" x1="569" x2="569" y1="69" y2="89.4883"/><line style="stroke:#000000;stroke-width:1.0;" x1="442" x2="640" y1="89.4883" y2="89.4883"/><text fill="#000000" font-family="sans-serif" font-size="14" font-weight="bold" lengthAdjust="spacing" textLength="117" x="447" y="105.0234">kodebeskrivelse</text><text fill="#000000" font-family="sans-serif" font-size="14" lengthAdjust="spacing" textLength="61" x="574" y="105.0234">Mottaker</text><line style="stroke:#000000;stroke-width:1.0;" x1="569" x2="569" y1="89.4883" y2="109.9766"/><rect fill="none" height="40.9766" rx="5" ry="5" style="stroke:#000000;stroke-width:1.5;" width="198" x="442" y="69"/><rect fill="#F1F1F1" height="40.9766" rx="5" ry="5" style="stroke:#F1F1F1;stroke-width:1.5;" width="230" x="426" y="128"/><text fill="#000000" font-family="sans-serif" font-size="14" font-weight="bold" lengthAdjust="spacing" textLength="71" x="431" y="143.5352">kodeverdi</text><text fill="#000000" font-family="sans-serif" font-size="14" lengthAdjust="spacing" textLength="17" x="558" y="143.5352">EK</text><line style="stroke:#000000;stroke-width:1.0;" x1="553" x2="553" y1="128" y2="148.4883"/><line style="stroke:#000000;stroke-width:1.0;" x1="426" x2="656" y1="148.4883" y2="148.4883"/><text fill="#000000" font-family="sans-serif" font-size="14" font-weight="bold" lengthAdjust="spacing" textLength="117" x="431" y="164.0234">kodebeskrivelse</text><text fill="#000000" font-family="sans-serif" font-size="14" lengthAdjust="spacing" textLength="93" x="558" y="164.0234">Kopimottaker</text><line style="stroke:#000000;stroke-width:1.0;" x1="553" x2="553" y1="148.4883" y2="168.9766"/><rect fill="none" height="40.9766" rx="5" ry="5" style="stroke:#000000;stroke-width:1.5;" width="230" x="426" y="128"/><rect fill="#F1F1F1" height="40.9766" rx="5" ry="5" style="stroke:#F1F1F1;stroke-width:1.5;" width="250" x="416" y="187"/><text fill="#000000" font-family="sans-serif" font-size="14" font-weight="bold" lengthAdjust="spacing" textLength="71" x="421" y="202.5352">kodeverdi</text><text fill="#000000" font-family="sans-serif" font-size="14" lengthAdjust="spacing" textLength="22" x="548" y="202.5352">GM</text><line style="stroke:#000000;stroke-width:1.0;" x1="543" x2="543" y1="187" y2="207.4883"/><line style="stroke:#000000;stroke-width:1.0;" x1="416" x2="666" y1="207.4883" y2="207.4883"/><text fill="#000000" font-family="sans-serif" font-size="14" font-weight="bold" lengthAdjust="spacing" textLength="117" x="421" y="223.0234">kodebeskrivelse</text><text fill="#000000" font-family="sans-serif" font-size="14" lengthAdjust="spacing" textLength="113" x="548" y="223.0234">Gruppemottaker</text><line style="stroke:#000000;stroke-width:1.0;" x1="543" x2="543" y1="207.4883" y2="227.9766"/><rect fill="none" height="40.9766" rx="5" ry="5" style="stroke:#000000;stroke-width:1.5;" width="250" x="416" y="187"/><rect fill="#F1F1F1" height="40.9766" rx="5" ry="5" style="stroke:#F1F1F1;stroke-width:1.5;" width="244" x="419" y="246"/><text fill="#000000" font-family="sans-serif" font-size="14" font-weight="bold" lengthAdjust="spacing" textLength="71" x="424" y="261.5352">kodeverdi</text><text fill="#000000" font-family="sans-serif" font-size="14" lengthAdjust="spacing" textLength="14" x="551" y="261.5352">IA</text><line style="stroke:#000000;stroke-width:1.0;" x1="546" x2="546" y1="246" y2="266.4883"/><line style="stroke:#000000;stroke-width:1.0;" x1="419" x2="663" y1="266.4883" y2="266.4883"/><text fill="#000000" font-family="sans-serif" font-size="14" font-weight="bold" lengthAdjust="spacing" textLength="117" x="424" y="282.0234">kodebeskrivelse</text><text fill="#000000" font-family="sans-serif" font-size="14" lengthAdjust="spacing" textLength="107" x="551" y="282.0234">Intern avsender</text><line style="stroke:#000000;stroke-width:1.0;" x1="546" x2="546" y1="266.4883" y2="286.9766"/><rect fill="none" height="40.9766" rx="5" ry="5" style="stroke:#000000;stroke-width:1.5;" width="244" x="419" y="246"/><rect fill="#F1F1F1" height="40.9766" rx="5" ry="5" style="stroke:#F1F1F1;stroke-width:1.5;" width="244" x="419" y="305"/><text fill="#000000" font-family="sans-serif" font-size="14" font-weight="bold" lengthAdjust="spacing" textLength="71" x="424" y="320.5352">kodeverdi</text><text fill="#000000" font-family="sans-serif" font-size="14" lengthAdjust="spacing" textLength="16" x="551" y="320.5352">IM</text><line style="stroke:#000000;stroke-width:1.0;" x1="546" x2="546" y1="305" y2="325.4883"/><line style="stroke:#000000;stroke-width:1.0;" x1="419" x2="663" y1="325.4883" y2="325.4883"/><text fill="#000000" font-family="sans-serif" font-size="14" font-weight="bold" lengthAdjust="spacing" textLength="117" x="424" y="341.0234">kodebeskrivelse</text><text fill="#000000" font-family="sans-serif" font-size="14" lengthAdjust="spacing" textLength="107" x="551" y="341.0234">Intern mottaker</text><line style="stroke:#000000;stroke-width:1.0;" x1="546" x2="546" y1="325.4883" y2="345.9766"/><rect fill="none" height="40.9766" rx="5" ry="5" style="stroke:#000000;stroke-width:1.5;" width="244" x="419" y="305"/><rect fill="#F1F1F1" height="40.9766" rx="5" ry="5" style="stroke:#F1F1F1;stroke-width:1.5;" width="274" x="404" y="364"/><text fill="#000000" font-family="sans-serif" font-size="14" font-weight="bold" lengthAdjust="spacing" textLength="71" x="409" y="379.5352">kodeverdi</text><text fill="#000000" font-family="sans-serif" font-size="14" lengthAdjust="spacing" textLength="13" x="536" y="379.5352">IK</text><line style="stroke:#000000;stroke-width:1.0;" x1="531" x2="531" y1="364" y2="384.4883"/><line style="stroke:#000000;stroke-width:1.0;" x1="404" x2="678" y1="384.4883" y2="384.4883"/><text fill="#000000" font-family="sans-serif" font-size="14" font-weight="bold" lengthAdjust="spacing" textLength="117" x="409" y="400.0234">kodebeskrivelse</text><text fill="#000000" font-family="sans-serif" font-size="14" lengthAdjust="spacing" textLength="137" x="536" y="400.0234">Intern kopimottaker</text><line style="stroke:#000000;stroke-width:1.0;" x1="531" x2="531" y1="384.4883" y2="404.9766"/><rect fill="none" height="40.9766" rx="5" ry="5" style="stroke:#000000;stroke-width:1.5;" width="274" x="404" y="364"/><path d="M355,146.5 L368,146.5 C409.8463,146.5 371.8303,86.2623 404,59.5 C412.7848,52.1918 422.9664,46.5922 433.7317,42.3196 " fill="none" style="stroke:#000000;stroke-width:1.0;stroke-dasharray:3.0,3.0;"/><path d="M434.78,45.1795 L435.8766,41.5334 L432.6834,39.4597 L440.8815,39.6989 L434.78,45.1795 " fill="#000000" style="stroke:#000000;stroke-width:1.0;"/><ellipse cx="355" cy="146.5" fill="#000000" rx="3" ry="3" style="stroke:#000000;stroke-width:1.0;"/><path d="M355,166.5 L368,166.5 C394.6667,166.5 381.5251,132.8524 404,118.5 C413.5473,112.4031 424.1606,107.566 435.1321,103.7317 " fill="none" style="stroke:#000000;stroke-width:1.0;stroke-dasharray:3.0,3.0;"/><path d="M436.0833,106.6333 L437.3083,103.0184 L434.181,100.8302 L442.3861,101.3538 L436.0833,106.6333 " fill="#000000" style="stroke:#000000;stroke-width:1.0;"/><ellipse cx="355" cy="166.5" fill="#000000" rx="3" ry="3" style="stroke:#000000;stroke-width:1.0;"/><path d="M355,187.5 L368,187.5 C384.4924,187.5 387.9444,182.2705 404,178.5 C414.9477,175.929 426.4055,173.3057 437.8298,170.7332 " fill="none" style="stroke:#000000;stroke-width:1.0;stroke-dasharray:3.0,3.0;"/><path d="M438.5027,173.7319 L440.0789,170.2285 L437.157,167.7344 L445.3267,169.051 L438.5027,173.7319 " fill="#000000" style="stroke:#000000;stroke-width:1.0;"/><ellipse cx="355" cy="187.5" fill="#000000" rx="3" ry="3" style="stroke:#000000;stroke-width:1.0;"/><path d="M355,207.5 L368,207.5 C381.1396,207.5 394.8423,207.5 408.529,207.5 " fill="none" style="stroke:#000000;stroke-width:1.0;stroke-dasharray:3.0,3.0;"/><path d="M408.529,210.5394 L410.8085,207.5 L408.529,204.4606 L416.1274,207.5 L408.529,210.5394 " fill="#000000" style="stroke:#000000;stroke-width:1.0;"/><ellipse cx="355" cy="207.5" fill="#000000" rx="3" ry="3" style="stroke:#000000;stroke-width:1.0;"/><path d="M355,227.5 L368,227.5 C384.6058,227.5 387.8707,233.5504 404,237.5 C413.3759,239.7959 423.1398,242.0796 432.9438,244.2993 " fill="none" style="stroke:#000000;stroke-width:1.0;stroke-dasharray:3.0,3.0;"/><path d="M432.2702,247.299 L435.1936,244.8045 L433.6174,241.2996 L440.443,245.9834 L432.2702,247.299 " fill="#000000" style="stroke:#000000;stroke-width:1.0;"/><ellipse cx="355" cy="227.5" fill="#000000" rx="3" ry="3" style="stroke:#000000;stroke-width:1.0;"/><path d="M355,248.5 L368,248.5 C394.6667,248.5 381.5251,282.1476 404,296.5 C406.7565,298.2603 409.6019,299.9156 412.5191,301.4721 " fill="none" style="stroke:#000000;stroke-width:1.0;stroke-dasharray:3.0,3.0;"/><path d="M411.137,304.2437 L414.5978,302.5086 L413.9012,298.7004 L419.4482,304.9273 L411.137,304.2437 " fill="#000000" style="stroke:#000000;stroke-width:1.0;"/><ellipse cx="355" cy="248.5" fill="#000000" rx="3" ry="3" style="stroke:#000000;stroke-width:1.0;"/><path d="M355,268.5 L368,268.5 C409.8463,268.5 371.8303,328.7377 404,355.5 C405.7461,356.9526 407.5473,358.3376 409.3973,359.6582 " fill="none" style="stroke:#000000;stroke-width:1.0;stroke-dasharray:3.0,3.0;"/><path d="M407.699,362.2457 L411.338,360.9319 L411.0956,357.0707 L415.8661,363.9039 L407.699,362.2457 " fill="#000000" style="stroke:#000000;stroke-width:1.0;"/><ellipse cx="355" cy="268.5" fill="#000000" rx="3" ry="3" style="stroke:#000000;stroke-width:1.0;"/><path d="M296,207.5 L309,207.5 C318.4213,207.5 328.9164,207.5 337.5483,207.5 " fill="none" style="stroke:#000000;stroke-width:1.0;stroke-dasharray:3.0,3.0;"/><path d="M337.5483,210.5437 L339.8311,207.5 L337.5483,204.4563 L345.1575,207.5 L337.5483,210.5437 " fill="#000000" style="stroke:#000000;stroke-width:1.0;"/><ellipse cx="296" cy="207.5" fill="#000000" rx="3" ry="3" style="stroke:#000000;stroke-width:1.0;"/><!--SRC=[bPBDQy904CNl-rSCEIbeIBGKoKchLln8bVfnAJsiPfGrSJRiRW8Y_kzTOsqFWX-NERptviTZcAOsN9cjbiGE3C19bJGobab2F2Sd08Ua6sjtBUpWAXQvKpd5BcuibKATIeeuQKmjoknJF6ToL7ehYrZkdwK8ruB4HPtPA5mJpj5OHfW8RT0clwm0S2ZchsNXaN30KhgjOk7FMQAEbSWnqLZuhLmZHQYS8dIit6I5jrcXD8R73xA6jrb3cOhT4xpUdMuzbQKfFaFitxbSdmmg0lx40VlXGyYdMWuVGiRNvxJpcnrPqxOl7fnD4avc7exWz9f24lXkpQlLtKPfcX64V0yr7tmlg3S2puDsTpg3arzcfTva15fcQeKGsQTKOfaP2oYp0SyvV6Pan0u36AT8Wyxm8a2NSg4axP0C6op2_y3hI_LD69YYibLW4R8EhdcM6Bknaf6WJG3psNkrmKQSDXdVM3OIQqlBLVi0FiO_]--></g></svg>