<svg xmlns="http://www.w3.org/2000/svg" xmlns:xlink="http://www.w3.org/1999/xlink" contentStyleType="text/css" height="193px" preserveAspectRatio="none" style="width:1068px;height:193px;background:#FFFFFF;" version="1.1" viewBox="0 0 1068 193" width="1068px" zoomAndPan="magnify"><defs/><g><rect fill="#F1F1F1" height="102.4414" rx="5" ry="5" style="stroke:#F1F1F1;stroke-width:1.5;" width="498" x="10" y="10"/><text fill="#000000" font-family="sans-serif" font-size="14" font-weight="bold" lengthAdjust="spacing" textLength="101" x="15" y="25.5352">protokollnavn</text><text fill="#000000" font-family="sans-serif" font-size="14" lengthAdjust="spacing" textLength="102" x="126" y="25.5352">no.ks.fiks.arkiv</text><line style="stroke:#000000;stroke-width:1.0;" x1="121" x2="121" y1="10" y2="30.4883"/><line style="stroke:#000000;stroke-width:1.0;" x1="10" x2="508" y1="30.4883" y2="30.4883"/><text fill="#000000" font-family="sans-serif" font-size="14" font-weight="bold" lengthAdjust="spacing" textLength="34" x="15" y="46.0234">navn</text><text fill="#000000" font-family="sans-serif" font-size="14" lengthAdjust="spacing" textLength="93" x="126" y="46.0234">variantformat</text><line style="stroke:#000000;stroke-width:1.0;" x1="121" x2="121" y1="30.4883" y2="50.9766"/><line style="stroke:#000000;stroke-width:1.0;" x1="10" x2="508" y1="50.9766" y2="50.9766"/><text fill="#000000" font-family="sans-serif" font-size="14" font-weight="bold" lengthAdjust="spacing" textLength="53" x="15" y="66.5117">versjon</text><text fill="#000000" font-family="sans-serif" font-size="14" lengthAdjust="spacing" textLength="16" x="126" y="66.5117">v1</text><line style="stroke:#000000;stroke-width:1.0;" x1="121" x2="121" y1="50.9766" y2="71.4648"/><line style="stroke:#000000;stroke-width:1.0;" x1="10" x2="508" y1="71.4648" y2="71.4648"/><text fill="#000000" font-family="sans-serif" font-size="14" font-weight="bold" lengthAdjust="spacing" textLength="73" x="15" y="87">definisjon</text><text fill="#000000" font-family="sans-serif" font-size="14" lengthAdjust="spacing" textLength="377" x="126" y="87">Angivelse av hvilken variant et dokument forekommer i</text><line style="stroke:#000000;stroke-width:1.0;" x1="121" x2="121" y1="71.4648" y2="91.9531"/><line style="stroke:#000000;stroke-width:1.0;" x1="10" x2="508" y1="91.9531" y2="91.9531"/><text fill="#000000" font-family="sans-serif" font-size="14" font-weight="bold" lengthAdjust="spacing" textLength="67" x="15" y="107.4883">kodeliste</text><text fill="#000000" font-family="sans-serif" font-size="14" lengthAdjust="spacing" textLength="12" x="126" y="107.4883">&#160;&#160;&#160;</text><line style="stroke:#000000;stroke-width:1.0;" x1="121" x2="121" y1="91.9531" y2="112.4414"/><rect fill="none" height="102.4414" rx="5" ry="5" style="stroke:#000000;stroke-width:1.5;" width="498" x="10" y="10"/><rect fill="#F1F1F1" height="61.4648" rx="5" ry="5" style="stroke:#F1F1F1;stroke-width:1.5;" width="22" x="545" y="71.4883"/><text fill="#000000" font-family="sans-serif" font-size="14" lengthAdjust="spacing" textLength="12" x="550" y="87.0234">&#160;&#160;&#160;</text><line style="stroke:#000000;stroke-width:1.0;" x1="545" x2="567" y1="91.9766" y2="91.9766"/><text fill="#000000" font-family="sans-serif" font-size="14" lengthAdjust="spacing" textLength="12" x="550" y="107.5117">&#160;&#160;&#160;</text><line style="stroke:#000000;stroke-width:1.0;" x1="545" x2="567" y1="112.4648" y2="112.4648"/><text fill="#000000" font-family="sans-serif" font-size="14" lengthAdjust="spacing" textLength="12" x="550" y="128">&#160;&#160;&#160;</text><rect fill="none" height="61.4648" rx="5" ry="5" style="stroke:#000000;stroke-width:1.5;" width="22" x="545" y="71.4883"/><rect fill="#F1F1F1" height="40.9766" rx="5" ry="5" style="stroke:#F1F1F1;stroke-width:1.5;" width="268" x="696" y="22.7207"/><text fill="#000000" font-family="sans-serif" font-size="14" font-weight="bold" lengthAdjust="spacing" textLength="71" x="701" y="38.2559">kodeverdi</text><text fill="#000000" font-family="sans-serif" font-size="14" lengthAdjust="spacing" textLength="8" x="828" y="38.2559">P</text><line style="stroke:#000000;stroke-width:1.0;" x1="823" x2="823" y1="22.7207" y2="43.209"/><line style="stroke:#000000;stroke-width:1.0;" x1="696" x2="964" y1="43.209" y2="43.209"/><text fill="#000000" font-family="sans-serif" font-size="14" font-weight="bold" lengthAdjust="spacing" textLength="117" x="701" y="58.7441">kodebeskrivelse</text><text fill="#000000" font-family="sans-serif" font-size="14" lengthAdjust="spacing" textLength="131" x="828" y="58.7441">Produksjonsformat</text><line style="stroke:#000000;stroke-width:1.0;" x1="823" x2="823" y1="43.209" y2="63.6973"/><rect fill="none" height="40.9766" rx="5" ry="5" style="stroke:#000000;stroke-width:1.5;" width="268" x="696" y="22.7207"/><rect fill="#F1F1F1" height="40.9766" rx="5" ry="5" style="stroke:#F1F1F1;stroke-width:1.5;" width="218" x="721" y="81.7207"/><text fill="#000000" font-family="sans-serif" font-size="14" font-weight="bold" lengthAdjust="spacing" textLength="71" x="726" y="97.2559">kodeverdi</text><text fill="#000000" font-family="sans-serif" font-size="14" lengthAdjust="spacing" textLength="10" x="853" y="97.2559">A</text><line style="stroke:#000000;stroke-width:1.0;" x1="848" x2="848" y1="81.7207" y2="102.209"/><line style="stroke:#000000;stroke-width:1.0;" x1="721" x2="939" y1="102.209" y2="102.209"/><text fill="#000000" font-family="sans-serif" font-size="14" font-weight="bold" lengthAdjust="spacing" textLength="117" x="726" y="117.7441">kodebeskrivelse</text><text fill="#000000" font-family="sans-serif" font-size="14" lengthAdjust="spacing" textLength="81" x="853" y="117.7441">Arkivformat</text><line style="stroke:#000000;stroke-width:1.0;" x1="848" x2="848" y1="102.209" y2="122.6973"/><rect fill="none" height="40.9766" rx="5" ry="5" style="stroke:#000000;stroke-width:1.5;" width="218" x="721" y="81.7207"/><rect fill="#F1F1F1" height="40.9766" rx="5" ry="5" style="stroke:#F1F1F1;stroke-width:1.5;" width="452" x="604" y="140.7207"/><text fill="#000000" font-family="sans-serif" font-size="14" font-weight="bold" lengthAdjust="spacing" textLength="71" x="609" y="156.2559">kodeverdi</text><text fill="#000000" font-family="sans-serif" font-size="14" lengthAdjust="spacing" textLength="11" x="736" y="156.2559">O</text><line style="stroke:#000000;stroke-width:1.0;" x1="731" x2="731" y1="140.7207" y2="161.209"/><line style="stroke:#000000;stroke-width:1.0;" x1="604" x2="1056" y1="161.209" y2="161.209"/><text fill="#000000" font-family="sans-serif" font-size="14" font-weight="bold" lengthAdjust="spacing" textLength="117" x="609" y="176.7441">kodebeskrivelse</text><text fill="#000000" font-family="sans-serif" font-size="14" lengthAdjust="spacing" textLength="315" x="736" y="176.7441">Dokument hvor deler av innholdet er skjermet</text><line style="stroke:#000000;stroke-width:1.0;" x1="731" x2="731" y1="161.209" y2="181.6973"/><rect fill="none" height="40.9766" rx="5" ry="5" style="stroke:#000000;stroke-width:1.5;" width="452" x="604" y="140.7207"/><path d="M555,82.2207 L568,82.2207 C584.4924,82.2207 587.8001,76.3131 604,73.2207 C631.3318,68.0034 660.6992,63.3855 688.9117,59.4324 " fill="none" style="stroke:#000000;stroke-width:1.0;stroke-dasharray:3.0,3.0;"/><path d="M689.3292,62.4457 L691.1717,59.1192 L688.4941,56.419 L696.445,58.3886 L689.3292,62.4457 " fill="#000000" style="stroke:#000000;stroke-width:1.0;"/><ellipse cx="555" cy="82.2207" fill="#000000" rx="3" ry="3" style="stroke:#000000;stroke-width:1.0;"/><path d="M555,102.2207 L568,102.2207 C615.7358,102.2207 668.3732,102.2207 713.8328,102.2207 " fill="none" style="stroke:#000000;stroke-width:1.0;stroke-dasharray:3.0,3.0;"/><path d="M713.8328,105.2301 L716.0898,102.2207 L713.8328,99.2113 L721.3562,102.2207 L713.8328,105.2301 " fill="#000000" style="stroke:#000000;stroke-width:1.0;"/><ellipse cx="555" cy="102.2207" fill="#000000" rx="3" ry="3" style="stroke:#000000;stroke-width:1.0;"/><path d="M555,122.2207 L568,122.2207 C584.6058,122.2207 587.7233,128.931 604,132.2207 C616.8945,134.8268 630.2535,137.2459 643.7376,139.4824 " fill="none" style="stroke:#000000;stroke-width:1.0;stroke-dasharray:3.0,3.0;"/><path d="M643.2481,142.4832 L645.9881,139.8495 L644.2271,136.4817 L651.2395,140.7062 L643.2481,142.4832 " fill="#000000" style="stroke:#000000;stroke-width:1.0;"/><ellipse cx="555" cy="122.2207" fill="#000000" rx="3" ry="3" style="stroke:#000000;stroke-width:1.0;"/><path d="M496,102.2207 L509,102.2207 C518.4213,102.2207 528.9164,102.2207 537.5483,102.2207 " fill="none" style="stroke:#000000;stroke-width:1.0;stroke-dasharray:3.0,3.0;"/><path d="M537.5483,105.2644 L539.8311,102.2207 L537.5483,99.177 L545.1575,102.2207 L537.5483,105.2644 " fill="#000000" style="stroke:#000000;stroke-width:1.0;"/><ellipse cx="496" cy="102.2207" fill="#000000" rx="3" ry="3" style="stroke:#000000;stroke-width:1.0;"/><!--SRC=[ZP71JiCm38RlUGgh9v1WeXD3g2S60wIniOa15yGX46_BqjeeIICXnBlZhYlS9YvMuj_vxFo-257xk0bCwai1P1-U8pikIzA9iW8oufuBlQMLeBspAJjgoZerQMyrnINxIiTMIkZ3XbirRrC6bvPibntIoYOi0u9Ei4wsT4Ym0m56CEpg2kKiL7HSLUZ1jY371aiR8WhdHH80NzkuawIriHb8Z_cs_bTum-1ysxILFPlQDGE5tUZRwk-ZVSpXVkQmSUV_jDb-sgWpOPtOW_nQJ12xBD6QIoCkoJsu3VeAktOINzMtka0ostsgUIcEFaqdqAp4Ca7Uwv_qJtk3WqLDCDMVq3-3F2_oGJ4uXwlhnICq-g4wk9rF873jtn6CsEtjMnq5SAZ6Ecbug2dQ2WkOVI2DHtTT0gufMS_KpAt6pzE_WhFJuqiROO5UHe7dgHhXKjTbb1VlR2oj2dXwl3a-LnDDgrglX8sahbYu_hE0-zaF]--></g></svg>