<?xml version="1.0" encoding="us-ascii" standalone="no"?><svg xmlns="http://www.w3.org/2000/svg" xmlns:xlink="http://www.w3.org/1999/xlink" contentStyleType="text/css" height="501px" preserveAspectRatio="none" style="width:665px;height:501px;background:#FFFFFF;" version="1.1" viewBox="0 0 665 501" width="665px" zoomAndPan="magnify"><defs/><g><text fill="#000000" font-family="sans-serif" font-size="14" font-weight="bold" lengthAdjust="spacing" textLength="188" x="237.75" y="28.5352">Melding - feil ved mottak</text><line style="stroke:#181818;stroke-width:0.5;stroke-dasharray:5.0,5.0;" x1="91" x2="91" y1="78.6875" y2="147.3086"/><line style="stroke:#A80036;stroke-width:1.0;stroke-dasharray:1.0,4.0;" x1="91" x2="91" y1="147.3086" y2="201.2188"/><line style="stroke:#181818;stroke-width:0.5;stroke-dasharray:5.0,5.0;" x1="91" x2="91" y1="201.2188" y2="230.5293"/><line style="stroke:#A80036;stroke-width:1.0;stroke-dasharray:1.0,4.0;" x1="91" x2="91" y1="230.5293" y2="284.4395"/><line style="stroke:#181818;stroke-width:0.5;stroke-dasharray:5.0,5.0;" x1="91" x2="91" y1="284.4395" y2="313.75"/><line style="stroke:#A80036;stroke-width:1.0;stroke-dasharray:1.0,4.0;" x1="91" x2="91" y1="313.75" y2="367.6602"/><line style="stroke:#181818;stroke-width:0.5;stroke-dasharray:5.0,5.0;" x1="91" x2="91" y1="367.6602" y2="367.6602"/><line style="stroke:#A80036;stroke-width:1.0;stroke-dasharray:1.0,4.0;" x1="91" x2="91" y1="367.6602" y2="421.5703"/><line style="stroke:#181818;stroke-width:0.5;stroke-dasharray:5.0,5.0;" x1="91" x2="91" y1="421.5703" y2="460.8809"/><line style="stroke:#181818;stroke-width:0.5;stroke-dasharray:5.0,5.0;" x1="333" x2="333" y1="78.6875" y2="147.3086"/><line style="stroke:#A80036;stroke-width:1.0;stroke-dasharray:1.0,4.0;" x1="333" x2="333" y1="147.3086" y2="201.2188"/><line style="stroke:#181818;stroke-width:0.5;stroke-dasharray:5.0,5.0;" x1="333" x2="333" y1="201.2188" y2="230.5293"/><line style="stroke:#A80036;stroke-width:1.0;stroke-dasharray:1.0,4.0;" x1="333" x2="333" y1="230.5293" y2="284.4395"/><line style="stroke:#181818;stroke-width:0.5;stroke-dasharray:5.0,5.0;" x1="333" x2="333" y1="284.4395" y2="313.75"/><line style="stroke:#A80036;stroke-width:1.0;stroke-dasharray:1.0,4.0;" x1="333" x2="333" y1="313.75" y2="367.6602"/><line style="stroke:#181818;stroke-width:0.5;stroke-dasharray:5.0,5.0;" x1="333" x2="333" y1="367.6602" y2="367.6602"/><line style="stroke:#A80036;stroke-width:1.0;stroke-dasharray:1.0,4.0;" x1="333" x2="333" y1="367.6602" y2="421.5703"/><line style="stroke:#181818;stroke-width:0.5;stroke-dasharray:5.0,5.0;" x1="333" x2="333" y1="421.5703" y2="460.8809"/><line style="stroke:#181818;stroke-width:0.5;stroke-dasharray:5.0,5.0;" x1="562.5" x2="562.5" y1="78.6875" y2="147.3086"/><line style="stroke:#A80036;stroke-width:1.0;stroke-dasharray:1.0,4.0;" x1="562.5" x2="562.5" y1="147.3086" y2="201.2188"/><line style="stroke:#181818;stroke-width:0.5;stroke-dasharray:5.0,5.0;" x1="562.5" x2="562.5" y1="201.2188" y2="230.5293"/><line style="stroke:#A80036;stroke-width:1.0;stroke-dasharray:1.0,4.0;" x1="562.5" x2="562.5" y1="230.5293" y2="284.4395"/><line style="stroke:#181818;stroke-width:0.5;stroke-dasharray:5.0,5.0;" x1="562.5" x2="562.5" y1="284.4395" y2="313.75"/><line style="stroke:#A80036;stroke-width:1.0;stroke-dasharray:1.0,4.0;" x1="562.5" x2="562.5" y1="313.75" y2="367.6602"/><line style="stroke:#181818;stroke-width:0.5;stroke-dasharray:5.0,5.0;" x1="562.5" x2="562.5" y1="367.6602" y2="367.6602"/><line style="stroke:#A80036;stroke-width:1.0;stroke-dasharray:1.0,4.0;" x1="562.5" x2="562.5" y1="367.6602" y2="421.5703"/><line style="stroke:#181818;stroke-width:0.5;stroke-dasharray:5.0,5.0;" x1="562.5" x2="562.5" y1="421.5703" y2="460.8809"/><rect fill="#E2E2F0" height="35.1992" rx="2.5" ry="2.5" style="stroke:#181818;stroke-width:0.5;" width="173" x="5" y="42.4883"/><text fill="#000000" font-family="sans-serif" font-size="18" font-weight="bold" lengthAdjust="spacing" textLength="159" x="12" y="66.8906">Avsender system</text><rect fill="#E2E2F0" height="35.1992" rx="2.5" ry="2.5" style="stroke:#181818;stroke-width:0.5;" width="173" x="5" y="459.8809"/><text fill="#000000" font-family="sans-serif" font-size="18" font-weight="bold" lengthAdjust="spacing" textLength="159" x="12" y="484.2832">Avsender system</text><rect fill="#E2E2F0" height="35.1992" rx="2.5" ry="2.5" style="stroke:#181818;stroke-width:0.5;" width="139" x="264" y="42.4883"/><text fill="#000000" font-family="sans-serif" font-size="18" font-weight="bold" lengthAdjust="spacing" textLength="125" x="271" y="66.8906">Fiks Protokoll</text><rect fill="#E2E2F0" height="35.1992" rx="2.5" ry="2.5" style="stroke:#181818;stroke-width:0.5;" width="139" x="264" y="459.8809"/><text fill="#000000" font-family="sans-serif" font-size="18" font-weight="bold" lengthAdjust="spacing" textLength="125" x="271" y="484.2832">Fiks Protokoll</text><rect fill="#E2E2F0" height="35.1992" rx="2.5" ry="2.5" style="stroke:#181818;stroke-width:0.5;" width="194" x="465.5" y="42.4883"/><text fill="#000000" font-family="sans-serif" font-size="18" font-weight="bold" lengthAdjust="spacing" textLength="180" x="472.5" y="66.8906">Mottakende system</text><rect fill="#E2E2F0" height="35.1992" rx="2.5" ry="2.5" style="stroke:#181818;stroke-width:0.5;" width="194" x="465.5" y="459.8809"/><text fill="#000000" font-family="sans-serif" font-size="18" font-weight="bold" lengthAdjust="spacing" textLength="180" x="472.5" y="484.2832">Mottakende system</text><polygon fill="#181818" points="321.5,105.998,331.5,109.998,321.5,113.998,325.5,109.998" style="stroke:#181818;stroke-width:1.0;"/><line style="stroke:#181818;stroke-width:1.0;" x1="91.5" x2="327.5" y1="109.998" y2="109.998"/><text fill="#000000" font-family="sans-serif" font-size="13" font-weight="bold" lengthAdjust="spacing" textLength="205" x="110" y="105.2559">no.ks.fiks.arkiv.v1.xxxxx.xxxxx</text><polygon fill="#181818" points="550.5,135.3086,560.5,139.3086,550.5,143.3086,554.5,139.3086" style="stroke:#181818;stroke-width:1.0;"/><line style="stroke:#181818;stroke-width:1.0;" x1="333.5" x2="556.5" y1="139.3086" y2="139.3086"/><text fill="#000000" font-family="sans-serif" font-size="13" font-weight="bold" lengthAdjust="spacing" textLength="205" x="345.5" y="134.5664">no.ks.fiks.arkiv.v1.xxxxx.xxxxx</text><text fill="#000000" font-family="sans-serif" font-size="11" lengthAdjust="spacing" textLength="302" x="176" y="171.9434">Mottakende system feiler 1 gang av en eller annen grunn</text><text fill="#000000" font-family="sans-serif" font-size="11" lengthAdjust="spacing" textLength="278" x="189.5" y="184.8984">ved henting av melding og klarer ikke 'acke' melding</text><polygon fill="#181818" points="550.5,218.5293,560.5,222.5293,550.5,226.5293,554.5,222.5293" style="stroke:#181818;stroke-width:1.0;"/><line style="stroke:#181818;stroke-width:1.0;" x1="333.5" x2="556.5" y1="222.5293" y2="222.5293"/><text fill="#000000" font-family="sans-serif" font-size="13" font-weight="bold" lengthAdjust="spacing" textLength="205" x="345.5" y="217.7871">no.ks.fiks.arkiv.v1.xxxxx.xxxxx</text><text fill="#000000" font-family="sans-serif" font-size="11" lengthAdjust="spacing" textLength="302" x="176" y="255.1641">Mottakende system feiler 2 gang av en eller annen grunn</text><text fill="#000000" font-family="sans-serif" font-size="11" lengthAdjust="spacing" textLength="278" x="189.5" y="268.1191">ved henting av melding og klarer ikke 'acke' melding</text><polygon fill="#181818" points="550.5,301.75,560.5,305.75,550.5,309.75,554.5,305.75" style="stroke:#181818;stroke-width:1.0;"/><line style="stroke:#181818;stroke-width:1.0;" x1="333.5" x2="556.5" y1="305.75" y2="305.75"/><text fill="#000000" font-family="sans-serif" font-size="13" font-weight="bold" lengthAdjust="spacing" textLength="205" x="345.5" y="301.0078">no.ks.fiks.arkiv.v1.xxxxx.xxxxx</text><text fill="#000000" font-family="sans-serif" font-size="11" lengthAdjust="spacing" textLength="302" x="176" y="338.3848">Mottakende system feiler 3 gang av en eller annen grunn</text><text fill="#000000" font-family="sans-serif" font-size="11" lengthAdjust="spacing" textLength="278" x="189.5" y="351.3398">ved henting av melding og klarer ikke 'acke' melding</text><text fill="#000000" font-family="sans-serif" font-size="11" lengthAdjust="spacing" textLength="298" x="178" y="392.2949">Avsender system f&#229;r feilmelding fra Fiks Protokoll om at</text><text fill="#000000" font-family="sans-serif" font-size="11" lengthAdjust="spacing" textLength="267" x="195" y="405.25">antall fors&#248;k hentet har overskredet maksgrensen</text><polygon fill="#181818" points="102.5,438.8809,92.5,442.8809,102.5,446.8809,98.5,442.8809" style="stroke:#181818;stroke-width:1.0;"/><line style="stroke:#181818;stroke-width:1.0;" x1="96.5" x2="332.5" y1="442.8809" y2="442.8809"/><text fill="#000000" font-family="sans-serif" font-size="13" font-weight="bold" lengthAdjust="spacing" textLength="218" x="103.5" y="438.1387">no.ks.fiks.kvittering.serverfeil.v1</text><!--SRC=[jLEnJiCm4Dtz5QSkbIBLKc530gaBMoLsO3Wb5zUoSsvjDu8FuX_O-sESKzhImC0I3r7ySlVUqxjBSfQt6B63HBizSKrhIWaDhRmr33LnfgXKjjaJpDRa6yi65j2IzT1J0rt86TrCAM79jhPRv0oFQD9xojJ1im8vzx3g4t534OwuUhskjouznP232zwVUmeAPtZKiehEzYEHzU2bw5narCNBuc4aT0TLnK6xf5l1DHPAtI_rMpd7PrMfwnuX-IdzFmgjzIzlGuGIo18CIgJO0p6GBn0ooxk9U-ON7bBUo1piiQhxda4mu3n6ARVE4SonTZG_VHN1gNtVJELxQkEtanaligD5X_Rm4GVb4qqRSRJP43h0BCAoroZNDiHq-7I31ygmmGYXfvXSf4Rk7Rfa8h7e_3dcoyAFidAzpV8t5xU9eZ0MMvATvFK5]--></g></svg>