<?xml version="1.0" encoding="us-ascii" standalone="no"?><svg xmlns="http://www.w3.org/2000/svg" xmlns:xlink="http://www.w3.org/1999/xlink" contentStyleType="text/css" height="78px" preserveAspectRatio="none" style="width:533px;height:78px;background:#FFFFFF;" version="1.1" viewBox="0 0 533 78" width="533px" zoomAndPan="magnify"><defs/><g><!--class dokumentfilHent--><g id="elem_dokumentfilHent"><rect codeLine="2" fill="#F1F1F1" height="64.4883" id="dokumentfilHent" rx="2.5" ry="2.5" style="stroke:#181818;stroke-width:0.5;" width="314" x="7" y="7"/><ellipse cx="102.25" cy="23" fill="#ADD1B2" rx="11" ry="11" style="stroke:#181818;stroke-width:1.0;"/><path d="M104.7231,29.1431 Q104.1421,29.4419 103.5029,29.5913 Q102.8638,29.7407 102.1582,29.7407 Q99.6514,29.7407 98.3315,28.0889 Q97.0117,26.437 97.0117,23.3159 Q97.0117,20.1865 98.3315,18.5347 Q99.6514,16.8828 102.1582,16.8828 Q102.8638,16.8828 103.5112,17.0322 Q104.1587,17.1816 104.7231,17.4805 L104.7231,20.2031 Q104.0923,19.6221 103.4988,19.3523 Q102.9053,19.0825 102.2744,19.0825 Q100.9297,19.0825 100.2449,20.1492 Q99.5601,21.2158 99.5601,23.3159 Q99.5601,25.4077 100.2449,26.4744 Q100.9297,27.541 102.2744,27.541 Q102.9053,27.541 103.4988,27.2712 Q104.0923,27.0015 104.7231,26.4204 Z " fill="#000000"/><text fill="#000000" font-family="sans-serif" font-size="14" lengthAdjust="spacing" textLength="115" x="122.75" y="28.291">dokumentfilHent</text><line style="stroke:#181818;stroke-width:0.5;" x1="8" x2="320" y1="39" y2="39"/><ellipse cx="18" cy="52.7441" fill="none" rx="3" ry="3" style="stroke:#038048;stroke-width:1.0;"/><text fill="#000000" font-family="sans-serif" font-size="14" lengthAdjust="spacing" textLength="288" x="27" y="56.5352">dokumentfilNoekkel : dokumentfilNoekkel</text><line style="stroke:#181818;stroke-width:0.5;" x1="8" x2="320" y1="63.4883" y2="63.4883"/></g><!--class dokumentfilNoekkel--><g id="elem_dokumentfilNoekkel"><rect codeLine="5" fill="#F1F1F1" height="64.4883" id="dokumentfilNoekkel" rx="2.5" ry="2.5" style="stroke:#181818;stroke-width:0.5;" width="170" x="356" y="7"/><ellipse cx="371" cy="23" fill="#ADD1B2" rx="11" ry="11" style="stroke:#181818;stroke-width:1.0;"/><path d="M373.4731,29.1431 Q372.8921,29.4419 372.2529,29.5913 Q371.6138,29.7407 370.9082,29.7407 Q368.4014,29.7407 367.0815,28.0889 Q365.7617,26.437 365.7617,23.3159 Q365.7617,20.1865 367.0815,18.5347 Q368.4014,16.8828 370.9082,16.8828 Q371.6138,16.8828 372.2612,17.0322 Q372.9087,17.1816 373.4731,17.4805 L373.4731,20.2031 Q372.8423,19.6221 372.2488,19.3523 Q371.6553,19.0825 371.0244,19.0825 Q369.6797,19.0825 368.9949,20.1492 Q368.3101,21.2158 368.3101,23.3159 Q368.3101,25.4077 368.9949,26.4744 Q369.6797,27.541 371.0244,27.541 Q371.6553,27.541 372.2488,27.2712 Q372.8423,27.0015 373.4731,26.4204 Z " fill="#000000"/><text fill="#000000" font-family="sans-serif" font-size="14" lengthAdjust="spacing" textLength="138" x="385" y="28.291">dokumentfilNoekkel</text><line style="stroke:#181818;stroke-width:0.5;" x1="357" x2="525" y1="39" y2="39"/><ellipse cx="367" cy="52.7441" fill="none" rx="3" ry="3" style="stroke:#038048;stroke-width:1.0;"/><text fill="#000000" font-family="sans-serif" font-size="14" lengthAdjust="spacing" textLength="134" x="376" y="56.5352">systemID : systemID</text><line style="stroke:#181818;stroke-width:0.5;" x1="357" x2="525" y1="63.4883" y2="63.4883"/></g><!--SRC=[Iyv9B2vMICdFBirDpIj9oypn058ArLmAGA2D9EoNdvgTdPgZOAM0ASXLovMCRWnCFTIauihYajHSJnUWVXWJg0i0]--></g></svg>