<?xml version="1.0" encoding="us-ascii" standalone="no"?><svg xmlns="http://www.w3.org/2000/svg" xmlns:xlink="http://www.w3.org/1999/xlink" contentStyleType="text/css" height="94px" preserveAspectRatio="none" style="width:533px;height:94px;background:#FFFFFF;" version="1.1" viewBox="0 0 533 94" width="533px" zoomAndPan="magnify"><defs/><g><!--class dokumentfilHent--><g id="elem_dokumentfilHent"><rect codeLine="2" fill="#F1F1F1" height="80.9766" id="dokumentfilHent" rx="2.5" ry="2.5" style="stroke:#181818;stroke-width:0.5;" width="314" x="7" y="7"/><ellipse cx="102.25" cy="23" fill="#ADD1B2" rx="11" ry="11" style="stroke:#181818;stroke-width:1.0;"/><path d="M104.7231,29.1431 Q104.1421,29.4419 103.5029,29.5913 Q102.8638,29.7407 102.1582,29.7407 Q99.6514,29.7407 98.3315,28.0889 Q97.0117,26.437 97.0117,23.3159 Q97.0117,20.1865 98.3315,18.5347 Q99.6514,16.8828 102.1582,16.8828 Q102.8638,16.8828 103.5112,17.0322 Q104.1587,17.1816 104.7231,17.4805 L104.7231,20.2031 Q104.0923,19.6221 103.4988,19.3523 Q102.9053,19.0825 102.2744,19.0825 Q100.9297,19.0825 100.2449,20.1492 Q99.5601,21.2158 99.5601,23.3159 Q99.5601,25.4077 100.2449,26.4744 Q100.9297,27.541 102.2744,27.541 Q102.9053,27.541 103.4988,27.2712 Q104.0923,27.0015 104.7231,26.4204 Z " fill="#000000"/><text fill="#000000" font-family="sans-serif" font-size="14" lengthAdjust="spacing" textLength="115" x="122.75" y="28.291">dokumentfilHent</text><line style="stroke:#181818;stroke-width:0.5;" x1="8" x2="320" y1="39" y2="39"/><ellipse cx="18" cy="52.7441" fill="none" rx="3" ry="3" style="stroke:#038048;stroke-width:1.0;"/><text fill="#000000" font-family="sans-serif" font-size="14" lengthAdjust="spacing" textLength="99" x="27" y="56.5352">system : string</text><ellipse cx="18" cy="69.2324" fill="none" rx="3" ry="3" style="stroke:#038048;stroke-width:1.0;"/><text fill="#000000" font-family="sans-serif" font-size="14" lengthAdjust="spacing" textLength="288" x="27" y="73.0234">dokumentfilNoekkel : dokumentfilNoekkel</text><line style="stroke:#181818;stroke-width:0.5;" x1="8" x2="320" y1="79.9766" y2="79.9766"/></g><!--class dokumentfilNoekkel--><g id="elem_dokumentfilNoekkel"><rect codeLine="6" fill="#F1F1F1" height="64.4883" id="dokumentfilNoekkel" rx="2.5" ry="2.5" style="stroke:#181818;stroke-width:0.5;" width="170" x="356" y="15.25"/><ellipse cx="371" cy="31.25" fill="#ADD1B2" rx="11" ry="11" style="stroke:#181818;stroke-width:1.0;"/><path d="M373.4731,37.3931 Q372.8921,37.6919 372.2529,37.8413 Q371.6138,37.9907 370.9082,37.9907 Q368.4014,37.9907 367.0815,36.3389 Q365.7617,34.687 365.7617,31.5659 Q365.7617,28.4365 367.0815,26.7847 Q368.4014,25.1328 370.9082,25.1328 Q371.6138,25.1328 372.2612,25.2822 Q372.9087,25.4316 373.4731,25.7305 L373.4731,28.4531 Q372.8423,27.8721 372.2488,27.6023 Q371.6553,27.3325 371.0244,27.3325 Q369.6797,27.3325 368.9949,28.3992 Q368.3101,29.4658 368.3101,31.5659 Q368.3101,33.6577 368.9949,34.7244 Q369.6797,35.791 371.0244,35.791 Q371.6553,35.791 372.2488,35.5212 Q372.8423,35.2515 373.4731,34.6704 Z " fill="#000000"/><text fill="#000000" font-family="sans-serif" font-size="14" lengthAdjust="spacing" textLength="138" x="385" y="36.541">dokumentfilNoekkel</text><line style="stroke:#181818;stroke-width:0.5;" x1="357" x2="525" y1="47.25" y2="47.25"/><ellipse cx="367" cy="60.9941" fill="none" rx="3" ry="3" style="stroke:#038048;stroke-width:1.0;"/><text fill="#000000" font-family="sans-serif" font-size="14" lengthAdjust="spacing" textLength="134" x="376" y="64.7852">systemID : systemID</text><line style="stroke:#181818;stroke-width:0.5;" x1="357" x2="525" y1="71.7383" y2="71.7383"/></g><!--SRC=[Iyv9B2vMICdFBirDpIj9oypn058ArLmAGA1TN5bSafghOALGN5AKcPSE4KHIwvUVcfsTcWDKW2d8LSkLZ6usJ3sAyPuk80kWJA0k0000]--></g></svg>