<svg xmlns="http://www.w3.org/2000/svg" xmlns:xlink="http://www.w3.org/1999/xlink" contentStyleType="text/css" height="219px" preserveAspectRatio="none" style="width:328px;height:219px;background:#FFFFFF;" version="1.1" viewBox="0 0 328 219" width="328px" zoomAndPan="magnify"><defs/><g><!--class dokumentfilHent--><g id="elem_dokumentfilHent"><rect codeLine="2" fill="#F1F1F1" height="80.9766" id="dokumentfilHent" rx="2.5" ry="2.5" style="stroke:#181818;stroke-width:0.5;" width="314" x="7" y="7"/><ellipse cx="102.25" cy="23" fill="#ADD1B2" rx="11" ry="11" style="stroke:#181818;stroke-width:1.0;"/><path d="M104.7231,29.1431 Q104.1421,29.4419 103.5029,29.5913 Q102.8638,29.7407 102.1582,29.7407 Q99.6514,29.7407 98.3315,28.0889 Q97.0117,26.437 97.0117,23.3159 Q97.0117,20.1865 98.3315,18.5347 Q99.6514,16.8828 102.1582,16.8828 Q102.8638,16.8828 103.5112,17.0322 Q104.1587,17.1816 104.7231,17.4805 L104.7231,20.2031 Q104.0923,19.6221 103.4988,19.3523 Q102.9053,19.0825 102.2744,19.0825 Q100.9297,19.0825 100.2449,20.1492 Q99.5601,21.2158 99.5601,23.3159 Q99.5601,25.4077 100.2449,26.4744 Q100.9297,27.541 102.2744,27.541 Q102.9053,27.541 103.4988,27.2712 Q104.0923,27.0015 104.7231,26.4204 Z " fill="#000000"/><text fill="#000000" font-family="sans-serif" font-size="14" lengthAdjust="spacing" textLength="115" x="122.75" y="28.291">dokumentfilHent</text><line style="stroke:#181818;stroke-width:0.5;" x1="8" x2="320" y1="39" y2="39"/><ellipse cx="18" cy="52.7441" fill="none" rx="3" ry="3" style="stroke:#038048;stroke-width:1.0;"/><text fill="#000000" font-family="sans-serif" font-size="14" lengthAdjust="spacing" textLength="99" x="27" y="56.5352">system : string</text><ellipse cx="18" cy="69.2324" fill="none" rx="3" ry="3" style="stroke:#038048;stroke-width:1.0;"/><text fill="#000000" font-family="sans-serif" font-size="14" lengthAdjust="spacing" textLength="288" x="27" y="73.0234">dokumentfilNoekkel : dokumentfilNoekkel</text><line style="stroke:#181818;stroke-width:0.5;" x1="8" x2="320" y1="79.9766" y2="79.9766"/></g><!--class dokumentfilNoekkel--><g id="elem_dokumentfilNoekkel"><rect codeLine="6" fill="#F1F1F1" height="64.4883" id="dokumentfilNoekkel" rx="2.5" ry="2.5" style="stroke:#181818;stroke-width:0.5;" width="170" x="79" y="147.97"/><ellipse cx="94" cy="163.97" fill="#ADD1B2" rx="11" ry="11" style="stroke:#181818;stroke-width:1.0;"/><path d="M96.4731,170.1131 Q95.8921,170.4119 95.2529,170.5613 Q94.6138,170.7107 93.9082,170.7107 Q91.4014,170.7107 90.0815,169.0589 Q88.7617,167.407 88.7617,164.2859 Q88.7617,161.1565 90.0815,159.5047 Q91.4014,157.8528 93.9082,157.8528 Q94.6138,157.8528 95.2612,158.0022 Q95.9087,158.1516 96.4731,158.4505 L96.4731,161.1731 Q95.8423,160.5921 95.2488,160.3223 Q94.6553,160.0525 94.0244,160.0525 Q92.6797,160.0525 91.9949,161.1192 Q91.3101,162.1858 91.3101,164.2859 Q91.3101,166.3777 91.9949,167.4444 Q92.6797,168.511 94.0244,168.511 Q94.6553,168.511 95.2488,168.2412 Q95.8423,167.9715 96.4731,167.3904 Z " fill="#000000"/><text fill="#000000" font-family="sans-serif" font-size="14" lengthAdjust="spacing" textLength="138" x="108" y="169.261">dokumentfilNoekkel</text><line style="stroke:#181818;stroke-width:0.5;" x1="80" x2="248" y1="179.97" y2="179.97"/><ellipse cx="90" cy="193.7141" fill="none" rx="3" ry="3" style="stroke:#038048;stroke-width:1.0;"/><text fill="#000000" font-family="sans-serif" font-size="14" lengthAdjust="spacing" textLength="134" x="99" y="197.5052">systemID : systemID</text><line style="stroke:#181818;stroke-width:0.5;" x1="80" x2="248" y1="204.4583" y2="204.4583"/></g><!--link dokumentfilHent to dokumentfilNoekkel--><g id="link_dokumentfilHent_dokumentfilNoekkel"><path codeLine="3" d="M164,88.42 C164,107.49 164,129.99 164,147.81 " fill="none" id="dokumentfilHent-dokumentfilNoekkel" style="stroke:#181818;stroke-width:1.0;stroke-dasharray:7.0,7.0;"/></g><!--SRC=[KypCIyufJKbLo4ZDAz4hAENYIidFBiq5Sj8oSpo0b8AUdWAIa5z-QdPsQWuN0000]--></g></svg>