<svg xmlns="http://www.w3.org/2000/svg" xmlns:xlink="http://www.w3.org/1999/xlink" contentStyleType="text/css" height="239px" preserveAspectRatio="none" style="width:679px;height:239px;background:#FFFFFF;" version="1.1" viewBox="0 0 679 239" width="679px" zoomAndPan="magnify"><defs/><g><rect fill="#F1F1F1" height="102.4414" rx="5" ry="5" style="stroke:#F1F1F1;stroke-width:1.5;" width="316" x="10" y="26.2793"/><text fill="#000000" font-family="sans-serif" font-size="14" font-weight="bold" lengthAdjust="spacing" textLength="101" x="15" y="41.8145">protokollnavn</text><text fill="#000000" font-family="sans-serif" font-size="14" lengthAdjust="spacing" textLength="102" x="126" y="41.8145">no.ks.fiks.arkiv</text><line style="stroke:#000000;stroke-width:1.0;" x1="121" x2="121" y1="26.2793" y2="46.7676"/><line style="stroke:#000000;stroke-width:1.0;" x1="10" x2="326" y1="46.7676" y2="46.7676"/><text fill="#000000" font-family="sans-serif" font-size="14" font-weight="bold" lengthAdjust="spacing" textLength="34" x="15" y="62.3027">navn</text><text fill="#000000" font-family="sans-serif" font-size="14" lengthAdjust="spacing" textLength="59" x="126" y="62.3027">partrolle</text><line style="stroke:#000000;stroke-width:1.0;" x1="121" x2="121" y1="46.7676" y2="67.2559"/><line style="stroke:#000000;stroke-width:1.0;" x1="10" x2="326" y1="67.2559" y2="67.2559"/><text fill="#000000" font-family="sans-serif" font-size="14" font-weight="bold" lengthAdjust="spacing" textLength="53" x="15" y="82.791">versjon</text><text fill="#000000" font-family="sans-serif" font-size="14" lengthAdjust="spacing" textLength="16" x="126" y="82.791">v1</text><line style="stroke:#000000;stroke-width:1.0;" x1="121" x2="121" y1="67.2559" y2="87.7441"/><line style="stroke:#000000;stroke-width:1.0;" x1="10" x2="326" y1="87.7441" y2="87.7441"/><text fill="#000000" font-family="sans-serif" font-size="14" font-weight="bold" lengthAdjust="spacing" textLength="73" x="15" y="103.2793">definisjon</text><text fill="#000000" font-family="sans-serif" font-size="14" lengthAdjust="spacing" textLength="195" x="126" y="103.2793">Angivelse av rollen til parten</text><line style="stroke:#000000;stroke-width:1.0;" x1="121" x2="121" y1="87.7441" y2="108.2324"/><line style="stroke:#000000;stroke-width:1.0;" x1="10" x2="326" y1="108.2324" y2="108.2324"/><text fill="#000000" font-family="sans-serif" font-size="14" font-weight="bold" lengthAdjust="spacing" textLength="67" x="15" y="123.7676">kodeliste</text><text fill="#000000" font-family="sans-serif" font-size="14" lengthAdjust="spacing" textLength="12" x="126" y="123.7676">&#160;&#160;&#160;</text><line style="stroke:#000000;stroke-width:1.0;" x1="121" x2="121" y1="108.2324" y2="128.7207"/><rect fill="none" height="102.4414" rx="5" ry="5" style="stroke:#000000;stroke-width:1.5;" width="316" x="10" y="26.2793"/><rect fill="#F1F1F1" height="81.9531" rx="5" ry="5" style="stroke:#F1F1F1;stroke-width:1.5;" width="22" x="363" y="77.5"/><text fill="#000000" font-family="sans-serif" font-size="14" lengthAdjust="spacing" textLength="12" x="368" y="93.0352">&#160;&#160;&#160;</text><line style="stroke:#000000;stroke-width:1.0;" x1="363" x2="385" y1="97.9883" y2="97.9883"/><text fill="#000000" font-family="sans-serif" font-size="14" lengthAdjust="spacing" textLength="12" x="368" y="113.5234">&#160;&#160;&#160;</text><line style="stroke:#000000;stroke-width:1.0;" x1="363" x2="385" y1="118.4766" y2="118.4766"/><text fill="#000000" font-family="sans-serif" font-size="14" lengthAdjust="spacing" textLength="12" x="368" y="134.0117">&#160;&#160;&#160;</text><line style="stroke:#000000;stroke-width:1.0;" x1="363" x2="385" y1="138.9648" y2="138.9648"/><text fill="#000000" font-family="sans-serif" font-size="14" lengthAdjust="spacing" textLength="12" x="368" y="154.5">&#160;&#160;&#160;</text><rect fill="none" height="81.9531" rx="5" ry="5" style="stroke:#000000;stroke-width:1.5;" width="22" x="363" y="77.5"/><rect fill="#F1F1F1" height="40.9766" rx="5" ry="5" style="stroke:#F1F1F1;stroke-width:1.5;" width="176" x="456.5" y="10"/><text fill="#000000" font-family="sans-serif" font-size="14" font-weight="bold" lengthAdjust="spacing" textLength="71" x="461.5" y="25.5352">kodeverdi</text><text fill="#000000" font-family="sans-serif" font-size="14" lengthAdjust="spacing" textLength="9" x="588.5" y="25.5352">K</text><line style="stroke:#000000;stroke-width:1.0;" x1="583.5" x2="583.5" y1="10" y2="30.4883"/><line style="stroke:#000000;stroke-width:1.0;" x1="456.5" x2="632.5" y1="30.4883" y2="30.4883"/><text fill="#000000" font-family="sans-serif" font-size="14" font-weight="bold" lengthAdjust="spacing" textLength="117" x="461.5" y="46.0234">kodebeskrivelse</text><text fill="#000000" font-family="sans-serif" font-size="14" lengthAdjust="spacing" textLength="39" x="588.5" y="46.0234">Klient</text><line style="stroke:#000000;stroke-width:1.0;" x1="583.5" x2="583.5" y1="30.4883" y2="50.9766"/><rect fill="none" height="40.9766" rx="5" ry="5" style="stroke:#000000;stroke-width:1.5;" width="176" x="456.5" y="10"/><rect fill="#F1F1F1" height="40.9766" rx="5" ry="5" style="stroke:#F1F1F1;stroke-width:1.5;" width="245" x="422" y="69"/><text fill="#000000" font-family="sans-serif" font-size="14" font-weight="bold" lengthAdjust="spacing" textLength="71" x="427" y="84.5352">kodeverdi</text><text fill="#000000" font-family="sans-serif" font-size="14" lengthAdjust="spacing" textLength="8" x="554" y="84.5352">P</text><line style="stroke:#000000;stroke-width:1.0;" x1="549" x2="549" y1="69" y2="89.4883"/><line style="stroke:#000000;stroke-width:1.0;" x1="422" x2="667" y1="89.4883" y2="89.4883"/><text fill="#000000" font-family="sans-serif" font-size="14" font-weight="bold" lengthAdjust="spacing" textLength="117" x="427" y="105.0234">kodebeskrivelse</text><text fill="#000000" font-family="sans-serif" font-size="14" lengthAdjust="spacing" textLength="108" x="554" y="105.0234">P&#229;r&#248;rende arkiv</text><line style="stroke:#000000;stroke-width:1.0;" x1="549" x2="549" y1="89.4883" y2="109.9766"/><rect fill="none" height="40.9766" rx="5" ry="5" style="stroke:#000000;stroke-width:1.5;" width="245" x="422" y="69"/><rect fill="#F1F1F1" height="40.9766" rx="5" ry="5" style="stroke:#F1F1F1;stroke-width:1.5;" width="212" x="438.5" y="128"/><text fill="#000000" font-family="sans-serif" font-size="14" font-weight="bold" lengthAdjust="spacing" textLength="71" x="443.5" y="143.5352">kodeverdi</text><text fill="#000000" font-family="sans-serif" font-size="14" lengthAdjust="spacing" textLength="8" x="570.5" y="143.5352">F</text><line style="stroke:#000000;stroke-width:1.0;" x1="565.5" x2="565.5" y1="128" y2="148.4883"/><line style="stroke:#000000;stroke-width:1.0;" x1="438.5" x2="650.5" y1="148.4883" y2="148.4883"/><text fill="#000000" font-family="sans-serif" font-size="14" font-weight="bold" lengthAdjust="spacing" textLength="117" x="443.5" y="164.0234">kodebeskrivelse</text><text fill="#000000" font-family="sans-serif" font-size="14" lengthAdjust="spacing" textLength="75" x="570.5" y="164.0234">Formynder</text><line style="stroke:#000000;stroke-width:1.0;" x1="565.5" x2="565.5" y1="148.4883" y2="168.9766"/><rect fill="none" height="40.9766" rx="5" ry="5" style="stroke:#000000;stroke-width:1.5;" width="212" x="438.5" y="128"/><rect fill="#F1F1F1" height="40.9766" rx="5" ry="5" style="stroke:#F1F1F1;stroke-width:1.5;" width="193" x="448" y="187"/><text fill="#000000" font-family="sans-serif" font-size="14" font-weight="bold" lengthAdjust="spacing" textLength="71" x="453" y="202.5352">kodeverdi</text><text fill="#000000" font-family="sans-serif" font-size="14" lengthAdjust="spacing" textLength="10" x="580" y="202.5352">A</text><line style="stroke:#000000;stroke-width:1.0;" x1="575" x2="575" y1="187" y2="207.4883"/><line style="stroke:#000000;stroke-width:1.0;" x1="448" x2="641" y1="207.4883" y2="207.4883"/><text fill="#000000" font-family="sans-serif" font-size="14" font-weight="bold" lengthAdjust="spacing" textLength="117" x="453" y="223.0234">kodebeskrivelse</text><text fill="#000000" font-family="sans-serif" font-size="14" lengthAdjust="spacing" textLength="56" x="580" y="223.0234">Advokat</text><line style="stroke:#000000;stroke-width:1.0;" x1="575" x2="575" y1="207.4883" y2="227.9766"/><rect fill="none" height="40.9766" rx="5" ry="5" style="stroke:#000000;stroke-width:1.5;" width="193" x="448" y="187"/><path d="M373,87.5 L386,87.5 C406.2698,87.5 403.7236,68.2657 422,59.5 C430.6816,55.3362 440.0047,51.7455 449.4886,48.6542 " fill="none" style="stroke:#000000;stroke-width:1.0;stroke-dasharray:3.0,3.0;"/><path d="M450.3957,51.5645 L451.6713,47.9739 L448.5815,45.7439 L456.7644,46.3864 L450.3957,51.5645 " fill="#000000" style="stroke:#000000;stroke-width:1.0;"/><ellipse cx="373" cy="87.5" fill="#000000" rx="3" ry="3" style="stroke:#000000;stroke-width:1.0;"/><path d="M373,108.5 L386,108.5 C395.2652,108.5 404.8142,108.174 414.4138,107.6073 " fill="none" style="stroke:#000000;stroke-width:1.0;stroke-dasharray:3.0,3.0;"/><path d="M414.6155,110.6893 L416.7253,107.456 L414.212,104.5253 L422.1188,107.1029 L414.6155,110.6893 " fill="#000000" style="stroke:#000000;stroke-width:1.0;"/><ellipse cx="373" cy="108.5" fill="#000000" rx="3" ry="3" style="stroke:#000000;stroke-width:1.0;"/><path d="M373,128.5 L386,128.5 C400.598,128.5 415.8951,129.3507 430.982,130.7012 " fill="none" style="stroke:#000000;stroke-width:1.0;stroke-dasharray:3.0,3.0;"/><path d="M430.682,133.8474 L433.3416,130.9261 L431.282,127.555 L438.8475,131.4511 L430.682,133.8474 " fill="#000000" style="stroke:#000000;stroke-width:1.0;"/><ellipse cx="373" cy="128.5" fill="#000000" rx="3" ry="3" style="stroke:#000000;stroke-width:1.0;"/><path d="M373,149.5 L386,149.5 C406.5456,149.5 403.5514,169.4572 422,178.5 C428.1013,181.4906 434.5283,184.1831 441.1109,186.6056 " fill="none" style="stroke:#000000;stroke-width:1.0;stroke-dasharray:3.0,3.0;"/><path d="M440.1012,189.484 L443.2696,187.3629 L442.1205,183.7273 L448.3067,189.1298 L440.1012,189.484 " fill="#000000" style="stroke:#000000;stroke-width:1.0;"/><ellipse cx="373" cy="149.5" fill="#000000" rx="3" ry="3" style="stroke:#000000;stroke-width:1.0;"/><path d="M314,118.5 L327,118.5 C336.4213,118.5 346.9164,118.5 355.5483,118.5 " fill="none" style="stroke:#000000;stroke-width:1.0;stroke-dasharray:3.0,3.0;"/><path d="M355.5483,121.5437 L357.8311,118.5 L355.5483,115.4563 L363.1575,118.5 L355.5483,121.5437 " fill="#000000" style="stroke:#000000;stroke-width:1.0;"/><ellipse cx="314" cy="118.5" fill="#000000" rx="3" ry="3" style="stroke:#000000;stroke-width:1.0;"/><!--SRC=[ZP6vRi9048RxVOgHAv285ID0o1M48n97GE5eeXGB7j1YCulMwvKGud7o3kbviGnsI3f4CyL_V1xlj58hZTsbciH907W7ewsETPAGTEI5u97suzJVA1xInCfvbMlivXwuR3YDXUpGf3kTEouef0WtYjHDRTDMEKnI1EaWBn9ObS2LWrGqOXrXebABNFXW0U2Kpr-Bln4f3nWspFD_nWhJs1JqmauKalNooBbo3pIz3vfUlipbso15l7R-1Wym-_UPVMtsHmQQHrZj-wnsv7GiRt_AyrESHOlNpSygfeaaknYFu7eTfGa2l_fShVdrqYmZ6CiZL1iG165G3-jDwFHcSxZwPL5wdOuWrPbP8qHy4ADMcML0MGoaa_2UaLLx365oG1fqXpS1UkIKqRJdrnU3vVW_qAWzlIWBCpIy2Yp7eeiRcIMM6siTATg6i9ZtdvfY96cRoIspaKH7CzSSGtYR_000]--></g></svg>