<?xml version="1.0" encoding="us-ascii" standalone="no"?><svg xmlns="http://www.w3.org/2000/svg" xmlns:xlink="http://www.w3.org/1999/xlink" contentStyleType="text/css" height="298px" preserveAspectRatio="none" style="width:825px;height:298px;background:#FFFFFF;" version="1.1" viewBox="0 0 825 298" width="825px" zoomAndPan="magnify"><defs/><g><rect fill="#F1F1F1" height="102.4414" rx="5" ry="5" style="stroke:#F1F1F1;stroke-width:1.5;" width="292" x="10" y="56.2793"/><text fill="#000000" font-family="sans-serif" font-size="14" font-weight="bold" lengthAdjust="spacing" textLength="101" x="15" y="71.8145">protokollnavn</text><text fill="#000000" font-family="sans-serif" font-size="14" lengthAdjust="spacing" textLength="102" x="126" y="71.8145">no.ks.fiks.arkiv</text><line style="stroke:#000000;stroke-width:1.0;" x1="121" x2="121" y1="56.2793" y2="76.7676"/><line style="stroke:#000000;stroke-width:1.0;" x1="10" x2="302" y1="76.7676" y2="76.7676"/><text fill="#000000" font-family="sans-serif" font-size="14" font-weight="bold" lengthAdjust="spacing" textLength="34" x="15" y="92.3027">navn</text><text fill="#000000" font-family="sans-serif" font-size="14" lengthAdjust="spacing" textLength="108" x="126" y="92.3027">journalposttype</text><line style="stroke:#000000;stroke-width:1.0;" x1="121" x2="121" y1="76.7676" y2="97.2559"/><line style="stroke:#000000;stroke-width:1.0;" x1="10" x2="302" y1="97.2559" y2="97.2559"/><text fill="#000000" font-family="sans-serif" font-size="14" font-weight="bold" lengthAdjust="spacing" textLength="53" x="15" y="112.791">versjon</text><text fill="#000000" font-family="sans-serif" font-size="14" lengthAdjust="spacing" textLength="16" x="126" y="112.791">v1</text><line style="stroke:#000000;stroke-width:1.0;" x1="121" x2="121" y1="97.2559" y2="117.7441"/><line style="stroke:#000000;stroke-width:1.0;" x1="10" x2="302" y1="117.7441" y2="117.7441"/><text fill="#000000" font-family="sans-serif" font-size="14" font-weight="bold" lengthAdjust="spacing" textLength="73" x="15" y="133.2793">definisjon</text><text fill="#000000" font-family="sans-serif" font-size="14" lengthAdjust="spacing" textLength="171" x="126" y="133.2793">Navn p&#229; type journalpost</text><line style="stroke:#000000;stroke-width:1.0;" x1="121" x2="121" y1="117.7441" y2="138.2324"/><line style="stroke:#000000;stroke-width:1.0;" x1="10" x2="302" y1="138.2324" y2="138.2324"/><text fill="#000000" font-family="sans-serif" font-size="14" font-weight="bold" lengthAdjust="spacing" textLength="67" x="15" y="153.7676">kodeliste</text><text fill="#000000" font-family="sans-serif" font-size="14" lengthAdjust="spacing" textLength="12" x="126" y="153.7676">&#160;&#160;&#160;</text><line style="stroke:#000000;stroke-width:1.0;" x1="121" x2="121" y1="138.2324" y2="158.7207"/><rect fill="none" height="102.4414" rx="5" ry="5" style="stroke:#000000;stroke-width:1.5;" width="292" x="10" y="56.2793"/><rect fill="#F1F1F1" height="102.4414" rx="5" ry="5" style="stroke:#F1F1F1;stroke-width:1.5;" width="22" x="339" y="97.2793"/><text fill="#000000" font-family="sans-serif" font-size="14" lengthAdjust="spacing" textLength="12" x="344" y="112.8145">&#160;&#160;&#160;</text><line style="stroke:#000000;stroke-width:1.0;" x1="339" x2="361" y1="117.7676" y2="117.7676"/><text fill="#000000" font-family="sans-serif" font-size="14" lengthAdjust="spacing" textLength="12" x="344" y="133.3027">&#160;&#160;&#160;</text><line style="stroke:#000000;stroke-width:1.0;" x1="339" x2="361" y1="138.2559" y2="138.2559"/><text fill="#000000" font-family="sans-serif" font-size="14" lengthAdjust="spacing" textLength="12" x="344" y="153.791">&#160;&#160;&#160;</text><line style="stroke:#000000;stroke-width:1.0;" x1="339" x2="361" y1="158.7441" y2="158.7441"/><text fill="#000000" font-family="sans-serif" font-size="14" lengthAdjust="spacing" textLength="12" x="344" y="174.2793">&#160;&#160;&#160;</text><line style="stroke:#000000;stroke-width:1.0;" x1="339" x2="361" y1="179.2324" y2="179.2324"/><text fill="#000000" font-family="sans-serif" font-size="14" lengthAdjust="spacing" textLength="12" x="344" y="194.7676">&#160;&#160;&#160;</text><rect fill="none" height="102.4414" rx="5" ry="5" style="stroke:#000000;stroke-width:1.5;" width="22" x="339" y="97.2793"/><rect fill="#F1F1F1" height="40.9766" rx="5" ry="5" style="stroke:#F1F1F1;stroke-width:1.5;" width="284" x="463.5" y="10"/><text fill="#000000" font-family="sans-serif" font-size="14" font-weight="bold" lengthAdjust="spacing" textLength="71" x="468.5" y="25.5352">kodeverdi</text><text fill="#000000" font-family="sans-serif" font-size="14" lengthAdjust="spacing" textLength="4" x="595.5" y="25.5352">I</text><line style="stroke:#000000;stroke-width:1.0;" x1="590.5" x2="590.5" y1="10" y2="30.4883"/><line style="stroke:#000000;stroke-width:1.0;" x1="463.5" x2="747.5" y1="30.4883" y2="30.4883"/><text fill="#000000" font-family="sans-serif" font-size="14" font-weight="bold" lengthAdjust="spacing" textLength="117" x="468.5" y="46.0234">kodebeskrivelse</text><text fill="#000000" font-family="sans-serif" font-size="14" lengthAdjust="spacing" textLength="147" x="595.5" y="46.0234">Inng&#229;ende dokument</text><line style="stroke:#000000;stroke-width:1.0;" x1="590.5" x2="590.5" y1="30.4883" y2="50.9766"/><rect fill="none" height="40.9766" rx="5" ry="5" style="stroke:#000000;stroke-width:1.5;" width="284" x="463.5" y="10"/><rect fill="#F1F1F1" height="40.9766" rx="5" ry="5" style="stroke:#F1F1F1;stroke-width:1.5;" width="277" x="467" y="69"/><text fill="#000000" font-family="sans-serif" font-size="14" font-weight="bold" lengthAdjust="spacing" textLength="71" x="472" y="84.5352">kodeverdi</text><text fill="#000000" font-family="sans-serif" font-size="14" lengthAdjust="spacing" textLength="10" x="599" y="84.5352">U</text><line style="stroke:#000000;stroke-width:1.0;" x1="594" x2="594" y1="69" y2="89.4883"/><line style="stroke:#000000;stroke-width:1.0;" x1="467" x2="744" y1="89.4883" y2="89.4883"/><text fill="#000000" font-family="sans-serif" font-size="14" font-weight="bold" lengthAdjust="spacing" textLength="117" x="472" y="105.0234">kodebeskrivelse</text><text fill="#000000" font-family="sans-serif" font-size="14" lengthAdjust="spacing" textLength="140" x="599" y="105.0234">Utg&#229;ende dokument</text><line style="stroke:#000000;stroke-width:1.0;" x1="594" x2="594" y1="89.4883" y2="109.9766"/><rect fill="none" height="40.9766" rx="5" ry="5" style="stroke:#000000;stroke-width:1.5;" width="277" x="467" y="69"/><rect fill="#F1F1F1" height="40.9766" rx="5" ry="5" style="stroke:#F1F1F1;stroke-width:1.5;" width="404" x="403.5" y="128"/><text fill="#000000" font-family="sans-serif" font-size="14" font-weight="bold" lengthAdjust="spacing" textLength="71" x="408.5" y="143.5352">kodeverdi</text><text fill="#000000" font-family="sans-serif" font-size="14" lengthAdjust="spacing" textLength="10" x="535.5" y="143.5352">N</text><line style="stroke:#000000;stroke-width:1.0;" x1="530.5" x2="530.5" y1="128" y2="148.4883"/><line style="stroke:#000000;stroke-width:1.0;" x1="403.5" x2="807.5" y1="148.4883" y2="148.4883"/><text fill="#000000" font-family="sans-serif" font-size="14" font-weight="bold" lengthAdjust="spacing" textLength="117" x="408.5" y="164.0234">kodebeskrivelse</text><text fill="#000000" font-family="sans-serif" font-size="14" lengthAdjust="spacing" textLength="267" x="535.5" y="164.0234">Organinternt dokument for oppf&#248;lging</text><line style="stroke:#000000;stroke-width:1.0;" x1="530.5" x2="530.5" y1="148.4883" y2="168.9766"/><rect fill="none" height="40.9766" rx="5" ry="5" style="stroke:#000000;stroke-width:1.5;" width="404" x="403.5" y="128"/><rect fill="#F1F1F1" height="40.9766" rx="5" ry="5" style="stroke:#F1F1F1;stroke-width:1.5;" width="415" x="398" y="187"/><text fill="#000000" font-family="sans-serif" font-size="14" font-weight="bold" lengthAdjust="spacing" textLength="71" x="403" y="202.5352">kodeverdi</text><text fill="#000000" font-family="sans-serif" font-size="14" lengthAdjust="spacing" textLength="9" x="530" y="202.5352">X</text><line style="stroke:#000000;stroke-width:1.0;" x1="525" x2="525" y1="187" y2="207.4883"/><line style="stroke:#000000;stroke-width:1.0;" x1="398" x2="813" y1="207.4883" y2="207.4883"/><text fill="#000000" font-family="sans-serif" font-size="14" font-weight="bold" lengthAdjust="spacing" textLength="117" x="403" y="223.0234">kodebeskrivelse</text><text fill="#000000" font-family="sans-serif" font-size="14" lengthAdjust="spacing" textLength="278" x="530" y="223.0234">Organinternt dokument uten oppf&#248;lging</text><line style="stroke:#000000;stroke-width:1.0;" x1="525" x2="525" y1="207.4883" y2="227.9766"/><rect fill="none" height="40.9766" rx="5" ry="5" style="stroke:#000000;stroke-width:1.5;" width="415" x="398" y="187"/><rect fill="#F1F1F1" height="40.9766" rx="5" ry="5" style="stroke:#F1F1F1;stroke-width:1.5;" width="230" x="490.5" y="246"/><text fill="#000000" font-family="sans-serif" font-size="14" font-weight="bold" lengthAdjust="spacing" textLength="71" x="495.5" y="261.5352">kodeverdi</text><text fill="#000000" font-family="sans-serif" font-size="14" lengthAdjust="spacing" textLength="8" x="622.5" y="261.5352">S</text><line style="stroke:#000000;stroke-width:1.0;" x1="617.5" x2="617.5" y1="246" y2="266.4883"/><line style="stroke:#000000;stroke-width:1.0;" x1="490.5" x2="720.5" y1="266.4883" y2="266.4883"/><text fill="#000000" font-family="sans-serif" font-size="14" font-weight="bold" lengthAdjust="spacing" textLength="117" x="495.5" y="282.0234">kodebeskrivelse</text><text fill="#000000" font-family="sans-serif" font-size="14" lengthAdjust="spacing" textLength="93" x="622.5" y="282.0234">Saksframlegg</text><line style="stroke:#000000;stroke-width:1.0;" x1="617.5" x2="617.5" y1="266.4883" y2="286.9766"/><rect fill="none" height="40.9766" rx="5" ry="5" style="stroke:#000000;stroke-width:1.5;" width="230" x="490.5" y="246"/><path d="M349,107.5 L362,107.5 C388.6667,107.5 375.0357,73.0554 398,59.5 C415.7431,49.0266 435.798,41.7724 456.2665,36.8247 " fill="none" style="stroke:#000000;stroke-width:1.0;stroke-dasharray:3.0,3.0;"/><path d="M456.9546,39.8472 L458.5333,36.3086 L455.5784,33.8022 L463.8227,35.1045 L456.9546,39.8472 " fill="#000000" style="stroke:#000000;stroke-width:1.0;"/><ellipse cx="349" cy="107.5" fill="#000000" rx="3" ry="3" style="stroke:#000000;stroke-width:1.0;"/><path d="M349,128.5 L362,128.5 C378.4924,128.5 381.8184,122.6868 398,119.5 C417.9116,115.5786 438.9948,111.9396 459.789,108.6466 " fill="none" style="stroke:#000000;stroke-width:1.0;stroke-dasharray:3.0,3.0;"/><path d="M460.268,111.7047 L462.0826,108.2873 L459.3101,105.5885 L467.4343,107.4491 L460.268,111.7047 " fill="#000000" style="stroke:#000000;stroke-width:1.0;"/><ellipse cx="349" cy="128.5" fill="#000000" rx="3" ry="3" style="stroke:#000000;stroke-width:1.0;"/><path d="M349,148.5 L362,148.5 C373.1607,148.5 384.6098,148.5 396.1684,148.5 " fill="none" style="stroke:#000000;stroke-width:1.0;stroke-dasharray:3.0,3.0;"/><path d="M396.1684,151.5438 L398.4513,148.5 L396.1684,145.4562 L403.778,148.5 L396.1684,151.5438 " fill="#000000" style="stroke:#000000;stroke-width:1.0;"/><ellipse cx="349" cy="148.5" fill="#000000" rx="3" ry="3" style="stroke:#000000;stroke-width:1.0;"/><path d="M349,168.5 L362,168.5 C378.6058,168.5 381.7421,175.1185 398,178.5 C410.3252,181.0635 423.1113,183.4649 436.0069,185.7008 " fill="none" style="stroke:#000000;stroke-width:1.0;stroke-dasharray:3.0,3.0;"/><path d="M435.488,188.7419 L438.2878,186.09 L436.5259,182.6597 L443.6097,186.9982 L435.488,188.7419 " fill="#000000" style="stroke:#000000;stroke-width:1.0;"/><ellipse cx="349" cy="168.5" fill="#000000" rx="3" ry="3" style="stroke:#000000;stroke-width:1.0;"/><path d="M349,189.5 L362,189.5 C388.6667,189.5 375.0357,223.9446 398,237.5 C423.5679,252.5922 453.9362,260.9997 483.4251,265.4538 " fill="none" style="stroke:#000000;stroke-width:1.0;stroke-dasharray:3.0,3.0;"/><path d="M483.0055,268.4437 L485.6675,265.7685 L483.8446,262.4639 L490.8998,266.5027 L483.0055,268.4437 " fill="#000000" style="stroke:#000000;stroke-width:1.0;"/><ellipse cx="349" cy="189.5" fill="#000000" rx="3" ry="3" style="stroke:#000000;stroke-width:1.0;"/><path d="M290,148.5 L303,148.5 C312.4213,148.5 322.9164,148.5 331.5483,148.5 " fill="none" style="stroke:#000000;stroke-width:1.0;stroke-dasharray:3.0,3.0;"/><path d="M331.5483,151.5437 L333.8311,148.5 L331.5483,145.4563 L339.1575,148.5 L331.5483,151.5437 " fill="#000000" style="stroke:#000000;stroke-width:1.0;"/><ellipse cx="290" cy="148.5" fill="#000000" rx="3" ry="3" style="stroke:#000000;stroke-width:1.0;"/><!--SRC=[dPBBJiCm44Nt_efHLaKgLHy8LLaXdgBqWKXR8I4MBfb4RjnnP3kHAiJdy0_i-sDCKWgiAkXc5lVUEUF7d3alhLywG-9L00IvDTvaHckI9GKX16HQcMibYekqcIg3PXNRkKjJM98wDyxxTOvRiqJhbgRsoyvMYZ5Hf7RgcBiXtxn3rGE_6DjmPcBKoddax1CB0Azr_R8O7wi0c7DRvx-D1RhCgXArmwrDb6xUaMA4s6J52ia7TVwjkOywsq-T-KEWu_tGYKqbAV9eoNzp8J4MJ9udcm-TAah_CkVna3c5H_hle6Z_e4XcBh5ofJ7TuRW-YpTnnczNxvkurvByR3I4Qc6K8UYqkkrkhzLlH0N1IAwXsu5EE-prmtORBgwYALJ-aMZSt0_1yTgyy2VmebYrA3m3ZiH0bX8U2l9gXI5CSgJ1vTrEW2igbJLKtLaCvgEVmEd9yRdo4A7bey1y92unaONstF5YOdwH46RJw-E-64fA2vao6qbS6ERQTGZZoIS0]--></g></svg>