<?xml version="1.0" encoding="us-ascii" standalone="no"?><svg xmlns="http://www.w3.org/2000/svg" xmlns:xlink="http://www.w3.org/1999/xlink" contentStyleType="text/css" height="367px" preserveAspectRatio="none" style="width:569px;height:367px;background:#FFFFFF;" version="1.1" viewBox="0 0 569 367" width="569px" zoomAndPan="magnify"><defs/><g><!--class inkluder--><g id="elem_inkluder"><rect codeLine="2" fill="#F1F1F1" height="179.9063" id="inkluder" rx="2.5" ry="2.5" style="stroke:#181818;stroke-width:0.5;" width="323" x="7" y="180.95"/><ellipse cx="135.75" cy="196.95" fill="#EB937F" rx="11" ry="11" style="stroke:#181818;stroke-width:1.0;"/><path d="M139.3643,203.45 L131.6445,203.45 L131.6445,191.0569 L139.3643,191.0569 L139.3643,193.2151 L134.0933,193.2151 L134.0933,195.888 L138.8662,195.888 L138.8662,198.0462 L134.0933,198.0462 L134.0933,201.2918 L139.3643,201.2918 Z " fill="#000000"/><text fill="#000000" font-family="sans-serif" font-size="14" lengthAdjust="spacing" textLength="57" x="156.25" y="202.241">inkluder</text><line style="stroke:#181818;stroke-width:0.5;" x1="8" x2="329" y1="212.95" y2="212.95"/><text fill="#000000" font-family="sans-serif" font-size="14" lengthAdjust="spacing" textLength="141" x="13" y="230.4852">merknad = merknad</text><text fill="#000000" font-family="sans-serif" font-size="14" lengthAdjust="spacing" textLength="175" x="13" y="246.9734">noekkelord = noekkelord</text><text fill="#000000" font-family="sans-serif" font-size="14" lengthAdjust="spacing" textLength="219" x="13" y="263.4617">kryssreferanse = kryssreferanse</text><text fill="#000000" font-family="sans-serif" font-size="14" lengthAdjust="spacing" textLength="311" x="13" y="279.95">dokumentbeskrivelse = dokumentbeskrivelse</text><text fill="#000000" font-family="sans-serif" font-size="14" lengthAdjust="spacing" textLength="299" x="13" y="296.4383">korrespondansepart = korrespondansepart</text><text fill="#000000" font-family="sans-serif" font-size="14" lengthAdjust="spacing" textLength="175" x="13" y="312.9266">avskrivning = avskrivning</text><text fill="#000000" font-family="sans-serif" font-size="14" lengthAdjust="spacing" textLength="201" x="13" y="329.4148">dokumentflyt = dokumentflyt</text><text fill="#000000" font-family="sans-serif" font-size="14" lengthAdjust="spacing" textLength="245" x="13" y="345.9031">dokumentobjekt = dokumentobjekt</text><line style="stroke:#181818;stroke-width:0.5;" x1="8" x2="329" y1="352.8563" y2="352.8563"/></g><!--class registreringHent--><g id="elem_registreringHent"><rect codeLine="12" fill="#F1F1F1" height="113.9531" id="registreringHent" rx="2.5" ry="2.5" style="stroke:#181818;stroke-width:0.5;" width="370" x="130.5" y="7"/><ellipse cx="254.75" cy="23" fill="#ADD1B2" rx="11" ry="11" style="stroke:#181818;stroke-width:1.0;"/><path d="M257.2231,29.1431 Q256.6421,29.4419 256.0029,29.5913 Q255.3638,29.7407 254.6582,29.7407 Q252.1514,29.7407 250.8315,28.0889 Q249.5117,26.437 249.5117,23.3159 Q249.5117,20.1865 250.8315,18.5347 Q252.1514,16.8828 254.6582,16.8828 Q255.3638,16.8828 256.0112,17.0322 Q256.6587,17.1816 257.2231,17.4805 L257.2231,20.2031 Q256.5923,19.6221 255.9988,19.3523 Q255.4053,19.0825 254.7744,19.0825 Q253.4297,19.0825 252.7449,20.1492 Q252.0601,21.2158 252.0601,23.3159 Q252.0601,25.4077 252.7449,26.4744 Q253.4297,27.541 254.7744,27.541 Q255.4053,27.541 255.9988,27.2712 Q256.5923,27.0015 257.2231,26.4204 Z " fill="#000000"/><text fill="#000000" font-family="sans-serif" font-size="14" lengthAdjust="spacing" textLength="113" x="275.25" y="28.291">registreringHent</text><line style="stroke:#181818;stroke-width:0.5;" x1="131.5" x2="499.5" y1="39" y2="39"/><ellipse cx="141.5" cy="52.7441" fill="none" rx="3" ry="3" style="stroke:#038048;stroke-width:1.0;"/><text fill="#000000" font-family="sans-serif" font-size="14" lengthAdjust="spacing" textLength="99" x="150.5" y="56.5352">system : string</text><ellipse cx="141.5" cy="69.2324" fill="none" rx="3" ry="3" style="stroke:#038048;stroke-width:1.0;"/><text fill="#000000" font-family="sans-serif" font-size="14" lengthAdjust="spacing" textLength="344" x="150.5" y="73.0234">referanseTilRegistrering : referanseTilRegistrering</text><ellipse cx="141.5" cy="85.7207" fill="none" rx="3" ry="3" style="stroke:#038048;stroke-width:1.0;"/><text fill="#000000" font-family="sans-serif" font-size="14" lengthAdjust="spacing" textLength="136" x="150.5" y="89.5117">inkluder : inkluder[]</text><ellipse cx="141.5" cy="102.209" fill="none" rx="3" ry="3" style="stroke:#038048;stroke-width:1.0;"/><text fill="#000000" font-family="sans-serif" font-size="14" lengthAdjust="spacing" textLength="98" x="150.5" y="106">spraak : string</text><line style="stroke:#181818;stroke-width:0.5;" x1="131.5" x2="499.5" y1="112.9531" y2="112.9531"/></g><!--class referanseTilRegistrering--><g id="elem_referanseTilRegistrering"><rect fill="#F1F1F1" height="48" id="referanseTilRegistrering" rx="2.5" ry="2.5" style="stroke:#181818;stroke-width:0.5;" width="198" x="364.5" y="246.91"/><ellipse cx="379.5" cy="262.91" fill="#ADD1B2" rx="11" ry="11" style="stroke:#181818;stroke-width:1.0;"/><path d="M381.9731,269.0531 Q381.3921,269.3519 380.7529,269.5013 Q380.1138,269.6507 379.4082,269.6507 Q376.9014,269.6507 375.5815,267.9989 Q374.2617,266.347 374.2617,263.2259 Q374.2617,260.0965 375.5815,258.4447 Q376.9014,256.7928 379.4082,256.7928 Q380.1138,256.7928 380.7612,256.9422 Q381.4087,257.0916 381.9731,257.3905 L381.9731,260.1131 Q381.3423,259.5321 380.7488,259.2623 Q380.1553,258.9925 379.5244,258.9925 Q378.1797,258.9925 377.4949,260.0592 Q376.8101,261.1258 376.8101,263.2259 Q376.8101,265.3177 377.4949,266.3844 Q378.1797,267.451 379.5244,267.451 Q380.1553,267.451 380.7488,267.1812 Q381.3423,266.9115 381.9731,266.3304 Z " fill="#000000"/><text fill="#000000" font-family="sans-serif" font-size="14" lengthAdjust="spacing" textLength="166" x="393.5" y="268.201">referanseTilRegistrering</text><line style="stroke:#181818;stroke-width:0.5;" x1="365.5" x2="561.5" y1="278.91" y2="278.91"/><line style="stroke:#181818;stroke-width:0.5;" x1="365.5" x2="561.5" y1="286.91" y2="286.91"/></g><!--link registreringHent to referanseTilRegistrering--><g id="link_registreringHent_referanseTilRegistrering"><path codeLine="18" d="M356.14,121.25 C385.92,162.48 424.81,216.34 446.68,246.61 " fill="none" id="registreringHent-referanseTilRegistrering" style="stroke:#181818;stroke-width:1.0;"/></g><!--link registreringHent to inkluder--><g id="link_registreringHent_inkluder"><path codeLine="19" d="M275.14,121.25 C261.96,139.61 246.99,160.48 232.52,180.66 " fill="none" id="registreringHent-inkluder" style="stroke:#181818;stroke-width:1.0;"/></g><!--SRC=[TL713e8m3BtlAtOd_e29Ty_6c_4mf93PqP5sa133lpk684JPQNtlzRrk1MfhRGbTMm3hbzBnrC18fj2d-PPGye08plD8V8l48VSY32Mm8O78Ru6aAJosDL38GP1j1ou9_w2JesS6QJmLeq5ZE8okFs3IcYxragKgYbRL9hTqVLW5ZkM6z_aJSAsO03MeXpCYcg6o4XWu6fyZ_VciJ7e9KEkZZkIScIrFlrftMJL6sHurDIwhE2vRkTq_GGqRWz-WGVsCT3Zis_yJpn7g3G00]--></g></svg>