<?xml version="1.0" encoding="us-ascii" standalone="no"?><svg xmlns="http://www.w3.org/2000/svg" xmlns:xlink="http://www.w3.org/1999/xlink" contentStyleType="text/css" height="239px" preserveAspectRatio="none" style="width:842px;height:239px;background:#FFFFFF;" version="1.1" viewBox="0 0 842 239" width="842px" zoomAndPan="magnify"><defs/><g><rect fill="#F1F1F1" height="102.4414" rx="5" ry="5" style="stroke:#F1F1F1;stroke-width:1.5;" width="475" x="10" y="26.2793"/><text fill="#000000" font-family="sans-serif" font-size="14" font-weight="bold" lengthAdjust="spacing" textLength="101" x="15" y="41.8145">protokollnavn</text><text fill="#000000" font-family="sans-serif" font-size="14" lengthAdjust="spacing" textLength="102" x="126" y="41.8145">no.ks.fiks.arkiv</text><line style="stroke:#000000;stroke-width:1.0;" x1="121" x2="121" y1="26.2793" y2="46.7676"/><line style="stroke:#000000;stroke-width:1.0;" x1="10" x2="485" y1="46.7676" y2="46.7676"/><text fill="#000000" font-family="sans-serif" font-size="14" font-weight="bold" lengthAdjust="spacing" textLength="34" x="15" y="62.3027">navn</text><text fill="#000000" font-family="sans-serif" font-size="14" lengthAdjust="spacing" textLength="119" x="126" y="62.3027">kassasjonsvedtak</text><line style="stroke:#000000;stroke-width:1.0;" x1="121" x2="121" y1="46.7676" y2="67.2559"/><line style="stroke:#000000;stroke-width:1.0;" x1="10" x2="485" y1="67.2559" y2="67.2559"/><text fill="#000000" font-family="sans-serif" font-size="14" font-weight="bold" lengthAdjust="spacing" textLength="53" x="15" y="82.791">versjon</text><text fill="#000000" font-family="sans-serif" font-size="14" lengthAdjust="spacing" textLength="16" x="126" y="82.791">v1</text><line style="stroke:#000000;stroke-width:1.0;" x1="121" x2="121" y1="67.2559" y2="87.7441"/><line style="stroke:#000000;stroke-width:1.0;" x1="10" x2="485" y1="87.7441" y2="87.7441"/><text fill="#000000" font-family="sans-serif" font-size="14" font-weight="bold" lengthAdjust="spacing" textLength="73" x="15" y="103.2793">definisjon</text><text fill="#000000" font-family="sans-serif" font-size="14" lengthAdjust="spacing" textLength="354" x="126" y="103.2793">Handling som skal utf&#248;res ved bevaringstidens slutt</text><line style="stroke:#000000;stroke-width:1.0;" x1="121" x2="121" y1="87.7441" y2="108.2324"/><line style="stroke:#000000;stroke-width:1.0;" x1="10" x2="485" y1="108.2324" y2="108.2324"/><text fill="#000000" font-family="sans-serif" font-size="14" font-weight="bold" lengthAdjust="spacing" textLength="67" x="15" y="123.7676">kodeliste</text><text fill="#000000" font-family="sans-serif" font-size="14" lengthAdjust="spacing" textLength="12" x="126" y="123.7676">&#160;&#160;&#160;</text><line style="stroke:#000000;stroke-width:1.0;" x1="121" x2="121" y1="108.2324" y2="128.7207"/><rect fill="none" height="102.4414" rx="5" ry="5" style="stroke:#000000;stroke-width:1.5;" width="475" x="10" y="26.2793"/><rect fill="#F1F1F1" height="81.9531" rx="5" ry="5" style="stroke:#F1F1F1;stroke-width:1.5;" width="22" x="522" y="77.5"/><text fill="#000000" font-family="sans-serif" font-size="14" lengthAdjust="spacing" textLength="12" x="527" y="93.0352">&#160;&#160;&#160;</text><line style="stroke:#000000;stroke-width:1.0;" x1="522" x2="544" y1="97.9883" y2="97.9883"/><text fill="#000000" font-family="sans-serif" font-size="14" lengthAdjust="spacing" textLength="12" x="527" y="113.5234">&#160;&#160;&#160;</text><line style="stroke:#000000;stroke-width:1.0;" x1="522" x2="544" y1="118.4766" y2="118.4766"/><text fill="#000000" font-family="sans-serif" font-size="14" lengthAdjust="spacing" textLength="12" x="527" y="134.0117">&#160;&#160;&#160;</text><line style="stroke:#000000;stroke-width:1.0;" x1="522" x2="544" y1="138.9648" y2="138.9648"/><text fill="#000000" font-family="sans-serif" font-size="14" lengthAdjust="spacing" textLength="12" x="527" y="154.5">&#160;&#160;&#160;</text><rect fill="none" height="81.9531" rx="5" ry="5" style="stroke:#000000;stroke-width:1.5;" width="22" x="522" y="77.5"/><rect fill="#F1F1F1" height="40.9766" rx="5" ry="5" style="stroke:#F1F1F1;stroke-width:1.5;" width="189" x="611" y="10"/><text fill="#000000" font-family="sans-serif" font-size="14" font-weight="bold" lengthAdjust="spacing" textLength="71" x="616" y="25.5352">kodeverdi</text><text fill="#000000" font-family="sans-serif" font-size="14" lengthAdjust="spacing" textLength="8" x="743" y="25.5352">B</text><line style="stroke:#000000;stroke-width:1.0;" x1="738" x2="738" y1="10" y2="30.4883"/><line style="stroke:#000000;stroke-width:1.0;" x1="611" x2="800" y1="30.4883" y2="30.4883"/><text fill="#000000" font-family="sans-serif" font-size="14" font-weight="bold" lengthAdjust="spacing" textLength="117" x="616" y="46.0234">kodebeskrivelse</text><text fill="#000000" font-family="sans-serif" font-size="14" lengthAdjust="spacing" textLength="52" x="743" y="46.0234">Bevares</text><line style="stroke:#000000;stroke-width:1.0;" x1="738" x2="738" y1="30.4883" y2="50.9766"/><rect fill="none" height="40.9766" rx="5" ry="5" style="stroke:#000000;stroke-width:1.5;" width="189" x="611" y="10"/><rect fill="#F1F1F1" height="40.9766" rx="5" ry="5" style="stroke:#F1F1F1;stroke-width:1.5;" width="197" x="607" y="69"/><text fill="#000000" font-family="sans-serif" font-size="14" font-weight="bold" lengthAdjust="spacing" textLength="71" x="612" y="84.5352">kodeverdi</text><text fill="#000000" font-family="sans-serif" font-size="14" lengthAdjust="spacing" textLength="9" x="739" y="84.5352">K</text><line style="stroke:#000000;stroke-width:1.0;" x1="734" x2="734" y1="69" y2="89.4883"/><line style="stroke:#000000;stroke-width:1.0;" x1="607" x2="804" y1="89.4883" y2="89.4883"/><text fill="#000000" font-family="sans-serif" font-size="14" font-weight="bold" lengthAdjust="spacing" textLength="117" x="612" y="105.0234">kodebeskrivelse</text><text fill="#000000" font-family="sans-serif" font-size="14" lengthAdjust="spacing" textLength="60" x="739" y="105.0234">Kasseres</text><line style="stroke:#000000;stroke-width:1.0;" x1="734" x2="734" y1="89.4883" y2="109.9766"/><rect fill="none" height="40.9766" rx="5" ry="5" style="stroke:#000000;stroke-width:1.5;" width="197" x="607" y="69"/><rect fill="#F1F1F1" height="40.9766" rx="5" ry="5" style="stroke:#F1F1F1;stroke-width:1.5;" width="249" x="581" y="128"/><text fill="#000000" font-family="sans-serif" font-size="14" font-weight="bold" lengthAdjust="spacing" textLength="71" x="586" y="143.5352">kodeverdi</text><text fill="#000000" font-family="sans-serif" font-size="14" lengthAdjust="spacing" textLength="10" x="713" y="143.5352">G</text><line style="stroke:#000000;stroke-width:1.0;" x1="708" x2="708" y1="128" y2="148.4883"/><line style="stroke:#000000;stroke-width:1.0;" x1="581" x2="830" y1="148.4883" y2="148.4883"/><text fill="#000000" font-family="sans-serif" font-size="14" font-weight="bold" lengthAdjust="spacing" textLength="117" x="586" y="164.0234">kodebeskrivelse</text><text fill="#000000" font-family="sans-serif" font-size="14" lengthAdjust="spacing" textLength="112" x="713" y="164.0234">Vurderes senere</text><line style="stroke:#000000;stroke-width:1.0;" x1="708" x2="708" y1="148.4883" y2="168.9766"/><rect fill="none" height="40.9766" rx="5" ry="5" style="stroke:#000000;stroke-width:1.5;" width="249" x="581" y="128"/><rect fill="#F1F1F1" height="40.9766" rx="5" ry="5" style="stroke:#F1F1F1;stroke-width:1.5;" width="177" x="617" y="187"/><text fill="#000000" font-family="sans-serif" font-size="14" font-weight="bold" lengthAdjust="spacing" textLength="71" x="622" y="202.5352">kodeverdi</text><text fill="#000000" font-family="sans-serif" font-size="14" lengthAdjust="spacing" textLength="10" x="749" y="202.5352">U</text><line style="stroke:#000000;stroke-width:1.0;" x1="744" x2="744" y1="187" y2="207.4883"/><line style="stroke:#000000;stroke-width:1.0;" x1="617" x2="794" y1="207.4883" y2="207.4883"/><text fill="#000000" font-family="sans-serif" font-size="14" font-weight="bold" lengthAdjust="spacing" textLength="117" x="622" y="223.0234">kodebeskrivelse</text><text fill="#000000" font-family="sans-serif" font-size="14" lengthAdjust="spacing" textLength="40" x="749" y="223.0234">Utf&#248;rt</text><line style="stroke:#000000;stroke-width:1.0;" x1="744" x2="744" y1="207.4883" y2="227.9766"/><rect fill="none" height="40.9766" rx="5" ry="5" style="stroke:#000000;stroke-width:1.5;" width="177" x="617" y="187"/><path d="M532,87.5 L545,87.5 C565.2698,87.5 562.7077,68.2325 581,59.5 C588.3323,55.9997 596.1148,52.9067 604.0671,50.1763 " fill="none" style="stroke:#000000;stroke-width:1.0;stroke-dasharray:3.0,3.0;"/><path d="M605.0299,53.1134 L606.27,49.4542 L603.1044,47.2391 L611.41,47.7693 L605.0299,53.1134 " fill="#000000" style="stroke:#000000;stroke-width:1.0;"/><ellipse cx="532" cy="87.5" fill="#000000" rx="3" ry="3" style="stroke:#000000;stroke-width:1.0;"/><path d="M532,108.5 L545,108.5 C562.7453,108.5 581.521,107.3333 599.7266,105.5781 " fill="none" style="stroke:#000000;stroke-width:1.0;stroke-dasharray:3.0,3.0;"/><path d="M600.0413,108.6832 L602.0555,105.3421 L599.412,102.4729 L607.4895,104.7915 L600.0413,108.6832 " fill="#000000" style="stroke:#000000;stroke-width:1.0;"/><ellipse cx="532" cy="108.5" fill="#000000" rx="3" ry="3" style="stroke:#000000;stroke-width:1.0;"/><path d="M532,128.5 L545,128.5 C554.2774,128.5 563.8341,128.8352 573.4425,129.4187 " fill="none" style="stroke:#000000;stroke-width:1.0;stroke-dasharray:3.0,3.0;"/><path d="M573.2346,132.5037 L575.7562,129.5746 L573.6503,126.3338 L581.1548,129.9384 L573.2346,132.5037 " fill="#000000" style="stroke:#000000;stroke-width:1.0;"/><ellipse cx="532" cy="128.5" fill="#000000" rx="3" ry="3" style="stroke:#000000;stroke-width:1.0;"/><path d="M532,149.5 L545,149.5 C565.5456,149.5 562.535,169.4907 581,178.5 C590.1137,182.9467 599.9422,186.7309 609.9368,189.9473 " fill="none" style="stroke:#000000;stroke-width:1.0;stroke-dasharray:3.0,3.0;"/><path d="M609.0396,192.8669 L612.1265,190.6202 L610.834,187.0276 L617.2359,192.1903 L609.0396,192.8669 " fill="#000000" style="stroke:#000000;stroke-width:1.0;"/><ellipse cx="532" cy="149.5" fill="#000000" rx="3" ry="3" style="stroke:#000000;stroke-width:1.0;"/><path d="M473,118.5 L486,118.5 C495.4213,118.5 505.9164,118.5 514.5483,118.5 " fill="none" style="stroke:#000000;stroke-width:1.0;stroke-dasharray:3.0,3.0;"/><path d="M514.5483,121.5437 L516.8311,118.5 L514.5483,115.4563 L522.1575,118.5 L514.5483,121.5437 " fill="#000000" style="stroke:#000000;stroke-width:1.0;"/><ellipse cx="473" cy="118.5" fill="#000000" rx="3" ry="3" style="stroke:#000000;stroke-width:1.0;"/><!--SRC=[ZPBDIaCn48NtUOhXhYfeQQj8kIkfl_H7nTfkn4LgfYNUT2AP923YUxdtnPnxs-gkk9d0EIVVX9cSSTGXlh8dzQ40YhVWew-ySwGp5IKKvDiLjvTMYWwLpSLX7TkvbMRM_Eg9CvgegusRCTHQ7SZTZMHmQSdkr1jDnbbQ0VirSAKTfBZy_Wh881nOODP1R8xM836mIp5kE9Ktw2n75CoJ200VJTrQqjdO0gJ5eCd_6WlaAjYCZd5ZrosGYoRpURYFDDfF6ia8y9-ew_seUGgcHW4ZoVaVucm_STQCDMv9Kf_Lfpf3Cit6rRtJ56UJCTGRivwWs-vrUiVjVckQ22Rw7NfTw7RAutxPwS3vvVGHQlz0jQxlnxAy55uGZAmZs4MA0ZXGGvqrF2IATeqbtBqX3Iz6Em4kATlWQOqKrN0- -GkSdXmDR8Gf1daAp2Vg0fSwkIWtNhoHlr32xF7ggA_6cbP9huIDfCwzSCDx2RTtFm00]--></g></svg>