<?xml version="1.0" encoding="us-ascii" standalone="no"?><svg xmlns="http://www.w3.org/2000/svg" xmlns:xlink="http://www.w3.org/1999/xlink" contentStyleType="text/css" height="193px" preserveAspectRatio="none" style="width:842px;height:193px;background:#FFFFFF;" version="1.1" viewBox="0 0 842 193" width="842px" zoomAndPan="magnify"><defs/><g><rect fill="#F1F1F1" height="102.4414" rx="5" ry="5" style="stroke:#F1F1F1;stroke-width:1.5;" width="475" x="10" y="10"/><text fill="#000000" font-family="sans-serif" font-size="14" font-weight="bold" lengthAdjust="spacing" textLength="101" x="15" y="25.5352">protokollnavn</text><text fill="#000000" font-family="sans-serif" font-size="14" lengthAdjust="spacing" textLength="102" x="126" y="25.5352">no.ks.fiks.arkiv</text><line style="stroke:#000000;stroke-width:1.0;" x1="121" x2="121" y1="10" y2="30.4883"/><line style="stroke:#000000;stroke-width:1.0;" x1="10" x2="485" y1="30.4883" y2="30.4883"/><text fill="#000000" font-family="sans-serif" font-size="14" font-weight="bold" lengthAdjust="spacing" textLength="34" x="15" y="46.0234">navn</text><text fill="#000000" font-family="sans-serif" font-size="14" lengthAdjust="spacing" textLength="119" x="126" y="46.0234">kassasjonsvedtak</text><line style="stroke:#000000;stroke-width:1.0;" x1="121" x2="121" y1="30.4883" y2="50.9766"/><line style="stroke:#000000;stroke-width:1.0;" x1="10" x2="485" y1="50.9766" y2="50.9766"/><text fill="#000000" font-family="sans-serif" font-size="14" font-weight="bold" lengthAdjust="spacing" textLength="53" x="15" y="66.5117">versjon</text><text fill="#000000" font-family="sans-serif" font-size="14" lengthAdjust="spacing" textLength="16" x="126" y="66.5117">v1</text><line style="stroke:#000000;stroke-width:1.0;" x1="121" x2="121" y1="50.9766" y2="71.4648"/><line style="stroke:#000000;stroke-width:1.0;" x1="10" x2="485" y1="71.4648" y2="71.4648"/><text fill="#000000" font-family="sans-serif" font-size="14" font-weight="bold" lengthAdjust="spacing" textLength="73" x="15" y="87">definisjon</text><text fill="#000000" font-family="sans-serif" font-size="14" lengthAdjust="spacing" textLength="354" x="126" y="87">Handling som skal utf&#248;res ved bevaringstidens slutt</text><line style="stroke:#000000;stroke-width:1.0;" x1="121" x2="121" y1="71.4648" y2="91.9531"/><line style="stroke:#000000;stroke-width:1.0;" x1="10" x2="485" y1="91.9531" y2="91.9531"/><text fill="#000000" font-family="sans-serif" font-size="14" font-weight="bold" lengthAdjust="spacing" textLength="67" x="15" y="107.4883">kodeliste</text><text fill="#000000" font-family="sans-serif" font-size="14" lengthAdjust="spacing" textLength="12" x="126" y="107.4883">&#160;&#160;&#160;</text><line style="stroke:#000000;stroke-width:1.0;" x1="121" x2="121" y1="91.9531" y2="112.4414"/><rect fill="none" height="102.4414" rx="5" ry="5" style="stroke:#000000;stroke-width:1.5;" width="475" x="10" y="10"/><rect fill="#F1F1F1" height="61.4648" rx="5" ry="5" style="stroke:#F1F1F1;stroke-width:1.5;" width="22" x="522" y="71.4883"/><text fill="#000000" font-family="sans-serif" font-size="14" lengthAdjust="spacing" textLength="12" x="527" y="87.0234">&#160;&#160;&#160;</text><line style="stroke:#000000;stroke-width:1.0;" x1="522" x2="544" y1="91.9766" y2="91.9766"/><text fill="#000000" font-family="sans-serif" font-size="14" lengthAdjust="spacing" textLength="12" x="527" y="107.5117">&#160;&#160;&#160;</text><line style="stroke:#000000;stroke-width:1.0;" x1="522" x2="544" y1="112.4648" y2="112.4648"/><text fill="#000000" font-family="sans-serif" font-size="14" lengthAdjust="spacing" textLength="12" x="527" y="128">&#160;&#160;&#160;</text><rect fill="none" height="61.4648" rx="5" ry="5" style="stroke:#000000;stroke-width:1.5;" width="22" x="522" y="71.4883"/><rect fill="#F1F1F1" height="40.9766" rx="5" ry="5" style="stroke:#F1F1F1;stroke-width:1.5;" width="189" x="611" y="22.7207"/><text fill="#000000" font-family="sans-serif" font-size="14" font-weight="bold" lengthAdjust="spacing" textLength="71" x="616" y="38.2559">kodeverdi</text><text fill="#000000" font-family="sans-serif" font-size="14" lengthAdjust="spacing" textLength="8" x="743" y="38.2559">B</text><line style="stroke:#000000;stroke-width:1.0;" x1="738" x2="738" y1="22.7207" y2="43.209"/><line style="stroke:#000000;stroke-width:1.0;" x1="611" x2="800" y1="43.209" y2="43.209"/><text fill="#000000" font-family="sans-serif" font-size="14" font-weight="bold" lengthAdjust="spacing" textLength="117" x="616" y="58.7441">kodebeskrivelse</text><text fill="#000000" font-family="sans-serif" font-size="14" lengthAdjust="spacing" textLength="52" x="743" y="58.7441">Bevares</text><line style="stroke:#000000;stroke-width:1.0;" x1="738" x2="738" y1="43.209" y2="63.6973"/><rect fill="none" height="40.9766" rx="5" ry="5" style="stroke:#000000;stroke-width:1.5;" width="189" x="611" y="22.7207"/><rect fill="#F1F1F1" height="40.9766" rx="5" ry="5" style="stroke:#F1F1F1;stroke-width:1.5;" width="197" x="607" y="81.7207"/><text fill="#000000" font-family="sans-serif" font-size="14" font-weight="bold" lengthAdjust="spacing" textLength="71" x="612" y="97.2559">kodeverdi</text><text fill="#000000" font-family="sans-serif" font-size="14" lengthAdjust="spacing" textLength="9" x="739" y="97.2559">K</text><line style="stroke:#000000;stroke-width:1.0;" x1="734" x2="734" y1="81.7207" y2="102.209"/><line style="stroke:#000000;stroke-width:1.0;" x1="607" x2="804" y1="102.209" y2="102.209"/><text fill="#000000" font-family="sans-serif" font-size="14" font-weight="bold" lengthAdjust="spacing" textLength="117" x="612" y="117.7441">kodebeskrivelse</text><text fill="#000000" font-family="sans-serif" font-size="14" lengthAdjust="spacing" textLength="60" x="739" y="117.7441">Kasseres</text><line style="stroke:#000000;stroke-width:1.0;" x1="734" x2="734" y1="102.209" y2="122.6973"/><rect fill="none" height="40.9766" rx="5" ry="5" style="stroke:#000000;stroke-width:1.5;" width="197" x="607" y="81.7207"/><rect fill="#F1F1F1" height="40.9766" rx="5" ry="5" style="stroke:#F1F1F1;stroke-width:1.5;" width="249" x="581" y="140.7207"/><text fill="#000000" font-family="sans-serif" font-size="14" font-weight="bold" lengthAdjust="spacing" textLength="71" x="586" y="156.2559">kodeverdi</text><text fill="#000000" font-family="sans-serif" font-size="14" lengthAdjust="spacing" textLength="10" x="713" y="156.2559">G</text><line style="stroke:#000000;stroke-width:1.0;" x1="708" x2="708" y1="140.7207" y2="161.209"/><line style="stroke:#000000;stroke-width:1.0;" x1="581" x2="830" y1="161.209" y2="161.209"/><text fill="#000000" font-family="sans-serif" font-size="14" font-weight="bold" lengthAdjust="spacing" textLength="117" x="586" y="176.7441">kodebeskrivelse</text><text fill="#000000" font-family="sans-serif" font-size="14" lengthAdjust="spacing" textLength="112" x="713" y="176.7441">Vurderes senere</text><line style="stroke:#000000;stroke-width:1.0;" x1="708" x2="708" y1="161.209" y2="181.6973"/><rect fill="none" height="40.9766" rx="5" ry="5" style="stroke:#000000;stroke-width:1.5;" width="249" x="581" y="140.7207"/><path d="M532,82.2207 L545,82.2207 C561.4924,82.2207 564.9849,77.1598 581,73.2207 C591.1356,70.7277 601.7415,68.136 612.3011,65.5663 " fill="none" style="stroke:#000000;stroke-width:1.0;stroke-dasharray:3.0,3.0;"/><path d="M613.0107,68.485 L614.4901,65.0341 L611.5915,62.6476 L619.5978,63.7923 L613.0107,68.485 " fill="#000000" style="stroke:#000000;stroke-width:1.0;"/><ellipse cx="532" cy="82.2207" fill="#000000" rx="3" ry="3" style="stroke:#000000;stroke-width:1.0;"/><path d="M532,102.2207 L545,102.2207 C562.6215,102.2207 581.3347,102.2207 599.5165,102.2207 " fill="none" style="stroke:#000000;stroke-width:1.0;stroke-dasharray:3.0,3.0;"/><path d="M599.5165,105.3227 L601.8429,102.2207 L599.5165,99.1187 L607.2714,102.2207 L599.5165,105.3227 " fill="#000000" style="stroke:#000000;stroke-width:1.0;"/><ellipse cx="532" cy="102.2207" fill="#000000" rx="3" ry="3" style="stroke:#000000;stroke-width:1.0;"/><path d="M532,122.2207 L545,122.2207 C561.6058,122.2207 564.9118,128.1068 581,132.2207 C589.7042,134.4464 598.7695,136.6963 607.862,138.9065 " fill="none" style="stroke:#000000;stroke-width:1.0;stroke-dasharray:3.0,3.0;"/><path d="M607.1568,141.8231 L610.0494,139.4354 L608.5671,135.9899 L615.1534,140.6694 L607.1568,141.8231 " fill="#000000" style="stroke:#000000;stroke-width:1.0;"/><ellipse cx="532" cy="122.2207" fill="#000000" rx="3" ry="3" style="stroke:#000000;stroke-width:1.0;"/><path d="M473,102.2207 L486,102.2207 C495.4213,102.2207 505.9164,102.2207 514.5483,102.2207 " fill="none" style="stroke:#000000;stroke-width:1.0;stroke-dasharray:3.0,3.0;"/><path d="M514.5483,105.2644 L516.8311,102.2207 L514.5483,99.177 L522.1575,102.2207 L514.5483,105.2644 " fill="#000000" style="stroke:#000000;stroke-width:1.0;"/><ellipse cx="473" cy="102.2207" fill="#000000" rx="3" ry="3" style="stroke:#000000;stroke-width:1.0;"/><!--SRC=[ZP7DJa8n48NtVOh9NKcY1D0OSbT6GGm_QaJP61U53gJSCZMTjeanlfTxNyov8BeZRgR9EQVVDASN77M8Q_QatXL0yHfyz9LtZdIceeI2VBFYvjBAqA6okJYkOtktqioQrvuueucwshaPGwtLWTpUIGQNbknUlT5adAKLiDy0Lzf1Yiklpu0Cme4vPXt4vcWD4WEx5EEEKtc3pd94mJoB0F2-dJ-MR3Qs05bnkSt_6dFaAjYCZd5drokGYstcu_WGQNIOD98Ay9-emM7KB0LJeu2HvFmXodnH7-e2oMp_ITqxJV5fCeQwP-i9sirEgtFQx1vD4y54lq6d3UrMUTejMosuwayVeVORwcXmFvRAKrWW62ans7cA0cYeeSuQ7X95ky4IxbwHXhtHNe0-PHiyRP2Y6iucVu7pivDB6s6AGPu2iudguL8d5-N6mXlvmHAU7gzFkcgiQPNqIjX8wieBDxoLS7lt3G00]--></g></svg>