<?xml version="1.0" encoding="us-ascii" standalone="no"?><svg xmlns="http://www.w3.org/2000/svg" xmlns:xlink="http://www.w3.org/1999/xlink" contentStyleType="text/css" height="422px" preserveAspectRatio="none" style="width:959px;height:422px;background:#FFFFFF;" version="1.1" viewBox="0 0 959 422" width="959px" zoomAndPan="magnify"><defs/><g><text fill="#000000" font-family="sans-serif" font-size="14" font-weight="bold" lengthAdjust="spacing" textLength="243" x="357" y="28.5352">Opprett arkivmelding - serverfeil</text><line style="stroke:#181818;stroke-width:0.5;stroke-dasharray:5.0,5.0;" x1="61" x2="61" y1="78.6875" y2="147.3086"/><line style="stroke:#A80036;stroke-width:1.0;stroke-dasharray:1.0,4.0;" x1="61" x2="61" y1="147.3086" y2="201.2188"/><line style="stroke:#181818;stroke-width:0.5;stroke-dasharray:5.0,5.0;" x1="61" x2="61" y1="201.2188" y2="259.8398"/><line style="stroke:#A80036;stroke-width:1.0;stroke-dasharray:1.0,4.0;" x1="61" x2="61" y1="259.8398" y2="313.75"/><line style="stroke:#181818;stroke-width:0.5;stroke-dasharray:5.0,5.0;" x1="61" x2="61" y1="313.75" y2="382.3711"/><line style="stroke:#181818;stroke-width:0.5;stroke-dasharray:5.0,5.0;" x1="474.5" x2="474.5" y1="78.6875" y2="147.3086"/><line style="stroke:#A80036;stroke-width:1.0;stroke-dasharray:1.0,4.0;" x1="474.5" x2="474.5" y1="147.3086" y2="201.2188"/><line style="stroke:#181818;stroke-width:0.5;stroke-dasharray:5.0,5.0;" x1="474.5" x2="474.5" y1="201.2188" y2="259.8398"/><line style="stroke:#A80036;stroke-width:1.0;stroke-dasharray:1.0,4.0;" x1="474.5" x2="474.5" y1="259.8398" y2="313.75"/><line style="stroke:#181818;stroke-width:0.5;stroke-dasharray:5.0,5.0;" x1="474.5" x2="474.5" y1="313.75" y2="382.3711"/><line style="stroke:#181818;stroke-width:0.5;stroke-dasharray:5.0,5.0;" x1="889" x2="889" y1="78.6875" y2="147.3086"/><line style="stroke:#A80036;stroke-width:1.0;stroke-dasharray:1.0,4.0;" x1="889" x2="889" y1="147.3086" y2="201.2188"/><line style="stroke:#181818;stroke-width:0.5;stroke-dasharray:5.0,5.0;" x1="889" x2="889" y1="201.2188" y2="259.8398"/><line style="stroke:#A80036;stroke-width:1.0;stroke-dasharray:1.0,4.0;" x1="889" x2="889" y1="259.8398" y2="313.75"/><line style="stroke:#181818;stroke-width:0.5;stroke-dasharray:5.0,5.0;" x1="889" x2="889" y1="313.75" y2="382.3711"/><rect fill="#E2E2F0" height="35.1992" rx="2.5" ry="2.5" style="stroke:#181818;stroke-width:0.5;" width="112" x="5" y="42.4883"/><text fill="#000000" font-family="sans-serif" font-size="18" font-weight="bold" lengthAdjust="spacing" textLength="98" x="12" y="66.8906">Fagsystem</text><rect fill="#E2E2F0" height="35.1992" rx="2.5" ry="2.5" style="stroke:#181818;stroke-width:0.5;" width="112" x="5" y="381.3711"/><text fill="#000000" font-family="sans-serif" font-size="18" font-weight="bold" lengthAdjust="spacing" textLength="98" x="12" y="405.7734">Fagsystem</text><rect fill="#E2E2F0" height="35.1992" rx="2.5" ry="2.5" style="stroke:#181818;stroke-width:0.5;" width="139" x="405.5" y="42.4883"/><text fill="#000000" font-family="sans-serif" font-size="18" font-weight="bold" lengthAdjust="spacing" textLength="125" x="412.5" y="66.8906">Fiks Protokoll</text><rect fill="#E2E2F0" height="35.1992" rx="2.5" ry="2.5" style="stroke:#181818;stroke-width:0.5;" width="139" x="405.5" y="381.3711"/><text fill="#000000" font-family="sans-serif" font-size="18" font-weight="bold" lengthAdjust="spacing" textLength="125" x="412.5" y="405.7734">Fiks Protokoll</text><rect fill="#E2E2F0" height="35.1992" rx="2.5" ry="2.5" style="stroke:#181818;stroke-width:0.5;" width="128" x="825" y="42.4883"/><text fill="#000000" font-family="sans-serif" font-size="18" font-weight="bold" lengthAdjust="spacing" textLength="114" x="832" y="66.8906">Arkivsystem</text><rect fill="#E2E2F0" height="35.1992" rx="2.5" ry="2.5" style="stroke:#181818;stroke-width:0.5;" width="128" x="825" y="381.3711"/><text fill="#000000" font-family="sans-serif" font-size="18" font-weight="bold" lengthAdjust="spacing" textLength="114" x="832" y="405.7734">Arkivsystem</text><polygon fill="#181818" points="463,105.998,473,109.998,463,113.998,467,109.998" style="stroke:#181818;stroke-width:1.0;"/><line style="stroke:#181818;stroke-width:1.0;" x1="61" x2="469" y1="109.998" y2="109.998"/><text fill="#000000" font-family="sans-serif" font-size="13" font-weight="bold" lengthAdjust="spacing" textLength="338" x="99" y="105.2559">no.ks.fiks.arkiv.v1.arkivering.arkivmelding.opprett</text><polygon fill="#181818" points="877,135.3086,887,139.3086,877,143.3086,881,139.3086" style="stroke:#181818;stroke-width:1.0;"/><line style="stroke:#181818;stroke-width:1.0;" x1="475" x2="883" y1="139.3086" y2="139.3086"/><text fill="#000000" font-family="sans-serif" font-size="13" font-weight="bold" lengthAdjust="spacing" textLength="338" x="513" y="134.5664">no.ks.fiks.arkiv.v1.arkivering.arkivmelding.opprett</text><text fill="#000000" font-family="sans-serif" font-size="11" lengthAdjust="spacing" textLength="66" x="317" y="171.9434">Arkivsystem</text><text fill="#000000" font-family="sans-serif" font-size="11" font-weight="bold" lengthAdjust="spacing" textLength="20" x="386" y="171.9434">kan</text><text fill="#000000" font-family="sans-serif" font-size="11" lengthAdjust="spacing" textLength="224" x="409" y="171.9434">melde at melding er mottatt og h&#229;ndteres.</text><text fill="#000000" font-family="sans-serif" font-size="11" lengthAdjust="spacing" textLength="347" x="301.5" y="184.8984">Merk at serverfeil kan inntreffe b&#229;de f&#248;r og etter mottatt-melding</text><polygon fill="#181818" points="486,218.5293,476,222.5293,486,226.5293,482,222.5293" style="stroke:#181818;stroke-width:1.0;"/><line style="stroke:#181818;stroke-width:1.0;" x1="480" x2="888" y1="222.5293" y2="222.5293"/><text fill="#000000" font-family="sans-serif" font-size="13" font-weight="bold" lengthAdjust="spacing" textLength="390" x="487" y="217.7871">no.ks.fiks.arkiv.v1.arkivering.arkivmelding.opprett.mottatt</text><polygon fill="#181818" points="72,247.8398,62,251.8398,72,255.8398,68,251.8398" style="stroke:#181818;stroke-width:1.0;"/><line style="stroke:#181818;stroke-width:1.0;" x1="66" x2="474" y1="251.8398" y2="251.8398"/><text fill="#000000" font-family="sans-serif" font-size="13" font-weight="bold" lengthAdjust="spacing" textLength="390" x="73" y="247.0977">no.ks.fiks.arkiv.v1.arkivering.arkivmelding.opprett.mottatt</text><text fill="#000000" font-family="sans-serif" font-size="11" lengthAdjust="spacing" textLength="225" x="362.5" y="284.4746">Arkivsystem feiler av en eller annen grunn</text><text fill="#000000" font-family="sans-serif" font-size="11" lengthAdjust="spacing" textLength="169" x="392" y="297.4297">og sender serverfeil feilmelding</text><polygon fill="#181818" points="486,331.0605,476,335.0605,486,339.0605,482,335.0605" style="stroke:#181818;stroke-width:1.0;"/><line style="stroke:#181818;stroke-width:1.0;" x1="480" x2="888" y1="335.0605" y2="335.0605"/><text fill="#000000" font-family="sans-serif" font-size="13" font-weight="bold" lengthAdjust="spacing" textLength="266" x="549" y="330.3184">no.ks.fiks.arkiv.v1.feilmelding.serverfeil</text><polygon fill="#181818" points="72,360.3711,62,364.3711,72,368.3711,68,364.3711" style="stroke:#181818;stroke-width:1.0;"/><line style="stroke:#181818;stroke-width:1.0;" x1="66" x2="474" y1="364.3711" y2="364.3711"/><text fill="#000000" font-family="sans-serif" font-size="13" font-weight="bold" lengthAdjust="spacing" textLength="266" x="135" y="359.6289">no.ks.fiks.arkiv.v1.feilmelding.serverfeil</text><!--SRC=[hP6nJiCm48PtFyMfewLOOaK2gGjR1JjbCCqbM7REmNOZyK1z1_Q-6EUMOZU2fIL3PFsw- -x-_w8rDEgW1uZulaNQu0fZr3qkdUa9DaW9Wn3998UmU1p7W2c13jPC0xhMK0yDjuO9GuV6BOHWMZ8RCsfAyA3x-14J3l0iWB-xeeYNyqfZurFmoLllNAbc5NxaMSioBp73LnfNYpA_kP-Dk0KfoIiRLSUwEZXIqytnWO6DgTgbyaVhKefp3eFhHIx7AgLga9HMavIG2n5qWbFS663mAMa-W-_XRR-Zba-4KQrfXS7cqd8FO0WOeXImwn1Uzpk6TVlFa7jvRe4rfusK4lKU_nMS-fxpMu3bJDV3Pp7c4DYadW09q1tUHFpkmvPeJJc7YDIoNgMMVzVcKJCA-ZBxVxA-0000]--></g></svg>