<?xml version="1.0" encoding="us-ascii" standalone="no"?><svg xmlns="http://www.w3.org/2000/svg" xmlns:xlink="http://www.w3.org/1999/xlink" contentStyleType="text/css" height="308px" preserveAspectRatio="none" style="width:562px;height:308px;background:#FFFFFF;" version="1.1" viewBox="0 0 562 308" width="562px" zoomAndPan="magnify"><defs/><g><text fill="#000000" font-family="sans-serif" font-size="14" font-weight="bold" lengthAdjust="spacing" textLength="193" x="183.5" y="28.5352">Opprett arkivmelding - ok</text><line style="stroke:#181818;stroke-width:0.5;stroke-dasharray:5.0,5.0;" x1="61" x2="61" y1="78.6875" y2="117.998"/><line style="stroke:#A80036;stroke-width:1.0;stroke-dasharray:1.0,4.0;" x1="61" x2="61" y1="117.998" y2="158.9531"/><line style="stroke:#181818;stroke-width:0.5;stroke-dasharray:5.0,5.0;" x1="61" x2="61" y1="158.9531" y2="188.2637"/><line style="stroke:#A80036;stroke-width:1.0;stroke-dasharray:1.0,4.0;" x1="61" x2="61" y1="188.2637" y2="229.2188"/><line style="stroke:#181818;stroke-width:0.5;stroke-dasharray:5.0,5.0;" x1="61" x2="61" y1="229.2188" y2="268.5293"/><line style="stroke:#181818;stroke-width:0.5;stroke-dasharray:5.0,5.0;" x1="492" x2="492" y1="78.6875" y2="117.998"/><line style="stroke:#A80036;stroke-width:1.0;stroke-dasharray:1.0,4.0;" x1="492" x2="492" y1="117.998" y2="158.9531"/><line style="stroke:#181818;stroke-width:0.5;stroke-dasharray:5.0,5.0;" x1="492" x2="492" y1="158.9531" y2="188.2637"/><line style="stroke:#A80036;stroke-width:1.0;stroke-dasharray:1.0,4.0;" x1="492" x2="492" y1="188.2637" y2="229.2188"/><line style="stroke:#181818;stroke-width:0.5;stroke-dasharray:5.0,5.0;" x1="492" x2="492" y1="229.2188" y2="268.5293"/><rect fill="#E2E2F0" height="35.1992" rx="2.5" ry="2.5" style="stroke:#181818;stroke-width:0.5;" width="112" x="5" y="42.4883"/><text fill="#000000" font-family="sans-serif" font-size="18" font-weight="bold" lengthAdjust="spacing" textLength="98" x="12" y="66.8906">Fagsystem</text><rect fill="#E2E2F0" height="35.1992" rx="2.5" ry="2.5" style="stroke:#181818;stroke-width:0.5;" width="112" x="5" y="267.5293"/><text fill="#000000" font-family="sans-serif" font-size="18" font-weight="bold" lengthAdjust="spacing" textLength="98" x="12" y="291.9316">Fagsystem</text><rect fill="#E2E2F0" height="35.1992" rx="2.5" ry="2.5" style="stroke:#181818;stroke-width:0.5;" width="128" x="428" y="42.4883"/><text fill="#000000" font-family="sans-serif" font-size="18" font-weight="bold" lengthAdjust="spacing" textLength="114" x="435" y="66.8906">Arkivsystem</text><rect fill="#E2E2F0" height="35.1992" rx="2.5" ry="2.5" style="stroke:#181818;stroke-width:0.5;" width="128" x="428" y="267.5293"/><text fill="#000000" font-family="sans-serif" font-size="18" font-weight="bold" lengthAdjust="spacing" textLength="114" x="435" y="291.9316">Arkivsystem</text><polygon fill="#181818" points="480,105.998,490,109.998,480,113.998,484,109.998" style="stroke:#181818;stroke-width:1.0;"/><line style="stroke:#181818;stroke-width:1.0;" x1="61" x2="486" y1="109.998" y2="109.998"/><text fill="#000000" font-family="sans-serif" font-size="13" font-weight="bold" lengthAdjust="spacing" textLength="338" x="107.5" y="105.2559">no.ks.fiks.arkiv.v1.arkivering.arkivmelding.opprett</text><text fill="#000000" font-family="sans-serif" font-size="11" lengthAdjust="spacing" textLength="295" x="129" y="142.6328">Arkivsystem melder at melding er mottatt og h&#229;ndteres</text><polygon fill="#181818" points="72,176.2637,62,180.2637,72,184.2637,68,180.2637" style="stroke:#181818;stroke-width:1.0;"/><line style="stroke:#181818;stroke-width:1.0;" x1="66" x2="491" y1="180.2637" y2="180.2637"/><text fill="#000000" font-family="sans-serif" font-size="13" font-weight="bold" lengthAdjust="spacing" textLength="390" x="81.5" y="175.5215">no.ks.fiks.arkiv.v1.arkivering.arkivmelding.opprett.mottatt</text><text fill="#000000" font-family="sans-serif" font-size="11" lengthAdjust="spacing" textLength="114" x="219.5" y="212.8984">Arkivsystem kvitterer</text><polygon fill="#181818" points="72,246.5293,62,250.5293,72,254.5293,68,250.5293" style="stroke:#181818;stroke-width:1.0;"/><line style="stroke:#181818;stroke-width:1.0;" x1="66" x2="491" y1="250.5293" y2="250.5293"/><text fill="#000000" font-family="sans-serif" font-size="13" font-weight="bold" lengthAdjust="spacing" textLength="407" x="73" y="245.7871">no.ks.fiks.arkiv.v1.arkivering.arkivmelding.opprett.kvittering</text><!--SRC=[jP31YW8n38RlUOhWSS30NeKLl7YJVO35GnbZ3PrfPziuu0Fv9FjYcrcL6VKcs4Dfmf___z8I97OkknOB_nmvrhpXKfpdLIC-OirHEGEeQCCu- -gwpAheSf2-vMOdqUCSKvW1c8jABPsBYcldowaej_WDQETpxC3sJhaQd1wqavwfOJIRB-_q2wogc2WKsejT_r3KVrmUd8sDfg2KBlHL1KGqDHe4dD4ftdQogasgpdPD7W-_vxYpV-1YWp2TDA8HxqKUkYOzSuLUT8ZDRuczkblBaly0]--></g></svg>