<?xml version="1.0" encoding="us-ascii" standalone="no"?><svg xmlns="http://www.w3.org/2000/svg" xmlns:xlink="http://www.w3.org/1999/xlink" contentStyleType="text/css" height="396px" preserveAspectRatio="none" style="width:1077px;height:396px;background:#FFFFFF;" version="1.1" viewBox="0 0 1077 396" width="1077px" zoomAndPan="magnify"><defs/><g><text fill="#000000" font-family="sans-serif" font-size="14" font-weight="bold" lengthAdjust="spacing" textLength="193" x="441" y="28.5352">Opprett arkivmelding - ok</text><line style="stroke:#181818;stroke-width:0.5;stroke-dasharray:5.0,5.0;" x1="61" x2="61" y1="78.6875" y2="147.3086"/><line style="stroke:#A80036;stroke-width:1.0;stroke-dasharray:1.0,4.0;" x1="61" x2="61" y1="147.3086" y2="188.2637"/><line style="stroke:#181818;stroke-width:0.5;stroke-dasharray:5.0,5.0;" x1="61" x2="61" y1="188.2637" y2="246.8848"/><line style="stroke:#A80036;stroke-width:1.0;stroke-dasharray:1.0,4.0;" x1="61" x2="61" y1="246.8848" y2="287.8398"/><line style="stroke:#181818;stroke-width:0.5;stroke-dasharray:5.0,5.0;" x1="61" x2="61" y1="287.8398" y2="356.4609"/><line style="stroke:#181818;stroke-width:0.5;stroke-dasharray:5.0,5.0;" x1="474.5" x2="474.5" y1="78.6875" y2="147.3086"/><line style="stroke:#A80036;stroke-width:1.0;stroke-dasharray:1.0,4.0;" x1="474.5" x2="474.5" y1="147.3086" y2="188.2637"/><line style="stroke:#181818;stroke-width:0.5;stroke-dasharray:5.0,5.0;" x1="474.5" x2="474.5" y1="188.2637" y2="246.8848"/><line style="stroke:#A80036;stroke-width:1.0;stroke-dasharray:1.0,4.0;" x1="474.5" x2="474.5" y1="246.8848" y2="287.8398"/><line style="stroke:#181818;stroke-width:0.5;stroke-dasharray:5.0,5.0;" x1="474.5" x2="474.5" y1="287.8398" y2="356.4609"/><line style="stroke:#181818;stroke-width:0.5;stroke-dasharray:5.0,5.0;" x1="906" x2="906" y1="78.6875" y2="147.3086"/><line style="stroke:#A80036;stroke-width:1.0;stroke-dasharray:1.0,4.0;" x1="906" x2="906" y1="147.3086" y2="188.2637"/><line style="stroke:#181818;stroke-width:0.5;stroke-dasharray:5.0,5.0;" x1="906" x2="906" y1="188.2637" y2="246.8848"/><line style="stroke:#A80036;stroke-width:1.0;stroke-dasharray:1.0,4.0;" x1="906" x2="906" y1="246.8848" y2="287.8398"/><line style="stroke:#181818;stroke-width:0.5;stroke-dasharray:5.0,5.0;" x1="906" x2="906" y1="287.8398" y2="356.4609"/><line style="stroke:#181818;stroke-width:0.5;stroke-dasharray:5.0,5.0;" x1="1025" x2="1025" y1="78.6875" y2="147.3086"/><line style="stroke:#A80036;stroke-width:1.0;stroke-dasharray:1.0,4.0;" x1="1025" x2="1025" y1="147.3086" y2="188.2637"/><line style="stroke:#181818;stroke-width:0.5;stroke-dasharray:5.0,5.0;" x1="1025" x2="1025" y1="188.2637" y2="246.8848"/><line style="stroke:#A80036;stroke-width:1.0;stroke-dasharray:1.0,4.0;" x1="1025" x2="1025" y1="246.8848" y2="287.8398"/><line style="stroke:#181818;stroke-width:0.5;stroke-dasharray:5.0,5.0;" x1="1025" x2="1025" y1="287.8398" y2="356.4609"/><rect fill="#E2E2F0" height="35.1992" rx="2.5" ry="2.5" style="stroke:#181818;stroke-width:0.5;" width="112" x="5" y="42.4883"/><text fill="#000000" font-family="sans-serif" font-size="18" font-weight="bold" lengthAdjust="spacing" textLength="98" x="12" y="66.8906">Fagsystem</text><rect fill="#E2E2F0" height="35.1992" rx="2.5" ry="2.5" style="stroke:#181818;stroke-width:0.5;" width="112" x="5" y="355.4609"/><text fill="#000000" font-family="sans-serif" font-size="18" font-weight="bold" lengthAdjust="spacing" textLength="98" x="12" y="379.8633">Fagsystem</text><rect fill="#E2E2F0" height="35.1992" rx="2.5" ry="2.5" style="stroke:#181818;stroke-width:0.5;" width="139" x="405.5" y="42.4883"/><text fill="#000000" font-family="sans-serif" font-size="18" font-weight="bold" lengthAdjust="spacing" textLength="125" x="412.5" y="66.8906">Fiks Protokoll</text><rect fill="#E2E2F0" height="35.1992" rx="2.5" ry="2.5" style="stroke:#181818;stroke-width:0.5;" width="139" x="405.5" y="355.4609"/><text fill="#000000" font-family="sans-serif" font-size="18" font-weight="bold" lengthAdjust="spacing" textLength="125" x="412.5" y="379.8633">Fiks Protokoll</text><rect fill="#E2E2F0" height="35.1992" rx="2.5" ry="2.5" style="stroke:#181818;stroke-width:0.5;" width="128" x="842" y="42.4883"/><text fill="#000000" font-family="sans-serif" font-size="18" font-weight="bold" lengthAdjust="spacing" textLength="114" x="849" y="66.8906">Arkivsystem</text><rect fill="#E2E2F0" height="35.1992" rx="2.5" ry="2.5" style="stroke:#181818;stroke-width:0.5;" width="128" x="842" y="355.4609"/><text fill="#000000" font-family="sans-serif" font-size="18" font-weight="bold" lengthAdjust="spacing" textLength="114" x="849" y="379.8633">Arkivsystem</text><rect fill="#E2E2F0" height="30.4883" rx="2.5" ry="2.5" style="stroke:#181818;stroke-width:0.5;" width="91" x="980" y="47.1992"/><text fill="#000000" font-family="sans-serif" font-size="14" lengthAdjust="spacing" textLength="77" x="987" y="67.7344">Fagsysttem</text><rect fill="#E2E2F0" height="30.4883" rx="2.5" ry="2.5" style="stroke:#181818;stroke-width:0.5;" width="91" x="980" y="355.4609"/><text fill="#000000" font-family="sans-serif" font-size="14" lengthAdjust="spacing" textLength="77" x="987" y="375.9961">Fagsysttem</text><polygon fill="#181818" points="463,105.998,473,109.998,463,113.998,467,109.998" style="stroke:#181818;stroke-width:1.0;"/><line style="stroke:#181818;stroke-width:1.0;" x1="61" x2="469" y1="109.998" y2="109.998"/><text fill="#000000" font-family="sans-serif" font-size="13" font-weight="bold" lengthAdjust="spacing" textLength="338" x="99" y="105.2559">no.ks.fiks.arkiv.v1.arkivering.arkivmelding.opprett</text><polygon fill="#181818" points="894,135.3086,904,139.3086,894,143.3086,898,139.3086" style="stroke:#181818;stroke-width:1.0;"/><line style="stroke:#181818;stroke-width:1.0;" x1="475" x2="900" y1="139.3086" y2="139.3086"/><text fill="#000000" font-family="sans-serif" font-size="13" font-weight="bold" lengthAdjust="spacing" textLength="338" x="521.5" y="134.5664">no.ks.fiks.arkiv.v1.arkivering.arkivmelding.opprett</text><text fill="#000000" font-family="sans-serif" font-size="11" lengthAdjust="spacing" textLength="295" x="395.75" y="171.9434">Arkivsystem melder at melding er mottatt og h&#229;ndteres</text><polygon fill="#181818" points="486,205.5742,476,209.5742,486,213.5742,482,209.5742" style="stroke:#181818;stroke-width:1.0;"/><line style="stroke:#181818;stroke-width:1.0;" x1="480" x2="905" y1="209.5742" y2="209.5742"/><text fill="#000000" font-family="sans-serif" font-size="13" font-weight="bold" lengthAdjust="spacing" textLength="390" x="495.5" y="204.832">no.ks.fiks.arkiv.v1.arkivering.arkivmelding.opprett.mottatt</text><polygon fill="#181818" points="72,234.8848,62,238.8848,72,242.8848,68,238.8848" style="stroke:#181818;stroke-width:1.0;"/><line style="stroke:#181818;stroke-width:1.0;" x1="66" x2="474" y1="238.8848" y2="238.8848"/><text fill="#000000" font-family="sans-serif" font-size="13" font-weight="bold" lengthAdjust="spacing" textLength="390" x="73" y="234.1426">no.ks.fiks.arkiv.v1.arkivering.arkivmelding.opprett.mottatt</text><text fill="#000000" font-family="sans-serif" font-size="11" lengthAdjust="spacing" textLength="114" x="486.25" y="271.5195">Arkivsystem kvitterer</text><polygon fill="#181818" points="486,305.1504,476,309.1504,486,313.1504,482,309.1504" style="stroke:#181818;stroke-width:1.0;"/><line style="stroke:#181818;stroke-width:1.0;" x1="480" x2="905" y1="309.1504" y2="309.1504"/><text fill="#000000" font-family="sans-serif" font-size="13" font-weight="bold" lengthAdjust="spacing" textLength="407" x="487" y="304.4082">no.ks.fiks.arkiv.v1.arkivering.arkivmelding.opprett.kvittering</text><polygon fill="#181818" points="1013.5,334.4609,1023.5,338.4609,1013.5,342.4609,1017.5,338.4609" style="stroke:#181818;stroke-width:1.0;"/><line style="stroke:#181818;stroke-width:1.0;" x1="475" x2="1019.5" y1="338.4609" y2="338.4609"/><text fill="#000000" font-family="sans-serif" font-size="13" font-weight="bold" lengthAdjust="spacing" textLength="407" x="546.75" y="333.7188">no.ks.fiks.arkiv.v1.arkivering.arkivmelding.opprett.kvittering</text><!--SRC=[jP4zJiGm48LxdsAqPQGTYHO9f6te4FI8mihEUaTsx60FaJWG9-5YJDYVE16YO26Ly_JcFN_ZuZdsDjiE2hsyKcpfdagnZZQ1NOIMeb0sHbW2mUgXxpE9WCsUXux2bgE3DII_CaPJX5lkRHIuiwwy5Q4EdWpeTpCfvddkP5yUSvBaKmYJMrKuoukHpLY-YAyqTPkfVtsxgBY6fea9VS6TwlX5WiFLuK1PWR2cmtH0RXeppz7W-YA_ZqN4EcWqK0OhSDgl_dL9nEhUauFzntlSwfjGqK5JJ_uLAXxRlaEU5djv-0BS3omZL_uthcE3IZ-WNS8sA_W4]--></g></svg>