<svg xmlns="http://www.w3.org/2000/svg" xmlns:xlink="http://www.w3.org/1999/xlink" contentStyleType="text/css" height="435px" preserveAspectRatio="none" style="width:959px;height:435px;background:#FFFFFF;" version="1.1" viewBox="0 0 959 435" width="959px" zoomAndPan="magnify"><defs/><g><text fill="#000000" font-family="sans-serif" font-size="14" font-weight="bold" lengthAdjust="spacing" textLength="319" x="319" y="28.5352">Opprett arkivmelding - ugyldigforespoersel</text><line style="stroke:#181818;stroke-width:0.5;stroke-dasharray:5.0,5.0;" x1="61" x2="61" y1="78.6875" y2="147.3086"/><line style="stroke:#A80036;stroke-width:1.0;stroke-dasharray:1.0,4.0;" x1="61" x2="61" y1="147.3086" y2="214.1738"/><line style="stroke:#181818;stroke-width:0.5;stroke-dasharray:5.0,5.0;" x1="61" x2="61" y1="214.1738" y2="272.7949"/><line style="stroke:#A80036;stroke-width:1.0;stroke-dasharray:1.0,4.0;" x1="61" x2="61" y1="272.7949" y2="326.7051"/><line style="stroke:#181818;stroke-width:0.5;stroke-dasharray:5.0,5.0;" x1="61" x2="61" y1="326.7051" y2="395.3262"/><line style="stroke:#181818;stroke-width:0.5;stroke-dasharray:5.0,5.0;" x1="474.5" x2="474.5" y1="78.6875" y2="147.3086"/><line style="stroke:#A80036;stroke-width:1.0;stroke-dasharray:1.0,4.0;" x1="474.5" x2="474.5" y1="147.3086" y2="214.1738"/><line style="stroke:#181818;stroke-width:0.5;stroke-dasharray:5.0,5.0;" x1="474.5" x2="474.5" y1="214.1738" y2="272.7949"/><line style="stroke:#A80036;stroke-width:1.0;stroke-dasharray:1.0,4.0;" x1="474.5" x2="474.5" y1="272.7949" y2="326.7051"/><line style="stroke:#181818;stroke-width:0.5;stroke-dasharray:5.0,5.0;" x1="474.5" x2="474.5" y1="326.7051" y2="395.3262"/><line style="stroke:#181818;stroke-width:0.5;stroke-dasharray:5.0,5.0;" x1="889" x2="889" y1="78.6875" y2="147.3086"/><line style="stroke:#A80036;stroke-width:1.0;stroke-dasharray:1.0,4.0;" x1="889" x2="889" y1="147.3086" y2="214.1738"/><line style="stroke:#181818;stroke-width:0.5;stroke-dasharray:5.0,5.0;" x1="889" x2="889" y1="214.1738" y2="272.7949"/><line style="stroke:#A80036;stroke-width:1.0;stroke-dasharray:1.0,4.0;" x1="889" x2="889" y1="272.7949" y2="326.7051"/><line style="stroke:#181818;stroke-width:0.5;stroke-dasharray:5.0,5.0;" x1="889" x2="889" y1="326.7051" y2="395.3262"/><rect fill="#E2E2F0" height="35.1992" rx="2.5" ry="2.5" style="stroke:#181818;stroke-width:0.5;" width="112" x="5" y="42.4883"/><text fill="#000000" font-family="sans-serif" font-size="18" font-weight="bold" lengthAdjust="spacing" textLength="98" x="12" y="66.8906">Fagsystem</text><rect fill="#E2E2F0" height="35.1992" rx="2.5" ry="2.5" style="stroke:#181818;stroke-width:0.5;" width="112" x="5" y="394.3262"/><text fill="#000000" font-family="sans-serif" font-size="18" font-weight="bold" lengthAdjust="spacing" textLength="98" x="12" y="418.7285">Fagsystem</text><rect fill="#E2E2F0" height="35.1992" rx="2.5" ry="2.5" style="stroke:#181818;stroke-width:0.5;" width="139" x="405.5" y="42.4883"/><text fill="#000000" font-family="sans-serif" font-size="18" font-weight="bold" lengthAdjust="spacing" textLength="125" x="412.5" y="66.8906">Fiks Protokoll</text><rect fill="#E2E2F0" height="35.1992" rx="2.5" ry="2.5" style="stroke:#181818;stroke-width:0.5;" width="139" x="405.5" y="394.3262"/><text fill="#000000" font-family="sans-serif" font-size="18" font-weight="bold" lengthAdjust="spacing" textLength="125" x="412.5" y="418.7285">Fiks Protokoll</text><rect fill="#E2E2F0" height="35.1992" rx="2.5" ry="2.5" style="stroke:#181818;stroke-width:0.5;" width="128" x="825" y="42.4883"/><text fill="#000000" font-family="sans-serif" font-size="18" font-weight="bold" lengthAdjust="spacing" textLength="114" x="832" y="66.8906">Arkivsystem</text><rect fill="#E2E2F0" height="35.1992" rx="2.5" ry="2.5" style="stroke:#181818;stroke-width:0.5;" width="128" x="825" y="394.3262"/><text fill="#000000" font-family="sans-serif" font-size="18" font-weight="bold" lengthAdjust="spacing" textLength="114" x="832" y="418.7285">Arkivsystem</text><polygon fill="#181818" points="463,105.998,473,109.998,463,113.998,467,109.998" style="stroke:#181818;stroke-width:1.0;"/><line style="stroke:#181818;stroke-width:1.0;" x1="61" x2="469" y1="109.998" y2="109.998"/><text fill="#000000" font-family="sans-serif" font-size="13" font-weight="bold" lengthAdjust="spacing" textLength="338" x="99" y="105.2559">no.ks.fiks.arkiv.v1.arkivering.arkivmelding.opprett</text><polygon fill="#181818" points="877,135.3086,887,139.3086,877,143.3086,881,139.3086" style="stroke:#181818;stroke-width:1.0;"/><line style="stroke:#181818;stroke-width:1.0;" x1="475" x2="883" y1="139.3086" y2="139.3086"/><text fill="#000000" font-family="sans-serif" font-size="13" font-weight="bold" lengthAdjust="spacing" textLength="338" x="513" y="134.5664">no.ks.fiks.arkiv.v1.arkivering.arkivmelding.opprett</text><text fill="#000000" font-family="sans-serif" font-size="11" lengthAdjust="spacing" textLength="298" x="326" y="171.9434">Arkivsystem melder at melding er mottatt og h&#229;ndteres.</text><text fill="#000000" font-family="sans-serif" font-size="11" lengthAdjust="spacing" textLength="193" x="377" y="184.8984">Merk at i noen tilfeller kan validering</text><text fill="#000000" font-family="sans-serif" font-size="11" lengthAdjust="spacing" textLength="347" x="301.5" y="197.8535">inntreffe f&#248;r mottatt-melding sendes og man f&#229;r bare feilmelding</text><polygon fill="#181818" points="486,231.4844,476,235.4844,486,239.4844,482,235.4844" style="stroke:#181818;stroke-width:1.0;"/><line style="stroke:#181818;stroke-width:1.0;" x1="480" x2="888" y1="235.4844" y2="235.4844"/><text fill="#000000" font-family="sans-serif" font-size="13" font-weight="bold" lengthAdjust="spacing" textLength="390" x="487" y="230.7422">no.ks.fiks.arkiv.v1.arkivering.arkivmelding.opprett.mottatt</text><polygon fill="#181818" points="72,260.7949,62,264.7949,72,268.7949,68,264.7949" style="stroke:#181818;stroke-width:1.0;"/><line style="stroke:#181818;stroke-width:1.0;" x1="66" x2="474" y1="264.7949" y2="264.7949"/><text fill="#000000" font-family="sans-serif" font-size="13" font-weight="bold" lengthAdjust="spacing" textLength="390" x="73" y="260.0527">no.ks.fiks.arkiv.v1.arkivering.arkivmelding.opprett.mottatt</text><text fill="#000000" font-family="sans-serif" font-size="11" lengthAdjust="spacing" textLength="248" x="351" y="297.4297">Arkivsystem finner ut at melding ikke er gyldig</text><text fill="#000000" font-family="sans-serif" font-size="11" lengthAdjust="spacing" textLength="340" x="305" y="310.3848">F.eks. ikke validerer mot xsd-skjema eller annet ugyldig innhold</text><polygon fill="#181818" points="486,344.0156,476,348.0156,486,352.0156,482,348.0156" style="stroke:#181818;stroke-width:1.0;"/><line style="stroke:#181818;stroke-width:1.0;" x1="480" x2="888" y1="348.0156" y2="348.0156"/><text fill="#000000" font-family="sans-serif" font-size="13" font-weight="bold" lengthAdjust="spacing" textLength="338" x="513" y="343.2734">no.ks.fiks.arkiv.v1.feilmelding.ugyldigforespoersel</text><polygon fill="#181818" points="72,373.3262,62,377.3262,72,381.3262,68,377.3262" style="stroke:#181818;stroke-width:1.0;"/><line style="stroke:#181818;stroke-width:1.0;" x1="66" x2="474" y1="377.3262" y2="377.3262"/><text fill="#000000" font-family="sans-serif" font-size="13" font-weight="bold" lengthAdjust="spacing" textLength="338" x="99" y="372.584">no.ks.fiks.arkiv.v1.feilmelding.ugyldigforespoersel</text><!--SRC=[hPF1JiCm38RlUGgBOwL6uee4qYwxJN1d7CBgTY6fKn9lOW-qT-2-5yDTrxMh9Y4DUaf_sR_jpqbobXeJJGq9FpT8ArnWIgR2cRSLmGg9CIh5bZt2tNFJH6G64vtTrkWBInNaiAbsSgpA434r0MD2VwUKsB9TsSOGmznKQPSOQtXL8D_ZeAYtoqZhqaiC75pmVeWM5Sxo96NMTZEn7saIhORw-TEan0Da6GNjaYv5ryVHzFQ-Es2K2VLuN1qw1bccBdt4UDp8xRPQwx5H6u0H34CFNFxgm6na4Q62zM5FXIm9arxI0gDhGorGG0AslaJl9S4PWgtnjZYMXYLP8evObWZbuVjicFSr4bA1gVMl9RCyx2EycoZ1Q7tVijPgtEX_aTMdNguH7lRuT_C9vrA82AWDZr5Rvx3btLtm9SqrIh5EFk7ijW5VgSYJ-y3QG4VSY1ttJmF4V1rySJEpCVShp-qsLh-R_W00]--></g></svg>