<svg xmlns="http://www.w3.org/2000/svg" xmlns:xlink="http://www.w3.org/1999/xlink" contentStyleType="text/css" height="426px" preserveAspectRatio="none" style="width:959px;height:426px;background:#FFFFFF;" version="1.1" viewBox="0 0 959 426" width="959px" zoomAndPan="magnify"><defs/><g><text fill="#000000" font-family="sans-serif" font-size="14" font-weight="bold" lengthAdjust="spacing" textLength="253" x="352" y="28.5352">Opprett arkivmelding - ikkefunnet</text><text fill="#000000" font-family="sans-serif" font-size="14" font-weight="bold" lengthAdjust="spacing" textLength="605" x="176" y="45.0234">Fagsystem &#248;nsker &#229; arkivere noe med referanse til noe som skal eksistere i arkivet</text><line style="stroke:#181818;stroke-width:0.5;stroke-dasharray:5.0,5.0;" x1="61" x2="61" y1="95.1758" y2="163.7969"/><line style="stroke:#A80036;stroke-width:1.0;stroke-dasharray:1.0,4.0;" x1="61" x2="61" y1="163.7969" y2="204.752"/><line style="stroke:#181818;stroke-width:0.5;stroke-dasharray:5.0,5.0;" x1="61" x2="61" y1="204.752" y2="263.373"/><line style="stroke:#A80036;stroke-width:1.0;stroke-dasharray:1.0,4.0;" x1="61" x2="61" y1="263.373" y2="317.2832"/><line style="stroke:#181818;stroke-width:0.5;stroke-dasharray:5.0,5.0;" x1="61" x2="61" y1="317.2832" y2="385.9043"/><line style="stroke:#181818;stroke-width:0.5;stroke-dasharray:5.0,5.0;" x1="474.5" x2="474.5" y1="95.1758" y2="163.7969"/><line style="stroke:#A80036;stroke-width:1.0;stroke-dasharray:1.0,4.0;" x1="474.5" x2="474.5" y1="163.7969" y2="204.752"/><line style="stroke:#181818;stroke-width:0.5;stroke-dasharray:5.0,5.0;" x1="474.5" x2="474.5" y1="204.752" y2="263.373"/><line style="stroke:#A80036;stroke-width:1.0;stroke-dasharray:1.0,4.0;" x1="474.5" x2="474.5" y1="263.373" y2="317.2832"/><line style="stroke:#181818;stroke-width:0.5;stroke-dasharray:5.0,5.0;" x1="474.5" x2="474.5" y1="317.2832" y2="385.9043"/><line style="stroke:#181818;stroke-width:0.5;stroke-dasharray:5.0,5.0;" x1="889" x2="889" y1="95.1758" y2="163.7969"/><line style="stroke:#A80036;stroke-width:1.0;stroke-dasharray:1.0,4.0;" x1="889" x2="889" y1="163.7969" y2="204.752"/><line style="stroke:#181818;stroke-width:0.5;stroke-dasharray:5.0,5.0;" x1="889" x2="889" y1="204.752" y2="263.373"/><line style="stroke:#A80036;stroke-width:1.0;stroke-dasharray:1.0,4.0;" x1="889" x2="889" y1="263.373" y2="317.2832"/><line style="stroke:#181818;stroke-width:0.5;stroke-dasharray:5.0,5.0;" x1="889" x2="889" y1="317.2832" y2="385.9043"/><rect fill="#E2E2F0" height="35.1992" rx="2.5" ry="2.5" style="stroke:#181818;stroke-width:0.5;" width="112" x="5" y="58.9766"/><text fill="#000000" font-family="sans-serif" font-size="18" font-weight="bold" lengthAdjust="spacing" textLength="98" x="12" y="83.3789">Fagsystem</text><rect fill="#E2E2F0" height="35.1992" rx="2.5" ry="2.5" style="stroke:#181818;stroke-width:0.5;" width="112" x="5" y="384.9043"/><text fill="#000000" font-family="sans-serif" font-size="18" font-weight="bold" lengthAdjust="spacing" textLength="98" x="12" y="409.3066">Fagsystem</text><rect fill="#E2E2F0" height="35.1992" rx="2.5" ry="2.5" style="stroke:#181818;stroke-width:0.5;" width="139" x="405.5" y="58.9766"/><text fill="#000000" font-family="sans-serif" font-size="18" font-weight="bold" lengthAdjust="spacing" textLength="125" x="412.5" y="83.3789">Fiks Protokoll</text><rect fill="#E2E2F0" height="35.1992" rx="2.5" ry="2.5" style="stroke:#181818;stroke-width:0.5;" width="139" x="405.5" y="384.9043"/><text fill="#000000" font-family="sans-serif" font-size="18" font-weight="bold" lengthAdjust="spacing" textLength="125" x="412.5" y="409.3066">Fiks Protokoll</text><rect fill="#E2E2F0" height="35.1992" rx="2.5" ry="2.5" style="stroke:#181818;stroke-width:0.5;" width="128" x="825" y="58.9766"/><text fill="#000000" font-family="sans-serif" font-size="18" font-weight="bold" lengthAdjust="spacing" textLength="114" x="832" y="83.3789">Arkivsystem</text><rect fill="#E2E2F0" height="35.1992" rx="2.5" ry="2.5" style="stroke:#181818;stroke-width:0.5;" width="128" x="825" y="384.9043"/><text fill="#000000" font-family="sans-serif" font-size="18" font-weight="bold" lengthAdjust="spacing" textLength="114" x="832" y="409.3066">Arkivsystem</text><polygon fill="#181818" points="463,122.4863,473,126.4863,463,130.4863,467,126.4863" style="stroke:#181818;stroke-width:1.0;"/><line style="stroke:#181818;stroke-width:1.0;" x1="61" x2="469" y1="126.4863" y2="126.4863"/><text fill="#000000" font-family="sans-serif" font-size="13" font-weight="bold" lengthAdjust="spacing" textLength="338" x="99" y="121.7441">no.ks.fiks.arkiv.v1.arkivering.arkivmelding.opprett</text><polygon fill="#181818" points="877,151.7969,887,155.7969,877,159.7969,881,155.7969" style="stroke:#181818;stroke-width:1.0;"/><line style="stroke:#181818;stroke-width:1.0;" x1="475" x2="883" y1="155.7969" y2="155.7969"/><text fill="#000000" font-family="sans-serif" font-size="13" font-weight="bold" lengthAdjust="spacing" textLength="338" x="513" y="151.0547">no.ks.fiks.arkiv.v1.arkivering.arkivmelding.opprett</text><text fill="#000000" font-family="sans-serif" font-size="11" lengthAdjust="spacing" textLength="295" x="327.5" y="188.4316">Arkivsystem melder at melding er mottatt og h&#229;ndteres</text><polygon fill="#181818" points="486,222.0625,476,226.0625,486,230.0625,482,226.0625" style="stroke:#181818;stroke-width:1.0;"/><line style="stroke:#181818;stroke-width:1.0;" x1="480" x2="888" y1="226.0625" y2="226.0625"/><text fill="#000000" font-family="sans-serif" font-size="13" font-weight="bold" lengthAdjust="spacing" textLength="390" x="487" y="221.3203">no.ks.fiks.arkiv.v1.arkivering.arkivmelding.opprett.mottatt</text><polygon fill="#181818" points="72,251.373,62,255.373,72,259.373,68,255.373" style="stroke:#181818;stroke-width:1.0;"/><line style="stroke:#181818;stroke-width:1.0;" x1="66" x2="474" y1="255.373" y2="255.373"/><text fill="#000000" font-family="sans-serif" font-size="13" font-weight="bold" lengthAdjust="spacing" textLength="390" x="73" y="250.6309">no.ks.fiks.arkiv.v1.arkivering.arkivmelding.opprett.mottatt</text><text fill="#000000" font-family="sans-serif" font-size="11" lengthAdjust="spacing" textLength="354" x="298" y="288.0078">Arkivsystem finner ikke objektet det refereres til i opprett-melding</text><text fill="#000000" font-family="sans-serif" font-size="11" lengthAdjust="spacing" textLength="425" x="262.5" y="300.9629">For eksempel finner man ikke saksmappen hvor man vil opprette en journalpost</text><polygon fill="#181818" points="486,334.5938,476,338.5938,486,342.5938,482,338.5938" style="stroke:#181818;stroke-width:1.0;"/><line style="stroke:#181818;stroke-width:1.0;" x1="480" x2="888" y1="338.5938" y2="338.5938"/><text fill="#000000" font-family="sans-serif" font-size="13" font-weight="bold" lengthAdjust="spacing" textLength="275" x="544.5" y="333.8516">no.ks.fiks.arkiv.v1.feilmelding.ikkefunnet</text><polygon fill="#181818" points="72,363.9043,62,367.9043,72,371.9043,68,367.9043" style="stroke:#181818;stroke-width:1.0;"/><line style="stroke:#181818;stroke-width:1.0;" x1="66" x2="474" y1="367.9043" y2="367.9043"/><text fill="#000000" font-family="sans-serif" font-size="13" font-weight="bold" lengthAdjust="spacing" textLength="275" x="130.5" y="363.1621">no.ks.fiks.arkiv.v1.feilmelding.ikkefunnet</text><!--SRC=[hPFFJiCm3CRlUGgBOwL5uee4qYxS4Do1GrZTBalgXCIhn0Fj7RZlnN3_Z7OLN0QLUgXZ_sn_-PgTfMYIQI3Z-nvfWm-OiwbnxMrDi45YJ4gnPOzmzHXZGcOmoTcsGLzQgc45rZcizaJ8BtHlwloH6HiuVb9scE1u6F8n8L10QB24X1KcGnc1hU-ZESW8pdX0bwtKIx8Tw_XAAPcHxSP6GmnJYsS5yjnE4VLwdcbTVag1WmlUJzaIXU_mecJTjLpWPp79LbF_rTsYnGqK1GNjiguahllvTNkjHm54BZtNJeT1qA9Gvnm1pmUv7AkrdeEw1BaImt2wFVbg0hEHMmqrR8y7AZlninIgUUL_hQh7RZ-jF0dxT_XYySgAFLFlL0XlEtIC3AMylHExXNidMXX9gv4iXWwfyoGs4Vq9qnWQKDcut9WOaM3RXk6W5Sv8GP23NTWdCZw6p1UBMg7rfrsdl-qo3NzbVG40]--></g></svg>