<svg xmlns="http://www.w3.org/2000/svg" xmlns:xlink="http://www.w3.org/1999/xlink" contentStyleType="text/css" height="396px" preserveAspectRatio="none" style="width:993px;height:396px;background:#FFFFFF;" version="1.1" viewBox="0 0 993 396" width="993px" zoomAndPan="magnify"><defs/><g><text fill="#000000" font-family="sans-serif" font-size="14" font-weight="bold" lengthAdjust="spacing" textLength="193" x="399" y="28.5352">Opprett arkivmelding - ok</text><line style="stroke:#181818;stroke-width:0.5;stroke-dasharray:5.0,5.0;" x1="61" x2="61" y1="78.6875" y2="147.3086"/><line style="stroke:#A80036;stroke-width:1.0;stroke-dasharray:1.0,4.0;" x1="61" x2="61" y1="147.3086" y2="188.2637"/><line style="stroke:#181818;stroke-width:0.5;stroke-dasharray:5.0,5.0;" x1="61" x2="61" y1="188.2637" y2="246.8848"/><line style="stroke:#A80036;stroke-width:1.0;stroke-dasharray:1.0,4.0;" x1="61" x2="61" y1="246.8848" y2="287.8398"/><line style="stroke:#181818;stroke-width:0.5;stroke-dasharray:5.0,5.0;" x1="61" x2="61" y1="287.8398" y2="356.4609"/><line style="stroke:#181818;stroke-width:0.5;stroke-dasharray:5.0,5.0;" x1="491.5" x2="491.5" y1="78.6875" y2="147.3086"/><line style="stroke:#A80036;stroke-width:1.0;stroke-dasharray:1.0,4.0;" x1="491.5" x2="491.5" y1="147.3086" y2="188.2637"/><line style="stroke:#181818;stroke-width:0.5;stroke-dasharray:5.0,5.0;" x1="491.5" x2="491.5" y1="188.2637" y2="246.8848"/><line style="stroke:#A80036;stroke-width:1.0;stroke-dasharray:1.0,4.0;" x1="491.5" x2="491.5" y1="246.8848" y2="287.8398"/><line style="stroke:#181818;stroke-width:0.5;stroke-dasharray:5.0,5.0;" x1="491.5" x2="491.5" y1="287.8398" y2="356.4609"/><line style="stroke:#181818;stroke-width:0.5;stroke-dasharray:5.0,5.0;" x1="923" x2="923" y1="78.6875" y2="147.3086"/><line style="stroke:#A80036;stroke-width:1.0;stroke-dasharray:1.0,4.0;" x1="923" x2="923" y1="147.3086" y2="188.2637"/><line style="stroke:#181818;stroke-width:0.5;stroke-dasharray:5.0,5.0;" x1="923" x2="923" y1="188.2637" y2="246.8848"/><line style="stroke:#A80036;stroke-width:1.0;stroke-dasharray:1.0,4.0;" x1="923" x2="923" y1="246.8848" y2="287.8398"/><line style="stroke:#181818;stroke-width:0.5;stroke-dasharray:5.0,5.0;" x1="923" x2="923" y1="287.8398" y2="356.4609"/><rect fill="#E2E2F0" height="35.1992" rx="2.5" ry="2.5" style="stroke:#181818;stroke-width:0.5;" width="112" x="5" y="42.4883"/><text fill="#000000" font-family="sans-serif" font-size="18" font-weight="bold" lengthAdjust="spacing" textLength="98" x="12" y="66.8906">Fagsystem</text><rect fill="#E2E2F0" height="35.1992" rx="2.5" ry="2.5" style="stroke:#181818;stroke-width:0.5;" width="112" x="5" y="355.4609"/><text fill="#000000" font-family="sans-serif" font-size="18" font-weight="bold" lengthAdjust="spacing" textLength="98" x="12" y="379.8633">Fagsystem</text><rect fill="#E2E2F0" height="35.1992" rx="2.5" ry="2.5" style="stroke:#181818;stroke-width:0.5;" width="139" x="422.5" y="42.4883"/><text fill="#000000" font-family="sans-serif" font-size="18" font-weight="bold" lengthAdjust="spacing" textLength="125" x="429.5" y="66.8906">Fiks Protokoll</text><rect fill="#E2E2F0" height="35.1992" rx="2.5" ry="2.5" style="stroke:#181818;stroke-width:0.5;" width="139" x="422.5" y="355.4609"/><text fill="#000000" font-family="sans-serif" font-size="18" font-weight="bold" lengthAdjust="spacing" textLength="125" x="429.5" y="379.8633">Fiks Protokoll</text><rect fill="#E2E2F0" height="35.1992" rx="2.5" ry="2.5" style="stroke:#181818;stroke-width:0.5;" width="128" x="859" y="42.4883"/><text fill="#000000" font-family="sans-serif" font-size="18" font-weight="bold" lengthAdjust="spacing" textLength="114" x="866" y="66.8906">Arkivsystem</text><rect fill="#E2E2F0" height="35.1992" rx="2.5" ry="2.5" style="stroke:#181818;stroke-width:0.5;" width="128" x="859" y="355.4609"/><text fill="#000000" font-family="sans-serif" font-size="18" font-weight="bold" lengthAdjust="spacing" textLength="114" x="866" y="379.8633">Arkivsystem</text><polygon fill="#181818" points="480,105.998,490,109.998,480,113.998,484,109.998" style="stroke:#181818;stroke-width:1.0;"/><line style="stroke:#181818;stroke-width:1.0;" x1="61" x2="486" y1="109.998" y2="109.998"/><text fill="#000000" font-family="sans-serif" font-size="13" font-weight="bold" lengthAdjust="spacing" textLength="338" x="107.5" y="105.2559">no.ks.fiks.arkiv.v1.arkivering.arkivmelding.opprett</text><polygon fill="#181818" points="911,135.3086,921,139.3086,911,143.3086,915,139.3086" style="stroke:#181818;stroke-width:1.0;"/><line style="stroke:#181818;stroke-width:1.0;" x1="492" x2="917" y1="139.3086" y2="139.3086"/><text fill="#000000" font-family="sans-serif" font-size="13" font-weight="bold" lengthAdjust="spacing" textLength="338" x="538.5" y="134.5664">no.ks.fiks.arkiv.v1.arkivering.arkivmelding.opprett</text><text fill="#000000" font-family="sans-serif" font-size="11" lengthAdjust="spacing" textLength="295" x="344.5" y="171.9434">Arkivsystem melder at melding er mottatt og h&#229;ndteres</text><polygon fill="#181818" points="503,205.5742,493,209.5742,503,213.5742,499,209.5742" style="stroke:#181818;stroke-width:1.0;"/><line style="stroke:#181818;stroke-width:1.0;" x1="497" x2="922" y1="209.5742" y2="209.5742"/><text fill="#000000" font-family="sans-serif" font-size="13" font-weight="bold" lengthAdjust="spacing" textLength="390" x="512.5" y="204.832">no.ks.fiks.arkiv.v1.arkivering.arkivmelding.opprett.mottatt</text><polygon fill="#181818" points="72,234.8848,62,238.8848,72,242.8848,68,238.8848" style="stroke:#181818;stroke-width:1.0;"/><line style="stroke:#181818;stroke-width:1.0;" x1="66" x2="491" y1="238.8848" y2="238.8848"/><text fill="#000000" font-family="sans-serif" font-size="13" font-weight="bold" lengthAdjust="spacing" textLength="390" x="81.5" y="234.1426">no.ks.fiks.arkiv.v1.arkivering.arkivmelding.opprett.mottatt</text><text fill="#000000" font-family="sans-serif" font-size="11" lengthAdjust="spacing" textLength="114" x="435" y="271.5195">Arkivsystem kvitterer</text><polygon fill="#181818" points="503,305.1504,493,309.1504,503,313.1504,499,309.1504" style="stroke:#181818;stroke-width:1.0;"/><line style="stroke:#181818;stroke-width:1.0;" x1="497" x2="922" y1="309.1504" y2="309.1504"/><text fill="#000000" font-family="sans-serif" font-size="13" font-weight="bold" lengthAdjust="spacing" textLength="407" x="504" y="304.4082">no.ks.fiks.arkiv.v1.arkivering.arkivmelding.opprett.kvittering</text><polygon fill="#181818" points="72,334.4609,62,338.4609,72,342.4609,68,338.4609" style="stroke:#181818;stroke-width:1.0;"/><line style="stroke:#181818;stroke-width:1.0;" x1="66" x2="491" y1="338.4609" y2="338.4609"/><text fill="#000000" font-family="sans-serif" font-size="13" font-weight="bold" lengthAdjust="spacing" textLength="407" x="73" y="333.7188">no.ks.fiks.arkiv.v1.arkivering.arkivmelding.opprett.kvittering</text><!--SRC=[jP4zJiGm48LxdsAqPQGTYHO9f6te4FI8mihE6ikEdVKCaJWG9-5YJFOlJaG5R2hdwSrx_iOSVEfjiHqmxTyfjVH8pDRH9dgNeAKaL8mHBv5WzTJtXKJ0bk27ZkBM9mTho65bZAQ8Rtrlay23TVp1GXsy6D3lRbBCwzpf0p-NB3da62Utgd2H5oERiNmHNsdgDbF_-dvHSGjDap86nftgU231uUPueA90MDDXFY8tZPddQ71zaT_78c8TD1geW1KuxrV_kYnYTU_PmTlNPzhgcn3heAad_miLJsq_8K-B_Nlu0ZmCNaQkSZMkKuDArq6RvNy3]--></g></svg>