<?xml version="1.0" encoding="us-ascii" standalone="no"?><svg xmlns="http://www.w3.org/2000/svg" xmlns:xlink="http://www.w3.org/1999/xlink" contentStyleType="text/css" height="239px" preserveAspectRatio="none" style="width:1384px;height:239px;background:#FFFFFF;" version="1.1" viewBox="0 0 1384 239" width="1384px" zoomAndPan="magnify"><defs/><g><rect fill="#F1F1F1" height="102.4414" rx="5" ry="5" style="stroke:#F1F1F1;stroke-width:1.5;" width="837" x="10" y="26.2793"/><text fill="#000000" font-family="sans-serif" font-size="14" font-weight="bold" lengthAdjust="spacing" textLength="101" x="15" y="41.8145">protokollnavn</text><text fill="#000000" font-family="sans-serif" font-size="14" lengthAdjust="spacing" textLength="102" x="126" y="41.8145">no.ks.fiks.arkiv</text><line style="stroke:#000000;stroke-width:1.0;" x1="121" x2="121" y1="26.2793" y2="46.7676"/><line style="stroke:#000000;stroke-width:1.0;" x1="10" x2="847" y1="46.7676" y2="46.7676"/><text fill="#000000" font-family="sans-serif" font-size="14" font-weight="bold" lengthAdjust="spacing" textLength="34" x="15" y="62.3027">navn</text><text fill="#000000" font-family="sans-serif" font-size="14" lengthAdjust="spacing" textLength="239" x="126" y="62.3027">elektronisksignatursikkerhetsnivaa</text><line style="stroke:#000000;stroke-width:1.0;" x1="121" x2="121" y1="46.7676" y2="67.2559"/><line style="stroke:#000000;stroke-width:1.0;" x1="10" x2="847" y1="67.2559" y2="67.2559"/><text fill="#000000" font-family="sans-serif" font-size="14" font-weight="bold" lengthAdjust="spacing" textLength="53" x="15" y="82.791">versjon</text><text fill="#000000" font-family="sans-serif" font-size="14" lengthAdjust="spacing" textLength="16" x="126" y="82.791">v1</text><line style="stroke:#000000;stroke-width:1.0;" x1="121" x2="121" y1="67.2559" y2="87.7441"/><line style="stroke:#000000;stroke-width:1.0;" x1="10" x2="847" y1="87.7441" y2="87.7441"/><text fill="#000000" font-family="sans-serif" font-size="14" font-weight="bold" lengthAdjust="spacing" textLength="73" x="15" y="103.2793">definisjon</text><text fill="#000000" font-family="sans-serif" font-size="14" lengthAdjust="spacing" textLength="716" x="126" y="103.2793">Angivelse av hvilket sikkerhetsniv&#229; som ble brukt ved forsendelse og mottak av elektroniske dokumenter</text><line style="stroke:#000000;stroke-width:1.0;" x1="121" x2="121" y1="87.7441" y2="108.2324"/><line style="stroke:#000000;stroke-width:1.0;" x1="10" x2="847" y1="108.2324" y2="108.2324"/><text fill="#000000" font-family="sans-serif" font-size="14" font-weight="bold" lengthAdjust="spacing" textLength="67" x="15" y="123.7676">kodeliste</text><text fill="#000000" font-family="sans-serif" font-size="14" lengthAdjust="spacing" textLength="12" x="126" y="123.7676">&#160;&#160;&#160;</text><line style="stroke:#000000;stroke-width:1.0;" x1="121" x2="121" y1="108.2324" y2="128.7207"/><rect fill="none" height="102.4414" rx="5" ry="5" style="stroke:#000000;stroke-width:1.5;" width="837" x="10" y="26.2793"/><rect fill="#F1F1F1" height="81.9531" rx="5" ry="5" style="stroke:#F1F1F1;stroke-width:1.5;" width="22" x="884" y="77.5"/><text fill="#000000" font-family="sans-serif" font-size="14" lengthAdjust="spacing" textLength="12" x="889" y="93.0352">&#160;&#160;&#160;</text><line style="stroke:#000000;stroke-width:1.0;" x1="884" x2="906" y1="97.9883" y2="97.9883"/><text fill="#000000" font-family="sans-serif" font-size="14" lengthAdjust="spacing" textLength="12" x="889" y="113.5234">&#160;&#160;&#160;</text><line style="stroke:#000000;stroke-width:1.0;" x1="884" x2="906" y1="118.4766" y2="118.4766"/><text fill="#000000" font-family="sans-serif" font-size="14" lengthAdjust="spacing" textLength="12" x="889" y="134.0117">&#160;&#160;&#160;</text><line style="stroke:#000000;stroke-width:1.0;" x1="884" x2="906" y1="138.9648" y2="138.9648"/><text fill="#000000" font-family="sans-serif" font-size="14" lengthAdjust="spacing" textLength="12" x="889" y="154.5">&#160;&#160;&#160;</text><rect fill="none" height="81.9531" rx="5" ry="5" style="stroke:#000000;stroke-width:1.5;" width="22" x="884" y="77.5"/><rect fill="#F1F1F1" height="40.9766" rx="5" ry="5" style="stroke:#F1F1F1;stroke-width:1.5;" width="274" x="1020.5" y="10"/><text fill="#000000" font-family="sans-serif" font-size="14" font-weight="bold" lengthAdjust="spacing" textLength="71" x="1025.5" y="25.5352">kodeverdi</text><text fill="#000000" font-family="sans-serif" font-size="14" lengthAdjust="spacing" textLength="17" x="1152.5" y="25.5352">SK</text><line style="stroke:#000000;stroke-width:1.0;" x1="1147.5" x2="1147.5" y1="10" y2="30.4883"/><line style="stroke:#000000;stroke-width:1.0;" x1="1020.5" x2="1294.5" y1="30.4883" y2="30.4883"/><text fill="#000000" font-family="sans-serif" font-size="14" font-weight="bold" lengthAdjust="spacing" textLength="117" x="1025.5" y="46.0234">kodebeskrivelse</text><text fill="#000000" font-family="sans-serif" font-size="14" lengthAdjust="spacing" textLength="137" x="1152.5" y="46.0234">Symmetrisk kryptert</text><line style="stroke:#000000;stroke-width:1.0;" x1="1147.5" x2="1147.5" y1="30.4883" y2="50.9766"/><rect fill="none" height="40.9766" rx="5" ry="5" style="stroke:#000000;stroke-width:1.5;" width="274" x="1020.5" y="10"/><rect fill="#F1F1F1" height="40.9766" rx="5" ry="5" style="stroke:#F1F1F1;stroke-width:1.5;" width="385" x="965" y="69"/><text fill="#000000" font-family="sans-serif" font-size="14" font-weight="bold" lengthAdjust="spacing" textLength="71" x="970" y="84.5352">kodeverdi</text><text fill="#000000" font-family="sans-serif" font-size="14" lengthAdjust="spacing" textLength="9" x="1097" y="84.5352">V</text><line style="stroke:#000000;stroke-width:1.0;" x1="1092" x2="1092" y1="69" y2="89.4883"/><line style="stroke:#000000;stroke-width:1.0;" x1="965" x2="1350" y1="89.4883" y2="89.4883"/><text fill="#000000" font-family="sans-serif" font-size="14" font-weight="bold" lengthAdjust="spacing" textLength="117" x="970" y="105.0234">kodebeskrivelse</text><text fill="#000000" font-family="sans-serif" font-size="14" lengthAdjust="spacing" textLength="248" x="1097" y="105.0234">Sendt med PKI/virksomhetssertifikat</text><line style="stroke:#000000;stroke-width:1.0;" x1="1092" x2="1092" y1="89.4883" y2="109.9766"/><rect fill="none" height="40.9766" rx="5" ry="5" style="stroke:#000000;stroke-width:1.5;" width="385" x="965" y="69"/><rect fill="#F1F1F1" height="40.9766" rx="5" ry="5" style="stroke:#F1F1F1;stroke-width:1.5;" width="429" x="943" y="128"/><text fill="#000000" font-family="sans-serif" font-size="14" font-weight="bold" lengthAdjust="spacing" textLength="71" x="948" y="143.5352">kodeverdi</text><text fill="#000000" font-family="sans-serif" font-size="14" lengthAdjust="spacing" textLength="16" x="1075" y="143.5352">PS</text><line style="stroke:#000000;stroke-width:1.0;" x1="1070" x2="1070" y1="128" y2="148.4883"/><line style="stroke:#000000;stroke-width:1.0;" x1="943" x2="1372" y1="148.4883" y2="148.4883"/><text fill="#000000" font-family="sans-serif" font-size="14" font-weight="bold" lengthAdjust="spacing" textLength="117" x="948" y="164.0234">kodebeskrivelse</text><text fill="#000000" font-family="sans-serif" font-size="14" lengthAdjust="spacing" textLength="292" x="1075" y="164.0234">Sendt med PKI/'person standard'-sertifikat</text><line style="stroke:#000000;stroke-width:1.0;" x1="1070" x2="1070" y1="148.4883" y2="168.9766"/><rect fill="none" height="40.9766" rx="5" ry="5" style="stroke:#000000;stroke-width:1.5;" width="429" x="943" y="128"/><rect fill="#F1F1F1" height="40.9766" rx="5" ry="5" style="stroke:#F1F1F1;stroke-width:1.5;" width="393" x="961" y="187"/><text fill="#000000" font-family="sans-serif" font-size="14" font-weight="bold" lengthAdjust="spacing" textLength="71" x="966" y="202.5352">kodeverdi</text><text fill="#000000" font-family="sans-serif" font-size="14" lengthAdjust="spacing" textLength="18" x="1093" y="202.5352">PH</text><line style="stroke:#000000;stroke-width:1.0;" x1="1088" x2="1088" y1="187" y2="207.4883"/><line style="stroke:#000000;stroke-width:1.0;" x1="961" x2="1354" y1="207.4883" y2="207.4883"/><text fill="#000000" font-family="sans-serif" font-size="14" font-weight="bold" lengthAdjust="spacing" textLength="117" x="966" y="223.0234">kodebeskrivelse</text><text fill="#000000" font-family="sans-serif" font-size="14" lengthAdjust="spacing" textLength="256" x="1093" y="223.0234">Sendt med PKI/'person h&#248;y'-sertifikat</text><line style="stroke:#000000;stroke-width:1.0;" x1="1088" x2="1088" y1="207.4883" y2="227.9766"/><rect fill="none" height="40.9766" rx="5" ry="5" style="stroke:#000000;stroke-width:1.5;" width="393" x="961" y="187"/><path d="M894,87.5 L907,87.5 C927.2698,87.5 924.3135,67.3536 943,59.5 C965.0047,50.2518 989.2998,43.8099 1013.3851,39.3505 " fill="none" style="stroke:#000000;stroke-width:1.0;stroke-dasharray:3.0,3.0;"/><path d="M1013.9136,42.3366 L1015.6247,38.9541 L1012.8567,36.3644 L1020.8504,38.0293 L1013.9136,42.3366 " fill="#000000" style="stroke:#000000;stroke-width:1.0;"/><ellipse cx="894" cy="87.5" fill="#000000" rx="3" ry="3" style="stroke:#000000;stroke-width:1.0;"/><path d="M894,108.5 L907,108.5 C923.4199,108.5 940.429,108.0874 957.4972,107.3839 " fill="none" style="stroke:#000000;stroke-width:1.0;stroke-dasharray:3.0,3.0;"/><path d="M957.6345,110.5217 L959.8505,107.2809 L957.3599,104.2462 L965.3416,107.0407 L957.6345,110.5217 " fill="#000000" style="stroke:#000000;stroke-width:1.0;"/><ellipse cx="894" cy="108.5" fill="#000000" rx="3" ry="3" style="stroke:#000000;stroke-width:1.0;"/><path d="M894,128.5 L907,128.5 C916.3623,128.5 925.9155,128.6411 935.5615,128.8996 " fill="none" style="stroke:#000000;stroke-width:1.0;stroke-dasharray:3.0,3.0;"/><path d="M935.4687,132.0012 L937.8877,128.9692 L935.6543,125.798 L943.3155,129.1316 L935.4687,132.0012 " fill="#000000" style="stroke:#000000;stroke-width:1.0;"/><ellipse cx="894" cy="128.5" fill="#000000" rx="3" ry="3" style="stroke:#000000;stroke-width:1.0;"/><path d="M894,149.5 L907,149.5 C927.5456,149.5 924.1279,170.3781 943,178.5 C947.9721,180.6398 953.0639,182.6305 958.2463,184.4821 " fill="none" style="stroke:#000000;stroke-width:1.0;stroke-dasharray:3.0,3.0;"/><path d="M957.2705,187.3302 L960.3824,185.2139 L959.2222,181.634 L965.3666,186.9217 L957.2705,187.3302 " fill="#000000" style="stroke:#000000;stroke-width:1.0;"/><ellipse cx="894" cy="149.5" fill="#000000" rx="3" ry="3" style="stroke:#000000;stroke-width:1.0;"/><path d="M835,118.5 L848,118.5 C857.4213,118.5 867.9164,118.5 876.5483,118.5 " fill="none" style="stroke:#000000;stroke-width:1.0;stroke-dasharray:3.0,3.0;"/><path d="M876.5483,121.5437 L878.8311,118.5 L876.5483,115.4563 L884.1575,118.5 L876.5483,121.5437 " fill="#000000" style="stroke:#000000;stroke-width:1.0;"/><ellipse cx="835" cy="118.5" fill="#000000" rx="3" ry="3" style="stroke:#000000;stroke-width:1.0;"/><!--SRC=[dLBBJXj14BpFLxJs0aZOiKqKMNiY0VBm8rWi-1BbC6RRws5sUwoPtf5MYC_X7tBdnzAx1f98KH9owKDtLrK_wZYmzdmJ7AbR1P1ilMDdNLcIZfIaa93hsz1V6mdQMnEJmxRjgOebMlQEJB315AIvzi5OYtw37CX4hNVz4NsuSHqa3dUf7DT6S8_PjrIOY6L0q14sqPGM6NwXUhY7u2fObGWhNrk6Y3cidGz8UGTq1LIEMTkMugV1479dwmg9qU-ahHE42OoY_4KI0BTTV2p9iBb9GARAfXtWkRB2OFrkpbszgIfaBo9WVRCL0Kww_hl3Fz4k_y8g6p5KijvY-kbLDDxAukqLWl0RUON-9vL5zXAPlQsyo1687oZNFj_hlL3ju_-eRHw-DRzHalXLtQbZmNJML8jI4r_DPz0QoGXms1yDHaVzyNvM4ynr0wCX30VfqJWT3E3aBBk4jdwWzZyiPkARsb-B3UJbtgng5e83DT5HmqLDR2fCuNoBD3cTFYNWZEJkZbhNgCbo_gFXpUlUEyEGePTHO3bNfxZMTSc2k7QveIA5gyltlR6QQIfgNGWtaZfnmkkR53wVVmS0]--></g></svg>