<svg xmlns="http://www.w3.org/2000/svg" xmlns:xlink="http://www.w3.org/1999/xlink" contentStyleType="text/css" height="62px" preserveAspectRatio="none" style="width:283px;height:62px;background:#FFFFFF;" version="1.1" viewBox="0 0 283 62" width="283px" zoomAndPan="magnify"><defs/><g><!--class serverfeil--><g id="elem_serverfeil"><rect codeLine="2" fill="#F1F1F1" height="48" id="serverfeil" rx="2.5" ry="2.5" style="stroke:#181818;stroke-width:0.5;" width="95" x="7" y="7"/><ellipse cx="22" cy="23" fill="#ADD1B2" rx="11" ry="11" style="stroke:#181818;stroke-width:1.0;"/><path d="M24.4731,29.1431 Q23.8921,29.4419 23.2529,29.5913 Q22.6138,29.7407 21.9082,29.7407 Q19.4014,29.7407 18.0815,28.0889 Q16.7617,26.437 16.7617,23.3159 Q16.7617,20.1865 18.0815,18.5347 Q19.4014,16.8828 21.9082,16.8828 Q22.6138,16.8828 23.2612,17.0322 Q23.9087,17.1816 24.4731,17.4805 L24.4731,20.2031 Q23.8423,19.6221 23.2488,19.3523 Q22.6553,19.0825 22.0244,19.0825 Q20.6797,19.0825 19.9949,20.1492 Q19.3101,21.2158 19.3101,23.3159 Q19.3101,25.4077 19.9949,26.4744 Q20.6797,27.541 22.0244,27.541 Q22.6553,27.541 23.2488,27.2712 Q23.8423,27.0015 24.4731,26.4204 Z " fill="#000000"/><text fill="#000000" font-family="sans-serif" font-size="14" lengthAdjust="spacing" textLength="63" x="36" y="28.291">serverfeil</text><line style="stroke:#181818;stroke-width:0.5;" x1="8" x2="101" y1="39" y2="39"/><line style="stroke:#181818;stroke-width:0.5;" x1="8" x2="101" y1="47" y2="47"/></g><!--class feilmeldingBase--><g id="elem_feilmeldingBase"><rect fill="#F1F1F1" height="48" id="feilmeldingBase" rx="2.5" ry="2.5" style="stroke:#181818;stroke-width:0.5;" width="140" x="136.5" y="7"/><ellipse cx="151.5" cy="23" fill="#ADD1B2" rx="11" ry="11" style="stroke:#181818;stroke-width:1.0;"/><path d="M153.9731,29.1431 Q153.3921,29.4419 152.7529,29.5913 Q152.1138,29.7407 151.4082,29.7407 Q148.9014,29.7407 147.5815,28.0889 Q146.2617,26.437 146.2617,23.3159 Q146.2617,20.1865 147.5815,18.5347 Q148.9014,16.8828 151.4082,16.8828 Q152.1138,16.8828 152.7612,17.0322 Q153.4087,17.1816 153.9731,17.4805 L153.9731,20.2031 Q153.3423,19.6221 152.7488,19.3523 Q152.1553,19.0825 151.5244,19.0825 Q150.1797,19.0825 149.4949,20.1492 Q148.8101,21.2158 148.8101,23.3159 Q148.8101,25.4077 149.4949,26.4744 Q150.1797,27.541 151.5244,27.541 Q152.1553,27.541 152.7488,27.2712 Q153.3423,27.0015 153.9731,26.4204 Z " fill="#000000"/><text fill="#000000" font-family="sans-serif" font-size="14" lengthAdjust="spacing" textLength="108" x="165.5" y="28.291">feilmeldingBase</text><line style="stroke:#181818;stroke-width:0.5;" x1="137.5" x2="275.5" y1="39" y2="39"/><line style="stroke:#181818;stroke-width:0.5;" x1="137.5" x2="275.5" y1="47" y2="47"/></g><!--reverse link serverfeil to feilmeldingBase--><g id="link_serverfeil_feilmeldingBase"><path codeLine="4" d="M114.3,31 C125.56,31 124.82,31 136.08,31 " fill="none" id="serverfeil-backto-feilmeldingBase" style="stroke:#181818;stroke-width:1.0;"/><polygon fill="#181818" points="102.3,31,108.3,35,114.3,31,108.3,27,102.3,31" style="stroke:#181818;stroke-width:1.0;"/></g><!--SRC=[Iyv9B2vMA4ujAaijIalDp56evghbGk9gwIg0wDpKd9JCl7IdnE9KBW00]--></g></svg>