<svg xmlns="http://www.w3.org/2000/svg" xmlns:xlink="http://www.w3.org/1999/xlink" contentStyleType="text/css" height="62px" preserveAspectRatio="none" style="width:357px;height:62px;background:#FFFFFF;" version="1.1" viewBox="0 0 357 62" width="357px" zoomAndPan="magnify"><defs/><g><!--class ugyldigforespoersel--><g id="elem_ugyldigforespoersel"><rect codeLine="2" fill="#F1F1F1" height="48" id="ugyldigforespoersel" rx="2.5" ry="2.5" style="stroke:#181818;stroke-width:0.5;" width="169" x="7" y="7"/><ellipse cx="22" cy="23" fill="#ADD1B2" rx="11" ry="11" style="stroke:#181818;stroke-width:1.0;"/><path d="M24.4731,29.1431 Q23.8921,29.4419 23.2529,29.5913 Q22.6138,29.7407 21.9082,29.7407 Q19.4014,29.7407 18.0815,28.0889 Q16.7617,26.437 16.7617,23.3159 Q16.7617,20.1865 18.0815,18.5347 Q19.4014,16.8828 21.9082,16.8828 Q22.6138,16.8828 23.2612,17.0322 Q23.9087,17.1816 24.4731,17.4805 L24.4731,20.2031 Q23.8423,19.6221 23.2488,19.3523 Q22.6553,19.0825 22.0244,19.0825 Q20.6797,19.0825 19.9949,20.1492 Q19.3101,21.2158 19.3101,23.3159 Q19.3101,25.4077 19.9949,26.4744 Q20.6797,27.541 22.0244,27.541 Q22.6553,27.541 23.2488,27.2712 Q23.8423,27.0015 24.4731,26.4204 Z " fill="#000000"/><text fill="#000000" font-family="sans-serif" font-size="14" lengthAdjust="spacing" textLength="137" x="36" y="28.291">ugyldigforespoersel</text><line style="stroke:#181818;stroke-width:0.5;" x1="8" x2="175" y1="39" y2="39"/><line style="stroke:#181818;stroke-width:0.5;" x1="8" x2="175" y1="47" y2="47"/></g><!--class feilmeldingBase--><g id="elem_feilmeldingBase"><rect fill="#F1F1F1" height="48" id="feilmeldingBase" rx="2.5" ry="2.5" style="stroke:#181818;stroke-width:0.5;" width="140" x="210.5" y="7"/><ellipse cx="225.5" cy="23" fill="#ADD1B2" rx="11" ry="11" style="stroke:#181818;stroke-width:1.0;"/><path d="M227.9731,29.1431 Q227.3921,29.4419 226.7529,29.5913 Q226.1138,29.7407 225.4082,29.7407 Q222.9014,29.7407 221.5815,28.0889 Q220.2617,26.437 220.2617,23.3159 Q220.2617,20.1865 221.5815,18.5347 Q222.9014,16.8828 225.4082,16.8828 Q226.1138,16.8828 226.7612,17.0322 Q227.4087,17.1816 227.9731,17.4805 L227.9731,20.2031 Q227.3423,19.6221 226.7488,19.3523 Q226.1553,19.0825 225.5244,19.0825 Q224.1797,19.0825 223.4949,20.1492 Q222.8101,21.2158 222.8101,23.3159 Q222.8101,25.4077 223.4949,26.4744 Q224.1797,27.541 225.5244,27.541 Q226.1553,27.541 226.7488,27.2712 Q227.3423,27.0015 227.9731,26.4204 Z " fill="#000000"/><text fill="#000000" font-family="sans-serif" font-size="14" lengthAdjust="spacing" textLength="108" x="239.5" y="28.291">feilmeldingBase</text><line style="stroke:#181818;stroke-width:0.5;" x1="211.5" x2="349.5" y1="39" y2="39"/><line style="stroke:#181818;stroke-width:0.5;" x1="211.5" x2="349.5" y1="47" y2="47"/></g><!--reverse link ugyldigforespoersel to feilmeldingBase--><g id="link_ugyldigforespoersel_feilmeldingBase"><path codeLine="4" d="M188.4,31 C199.65,31 198.9,31 210.15,31 " fill="none" id="ugyldigforespoersel-backto-feilmeldingBase" style="stroke:#181818;stroke-width:1.0;"/><polygon fill="#181818" points="176.4,31,182.4,35,188.4,31,182.4,27,176.4,31" style="stroke:#181818;stroke-width:1.0;"/></g><!--SRC=[Iyv9B2vMA4slp4d9J4_BBqejBiXFBIfEpL6evghbmYQkfQkGbfgPaviAbCbBTqeiJkK20000]--></g></svg>