<?xml version="1.0" encoding="us-ascii" standalone="no"?><svg xmlns="http://www.w3.org/2000/svg" xmlns:xlink="http://www.w3.org/1999/xlink" contentStyleType="text/css" height="416px" preserveAspectRatio="none" style="width:1039px;height:416px;background:#FFFFFF;" version="1.1" viewBox="0 0 1039 416" width="1039px" zoomAndPan="magnify"><defs/><g><rect fill="#F1F1F1" height="102.4414" rx="5" ry="5" style="stroke:#F1F1F1;stroke-width:1.5;" width="595" x="10" y="115.2793"/><text fill="#000000" font-family="sans-serif" font-size="14" font-weight="bold" lengthAdjust="spacing" textLength="101" x="15" y="130.8145">protokollnavn</text><text fill="#000000" font-family="sans-serif" font-size="14" lengthAdjust="spacing" textLength="102" x="126" y="130.8145">no.ks.fiks.arkiv</text><line style="stroke:#000000;stroke-width:1.0;" x1="121" x2="121" y1="115.2793" y2="135.7676"/><line style="stroke:#000000;stroke-width:1.0;" x1="10" x2="605" y1="135.7676" y2="135.7676"/><text fill="#000000" font-family="sans-serif" font-size="14" font-weight="bold" lengthAdjust="spacing" textLength="34" x="15" y="151.3027">navn</text><text fill="#000000" font-family="sans-serif" font-size="14" lengthAdjust="spacing" textLength="71" x="126" y="151.3027">saksstatus</text><line style="stroke:#000000;stroke-width:1.0;" x1="121" x2="121" y1="135.7676" y2="156.2559"/><line style="stroke:#000000;stroke-width:1.0;" x1="10" x2="605" y1="156.2559" y2="156.2559"/><text fill="#000000" font-family="sans-serif" font-size="14" font-weight="bold" lengthAdjust="spacing" textLength="53" x="15" y="171.791">versjon</text><text fill="#000000" font-family="sans-serif" font-size="14" lengthAdjust="spacing" textLength="16" x="126" y="171.791">v1</text><line style="stroke:#000000;stroke-width:1.0;" x1="121" x2="121" y1="156.2559" y2="176.7441"/><line style="stroke:#000000;stroke-width:1.0;" x1="10" x2="605" y1="176.7441" y2="176.7441"/><text fill="#000000" font-family="sans-serif" font-size="14" font-weight="bold" lengthAdjust="spacing" textLength="73" x="15" y="192.2793">definisjon</text><text fill="#000000" font-family="sans-serif" font-size="14" lengthAdjust="spacing" textLength="474" x="126" y="192.2793">Status til saksmappen, dvs. hvor langt saksbehandlingen har kommet</text><line style="stroke:#000000;stroke-width:1.0;" x1="121" x2="121" y1="176.7441" y2="197.2324"/><line style="stroke:#000000;stroke-width:1.0;" x1="10" x2="605" y1="197.2324" y2="197.2324"/><text fill="#000000" font-family="sans-serif" font-size="14" font-weight="bold" lengthAdjust="spacing" textLength="67" x="15" y="212.7676">kodeliste</text><text fill="#000000" font-family="sans-serif" font-size="14" lengthAdjust="spacing" textLength="12" x="126" y="212.7676">&#160;&#160;&#160;</text><line style="stroke:#000000;stroke-width:1.0;" x1="121" x2="121" y1="197.2324" y2="217.7207"/><rect fill="none" height="102.4414" rx="5" ry="5" style="stroke:#000000;stroke-width:1.5;" width="595" x="10" y="115.2793"/><rect fill="#F1F1F1" height="143.418" rx="5" ry="5" style="stroke:#F1F1F1;stroke-width:1.5;" width="22" x="642" y="135.791"/><text fill="#000000" font-family="sans-serif" font-size="14" lengthAdjust="spacing" textLength="12" x="647" y="151.3262">&#160;&#160;&#160;</text><line style="stroke:#000000;stroke-width:1.0;" x1="642" x2="664" y1="156.2793" y2="156.2793"/><text fill="#000000" font-family="sans-serif" font-size="14" lengthAdjust="spacing" textLength="12" x="647" y="171.8145">&#160;&#160;&#160;</text><line style="stroke:#000000;stroke-width:1.0;" x1="642" x2="664" y1="176.7676" y2="176.7676"/><text fill="#000000" font-family="sans-serif" font-size="14" lengthAdjust="spacing" textLength="12" x="647" y="192.3027">&#160;&#160;&#160;</text><line style="stroke:#000000;stroke-width:1.0;" x1="642" x2="664" y1="197.2559" y2="197.2559"/><text fill="#000000" font-family="sans-serif" font-size="14" lengthAdjust="spacing" textLength="12" x="647" y="212.791">&#160;&#160;&#160;</text><line style="stroke:#000000;stroke-width:1.0;" x1="642" x2="664" y1="217.7441" y2="217.7441"/><text fill="#000000" font-family="sans-serif" font-size="14" lengthAdjust="spacing" textLength="12" x="647" y="233.2793">&#160;&#160;&#160;</text><line style="stroke:#000000;stroke-width:1.0;" x1="642" x2="664" y1="238.2324" y2="238.2324"/><text fill="#000000" font-family="sans-serif" font-size="14" lengthAdjust="spacing" textLength="12" x="647" y="253.7676">&#160;&#160;&#160;</text><line style="stroke:#000000;stroke-width:1.0;" x1="642" x2="664" y1="258.7207" y2="258.7207"/><text fill="#000000" font-family="sans-serif" font-size="14" lengthAdjust="spacing" textLength="12" x="647" y="274.2559">&#160;&#160;&#160;</text><rect fill="none" height="143.418" rx="5" ry="5" style="stroke:#000000;stroke-width:1.5;" width="22" x="642" y="135.791"/><rect fill="#F1F1F1" height="40.9766" rx="5" ry="5" style="stroke:#F1F1F1;stroke-width:1.5;" width="261" x="733.5" y="10"/><text fill="#000000" font-family="sans-serif" font-size="14" font-weight="bold" lengthAdjust="spacing" textLength="71" x="738.5" y="25.5352">kodeverdi</text><text fill="#000000" font-family="sans-serif" font-size="14" lengthAdjust="spacing" textLength="8" x="865.5" y="25.5352">B</text><line style="stroke:#000000;stroke-width:1.0;" x1="860.5" x2="860.5" y1="10" y2="30.4883"/><line style="stroke:#000000;stroke-width:1.0;" x1="733.5" x2="994.5" y1="30.4883" y2="30.4883"/><text fill="#000000" font-family="sans-serif" font-size="14" font-weight="bold" lengthAdjust="spacing" textLength="117" x="738.5" y="46.0234">kodebeskrivelse</text><text fill="#000000" font-family="sans-serif" font-size="14" lengthAdjust="spacing" textLength="124" x="865.5" y="46.0234">Under behandling</text><line style="stroke:#000000;stroke-width:1.0;" x1="860.5" x2="860.5" y1="30.4883" y2="50.9766"/><rect fill="none" height="40.9766" rx="5" ry="5" style="stroke:#000000;stroke-width:1.5;" width="261" x="733.5" y="10"/><rect fill="#F1F1F1" height="40.9766" rx="5" ry="5" style="stroke:#F1F1F1;stroke-width:1.5;" width="197" x="765.5" y="69"/><text fill="#000000" font-family="sans-serif" font-size="14" font-weight="bold" lengthAdjust="spacing" textLength="71" x="770.5" y="84.5352">kodeverdi</text><text fill="#000000" font-family="sans-serif" font-size="14" lengthAdjust="spacing" textLength="10" x="897.5" y="84.5352">A</text><line style="stroke:#000000;stroke-width:1.0;" x1="892.5" x2="892.5" y1="69" y2="89.4883"/><line style="stroke:#000000;stroke-width:1.0;" x1="765.5" x2="962.5" y1="89.4883" y2="89.4883"/><text fill="#000000" font-family="sans-serif" font-size="14" font-weight="bold" lengthAdjust="spacing" textLength="117" x="770.5" y="105.0234">kodebeskrivelse</text><text fill="#000000" font-family="sans-serif" font-size="14" lengthAdjust="spacing" textLength="60" x="897.5" y="105.0234">Avsluttet</text><line style="stroke:#000000;stroke-width:1.0;" x1="892.5" x2="892.5" y1="89.4883" y2="109.9766"/><rect fill="none" height="40.9766" rx="5" ry="5" style="stroke:#000000;stroke-width:1.5;" width="197" x="765.5" y="69"/><rect fill="#F1F1F1" height="40.9766" rx="5" ry="5" style="stroke:#F1F1F1;stroke-width:1.5;" width="175" x="776.5" y="128"/><text fill="#000000" font-family="sans-serif" font-size="14" font-weight="bold" lengthAdjust="spacing" textLength="71" x="781.5" y="143.5352">kodeverdi</text><text fill="#000000" font-family="sans-serif" font-size="14" lengthAdjust="spacing" textLength="10" x="908.5" y="143.5352">U</text><line style="stroke:#000000;stroke-width:1.0;" x1="903.5" x2="903.5" y1="128" y2="148.4883"/><line style="stroke:#000000;stroke-width:1.0;" x1="776.5" x2="951.5" y1="148.4883" y2="148.4883"/><text fill="#000000" font-family="sans-serif" font-size="14" font-weight="bold" lengthAdjust="spacing" textLength="117" x="781.5" y="164.0234">kodebeskrivelse</text><text fill="#000000" font-family="sans-serif" font-size="14" lengthAdjust="spacing" textLength="38" x="908.5" y="164.0234">Utg&#229;r</text><line style="stroke:#000000;stroke-width:1.0;" x1="903.5" x2="903.5" y1="148.4883" y2="168.9766"/><rect fill="none" height="40.9766" rx="5" ry="5" style="stroke:#000000;stroke-width:1.5;" width="175" x="776.5" y="128"/><rect fill="#F1F1F1" height="40.9766" rx="5" ry="5" style="stroke:#F1F1F1;stroke-width:1.5;" width="326" x="701" y="187"/><text fill="#000000" font-family="sans-serif" font-size="14" font-weight="bold" lengthAdjust="spacing" textLength="71" x="706" y="202.5352">kodeverdi</text><text fill="#000000" font-family="sans-serif" font-size="14" lengthAdjust="spacing" textLength="9" x="833" y="202.5352">R</text><line style="stroke:#000000;stroke-width:1.0;" x1="828" x2="828" y1="187" y2="207.4883"/><line style="stroke:#000000;stroke-width:1.0;" x1="701" x2="1027" y1="207.4883" y2="207.4883"/><text fill="#000000" font-family="sans-serif" font-size="14" font-weight="bold" lengthAdjust="spacing" textLength="117" x="706" y="223.0234">kodebeskrivelse</text><text fill="#000000" font-family="sans-serif" font-size="14" lengthAdjust="spacing" textLength="189" x="833" y="223.0234">Opprettet av saksbehandler</text><line style="stroke:#000000;stroke-width:1.0;" x1="828" x2="828" y1="207.4883" y2="227.9766"/><rect fill="none" height="40.9766" rx="5" ry="5" style="stroke:#000000;stroke-width:1.5;" width="326" x="701" y="187"/><rect fill="#F1F1F1" height="40.9766" rx="5" ry="5" style="stroke:#F1F1F1;stroke-width:1.5;" width="320" x="704" y="246"/><text fill="#000000" font-family="sans-serif" font-size="14" font-weight="bold" lengthAdjust="spacing" textLength="71" x="709" y="261.5352">kodeverdi</text><text fill="#000000" font-family="sans-serif" font-size="14" lengthAdjust="spacing" textLength="8" x="836" y="261.5352">S</text><line style="stroke:#000000;stroke-width:1.0;" x1="831" x2="831" y1="246" y2="266.4883"/><line style="stroke:#000000;stroke-width:1.0;" x1="704" x2="1024" y1="266.4883" y2="266.4883"/><text fill="#000000" font-family="sans-serif" font-size="14" font-weight="bold" lengthAdjust="spacing" textLength="117" x="709" y="282.0234">kodebeskrivelse</text><text fill="#000000" font-family="sans-serif" font-size="14" lengthAdjust="spacing" textLength="183" x="836" y="282.0234">Avsluttet av saksbehandler</text><line style="stroke:#000000;stroke-width:1.0;" x1="831" x2="831" y1="266.4883" y2="286.9766"/><rect fill="none" height="40.9766" rx="5" ry="5" style="stroke:#000000;stroke-width:1.5;" width="320" x="704" y="246"/><rect fill="#F1F1F1" height="40.9766" rx="5" ry="5" style="stroke:#F1F1F1;stroke-width:1.5;" width="285" x="721.5" y="305"/><text fill="#000000" font-family="sans-serif" font-size="14" font-weight="bold" lengthAdjust="spacing" textLength="71" x="726.5" y="320.5352">kodeverdi</text><text fill="#000000" font-family="sans-serif" font-size="14" lengthAdjust="spacing" textLength="8" x="853.5" y="320.5352">P</text><line style="stroke:#000000;stroke-width:1.0;" x1="848.5" x2="848.5" y1="305" y2="325.4883"/><line style="stroke:#000000;stroke-width:1.0;" x1="721.5" x2="1006.5" y1="325.4883" y2="325.4883"/><text fill="#000000" font-family="sans-serif" font-size="14" font-weight="bold" lengthAdjust="spacing" textLength="117" x="726.5" y="341.0234">kodebeskrivelse</text><text fill="#000000" font-family="sans-serif" font-size="14" lengthAdjust="spacing" textLength="148" x="853.5" y="341.0234">Unntatt prosesstyring</text><line style="stroke:#000000;stroke-width:1.0;" x1="848.5" x2="848.5" y1="325.4883" y2="345.9766"/><rect fill="none" height="40.9766" rx="5" ry="5" style="stroke:#000000;stroke-width:1.5;" width="285" x="721.5" y="305"/><rect fill="#F1F1F1" height="40.9766" rx="5" ry="5" style="stroke:#F1F1F1;stroke-width:1.5;" width="308" x="710" y="364"/><text fill="#000000" font-family="sans-serif" font-size="14" font-weight="bold" lengthAdjust="spacing" textLength="71" x="715" y="379.5352">kodeverdi</text><text fill="#000000" font-family="sans-serif" font-size="14" lengthAdjust="spacing" textLength="8" x="842" y="379.5352">F</text><line style="stroke:#000000;stroke-width:1.0;" x1="837" x2="837" y1="364" y2="384.4883"/><line style="stroke:#000000;stroke-width:1.0;" x1="710" x2="1018" y1="384.4883" y2="384.4883"/><text fill="#000000" font-family="sans-serif" font-size="14" font-weight="bold" lengthAdjust="spacing" textLength="117" x="715" y="400.0234">kodebeskrivelse</text><text fill="#000000" font-family="sans-serif" font-size="14" lengthAdjust="spacing" textLength="171" x="842" y="400.0234">Ferdig fra saksbehandler</text><line style="stroke:#000000;stroke-width:1.0;" x1="837" x2="837" y1="384.4883" y2="404.9766"/><rect fill="none" height="40.9766" rx="5" ry="5" style="stroke:#000000;stroke-width:1.5;" width="308" x="710" y="364"/><path d="M652,146.5 L665,146.5 C706.8463,146.5 668.3966,85.7322 701,59.5 C708.8287,53.2012 717.5612,48.0838 726.8031,43.9423 " fill="none" style="stroke:#000000;stroke-width:1.0;stroke-dasharray:3.0,3.0;"/><path d="M727.9952,46.8063 L728.9511,43.0482 L725.611,41.0783 L733.9632,40.9621 L727.9952,46.8063 " fill="#000000" style="stroke:#000000;stroke-width:1.0;"/><ellipse cx="652" cy="146.5" fill="#000000" rx="3" ry="3" style="stroke:#000000;stroke-width:1.0;"/><path d="M652,166.5 L665,166.5 C691.6667,166.5 678.2932,132.4826 701,118.5 C718.2778,107.8605 738.4289,100.888 758.5422,96.3679 " fill="none" style="stroke:#000000;stroke-width:1.0;stroke-dasharray:3.0,3.0;"/><path d="M759.1649,99.3291 L760.7632,95.9009 L757.9196,93.4066 L765.9453,94.8113 L759.1649,99.3291 " fill="#000000" style="stroke:#000000;stroke-width:1.0;"/><ellipse cx="652" cy="166.5" fill="#000000" rx="3" ry="3" style="stroke:#000000;stroke-width:1.0;"/><path d="M652,187.5 L665,187.5 C681.4924,187.5 684.883,181.9988 701,178.5 C723.0397,173.7155 746.8671,169.0405 769.3059,164.8589 " fill="none" style="stroke:#000000;stroke-width:1.0;stroke-dasharray:3.0,3.0;"/><path d="M769.8654,167.8796 L771.5715,164.4393 L768.7464,161.8381 L776.8578,163.4602 L769.8654,167.8796 " fill="#000000" style="stroke:#000000;stroke-width:1.0;"/><ellipse cx="652" cy="187.5" fill="#000000" rx="3" ry="3" style="stroke:#000000;stroke-width:1.0;"/><path d="M652,207.5 L665,207.5 C674.3134,207.5 683.8727,207.5 693.522,207.5 " fill="none" style="stroke:#000000;stroke-width:1.0;stroke-dasharray:3.0,3.0;"/><path d="M693.522,210.602 L695.8485,207.5 L693.522,204.398 L701.2769,207.5 L693.522,210.602 " fill="#000000" style="stroke:#000000;stroke-width:1.0;"/><ellipse cx="652" cy="207.5" fill="#000000" rx="3" ry="3" style="stroke:#000000;stroke-width:1.0;"/><path d="M652,227.5 L665,227.5 C681.6058,227.5 684.8082,233.815 701,237.5 C711.5572,239.9027 722.5377,242.2278 733.5865,244.4459 " fill="none" style="stroke:#000000;stroke-width:1.0;stroke-dasharray:3.0,3.0;"/><path d="M732.9792,247.5082 L735.8832,244.9014 L734.1938,241.3836 L741.2423,245.9641 L732.9792,247.5082 " fill="#000000" style="stroke:#000000;stroke-width:1.0;"/><ellipse cx="652" cy="227.5" fill="#000000" rx="3" ry="3" style="stroke:#000000;stroke-width:1.0;"/><path d="M652,248.5 L665,248.5 C691.6667,248.5 678.2932,282.5174 701,296.5 C705.4267,299.2259 710.042,301.7111 714.7969,303.976 " fill="none" style="stroke:#000000;stroke-width:1.0;stroke-dasharray:3.0,3.0;"/><path d="M713.5317,306.8003 L716.9151,304.925 L716.0622,301.1517 L721.8577,307.1392 L713.5317,306.8003 " fill="#000000" style="stroke:#000000;stroke-width:1.0;"/><ellipse cx="652" cy="248.5" fill="#000000" rx="3" ry="3" style="stroke:#000000;stroke-width:1.0;"/><path d="M652,268.5 L665,268.5 C706.8463,268.5 668.3966,329.2678 701,355.5 C702.7792,356.9315 704.6052,358.3021 706.4732,359.614 " fill="none" style="stroke:#000000;stroke-width:1.0;stroke-dasharray:3.0,3.0;"/><path d="M704.7779,362.2166 L708.4251,360.8854 L708.1684,357.0114 L712.9796,363.8522 L704.7779,362.2166 " fill="#000000" style="stroke:#000000;stroke-width:1.0;"/><ellipse cx="652" cy="268.5" fill="#000000" rx="3" ry="3" style="stroke:#000000;stroke-width:1.0;"/><path d="M593,207.5 L606,207.5 C615.4213,207.5 625.9164,207.5 634.5483,207.5 " fill="none" style="stroke:#000000;stroke-width:1.0;stroke-dasharray:3.0,3.0;"/><path d="M634.5483,210.5437 L636.8311,207.5 L634.5483,204.4563 L642.1575,207.5 L634.5483,210.5437 " fill="#000000" style="stroke:#000000;stroke-width:1.0;"/><ellipse cx="593" cy="207.5" fill="#000000" rx="3" ry="3" style="stroke:#000000;stroke-width:1.0;"/><!--SRC=[dPFFJkCm4CRlVefHJY2Lg2shLPKJVujKscr5A1Uq1vTCKnDd7DcEfGhnEFial1YJb2vxG2NQonpc-_ppPtjyvhoq_jaP4Yy28AgiyQOmMfCC52KGaOaB5wyL5saB5Q9UOzkhJXQE2Rvsktv0wvvDAuN1hfNXMf7QTzFM35vfQDQMiggGUf055yCc60jQKkvRROKRIPbMb2F1HbeeJ5cYtr4Baw5MpYD37xa1yDBM3ubpP2e2tl2YzVyLLkWAgm9gXwsyf0mjV6uLjURNtY7a-M7aUN2wzfwJTc0jluddyxS_jWlexZ1eNbKMcr0Wmx-tYvtWQSSJ_nTyyTqB4S-C1vvCXpniMzlncSQ7kUF6cCFQoYyZS_qjNiKPKjR-3h7WoVJBsHIQ6LU6O10F-yFJU7IKrWGpkONX00Rzv7IKzFjmUPtUGwCVYwERnHISgUqJGiOZQzMgzWmu5XCP9DpLv5M92Spv9qokRlSDkAQWhA4IoOl9m-pJyFF7oONoaABbAF0m4rUubhNslEB9P7mx2IplnoSZCUM_LCkSsKZYqZ3NRXFuDNy7]--></g></svg>