<?xml version="1.0" encoding="us-ascii" standalone="no"?><svg xmlns="http://www.w3.org/2000/svg" xmlns:xlink="http://www.w3.org/1999/xlink" contentStyleType="text/css" height="144px" preserveAspectRatio="none" style="width:833px;height:144px;background:#FFFFFF;" version="1.1" viewBox="0 0 833 144" width="833px" zoomAndPan="magnify"><defs/><g><!--class avskrivning--><g id="elem_avskrivning"><rect codeLine="2" fill="#F1F1F1" height="130.4414" id="avskrivning" rx="2.5" ry="2.5" style="stroke:#181818;stroke-width:0.5;" width="424" x="7" y="7"/><ellipse cx="175.75" cy="23" fill="#ADD1B2" rx="11" ry="11" style="stroke:#181818;stroke-width:1.0;"/><path d="M178.2231,29.1431 Q177.6421,29.4419 177.0029,29.5913 Q176.3638,29.7407 175.6582,29.7407 Q173.1514,29.7407 171.8315,28.0889 Q170.5117,26.437 170.5117,23.3159 Q170.5117,20.1865 171.8315,18.5347 Q173.1514,16.8828 175.6582,16.8828 Q176.3638,16.8828 177.0112,17.0322 Q177.6587,17.1816 178.2231,17.4805 L178.2231,20.2031 Q177.5923,19.6221 176.9988,19.3523 Q176.4053,19.0825 175.7744,19.0825 Q174.4297,19.0825 173.7449,20.1492 Q173.0601,21.2158 173.0601,23.3159 Q173.0601,25.4077 173.7449,26.4744 Q174.4297,27.541 175.7744,27.541 Q176.4053,27.541 176.9988,27.2712 Q177.5923,27.0015 178.2231,26.4204 Z " fill="#000000"/><text fill="#000000" font-family="sans-serif" font-size="14" lengthAdjust="spacing" textLength="78" x="196.25" y="28.291">avskrivning</text><line style="stroke:#181818;stroke-width:0.5;" x1="8" x2="430" y1="39" y2="39"/><ellipse cx="18" cy="52.7441" fill="none" rx="3" ry="3" style="stroke:#038048;stroke-width:1.0;"/><text fill="#000000" font-family="sans-serif" font-size="14" lengthAdjust="spacing" textLength="158" x="27" y="56.5352">avskrivningsdato : date</text><ellipse cx="18" cy="69.2324" fill="none" rx="3" ry="3" style="stroke:#038048;stroke-width:1.0;"/><text fill="#000000" font-family="sans-serif" font-size="14" lengthAdjust="spacing" textLength="133" x="27" y="73.0234">avskrevetAv : string</text><ellipse cx="18" cy="85.7207" fill="none" rx="3" ry="3" style="stroke:#038048;stroke-width:1.0;"/><text fill="#000000" font-family="sans-serif" font-size="14" lengthAdjust="spacing" textLength="266" x="27" y="89.5117">avskrivningsmaate : avskrivningsmaate</text><ellipse cx="18" cy="102.209" fill="none" rx="3" ry="3" style="stroke:#038048;stroke-width:1.0;"/><text fill="#000000" font-family="sans-serif" font-size="14" lengthAdjust="spacing" textLength="398" x="27" y="106">referanseAvskrivesAvJournalpost : referanseTilJournalpost</text><ellipse cx="18" cy="118.6973" fill="none" rx="3" ry="3" style="stroke:#038048;stroke-width:1.0;"/><text fill="#000000" font-family="sans-serif" font-size="14" lengthAdjust="spacing" textLength="380" x="27" y="122.4883">referanseAvskriverJournalpost : referanseTilJournalpost</text><line style="stroke:#181818;stroke-width:0.5;" x1="8" x2="430" y1="129.4414" y2="129.4414"/></g><!--class nyAvskrivning--><g id="elem_nyAvskrivning"><rect codeLine="9" fill="#F1F1F1" height="97.4648" id="nyAvskrivning" rx="2.5" ry="2.5" style="stroke:#181818;stroke-width:0.5;" width="360" x="466" y="23.49"/><ellipse cx="593.75" cy="39.49" fill="#ADD1B2" rx="11" ry="11" style="stroke:#181818;stroke-width:1.0;"/><path d="M596.2231,45.6331 Q595.6421,45.9319 595.0029,46.0813 Q594.3638,46.2307 593.6582,46.2307 Q591.1514,46.2307 589.8315,44.5789 Q588.5117,42.927 588.5117,39.8059 Q588.5117,36.6765 589.8315,35.0247 Q591.1514,33.3728 593.6582,33.3728 Q594.3638,33.3728 595.0112,33.5222 Q595.6587,33.6716 596.2231,33.9705 L596.2231,36.6931 Q595.5923,36.1121 594.9988,35.8423 Q594.4053,35.5725 593.7744,35.5725 Q592.4297,35.5725 591.7449,36.6392 Q591.0601,37.7058 591.0601,39.8059 Q591.0601,41.8977 591.7449,42.9644 Q592.4297,44.031 593.7744,44.031 Q594.4053,44.031 594.9988,43.7612 Q595.5923,43.4915 596.2231,42.9104 Z " fill="#000000"/><text fill="#000000" font-family="sans-serif" font-size="14" lengthAdjust="spacing" textLength="96" x="614.25" y="44.781">nyAvskrivning</text><line style="stroke:#181818;stroke-width:0.5;" x1="467" x2="825" y1="55.49" y2="55.49"/><ellipse cx="477" cy="69.2341" fill="none" rx="3" ry="3" style="stroke:#038048;stroke-width:1.0;"/><text fill="#000000" font-family="sans-serif" font-size="14" lengthAdjust="spacing" textLength="168" x="486" y="73.0252">avskrivning : avskrivning</text><ellipse cx="477" cy="85.7224" fill="none" rx="3" ry="3" style="stroke:#038048;stroke-width:1.0;"/><text fill="#000000" font-family="sans-serif" font-size="14" lengthAdjust="spacing" textLength="334" x="486" y="89.5134">referanseTilJournalpost : referanseTilJournalpost</text><ellipse cx="477" cy="102.2107" fill="none" rx="3" ry="3" style="stroke:#038048;stroke-width:1.0;"/><text fill="#000000" font-family="sans-serif" font-size="14" lengthAdjust="spacing" textLength="206" x="486" y="106.0017">korrespondansepartID : string</text><line style="stroke:#181818;stroke-width:0.5;" x1="467" x2="825" y1="112.9548" y2="112.9548"/></g><!--SRC=[ZP1D2W8n38NtFKNtti1TmOsklK2OYLAcfYMf0P6vkz41xJZuaqtXlVVbfrq24Gyg0qUbI4T_TTvgrKZIGyr-xUt1naJ56jHqgMof9NO20ynVQ5EKyO0C91Wc7oNeBf-P89KirS1dOXzJutp0-JzuTDtZPhg4hrVF5t-REU_vQzKXCwEKJFqzKO3hTlFwjz7T0000]--></g></svg>