<?xml version="1.0" encoding="us-ascii" standalone="no"?><svg xmlns="http://www.w3.org/2000/svg" xmlns:xlink="http://www.w3.org/1999/xlink" contentStyleType="text/css" height="409px" preserveAspectRatio="none" style="width:560px;height:409px;background:#FFFFFF;" version="1.1" viewBox="0 0 560 409" width="560px" zoomAndPan="magnify"><defs/><g><!--class avskrivning--><g id="elem_avskrivning"><rect codeLine="2" fill="#F1F1F1" height="130.4414" id="avskrivning" rx="2.5" ry="2.5" style="stroke:#181818;stroke-width:0.5;" width="424" x="7" y="164.47"/><ellipse cx="175.75" cy="180.47" fill="#ADD1B2" rx="11" ry="11" style="stroke:#181818;stroke-width:1.0;"/><path d="M178.2231,186.6131 Q177.6421,186.9119 177.0029,187.0613 Q176.3638,187.2107 175.6582,187.2107 Q173.1514,187.2107 171.8315,185.5589 Q170.5117,183.907 170.5117,180.7859 Q170.5117,177.6565 171.8315,176.0047 Q173.1514,174.3528 175.6582,174.3528 Q176.3638,174.3528 177.0112,174.5022 Q177.6587,174.6516 178.2231,174.9505 L178.2231,177.6731 Q177.5923,177.0921 176.9988,176.8223 Q176.4053,176.5525 175.7744,176.5525 Q174.4297,176.5525 173.7449,177.6192 Q173.0601,178.6858 173.0601,180.7859 Q173.0601,182.8777 173.7449,183.9444 Q174.4297,185.011 175.7744,185.011 Q176.4053,185.011 176.9988,184.7412 Q177.5923,184.4715 178.2231,183.8904 Z " fill="#000000"/><text fill="#000000" font-family="sans-serif" font-size="14" lengthAdjust="spacing" textLength="78" x="196.25" y="185.761">avskrivning</text><line style="stroke:#181818;stroke-width:0.5;" x1="8" x2="430" y1="196.47" y2="196.47"/><ellipse cx="18" cy="210.2141" fill="none" rx="3" ry="3" style="stroke:#038048;stroke-width:1.0;"/><text fill="#000000" font-family="sans-serif" font-size="14" lengthAdjust="spacing" textLength="158" x="27" y="214.0052">avskrivningsdato : date</text><ellipse cx="18" cy="226.7024" fill="none" rx="3" ry="3" style="stroke:#038048;stroke-width:1.0;"/><text fill="#000000" font-family="sans-serif" font-size="14" lengthAdjust="spacing" textLength="133" x="27" y="230.4934">avskrevetAv : string</text><ellipse cx="18" cy="243.1907" fill="none" rx="3" ry="3" style="stroke:#038048;stroke-width:1.0;"/><text fill="#000000" font-family="sans-serif" font-size="14" lengthAdjust="spacing" textLength="266" x="27" y="246.9817">avskrivningsmaate : avskrivningsmaate</text><ellipse cx="18" cy="259.679" fill="none" rx="3" ry="3" style="stroke:#038048;stroke-width:1.0;"/><text fill="#000000" font-family="sans-serif" font-size="14" lengthAdjust="spacing" textLength="398" x="27" y="263.47">referanseAvskrivesAvJournalpost : referanseTilJournalpost</text><ellipse cx="18" cy="276.1673" fill="none" rx="3" ry="3" style="stroke:#038048;stroke-width:1.0;"/><text fill="#000000" font-family="sans-serif" font-size="14" lengthAdjust="spacing" textLength="380" x="27" y="279.9583">referanseAvskriverJournalpost : referanseTilJournalpost</text><line style="stroke:#181818;stroke-width:0.5;" x1="8" x2="430" y1="286.9114" y2="286.9114"/></g><!--class avskrivningsmaate--><g id="elem_avskrivningsmaate"><rect fill="#F1F1F1" height="48" id="avskrivningsmaate" rx="2.5" ry="2.5" style="stroke:#181818;stroke-width:0.5;" width="159" x="139.5" y="354.91"/><ellipse cx="154.5" cy="370.91" fill="#ADD1B2" rx="11" ry="11" style="stroke:#181818;stroke-width:1.0;"/><path d="M156.9731,377.0531 Q156.3921,377.3519 155.7529,377.5013 Q155.1138,377.6507 154.4082,377.6507 Q151.9014,377.6507 150.5815,375.9989 Q149.2617,374.347 149.2617,371.2259 Q149.2617,368.0965 150.5815,366.4447 Q151.9014,364.7928 154.4082,364.7928 Q155.1138,364.7928 155.7612,364.9422 Q156.4087,365.0916 156.9731,365.3905 L156.9731,368.1131 Q156.3423,367.5321 155.7488,367.2623 Q155.1553,366.9925 154.5244,366.9925 Q153.1797,366.9925 152.4949,368.0592 Q151.8101,369.1258 151.8101,371.2259 Q151.8101,373.3177 152.4949,374.3844 Q153.1797,375.451 154.5244,375.451 Q155.1553,375.451 155.7488,375.1812 Q156.3423,374.9115 156.9731,374.3304 Z " fill="#000000"/><text fill="#000000" font-family="sans-serif" font-size="14" lengthAdjust="spacing" textLength="127" x="168.5" y="376.201">avskrivningsmaate</text><line style="stroke:#181818;stroke-width:0.5;" x1="140.5" x2="297.5" y1="386.91" y2="386.91"/><line style="stroke:#181818;stroke-width:0.5;" x1="140.5" x2="297.5" y1="394.91" y2="394.91"/></g><!--class referanseTilJournalpost--><g id="elem_referanseTilJournalpost"><rect fill="#F1F1F1" height="48" id="referanseTilJournalpost" rx="2.5" ry="2.5" style="stroke:#181818;stroke-width:0.5;" width="193" x="360.5" y="354.91"/><ellipse cx="375.5" cy="370.91" fill="#ADD1B2" rx="11" ry="11" style="stroke:#181818;stroke-width:1.0;"/><path d="M377.9731,377.0531 Q377.3921,377.3519 376.7529,377.5013 Q376.1138,377.6507 375.4082,377.6507 Q372.9014,377.6507 371.5815,375.9989 Q370.2617,374.347 370.2617,371.2259 Q370.2617,368.0965 371.5815,366.4447 Q372.9014,364.7928 375.4082,364.7928 Q376.1138,364.7928 376.7612,364.9422 Q377.4087,365.0916 377.9731,365.3905 L377.9731,368.1131 Q377.3423,367.5321 376.7488,367.2623 Q376.1553,366.9925 375.5244,366.9925 Q374.1797,366.9925 373.4949,368.0592 Q372.8101,369.1258 372.8101,371.2259 Q372.8101,373.3177 373.4949,374.3844 Q374.1797,375.451 375.5244,375.451 Q376.1553,375.451 376.7488,375.1812 Q377.3423,374.9115 377.9731,374.3304 Z " fill="#000000"/><text fill="#000000" font-family="sans-serif" font-size="14" lengthAdjust="spacing" textLength="161" x="389.5" y="376.201">referanseTilJournalpost</text><line style="stroke:#181818;stroke-width:0.5;" x1="361.5" x2="552.5" y1="386.91" y2="386.91"/><line style="stroke:#181818;stroke-width:0.5;" x1="361.5" x2="552.5" y1="394.91" y2="394.91"/></g><!--class nyAvskrivning--><g id="elem_nyAvskrivning"><rect codeLine="11" fill="#F1F1F1" height="97.4648" id="nyAvskrivning" rx="2.5" ry="2.5" style="stroke:#181818;stroke-width:0.5;" width="360" x="171" y="7"/><ellipse cx="298.75" cy="23" fill="#ADD1B2" rx="11" ry="11" style="stroke:#181818;stroke-width:1.0;"/><path d="M301.2231,29.1431 Q300.6421,29.4419 300.0029,29.5913 Q299.3638,29.7407 298.6582,29.7407 Q296.1514,29.7407 294.8315,28.0889 Q293.5117,26.437 293.5117,23.3159 Q293.5117,20.1865 294.8315,18.5347 Q296.1514,16.8828 298.6582,16.8828 Q299.3638,16.8828 300.0112,17.0322 Q300.6587,17.1816 301.2231,17.4805 L301.2231,20.2031 Q300.5923,19.6221 299.9988,19.3523 Q299.4053,19.0825 298.7744,19.0825 Q297.4297,19.0825 296.7449,20.1492 Q296.0601,21.2158 296.0601,23.3159 Q296.0601,25.4077 296.7449,26.4744 Q297.4297,27.541 298.7744,27.541 Q299.4053,27.541 299.9988,27.2712 Q300.5923,27.0015 301.2231,26.4204 Z " fill="#000000"/><text fill="#000000" font-family="sans-serif" font-size="14" lengthAdjust="spacing" textLength="96" x="319.25" y="28.291">nyAvskrivning</text><line style="stroke:#181818;stroke-width:0.5;" x1="172" x2="530" y1="39" y2="39"/><ellipse cx="182" cy="52.7441" fill="none" rx="3" ry="3" style="stroke:#038048;stroke-width:1.0;"/><text fill="#000000" font-family="sans-serif" font-size="14" lengthAdjust="spacing" textLength="168" x="191" y="56.5352">avskrivning : avskrivning</text><ellipse cx="182" cy="69.2324" fill="none" rx="3" ry="3" style="stroke:#038048;stroke-width:1.0;"/><text fill="#000000" font-family="sans-serif" font-size="14" lengthAdjust="spacing" textLength="334" x="191" y="73.0234">referanseTilJournalpost : referanseTilJournalpost</text><ellipse cx="182" cy="85.7207" fill="none" rx="3" ry="3" style="stroke:#038048;stroke-width:1.0;"/><text fill="#000000" font-family="sans-serif" font-size="14" lengthAdjust="spacing" textLength="206" x="191" y="89.5117">korrespondansepartID : string</text><line style="stroke:#181818;stroke-width:0.5;" x1="172" x2="530" y1="96.4648" y2="96.4648"/></g><!--link avskrivning to avskrivningsmaate--><g id="link_avskrivning_avskrivningsmaate"><path codeLine="9" d="M219,295.26 C219,316.43 219,338.61 219,354.66 " fill="none" id="avskrivning-avskrivningsmaate" style="stroke:#181818;stroke-width:1.0;"/></g><!--link avskrivning to referanseTilJournalpost--><g id="link_avskrivning_referanseTilJournalpost"><path codeLine="10" d="M323.39,295.26 C357.49,316.35 393.21,338.45 419.13,354.48 " fill="none" id="avskrivning-referanseTilJournalpost" style="stroke:#181818;stroke-width:1.0;"/></g><!--link nyAvskrivning to avskrivning--><g id="link_nyAvskrivning_avskrivning"><path codeLine="16" d="M314.23,104.63 C300.12,123.02 283.77,144.31 268.65,164.02 " fill="none" id="nyAvskrivning-avskrivning" style="stroke:#181818;stroke-width:1.0;"/></g><!--link nyAvskrivning to referanseTilJournalpost--><g id="link_nyAvskrivning_referanseTilJournalpost"><path codeLine="17" d="M408.01,104.86 C424.25,121.88 439.96,142.35 449,164.47 C475.43,229.18 467.28,314.32 461.14,354.71 " fill="none" id="nyAvskrivning-referanseTilJournalpost" style="stroke:#181818;stroke-width:1.0;"/></g><!--SRC=[ZL112i8m4Bpd5RbBF-0ju4NFVc1fLocjITYD0P7-lQi5JHgZvXBOcTcTcNO4PWsH1-gZxUrPtvMMjqb6t45mUglbmmJ4YC54cNCWOPMo2uX0y6AsK0bFI60PpO8ZctXmLx8mUiT1X2_6iHyJf2Ad_yIJIjCspGTxAq9jK_lipjxCr_Ro0bRUyus_8W-E2DaxspqO7YZiT-_-9vLRoQELOEtK3000]--></g></svg>