<?xml version="1.0" encoding="us-ascii" standalone="no"?><svg xmlns="http://www.w3.org/2000/svg" xmlns:xlink="http://www.w3.org/1999/xlink" contentStyleType="text/css" height="101px" preserveAspectRatio="none" style="width:381px;height:101px;background:#FFFFFF;" version="1.1" viewBox="0 0 381 101" width="381px" zoomAndPan="magnify"><defs/><g><!--class slettAvskrivning--><g id="elem_slettAvskrivning"><rect codeLine="2" fill="#F1F1F1" height="80.9766" id="slettAvskrivning" rx="2.5" ry="2.5" style="stroke:#181818;stroke-width:0.5;" width="360" x="7" y="7"/><ellipse cx="128.25" cy="23" fill="#ADD1B2" rx="11" ry="11" style="stroke:#181818;stroke-width:1.0;"/><path d="M130.7231,29.1431 Q130.1421,29.4419 129.5029,29.5913 Q128.8638,29.7407 128.1582,29.7407 Q125.6514,29.7407 124.3315,28.0889 Q123.0117,26.437 123.0117,23.3159 Q123.0117,20.1865 124.3315,18.5347 Q125.6514,16.8828 128.1582,16.8828 Q128.8638,16.8828 129.5112,17.0322 Q130.1587,17.1816 130.7231,17.4805 L130.7231,20.2031 Q130.0923,19.6221 129.4988,19.3523 Q128.9053,19.0825 128.2744,19.0825 Q126.9297,19.0825 126.2449,20.1492 Q125.5601,21.2158 125.5601,23.3159 Q125.5601,25.4077 126.2449,26.4744 Q126.9297,27.541 128.2744,27.541 Q128.9053,27.541 129.4988,27.2712 Q130.0923,27.0015 130.7231,26.4204 Z " fill="#000000"/><text fill="#000000" font-family="sans-serif" font-size="14" lengthAdjust="spacing" textLength="109" x="148.75" y="28.291">slettAvskrivning</text><line style="stroke:#181818;stroke-width:0.5;" x1="8" x2="366" y1="39" y2="39"/><ellipse cx="18" cy="52.7441" fill="none" rx="3" ry="3" style="stroke:#038048;stroke-width:1.0;"/><text fill="#000000" font-family="sans-serif" font-size="14" lengthAdjust="spacing" textLength="334" x="27" y="56.5352">referanseTilJournalpost : referanseTilJournalpost</text><ellipse cx="18" cy="69.2324" fill="none" rx="3" ry="3" style="stroke:#038048;stroke-width:1.0;"/><text fill="#000000" font-family="sans-serif" font-size="14" lengthAdjust="spacing" textLength="206" x="27" y="73.0234">korrespondansepartID : string</text><line style="stroke:#181818;stroke-width:0.5;" x1="8" x2="366" y1="79.9766" y2="79.9766"/></g><!--SRC=[Iyv9B2vMACv9BIbnB2lEBieioylCIrUevb800ksYrBJKeiIyujIGp1ol_DAYlCISWlpY4WKh1Hmo46tP-KL5gSK5-Naf81K5YKKbdYv0FSKbHK2pkMgv0000]--></g></svg>