<?xml version="1.0" encoding="us-ascii" standalone="no"?><svg xmlns="http://www.w3.org/2000/svg" xmlns:xlink="http://www.w3.org/1999/xlink" contentStyleType="text/css" height="202px" preserveAspectRatio="none" style="width:374px;height:202px;background:#FFFFFF;" version="1.1" viewBox="0 0 374 202" width="374px" zoomAndPan="magnify"><defs/><g><!--class slettAvskrivning--><g id="elem_slettAvskrivning"><rect codeLine="2" fill="#F1F1F1" height="80.9766" id="slettAvskrivning" rx="2.5" ry="2.5" style="stroke:#181818;stroke-width:0.5;" width="360" x="7" y="7"/><ellipse cx="128.25" cy="23" fill="#ADD1B2" rx="11" ry="11" style="stroke:#181818;stroke-width:1.0;"/><path d="M130.7231,29.1431 Q130.1421,29.4419 129.5029,29.5913 Q128.8638,29.7407 128.1582,29.7407 Q125.6514,29.7407 124.3315,28.0889 Q123.0117,26.437 123.0117,23.3159 Q123.0117,20.1865 124.3315,18.5347 Q125.6514,16.8828 128.1582,16.8828 Q128.8638,16.8828 129.5112,17.0322 Q130.1587,17.1816 130.7231,17.4805 L130.7231,20.2031 Q130.0923,19.6221 129.4988,19.3523 Q128.9053,19.0825 128.2744,19.0825 Q126.9297,19.0825 126.2449,20.1492 Q125.5601,21.2158 125.5601,23.3159 Q125.5601,25.4077 126.2449,26.4744 Q126.9297,27.541 128.2744,27.541 Q128.9053,27.541 129.4988,27.2712 Q130.0923,27.0015 130.7231,26.4204 Z " fill="#000000"/><text fill="#000000" font-family="sans-serif" font-size="14" lengthAdjust="spacing" textLength="109" x="148.75" y="28.291">slettAvskrivning</text><line style="stroke:#181818;stroke-width:0.5;" x1="8" x2="366" y1="39" y2="39"/><ellipse cx="18" cy="52.7441" fill="none" rx="3" ry="3" style="stroke:#038048;stroke-width:1.0;"/><text fill="#000000" font-family="sans-serif" font-size="14" lengthAdjust="spacing" textLength="334" x="27" y="56.5352">referanseTilJournalpost : referanseTilJournalpost</text><ellipse cx="18" cy="69.2324" fill="none" rx="3" ry="3" style="stroke:#038048;stroke-width:1.0;"/><text fill="#000000" font-family="sans-serif" font-size="14" lengthAdjust="spacing" textLength="206" x="27" y="73.0234">korrespondansepartID : string</text><line style="stroke:#181818;stroke-width:0.5;" x1="8" x2="366" y1="79.9766" y2="79.9766"/></g><!--class referanseTilJournalpost--><g id="elem_referanseTilJournalpost"><rect fill="#F1F1F1" height="48" id="referanseTilJournalpost" rx="2.5" ry="2.5" style="stroke:#181818;stroke-width:0.5;" width="193" x="90.5" y="147.98"/><ellipse cx="105.5" cy="163.98" fill="#ADD1B2" rx="11" ry="11" style="stroke:#181818;stroke-width:1.0;"/><path d="M107.9731,170.1231 Q107.3921,170.4219 106.7529,170.5713 Q106.1138,170.7207 105.4082,170.7207 Q102.9014,170.7207 101.5815,169.0689 Q100.2617,167.417 100.2617,164.2959 Q100.2617,161.1665 101.5815,159.5147 Q102.9014,157.8628 105.4082,157.8628 Q106.1138,157.8628 106.7612,158.0122 Q107.4087,158.1616 107.9731,158.4605 L107.9731,161.1831 Q107.3423,160.6021 106.7488,160.3323 Q106.1553,160.0625 105.5244,160.0625 Q104.1797,160.0625 103.4949,161.1292 Q102.8101,162.1958 102.8101,164.2959 Q102.8101,166.3877 103.4949,167.4544 Q104.1797,168.521 105.5244,168.521 Q106.1553,168.521 106.7488,168.2512 Q107.3423,167.9815 107.9731,167.4004 Z " fill="#000000"/><text fill="#000000" font-family="sans-serif" font-size="14" lengthAdjust="spacing" textLength="161" x="119.5" y="169.271">referanseTilJournalpost</text><line style="stroke:#181818;stroke-width:0.5;" x1="91.5" x2="282.5" y1="179.98" y2="179.98"/><line style="stroke:#181818;stroke-width:0.5;" x1="91.5" x2="282.5" y1="187.98" y2="187.98"/></g><!--link slettAvskrivning to referanseTilJournalpost--><g id="link_slettAvskrivning_referanseTilJournalpost"><path codeLine="6" d="M187,88.26 C187,107.96 187,131.05 187,147.83 " fill="none" id="slettAvskrivning-referanseTilJournalpost" style="stroke:#181818;stroke-width:1.0;"/></g><!--SRC=[Iyv9B2vMACv9BIbnB2lEBieioylCIrUevb800ksYrBJKeiIyujIGp1ol_DAYlCISWlpY4WKh1Hmo46tP-KL5gSK5-Naf81K5YKKbdYv0FSKbHK2pkMgvCApJrSLb8000]--></g></svg>