<?xml version="1.0" encoding="us-ascii" standalone="no"?><svg xmlns="http://www.w3.org/2000/svg" xmlns:xlink="http://www.w3.org/1999/xlink" contentStyleType="text/css" height="239px" preserveAspectRatio="none" style="width:958px;height:239px;background:#FFFFFF;" version="1.1" viewBox="0 0 958 239" width="958px" zoomAndPan="magnify"><defs/><g><rect fill="#F1F1F1" height="102.4414" rx="5" ry="5" style="stroke:#F1F1F1;stroke-width:1.5;" width="406" x="10" y="26.2793"/><text fill="#000000" font-family="sans-serif" font-size="14" font-weight="bold" lengthAdjust="spacing" textLength="101" x="15" y="41.8145">protokollnavn</text><text fill="#000000" font-family="sans-serif" font-size="14" lengthAdjust="spacing" textLength="102" x="126" y="41.8145">no.ks.fiks.arkiv</text><line style="stroke:#000000;stroke-width:1.0;" x1="121" x2="121" y1="26.2793" y2="46.7676"/><line style="stroke:#000000;stroke-width:1.0;" x1="10" x2="416" y1="46.7676" y2="46.7676"/><text fill="#000000" font-family="sans-serif" font-size="14" font-weight="bold" lengthAdjust="spacing" textLength="34" x="15" y="62.3027">navn</text><text fill="#000000" font-family="sans-serif" font-size="14" lengthAdjust="spacing" textLength="126" x="126" y="62.3027">dokumentmedium</text><line style="stroke:#000000;stroke-width:1.0;" x1="121" x2="121" y1="46.7676" y2="67.2559"/><line style="stroke:#000000;stroke-width:1.0;" x1="10" x2="416" y1="67.2559" y2="67.2559"/><text fill="#000000" font-family="sans-serif" font-size="14" font-weight="bold" lengthAdjust="spacing" textLength="53" x="15" y="82.791">versjon</text><text fill="#000000" font-family="sans-serif" font-size="14" lengthAdjust="spacing" textLength="16" x="126" y="82.791">v1</text><line style="stroke:#000000;stroke-width:1.0;" x1="121" x2="121" y1="67.2559" y2="87.7441"/><line style="stroke:#000000;stroke-width:1.0;" x1="10" x2="416" y1="87.7441" y2="87.7441"/><text fill="#000000" font-family="sans-serif" font-size="14" font-weight="bold" lengthAdjust="spacing" textLength="73" x="15" y="103.2793">definisjon</text><text fill="#000000" font-family="sans-serif" font-size="14" lengthAdjust="spacing" textLength="285" x="126" y="103.2793">Navn p&#229; hvilken type objekt som er slettet</text><line style="stroke:#000000;stroke-width:1.0;" x1="121" x2="121" y1="87.7441" y2="108.2324"/><line style="stroke:#000000;stroke-width:1.0;" x1="10" x2="416" y1="108.2324" y2="108.2324"/><text fill="#000000" font-family="sans-serif" font-size="14" font-weight="bold" lengthAdjust="spacing" textLength="67" x="15" y="123.7676">kodeliste</text><text fill="#000000" font-family="sans-serif" font-size="14" lengthAdjust="spacing" textLength="12" x="126" y="123.7676">&#160;&#160;&#160;</text><line style="stroke:#000000;stroke-width:1.0;" x1="121" x2="121" y1="108.2324" y2="128.7207"/><rect fill="none" height="102.4414" rx="5" ry="5" style="stroke:#000000;stroke-width:1.5;" width="406" x="10" y="26.2793"/><rect fill="#F1F1F1" height="81.9531" rx="5" ry="5" style="stroke:#F1F1F1;stroke-width:1.5;" width="22" x="453" y="77.5"/><text fill="#000000" font-family="sans-serif" font-size="14" lengthAdjust="spacing" textLength="12" x="458" y="93.0352">&#160;&#160;&#160;</text><line style="stroke:#000000;stroke-width:1.0;" x1="453" x2="475" y1="97.9883" y2="97.9883"/><text fill="#000000" font-family="sans-serif" font-size="14" lengthAdjust="spacing" textLength="12" x="458" y="113.5234">&#160;&#160;&#160;</text><line style="stroke:#000000;stroke-width:1.0;" x1="453" x2="475" y1="118.4766" y2="118.4766"/><text fill="#000000" font-family="sans-serif" font-size="14" lengthAdjust="spacing" textLength="12" x="458" y="134.0117">&#160;&#160;&#160;</text><line style="stroke:#000000;stroke-width:1.0;" x1="453" x2="475" y1="138.9648" y2="138.9648"/><text fill="#000000" font-family="sans-serif" font-size="14" lengthAdjust="spacing" textLength="12" x="458" y="154.5">&#160;&#160;&#160;</text><rect fill="none" height="81.9531" rx="5" ry="5" style="stroke:#000000;stroke-width:1.5;" width="22" x="453" y="77.5"/><rect fill="#F1F1F1" height="40.9766" rx="5" ry="5" style="stroke:#F1F1F1;stroke-width:1.5;" width="344" x="557" y="10"/><text fill="#000000" font-family="sans-serif" font-size="14" font-weight="bold" lengthAdjust="spacing" textLength="71" x="562" y="25.5352">kodeverdi</text><text fill="#000000" font-family="sans-serif" font-size="14" lengthAdjust="spacing" textLength="16" x="689" y="25.5352">SP</text><line style="stroke:#000000;stroke-width:1.0;" x1="684" x2="684" y1="10" y2="30.4883"/><line style="stroke:#000000;stroke-width:1.0;" x1="557" x2="901" y1="30.4883" y2="30.4883"/><text fill="#000000" font-family="sans-serif" font-size="14" font-weight="bold" lengthAdjust="spacing" textLength="117" x="562" y="46.0234">kodebeskrivelse</text><text fill="#000000" font-family="sans-serif" font-size="14" lengthAdjust="spacing" textLength="207" x="689" y="46.0234">Sletting av produksjonsformat</text><line style="stroke:#000000;stroke-width:1.0;" x1="684" x2="684" y1="30.4883" y2="50.9766"/><rect fill="none" height="40.9766" rx="5" ry="5" style="stroke:#000000;stroke-width:1.5;" width="344" x="557" y="10"/><rect fill="#F1F1F1" height="40.9766" rx="5" ry="5" style="stroke:#F1F1F1;stroke-width:1.5;" width="323" x="567.5" y="69"/><text fill="#000000" font-family="sans-serif" font-size="14" font-weight="bold" lengthAdjust="spacing" textLength="71" x="572.5" y="84.5352">kodeverdi</text><text fill="#000000" font-family="sans-serif" font-size="14" lengthAdjust="spacing" textLength="17" x="699.5" y="84.5352">SV</text><line style="stroke:#000000;stroke-width:1.0;" x1="694.5" x2="694.5" y1="69" y2="89.4883"/><line style="stroke:#000000;stroke-width:1.0;" x1="567.5" x2="890.5" y1="89.4883" y2="89.4883"/><text fill="#000000" font-family="sans-serif" font-size="14" font-weight="bold" lengthAdjust="spacing" textLength="117" x="572.5" y="105.0234">kodebeskrivelse</text><text fill="#000000" font-family="sans-serif" font-size="14" lengthAdjust="spacing" textLength="186" x="699.5" y="105.0234">Sletting av tidligere versjon</text><line style="stroke:#000000;stroke-width:1.0;" x1="694.5" x2="694.5" y1="89.4883" y2="109.9766"/><rect fill="none" height="40.9766" rx="5" ry="5" style="stroke:#000000;stroke-width:1.5;" width="323" x="567.5" y="69"/><rect fill="#F1F1F1" height="40.9766" rx="5" ry="5" style="stroke:#F1F1F1;stroke-width:1.5;" width="434" x="512" y="128"/><text fill="#000000" font-family="sans-serif" font-size="14" font-weight="bold" lengthAdjust="spacing" textLength="71" x="517" y="143.5352">kodeverdi</text><text fill="#000000" font-family="sans-serif" font-size="14" lengthAdjust="spacing" textLength="16" x="644" y="143.5352">SS</text><line style="stroke:#000000;stroke-width:1.0;" x1="639" x2="639" y1="128" y2="148.4883"/><line style="stroke:#000000;stroke-width:1.0;" x1="512" x2="946" y1="148.4883" y2="148.4883"/><text fill="#000000" font-family="sans-serif" font-size="14" font-weight="bold" lengthAdjust="spacing" textLength="117" x="517" y="164.0234">kodebeskrivelse</text><text fill="#000000" font-family="sans-serif" font-size="14" lengthAdjust="spacing" textLength="297" x="644" y="164.0234">Sletting av variant med sladdet informasjon</text><line style="stroke:#000000;stroke-width:1.0;" x1="639" x2="639" y1="148.4883" y2="168.9766"/><rect fill="none" height="40.9766" rx="5" ry="5" style="stroke:#000000;stroke-width:1.5;" width="434" x="512" y="128"/><rect fill="#F1F1F1" height="40.9766" rx="5" ry="5" style="stroke:#F1F1F1;stroke-width:1.5;" width="394" x="532" y="187"/><text fill="#000000" font-family="sans-serif" font-size="14" font-weight="bold" lengthAdjust="spacing" textLength="71" x="537" y="202.5352">kodeverdi</text><text fill="#000000" font-family="sans-serif" font-size="14" lengthAdjust="spacing" textLength="18" x="664" y="202.5352">SA</text><line style="stroke:#000000;stroke-width:1.0;" x1="659" x2="659" y1="187" y2="207.4883"/><line style="stroke:#000000;stroke-width:1.0;" x1="532" x2="926" y1="207.4883" y2="207.4883"/><text fill="#000000" font-family="sans-serif" font-size="14" font-weight="bold" lengthAdjust="spacing" textLength="117" x="537" y="223.0234">kodebeskrivelse</text><text fill="#000000" font-family="sans-serif" font-size="14" lengthAdjust="spacing" textLength="257" x="664" y="223.0234">Sletting av hele innholdet i arkivdelen</text><line style="stroke:#000000;stroke-width:1.0;" x1="659" x2="659" y1="207.4883" y2="227.9766"/><rect fill="none" height="40.9766" rx="5" ry="5" style="stroke:#000000;stroke-width:1.5;" width="394" x="532" y="187"/><path d="M463,87.5 L476,87.5 C496.2698,87.5 493.3075,67.3392 512,59.5 C524.098,54.4264 536.8798,50.1944 549.9396,46.6692 " fill="none" style="stroke:#000000;stroke-width:1.0;stroke-dasharray:3.0,3.0;"/><path d="M550.6942,49.5818 L552.124,46.1033 L549.185,43.7566 L557.2211,44.7827 L550.6942,49.5818 " fill="#000000" style="stroke:#000000;stroke-width:1.0;"/><ellipse cx="463" cy="87.5" fill="#000000" rx="3" ry="3" style="stroke:#000000;stroke-width:1.0;"/><path d="M463,108.5 L476,108.5 C503.2393,108.5 532.0851,107.3869 560.1639,105.6995 " fill="none" style="stroke:#000000;stroke-width:1.0;stroke-dasharray:3.0,3.0;"/><path d="M560.3502,108.7025 L562.4161,105.5598 L559.9776,102.6965 L567.6713,105.2338 L560.3502,108.7025 " fill="#000000" style="stroke:#000000;stroke-width:1.0;"/><ellipse cx="463" cy="108.5" fill="#000000" rx="3" ry="3" style="stroke:#000000;stroke-width:1.0;"/><path d="M463,128.5 L476,128.5 C485.3685,128.5 494.9265,128.6385 504.5775,128.8925 " fill="none" style="stroke:#000000;stroke-width:1.0;stroke-dasharray:3.0,3.0;"/><path d="M504.4863,131.9957 L506.9049,128.9609 L504.6687,125.7893 L512.3356,129.1205 L504.4863,131.9957 " fill="#000000" style="stroke:#000000;stroke-width:1.0;"/><ellipse cx="463" cy="128.5" fill="#000000" rx="3" ry="3" style="stroke:#000000;stroke-width:1.0;"/><path d="M463,149.5 L476,149.5 C496.5456,149.5 493.1216,170.3926 512,178.5 C517.0308,180.6605 522.1827,182.6695 527.4261,184.5373 " fill="none" style="stroke:#000000;stroke-width:1.0;stroke-dasharray:3.0,3.0;"/><path d="M526.4419,187.4189 L529.5873,185.2754 L528.4103,181.6557 L534.6301,186.9977 L526.4419,187.4189 " fill="#000000" style="stroke:#000000;stroke-width:1.0;"/><ellipse cx="463" cy="149.5" fill="#000000" rx="3" ry="3" style="stroke:#000000;stroke-width:1.0;"/><path d="M404,118.5 L417,118.5 C426.4213,118.5 436.9164,118.5 445.5483,118.5 " fill="none" style="stroke:#000000;stroke-width:1.0;stroke-dasharray:3.0,3.0;"/><path d="M445.5483,121.5437 L447.8311,118.5 L445.5483,115.4563 L453.1575,118.5 L445.5483,121.5437 " fill="#000000" style="stroke:#000000;stroke-width:1.0;"/><ellipse cx="404" cy="118.5" fill="#000000" rx="3" ry="3" style="stroke:#000000;stroke-width:1.0;"/><!--SRC=[ZLBBRjim4BppAnOw9K1Ys4vH63hbsG2EdHXLuakG0nskxRMefK5I18mWdzCloOzr9LVjhT1b3pixC_kw357xk0kErOS2oFRUHLSwQradpdB8s0tAC5YJ1ErBIjbPKzQXnfLrXHmhD5HNHooX3plNmcbqJ1bS4rENVHGoxBz-mJQHBP4X7lO8RhN3Ca9m5Q27O356Z4TwwGnQ2X65_Ie9W8ys_e74q506ebmiMi9VP8MXz9JG1ZpYZIhn1dG2cTJKPTDJM3jVwPYrpC-p_nei-nj4CfOsw16wZVGnAFeR9Er9SmHPlknB6uCHYDjXUjjTzRVReaNHvwsphHEq_o2NmSvAuflwL9V8flqejR3Ityjyrcw07CDeC1wEBmQJaw9ccEi3Z4Sm6kONatmuX9kxuXaQ_5ITt2zcyWgrVqSmSdbFgpgAmAcQwgJXPysHAipXQOyylNte4d37YRpZvYNLT3d_L_3zs_arHIZGIokmdAjRNElQHc6yEoCJvl3o_EDyecQQDxNUY3Qokd6YwmyvF3xz1W00]--></g></svg>