<?xml version="1.0" encoding="us-ascii" standalone="no"?><svg xmlns="http://www.w3.org/2000/svg" xmlns:xlink="http://www.w3.org/1999/xlink" contentStyleType="text/css" height="357px" preserveAspectRatio="none" style="width:1280px;height:357px;background:#FFFFFF;" version="1.1" viewBox="0 0 1280 357" width="1280px" zoomAndPan="magnify"><defs/><g><rect fill="#F1F1F1" height="102.4414" rx="5" ry="5" style="stroke:#F1F1F1;stroke-width:1.5;" width="785" x="10" y="85.2793"/><text fill="#000000" font-family="sans-serif" font-size="14" font-weight="bold" lengthAdjust="spacing" textLength="101" x="15" y="100.8145">protokollnavn</text><text fill="#000000" font-family="sans-serif" font-size="14" lengthAdjust="spacing" textLength="102" x="126" y="100.8145">no.ks.fiks.arkiv</text><line style="stroke:#000000;stroke-width:1.0;" x1="121" x2="121" y1="85.2793" y2="105.7676"/><line style="stroke:#000000;stroke-width:1.0;" x1="10" x2="795" y1="105.7676" y2="105.7676"/><text fill="#000000" font-family="sans-serif" font-size="14" font-weight="bold" lengthAdjust="spacing" textLength="34" x="15" y="121.3027">navn</text><text fill="#000000" font-family="sans-serif" font-size="14" lengthAdjust="spacing" textLength="32" x="126" y="121.3027">grad</text><line style="stroke:#000000;stroke-width:1.0;" x1="121" x2="121" y1="105.7676" y2="126.2559"/><line style="stroke:#000000;stroke-width:1.0;" x1="10" x2="795" y1="126.2559" y2="126.2559"/><text fill="#000000" font-family="sans-serif" font-size="14" font-weight="bold" lengthAdjust="spacing" textLength="53" x="15" y="141.791">versjon</text><text fill="#000000" font-family="sans-serif" font-size="14" lengthAdjust="spacing" textLength="16" x="126" y="141.791">v1</text><line style="stroke:#000000;stroke-width:1.0;" x1="121" x2="121" y1="126.2559" y2="146.7441"/><line style="stroke:#000000;stroke-width:1.0;" x1="10" x2="795" y1="146.7441" y2="146.7441"/><text fill="#000000" font-family="sans-serif" font-size="14" font-weight="bold" lengthAdjust="spacing" textLength="73" x="15" y="162.2793">definisjon</text><text fill="#000000" font-family="sans-serif" font-size="14" lengthAdjust="spacing" textLength="664" x="126" y="162.2793">Angivelse av at dokumentene er gradert i henhold til sikkerhetsloven eller beskyttelsesinstruksen</text><line style="stroke:#000000;stroke-width:1.0;" x1="121" x2="121" y1="146.7441" y2="167.2324"/><line style="stroke:#000000;stroke-width:1.0;" x1="10" x2="795" y1="167.2324" y2="167.2324"/><text fill="#000000" font-family="sans-serif" font-size="14" font-weight="bold" lengthAdjust="spacing" textLength="67" x="15" y="182.7676">kodeliste</text><text fill="#000000" font-family="sans-serif" font-size="14" lengthAdjust="spacing" textLength="12" x="126" y="182.7676">&#160;&#160;&#160;</text><line style="stroke:#000000;stroke-width:1.0;" x1="121" x2="121" y1="167.2324" y2="187.7207"/><rect fill="none" height="102.4414" rx="5" ry="5" style="stroke:#000000;stroke-width:1.5;" width="785" x="10" y="85.2793"/><rect fill="#F1F1F1" height="122.9297" rx="5" ry="5" style="stroke:#F1F1F1;stroke-width:1.5;" width="22" x="832" y="116"/><text fill="#000000" font-family="sans-serif" font-size="14" lengthAdjust="spacing" textLength="12" x="837" y="131.5352">&#160;&#160;&#160;</text><line style="stroke:#000000;stroke-width:1.0;" x1="832" x2="854" y1="136.4883" y2="136.4883"/><text fill="#000000" font-family="sans-serif" font-size="14" lengthAdjust="spacing" textLength="12" x="837" y="152.0234">&#160;&#160;&#160;</text><line style="stroke:#000000;stroke-width:1.0;" x1="832" x2="854" y1="156.9766" y2="156.9766"/><text fill="#000000" font-family="sans-serif" font-size="14" lengthAdjust="spacing" textLength="12" x="837" y="172.5117">&#160;&#160;&#160;</text><line style="stroke:#000000;stroke-width:1.0;" x1="832" x2="854" y1="177.4648" y2="177.4648"/><text fill="#000000" font-family="sans-serif" font-size="14" lengthAdjust="spacing" textLength="12" x="837" y="193">&#160;&#160;&#160;</text><line style="stroke:#000000;stroke-width:1.0;" x1="832" x2="854" y1="197.9531" y2="197.9531"/><text fill="#000000" font-family="sans-serif" font-size="14" lengthAdjust="spacing" textLength="12" x="837" y="213.4883">&#160;&#160;&#160;</text><line style="stroke:#000000;stroke-width:1.0;" x1="832" x2="854" y1="218.4414" y2="218.4414"/><text fill="#000000" font-family="sans-serif" font-size="14" lengthAdjust="spacing" textLength="12" x="837" y="233.9766">&#160;&#160;&#160;</text><rect fill="none" height="122.9297" rx="5" ry="5" style="stroke:#000000;stroke-width:1.5;" width="22" x="832" y="116"/><rect fill="#F1F1F1" height="40.9766" rx="5" ry="5" style="stroke:#F1F1F1;stroke-width:1.5;" width="375" x="892" y="10"/><text fill="#000000" font-family="sans-serif" font-size="14" font-weight="bold" lengthAdjust="spacing" textLength="71" x="897" y="25.5352">kodeverdi</text><text fill="#000000" font-family="sans-serif" font-size="14" lengthAdjust="spacing" textLength="18" x="1024" y="25.5352">SH</text><line style="stroke:#000000;stroke-width:1.0;" x1="1019" x2="1019" y1="10" y2="30.4883"/><line style="stroke:#000000;stroke-width:1.0;" x1="892" x2="1267" y1="30.4883" y2="30.4883"/><text fill="#000000" font-family="sans-serif" font-size="14" font-weight="bold" lengthAdjust="spacing" textLength="117" x="897" y="46.0234">kodebeskrivelse</text><text fill="#000000" font-family="sans-serif" font-size="14" lengthAdjust="spacing" textLength="238" x="1024" y="46.0234">Strengt hemmelig (sikkerhetsgrad)</text><line style="stroke:#000000;stroke-width:1.0;" x1="1019" x2="1019" y1="30.4883" y2="50.9766"/><rect fill="none" height="40.9766" rx="5" ry="5" style="stroke:#000000;stroke-width:1.5;" width="375" x="892" y="10"/><rect fill="#F1F1F1" height="40.9766" rx="5" ry="5" style="stroke:#F1F1F1;stroke-width:1.5;" width="322" x="918.5" y="69"/><text fill="#000000" font-family="sans-serif" font-size="14" font-weight="bold" lengthAdjust="spacing" textLength="71" x="923.5" y="84.5352">kodeverdi</text><text fill="#000000" font-family="sans-serif" font-size="14" lengthAdjust="spacing" textLength="10" x="1050.5" y="84.5352">H</text><line style="stroke:#000000;stroke-width:1.0;" x1="1045.5" x2="1045.5" y1="69" y2="89.4883"/><line style="stroke:#000000;stroke-width:1.0;" x1="918.5" x2="1240.5" y1="89.4883" y2="89.4883"/><text fill="#000000" font-family="sans-serif" font-size="14" font-weight="bold" lengthAdjust="spacing" textLength="117" x="923.5" y="105.0234">kodebeskrivelse</text><text fill="#000000" font-family="sans-serif" font-size="14" lengthAdjust="spacing" textLength="185" x="1050.5" y="105.0234">Hemmelig (sikkerhetsgrad)</text><line style="stroke:#000000;stroke-width:1.0;" x1="1045.5" x2="1045.5" y1="89.4883" y2="109.9766"/><rect fill="none" height="40.9766" rx="5" ry="5" style="stroke:#000000;stroke-width:1.5;" width="322" x="918.5" y="69"/><rect fill="#F1F1F1" height="40.9766" rx="5" ry="5" style="stroke:#F1F1F1;stroke-width:1.5;" width="343" x="908" y="128"/><text fill="#000000" font-family="sans-serif" font-size="14" font-weight="bold" lengthAdjust="spacing" textLength="71" x="913" y="143.5352">kodeverdi</text><text fill="#000000" font-family="sans-serif" font-size="14" lengthAdjust="spacing" textLength="9" x="1040" y="143.5352">K</text><line style="stroke:#000000;stroke-width:1.0;" x1="1035" x2="1035" y1="128" y2="148.4883"/><line style="stroke:#000000;stroke-width:1.0;" x1="908" x2="1251" y1="148.4883" y2="148.4883"/><text fill="#000000" font-family="sans-serif" font-size="14" font-weight="bold" lengthAdjust="spacing" textLength="117" x="913" y="164.0234">kodebeskrivelse</text><text fill="#000000" font-family="sans-serif" font-size="14" lengthAdjust="spacing" textLength="206" x="1040" y="164.0234">Konfidensielt (sikkerhetsgrad)</text><line style="stroke:#000000;stroke-width:1.0;" x1="1035" x2="1035" y1="148.4883" y2="168.9766"/><rect fill="none" height="40.9766" rx="5" ry="5" style="stroke:#000000;stroke-width:1.5;" width="343" x="908" y="128"/><rect fill="#F1F1F1" height="40.9766" rx="5" ry="5" style="stroke:#F1F1F1;stroke-width:1.5;" width="321" x="919" y="187"/><text fill="#000000" font-family="sans-serif" font-size="14" font-weight="bold" lengthAdjust="spacing" textLength="71" x="924" y="202.5352">kodeverdi</text><text fill="#000000" font-family="sans-serif" font-size="14" lengthAdjust="spacing" textLength="8" x="1051" y="202.5352">B</text><line style="stroke:#000000;stroke-width:1.0;" x1="1046" x2="1046" y1="187" y2="207.4883"/><line style="stroke:#000000;stroke-width:1.0;" x1="919" x2="1240" y1="207.4883" y2="207.4883"/><text fill="#000000" font-family="sans-serif" font-size="14" font-weight="bold" lengthAdjust="spacing" textLength="117" x="924" y="223.0234">kodebeskrivelse</text><text fill="#000000" font-family="sans-serif" font-size="14" lengthAdjust="spacing" textLength="184" x="1051" y="223.0234">Begrenset (sikkerhetsgrad)</text><line style="stroke:#000000;stroke-width:1.0;" x1="1046" x2="1046" y1="207.4883" y2="227.9766"/><rect fill="none" height="40.9766" rx="5" ry="5" style="stroke:#000000;stroke-width:1.5;" width="321" x="919" y="187"/><rect fill="#F1F1F1" height="40.9766" rx="5" ry="5" style="stroke:#F1F1F1;stroke-width:1.5;" width="326" x="916.5" y="246"/><text fill="#000000" font-family="sans-serif" font-size="14" font-weight="bold" lengthAdjust="spacing" textLength="71" x="921.5" y="261.5352">kodeverdi</text><text fill="#000000" font-family="sans-serif" font-size="14" lengthAdjust="spacing" textLength="8" x="1048.5" y="261.5352">F</text><line style="stroke:#000000;stroke-width:1.0;" x1="1043.5" x2="1043.5" y1="246" y2="266.4883"/><line style="stroke:#000000;stroke-width:1.0;" x1="916.5" x2="1242.5" y1="266.4883" y2="266.4883"/><text fill="#000000" font-family="sans-serif" font-size="14" font-weight="bold" lengthAdjust="spacing" textLength="117" x="921.5" y="282.0234">kodebeskrivelse</text><text fill="#000000" font-family="sans-serif" font-size="14" lengthAdjust="spacing" textLength="189" x="1048.5" y="282.0234">Fortrolig (beskyttelsesgrad)</text><line style="stroke:#000000;stroke-width:1.0;" x1="1043.5" x2="1043.5" y1="266.4883" y2="286.9766"/><rect fill="none" height="40.9766" rx="5" ry="5" style="stroke:#000000;stroke-width:1.5;" width="326" x="916.5" y="246"/><rect fill="#F1F1F1" height="40.9766" rx="5" ry="5" style="stroke:#F1F1F1;stroke-width:1.5;" width="377" x="891" y="305"/><text fill="#000000" font-family="sans-serif" font-size="14" font-weight="bold" lengthAdjust="spacing" textLength="71" x="896" y="320.5352">kodeverdi</text><text fill="#000000" font-family="sans-serif" font-size="14" lengthAdjust="spacing" textLength="16" x="1023" y="320.5352">SF</text><line style="stroke:#000000;stroke-width:1.0;" x1="1018" x2="1018" y1="305" y2="325.4883"/><line style="stroke:#000000;stroke-width:1.0;" x1="891" x2="1268" y1="325.4883" y2="325.4883"/><text fill="#000000" font-family="sans-serif" font-size="14" font-weight="bold" lengthAdjust="spacing" textLength="117" x="896" y="341.0234">kodebeskrivelse</text><text fill="#000000" font-family="sans-serif" font-size="14" lengthAdjust="spacing" textLength="240" x="1023" y="341.0234">Strengt fortrolig (beskyttelsesgrad)</text><line style="stroke:#000000;stroke-width:1.0;" x1="1018" x2="1018" y1="325.4883" y2="345.9766"/><rect fill="none" height="40.9766" rx="5" ry="5" style="stroke:#000000;stroke-width:1.5;" width="377" x="891" y="305"/><path d="M842,126.5 L855,126.5 C888.8041,126.5 863.3975,79.0145 891,59.5 C893.1573,57.9748 895.3634,56.5166 897.613,55.1228 " fill="none" style="stroke:#000000;stroke-width:1.0;stroke-dasharray:3.0,3.0;"/><path d="M899.2096,57.8727 L899.6755,53.9254 L896.0165,52.3729 L904.4877,51.1314 L899.2096,57.8727 " fill="#000000" style="stroke:#000000;stroke-width:1.0;"/><ellipse cx="842" cy="126.5" fill="#000000" rx="3" ry="3" style="stroke:#000000;stroke-width:1.0;"/><path d="M842,146.5 L855,146.5 C875.2698,146.5 872.3864,126.5248 891,118.5 C897.7098,115.6073 904.664,112.9979 911.7703,110.6446 " fill="none" style="stroke:#000000;stroke-width:1.0;stroke-dasharray:3.0,3.0;"/><path d="M912.6779,113.506 L913.9164,109.9639 L910.8627,107.7832 L918.9239,108.3756 L912.6779,113.506 " fill="#000000" style="stroke:#000000;stroke-width:1.0;"/><ellipse cx="842" cy="146.5" fill="#000000" rx="3" ry="3" style="stroke:#000000;stroke-width:1.0;"/><path d="M842,167.5 L855,167.5 C869.8415,167.5 885.2164,167.0808 900.6388,166.3668 " fill="none" style="stroke:#000000;stroke-width:1.0;stroke-dasharray:3.0,3.0;"/><path d="M900.7883,169.3959 L902.9106,166.2547 L900.4894,163.3378 L908.2115,165.9932 L900.7883,169.3959 " fill="#000000" style="stroke:#000000;stroke-width:1.0;"/><ellipse cx="842" cy="167.5" fill="#000000" rx="3" ry="3" style="stroke:#000000;stroke-width:1.0;"/><path d="M842,187.5 L855,187.5 C873.4405,187.5 892.7012,188.1808 911.8517,189.2911 " fill="none" style="stroke:#000000;stroke-width:1.0;stroke-dasharray:3.0,3.0;"/><path d="M911.666,192.3384 L914.1372,189.4304 L912.0374,186.2438 L919.47,189.7554 L911.666,192.3384 " fill="#000000" style="stroke:#000000;stroke-width:1.0;"/><ellipse cx="842" cy="187.5" fill="#000000" rx="3" ry="3" style="stroke:#000000;stroke-width:1.0;"/><path d="M842,208.5 L855,208.5 C875.5456,208.5 872.2032,229.2052 891,237.5 C896.972,240.1353 903.1425,242.5366 909.4452,244.7243 " fill="none" style="stroke:#000000;stroke-width:1.0;stroke-dasharray:3.0,3.0;"/><path d="M908.4568,247.7065 L911.682,245.4656 L910.4337,241.742 L916.901,247.1954 L908.4568,247.7065 " fill="#000000" style="stroke:#000000;stroke-width:1.0;"/><ellipse cx="842" cy="208.5" fill="#000000" rx="3" ry="3" style="stroke:#000000;stroke-width:1.0;"/><path d="M842,228.5 L855,228.5 C889.1962,228.5 863.1381,276.6733 891,296.5 C893.1526,298.0318 895.3543,299.4962 897.5998,300.8959 " fill="none" style="stroke:#000000;stroke-width:1.0;stroke-dasharray:3.0,3.0;"/><path d="M895.9967,303.6411 L899.6588,302.0982 L899.2029,298.1506 L904.4629,304.9036 L895.9967,303.6411 " fill="#000000" style="stroke:#000000;stroke-width:1.0;"/><ellipse cx="842" cy="228.5" fill="#000000" rx="3" ry="3" style="stroke:#000000;stroke-width:1.0;"/><path d="M783,177.5 L796,177.5 C805.4213,177.5 815.9164,177.5 824.5483,177.5 " fill="none" style="stroke:#000000;stroke-width:1.0;stroke-dasharray:3.0,3.0;"/><path d="M824.5483,180.5437 L826.8311,177.5 L824.5483,174.4563 L832.1575,177.5 L824.5483,180.5437 " fill="#000000" style="stroke:#000000;stroke-width:1.0;"/><ellipse cx="783" cy="177.5" fill="#000000" rx="3" ry="3" style="stroke:#000000;stroke-width:1.0;"/><!--SRC=[fPDFJ-Cm4CNl_XIZd5e9ghQiLbLEK6WNzS-2Di05xS7WIJh47IDx4gb2V7USPBligI3sCeStuzzxyjYdGRINf-1OlIY0vDaxSQMpbdNDIGe9kq4P1Zd5edr9TNBKZEsxXTUcKshquScrOZtg98CvCUtLCoweHXiGT0rQmBYosY8BCW9wQ4Ze1GWso1jd3GXP25IMw3SemReQ6T3QEFk0eTo9DB107CHNPK3kJ4jdq58GZ9xtKG1uQUkVLenfA86O9xji3_pjD53V9Upwuf4BYN6ssqWieFSUfWdRJzhJhqU7J3xmkFmVzl8mU-au9uCS2AryoM1ws62AHRoXW5-3pm_3vywBT-tL_BljJ-Ep-UUsct_i4-jlzQfEaKtxJzIrrIotwnKqRvuSmsWm7evF1fDULZ6izGx68nWDqvD9EXp2-IoxWQRVLxqVroi8hlAF22Q-KKyFbKH0NorqhU5NnK9RJE7g6NbniTmBCEEQlEFcjwZ5tVfzuFktuoa9PEXZ5BXRgmlCTHNNFUD7PuYB56vlviSJjT9SLBg8R6HrxYBNxrBuUVK6]--></g></svg>