<?xml version="1.0" encoding="us-ascii" standalone="no"?><svg xmlns="http://www.w3.org/2000/svg" xmlns:xlink="http://www.w3.org/1999/xlink" contentStyleType="text/css" height="416px" preserveAspectRatio="none" style="width:705px;height:416px;background:#FFFFFF;" version="1.1" viewBox="0 0 705 416" width="705px" zoomAndPan="magnify"><defs/><g><rect fill="#F1F1F1" height="102.4414" rx="5" ry="5" style="stroke:#F1F1F1;stroke-width:1.5;" width="262" x="10" y="115.2793"/><text fill="#000000" font-family="sans-serif" font-size="14" font-weight="bold" lengthAdjust="spacing" textLength="101" x="15" y="130.8145">protokollnavn</text><text fill="#000000" font-family="sans-serif" font-size="14" lengthAdjust="spacing" textLength="102" x="126" y="130.8145">no.ks.fiks.arkiv</text><line style="stroke:#000000;stroke-width:1.0;" x1="121" x2="121" y1="115.2793" y2="135.7676"/><line style="stroke:#000000;stroke-width:1.0;" x1="10" x2="272" y1="135.7676" y2="135.7676"/><text fill="#000000" font-family="sans-serif" font-size="14" font-weight="bold" lengthAdjust="spacing" textLength="34" x="15" y="151.3027">navn</text><text fill="#000000" font-family="sans-serif" font-size="14" lengthAdjust="spacing" textLength="46" x="126" y="151.3027">format</text><line style="stroke:#000000;stroke-width:1.0;" x1="121" x2="121" y1="135.7676" y2="156.2559"/><line style="stroke:#000000;stroke-width:1.0;" x1="10" x2="272" y1="156.2559" y2="156.2559"/><text fill="#000000" font-family="sans-serif" font-size="14" font-weight="bold" lengthAdjust="spacing" textLength="53" x="15" y="171.791">versjon</text><text fill="#000000" font-family="sans-serif" font-size="14" lengthAdjust="spacing" textLength="16" x="126" y="171.791">v1</text><line style="stroke:#000000;stroke-width:1.0;" x1="121" x2="121" y1="156.2559" y2="176.7441"/><line style="stroke:#000000;stroke-width:1.0;" x1="10" x2="272" y1="176.7441" y2="176.7441"/><text fill="#000000" font-family="sans-serif" font-size="14" font-weight="bold" lengthAdjust="spacing" textLength="73" x="15" y="192.2793">definisjon</text><text fill="#000000" font-family="sans-serif" font-size="14" lengthAdjust="spacing" textLength="141" x="126" y="192.2793">Dokumentets format</text><line style="stroke:#000000;stroke-width:1.0;" x1="121" x2="121" y1="176.7441" y2="197.2324"/><line style="stroke:#000000;stroke-width:1.0;" x1="10" x2="272" y1="197.2324" y2="197.2324"/><text fill="#000000" font-family="sans-serif" font-size="14" font-weight="bold" lengthAdjust="spacing" textLength="67" x="15" y="212.7676">kodeliste</text><text fill="#000000" font-family="sans-serif" font-size="14" lengthAdjust="spacing" textLength="12" x="126" y="212.7676">&#160;&#160;&#160;</text><line style="stroke:#000000;stroke-width:1.0;" x1="121" x2="121" y1="197.2324" y2="217.7207"/><rect fill="none" height="102.4414" rx="5" ry="5" style="stroke:#000000;stroke-width:1.5;" width="262" x="10" y="115.2793"/><rect fill="#F1F1F1" height="143.418" rx="5" ry="5" style="stroke:#F1F1F1;stroke-width:1.5;" width="22" x="309" y="135.791"/><text fill="#000000" font-family="sans-serif" font-size="14" lengthAdjust="spacing" textLength="12" x="314" y="151.3262">&#160;&#160;&#160;</text><line style="stroke:#000000;stroke-width:1.0;" x1="309" x2="331" y1="156.2793" y2="156.2793"/><text fill="#000000" font-family="sans-serif" font-size="14" lengthAdjust="spacing" textLength="12" x="314" y="171.8145">&#160;&#160;&#160;</text><line style="stroke:#000000;stroke-width:1.0;" x1="309" x2="331" y1="176.7676" y2="176.7676"/><text fill="#000000" font-family="sans-serif" font-size="14" lengthAdjust="spacing" textLength="12" x="314" y="192.3027">&#160;&#160;&#160;</text><line style="stroke:#000000;stroke-width:1.0;" x1="309" x2="331" y1="197.2559" y2="197.2559"/><text fill="#000000" font-family="sans-serif" font-size="14" lengthAdjust="spacing" textLength="12" x="314" y="212.791">&#160;&#160;&#160;</text><line style="stroke:#000000;stroke-width:1.0;" x1="309" x2="331" y1="217.7441" y2="217.7441"/><text fill="#000000" font-family="sans-serif" font-size="14" lengthAdjust="spacing" textLength="12" x="314" y="233.2793">&#160;&#160;&#160;</text><line style="stroke:#000000;stroke-width:1.0;" x1="309" x2="331" y1="238.2324" y2="238.2324"/><text fill="#000000" font-family="sans-serif" font-size="14" lengthAdjust="spacing" textLength="12" x="314" y="253.7676">&#160;&#160;&#160;</text><line style="stroke:#000000;stroke-width:1.0;" x1="309" x2="331" y1="258.7207" y2="258.7207"/><text fill="#000000" font-family="sans-serif" font-size="14" lengthAdjust="spacing" textLength="12" x="314" y="274.2559">&#160;&#160;&#160;</text><rect fill="none" height="143.418" rx="5" ry="5" style="stroke:#000000;stroke-width:1.5;" width="22" x="309" y="135.791"/><rect fill="#F1F1F1" height="40.9766" rx="5" ry="5" style="stroke:#F1F1F1;stroke-width:1.5;" width="207" x="427" y="10"/><text fill="#000000" font-family="sans-serif" font-size="14" font-weight="bold" lengthAdjust="spacing" textLength="71" x="432" y="25.5352">kodeverdi</text><text fill="#000000" font-family="sans-serif" font-size="14" lengthAdjust="spacing" textLength="70" x="559" y="25.5352">RA-TEKST</text><line style="stroke:#000000;stroke-width:1.0;" x1="554" x2="554" y1="10" y2="30.4883"/><line style="stroke:#000000;stroke-width:1.0;" x1="427" x2="634" y1="30.4883" y2="30.4883"/><text fill="#000000" font-family="sans-serif" font-size="14" font-weight="bold" lengthAdjust="spacing" textLength="117" x="432" y="46.0234">kodebeskrivelse</text><text fill="#000000" font-family="sans-serif" font-size="14" lengthAdjust="spacing" textLength="63" x="559" y="46.0234">Ren tekst</text><line style="stroke:#000000;stroke-width:1.0;" x1="554" x2="554" y1="30.4883" y2="50.9766"/><rect fill="none" height="40.9766" rx="5" ry="5" style="stroke:#000000;stroke-width:1.5;" width="207" x="427" y="10"/><rect fill="#F1F1F1" height="40.9766" rx="5" ry="5" style="stroke:#F1F1F1;stroke-width:1.5;" width="233" x="414" y="69"/><text fill="#000000" font-family="sans-serif" font-size="14" font-weight="bold" lengthAdjust="spacing" textLength="71" x="419" y="84.5352">kodeverdi</text><text fill="#000000" font-family="sans-serif" font-size="14" lengthAdjust="spacing" textLength="65" x="546" y="84.5352">RA-TIFF6</text><line style="stroke:#000000;stroke-width:1.0;" x1="541" x2="541" y1="69" y2="89.4883"/><line style="stroke:#000000;stroke-width:1.0;" x1="414" x2="647" y1="89.4883" y2="89.4883"/><text fill="#000000" font-family="sans-serif" font-size="14" font-weight="bold" lengthAdjust="spacing" textLength="117" x="419" y="105.0234">kodebeskrivelse</text><text fill="#000000" font-family="sans-serif" font-size="14" lengthAdjust="spacing" textLength="96" x="546" y="105.0234">TIFF versjon 6</text><line style="stroke:#000000;stroke-width:1.0;" x1="541" x2="541" y1="89.4883" y2="109.9766"/><rect fill="none" height="40.9766" rx="5" ry="5" style="stroke:#000000;stroke-width:1.5;" width="233" x="414" y="69"/><rect fill="#F1F1F1" height="40.9766" rx="5" ry="5" style="stroke:#F1F1F1;stroke-width:1.5;" width="325" x="368" y="128"/><text fill="#000000" font-family="sans-serif" font-size="14" font-weight="bold" lengthAdjust="spacing" textLength="71" x="373" y="143.5352">kodeverdi</text><text fill="#000000" font-family="sans-serif" font-size="14" lengthAdjust="spacing" textLength="53" x="500" y="143.5352">RA-PDF</text><line style="stroke:#000000;stroke-width:1.0;" x1="495" x2="495" y1="128" y2="148.4883"/><line style="stroke:#000000;stroke-width:1.0;" x1="368" x2="693" y1="148.4883" y2="148.4883"/><text fill="#000000" font-family="sans-serif" font-size="14" font-weight="bold" lengthAdjust="spacing" textLength="117" x="373" y="164.0234">kodebeskrivelse</text><text fill="#000000" font-family="sans-serif" font-size="14" lengthAdjust="spacing" textLength="188" x="500" y="164.0234">PDF/A - ISO 19005-1:2005</text><line style="stroke:#000000;stroke-width:1.0;" x1="495" x2="495" y1="148.4883" y2="168.9766"/><rect fill="none" height="40.9766" rx="5" ry="5" style="stroke:#000000;stroke-width:1.5;" width="325" x="368" y="128"/><rect fill="#F1F1F1" height="40.9766" rx="5" ry="5" style="stroke:#F1F1F1;stroke-width:1.5;" width="192" x="434.5" y="187"/><text fill="#000000" font-family="sans-serif" font-size="14" font-weight="bold" lengthAdjust="spacing" textLength="71" x="439.5" y="202.5352">kodeverdi</text><text fill="#000000" font-family="sans-serif" font-size="14" lengthAdjust="spacing" textLength="55" x="566.5" y="202.5352">RA-XML</text><line style="stroke:#000000;stroke-width:1.0;" x1="561.5" x2="561.5" y1="187" y2="207.4883"/><line style="stroke:#000000;stroke-width:1.0;" x1="434.5" x2="626.5" y1="207.4883" y2="207.4883"/><text fill="#000000" font-family="sans-serif" font-size="14" font-weight="bold" lengthAdjust="spacing" textLength="117" x="439.5" y="223.0234">kodebeskrivelse</text><text fill="#000000" font-family="sans-serif" font-size="14" lengthAdjust="spacing" textLength="28" x="566.5" y="223.0234">XML</text><line style="stroke:#000000;stroke-width:1.0;" x1="561.5" x2="561.5" y1="207.4883" y2="227.9766"/><rect fill="none" height="40.9766" rx="5" ry="5" style="stroke:#000000;stroke-width:1.5;" width="192" x="434.5" y="187"/><rect fill="#F1F1F1" height="40.9766" rx="5" ry="5" style="stroke:#F1F1F1;stroke-width:1.5;" width="186" x="437.5" y="246"/><text fill="#000000" font-family="sans-serif" font-size="14" font-weight="bold" lengthAdjust="spacing" textLength="71" x="442.5" y="261.5352">kodeverdi</text><text fill="#000000" font-family="sans-serif" font-size="14" lengthAdjust="spacing" textLength="49" x="569.5" y="261.5352">RA-JPG</text><line style="stroke:#000000;stroke-width:1.0;" x1="564.5" x2="564.5" y1="246" y2="266.4883"/><line style="stroke:#000000;stroke-width:1.0;" x1="437.5" x2="623.5" y1="266.4883" y2="266.4883"/><text fill="#000000" font-family="sans-serif" font-size="14" font-weight="bold" lengthAdjust="spacing" textLength="117" x="442.5" y="282.0234">kodebeskrivelse</text><text fill="#000000" font-family="sans-serif" font-size="14" lengthAdjust="spacing" textLength="22" x="569.5" y="282.0234">JPG</text><line style="stroke:#000000;stroke-width:1.0;" x1="564.5" x2="564.5" y1="266.4883" y2="286.9766"/><rect fill="none" height="40.9766" rx="5" ry="5" style="stroke:#000000;stroke-width:1.5;" width="186" x="437.5" y="246"/><rect fill="#F1F1F1" height="40.9766" rx="5" ry="5" style="stroke:#F1F1F1;stroke-width:1.5;" width="219" x="421" y="305"/><text fill="#000000" font-family="sans-serif" font-size="14" font-weight="bold" lengthAdjust="spacing" textLength="71" x="426" y="320.5352">kodeverdi</text><text fill="#000000" font-family="sans-serif" font-size="14" lengthAdjust="spacing" textLength="82" x="553" y="320.5352">RA-MPEG-2</text><line style="stroke:#000000;stroke-width:1.0;" x1="548" x2="548" y1="305" y2="325.4883"/><line style="stroke:#000000;stroke-width:1.0;" x1="421" x2="640" y1="325.4883" y2="325.4883"/><text fill="#000000" font-family="sans-serif" font-size="14" font-weight="bold" lengthAdjust="spacing" textLength="117" x="426" y="341.0234">kodebeskrivelse</text><text fill="#000000" font-family="sans-serif" font-size="14" lengthAdjust="spacing" textLength="55" x="553" y="341.0234">MPEG-2</text><line style="stroke:#000000;stroke-width:1.0;" x1="548" x2="548" y1="325.4883" y2="345.9766"/><rect fill="none" height="40.9766" rx="5" ry="5" style="stroke:#000000;stroke-width:1.5;" width="219" x="421" y="305"/><rect fill="#F1F1F1" height="40.9766" rx="5" ry="5" style="stroke:#F1F1F1;stroke-width:1.5;" width="193" x="434" y="364"/><text fill="#000000" font-family="sans-serif" font-size="14" font-weight="bold" lengthAdjust="spacing" textLength="71" x="439" y="379.5352">kodeverdi</text><text fill="#000000" font-family="sans-serif" font-size="14" lengthAdjust="spacing" textLength="56" x="566" y="379.5352">RA-MP3</text><line style="stroke:#000000;stroke-width:1.0;" x1="561" x2="561" y1="364" y2="384.4883"/><line style="stroke:#000000;stroke-width:1.0;" x1="434" x2="627" y1="384.4883" y2="384.4883"/><text fill="#000000" font-family="sans-serif" font-size="14" font-weight="bold" lengthAdjust="spacing" textLength="117" x="439" y="400.0234">kodebeskrivelse</text><text fill="#000000" font-family="sans-serif" font-size="14" lengthAdjust="spacing" textLength="29" x="566" y="400.0234">MP3</text><line style="stroke:#000000;stroke-width:1.0;" x1="561" x2="561" y1="384.4883" y2="404.9766"/><rect fill="none" height="40.9766" rx="5" ry="5" style="stroke:#000000;stroke-width:1.5;" width="193" x="434" y="364"/><path d="M319,146.5 L332,146.5 C373.8463,146.5 335.4036,85.7409 368,59.5 C382.9327,47.4789 401.1656,39.7669 419.9432,34.931 " fill="none" style="stroke:#000000;stroke-width:1.0;stroke-dasharray:3.0,3.0;"/><path d="M420.6541,37.9311 L422.1933,34.3979 L419.2324,31.931 L427.4434,33.1539 L420.6541,37.9311 " fill="#000000" style="stroke:#000000;stroke-width:1.0;"/><ellipse cx="319" cy="146.5" fill="#000000" rx="3" ry="3" style="stroke:#000000;stroke-width:1.0;"/><path d="M319,166.5 L332,166.5 C358.6667,166.5 345.297,132.4887 368,118.5 C380.0144,111.0972 393.423,105.4715 407.2405,101.2126 " fill="none" style="stroke:#000000;stroke-width:1.0;stroke-dasharray:3.0,3.0;"/><path d="M408.0824,104.1157 L409.4179,100.5812 L406.3986,98.3095 L414.4983,99.1079 L408.0824,104.1157 " fill="#000000" style="stroke:#000000;stroke-width:1.0;"/><ellipse cx="319" cy="166.5" fill="#000000" rx="3" ry="3" style="stroke:#000000;stroke-width:1.0;"/><path d="M319,187.5 L332,187.5 C348.4924,187.5 351.8839,182.0032 368,178.5 C380.5002,175.7828 393.577,173.0994 406.6475,170.5209 " fill="none" style="stroke:#000000;stroke-width:1.0;stroke-dasharray:3.0,3.0;"/><path d="M407.2497,173.5971 L408.9546,170.0692 L406.0453,167.4446 L414.338,169.0153 L407.2497,173.5971 " fill="#000000" style="stroke:#000000;stroke-width:1.0;"/><ellipse cx="319" cy="187.5" fill="#000000" rx="3" ry="3" style="stroke:#000000;stroke-width:1.0;"/><path d="M319,207.5 L332,207.5 C362.8972,207.5 396.5065,207.5 427.1145,207.5 " fill="none" style="stroke:#000000;stroke-width:1.0;stroke-dasharray:3.0,3.0;"/><path d="M427.1145,210.5854 L429.4286,207.5 L427.1145,204.4146 L434.8281,207.5 L427.1145,210.5854 " fill="#000000" style="stroke:#000000;stroke-width:1.0;"/><ellipse cx="319" cy="207.5" fill="#000000" rx="3" ry="3" style="stroke:#000000;stroke-width:1.0;"/><path d="M319,227.5 L332,227.5 C348.6058,227.5 351.8092,233.8107 368,237.5 C387.9729,242.0512 409.4648,246.3277 430.0583,250.1265 " fill="none" style="stroke:#000000;stroke-width:1.0;stroke-dasharray:3.0,3.0;"/><path d="M429.5073,253.1433 L432.3209,250.5397 L430.6094,247.1097 L437.6003,251.504 L429.5073,253.1433 " fill="#000000" style="stroke:#000000;stroke-width:1.0;"/><ellipse cx="319" cy="227.5" fill="#000000" rx="3" ry="3" style="stroke:#000000;stroke-width:1.0;"/><path d="M319,248.5 L332,248.5 C358.6667,248.5 345.297,282.5113 368,296.5 C381.9224,305.0784 397.717,311.2706 413.8506,315.7147 " fill="none" style="stroke:#000000;stroke-width:1.0;stroke-dasharray:3.0,3.0;"/><path d="M413.0822,318.6872 L416.08,316.2911 L414.6191,312.7423 L421.2818,317.6359 L413.0822,318.6872 " fill="#000000" style="stroke:#000000;stroke-width:1.0;"/><ellipse cx="319" cy="248.5" fill="#000000" rx="3" ry="3" style="stroke:#000000;stroke-width:1.0;"/><path d="M319,268.5 L332,268.5 C373.8463,268.5 335.4036,329.2591 368,355.5 C384.7236,368.9629 405.5866,377.021 426.7183,381.6873 " fill="none" style="stroke:#000000;stroke-width:1.0;stroke-dasharray:3.0,3.0;"/><path d="M426.1133,384.679 L428.9621,382.141 L427.3232,378.6955 L434.1976,383.1996 L426.1133,384.679 " fill="#000000" style="stroke:#000000;stroke-width:1.0;"/><ellipse cx="319" cy="268.5" fill="#000000" rx="3" ry="3" style="stroke:#000000;stroke-width:1.0;"/><path d="M260,207.5 L273,207.5 C282.4213,207.5 292.9164,207.5 301.5483,207.5 " fill="none" style="stroke:#000000;stroke-width:1.0;stroke-dasharray:3.0,3.0;"/><path d="M301.5483,210.5437 L303.8311,207.5 L301.5483,204.4563 L309.1575,207.5 L301.5483,210.5437 " fill="#000000" style="stroke:#000000;stroke-width:1.0;"/><ellipse cx="260" cy="207.5" fill="#000000" rx="3" ry="3" style="stroke:#000000;stroke-width:1.0;"/><!--SRC=[ZP9DIyD048Rl-ok6d2oOcgHQQavglx0sDfWgWdZODjEo9fsLtKr0nF_k9ctLKynb5jvvvc6NdIjjk39lMXBxP03Ekv96PZBFYPVaXE2Gx6Qwkn6sS9M9qZcji6Dt8zMEctrMej9lievBVn-bk14aZkb8PiKEoQ3Hy7SmaodcGXkqq8iD03xhUcXPRoeSi8A7QtSvlakMzTXFVuKwKwB4NEEUGWA3cJPEJNsT_gUydKpwpSeAWSFxeD_I6uycpLOBd5s32xV90lnBpxjm_J2mHql_SpHlzbT0EzKidZQhAg2TAeh7KpTejXsOjiBUVxRUGMNhA_jYLqXflT4ipZcPnsXU_vsmV-Tt0o_eTGSdIK4GyGy8VF2zi3S8FG-6usG9LR_3JgRn7BGir1eXjQkfnAemLj1XCrvoU2Z8Y1s6i7X7cetkZW6CgHHAKhNbRFOK_GBzS_T664XGsQl0KyH6kE55Rkp4MgQ2jY4yBYVkWCqvRGk-jMuaDfJMgpv2k5zy0m00]--></g></svg>