<?xml version="1.0" encoding="us-ascii" standalone="no"?><svg xmlns="http://www.w3.org/2000/svg" xmlns:xlink="http://www.w3.org/1999/xlink" contentStyleType="text/css" height="666px" preserveAspectRatio="none" style="width:511px;height:666px;background:#FFFFFF;" version="1.1" viewBox="0 0 511 666" width="511px" zoomAndPan="magnify"><defs/><g><text fill="#000000" font-family="sans-serif" font-size="14" font-weight="bold" lengthAdjust="spacing" textLength="397" x="56" y="28.5352">Eksempel p&#229; dialog mellom fagsystem og arkivsystem</text><text fill="#000000" font-family="sans-serif" font-size="14" font-weight="bold" lengthAdjust="spacing" textLength="305" x="102" y="45.0234">ved opprette ny journalpost p&#229; elevmappe</text><line style="stroke:#181818;stroke-width:0.5;stroke-dasharray:5.0,5.0;" x1="48" x2="48" y1="90.4648" y2="100.4648"/><line style="stroke:#A80036;stroke-width:1.0;stroke-dasharray:1.0,4.0;" x1="48" x2="48" y1="100.4648" y2="154.375"/><line style="stroke:#181818;stroke-width:0.5;stroke-dasharray:5.0,5.0;" x1="48" x2="48" y1="154.375" y2="183.6855"/><line style="stroke:#A80036;stroke-width:1.0;stroke-dasharray:1.0,4.0;" x1="48" x2="48" y1="183.6855" y2="237.5957"/><line style="stroke:#181818;stroke-width:0.5;stroke-dasharray:5.0,5.0;" x1="48" x2="48" y1="237.5957" y2="266.9063"/><line style="stroke:#A80036;stroke-width:1.0;stroke-dasharray:1.0,4.0;" x1="48" x2="48" y1="266.9063" y2="320.8164"/><line style="stroke:#181818;stroke-width:0.5;stroke-dasharray:5.0,5.0;" x1="48" x2="48" y1="320.8164" y2="350.127"/><line style="stroke:#A80036;stroke-width:1.0;stroke-dasharray:1.0,4.0;" x1="48" x2="48" y1="350.127" y2="404.0371"/><line style="stroke:#181818;stroke-width:0.5;stroke-dasharray:5.0,5.0;" x1="48" x2="48" y1="404.0371" y2="491.9688"/><line style="stroke:#A80036;stroke-width:1.0;stroke-dasharray:1.0,4.0;" x1="48" x2="48" y1="491.9688" y2="532.9238"/><line style="stroke:#181818;stroke-width:0.5;stroke-dasharray:5.0,5.0;" x1="48" x2="48" y1="532.9238" y2="630.8555"/><line style="stroke:#181818;stroke-width:0.5;stroke-dasharray:5.0,5.0;" x1="457" x2="457" y1="90.4648" y2="100.4648"/><line style="stroke:#A80036;stroke-width:1.0;stroke-dasharray:1.0,4.0;" x1="457" x2="457" y1="100.4648" y2="154.375"/><line style="stroke:#181818;stroke-width:0.5;stroke-dasharray:5.0,5.0;" x1="457" x2="457" y1="154.375" y2="183.6855"/><line style="stroke:#A80036;stroke-width:1.0;stroke-dasharray:1.0,4.0;" x1="457" x2="457" y1="183.6855" y2="237.5957"/><line style="stroke:#181818;stroke-width:0.5;stroke-dasharray:5.0,5.0;" x1="457" x2="457" y1="237.5957" y2="266.9063"/><line style="stroke:#A80036;stroke-width:1.0;stroke-dasharray:1.0,4.0;" x1="457" x2="457" y1="266.9063" y2="320.8164"/><line style="stroke:#181818;stroke-width:0.5;stroke-dasharray:5.0,5.0;" x1="457" x2="457" y1="320.8164" y2="350.127"/><line style="stroke:#A80036;stroke-width:1.0;stroke-dasharray:1.0,4.0;" x1="457" x2="457" y1="350.127" y2="404.0371"/><line style="stroke:#181818;stroke-width:0.5;stroke-dasharray:5.0,5.0;" x1="457" x2="457" y1="404.0371" y2="491.9688"/><line style="stroke:#A80036;stroke-width:1.0;stroke-dasharray:1.0,4.0;" x1="457" x2="457" y1="491.9688" y2="532.9238"/><line style="stroke:#181818;stroke-width:0.5;stroke-dasharray:5.0,5.0;" x1="457" x2="457" y1="532.9238" y2="630.8555"/><rect fill="#E2E2F0" height="30.4883" rx="2.5" ry="2.5" style="stroke:#181818;stroke-width:0.5;" width="86" x="5" y="58.9766"/><text fill="#000000" font-family="sans-serif" font-size="14" lengthAdjust="spacing" textLength="72" x="12" y="79.5117">Fagsystem</text><rect fill="#E2E2F0" height="30.4883" rx="2.5" ry="2.5" style="stroke:#181818;stroke-width:0.5;" width="86" x="5" y="629.8555"/><text fill="#000000" font-family="sans-serif" font-size="14" lengthAdjust="spacing" textLength="72" x="12" y="650.3906">Fagsystem</text><rect fill="#E2E2F0" height="30.4883" rx="2.5" ry="2.5" style="stroke:#181818;stroke-width:0.5;" width="96" x="409" y="58.9766"/><text fill="#000000" font-family="sans-serif" font-size="14" lengthAdjust="spacing" textLength="82" x="416" y="79.5117">Arkivsystem</text><rect fill="#E2E2F0" height="30.4883" rx="2.5" ry="2.5" style="stroke:#181818;stroke-width:0.5;" width="96" x="409" y="629.8555"/><text fill="#000000" font-family="sans-serif" font-size="14" lengthAdjust="spacing" textLength="82" x="416" y="650.3906">Arkivsystem</text><text fill="#000000" font-family="sans-serif" font-size="11" lengthAdjust="spacing" textLength="270" x="117.5" y="125.0996">Fagsystem fors&#248;ker hente elevmappe (saksmappe)</text><text fill="#000000" font-family="sans-serif" font-size="11" lengthAdjust="spacing" textLength="162" x="171.5" y="138.0547">for &#229; se om mappen eksisterer</text><polygon fill="#181818" points="445,171.6855,455,175.6855,445,179.6855,449,175.6855" style="stroke:#181818;stroke-width:1.0;"/><line style="stroke:#181818;stroke-width:1.0;" x1="48" x2="451" y1="175.6855" y2="175.6855"/><text fill="#000000" font-family="sans-serif" font-size="13" lengthAdjust="spacing" textLength="241" x="132" y="170.9434">no.ks.fiks.arkiv.v1.innsyn.mappe.hent</text><text fill="#000000" font-family="sans-serif" font-size="11" lengthAdjust="spacing" textLength="317" x="94" y="208.3203">Alternativ 1: Arkiv fant mappe og leverer tilbake saksmappe</text><text fill="#000000" font-family="sans-serif" font-size="11" lengthAdjust="spacing" textLength="155" x="175" y="221.2754">for eleven som ble etterspurt</text><polygon fill="#181818" points="59,254.9063,49,258.9063,59,262.9063,55,258.9063" style="stroke:#181818;stroke-width:1.0;"/><line style="stroke:#181818;stroke-width:1.0;" x1="53" x2="456" y1="258.9063" y2="258.9063"/><text fill="#000000" font-family="sans-serif" font-size="13" lengthAdjust="spacing" textLength="261" x="122" y="254.1641">no.ks.fiks.arkiv.v1.innsyn.mappe.resultat</text><text fill="#000000" font-family="sans-serif" font-size="11" lengthAdjust="spacing" textLength="214" x="145.5" y="291.541">Alternativ 2: Arkiv fant ikke saksmappen</text><text fill="#000000" font-family="sans-serif" font-size="11" lengthAdjust="spacing" textLength="226" x="141" y="304.4961">og leverer tilbake feilmeldingen ikkefunnet</text><polygon fill="#181818" points="59,338.127,49,342.127,59,346.127,55,342.127" style="stroke:#181818;stroke-width:1.0;"/><line style="stroke:#181818;stroke-width:1.0;" x1="53" x2="456" y1="342.127" y2="342.127"/><text fill="#000000" font-family="sans-serif" font-size="13" lengthAdjust="spacing" textLength="264" x="120.5" y="337.3848">no.ks.fiks.arkiv.v1.feilmelding.ikkefunnet</text><text fill="#000000" font-family="sans-serif" font-size="11" lengthAdjust="spacing" textLength="285" x="108.5" y="374.7617">Alternativ 2: Fagsystem oppretter saksmappe for elev</text><text fill="#000000" font-family="sans-serif" font-size="11" lengthAdjust="spacing" textLength="147" x="177.5" y="387.7168">hvis mappen ikke eksisterte</text><polygon fill="#181818" points="445,421.3477,455,425.3477,445,429.3477,449,425.3477" style="stroke:#181818;stroke-width:1.0;"/><line style="stroke:#181818;stroke-width:1.0;" x1="48" x2="451" y1="425.3477" y2="425.3477"/><text fill="#000000" font-family="sans-serif" font-size="13" lengthAdjust="spacing" textLength="320" x="92.5" y="420.6055">no.ks.fiks.arkiv.v1.arkivering.arkivmelding.opprett</text><polygon fill="#181818" points="59,450.6582,49,454.6582,59,458.6582,55,454.6582" style="stroke:#181818;stroke-width:1.0;"/><line style="stroke:#181818;stroke-width:1.0;" x1="53" x2="456" y1="454.6582" y2="454.6582"/><text fill="#000000" font-family="sans-serif" font-size="13" lengthAdjust="spacing" textLength="321" x="92" y="449.916">no.ks.fiks.arkiv.v1.arkivering.arkivmelding.mottatt</text><polygon fill="#181818" points="59,479.9688,49,483.9688,59,487.9688,55,483.9688" style="stroke:#181818;stroke-width:1.0;"/><line style="stroke:#181818;stroke-width:1.0;" x1="53" x2="456" y1="483.9688" y2="483.9688"/><text fill="#000000" font-family="sans-serif" font-size="13" lengthAdjust="spacing" textLength="385" x="60" y="479.2266">no.ks.fiks.arkiv.v1.arkivering.arkivmelding.opprett.kvittering</text><text fill="#000000" font-family="sans-serif" font-size="11" lengthAdjust="spacing" textLength="275" x="113.5" y="516.6035">Fagsystem oppretter journalposten p&#229; saksmappen</text><polygon fill="#181818" points="445,550.2344,455,554.2344,445,558.2344,449,554.2344" style="stroke:#181818;stroke-width:1.0;"/><line style="stroke:#181818;stroke-width:1.0;" x1="48" x2="451" y1="554.2344" y2="554.2344"/><text fill="#000000" font-family="sans-serif" font-size="13" lengthAdjust="spacing" textLength="320" x="92.5" y="549.4922">no.ks.fiks.arkiv.v1.arkivering.arkivmelding.opprett</text><polygon fill="#181818" points="59,579.5449,49,583.5449,59,587.5449,55,583.5449" style="stroke:#181818;stroke-width:1.0;"/><line style="stroke:#181818;stroke-width:1.0;" x1="53" x2="456" y1="583.5449" y2="583.5449"/><text fill="#000000" font-family="sans-serif" font-size="13" lengthAdjust="spacing" textLength="321" x="92" y="578.8027">no.ks.fiks.arkiv.v1.arkivering.arkivmelding.mottatt</text><polygon fill="#181818" points="59,608.8555,49,612.8555,59,616.8555,55,612.8555" style="stroke:#181818;stroke-width:1.0;"/><line style="stroke:#181818;stroke-width:1.0;" x1="53" x2="456" y1="612.8555" y2="612.8555"/><text fill="#000000" font-family="sans-serif" font-size="13" lengthAdjust="spacing" textLength="385" x="60" y="608.1133">no.ks.fiks.arkiv.v1.arkivering.arkivmelding.opprett.kvittering</text><!--SRC=[vPEnJiCm48RtFCMf4mnOAYD2I1rWumswcFOI3ZiNutCYzO5u1tPUZBDBwXR1069ZYMpB-VpTVxOuuc2ZxK7mUKJUu3sAs0vNdZg63NB224sJA7c4nQqJx0Dw26yli2NhXmvwz7xeeRMTx2HX3xfcewDfFrtpX5iOGeYO4WBlu6aO8riV1ac5WnwdteQ0YwPfL2RHXeBb17S7f1LO76QBaqshUbJPTZHNdZ6cKjeXojkhqu8USrtrO3WJwwGCpzUisq2r147BAeiCw8IK4J4giQd8YviJWIlWmJWnBUcdX62cfI5csR4fA9EFRehOoYkGRQ89bbTxZAQe9UsTD4RroqT28lzW7SB1SY-P_TLDLFD1kvFpZHB6c4uThoz-wXXHHfzi-gnvUQ99xbY9r_oLSelazOPiYJjLpR-q8pF-Hl48PIge-KAoWkTx5wiepD71cXydahd5fPovptexVj7eCi2O1Sjmjlsm-6d1t-7w8Mbp_WptOMVSH3afNVhqRcg8HqzN4ykFj_R_FmVs3W00]--></g></svg>