<?xml version="1.0" encoding="us-ascii" standalone="no"?><svg xmlns="http://www.w3.org/2000/svg" xmlns:xlink="http://www.w3.org/1999/xlink" contentStyleType="text/css" height="193px" preserveAspectRatio="none" style="width:716px;height:193px;background:#FFFFFF;" version="1.1" viewBox="0 0 716 193" width="716px" zoomAndPan="magnify"><defs/><g><rect fill="#F1F1F1" height="102.4414" rx="5" ry="5" style="stroke:#F1F1F1;stroke-width:1.5;" width="274" x="10" y="10"/><text fill="#000000" font-family="sans-serif" font-size="14" font-weight="bold" lengthAdjust="spacing" textLength="101" x="15" y="25.5352">protokollnavn</text><text fill="#000000" font-family="sans-serif" font-size="14" lengthAdjust="spacing" textLength="102" x="126" y="25.5352">no.ks.fiks.arkiv</text><line style="stroke:#000000;stroke-width:1.0;" x1="121" x2="121" y1="10" y2="30.4883"/><line style="stroke:#000000;stroke-width:1.0;" x1="10" x2="284" y1="30.4883" y2="30.4883"/><text fill="#000000" font-family="sans-serif" font-size="14" font-weight="bold" lengthAdjust="spacing" textLength="34" x="15" y="46.0234">navn</text><text fill="#000000" font-family="sans-serif" font-size="14" lengthAdjust="spacing" textLength="97" x="126" y="46.0234">merknadstype</text><line style="stroke:#000000;stroke-width:1.0;" x1="121" x2="121" y1="30.4883" y2="50.9766"/><line style="stroke:#000000;stroke-width:1.0;" x1="10" x2="284" y1="50.9766" y2="50.9766"/><text fill="#000000" font-family="sans-serif" font-size="14" font-weight="bold" lengthAdjust="spacing" textLength="53" x="15" y="66.5117">versjon</text><text fill="#000000" font-family="sans-serif" font-size="14" lengthAdjust="spacing" textLength="16" x="126" y="66.5117">v1</text><line style="stroke:#000000;stroke-width:1.0;" x1="121" x2="121" y1="50.9766" y2="71.4648"/><line style="stroke:#000000;stroke-width:1.0;" x1="10" x2="284" y1="71.4648" y2="71.4648"/><text fill="#000000" font-family="sans-serif" font-size="14" font-weight="bold" lengthAdjust="spacing" textLength="73" x="15" y="87">definisjon</text><text fill="#000000" font-family="sans-serif" font-size="14" lengthAdjust="spacing" textLength="153" x="126" y="87">Navn p&#229; type merknad</text><line style="stroke:#000000;stroke-width:1.0;" x1="121" x2="121" y1="71.4648" y2="91.9531"/><line style="stroke:#000000;stroke-width:1.0;" x1="10" x2="284" y1="91.9531" y2="91.9531"/><text fill="#000000" font-family="sans-serif" font-size="14" font-weight="bold" lengthAdjust="spacing" textLength="67" x="15" y="107.4883">kodeliste</text><text fill="#000000" font-family="sans-serif" font-size="14" lengthAdjust="spacing" textLength="12" x="126" y="107.4883">&#160;&#160;&#160;</text><line style="stroke:#000000;stroke-width:1.0;" x1="121" x2="121" y1="91.9531" y2="112.4414"/><rect fill="none" height="102.4414" rx="5" ry="5" style="stroke:#000000;stroke-width:1.5;" width="274" x="10" y="10"/><rect fill="#F1F1F1" height="61.4648" rx="5" ry="5" style="stroke:#F1F1F1;stroke-width:1.5;" width="22" x="321" y="71.4883"/><text fill="#000000" font-family="sans-serif" font-size="14" lengthAdjust="spacing" textLength="12" x="326" y="87.0234">&#160;&#160;&#160;</text><line style="stroke:#000000;stroke-width:1.0;" x1="321" x2="343" y1="91.9766" y2="91.9766"/><text fill="#000000" font-family="sans-serif" font-size="14" lengthAdjust="spacing" textLength="12" x="326" y="107.5117">&#160;&#160;&#160;</text><line style="stroke:#000000;stroke-width:1.0;" x1="321" x2="343" y1="112.4648" y2="112.4648"/><text fill="#000000" font-family="sans-serif" font-size="14" lengthAdjust="spacing" textLength="12" x="326" y="128">&#160;&#160;&#160;</text><rect fill="none" height="61.4648" rx="5" ry="5" style="stroke:#000000;stroke-width:1.5;" width="22" x="321" y="71.4883"/><rect fill="#F1F1F1" height="40.9766" rx="5" ry="5" style="stroke:#F1F1F1;stroke-width:1.5;" width="324" x="380" y="22.7207"/><text fill="#000000" font-family="sans-serif" font-size="14" font-weight="bold" lengthAdjust="spacing" textLength="71" x="385" y="38.2559">kodeverdi</text><text fill="#000000" font-family="sans-serif" font-size="14" lengthAdjust="spacing" textLength="20" x="512" y="38.2559">MS</text><line style="stroke:#000000;stroke-width:1.0;" x1="507" x2="507" y1="22.7207" y2="43.209"/><line style="stroke:#000000;stroke-width:1.0;" x1="380" x2="704" y1="43.209" y2="43.209"/><text fill="#000000" font-family="sans-serif" font-size="14" font-weight="bold" lengthAdjust="spacing" textLength="117" x="385" y="58.7441">kodebeskrivelse</text><text fill="#000000" font-family="sans-serif" font-size="14" lengthAdjust="spacing" textLength="187" x="512" y="58.7441">Merknad fra saksbehandler</text><line style="stroke:#000000;stroke-width:1.0;" x1="507" x2="507" y1="43.209" y2="63.6973"/><rect fill="none" height="40.9766" rx="5" ry="5" style="stroke:#000000;stroke-width:1.5;" width="324" x="380" y="22.7207"/><rect fill="#F1F1F1" height="40.9766" rx="5" ry="5" style="stroke:#F1F1F1;stroke-width:1.5;" width="259" x="412.5" y="81.7207"/><text fill="#000000" font-family="sans-serif" font-size="14" font-weight="bold" lengthAdjust="spacing" textLength="71" x="417.5" y="97.2559">kodeverdi</text><text fill="#000000" font-family="sans-serif" font-size="14" lengthAdjust="spacing" textLength="19" x="544.5" y="97.2559">ML</text><line style="stroke:#000000;stroke-width:1.0;" x1="539.5" x2="539.5" y1="81.7207" y2="102.209"/><line style="stroke:#000000;stroke-width:1.0;" x1="412.5" x2="671.5" y1="102.209" y2="102.209"/><text fill="#000000" font-family="sans-serif" font-size="14" font-weight="bold" lengthAdjust="spacing" textLength="117" x="417.5" y="117.7441">kodebeskrivelse</text><text fill="#000000" font-family="sans-serif" font-size="14" lengthAdjust="spacing" textLength="122" x="544.5" y="117.7441">Merknad fra leder</text><line style="stroke:#000000;stroke-width:1.0;" x1="539.5" x2="539.5" y1="102.209" y2="122.6973"/><rect fill="none" height="40.9766" rx="5" ry="5" style="stroke:#000000;stroke-width:1.5;" width="259" x="412.5" y="81.7207"/><rect fill="#F1F1F1" height="40.9766" rx="5" ry="5" style="stroke:#F1F1F1;stroke-width:1.5;" width="319" x="382.5" y="140.7207"/><text fill="#000000" font-family="sans-serif" font-size="14" font-weight="bold" lengthAdjust="spacing" textLength="71" x="387.5" y="156.2559">kodeverdi</text><text fill="#000000" font-family="sans-serif" font-size="14" lengthAdjust="spacing" textLength="22" x="514.5" y="156.2559">MA</text><line style="stroke:#000000;stroke-width:1.0;" x1="509.5" x2="509.5" y1="140.7207" y2="161.209"/><line style="stroke:#000000;stroke-width:1.0;" x1="382.5" x2="701.5" y1="161.209" y2="161.209"/><text fill="#000000" font-family="sans-serif" font-size="14" font-weight="bold" lengthAdjust="spacing" textLength="117" x="387.5" y="176.7441">kodebeskrivelse</text><text fill="#000000" font-family="sans-serif" font-size="14" lengthAdjust="spacing" textLength="182" x="514.5" y="176.7441">Merknad fra arkivansvarlig</text><line style="stroke:#000000;stroke-width:1.0;" x1="509.5" x2="509.5" y1="161.209" y2="181.6973"/><rect fill="none" height="40.9766" rx="5" ry="5" style="stroke:#000000;stroke-width:1.5;" width="319" x="382.5" y="140.7207"/><path d="M331,82.2207 L344,82.2207 C360.4924,82.2207 363.8849,76.7284 380,73.2207 C392.4621,70.5081 405.4989,67.8277 418.5293,65.2511 " fill="none" style="stroke:#000000;stroke-width:1.0;stroke-dasharray:3.0,3.0;"/><path d="M419.1311,68.3178 L420.8293,64.7997 L417.9274,62.1843 L426.1962,63.7465 L419.1311,68.3178 " fill="#000000" style="stroke:#000000;stroke-width:1.0;"/><ellipse cx="331" cy="82.2207" fill="#000000" rx="3" ry="3" style="stroke:#000000;stroke-width:1.0;"/><path d="M331,102.2207 L344,102.2207 C363.8497,102.2207 384.8215,102.2207 405.3929,102.2207 " fill="none" style="stroke:#000000;stroke-width:1.0;stroke-dasharray:3.0,3.0;"/><path d="M405.3929,105.2439 L407.6603,102.2207 L405.3929,99.1975 L412.9509,102.2207 L405.3929,105.2439 " fill="#000000" style="stroke:#000000;stroke-width:1.0;"/><ellipse cx="331" cy="102.2207" fill="#000000" rx="3" ry="3" style="stroke:#000000;stroke-width:1.0;"/><path d="M331,122.2207 L344,122.2207 C360.6058,122.2207 363.8102,128.527 380,132.2207 C390.493,134.6147 401.4064,136.9337 412.3876,139.1477 " fill="none" style="stroke:#000000;stroke-width:1.0;stroke-dasharray:3.0,3.0;"/><path d="M411.7813,142.1912 L414.6702,139.6024 L412.9938,136.1041 L419.9964,140.6633 L411.7813,142.1912 " fill="#000000" style="stroke:#000000;stroke-width:1.0;"/><ellipse cx="331" cy="122.2207" fill="#000000" rx="3" ry="3" style="stroke:#000000;stroke-width:1.0;"/><path d="M272,102.2207 L285,102.2207 C294.4213,102.2207 304.9164,102.2207 313.5483,102.2207 " fill="none" style="stroke:#000000;stroke-width:1.0;stroke-dasharray:3.0,3.0;"/><path d="M313.5483,105.2644 L315.8311,102.2207 L313.5483,99.177 L321.1575,102.2207 L313.5483,105.2644 " fill="#000000" style="stroke:#000000;stroke-width:1.0;"/><ellipse cx="272" cy="102.2207" fill="#000000" rx="3" ry="3" style="stroke:#000000;stroke-width:1.0;"/><!--SRC=[ZP5DRi8m48NtFiKeAv0W8b1LA2jQe9Ke0LIWcweBWoVKn8oHxKH2YEFq9BrOJGBjhc8pY_VpoNhkMSUDsrfDxCW0WhtHJcTQAU851J44fCFCXgdqXvjC5a7Z7BkwEpGPSM7TOO-LKw2nMrsQHLH90bD9ygfEV1Nstrzmxi05K0KpBL19wz3dthq0S2plnV9e8GFmZ6HU5dwT5ThCo0ALnSglg90Q3fPdTeMVd8H24vIjK-DV-FXsk49n8_JXTcYvCoTRSAFavaBtzuETM0z9bB_5PegJMoPZE2ykDK4KjbljJjYjpNE2X1-W7K7KYZlTkDM2_d2-WBDVPxNdsHYipiqQGVYrZLpbpWFgRCGB3gyvERd36APxfD7WvIh0a0ffDEsG71kz9N-1-xlcetGmH-EV0cy96s3AS-LyOws5f4qCoyLJiyl6d3OvttWs4kjhppM762RJ7m00]--></g></svg>