<?xml version="1.0" encoding="us-ascii" standalone="no"?><svg xmlns="http://www.w3.org/2000/svg" xmlns:xlink="http://www.w3.org/1999/xlink" contentStyleType="text/css" height="101px" preserveAspectRatio="none" style="width:285px;height:101px;background:#FFFFFF;" version="1.1" viewBox="0 0 285 101" width="285px" zoomAndPan="magnify"><defs/><g><!--class dokumentobjektOpprett--><g id="elem_dokumentobjektOpprett"><rect codeLine="2" fill="#F1F1F1" height="80.9766" id="dokumentobjektOpprett" rx="2.5" ry="2.5" style="stroke:#181818;stroke-width:0.5;" width="264" x="7" y="7"/><ellipse cx="51.75" cy="23" fill="#ADD1B2" rx="11" ry="11" style="stroke:#181818;stroke-width:1.0;"/><path d="M54.2231,29.1431 Q53.6421,29.4419 53.0029,29.5913 Q52.3638,29.7407 51.6582,29.7407 Q49.1514,29.7407 47.8315,28.0889 Q46.5117,26.437 46.5117,23.3159 Q46.5117,20.1865 47.8315,18.5347 Q49.1514,16.8828 51.6582,16.8828 Q52.3638,16.8828 53.0112,17.0322 Q53.6587,17.1816 54.2231,17.4805 L54.2231,20.2031 Q53.5923,19.6221 52.9988,19.3523 Q52.4053,19.0825 51.7744,19.0825 Q50.4297,19.0825 49.7449,20.1492 Q49.0601,21.2158 49.0601,23.3159 Q49.0601,25.4077 49.7449,26.4744 Q50.4297,27.541 51.7744,27.541 Q52.4053,27.541 52.9988,27.2712 Q53.5923,27.0015 54.2231,26.4204 Z " fill="#000000"/><text fill="#000000" font-family="sans-serif" font-size="14" lengthAdjust="spacing" textLength="166" x="72.25" y="28.291">dokumentobjektOpprett</text><line style="stroke:#181818;stroke-width:0.5;" x1="8" x2="270" y1="39" y2="39"/><ellipse cx="18" cy="52.7441" fill="none" rx="3" ry="3" style="stroke:#038048;stroke-width:1.0;"/><text fill="#000000" font-family="sans-serif" font-size="14" lengthAdjust="spacing" textLength="233" x="27" y="56.5352">dokumentbeskrivelseID : systemID</text><ellipse cx="18" cy="69.2324" fill="none" rx="3" ry="3" style="stroke:#038048;stroke-width:1.0;"/><text fill="#000000" font-family="sans-serif" font-size="14" lengthAdjust="spacing" textLength="238" x="27" y="73.0234">dokumentobjekt : dokumentobjekt</text><line style="stroke:#181818;stroke-width:0.5;" x1="8" x2="270" y1="79.9766" y2="79.9766"/></g><!--SRC=[Iyv9B2vMICdFBirDpIl9JyfApIxnBoWeIYqfKQZcKW02RPXaKcfnTb5cMMfESQgdYuALGd5bSKbghgSBgYg84K1fL06kMYu0]--></g></svg>