<svg xmlns="http://www.w3.org/2000/svg" xmlns:xlink="http://www.w3.org/1999/xlink" contentStyleType="text/css" height="202px" preserveAspectRatio="none" style="width:295px;height:202px;background:#FFFFFF;" version="1.1" viewBox="0 0 295 202" width="295px" zoomAndPan="magnify"><defs/><g><!--class dokumentobjektOpprett--><g id="elem_dokumentobjektOpprett"><rect codeLine="2" fill="#F1F1F1" height="80.9766" id="dokumentobjektOpprett" rx="2.5" ry="2.5" style="stroke:#181818;stroke-width:0.5;" width="264" x="24.5" y="7"/><ellipse cx="69.25" cy="23" fill="#ADD1B2" rx="11" ry="11" style="stroke:#181818;stroke-width:1.0;"/><path d="M71.7231,29.1431 Q71.1421,29.4419 70.5029,29.5913 Q69.8638,29.7407 69.1582,29.7407 Q66.6514,29.7407 65.3315,28.0889 Q64.0117,26.437 64.0117,23.3159 Q64.0117,20.1865 65.3315,18.5347 Q66.6514,16.8828 69.1582,16.8828 Q69.8638,16.8828 70.5112,17.0322 Q71.1587,17.1816 71.7231,17.4805 L71.7231,20.2031 Q71.0923,19.6221 70.4988,19.3523 Q69.9053,19.0825 69.2744,19.0825 Q67.9297,19.0825 67.2449,20.1492 Q66.5601,21.2158 66.5601,23.3159 Q66.5601,25.4077 67.2449,26.4744 Q67.9297,27.541 69.2744,27.541 Q69.9053,27.541 70.4988,27.2712 Q71.0923,27.0015 71.7231,26.4204 Z " fill="#000000"/><text fill="#000000" font-family="sans-serif" font-size="14" lengthAdjust="spacing" textLength="166" x="89.75" y="28.291">dokumentobjektOpprett</text><line style="stroke:#181818;stroke-width:0.5;" x1="25.5" x2="287.5" y1="39" y2="39"/><ellipse cx="35.5" cy="52.7441" fill="none" rx="3" ry="3" style="stroke:#038048;stroke-width:1.0;"/><text fill="#000000" font-family="sans-serif" font-size="14" lengthAdjust="spacing" textLength="233" x="44.5" y="56.5352">dokumentbeskrivelseID : systemID</text><ellipse cx="35.5" cy="69.2324" fill="none" rx="3" ry="3" style="stroke:#038048;stroke-width:1.0;"/><text fill="#000000" font-family="sans-serif" font-size="14" lengthAdjust="spacing" textLength="238" x="44.5" y="73.0234">dokumentobjekt : dokumentobjekt</text><line style="stroke:#181818;stroke-width:0.5;" x1="25.5" x2="287.5" y1="79.9766" y2="79.9766"/></g><!--class dokumentobjekt--><g id="elem_dokumentobjekt"><rect fill="#F1F1F1" height="48" id="dokumentobjekt" rx="2.5" ry="2.5" style="stroke:#181818;stroke-width:0.5;" width="145" x="7" y="147.98"/><ellipse cx="22" cy="163.98" fill="#ADD1B2" rx="11" ry="11" style="stroke:#181818;stroke-width:1.0;"/><path d="M24.4731,170.1231 Q23.8921,170.4219 23.2529,170.5713 Q22.6138,170.7207 21.9082,170.7207 Q19.4014,170.7207 18.0815,169.0689 Q16.7617,167.417 16.7617,164.2959 Q16.7617,161.1665 18.0815,159.5147 Q19.4014,157.8628 21.9082,157.8628 Q22.6138,157.8628 23.2612,158.0122 Q23.9087,158.1616 24.4731,158.4605 L24.4731,161.1831 Q23.8423,160.6021 23.2488,160.3323 Q22.6553,160.0625 22.0244,160.0625 Q20.6797,160.0625 19.9949,161.1292 Q19.3101,162.1958 19.3101,164.2959 Q19.3101,166.3877 19.9949,167.4544 Q20.6797,168.521 22.0244,168.521 Q22.6553,168.521 23.2488,168.2512 Q23.8423,167.9815 24.4731,167.4004 Z " fill="#000000"/><text fill="#000000" font-family="sans-serif" font-size="14" lengthAdjust="spacing" textLength="113" x="36" y="169.271">dokumentobjekt</text><line style="stroke:#181818;stroke-width:0.5;" x1="8" x2="151" y1="179.98" y2="179.98"/><line style="stroke:#181818;stroke-width:0.5;" x1="8" x2="151" y1="187.98" y2="187.98"/></g><!--class systemID--><g id="elem_systemID"><rect fill="#F1F1F1" height="48" id="systemID" rx="2.5" ry="2.5" style="stroke:#181818;stroke-width:0.5;" width="93" x="187" y="147.98"/><ellipse cx="202" cy="163.98" fill="#ADD1B2" rx="11" ry="11" style="stroke:#181818;stroke-width:1.0;"/><path d="M204.4731,170.1231 Q203.8921,170.4219 203.2529,170.5713 Q202.6138,170.7207 201.9082,170.7207 Q199.4014,170.7207 198.0815,169.0689 Q196.7617,167.417 196.7617,164.2959 Q196.7617,161.1665 198.0815,159.5147 Q199.4014,157.8628 201.9082,157.8628 Q202.6138,157.8628 203.2612,158.0122 Q203.9087,158.1616 204.4731,158.4605 L204.4731,161.1831 Q203.8423,160.6021 203.2488,160.3323 Q202.6553,160.0625 202.0244,160.0625 Q200.6797,160.0625 199.9949,161.1292 Q199.3101,162.1958 199.3101,164.2959 Q199.3101,166.3877 199.9949,167.4544 Q200.6797,168.521 202.0244,168.521 Q202.6553,168.521 203.2488,168.2512 Q203.8423,167.9815 204.4731,167.4004 Z " fill="#000000"/><text fill="#000000" font-family="sans-serif" font-size="14" lengthAdjust="spacing" textLength="61" x="216" y="169.271">systemID</text><line style="stroke:#181818;stroke-width:0.5;" x1="188" x2="279" y1="179.98" y2="179.98"/><line style="stroke:#181818;stroke-width:0.5;" x1="188" x2="279" y1="187.98" y2="187.98"/></g><!--link dokumentobjektOpprett to dokumentobjekt--><g id="link_dokumentobjektOpprett_dokumentobjekt"><path codeLine="7" d="M131.5,88.26 C119.12,107.96 104.6,131.05 94.06,147.83 " fill="none" id="dokumentobjektOpprett-dokumentobjekt" style="stroke:#181818;stroke-width:1.0;"/></g><!--link dokumentobjektOpprett to systemID--><g id="link_dokumentobjektOpprett_systemID"><path codeLine="8" d="M181.5,88.26 C193.88,107.96 208.4,131.05 218.94,147.83 " fill="none" id="dokumentobjektOpprett-systemID" style="stroke:#181818;stroke-width:1.0;"/></g><!--SRC=[Iyv9B2vMICdFBirDpIl9JyfApIxnBoWeIYqfKQZcKW02RPXaKcfnTb5cMMfESQgdYuALGd5bSKbghgSBgYg84K1fL06kMYukxBRewg8hnQaERYC0]--></g></svg>