<svg xmlns="http://www.w3.org/2000/svg" xmlns:xlink="http://www.w3.org/1999/xlink" contentStyleType="text/css" height="202px" preserveAspectRatio="none" style="width:237px;height:202px;background:#FFFFFF;" version="1.1" viewBox="0 0 237 202" width="237px" zoomAndPan="magnify"><defs/><g><!--class mappeHentResultat--><g id="elem_mappeHentResultat"><rect codeLine="2" fill="#F1F1F1" height="80.9766" id="mappeHentResultat" rx="2.5" ry="2.5" style="stroke:#181818;stroke-width:0.5;" width="192" x="14.5" y="7"/><ellipse cx="41.2" cy="23" fill="#ADD1B2" rx="11" ry="11" style="stroke:#181818;stroke-width:1.0;"/><path d="M43.6731,29.1431 Q43.0921,29.4419 42.4529,29.5913 Q41.8138,29.7407 41.1082,29.7407 Q38.6014,29.7407 37.2815,28.0889 Q35.9617,26.437 35.9617,23.3159 Q35.9617,20.1865 37.2815,18.5347 Q38.6014,16.8828 41.1082,16.8828 Q41.8138,16.8828 42.4612,17.0322 Q43.1087,17.1816 43.6731,17.4805 L43.6731,20.2031 Q43.0423,19.6221 42.4488,19.3523 Q41.8553,19.0825 41.2244,19.0825 Q39.8797,19.0825 39.1949,20.1492 Q38.5101,21.2158 38.5101,23.3159 Q38.5101,25.4077 39.1949,26.4744 Q39.8797,27.541 41.2244,27.541 Q41.8553,27.541 42.4488,27.2712 Q43.0423,27.0015 43.6731,26.4204 Z " fill="#000000"/><text fill="#000000" font-family="sans-serif" font-size="14" lengthAdjust="spacing" textLength="134" x="57.8" y="28.291">mappeHentResultat</text><line style="stroke:#181818;stroke-width:0.5;" x1="15.5" x2="205.5" y1="39" y2="39"/><ellipse cx="25.5" cy="52.7441" fill="none" rx="3" ry="3" style="stroke:#038048;stroke-width:1.0;"/><text fill="#000000" font-family="sans-serif" font-size="14" lengthAdjust="spacing" textLength="106" x="34.5" y="56.5352">mappe : mappe</text><ellipse cx="25.5" cy="69.2324" fill="none" rx="3" ry="3" style="stroke:#038048;stroke-width:1.0;"/><text fill="#000000" font-family="sans-serif" font-size="14" lengthAdjust="spacing" textLength="166" x="34.5" y="73.0234">saksmappe : saksmappe</text><line style="stroke:#181818;stroke-width:0.5;" x1="15.5" x2="205.5" y1="79.9766" y2="79.9766"/></g><!--class mappe--><g id="elem_mappe"><rect fill="#F1F1F1" height="48" id="mappe" rx="2.5" ry="2.5" style="stroke:#181818;stroke-width:0.5;" width="79" x="7" y="147.98"/><ellipse cx="22" cy="163.98" fill="#ADD1B2" rx="11" ry="11" style="stroke:#181818;stroke-width:1.0;"/><path d="M24.4731,170.1231 Q23.8921,170.4219 23.2529,170.5713 Q22.6138,170.7207 21.9082,170.7207 Q19.4014,170.7207 18.0815,169.0689 Q16.7617,167.417 16.7617,164.2959 Q16.7617,161.1665 18.0815,159.5147 Q19.4014,157.8628 21.9082,157.8628 Q22.6138,157.8628 23.2612,158.0122 Q23.9087,158.1616 24.4731,158.4605 L24.4731,161.1831 Q23.8423,160.6021 23.2488,160.3323 Q22.6553,160.0625 22.0244,160.0625 Q20.6797,160.0625 19.9949,161.1292 Q19.3101,162.1958 19.3101,164.2959 Q19.3101,166.3877 19.9949,167.4544 Q20.6797,168.521 22.0244,168.521 Q22.6553,168.521 23.2488,168.2512 Q23.8423,167.9815 24.4731,167.4004 Z " fill="#000000"/><text fill="#000000" font-family="sans-serif" font-size="14" lengthAdjust="spacing" textLength="47" x="36" y="169.271">mappe</text><line style="stroke:#181818;stroke-width:0.5;" x1="8" x2="85" y1="179.98" y2="179.98"/><line style="stroke:#181818;stroke-width:0.5;" x1="8" x2="85" y1="187.98" y2="187.98"/></g><!--class saksmappe--><g id="elem_saksmappe"><rect fill="#F1F1F1" height="48" id="saksmappe" rx="2.5" ry="2.5" style="stroke:#181818;stroke-width:0.5;" width="109" x="121" y="147.98"/><ellipse cx="136" cy="163.98" fill="#ADD1B2" rx="11" ry="11" style="stroke:#181818;stroke-width:1.0;"/><path d="M138.4731,170.1231 Q137.8921,170.4219 137.2529,170.5713 Q136.6138,170.7207 135.9082,170.7207 Q133.4014,170.7207 132.0815,169.0689 Q130.7617,167.417 130.7617,164.2959 Q130.7617,161.1665 132.0815,159.5147 Q133.4014,157.8628 135.9082,157.8628 Q136.6138,157.8628 137.2612,158.0122 Q137.9087,158.1616 138.4731,158.4605 L138.4731,161.1831 Q137.8423,160.6021 137.2488,160.3323 Q136.6553,160.0625 136.0244,160.0625 Q134.6797,160.0625 133.9949,161.1292 Q133.3101,162.1958 133.3101,164.2959 Q133.3101,166.3877 133.9949,167.4544 Q134.6797,168.521 136.0244,168.521 Q136.6553,168.521 137.2488,168.2512 Q137.8423,167.9815 138.4731,167.4004 Z " fill="#000000"/><text fill="#000000" font-family="sans-serif" font-size="14" lengthAdjust="spacing" textLength="77" x="150" y="169.271">saksmappe</text><line style="stroke:#181818;stroke-width:0.5;" x1="122" x2="229" y1="179.98" y2="179.98"/><line style="stroke:#181818;stroke-width:0.5;" x1="122" x2="229" y1="187.98" y2="187.98"/></g><!--link mappeHentResultat to mappe--><g id="link_mappeHentResultat_mappe"><path codeLine="3" d="M89.72,88.26 C79.43,107.96 67.36,131.05 58.6,147.83 " fill="none" id="mappeHentResultat-mappe" style="stroke:#181818;stroke-width:1.0;stroke-dasharray:7.0,7.0;"/></g><!--link mappeHentResultat to saksmappe--><g id="link_mappeHentResultat_saksmappe"><path codeLine="4" d="M131.6,88.26 C142.06,107.96 154.31,131.05 163.21,147.83 " fill="none" id="mappeHentResultat-saksmappe" style="stroke:#181818;stroke-width:1.0;stroke-dasharray:7.0,7.0;"/></g><!--SRC=[KypCIyufJKbLA4ejBiqfIIpHAoZbuifDB2X8zKZDAmc2YYhewIc01R5B5ITc5qEa0G00]--></g></svg>