<?xml version="1.0" encoding="us-ascii" standalone="no"?><svg xmlns="http://www.w3.org/2000/svg" xmlns:xlink="http://www.w3.org/1999/xlink" contentStyleType="text/css" height="101px" preserveAspectRatio="none" style="width:213px;height:101px;background:#FFFFFF;" version="1.1" viewBox="0 0 213 101" width="213px" zoomAndPan="magnify"><defs/><g><!--class mappeHentResultat--><g id="elem_mappeHentResultat"><rect codeLine="2" fill="#F1F1F1" height="80.9766" id="mappeHentResultat" rx="2.5" ry="2.5" style="stroke:#181818;stroke-width:0.5;" width="192" x="7" y="7"/><ellipse cx="33.7" cy="23" fill="#ADD1B2" rx="11" ry="11" style="stroke:#181818;stroke-width:1.0;"/><path d="M36.1731,29.1431 Q35.5921,29.4419 34.9529,29.5913 Q34.3138,29.7407 33.6082,29.7407 Q31.1014,29.7407 29.7815,28.0889 Q28.4617,26.437 28.4617,23.3159 Q28.4617,20.1865 29.7815,18.5347 Q31.1014,16.8828 33.6082,16.8828 Q34.3138,16.8828 34.9612,17.0322 Q35.6087,17.1816 36.1731,17.4805 L36.1731,20.2031 Q35.5423,19.6221 34.9488,19.3523 Q34.3553,19.0825 33.7244,19.0825 Q32.3797,19.0825 31.6949,20.1492 Q31.0101,21.2158 31.0101,23.3159 Q31.0101,25.4077 31.6949,26.4744 Q32.3797,27.541 33.7244,27.541 Q34.3553,27.541 34.9488,27.2712 Q35.5423,27.0015 36.1731,26.4204 Z " fill="#000000"/><text fill="#000000" font-family="sans-serif" font-size="14" lengthAdjust="spacing" textLength="134" x="50.3" y="28.291">mappeHentResultat</text><line style="stroke:#181818;stroke-width:0.5;" x1="8" x2="198" y1="39" y2="39"/><ellipse cx="18" cy="52.7441" fill="none" rx="3" ry="3" style="stroke:#038048;stroke-width:1.0;"/><text fill="#000000" font-family="sans-serif" font-size="14" lengthAdjust="spacing" textLength="106" x="27" y="56.5352">mappe : mappe</text><ellipse cx="18" cy="69.2324" fill="none" rx="3" ry="3" style="stroke:#038048;stroke-width:1.0;"/><text fill="#000000" font-family="sans-serif" font-size="14" lengthAdjust="spacing" textLength="166" x="27" y="73.0234">saksmappe : saksmappe</text><line style="stroke:#181818;stroke-width:0.5;" x1="8" x2="198" y1="79.9766" y2="79.9766"/></g><!--SRC=[Iyv9B2vMo4qiA4ZrICqh2KejBiqfIInHgEPI009ji8I25KG1HAWuCRiO9WndSzLo0G00]--></g></svg>