<svg xmlns="http://www.w3.org/2000/svg" xmlns:xlink="http://www.w3.org/1999/xlink" contentStyleType="text/css" height="202px" preserveAspectRatio="none" style="width:273px;height:202px;background:#FFFFFF;" version="1.1" viewBox="0 0 273 202" width="273px" zoomAndPan="magnify"><defs/><g><!--class registreringHentResultat--><g id="elem_registreringHentResultat"><rect codeLine="2" fill="#F1F1F1" height="80.9766" id="registreringHentResultat" rx="2.5" ry="2.5" style="stroke:#181818;stroke-width:0.5;" width="200" x="36.5" y="7"/><ellipse cx="51.5" cy="23" fill="#ADD1B2" rx="11" ry="11" style="stroke:#181818;stroke-width:1.0;"/><path d="M53.9731,29.1431 Q53.3921,29.4419 52.7529,29.5913 Q52.1138,29.7407 51.4082,29.7407 Q48.9014,29.7407 47.5815,28.0889 Q46.2617,26.437 46.2617,23.3159 Q46.2617,20.1865 47.5815,18.5347 Q48.9014,16.8828 51.4082,16.8828 Q52.1138,16.8828 52.7612,17.0322 Q53.4087,17.1816 53.9731,17.4805 L53.9731,20.2031 Q53.3423,19.6221 52.7488,19.3523 Q52.1553,19.0825 51.5244,19.0825 Q50.1797,19.0825 49.4949,20.1492 Q48.8101,21.2158 48.8101,23.3159 Q48.8101,25.4077 49.4949,26.4744 Q50.1797,27.541 51.5244,27.541 Q52.1553,27.541 52.7488,27.2712 Q53.3423,27.0015 53.9731,26.4204 Z " fill="#000000"/><text fill="#000000" font-family="sans-serif" font-size="14" lengthAdjust="spacing" textLength="168" x="65.5" y="28.291">registreringHentResultat</text><line style="stroke:#181818;stroke-width:0.5;" x1="37.5" x2="235.5" y1="39" y2="39"/><ellipse cx="47.5" cy="52.7441" fill="none" rx="3" ry="3" style="stroke:#038048;stroke-width:1.0;"/><text fill="#000000" font-family="sans-serif" font-size="14" lengthAdjust="spacing" textLength="174" x="56.5" y="56.5352">registrering : registrering</text><ellipse cx="47.5" cy="69.2324" fill="none" rx="3" ry="3" style="stroke:#038048;stroke-width:1.0;"/><text fill="#000000" font-family="sans-serif" font-size="14" lengthAdjust="spacing" textLength="170" x="56.5" y="73.0234">journalpost : journalpost</text><line style="stroke:#181818;stroke-width:0.5;" x1="37.5" x2="235.5" y1="79.9766" y2="79.9766"/></g><!--class registrering--><g id="elem_registrering"><rect fill="#F1F1F1" height="48" id="registrering" rx="2.5" ry="2.5" style="stroke:#181818;stroke-width:0.5;" width="113" x="7" y="147.98"/><ellipse cx="22" cy="163.98" fill="#ADD1B2" rx="11" ry="11" style="stroke:#181818;stroke-width:1.0;"/><path d="M24.4731,170.1231 Q23.8921,170.4219 23.2529,170.5713 Q22.6138,170.7207 21.9082,170.7207 Q19.4014,170.7207 18.0815,169.0689 Q16.7617,167.417 16.7617,164.2959 Q16.7617,161.1665 18.0815,159.5147 Q19.4014,157.8628 21.9082,157.8628 Q22.6138,157.8628 23.2612,158.0122 Q23.9087,158.1616 24.4731,158.4605 L24.4731,161.1831 Q23.8423,160.6021 23.2488,160.3323 Q22.6553,160.0625 22.0244,160.0625 Q20.6797,160.0625 19.9949,161.1292 Q19.3101,162.1958 19.3101,164.2959 Q19.3101,166.3877 19.9949,167.4544 Q20.6797,168.521 22.0244,168.521 Q22.6553,168.521 23.2488,168.2512 Q23.8423,167.9815 24.4731,167.4004 Z " fill="#000000"/><text fill="#000000" font-family="sans-serif" font-size="14" lengthAdjust="spacing" textLength="81" x="36" y="169.271">registrering</text><line style="stroke:#181818;stroke-width:0.5;" x1="8" x2="119" y1="179.98" y2="179.98"/><line style="stroke:#181818;stroke-width:0.5;" x1="8" x2="119" y1="187.98" y2="187.98"/></g><!--class journalpost--><g id="elem_journalpost"><rect fill="#F1F1F1" height="48" id="journalpost" rx="2.5" ry="2.5" style="stroke:#181818;stroke-width:0.5;" width="111" x="155" y="147.98"/><ellipse cx="170" cy="163.98" fill="#ADD1B2" rx="11" ry="11" style="stroke:#181818;stroke-width:1.0;"/><path d="M172.4731,170.1231 Q171.8921,170.4219 171.2529,170.5713 Q170.6138,170.7207 169.9082,170.7207 Q167.4014,170.7207 166.0815,169.0689 Q164.7617,167.417 164.7617,164.2959 Q164.7617,161.1665 166.0815,159.5147 Q167.4014,157.8628 169.9082,157.8628 Q170.6138,157.8628 171.2612,158.0122 Q171.9087,158.1616 172.4731,158.4605 L172.4731,161.1831 Q171.8423,160.6021 171.2488,160.3323 Q170.6553,160.0625 170.0244,160.0625 Q168.6797,160.0625 167.9949,161.1292 Q167.3101,162.1958 167.3101,164.2959 Q167.3101,166.3877 167.9949,167.4544 Q168.6797,168.521 170.0244,168.521 Q170.6553,168.521 171.2488,168.2512 Q171.8423,167.9815 172.4731,167.4004 Z " fill="#000000"/><text fill="#000000" font-family="sans-serif" font-size="14" lengthAdjust="spacing" textLength="79" x="184" y="169.271">journalpost</text><line style="stroke:#181818;stroke-width:0.5;" x1="156" x2="265" y1="179.98" y2="179.98"/><line style="stroke:#181818;stroke-width:0.5;" x1="156" x2="265" y1="187.98" y2="187.98"/></g><!--link registreringHentResultat to registrering--><g id="link_registreringHentResultat_registrering"><path codeLine="3" d="M112.8,88.26 C101.06,107.96 87.3,131.05 77.3,147.83 " fill="none" id="registreringHentResultat-registrering" style="stroke:#181818;stroke-width:1.0;stroke-dasharray:7.0,7.0;"/></g><!--link registreringHentResultat to journalpost--><g id="link_registreringHentResultat_journalpost"><path codeLine="4" d="M160.53,88.26 C172.43,107.96 186.38,131.05 196.51,147.83 " fill="none" id="registreringHentResultat-journalpost" style="stroke:#181818;stroke-width:1.0;stroke-dasharray:7.0,7.0;"/></g><!--SRC=[KypCIyufJKbLA4ejBiqfIIpHAoZbuYfAJSyiBYbABShCI_T8pIi9WaegwEaf8ClXLPYLNrgKbvXJa5zSmWK0]--></g></svg>