<?xml version="1.0" encoding="us-ascii" standalone="no"?><svg xmlns="http://www.w3.org/2000/svg" xmlns:xlink="http://www.w3.org/1999/xlink" contentStyleType="text/css" height="193px" preserveAspectRatio="none" style="width:1596px;height:193px;background:#FFFFFF;" version="1.1" viewBox="0 0 1596 193" width="1596px" zoomAndPan="magnify"><defs/><g><rect fill="#F1F1F1" height="102.4414" rx="5" ry="5" style="stroke:#F1F1F1;stroke-width:1.5;" width="1109" x="10" y="10"/><text fill="#000000" font-family="sans-serif" font-size="14" font-weight="bold" lengthAdjust="spacing" textLength="101" x="15" y="25.5352">protokollnavn</text><text fill="#000000" font-family="sans-serif" font-size="14" lengthAdjust="spacing" textLength="102" x="126" y="25.5352">no.ks.fiks.arkiv</text><line style="stroke:#000000;stroke-width:1.0;" x1="121" x2="121" y1="10" y2="30.4883"/><line style="stroke:#000000;stroke-width:1.0;" x1="10" x2="1119" y1="30.4883" y2="30.4883"/><text fill="#000000" font-family="sans-serif" font-size="14" font-weight="bold" lengthAdjust="spacing" textLength="34" x="15" y="46.0234">navn</text><text fill="#000000" font-family="sans-serif" font-size="14" lengthAdjust="spacing" textLength="126" x="126" y="46.0234">dokumentmedium</text><line style="stroke:#000000;stroke-width:1.0;" x1="121" x2="121" y1="30.4883" y2="50.9766"/><line style="stroke:#000000;stroke-width:1.0;" x1="10" x2="1119" y1="50.9766" y2="50.9766"/><text fill="#000000" font-family="sans-serif" font-size="14" font-weight="bold" lengthAdjust="spacing" textLength="53" x="15" y="66.5117">versjon</text><text fill="#000000" font-family="sans-serif" font-size="14" lengthAdjust="spacing" textLength="16" x="126" y="66.5117">v1</text><line style="stroke:#000000;stroke-width:1.0;" x1="121" x2="121" y1="50.9766" y2="71.4648"/><line style="stroke:#000000;stroke-width:1.0;" x1="10" x2="1119" y1="71.4648" y2="71.4648"/><text fill="#000000" font-family="sans-serif" font-size="14" font-weight="bold" lengthAdjust="spacing" textLength="73" x="15" y="87">definisjon</text><text fill="#000000" font-family="sans-serif" font-size="14" lengthAdjust="spacing" textLength="988" x="126" y="87">Angivelse av om arkivenheten inneholder fysiske dokumenter, elektroniske dokumenter eller en blanding av fysiske og elektroniske dokumenter</text><line style="stroke:#000000;stroke-width:1.0;" x1="121" x2="121" y1="71.4648" y2="91.9531"/><line style="stroke:#000000;stroke-width:1.0;" x1="10" x2="1119" y1="91.9531" y2="91.9531"/><text fill="#000000" font-family="sans-serif" font-size="14" font-weight="bold" lengthAdjust="spacing" textLength="67" x="15" y="107.4883">kodeliste</text><text fill="#000000" font-family="sans-serif" font-size="14" lengthAdjust="spacing" textLength="12" x="126" y="107.4883">&#160;&#160;&#160;</text><line style="stroke:#000000;stroke-width:1.0;" x1="121" x2="121" y1="91.9531" y2="112.4414"/><rect fill="none" height="102.4414" rx="5" ry="5" style="stroke:#000000;stroke-width:1.5;" width="1109" x="10" y="10"/><rect fill="#F1F1F1" height="61.4648" rx="5" ry="5" style="stroke:#F1F1F1;stroke-width:1.5;" width="22" x="1156" y="71.4883"/><text fill="#000000" font-family="sans-serif" font-size="14" lengthAdjust="spacing" textLength="12" x="1161" y="87.0234">&#160;&#160;&#160;</text><line style="stroke:#000000;stroke-width:1.0;" x1="1156" x2="1178" y1="91.9766" y2="91.9766"/><text fill="#000000" font-family="sans-serif" font-size="14" lengthAdjust="spacing" textLength="12" x="1161" y="107.5117">&#160;&#160;&#160;</text><line style="stroke:#000000;stroke-width:1.0;" x1="1156" x2="1178" y1="112.4648" y2="112.4648"/><text fill="#000000" font-family="sans-serif" font-size="14" lengthAdjust="spacing" textLength="12" x="1161" y="128">&#160;&#160;&#160;</text><rect fill="none" height="61.4648" rx="5" ry="5" style="stroke:#000000;stroke-width:1.5;" width="22" x="1156" y="71.4883"/><rect fill="#F1F1F1" height="40.9766" rx="5" ry="5" style="stroke:#F1F1F1;stroke-width:1.5;" width="238" x="1280.5" y="22.7207"/><text fill="#000000" font-family="sans-serif" font-size="14" font-weight="bold" lengthAdjust="spacing" textLength="71" x="1285.5" y="38.2559">kodeverdi</text><text fill="#000000" font-family="sans-serif" font-size="14" lengthAdjust="spacing" textLength="8" x="1412.5" y="38.2559">F</text><line style="stroke:#000000;stroke-width:1.0;" x1="1407.5" x2="1407.5" y1="22.7207" y2="43.209"/><line style="stroke:#000000;stroke-width:1.0;" x1="1280.5" x2="1518.5" y1="43.209" y2="43.209"/><text fill="#000000" font-family="sans-serif" font-size="14" font-weight="bold" lengthAdjust="spacing" textLength="117" x="1285.5" y="58.7441">kodebeskrivelse</text><text fill="#000000" font-family="sans-serif" font-size="14" lengthAdjust="spacing" textLength="101" x="1412.5" y="58.7441">Fysisk medium</text><line style="stroke:#000000;stroke-width:1.0;" x1="1407.5" x2="1407.5" y1="43.209" y2="63.6973"/><rect fill="none" height="40.9766" rx="5" ry="5" style="stroke:#000000;stroke-width:1.5;" width="238" x="1280.5" y="22.7207"/><rect fill="#F1F1F1" height="40.9766" rx="5" ry="5" style="stroke:#F1F1F1;stroke-width:1.5;" width="250" x="1274.5" y="81.7207"/><text fill="#000000" font-family="sans-serif" font-size="14" font-weight="bold" lengthAdjust="spacing" textLength="71" x="1279.5" y="97.2559">kodeverdi</text><text fill="#000000" font-family="sans-serif" font-size="14" lengthAdjust="spacing" textLength="8" x="1406.5" y="97.2559">E</text><line style="stroke:#000000;stroke-width:1.0;" x1="1401.5" x2="1401.5" y1="81.7207" y2="102.209"/><line style="stroke:#000000;stroke-width:1.0;" x1="1274.5" x2="1524.5" y1="102.209" y2="102.209"/><text fill="#000000" font-family="sans-serif" font-size="14" font-weight="bold" lengthAdjust="spacing" textLength="117" x="1279.5" y="117.7441">kodebeskrivelse</text><text fill="#000000" font-family="sans-serif" font-size="14" lengthAdjust="spacing" textLength="113" x="1406.5" y="117.7441">Elektronisk arkiv</text><line style="stroke:#000000;stroke-width:1.0;" x1="1401.5" x2="1401.5" y1="102.209" y2="122.6973"/><rect fill="none" height="40.9766" rx="5" ry="5" style="stroke:#000000;stroke-width:1.5;" width="250" x="1274.5" y="81.7207"/><rect fill="#F1F1F1" height="40.9766" rx="5" ry="5" style="stroke:#F1F1F1;stroke-width:1.5;" width="369" x="1215" y="140.7207"/><text fill="#000000" font-family="sans-serif" font-size="14" font-weight="bold" lengthAdjust="spacing" textLength="71" x="1220" y="156.2559">kodeverdi</text><text fill="#000000" font-family="sans-serif" font-size="14" lengthAdjust="spacing" textLength="8" x="1347" y="156.2559">B</text><line style="stroke:#000000;stroke-width:1.0;" x1="1342" x2="1342" y1="140.7207" y2="161.209"/><line style="stroke:#000000;stroke-width:1.0;" x1="1215" x2="1584" y1="161.209" y2="161.209"/><text fill="#000000" font-family="sans-serif" font-size="14" font-weight="bold" lengthAdjust="spacing" textLength="117" x="1220" y="176.7441">kodebeskrivelse</text><text fill="#000000" font-family="sans-serif" font-size="14" lengthAdjust="spacing" textLength="232" x="1347" y="176.7441">Blandet fysisk og elektronisk arkiv</text><line style="stroke:#000000;stroke-width:1.0;" x1="1342" x2="1342" y1="161.209" y2="181.6973"/><rect fill="none" height="40.9766" rx="5" ry="5" style="stroke:#000000;stroke-width:1.5;" width="369" x="1215" y="140.7207"/><path d="M1166,82.2207 L1179,82.2207 C1195.4924,82.2207 1198.8472,76.5506 1215,73.2207 C1233.8328,69.3384 1253.8342,65.6423 1273.4475,62.2551 " fill="none" style="stroke:#000000;stroke-width:1.0;stroke-dasharray:3.0,3.0;"/><path d="M1273.9607,65.253 L1275.696,61.8702 L1272.9344,59.2572 L1280.9423,60.9723 L1273.9607,65.253 " fill="#000000" style="stroke:#000000;stroke-width:1.0;"/><ellipse cx="1166" cy="82.2207" fill="#000000" rx="3" ry="3" style="stroke:#000000;stroke-width:1.0;"/><path d="M1166,102.2207 L1179,102.2207 C1207.4873,102.2207 1238.0495,102.2207 1267.0596,102.2207 " fill="none" style="stroke:#000000;stroke-width:1.0;stroke-dasharray:3.0,3.0;"/><path d="M1267.0596,105.3157 L1269.3808,102.2207 L1267.0596,99.1258 L1274.7969,102.2207 L1267.0596,105.3157 " fill="#000000" style="stroke:#000000;stroke-width:1.0;"/><ellipse cx="1166" cy="102.2207" fill="#000000" rx="3" ry="3" style="stroke:#000000;stroke-width:1.0;"/><path d="M1166,122.2207 L1179,122.2207 C1195.6058,122.2207 1198.7717,128.7 1215,132.2207 C1226.5156,134.719 1238.4807,137.0935 1250.534,139.3291 " fill="none" style="stroke:#000000;stroke-width:1.0;stroke-dasharray:3.0,3.0;"/><path d="M1249.9845,142.3343 L1252.788,139.7412 L1251.0836,136.3238 L1258.0471,140.7029 L1249.9845,142.3343 " fill="#000000" style="stroke:#000000;stroke-width:1.0;"/><ellipse cx="1166" cy="122.2207" fill="#000000" rx="3" ry="3" style="stroke:#000000;stroke-width:1.0;"/><path d="M1107,102.2207 L1120,102.2207 C1129.4213,102.2207 1139.9164,102.2207 1148.5483,102.2207 " fill="none" style="stroke:#000000;stroke-width:1.0;stroke-dasharray:3.0,3.0;"/><path d="M1148.5483,105.2644 L1150.8311,102.2207 L1148.5483,99.177 L1156.1575,102.2207 L1148.5483,105.2644 " fill="#000000" style="stroke:#000000;stroke-width:1.0;"/><ellipse cx="1107" cy="102.2207" fill="#000000" rx="3" ry="3" style="stroke:#000000;stroke-width:1.0;"/><!--SRC=[ZLBBRi8m4BpxArOvWGI8HrMXd2YlIXGAAezBrOCXIp1nrfNjH48L_rud8KL5Akfb3pExi-DPzupbsXwD8lR50BnFhQoAb9J4K_9yy4Wr8jFO2rUuZaJgrRAsaWrKbCH8DiP09771fQZDKULqsYgW0FU2H8a-KIXIb0Q1fw1Yo7MH3cYHG13XGSa0DUnFHfW8eLo2kWOeCR9QqGtXS9bLWgta50WAC-rIG8L_pHNs8XMW5CQYS_Vk082ll5uezw10UE2SZ_F-7sAB9jB5KmewtmUNCFBES-sUtkY-tkXgkWZfFvhz-vhzB1-qbsnkelcrnTKFTcOzf23_7spXHkrwDeNima8Hj1hjPhlJw5QM2S6Cdw3TWbRJxtJzPXC6e-KAChxAAi-BAHYLw9tBtkMinJQnJg3A9Zpby9QG5J7wCFz4cWnVIW16b0fdB3iLcsncruR7XtfVM5YYTbPWCsD3tFD4MZUnKzdrVLYlnlKkct8A4nuwRIGsK4vNdtnudNy3]--></g></svg>