<?xml version="1.0" encoding="us-ascii" standalone="no"?><svg xmlns="http://www.w3.org/2000/svg" xmlns:xlink="http://www.w3.org/1999/xlink" contentStyleType="text/css" height="180px" preserveAspectRatio="none" style="width:723px;height:180px;background:#FFFFFF;" version="1.1" viewBox="0 0 723 180" width="723px" zoomAndPan="magnify"><defs/><g><rect fill="#F1F1F1" height="81.9531" rx="5" ry="5" style="stroke:#F1F1F1;stroke-width:1.5;" width="223" x="10" y="17.5"/><text fill="#000000" font-family="sans-serif" font-size="14" font-weight="bold" lengthAdjust="spacing" textLength="101" x="15" y="33.0352">protokollnavn</text><text fill="#000000" font-family="sans-serif" font-size="14" lengthAdjust="spacing" textLength="102" x="126" y="33.0352">no.ks.fiks.arkiv</text><line style="stroke:#000000;stroke-width:1.0;" x1="121" x2="121" y1="17.5" y2="37.9883"/><line style="stroke:#000000;stroke-width:1.0;" x1="10" x2="233" y1="37.9883" y2="37.9883"/><text fill="#000000" font-family="sans-serif" font-size="14" font-weight="bold" lengthAdjust="spacing" textLength="34" x="15" y="53.5234">navn</text><text fill="#000000" font-family="sans-serif" font-size="14" lengthAdjust="spacing" textLength="79" x="126" y="53.5234">tekstformat</text><line style="stroke:#000000;stroke-width:1.0;" x1="121" x2="121" y1="37.9883" y2="58.4766"/><line style="stroke:#000000;stroke-width:1.0;" x1="10" x2="233" y1="58.4766" y2="58.4766"/><text fill="#000000" font-family="sans-serif" font-size="14" font-weight="bold" lengthAdjust="spacing" textLength="53" x="15" y="74.0117">versjon</text><text fill="#000000" font-family="sans-serif" font-size="14" lengthAdjust="spacing" textLength="16" x="126" y="74.0117">v1</text><line style="stroke:#000000;stroke-width:1.0;" x1="121" x2="121" y1="58.4766" y2="78.9648"/><line style="stroke:#000000;stroke-width:1.0;" x1="10" x2="233" y1="78.9648" y2="78.9648"/><text fill="#000000" font-family="sans-serif" font-size="14" font-weight="bold" lengthAdjust="spacing" textLength="67" x="15" y="94.5">kodeliste</text><text fill="#000000" font-family="sans-serif" font-size="14" lengthAdjust="spacing" textLength="12" x="126" y="94.5">&#160;&#160;&#160;</text><line style="stroke:#000000;stroke-width:1.0;" x1="121" x2="121" y1="78.9648" y2="99.4531"/><rect fill="none" height="81.9531" rx="5" ry="5" style="stroke:#000000;stroke-width:1.5;" width="223" x="10" y="17.5"/><rect fill="#F1F1F1" height="61.4648" rx="5" ry="5" style="stroke:#F1F1F1;stroke-width:1.5;" width="22" x="270" y="58.7676"/><text fill="#000000" font-family="sans-serif" font-size="14" lengthAdjust="spacing" textLength="12" x="275" y="74.3027">&#160;&#160;&#160;</text><line style="stroke:#000000;stroke-width:1.0;" x1="270" x2="292" y1="79.2559" y2="79.2559"/><text fill="#000000" font-family="sans-serif" font-size="14" lengthAdjust="spacing" textLength="12" x="275" y="94.791">&#160;&#160;&#160;</text><line style="stroke:#000000;stroke-width:1.0;" x1="270" x2="292" y1="99.7441" y2="99.7441"/><text fill="#000000" font-family="sans-serif" font-size="14" lengthAdjust="spacing" textLength="12" x="275" y="115.2793">&#160;&#160;&#160;</text><rect fill="none" height="61.4648" rx="5" ry="5" style="stroke:#000000;stroke-width:1.5;" width="22" x="270" y="58.7676"/><rect fill="#F1F1F1" height="40.9766" rx="5" ry="5" style="stroke:#F1F1F1;stroke-width:1.5;" width="290" x="375" y="10"/><text fill="#000000" font-family="sans-serif" font-size="14" font-weight="bold" lengthAdjust="spacing" textLength="71" x="380" y="25.5352">kodeverdi</text><text fill="#000000" font-family="sans-serif" font-size="14" lengthAdjust="spacing" textLength="33" x="507" y="25.5352">tekst</text><line style="stroke:#000000;stroke-width:1.0;" x1="502" x2="502" y1="10" y2="30.4883"/><line style="stroke:#000000;stroke-width:1.0;" x1="375" x2="665" y1="30.4883" y2="30.4883"/><text fill="#000000" font-family="sans-serif" font-size="14" font-weight="bold" lengthAdjust="spacing" textLength="117" x="380" y="46.0234">kodebeskrivelse</text><text fill="#000000" font-family="sans-serif" font-size="14" lengthAdjust="spacing" textLength="153" x="507" y="46.0234">Tekst som tekstformat</text><line style="stroke:#000000;stroke-width:1.0;" x1="502" x2="502" y1="30.4883" y2="50.9766"/><rect fill="none" height="40.9766" rx="5" ry="5" style="stroke:#000000;stroke-width:1.5;" width="290" x="375" y="10"/><rect fill="#F1F1F1" height="40.9766" rx="5" ry="5" style="stroke:#F1F1F1;stroke-width:1.5;" width="382" x="329" y="69"/><text fill="#000000" font-family="sans-serif" font-size="14" font-weight="bold" lengthAdjust="spacing" textLength="71" x="334" y="84.5352">kodeverdi</text><text fill="#000000" font-family="sans-serif" font-size="14" lengthAdjust="spacing" textLength="73" x="461" y="84.5352">markdown</text><line style="stroke:#000000;stroke-width:1.0;" x1="456" x2="456" y1="69" y2="89.4883"/><line style="stroke:#000000;stroke-width:1.0;" x1="329" x2="711" y1="89.4883" y2="89.4883"/><text fill="#000000" font-family="sans-serif" font-size="14" font-weight="bold" lengthAdjust="spacing" textLength="117" x="334" y="105.0234">kodebeskrivelse</text><text fill="#000000" font-family="sans-serif" font-size="14" lengthAdjust="spacing" textLength="245" x="461" y="105.0234">Markdown markup som tekstformat</text><line style="stroke:#000000;stroke-width:1.0;" x1="456" x2="456" y1="89.4883" y2="109.9766"/><rect fill="none" height="40.9766" rx="5" ry="5" style="stroke:#000000;stroke-width:1.5;" width="382" x="329" y="69"/><rect fill="#F1F1F1" height="40.9766" rx="5" ry="5" style="stroke:#F1F1F1;stroke-width:1.5;" width="348" x="346" y="128"/><text fill="#000000" font-family="sans-serif" font-size="14" font-weight="bold" lengthAdjust="spacing" textLength="71" x="351" y="143.5352">kodeverdi</text><text fill="#000000" font-family="sans-serif" font-size="14" lengthAdjust="spacing" textLength="31" x="478" y="143.5352">html</text><line style="stroke:#000000;stroke-width:1.0;" x1="473" x2="473" y1="128" y2="148.4883"/><line style="stroke:#000000;stroke-width:1.0;" x1="346" x2="694" y1="148.4883" y2="148.4883"/><text fill="#000000" font-family="sans-serif" font-size="14" font-weight="bold" lengthAdjust="spacing" textLength="117" x="351" y="164.0234">kodebeskrivelse</text><text fill="#000000" font-family="sans-serif" font-size="14" lengthAdjust="spacing" textLength="211" x="478" y="164.0234">HTML markup som tekstformat</text><line style="stroke:#000000;stroke-width:1.0;" x1="473" x2="473" y1="148.4883" y2="168.9766"/><rect fill="none" height="40.9766" rx="5" ry="5" style="stroke:#000000;stroke-width:1.5;" width="348" x="346" y="128"/><path d="M280,69.5 L293,69.5 C309.4924,69.5 312.8383,63.786 329,60.5 C342.9695,57.6597 357.562,54.9343 372.1836,52.3642 " fill="none" style="stroke:#000000;stroke-width:1.0;stroke-dasharray:3.0,3.0;"/><path d="M372.7155,55.4225 L374.4774,51.9653 L371.6518,49.3059 L379.8294,51.0345 L372.7155,55.4225 " fill="#000000" style="stroke:#000000;stroke-width:1.0;"/><ellipse cx="280" cy="69.5" fill="#000000" rx="3" ry="3" style="stroke:#000000;stroke-width:1.0;"/><path d="M280,89.5 L293,89.5 C302.479,89.5 312.1811,89.5 321.9803,89.5 " fill="none" style="stroke:#000000;stroke-width:1.0;stroke-dasharray:3.0,3.0;"/><path d="M321.9803,92.5041 L324.2334,89.5 L321.9803,86.4959 L329.4906,89.5 L321.9803,92.5041 " fill="#000000" style="stroke:#000000;stroke-width:1.0;"/><ellipse cx="280" cy="89.5" fill="#000000" rx="3" ry="3" style="stroke:#000000;stroke-width:1.0;"/><path d="M280,109.5 L293,109.5 C309.6058,109.5 312.7625,116.022 329,119.5 C340.7162,122.0096 352.883,124.3846 365.1448,126.6136 " fill="none" style="stroke:#000000;stroke-width:1.0;stroke-dasharray:3.0,3.0;"/><path d="M364.5973,129.6711 L367.438,127.0243 L365.6924,123.556 L372.7887,127.9825 L364.5973,129.6711 " fill="#000000" style="stroke:#000000;stroke-width:1.0;"/><ellipse cx="280" cy="109.5" fill="#000000" rx="3" ry="3" style="stroke:#000000;stroke-width:1.0;"/><path d="M221,89.5 L234,89.5 C243.4213,89.5 253.9164,89.5 262.5483,89.5 " fill="none" style="stroke:#000000;stroke-width:1.0;stroke-dasharray:3.0,3.0;"/><path d="M262.5483,92.5437 L264.8311,89.5 L262.5483,86.4563 L270.1575,89.5 L262.5483,92.5437 " fill="#000000" style="stroke:#000000;stroke-width:1.0;"/><ellipse cx="221" cy="89.5" fill="#000000" rx="3" ry="3" style="stroke:#000000;stroke-width:1.0;"/><!--SRC=[dL7DJi904BxlKqnwWWIQ5emXFH41DKY5sCB5U5ZeW4lRMRAxhI64TtTRG3tru6KEt-zaPgWDLsQl9R4J0t0EIXgPoYmZNf8JW4FIJRMx5NPmbOhIwLIo6simrMOhLSxDXIXHwRsikTA_GAbCC1FQe0NVBG1mgkULiev4E70Bgpq_v1frgaI9cSPQ4bSIq3A7lysruznfoixjyedyekRuyAg2IbuS_bFqQVAikUGv3cVD1NP-i3CR8YNrPzWYusIMrbQTLqW2t-rvlRuxQ4K5GSYFqFF1zuB-8F0y64sY62g-pLfFYvajATG68R4_K69T61lGPbDUSdWho8WS0vWVaARZbni04og5afGZ6JPTXR-2-xlkWp0GeRAhm2faOzpo8ZFMiP69e5q0o_YnEs0pJhk2xsms4Xj9cwkE0RpElm40]--></g></svg>