<?xml version="1.0" encoding="us-ascii" standalone="no"?><svg xmlns="http://www.w3.org/2000/svg" xmlns:xlink="http://www.w3.org/1999/xlink" contentStyleType="text/css" height="593px" preserveAspectRatio="none" style="width:1625px;height:593px;background:#FFFFFF;" version="1.1" viewBox="0 0 1625 593" width="1625px" zoomAndPan="magnify"><defs/><g><rect fill="#F1F1F1" height="102.4414" rx="5" ry="5" style="stroke:#F1F1F1;stroke-width:1.5;" width="1077" x="10" y="203.2793"/><text fill="#000000" font-family="sans-serif" font-size="14" font-weight="bold" lengthAdjust="spacing" textLength="101" x="15" y="218.8145">protokollnavn</text><text fill="#000000" font-family="sans-serif" font-size="14" lengthAdjust="spacing" textLength="102" x="126" y="218.8145">no.ks.fiks.arkiv</text><line style="stroke:#000000;stroke-width:1.0;" x1="121" x2="121" y1="203.2793" y2="223.7676"/><line style="stroke:#000000;stroke-width:1.0;" x1="10" x2="1087" y1="223.7676" y2="223.7676"/><text fill="#000000" font-family="sans-serif" font-size="14" font-weight="bold" lengthAdjust="spacing" textLength="34" x="15" y="239.3027">navn</text><text fill="#000000" font-family="sans-serif" font-size="14" lengthAdjust="spacing" textLength="128" x="126" y="239.3027">tilgangsrestriksjon</text><line style="stroke:#000000;stroke-width:1.0;" x1="121" x2="121" y1="223.7676" y2="244.2559"/><line style="stroke:#000000;stroke-width:1.0;" x1="10" x2="1087" y1="244.2559" y2="244.2559"/><text fill="#000000" font-family="sans-serif" font-size="14" font-weight="bold" lengthAdjust="spacing" textLength="53" x="15" y="259.791">versjon</text><text fill="#000000" font-family="sans-serif" font-size="14" lengthAdjust="spacing" textLength="16" x="126" y="259.791">v1</text><line style="stroke:#000000;stroke-width:1.0;" x1="121" x2="121" y1="244.2559" y2="264.7441"/><line style="stroke:#000000;stroke-width:1.0;" x1="10" x2="1087" y1="264.7441" y2="264.7441"/><text fill="#000000" font-family="sans-serif" font-size="14" font-weight="bold" lengthAdjust="spacing" textLength="73" x="15" y="280.2793">definisjon</text><text fill="#000000" font-family="sans-serif" font-size="14" lengthAdjust="spacing" textLength="956" x="126" y="280.2793">Angivelse av at dokumentene som tilh&#248;rer arkivenheten ikke er offentlig tilgjengelig i henhold til offentlighetsloven eller av en annen grunn</text><line style="stroke:#000000;stroke-width:1.0;" x1="121" x2="121" y1="264.7441" y2="285.2324"/><line style="stroke:#000000;stroke-width:1.0;" x1="10" x2="1087" y1="285.2324" y2="285.2324"/><text fill="#000000" font-family="sans-serif" font-size="14" font-weight="bold" lengthAdjust="spacing" textLength="67" x="15" y="300.7676">kodeliste</text><text fill="#000000" font-family="sans-serif" font-size="14" lengthAdjust="spacing" textLength="12" x="126" y="300.7676">&#160;&#160;&#160;</text><line style="stroke:#000000;stroke-width:1.0;" x1="121" x2="121" y1="285.2324" y2="305.7207"/><rect fill="none" height="102.4414" rx="5" ry="5" style="stroke:#000000;stroke-width:1.5;" width="1077" x="10" y="203.2793"/><rect fill="#F1F1F1" height="204.8828" rx="5" ry="5" style="stroke:#F1F1F1;stroke-width:1.5;" width="22" x="1124" y="193"/><text fill="#000000" font-family="sans-serif" font-size="14" lengthAdjust="spacing" textLength="12" x="1129" y="208.5352">&#160;&#160;&#160;</text><line style="stroke:#000000;stroke-width:1.0;" x1="1124" x2="1146" y1="213.4883" y2="213.4883"/><text fill="#000000" font-family="sans-serif" font-size="14" lengthAdjust="spacing" textLength="12" x="1129" y="229.0234">&#160;&#160;&#160;</text><line style="stroke:#000000;stroke-width:1.0;" x1="1124" x2="1146" y1="233.9766" y2="233.9766"/><text fill="#000000" font-family="sans-serif" font-size="14" lengthAdjust="spacing" textLength="12" x="1129" y="249.5117">&#160;&#160;&#160;</text><line style="stroke:#000000;stroke-width:1.0;" x1="1124" x2="1146" y1="254.4648" y2="254.4648"/><text fill="#000000" font-family="sans-serif" font-size="14" lengthAdjust="spacing" textLength="12" x="1129" y="270">&#160;&#160;&#160;</text><line style="stroke:#000000;stroke-width:1.0;" x1="1124" x2="1146" y1="274.9531" y2="274.9531"/><text fill="#000000" font-family="sans-serif" font-size="14" lengthAdjust="spacing" textLength="12" x="1129" y="290.4883">&#160;&#160;&#160;</text><line style="stroke:#000000;stroke-width:1.0;" x1="1124" x2="1146" y1="295.4414" y2="295.4414"/><text fill="#000000" font-family="sans-serif" font-size="14" lengthAdjust="spacing" textLength="12" x="1129" y="310.9766">&#160;&#160;&#160;</text><line style="stroke:#000000;stroke-width:1.0;" x1="1124" x2="1146" y1="315.9297" y2="315.9297"/><text fill="#000000" font-family="sans-serif" font-size="14" lengthAdjust="spacing" textLength="12" x="1129" y="331.4648">&#160;&#160;&#160;</text><line style="stroke:#000000;stroke-width:1.0;" x1="1124" x2="1146" y1="336.418" y2="336.418"/><text fill="#000000" font-family="sans-serif" font-size="14" lengthAdjust="spacing" textLength="12" x="1129" y="351.9531">&#160;&#160;&#160;</text><line style="stroke:#000000;stroke-width:1.0;" x1="1124" x2="1146" y1="356.9063" y2="356.9063"/><text fill="#000000" font-family="sans-serif" font-size="14" lengthAdjust="spacing" textLength="12" x="1129" y="372.4414">&#160;&#160;&#160;</text><line style="stroke:#000000;stroke-width:1.0;" x1="1124" x2="1146" y1="377.3945" y2="377.3945"/><text fill="#000000" font-family="sans-serif" font-size="14" lengthAdjust="spacing" textLength="12" x="1129" y="392.9297">&#160;&#160;&#160;</text><rect fill="none" height="204.8828" rx="5" ry="5" style="stroke:#000000;stroke-width:1.5;" width="22" x="1124" y="193"/><rect fill="#F1F1F1" height="40.9766" rx="5" ry="5" style="stroke:#F1F1F1;stroke-width:1.5;" width="387" x="1204.5" y="10"/><text fill="#000000" font-family="sans-serif" font-size="14" font-weight="bold" lengthAdjust="spacing" textLength="71" x="1209.5" y="25.5352">kodeverdi</text><text fill="#000000" font-family="sans-serif" font-size="14" lengthAdjust="spacing" textLength="8" x="1336.5" y="25.5352">B</text><line style="stroke:#000000;stroke-width:1.0;" x1="1331.5" x2="1331.5" y1="10" y2="30.4883"/><line style="stroke:#000000;stroke-width:1.0;" x1="1204.5" x2="1591.5" y1="30.4883" y2="30.4883"/><text fill="#000000" font-family="sans-serif" font-size="14" font-weight="bold" lengthAdjust="spacing" textLength="117" x="1209.5" y="46.0234">kodebeskrivelse</text><text fill="#000000" font-family="sans-serif" font-size="14" lengthAdjust="spacing" textLength="250" x="1336.5" y="46.0234">Begrenset etter sikkerhetsinstruksen</text><line style="stroke:#000000;stroke-width:1.0;" x1="1331.5" x2="1331.5" y1="30.4883" y2="50.9766"/><rect fill="none" height="40.9766" rx="5" ry="5" style="stroke:#000000;stroke-width:1.5;" width="387" x="1204.5" y="10"/><rect fill="#F1F1F1" height="40.9766" rx="5" ry="5" style="stroke:#F1F1F1;stroke-width:1.5;" width="409" x="1193.5" y="69"/><text fill="#000000" font-family="sans-serif" font-size="14" font-weight="bold" lengthAdjust="spacing" textLength="71" x="1198.5" y="84.5352">kodeverdi</text><text fill="#000000" font-family="sans-serif" font-size="14" lengthAdjust="spacing" textLength="9" x="1325.5" y="84.5352">K</text><line style="stroke:#000000;stroke-width:1.0;" x1="1320.5" x2="1320.5" y1="69" y2="89.4883"/><line style="stroke:#000000;stroke-width:1.0;" x1="1193.5" x2="1602.5" y1="89.4883" y2="89.4883"/><text fill="#000000" font-family="sans-serif" font-size="14" font-weight="bold" lengthAdjust="spacing" textLength="117" x="1198.5" y="105.0234">kodebeskrivelse</text><text fill="#000000" font-family="sans-serif" font-size="14" lengthAdjust="spacing" textLength="272" x="1325.5" y="105.0234">Konfidensielt etter sikkerhetsinstruksen</text><line style="stroke:#000000;stroke-width:1.0;" x1="1320.5" x2="1320.5" y1="89.4883" y2="109.9766"/><rect fill="none" height="40.9766" rx="5" ry="5" style="stroke:#000000;stroke-width:1.5;" width="409" x="1193.5" y="69"/><rect fill="#F1F1F1" height="40.9766" rx="5" ry="5" style="stroke:#F1F1F1;stroke-width:1.5;" width="397" x="1199.5" y="128"/><text fill="#000000" font-family="sans-serif" font-size="14" font-weight="bold" lengthAdjust="spacing" textLength="71" x="1204.5" y="143.5352">kodeverdi</text><text fill="#000000" font-family="sans-serif" font-size="14" lengthAdjust="spacing" textLength="10" x="1331.5" y="143.5352">H</text><line style="stroke:#000000;stroke-width:1.0;" x1="1326.5" x2="1326.5" y1="128" y2="148.4883"/><line style="stroke:#000000;stroke-width:1.0;" x1="1199.5" x2="1596.5" y1="148.4883" y2="148.4883"/><text fill="#000000" font-family="sans-serif" font-size="14" font-weight="bold" lengthAdjust="spacing" textLength="117" x="1204.5" y="164.0234">kodebeskrivelse</text><text fill="#000000" font-family="sans-serif" font-size="14" lengthAdjust="spacing" textLength="260" x="1331.5" y="164.0234">Hemmeling etter sikkerhetsinstruksen</text><line style="stroke:#000000;stroke-width:1.0;" x1="1326.5" x2="1326.5" y1="148.4883" y2="168.9766"/><rect fill="none" height="40.9766" rx="5" ry="5" style="stroke:#000000;stroke-width:1.5;" width="397" x="1199.5" y="128"/><rect fill="#F1F1F1" height="40.9766" rx="5" ry="5" style="stroke:#F1F1F1;stroke-width:1.5;" width="379" x="1208.5" y="187"/><text fill="#000000" font-family="sans-serif" font-size="14" font-weight="bold" lengthAdjust="spacing" textLength="71" x="1213.5" y="202.5352">kodeverdi</text><text fill="#000000" font-family="sans-serif" font-size="14" lengthAdjust="spacing" textLength="8" x="1340.5" y="202.5352">F</text><line style="stroke:#000000;stroke-width:1.0;" x1="1335.5" x2="1335.5" y1="187" y2="207.4883"/><line style="stroke:#000000;stroke-width:1.0;" x1="1208.5" x2="1587.5" y1="207.4883" y2="207.4883"/><text fill="#000000" font-family="sans-serif" font-size="14" font-weight="bold" lengthAdjust="spacing" textLength="117" x="1213.5" y="223.0234">kodebeskrivelse</text><text fill="#000000" font-family="sans-serif" font-size="14" lengthAdjust="spacing" textLength="242" x="1340.5" y="223.0234">Fortrolig etter sikkerhetsinstruksen</text><line style="stroke:#000000;stroke-width:1.0;" x1="1335.5" x2="1335.5" y1="207.4883" y2="227.9766"/><rect fill="none" height="40.9766" rx="5" ry="5" style="stroke:#000000;stroke-width:1.5;" width="379" x="1208.5" y="187"/><rect fill="#F1F1F1" height="40.9766" rx="5" ry="5" style="stroke:#F1F1F1;stroke-width:1.5;" width="430" x="1183" y="246"/><text fill="#000000" font-family="sans-serif" font-size="14" font-weight="bold" lengthAdjust="spacing" textLength="71" x="1188" y="261.5352">kodeverdi</text><text fill="#000000" font-family="sans-serif" font-size="14" lengthAdjust="spacing" textLength="16" x="1315" y="261.5352">SF</text><line style="stroke:#000000;stroke-width:1.0;" x1="1310" x2="1310" y1="246" y2="266.4883"/><line style="stroke:#000000;stroke-width:1.0;" x1="1183" x2="1613" y1="266.4883" y2="266.4883"/><text fill="#000000" font-family="sans-serif" font-size="14" font-weight="bold" lengthAdjust="spacing" textLength="117" x="1188" y="282.0234">kodebeskrivelse</text><text fill="#000000" font-family="sans-serif" font-size="14" lengthAdjust="spacing" textLength="293" x="1315" y="282.0234">Strengt fortrolig etter sikkerhetsinstruksen</text><line style="stroke:#000000;stroke-width:1.0;" x1="1310" x2="1310" y1="266.4883" y2="286.9766"/><rect fill="none" height="40.9766" rx="5" ry="5" style="stroke:#000000;stroke-width:1.5;" width="430" x="1183" y="246"/><rect fill="#F1F1F1" height="40.9766" rx="5" ry="5" style="stroke:#F1F1F1;stroke-width:1.5;" width="378" x="1209" y="305"/><text fill="#000000" font-family="sans-serif" font-size="14" font-weight="bold" lengthAdjust="spacing" textLength="71" x="1214" y="320.5352">kodeverdi</text><text fill="#000000" font-family="sans-serif" font-size="14" lengthAdjust="spacing" textLength="9" x="1341" y="320.5352">5</text><line style="stroke:#000000;stroke-width:1.0;" x1="1336" x2="1336" y1="305" y2="325.4883"/><line style="stroke:#000000;stroke-width:1.0;" x1="1209" x2="1587" y1="325.4883" y2="325.4883"/><text fill="#000000" font-family="sans-serif" font-size="14" font-weight="bold" lengthAdjust="spacing" textLength="117" x="1214" y="341.0234">kodebeskrivelse</text><text fill="#000000" font-family="sans-serif" font-size="14" lengthAdjust="spacing" textLength="241" x="1341" y="341.0234">Unntatt etter offentlighetsloven &#167; 5</text><line style="stroke:#000000;stroke-width:1.0;" x1="1336" x2="1336" y1="325.4883" y2="345.9766"/><rect fill="none" height="40.9766" rx="5" ry="5" style="stroke:#000000;stroke-width:1.5;" width="378" x="1209" y="305"/><rect fill="#F1F1F1" height="40.9766" rx="5" ry="5" style="stroke:#F1F1F1;stroke-width:1.5;" width="386" x="1205" y="364"/><text fill="#000000" font-family="sans-serif" font-size="14" font-weight="bold" lengthAdjust="spacing" textLength="71" x="1210" y="379.5352">kodeverdi</text><text fill="#000000" font-family="sans-serif" font-size="14" lengthAdjust="spacing" textLength="17" x="1337" y="379.5352">5a</text><line style="stroke:#000000;stroke-width:1.0;" x1="1332" x2="1332" y1="364" y2="384.4883"/><line style="stroke:#000000;stroke-width:1.0;" x1="1205" x2="1591" y1="384.4883" y2="384.4883"/><text fill="#000000" font-family="sans-serif" font-size="14" font-weight="bold" lengthAdjust="spacing" textLength="117" x="1210" y="400.0234">kodebeskrivelse</text><text fill="#000000" font-family="sans-serif" font-size="14" lengthAdjust="spacing" textLength="249" x="1337" y="400.0234">Unntatt etter offentlighetsloven &#167; 5a</text><line style="stroke:#000000;stroke-width:1.0;" x1="1332" x2="1332" y1="384.4883" y2="404.9766"/><rect fill="none" height="40.9766" rx="5" ry="5" style="stroke:#000000;stroke-width:1.5;" width="386" x="1205" y="364"/><rect fill="#F1F1F1" height="40.9766" rx="5" ry="5" style="stroke:#F1F1F1;stroke-width:1.5;" width="378" x="1209" y="423"/><text fill="#000000" font-family="sans-serif" font-size="14" font-weight="bold" lengthAdjust="spacing" textLength="71" x="1214" y="438.5352">kodeverdi</text><text fill="#000000" font-family="sans-serif" font-size="14" lengthAdjust="spacing" textLength="9" x="1341" y="438.5352">6</text><line style="stroke:#000000;stroke-width:1.0;" x1="1336" x2="1336" y1="423" y2="443.4883"/><line style="stroke:#000000;stroke-width:1.0;" x1="1209" x2="1587" y1="443.4883" y2="443.4883"/><text fill="#000000" font-family="sans-serif" font-size="14" font-weight="bold" lengthAdjust="spacing" textLength="117" x="1214" y="459.0234">kodebeskrivelse</text><text fill="#000000" font-family="sans-serif" font-size="14" lengthAdjust="spacing" textLength="241" x="1341" y="459.0234">Unntatt etter offentlighetsloven &#167; 6</text><line style="stroke:#000000;stroke-width:1.0;" x1="1336" x2="1336" y1="443.4883" y2="463.9766"/><rect fill="none" height="40.9766" rx="5" ry="5" style="stroke:#000000;stroke-width:1.5;" width="378" x="1209" y="423"/><rect fill="#F1F1F1" height="40.9766" rx="5" ry="5" style="stroke:#F1F1F1;stroke-width:1.5;" width="387" x="1204.5" y="482"/><text fill="#000000" font-family="sans-serif" font-size="14" font-weight="bold" lengthAdjust="spacing" textLength="71" x="1209.5" y="497.5352">kodeverdi</text><text fill="#000000" font-family="sans-serif" font-size="14" lengthAdjust="spacing" textLength="18" x="1336.5" y="497.5352">11</text><line style="stroke:#000000;stroke-width:1.0;" x1="1331.5" x2="1331.5" y1="482" y2="502.4883"/><line style="stroke:#000000;stroke-width:1.0;" x1="1204.5" x2="1591.5" y1="502.4883" y2="502.4883"/><text fill="#000000" font-family="sans-serif" font-size="14" font-weight="bold" lengthAdjust="spacing" textLength="117" x="1209.5" y="518.0234">kodebeskrivelse</text><text fill="#000000" font-family="sans-serif" font-size="14" lengthAdjust="spacing" textLength="250" x="1336.5" y="518.0234">Unntatt etter offentlighetsloven &#167; 11</text><line style="stroke:#000000;stroke-width:1.0;" x1="1331.5" x2="1331.5" y1="502.4883" y2="522.9766"/><rect fill="none" height="40.9766" rx="5" ry="5" style="stroke:#000000;stroke-width:1.5;" width="387" x="1204.5" y="482"/><rect fill="#F1F1F1" height="40.9766" rx="5" ry="5" style="stroke:#F1F1F1;stroke-width:1.5;" width="264" x="1266" y="541"/><text fill="#000000" font-family="sans-serif" font-size="14" font-weight="bold" lengthAdjust="spacing" textLength="71" x="1271" y="556.5352">kodeverdi</text><text fill="#000000" font-family="sans-serif" font-size="14" lengthAdjust="spacing" textLength="18" x="1398" y="556.5352">XX</text><line style="stroke:#000000;stroke-width:1.0;" x1="1393" x2="1393" y1="541" y2="561.4883"/><line style="stroke:#000000;stroke-width:1.0;" x1="1266" x2="1530" y1="561.4883" y2="561.4883"/><text fill="#000000" font-family="sans-serif" font-size="14" font-weight="bold" lengthAdjust="spacing" textLength="117" x="1271" y="577.0234">kodebeskrivelse</text><text fill="#000000" font-family="sans-serif" font-size="14" lengthAdjust="spacing" textLength="127" x="1398" y="577.0234">Midlertidig sperret</text><line style="stroke:#000000;stroke-width:1.0;" x1="1393" x2="1393" y1="561.4883" y2="581.9766"/><rect fill="none" height="40.9766" rx="5" ry="5" style="stroke:#000000;stroke-width:1.5;" width="264" x="1266" y="541"/><path d="M1134,203.5 L1147,203.5 C1212.9697,203.5 1133.8455,103.4981 1183,59.5 C1187.83,55.1767 1192.983,51.3043 1198.3935,47.8418 " fill="none" style="stroke:#000000;stroke-width:1.0;stroke-dasharray:3.0,3.0;"/><path d="M1199.9451,50.4282 L1200.3333,46.6781 L1196.842,45.2554 L1204.8594,43.9629 L1199.9451,50.4282 " fill="#000000" style="stroke:#000000;stroke-width:1.0;"/><ellipse cx="1134" cy="203.5" fill="#000000" rx="3" ry="3" style="stroke:#000000;stroke-width:1.0;"/><path d="M1134,223.5 L1147,223.5 C1196.3333,223.5 1144.8716,149.805 1183,118.5 C1184.5883,117.1959 1186.2066,115.9343 1187.853,114.714 " fill="none" style="stroke:#000000;stroke-width:1.0;stroke-dasharray:3.0,3.0;"/><path d="M1189.655,117.308 L1189.7985,113.3625 L1186.051,112.1201 L1194.3379,110.2091 L1189.655,117.308 " fill="#000000" style="stroke:#000000;stroke-width:1.0;"/><ellipse cx="1134" cy="223.5" fill="#000000" rx="3" ry="3" style="stroke:#000000;stroke-width:1.0;"/><path d="M1134,244.5 L1147,244.5 C1180.8041,244.5 1155.2166,196.7561 1183,177.5 C1186.2937,175.2172 1189.6851,173.0744 1193.1605,171.0636 " fill="none" style="stroke:#000000;stroke-width:1.0;stroke-dasharray:3.0,3.0;"/><path d="M1194.6429,173.777 L1195.1955,169.9519 L1191.6782,168.3503 L1199.9438,167.3578 L1194.6429,173.777 " fill="#000000" style="stroke:#000000;stroke-width:1.0;"/><ellipse cx="1134" cy="244.5" fill="#000000" rx="3" ry="3" style="stroke:#000000;stroke-width:1.0;"/><path d="M1134,264.5 L1147,264.5 C1167,264.5 1164.5112,245.1265 1183,237.5 C1189.3181,234.8938 1195.8202,232.5065 1202.4485,230.3201 " fill="none" style="stroke:#000000;stroke-width:1.0;stroke-dasharray:3.0,3.0;"/><path d="M1203.3663,233.2158 L1204.6203,229.6318 L1201.5307,227.4245 L1209.6877,228.0256 L1203.3663,233.2158 " fill="#000000" style="stroke:#000000;stroke-width:1.0;"/><ellipse cx="1134" cy="264.5" fill="#000000" rx="3" ry="3" style="stroke:#000000;stroke-width:1.0;"/><path d="M1134,285.5 L1147,285.5 C1156.378,285.5 1165.9478,285.366 1175.6111,285.1204 " fill="none" style="stroke:#000000;stroke-width:1.0;stroke-dasharray:3.0,3.0;"/><path d="M1175.6992,288.2276 L1177.9414,285.0543 L1175.5229,282.0132 L1183.379,284.9 L1175.6992,288.2276 " fill="#000000" style="stroke:#000000;stroke-width:1.0;"/><ellipse cx="1134" cy="285.5" fill="#000000" rx="3" ry="3" style="stroke:#000000;stroke-width:1.0;"/><path d="M1134,305.5 L1147,305.5 C1164.6557,305.5 1182.9892,305.9998 1201.3451,306.8414 " fill="none" style="stroke:#000000;stroke-width:1.0;stroke-dasharray:3.0,3.0;"/><path d="M1201.1926,309.9879 L1203.705,306.9557 L1201.4975,303.6949 L1209.2113,307.2225 L1201.1926,309.9879 " fill="#000000" style="stroke:#000000;stroke-width:1.0;"/><ellipse cx="1134" cy="305.5" fill="#000000" rx="3" ry="3" style="stroke:#000000;stroke-width:1.0;"/><path d="M1134,326.5 L1147,326.5 C1167.5456,326.5 1164.1266,347.381 1183,355.5 C1187.9838,357.6439 1193.0877,359.6383 1198.2823,361.4931 " fill="none" style="stroke:#000000;stroke-width:1.0;stroke-dasharray:3.0,3.0;"/><path d="M1197.3048,364.3479 L1200.4234,362.2262 L1199.2598,358.6383 L1205.4193,363.9369 L1197.3048,364.3479 " fill="#000000" style="stroke:#000000;stroke-width:1.0;"/><ellipse cx="1134" cy="326.5" fill="#000000" rx="3" ry="3" style="stroke:#000000;stroke-width:1.0;"/><path d="M1134,346.5 L1147,346.5 C1181.1962,346.5 1154.9543,394.9342 1183,414.5 C1189.1832,418.8136 1195.7146,422.6293 1202.5017,425.9984 " fill="none" style="stroke:#000000;stroke-width:1.0;stroke-dasharray:3.0,3.0;"/><path d="M1201.2128,428.746 L1204.5624,426.9651 L1203.7906,423.2509 L1209.3707,429.2207 L1201.2128,428.746 " fill="#000000" style="stroke:#000000;stroke-width:1.0;"/><ellipse cx="1134" cy="346.5" fill="#000000" rx="3" ry="3" style="stroke:#000000;stroke-width:1.0;"/><path d="M1134,367.5 L1147,367.5 C1196.754,367.5 1144.5923,441.8724 1183,473.5 C1187.7932,477.4471 1192.8613,481.0055 1198.1488,484.2089 " fill="none" style="stroke:#000000;stroke-width:1.0;stroke-dasharray:3.0,3.0;"/><path d="M1196.6007,486.9331 L1200.192,485.37 L1199.697,481.4846 L1204.9595,488.0792 L1196.6007,486.9331 " fill="#000000" style="stroke:#000000;stroke-width:1.0;"/><ellipse cx="1134" cy="367.5" fill="#000000" rx="3" ry="3" style="stroke:#000000;stroke-width:1.0;"/><path d="M1134,387.5 L1147,387.5 C1213.401,387.5 1133.5601,488.1741 1183,532.5 C1203.997,551.3251 1231.1161,561.6054 1258.9638,566.7329 " fill="none" style="stroke:#000000;stroke-width:1.0;stroke-dasharray:3.0,3.0;"/><path d="M1258.4623,569.7246 L1261.2075,567.109 L1259.4652,563.7412 L1266.4429,567.9865 L1258.4623,569.7246 " fill="#000000" style="stroke:#000000;stroke-width:1.0;"/><ellipse cx="1134" cy="387.5" fill="#000000" rx="3" ry="3" style="stroke:#000000;stroke-width:1.0;"/><path d="M1075,295.5 L1088,295.5 C1097.4213,295.5 1107.9164,295.5 1116.5483,295.5 " fill="none" style="stroke:#000000;stroke-width:1.0;stroke-dasharray:3.0,3.0;"/><path d="M1116.5483,298.5437 L1118.8311,295.5 L1116.5483,292.4563 L1124.1575,295.5 L1116.5483,298.5437 " fill="#000000" style="stroke:#000000;stroke-width:1.0;"/><ellipse cx="1075" cy="295.5" fill="#000000" rx="3" ry="3" style="stroke:#000000;stroke-width:1.0;"/><!--SRC=[hPJDJjj04CVlVegHJo1158SIHJvH82dAHq648AIgXmMFDnjlPgFTjIM4U1vUeUVoOfrradAft4ZXCh9d_lx_PZyyPyuBwnVEKFGI0SGhQxmfZDOaAefJYCcq2jVA5GTX2rN5Hq6shNgbfI3fB3flMRCmj1PKQEiNrbJ9EfLXhaXjirz9gWgrGn0L20-PASebaaT2S6O9x3n__sNHGer5cYFNG1K50YTDdhDOAnc4Se4aCRmecBFIw2oaFqJyhTE6JG2r3fOLyBCWuYXjIPkc2vEnY_F83VxW1C1B7JSbNbEcOk3cpslzty8ZkiAkLxCkexH83ZsWzunpeMiRcb34-rGM3Yck3LwFcZ2ZPip8KAuo1YdK-wAkcb5Nk5porf3S4pDenWoCzTQ4WzmFC_qFP-hvVAI7_9Dufysu6P4NVdj4_xYLlz_WT2UE-0IGs8NKtH_KtOMJ9Fk3s6C7qiD3CscYCXuDNcLy6zmAhKM_iUNuCtgDpf2oUb16DrgGdqt64AQSCWH9gzFkdBHw1zEIO2AUePD0qavFUccx3HVzwHs4-c5qyErcpDEjj4y8cGeZyx7qR70O3KKbuBOahvQOmlKAQNWvsYQWJvMoXi9yZ8Rtamz1zylnkV8mHSkjmFqakiHSb3mD-lHaClvVKvZT3OvxqPYdT2aaUoD55uPzxNCAtw__0000]--></g></svg>