<?xml version="1.0" encoding="us-ascii" standalone="no"?><svg xmlns="http://www.w3.org/2000/svg" xmlns:xlink="http://www.w3.org/1999/xlink" contentStyleType="text/css" height="239px" preserveAspectRatio="none" style="width:879px;height:239px;background:#FFFFFF;" version="1.1" viewBox="0 0 879 239" width="879px" zoomAndPan="magnify"><defs/><g><rect fill="#F1F1F1" height="102.4414" rx="5" ry="5" style="stroke:#F1F1F1;stroke-width:1.5;" width="480" x="10" y="26.2793"/><text fill="#000000" font-family="sans-serif" font-size="14" font-weight="bold" lengthAdjust="spacing" textLength="101" x="15" y="41.8145">protokollnavn</text><text fill="#000000" font-family="sans-serif" font-size="14" lengthAdjust="spacing" textLength="102" x="126" y="41.8145">no.ks.fiks.arkiv</text><line style="stroke:#000000;stroke-width:1.0;" x1="121" x2="121" y1="26.2793" y2="46.7676"/><line style="stroke:#000000;stroke-width:1.0;" x1="10" x2="490" y1="46.7676" y2="46.7676"/><text fill="#000000" font-family="sans-serif" font-size="14" font-weight="bold" lengthAdjust="spacing" textLength="34" x="15" y="62.3027">navn</text><text fill="#000000" font-family="sans-serif" font-size="14" lengthAdjust="spacing" textLength="95" x="126" y="62.3027">arkivdelstatus</text><line style="stroke:#000000;stroke-width:1.0;" x1="121" x2="121" y1="46.7676" y2="67.2559"/><line style="stroke:#000000;stroke-width:1.0;" x1="10" x2="490" y1="67.2559" y2="67.2559"/><text fill="#000000" font-family="sans-serif" font-size="14" font-weight="bold" lengthAdjust="spacing" textLength="53" x="15" y="82.791">versjon</text><text fill="#000000" font-family="sans-serif" font-size="14" lengthAdjust="spacing" textLength="16" x="126" y="82.791">v1</text><line style="stroke:#000000;stroke-width:1.0;" x1="121" x2="121" y1="67.2559" y2="87.7441"/><line style="stroke:#000000;stroke-width:1.0;" x1="10" x2="490" y1="87.7441" y2="87.7441"/><text fill="#000000" font-family="sans-serif" font-size="14" font-weight="bold" lengthAdjust="spacing" textLength="73" x="15" y="103.2793">definisjon</text><text fill="#000000" font-family="sans-serif" font-size="14" lengthAdjust="spacing" textLength="359" x="126" y="103.2793">Status til den arkivperioden som arkivdelen omfatter</text><line style="stroke:#000000;stroke-width:1.0;" x1="121" x2="121" y1="87.7441" y2="108.2324"/><line style="stroke:#000000;stroke-width:1.0;" x1="10" x2="490" y1="108.2324" y2="108.2324"/><text fill="#000000" font-family="sans-serif" font-size="14" font-weight="bold" lengthAdjust="spacing" textLength="67" x="15" y="123.7676">kodeliste</text><text fill="#000000" font-family="sans-serif" font-size="14" lengthAdjust="spacing" textLength="12" x="126" y="123.7676">&#160;&#160;&#160;</text><line style="stroke:#000000;stroke-width:1.0;" x1="121" x2="121" y1="108.2324" y2="128.7207"/><rect fill="none" height="102.4414" rx="5" ry="5" style="stroke:#000000;stroke-width:1.5;" width="480" x="10" y="26.2793"/><rect fill="#F1F1F1" height="81.9531" rx="5" ry="5" style="stroke:#F1F1F1;stroke-width:1.5;" width="22" x="527" y="77.5"/><text fill="#000000" font-family="sans-serif" font-size="14" lengthAdjust="spacing" textLength="12" x="532" y="93.0352">&#160;&#160;&#160;</text><line style="stroke:#000000;stroke-width:1.0;" x1="527" x2="549" y1="97.9883" y2="97.9883"/><text fill="#000000" font-family="sans-serif" font-size="14" lengthAdjust="spacing" textLength="12" x="532" y="113.5234">&#160;&#160;&#160;</text><line style="stroke:#000000;stroke-width:1.0;" x1="527" x2="549" y1="118.4766" y2="118.4766"/><text fill="#000000" font-family="sans-serif" font-size="14" lengthAdjust="spacing" textLength="12" x="532" y="134.0117">&#160;&#160;&#160;</text><line style="stroke:#000000;stroke-width:1.0;" x1="527" x2="549" y1="138.9648" y2="138.9648"/><text fill="#000000" font-family="sans-serif" font-size="14" lengthAdjust="spacing" textLength="12" x="532" y="154.5">&#160;&#160;&#160;</text><rect fill="none" height="81.9531" rx="5" ry="5" style="stroke:#000000;stroke-width:1.5;" width="22" x="527" y="77.5"/><rect fill="#F1F1F1" height="40.9766" rx="5" ry="5" style="stroke:#F1F1F1;stroke-width:1.5;" width="228" x="612.5" y="10"/><text fill="#000000" font-family="sans-serif" font-size="14" font-weight="bold" lengthAdjust="spacing" textLength="71" x="617.5" y="25.5352">kodeverdi</text><text fill="#000000" font-family="sans-serif" font-size="14" lengthAdjust="spacing" textLength="10" x="744.5" y="25.5352">A</text><line style="stroke:#000000;stroke-width:1.0;" x1="739.5" x2="739.5" y1="10" y2="30.4883"/><line style="stroke:#000000;stroke-width:1.0;" x1="612.5" x2="840.5" y1="30.4883" y2="30.4883"/><text fill="#000000" font-family="sans-serif" font-size="14" font-weight="bold" lengthAdjust="spacing" textLength="117" x="617.5" y="46.0234">kodebeskrivelse</text><text fill="#000000" font-family="sans-serif" font-size="14" lengthAdjust="spacing" textLength="91" x="744.5" y="46.0234">Aktiv periode</text><line style="stroke:#000000;stroke-width:1.0;" x1="739.5" x2="739.5" y1="30.4883" y2="50.9766"/><rect fill="none" height="40.9766" rx="5" ry="5" style="stroke:#000000;stroke-width:1.5;" width="228" x="612.5" y="10"/><rect fill="#F1F1F1" height="40.9766" rx="5" ry="5" style="stroke:#F1F1F1;stroke-width:1.5;" width="281" x="586" y="69"/><text fill="#000000" font-family="sans-serif" font-size="14" font-weight="bold" lengthAdjust="spacing" textLength="71" x="591" y="84.5352">kodeverdi</text><text fill="#000000" font-family="sans-serif" font-size="14" lengthAdjust="spacing" textLength="11" x="718" y="84.5352">O</text><line style="stroke:#000000;stroke-width:1.0;" x1="713" x2="713" y1="69" y2="89.4883"/><line style="stroke:#000000;stroke-width:1.0;" x1="586" x2="867" y1="89.4883" y2="89.4883"/><text fill="#000000" font-family="sans-serif" font-size="14" font-weight="bold" lengthAdjust="spacing" textLength="117" x="591" y="105.0234">kodebeskrivelse</text><text fill="#000000" font-family="sans-serif" font-size="14" lengthAdjust="spacing" textLength="144" x="718" y="105.0234">Overlappingsperiode</text><line style="stroke:#000000;stroke-width:1.0;" x1="713" x2="713" y1="89.4883" y2="109.9766"/><rect fill="none" height="40.9766" rx="5" ry="5" style="stroke:#000000;stroke-width:1.5;" width="281" x="586" y="69"/><rect fill="#F1F1F1" height="40.9766" rx="5" ry="5" style="stroke:#F1F1F1;stroke-width:1.5;" width="254" x="599.5" y="128"/><text fill="#000000" font-family="sans-serif" font-size="14" font-weight="bold" lengthAdjust="spacing" textLength="71" x="604.5" y="143.5352">kodeverdi</text><text fill="#000000" font-family="sans-serif" font-size="14" lengthAdjust="spacing" textLength="8" x="731.5" y="143.5352">P</text><line style="stroke:#000000;stroke-width:1.0;" x1="726.5" x2="726.5" y1="128" y2="148.4883"/><line style="stroke:#000000;stroke-width:1.0;" x1="599.5" x2="853.5" y1="148.4883" y2="148.4883"/><text fill="#000000" font-family="sans-serif" font-size="14" font-weight="bold" lengthAdjust="spacing" textLength="117" x="604.5" y="164.0234">kodebeskrivelse</text><text fill="#000000" font-family="sans-serif" font-size="14" lengthAdjust="spacing" textLength="117" x="731.5" y="164.0234">Avsluttet periode</text><line style="stroke:#000000;stroke-width:1.0;" x1="726.5" x2="726.5" y1="148.4883" y2="168.9766"/><rect fill="none" height="40.9766" rx="5" ry="5" style="stroke:#000000;stroke-width:1.5;" width="254" x="599.5" y="128"/><rect fill="#F1F1F1" height="40.9766" rx="5" ry="5" style="stroke:#F1F1F1;stroke-width:1.5;" width="258" x="597.5" y="187"/><text fill="#000000" font-family="sans-serif" font-size="14" font-weight="bold" lengthAdjust="spacing" textLength="71" x="602.5" y="202.5352">kodeverdi</text><text fill="#000000" font-family="sans-serif" font-size="14" lengthAdjust="spacing" textLength="10" x="729.5" y="202.5352">U</text><line style="stroke:#000000;stroke-width:1.0;" x1="724.5" x2="724.5" y1="187" y2="207.4883"/><line style="stroke:#000000;stroke-width:1.0;" x1="597.5" x2="855.5" y1="207.4883" y2="207.4883"/><text fill="#000000" font-family="sans-serif" font-size="14" font-weight="bold" lengthAdjust="spacing" textLength="117" x="602.5" y="223.0234">kodebeskrivelse</text><text fill="#000000" font-family="sans-serif" font-size="14" lengthAdjust="spacing" textLength="121" x="729.5" y="223.0234">Uaktuelle mapper</text><line style="stroke:#000000;stroke-width:1.0;" x1="724.5" x2="724.5" y1="207.4883" y2="227.9766"/><rect fill="none" height="40.9766" rx="5" ry="5" style="stroke:#000000;stroke-width:1.5;" width="258" x="597.5" y="187"/><path d="M537,87.5 L550,87.5 C570.2698,87.5 567.5979,67.9987 586,59.5 C592.2885,56.5958 598.8696,53.9801 605.6048,51.6246 " fill="none" style="stroke:#000000;stroke-width:1.0;stroke-dasharray:3.0,3.0;"/><path d="M606.5869,54.5695 L607.8135,50.8881 L604.6228,48.6797 L612.9672,49.1694 L606.5869,54.5695 " fill="#000000" style="stroke:#000000;stroke-width:1.0;"/><ellipse cx="537" cy="87.5" fill="#000000" rx="3" ry="3" style="stroke:#000000;stroke-width:1.0;"/><path d="M537,108.5 L550,108.5 C559.3364,108.5 568.9353,108.2324 578.6031,107.7608 " fill="none" style="stroke:#000000;stroke-width:1.0;stroke-dasharray:3.0,3.0;"/><path d="M578.7714,110.8666 L580.9324,107.6346 L578.4348,104.6551 L586.3675,107.3401 L578.7714,110.8666 " fill="#000000" style="stroke:#000000;stroke-width:1.0;"/><ellipse cx="537" cy="108.5" fill="#000000" rx="3" ry="3" style="stroke:#000000;stroke-width:1.0;"/><path d="M537,128.5 L550,128.5 C563.6223,128.5 577.7999,129.0988 591.9328,130.0892 " fill="none" style="stroke:#000000;stroke-width:1.0;stroke-dasharray:3.0,3.0;"/><path d="M591.6972,133.2265 L594.2858,130.266 L592.1685,126.9519 L599.7761,130.6784 L591.6972,133.2265 " fill="#000000" style="stroke:#000000;stroke-width:1.0;"/><ellipse cx="537" cy="128.5" fill="#000000" rx="3" ry="3" style="stroke:#000000;stroke-width:1.0;"/><path d="M537,149.5 L550,149.5 C570.5456,149.5 567.4217,169.7267 586,178.5 C590.3452,180.5519 594.8338,182.4593 599.4193,184.2324 " fill="none" style="stroke:#000000;stroke-width:1.0;stroke-dasharray:3.0,3.0;"/><path d="M598.3485,187.1439 L601.6029,185.0355 L600.4901,181.3208 L606.6981,186.9094 L598.3485,187.1439 " fill="#000000" style="stroke:#000000;stroke-width:1.0;"/><ellipse cx="537" cy="149.5" fill="#000000" rx="3" ry="3" style="stroke:#000000;stroke-width:1.0;"/><path d="M478,118.5 L491,118.5 C500.4213,118.5 510.9164,118.5 519.5483,118.5 " fill="none" style="stroke:#000000;stroke-width:1.0;stroke-dasharray:3.0,3.0;"/><path d="M519.5483,121.5437 L521.8311,118.5 L519.5483,115.4563 L527.1575,118.5 L519.5483,121.5437 " fill="#000000" style="stroke:#000000;stroke-width:1.0;"/><ellipse cx="478" cy="118.5" fill="#000000" rx="3" ry="3" style="stroke:#000000;stroke-width:1.0;"/><!--SRC=[bP9FJm8n4CNl_HIJFM6Y1D0OiYVydo084V5YF1Hs87MxqqqxRMACtzrXL_I6yJ99ttlxcsbdHu6rvxVWI7qeWApsZbtfh2MTACiX8zSjGtTZf6XVcfGTxs9xjv4Aj4BX65eleGzlhh5JlvKAt1WoUtNHX86DXG896aQDthZTARWAzbGvkcgZcT6td58YrWH6mRo80F3Hr6zBEXSc0sbnqUH_Z1M6qfiaSs9hbsmIVFVCckJdyI7Ux31l9achwzhGDlo3ElzZoXHibClpVoPT7cOkTSaHhKMeP5vvrnOfzLLzgX5IqVmBQcuryN8wWTqsZIFeTmUzmMbts5b4Wgb-Xq4V-htyT9ZtUd1ritY2dN-aEdVpYImn-ZL28QloPXLP04Tgh9E6nqXiAinXLYEDh-_t0jnGCjvHXSHg_3pz3PoVdLmQXWLw6GMUf-eQDpfQbY_Mhf0Nps7vT7ioL1DDswYtmaPILqwu_Zs7XzaN]--></g></svg>