<?xml version="1.0" encoding="us-ascii" standalone="no"?><svg xmlns="http://www.w3.org/2000/svg" xmlns:xlink="http://www.w3.org/1999/xlink" contentStyleType="text/css" height="164px" preserveAspectRatio="none" style="width:828px;height:164px;background:#FFFFFF;" version="1.1" viewBox="0 0 828 164" width="828px" zoomAndPan="magnify"><defs/><g><rect fill="#F1F1F1" height="102.4414" rx="5" ry="5" style="stroke:#F1F1F1;stroke-width:1.5;" width="504" x="10" y="10"/><text fill="#000000" font-family="sans-serif" font-size="14" font-weight="bold" lengthAdjust="spacing" textLength="101" x="15" y="25.5352">protokollnavn</text><text fill="#000000" font-family="sans-serif" font-size="14" lengthAdjust="spacing" textLength="102" x="126" y="25.5352">no.ks.fiks.arkiv</text><line style="stroke:#000000;stroke-width:1.0;" x1="121" x2="121" y1="10" y2="30.4883"/><line style="stroke:#000000;stroke-width:1.0;" x1="10" x2="514" y1="30.4883" y2="30.4883"/><text fill="#000000" font-family="sans-serif" font-size="14" font-weight="bold" lengthAdjust="spacing" textLength="34" x="15" y="46.0234">navn</text><text fill="#000000" font-family="sans-serif" font-size="14" lengthAdjust="spacing" textLength="112" x="126" y="46.0234">presedensstatus</text><line style="stroke:#000000;stroke-width:1.0;" x1="121" x2="121" y1="30.4883" y2="50.9766"/><line style="stroke:#000000;stroke-width:1.0;" x1="10" x2="514" y1="50.9766" y2="50.9766"/><text fill="#000000" font-family="sans-serif" font-size="14" font-weight="bold" lengthAdjust="spacing" textLength="53" x="15" y="66.5117">versjon</text><text fill="#000000" font-family="sans-serif" font-size="14" lengthAdjust="spacing" textLength="16" x="126" y="66.5117">v1</text><line style="stroke:#000000;stroke-width:1.0;" x1="121" x2="121" y1="50.9766" y2="71.4648"/><line style="stroke:#000000;stroke-width:1.0;" x1="10" x2="514" y1="71.4648" y2="71.4648"/><text fill="#000000" font-family="sans-serif" font-size="14" font-weight="bold" lengthAdjust="spacing" textLength="73" x="15" y="87">definisjon</text><text fill="#000000" font-family="sans-serif" font-size="14" lengthAdjust="spacing" textLength="383" x="126" y="87">Informasjon om presedensen er gjeldende eller foreldet</text><line style="stroke:#000000;stroke-width:1.0;" x1="121" x2="121" y1="71.4648" y2="91.9531"/><line style="stroke:#000000;stroke-width:1.0;" x1="10" x2="514" y1="91.9531" y2="91.9531"/><text fill="#000000" font-family="sans-serif" font-size="14" font-weight="bold" lengthAdjust="spacing" textLength="67" x="15" y="107.4883">kodeliste</text><text fill="#000000" font-family="sans-serif" font-size="14" lengthAdjust="spacing" textLength="12" x="126" y="107.4883">&#160;&#160;&#160;</text><line style="stroke:#000000;stroke-width:1.0;" x1="121" x2="121" y1="91.9531" y2="112.4414"/><rect fill="none" height="102.4414" rx="5" ry="5" style="stroke:#000000;stroke-width:1.5;" width="504" x="10" y="10"/><rect fill="#F1F1F1" height="40.9766" rx="5" ry="5" style="stroke:#F1F1F1;stroke-width:1.5;" width="22" x="551" y="81.7207"/><text fill="#000000" font-family="sans-serif" font-size="14" lengthAdjust="spacing" textLength="12" x="556" y="97.2559">&#160;&#160;&#160;</text><line style="stroke:#000000;stroke-width:1.0;" x1="551" x2="573" y1="102.209" y2="102.209"/><text fill="#000000" font-family="sans-serif" font-size="14" lengthAdjust="spacing" textLength="12" x="556" y="117.7441">&#160;&#160;&#160;</text><rect fill="none" height="40.9766" rx="5" ry="5" style="stroke:#000000;stroke-width:1.5;" width="22" x="551" y="81.7207"/><rect fill="#F1F1F1" height="40.9766" rx="5" ry="5" style="stroke:#F1F1F1;stroke-width:1.5;" width="206" x="610" y="52.7207"/><text fill="#000000" font-family="sans-serif" font-size="14" font-weight="bold" lengthAdjust="spacing" textLength="71" x="615" y="68.2559">kodeverdi</text><text fill="#000000" font-family="sans-serif" font-size="14" lengthAdjust="spacing" textLength="10" x="742" y="68.2559">G</text><line style="stroke:#000000;stroke-width:1.0;" x1="737" x2="737" y1="52.7207" y2="73.209"/><line style="stroke:#000000;stroke-width:1.0;" x1="610" x2="816" y1="73.209" y2="73.209"/><text fill="#000000" font-family="sans-serif" font-size="14" font-weight="bold" lengthAdjust="spacing" textLength="117" x="615" y="88.7441">kodebeskrivelse</text><text fill="#000000" font-family="sans-serif" font-size="14" lengthAdjust="spacing" textLength="69" x="742" y="88.7441">Gjeldende</text><line style="stroke:#000000;stroke-width:1.0;" x1="737" x2="737" y1="73.209" y2="93.6973"/><rect fill="none" height="40.9766" rx="5" ry="5" style="stroke:#000000;stroke-width:1.5;" width="206" x="610" y="52.7207"/><rect fill="#F1F1F1" height="40.9766" rx="5" ry="5" style="stroke:#F1F1F1;stroke-width:1.5;" width="194" x="616" y="111.7207"/><text fill="#000000" font-family="sans-serif" font-size="14" font-weight="bold" lengthAdjust="spacing" textLength="71" x="621" y="127.2559">kodeverdi</text><text fill="#000000" font-family="sans-serif" font-size="14" lengthAdjust="spacing" textLength="8" x="748" y="127.2559">F</text><line style="stroke:#000000;stroke-width:1.0;" x1="743" x2="743" y1="111.7207" y2="132.209"/><line style="stroke:#000000;stroke-width:1.0;" x1="616" x2="810" y1="132.209" y2="132.209"/><text fill="#000000" font-family="sans-serif" font-size="14" font-weight="bold" lengthAdjust="spacing" textLength="117" x="621" y="147.7441">kodebeskrivelse</text><text fill="#000000" font-family="sans-serif" font-size="14" lengthAdjust="spacing" textLength="57" x="748" y="147.7441">Foreldet</text><line style="stroke:#000000;stroke-width:1.0;" x1="743" x2="743" y1="132.209" y2="152.6973"/><rect fill="none" height="40.9766" rx="5" ry="5" style="stroke:#000000;stroke-width:1.5;" width="194" x="616" y="111.7207"/><path d="M561,92.2207 L574,92.2207 C583.2881,92.2207 592.8944,91.7961 602.5162,91.0739 " fill="none" style="stroke:#000000;stroke-width:1.0;stroke-dasharray:3.0,3.0;"/><path d="M602.7724,94.1594 L604.8303,90.8817 L602.2599,87.9883 L610.2301,90.4332 L602.7724,94.1594 " fill="#000000" style="stroke:#000000;stroke-width:1.0;"/><ellipse cx="561" cy="92.2207" fill="#000000" rx="3" ry="3" style="stroke:#000000;stroke-width:1.0;"/><path d="M561,112.2207 L574,112.2207 C585.26,112.2207 596.9825,112.8763 608.631,113.95 " fill="none" style="stroke:#000000;stroke-width:1.0;stroke-dasharray:3.0,3.0;"/><path d="M608.3256,117.0054 L610.9225,114.179 L608.9363,110.8946 L616.2694,114.7133 L608.3256,117.0054 " fill="#000000" style="stroke:#000000;stroke-width:1.0;"/><ellipse cx="561" cy="112.2207" fill="#000000" rx="3" ry="3" style="stroke:#000000;stroke-width:1.0;"/><path d="M502,102.2207 L515,102.2207 C524.4213,102.2207 534.9164,102.2207 543.5483,102.2207 " fill="none" style="stroke:#000000;stroke-width:1.0;stroke-dasharray:3.0,3.0;"/><path d="M543.5483,105.2644 L545.8311,102.2207 L543.5483,99.177 L551.1575,102.2207 L543.5483,105.2644 " fill="#000000" style="stroke:#000000;stroke-width:1.0;"/><ellipse cx="502" cy="102.2207" fill="#000000" rx="3" ry="3" style="stroke:#000000;stroke-width:1.0;"/><!--SRC=[VP1DRy8m38Rl-HLMJo01AZ1Dg2SqlZG60usFoxH3e0Q51WSbQIM4-EzpsvNTk5Zo-xvvRAVllBJ-v0o9cm08BjPuanYjIMOKH12GQIMkTL1Sf4rK5ZJoMELUB3gCaHnZVEfACqFhJgRmitOfnNXGf2hrdGx6dcNUWZd30u84QE5uGirTZ81QSy_PNF0bAJ4nQkKyCkYR1O1RKVyidXsh07Z8fCW_Z1swnAeCjSFIhgO4HUhUUCOQFsUDgmrB5DSVSHTzfXSVAvPQaj_CPv3_ZEAZswrEsEcsUhLLIZ2NL-YqeHr6tLuKXZ0OhTQG-tLHcondu4ngzmWn7stLBlKCg8kfp2HyfUJL6IDON92cmuzAW15boXew8tantSx_0wylpJVbOOMMLu7jN0pn85Fj-SNUn8gE4MpMusPFp2GTKtbaDf8O6ERQQmIVYry0]--></g></svg>