<?xml version="1.0" encoding="us-ascii" standalone="no"?><svg xmlns="http://www.w3.org/2000/svg" xmlns:xlink="http://www.w3.org/1999/xlink" contentStyleType="text/css" height="711px" preserveAspectRatio="none" style="width:1103px;height:711px;background:#FFFFFF;" version="1.1" viewBox="0 0 1103 711" width="1103px" zoomAndPan="magnify"><defs/><g><rect fill="#F1F1F1" height="102.4414" rx="5" ry="5" style="stroke:#F1F1F1;stroke-width:1.5;" width="516" x="10" y="262.2793"/><text fill="#000000" font-family="sans-serif" font-size="14" font-weight="bold" lengthAdjust="spacing" textLength="101" x="15" y="277.8145">protokollnavn</text><text fill="#000000" font-family="sans-serif" font-size="14" lengthAdjust="spacing" textLength="102" x="126" y="277.8145">no.ks.fiks.arkiv</text><line style="stroke:#000000;stroke-width:1.0;" x1="121" x2="121" y1="262.2793" y2="282.7676"/><line style="stroke:#000000;stroke-width:1.0;" x1="10" x2="526" y1="282.7676" y2="282.7676"/><text fill="#000000" font-family="sans-serif" font-size="14" font-weight="bold" lengthAdjust="spacing" textLength="34" x="15" y="298.3027">navn</text><text fill="#000000" font-family="sans-serif" font-size="14" lengthAdjust="spacing" textLength="132" x="126" y="298.3027">skjermingmetadata</text><line style="stroke:#000000;stroke-width:1.0;" x1="121" x2="121" y1="282.7676" y2="303.2559"/><line style="stroke:#000000;stroke-width:1.0;" x1="10" x2="526" y1="303.2559" y2="303.2559"/><text fill="#000000" font-family="sans-serif" font-size="14" font-weight="bold" lengthAdjust="spacing" textLength="53" x="15" y="318.791">versjon</text><text fill="#000000" font-family="sans-serif" font-size="14" lengthAdjust="spacing" textLength="16" x="126" y="318.791">v1</text><line style="stroke:#000000;stroke-width:1.0;" x1="121" x2="121" y1="303.2559" y2="323.7441"/><line style="stroke:#000000;stroke-width:1.0;" x1="10" x2="526" y1="323.7441" y2="323.7441"/><text fill="#000000" font-family="sans-serif" font-size="14" font-weight="bold" lengthAdjust="spacing" textLength="73" x="15" y="339.2793">definisjon</text><text fill="#000000" font-family="sans-serif" font-size="14" lengthAdjust="spacing" textLength="395" x="126" y="339.2793">Angivelse av hvilke metadataelementer som skal skjermes</text><line style="stroke:#000000;stroke-width:1.0;" x1="121" x2="121" y1="323.7441" y2="344.2324"/><line style="stroke:#000000;stroke-width:1.0;" x1="10" x2="526" y1="344.2324" y2="344.2324"/><text fill="#000000" font-family="sans-serif" font-size="14" font-weight="bold" lengthAdjust="spacing" textLength="67" x="15" y="359.7676">kodeliste</text><text fill="#000000" font-family="sans-serif" font-size="14" lengthAdjust="spacing" textLength="12" x="126" y="359.7676">&#160;&#160;&#160;</text><line style="stroke:#000000;stroke-width:1.0;" x1="121" x2="121" y1="344.2324" y2="364.7207"/><rect fill="none" height="102.4414" rx="5" ry="5" style="stroke:#000000;stroke-width:1.5;" width="516" x="10" y="262.2793"/><rect fill="#F1F1F1" height="245.8594" rx="5" ry="5" style="stroke:#F1F1F1;stroke-width:1.5;" width="22" x="563" y="231.5"/><text fill="#000000" font-family="sans-serif" font-size="14" lengthAdjust="spacing" textLength="12" x="568" y="247.0352">&#160;&#160;&#160;</text><line style="stroke:#000000;stroke-width:1.0;" x1="563" x2="585" y1="251.9883" y2="251.9883"/><text fill="#000000" font-family="sans-serif" font-size="14" lengthAdjust="spacing" textLength="12" x="568" y="267.5234">&#160;&#160;&#160;</text><line style="stroke:#000000;stroke-width:1.0;" x1="563" x2="585" y1="272.4766" y2="272.4766"/><text fill="#000000" font-family="sans-serif" font-size="14" lengthAdjust="spacing" textLength="12" x="568" y="288.0117">&#160;&#160;&#160;</text><line style="stroke:#000000;stroke-width:1.0;" x1="563" x2="585" y1="292.9648" y2="292.9648"/><text fill="#000000" font-family="sans-serif" font-size="14" lengthAdjust="spacing" textLength="12" x="568" y="308.5">&#160;&#160;&#160;</text><line style="stroke:#000000;stroke-width:1.0;" x1="563" x2="585" y1="313.4531" y2="313.4531"/><text fill="#000000" font-family="sans-serif" font-size="14" lengthAdjust="spacing" textLength="12" x="568" y="328.9883">&#160;&#160;&#160;</text><line style="stroke:#000000;stroke-width:1.0;" x1="563" x2="585" y1="333.9414" y2="333.9414"/><text fill="#000000" font-family="sans-serif" font-size="14" lengthAdjust="spacing" textLength="12" x="568" y="349.4766">&#160;&#160;&#160;</text><line style="stroke:#000000;stroke-width:1.0;" x1="563" x2="585" y1="354.4297" y2="354.4297"/><text fill="#000000" font-family="sans-serif" font-size="14" lengthAdjust="spacing" textLength="12" x="568" y="369.9648">&#160;&#160;&#160;</text><line style="stroke:#000000;stroke-width:1.0;" x1="563" x2="585" y1="374.918" y2="374.918"/><text fill="#000000" font-family="sans-serif" font-size="14" lengthAdjust="spacing" textLength="12" x="568" y="390.4531">&#160;&#160;&#160;</text><line style="stroke:#000000;stroke-width:1.0;" x1="563" x2="585" y1="395.4063" y2="395.4063"/><text fill="#000000" font-family="sans-serif" font-size="14" lengthAdjust="spacing" textLength="12" x="568" y="410.9414">&#160;&#160;&#160;</text><line style="stroke:#000000;stroke-width:1.0;" x1="563" x2="585" y1="415.8945" y2="415.8945"/><text fill="#000000" font-family="sans-serif" font-size="14" lengthAdjust="spacing" textLength="12" x="568" y="431.4297">&#160;&#160;&#160;</text><line style="stroke:#000000;stroke-width:1.0;" x1="563" x2="585" y1="436.3828" y2="436.3828"/><text fill="#000000" font-family="sans-serif" font-size="14" lengthAdjust="spacing" textLength="12" x="568" y="451.918">&#160;&#160;&#160;</text><line style="stroke:#000000;stroke-width:1.0;" x1="563" x2="585" y1="456.8711" y2="456.8711"/><text fill="#000000" font-family="sans-serif" font-size="14" lengthAdjust="spacing" textLength="12" x="568" y="472.4063">&#160;&#160;&#160;</text><rect fill="none" height="245.8594" rx="5" ry="5" style="stroke:#000000;stroke-width:1.5;" width="22" x="563" y="231.5"/><rect fill="#F1F1F1" height="40.9766" rx="5" ry="5" style="stroke:#F1F1F1;stroke-width:1.5;" width="266" x="723.5" y="10"/><text fill="#000000" font-family="sans-serif" font-size="14" font-weight="bold" lengthAdjust="spacing" textLength="71" x="728.5" y="25.5352">kodeverdi</text><text fill="#000000" font-family="sans-serif" font-size="14" lengthAdjust="spacing" textLength="23" x="855.5" y="25.5352">KID</text><line style="stroke:#000000;stroke-width:1.0;" x1="850.5" x2="850.5" y1="10" y2="30.4883"/><line style="stroke:#000000;stroke-width:1.0;" x1="723.5" x2="989.5" y1="30.4883" y2="30.4883"/><text fill="#000000" font-family="sans-serif" font-size="14" font-weight="bold" lengthAdjust="spacing" textLength="117" x="728.5" y="46.0234">kodebeskrivelse</text><text fill="#000000" font-family="sans-serif" font-size="14" lengthAdjust="spacing" textLength="129" x="855.5" y="46.0234">Skjerming klasseID</text><line style="stroke:#000000;stroke-width:1.0;" x1="850.5" x2="850.5" y1="30.4883" y2="50.9766"/><rect fill="none" height="40.9766" rx="5" ry="5" style="stroke:#000000;stroke-width:1.5;" width="266" x="723.5" y="10"/><rect fill="#F1F1F1" height="40.9766" rx="5" ry="5" style="stroke:#F1F1F1;stroke-width:1.5;" width="287" x="713" y="69"/><text fill="#000000" font-family="sans-serif" font-size="14" font-weight="bold" lengthAdjust="spacing" textLength="71" x="718" y="84.5352">kodeverdi</text><text fill="#000000" font-family="sans-serif" font-size="14" lengthAdjust="spacing" textLength="25" x="845" y="84.5352">TKL</text><line style="stroke:#000000;stroke-width:1.0;" x1="840" x2="840" y1="69" y2="89.4883"/><line style="stroke:#000000;stroke-width:1.0;" x1="713" x2="1000" y1="89.4883" y2="89.4883"/><text fill="#000000" font-family="sans-serif" font-size="14" font-weight="bold" lengthAdjust="spacing" textLength="117" x="718" y="105.0234">kodebeskrivelse</text><text fill="#000000" font-family="sans-serif" font-size="14" lengthAdjust="spacing" textLength="150" x="845" y="105.0234">Skjerming tittel klasse</text><line style="stroke:#000000;stroke-width:1.0;" x1="840" x2="840" y1="89.4883" y2="109.9766"/><rect fill="none" height="40.9766" rx="5" ry="5" style="stroke:#000000;stroke-width:1.5;" width="287" x="713" y="69"/><rect fill="#F1F1F1" height="40.9766" rx="5" ry="5" style="stroke:#F1F1F1;stroke-width:1.5;" width="435" x="639" y="128"/><text fill="#000000" font-family="sans-serif" font-size="14" font-weight="bold" lengthAdjust="spacing" textLength="71" x="644" y="143.5352">kodeverdi</text><text fill="#000000" font-family="sans-serif" font-size="14" lengthAdjust="spacing" textLength="30" x="771" y="143.5352">TM1</text><line style="stroke:#000000;stroke-width:1.0;" x1="766" x2="766" y1="128" y2="148.4883"/><line style="stroke:#000000;stroke-width:1.0;" x1="639" x2="1074" y1="148.4883" y2="148.4883"/><text fill="#000000" font-family="sans-serif" font-size="14" font-weight="bold" lengthAdjust="spacing" textLength="117" x="644" y="164.0234">kodebeskrivelse</text><text fill="#000000" font-family="sans-serif" font-size="14" lengthAdjust="spacing" textLength="298" x="771" y="164.0234">Skjerming tittel mappe - unntatt f&#248;rste linje</text><line style="stroke:#000000;stroke-width:1.0;" x1="766" x2="766" y1="148.4883" y2="168.9766"/><rect fill="none" height="40.9766" rx="5" ry="5" style="stroke:#000000;stroke-width:1.5;" width="435" x="639" y="128"/><rect fill="#F1F1F1" height="40.9766" rx="5" ry="5" style="stroke:#F1F1F1;stroke-width:1.5;" width="391" x="661" y="187"/><text fill="#000000" font-family="sans-serif" font-size="14" font-weight="bold" lengthAdjust="spacing" textLength="71" x="666" y="202.5352">kodeverdi</text><text fill="#000000" font-family="sans-serif" font-size="14" lengthAdjust="spacing" textLength="32" x="793" y="202.5352">TMO</text><line style="stroke:#000000;stroke-width:1.0;" x1="788" x2="788" y1="187" y2="207.4883"/><line style="stroke:#000000;stroke-width:1.0;" x1="661" x2="1052" y1="207.4883" y2="207.4883"/><text fill="#000000" font-family="sans-serif" font-size="14" font-weight="bold" lengthAdjust="spacing" textLength="117" x="666" y="223.0234">kodebeskrivelse</text><text fill="#000000" font-family="sans-serif" font-size="14" lengthAdjust="spacing" textLength="254" x="793" y="223.0234">Skjerming tittel mappe - utvalgte ord</text><line style="stroke:#000000;stroke-width:1.0;" x1="788" x2="788" y1="207.4883" y2="227.9766"/><rect fill="none" height="40.9766" rx="5" ry="5" style="stroke:#000000;stroke-width:1.5;" width="391" x="661" y="187"/><rect fill="#F1F1F1" height="40.9766" rx="5" ry="5" style="stroke:#F1F1F1;stroke-width:1.5;" width="310" x="701.5" y="246"/><text fill="#000000" font-family="sans-serif" font-size="14" font-weight="bold" lengthAdjust="spacing" textLength="71" x="706.5" y="261.5352">kodeverdi</text><text fill="#000000" font-family="sans-serif" font-size="14" lengthAdjust="spacing" textLength="26" x="833.5" y="261.5352">NPS</text><line style="stroke:#000000;stroke-width:1.0;" x1="828.5" x2="828.5" y1="246" y2="266.4883"/><line style="stroke:#000000;stroke-width:1.0;" x1="701.5" x2="1011.5" y1="266.4883" y2="266.4883"/><text fill="#000000" font-family="sans-serif" font-size="14" font-weight="bold" lengthAdjust="spacing" textLength="117" x="706.5" y="282.0234">kodebeskrivelse</text><text fill="#000000" font-family="sans-serif" font-size="14" lengthAdjust="spacing" textLength="173" x="833.5" y="282.0234">Skjerming navn part i sak</text><line style="stroke:#000000;stroke-width:1.0;" x1="828.5" x2="828.5" y1="266.4883" y2="286.9766"/><rect fill="none" height="40.9766" rx="5" ry="5" style="stroke:#000000;stroke-width:1.5;" width="310" x="701.5" y="246"/><rect fill="#F1F1F1" height="40.9766" rx="5" ry="5" style="stroke:#F1F1F1;stroke-width:1.5;" width="469" x="622" y="305"/><text fill="#000000" font-family="sans-serif" font-size="14" font-weight="bold" lengthAdjust="spacing" textLength="71" x="627" y="320.5352">kodeverdi</text><text fill="#000000" font-family="sans-serif" font-size="14" lengthAdjust="spacing" textLength="27" x="754" y="320.5352">TR1</text><line style="stroke:#000000;stroke-width:1.0;" x1="749" x2="749" y1="305" y2="325.4883"/><line style="stroke:#000000;stroke-width:1.0;" x1="622" x2="1091" y1="325.4883" y2="325.4883"/><text fill="#000000" font-family="sans-serif" font-size="14" font-weight="bold" lengthAdjust="spacing" textLength="117" x="627" y="341.0234">kodebeskrivelse</text><text fill="#000000" font-family="sans-serif" font-size="14" lengthAdjust="spacing" textLength="332" x="754" y="341.0234">Skjerming tittel registrering - unntatt f&#248;rste linje</text><line style="stroke:#000000;stroke-width:1.0;" x1="749" x2="749" y1="325.4883" y2="345.9766"/><rect fill="none" height="40.9766" rx="5" ry="5" style="stroke:#000000;stroke-width:1.5;" width="469" x="622" y="305"/><rect fill="#F1F1F1" height="40.9766" rx="5" ry="5" style="stroke:#F1F1F1;stroke-width:1.5;" width="425" x="644" y="364"/><text fill="#000000" font-family="sans-serif" font-size="14" font-weight="bold" lengthAdjust="spacing" textLength="71" x="649" y="379.5352">kodeverdi</text><text fill="#000000" font-family="sans-serif" font-size="14" lengthAdjust="spacing" textLength="29" x="776" y="379.5352">TRO</text><line style="stroke:#000000;stroke-width:1.0;" x1="771" x2="771" y1="364" y2="384.4883"/><line style="stroke:#000000;stroke-width:1.0;" x1="644" x2="1069" y1="384.4883" y2="384.4883"/><text fill="#000000" font-family="sans-serif" font-size="14" font-weight="bold" lengthAdjust="spacing" textLength="117" x="649" y="400.0234">kodebeskrivelse</text><text fill="#000000" font-family="sans-serif" font-size="14" lengthAdjust="spacing" textLength="288" x="776" y="400.0234">Skjerming tittel registrering - utvalgte ord</text><line style="stroke:#000000;stroke-width:1.0;" x1="771" x2="771" y1="384.4883" y2="404.9766"/><rect fill="none" height="40.9766" rx="5" ry="5" style="stroke:#000000;stroke-width:1.5;" width="425" x="644" y="364"/><rect fill="#F1F1F1" height="40.9766" rx="5" ry="5" style="stroke:#F1F1F1;stroke-width:1.5;" width="309" x="702" y="423"/><text fill="#000000" font-family="sans-serif" font-size="14" font-weight="bold" lengthAdjust="spacing" textLength="71" x="707" y="438.5352">kodeverdi</text><text fill="#000000" font-family="sans-serif" font-size="14" lengthAdjust="spacing" textLength="20" x="834" y="438.5352">NA</text><line style="stroke:#000000;stroke-width:1.0;" x1="829" x2="829" y1="423" y2="443.4883"/><line style="stroke:#000000;stroke-width:1.0;" x1="702" x2="1011" y1="443.4883" y2="443.4883"/><text fill="#000000" font-family="sans-serif" font-size="14" font-weight="bold" lengthAdjust="spacing" textLength="117" x="707" y="459.0234">kodebeskrivelse</text><text fill="#000000" font-family="sans-serif" font-size="14" lengthAdjust="spacing" textLength="172" x="834" y="459.0234">Skjerming navn avsender</text><line style="stroke:#000000;stroke-width:1.0;" x1="829" x2="829" y1="443.4883" y2="463.9766"/><rect fill="none" height="40.9766" rx="5" ry="5" style="stroke:#000000;stroke-width:1.5;" width="309" x="702" y="423"/><rect fill="#F1F1F1" height="40.9766" rx="5" ry="5" style="stroke:#F1F1F1;stroke-width:1.5;" width="309" x="702" y="482"/><text fill="#000000" font-family="sans-serif" font-size="14" font-weight="bold" lengthAdjust="spacing" textLength="71" x="707" y="497.5352">kodeverdi</text><text fill="#000000" font-family="sans-serif" font-size="14" lengthAdjust="spacing" textLength="22" x="834" y="497.5352">NM</text><line style="stroke:#000000;stroke-width:1.0;" x1="829" x2="829" y1="482" y2="502.4883"/><line style="stroke:#000000;stroke-width:1.0;" x1="702" x2="1011" y1="502.4883" y2="502.4883"/><text fill="#000000" font-family="sans-serif" font-size="14" font-weight="bold" lengthAdjust="spacing" textLength="117" x="707" y="518.0234">kodebeskrivelse</text><text fill="#000000" font-family="sans-serif" font-size="14" lengthAdjust="spacing" textLength="172" x="834" y="518.0234">Skjerming navn mottaker</text><line style="stroke:#000000;stroke-width:1.0;" x1="829" x2="829" y1="502.4883" y2="522.9766"/><rect fill="none" height="40.9766" rx="5" ry="5" style="stroke:#000000;stroke-width:1.5;" width="309" x="702" y="482"/><rect fill="#F1F1F1" height="40.9766" rx="5" ry="5" style="stroke:#F1F1F1;stroke-width:1.5;" width="391" x="661" y="541"/><text fill="#000000" font-family="sans-serif" font-size="14" font-weight="bold" lengthAdjust="spacing" textLength="71" x="666" y="556.5352">kodeverdi</text><text fill="#000000" font-family="sans-serif" font-size="14" lengthAdjust="spacing" textLength="19" x="793" y="556.5352">TD</text><line style="stroke:#000000;stroke-width:1.0;" x1="788" x2="788" y1="541" y2="561.4883"/><line style="stroke:#000000;stroke-width:1.0;" x1="661" x2="1052" y1="561.4883" y2="561.4883"/><text fill="#000000" font-family="sans-serif" font-size="14" font-weight="bold" lengthAdjust="spacing" textLength="117" x="666" y="577.0234">kodebeskrivelse</text><text fill="#000000" font-family="sans-serif" font-size="14" lengthAdjust="spacing" textLength="254" x="793" y="577.0234">Skjerming tittel dokumentbeskrivelse</text><line style="stroke:#000000;stroke-width:1.0;" x1="788" x2="788" y1="561.4883" y2="581.9766"/><rect fill="none" height="40.9766" rx="5" ry="5" style="stroke:#000000;stroke-width:1.5;" width="391" x="661" y="541"/><rect fill="#F1F1F1" height="40.9766" rx="5" ry="5" style="stroke:#F1F1F1;stroke-width:1.5;" width="311" x="701" y="600"/><text fill="#000000" font-family="sans-serif" font-size="14" font-weight="bold" lengthAdjust="spacing" textLength="71" x="706" y="615.5352">kodeverdi</text><text fill="#000000" font-family="sans-serif" font-size="14" lengthAdjust="spacing" textLength="21" x="833" y="615.5352">MT</text><line style="stroke:#000000;stroke-width:1.0;" x1="828" x2="828" y1="600" y2="620.4883"/><line style="stroke:#000000;stroke-width:1.0;" x1="701" x2="1012" y1="620.4883" y2="620.4883"/><text fill="#000000" font-family="sans-serif" font-size="14" font-weight="bold" lengthAdjust="spacing" textLength="117" x="706" y="636.0234">kodebeskrivelse</text><text fill="#000000" font-family="sans-serif" font-size="14" lengthAdjust="spacing" textLength="174" x="833" y="636.0234">Skjerming merknadstekst</text><line style="stroke:#000000;stroke-width:1.0;" x1="828" x2="828" y1="620.4883" y2="640.9766"/><rect fill="none" height="40.9766" rx="5" ry="5" style="stroke:#000000;stroke-width:1.5;" width="311" x="701" y="600"/><rect fill="#F1F1F1" height="40.9766" rx="5" ry="5" style="stroke:#F1F1F1;stroke-width:1.5;" width="283" x="715" y="659"/><text fill="#000000" font-family="sans-serif" font-size="14" font-weight="bold" lengthAdjust="spacing" textLength="71" x="720" y="674.5352">kodeverdi</text><text fill="#000000" font-family="sans-serif" font-size="14" lengthAdjust="spacing" textLength="12" x="847" y="674.5352">M</text><line style="stroke:#000000;stroke-width:1.0;" x1="842" x2="842" y1="659" y2="679.4883"/><line style="stroke:#000000;stroke-width:1.0;" x1="715" x2="998" y1="679.4883" y2="679.4883"/><text fill="#000000" font-family="sans-serif" font-size="14" font-weight="bold" lengthAdjust="spacing" textLength="117" x="720" y="695.0234">kodebeskrivelse</text><text fill="#000000" font-family="sans-serif" font-size="14" lengthAdjust="spacing" textLength="146" x="847" y="695.0234">Midlertidig skjerming</text><line style="stroke:#000000;stroke-width:1.0;" x1="842" x2="842" y1="679.4883" y2="699.9766"/><rect fill="none" height="40.9766" rx="5" ry="5" style="stroke:#000000;stroke-width:1.5;" width="283" x="715" y="659"/><path d="M573,241.5 L586,241.5 C668.4561,241.5 561.6346,115.6696 622,59.5 C647.4237,35.8434 681.694,24.681 716.1559,20.3299 " fill="none" style="stroke:#000000;stroke-width:1.0;stroke-dasharray:3.0,3.0;"/><path d="M716.505,23.4573 L718.5015,20.068 L715.8068,17.2024 L723.9745,19.4571 L716.505,23.4573 " fill="#000000" style="stroke:#000000;stroke-width:1.0;"/><ellipse cx="573" cy="241.5" fill="#000000" rx="3" ry="3" style="stroke:#000000;stroke-width:1.0;"/><path d="M573,262.5 L586,262.5 C651.9697,262.5 572.6025,162.2251 622,118.5 C645.1713,97.9895 675.0618,87.0634 705.6829,81.8497 " fill="none" style="stroke:#000000;stroke-width:1.0;stroke-dasharray:3.0,3.0;"/><path d="M706.1648,84.9686 L708.022,81.4883 L705.201,78.7309 L713.48,80.6449 L706.1648,84.9686 " fill="#000000" style="stroke:#000000;stroke-width:1.0;"/><ellipse cx="573" cy="262.5" fill="#000000" rx="3" ry="3" style="stroke:#000000;stroke-width:1.0;"/><path d="M573,282.5 L586,282.5 C635.3333,282.5 583.6988,208.5933 622,177.5 C625.5121,174.6488 629.157,171.9898 632.9168,169.5116 " fill="none" style="stroke:#000000;stroke-width:1.0;stroke-dasharray:3.0,3.0;"/><path d="M634.5175,172.0846 L634.8466,168.311 L631.316,166.9385 L639.3494,165.5097 L634.5175,172.0846 " fill="#000000" style="stroke:#000000;stroke-width:1.0;"/><ellipse cx="573" cy="282.5" fill="#000000" rx="3" ry="3" style="stroke:#000000;stroke-width:1.0;"/><path d="M573,303.5 L586,303.5 C619.8041,303.5 594.1103,255.6018 622,236.5 C631.9988,229.6517 642.8146,223.9996 654.1245,219.3584 " fill="none" style="stroke:#000000;stroke-width:1.0;stroke-dasharray:3.0,3.0;"/><path d="M655.2288,222.1996 L656.2554,218.5302 L653.0202,216.5172 L661.2275,216.5977 L655.2288,222.1996 " fill="#000000" style="stroke:#000000;stroke-width:1.0;"/><ellipse cx="573" cy="303.5" fill="#000000" rx="3" ry="3" style="stroke:#000000;stroke-width:1.0;"/><path d="M573,323.5 L586,323.5 C606,323.5 603.4678,304.0205 622,296.5 C644.6138,287.3231 669.3777,280.7929 694.0658,276.1745 " fill="none" style="stroke:#000000;stroke-width:1.0;stroke-dasharray:3.0,3.0;"/><path d="M694.6149,279.2372 L696.3628,275.7626 L693.5167,273.1117 L701.7227,274.8017 L694.6149,279.2372 " fill="#000000" style="stroke:#000000;stroke-width:1.0;"/><ellipse cx="573" cy="323.5" fill="#000000" rx="3" ry="3" style="stroke:#000000;stroke-width:1.0;"/><path d="M573,344.5 L586,344.5 C595.3624,344.5 604.9029,344.3849 614.5371,344.1727 " fill="none" style="stroke:#000000;stroke-width:1.0;stroke-dasharray:3.0,3.0;"/><path d="M614.6134,347.2706 L616.8606,344.1154 L614.4608,341.0747 L622.282,343.9819 L614.6134,347.2706 " fill="#000000" style="stroke:#000000;stroke-width:1.0;"/><ellipse cx="573" cy="344.5" fill="#000000" rx="3" ry="3" style="stroke:#000000;stroke-width:1.0;"/><path d="M573,364.5 L586,364.5 C602.4062,364.5 619.3579,364.8718 636.4013,365.514 " fill="none" style="stroke:#000000;stroke-width:1.0;stroke-dasharray:3.0,3.0;"/><path d="M636.2758,368.6482 L638.752,365.6081 L636.5268,362.3798 L644.2369,365.8277 L636.2758,368.6482 " fill="#000000" style="stroke:#000000;stroke-width:1.0;"/><ellipse cx="573" cy="364.5" fill="#000000" rx="3" ry="3" style="stroke:#000000;stroke-width:1.0;"/><path d="M573,385.5 L586,385.5 C606.5456,385.5 603.0819,406.4857 622,414.5 C644.8138,424.1647 669.9202,430.8804 694.9597,435.5014 " fill="none" style="stroke:#000000;stroke-width:1.0;stroke-dasharray:3.0,3.0;"/><path d="M694.4365,438.4657 L697.183,435.8938 L695.4829,432.537 L702.3706,436.8094 L694.4365,438.4657 " fill="#000000" style="stroke:#000000;stroke-width:1.0;"/><ellipse cx="573" cy="385.5" fill="#000000" rx="3" ry="3" style="stroke:#000000;stroke-width:1.0;"/><path d="M573,405.5 L586,405.5 C620.1962,405.5 593.8463,454.0899 622,473.5 C643.4721,488.3036 668.7498,497.535 694.609,503.0508 " fill="none" style="stroke:#000000;stroke-width:1.0;stroke-dasharray:3.0,3.0;"/><path d="M693.9984,506.1195 L696.9105,503.5088 L695.2197,499.9821 L702.2808,504.5774 L693.9984,506.1195 " fill="#000000" style="stroke:#000000;stroke-width:1.0;"/><ellipse cx="573" cy="405.5" fill="#000000" rx="3" ry="3" style="stroke:#000000;stroke-width:1.0;"/><path d="M573,426.5 L586,426.5 C635.754,426.5 583.4177,501.0856 622,532.5 C631.8847,540.5483 642.8268,547.0677 654.4229,552.3112 " fill="none" style="stroke:#000000;stroke-width:1.0;stroke-dasharray:3.0,3.0;"/><path d="M653.2462,555.0712 L656.4929,553.1937 L655.5996,549.5511 L661.323,555.2529 L653.2462,555.0712 " fill="#000000" style="stroke:#000000;stroke-width:1.0;"/><ellipse cx="573" cy="426.5" fill="#000000" rx="3" ry="3" style="stroke:#000000;stroke-width:1.0;"/><path d="M573,446.5 L586,446.5 C652.401,446.5 572.3153,547.4487 622,591.5 C642.1586,609.3729 667.4175,619.9729 693.8221,625.8582 " fill="none" style="stroke:#000000;stroke-width:1.0;stroke-dasharray:3.0,3.0;"/><path d="M693.2073,628.8481 L696.0645,626.3194 L694.437,622.8684 L701.2967,627.3953 L693.2073,628.8481 " fill="#000000" style="stroke:#000000;stroke-width:1.0;"/><ellipse cx="573" cy="446.5" fill="#000000" rx="3" ry="3" style="stroke:#000000;stroke-width:1.0;"/><path d="M573,467.5 L586,467.5 C668.8922,467.5 561.3447,594.0018 622,650.5 C645.3634,672.2622 676.2119,683.4555 707.8157,688.5001 " fill="none" style="stroke:#000000;stroke-width:1.0;stroke-dasharray:3.0,3.0;"/><path d="M707.3769,691.5449 L710.0993,688.8292 L708.2545,685.4553 L715.4277,689.597 L707.3769,691.5449 " fill="#000000" style="stroke:#000000;stroke-width:1.0;"/><ellipse cx="573" cy="467.5" fill="#000000" rx="3" ry="3" style="stroke:#000000;stroke-width:1.0;"/><path d="M514,354.5 L527,354.5 C536.4213,354.5 546.9164,354.5 555.5483,354.5 " fill="none" style="stroke:#000000;stroke-width:1.0;stroke-dasharray:3.0,3.0;"/><path d="M555.5483,357.5437 L557.8311,354.5 L555.5483,351.4563 L563.1575,354.5 L555.5483,357.5437 " fill="#000000" style="stroke:#000000;stroke-width:1.0;"/><ellipse cx="514" cy="354.5" fill="#000000" rx="3" ry="3" style="stroke:#000000;stroke-width:1.0;"/><!--SRC=[fPJ1JXin48Rl-nIZd40YKHAgAjeJbD2gIPP4IU22UXZmPElOQqVsx4e8yLxS-sBrRXBQ4_B2PGuplx_V7e_cmZCwtdfhakS4eBDpbgsoMXkiJ2U5Zh4zvNiR6G8w9QlEMIqxLhtQaYkaoGjY5CYuBrVa_DOsYcgmJmdQI2EFsKkJougq9y0AVbTIAu8ZWZGLP9WSU5k0LwXXRqD-Zr9Ma9QUAP3kGmBWkOc7KZ0NiWF1PVfpt9nuApsGLsvlt0XMn-k3qkWz1NqZVpbx3xkUpcAnB9b97-XHx6pGabtWRaVGXT8OHcRO_7breJUWfTb6Miu_QiaLwZnuMITYd6uMgrYdUi1W5qOJ97XKKUzOjcsTepoCaIDNvpxJmUNyayvj6tdPgezOUJA2N1GwQuKkB3EgEFHwtB9BmggoNWN_2oDyidMiJq5E6HJXivNdAFJxv4mAJOwba3cyhSO3DyHVoKjo4NwYMRV9GgFXssm6zRQKri2WD-mFptkZarLf8CCd60vWq4_FHsc_3rVNgpNKzTFavCTY5dPZwHu9H3r6yg7a03XD9bWXB4l3ig0KvZioa_7qc81hKqbdJTtHP7AN_HDy_TBz9XbMvC9Lu2vBnhJ1KdCuyMX5U48Aj-lltL4oGvENc0SscUJA1gvxIk5c_XS0]--></g></svg>