<?xml version="1.0" encoding="us-ascii" standalone="no"?><svg xmlns="http://www.w3.org/2000/svg" xmlns:xlink="http://www.w3.org/1999/xlink" contentStyleType="text/css" height="384px" preserveAspectRatio="none" style="width:2137px;height:384px;background:#FFFFFF;" version="1.1" viewBox="0 0 2137 384" width="2137px" zoomAndPan="magnify"><defs/><g><!--class arkivmeldingKvittering--><g id="elem_arkivmeldingKvittering"><rect codeLine="2" fill="#F1F1F1" height="113.9531" id="arkivmeldingKvittering" rx="2.5" ry="2.5" style="stroke:#181818;stroke-width:0.5;" width="342" x="1413" y="56.47"/><ellipse cx="1502.25" cy="72.47" fill="#ADD1B2" rx="11" ry="11" style="stroke:#181818;stroke-width:1.0;"/><path d="M1504.7231,78.6131 Q1504.1421,78.9119 1503.5029,79.0613 Q1502.8638,79.2107 1502.1582,79.2107 Q1499.6514,79.2107 1498.3315,77.5589 Q1497.0117,75.907 1497.0117,72.7859 Q1497.0117,69.6565 1498.3315,68.0047 Q1499.6514,66.3528 1502.1582,66.3528 Q1502.8638,66.3528 1503.5112,66.5022 Q1504.1587,66.6516 1504.7231,66.9505 L1504.7231,69.6731 Q1504.0923,69.0921 1503.4988,68.8223 Q1502.9053,68.5525 1502.2744,68.5525 Q1500.9297,68.5525 1500.2449,69.6192 Q1499.5601,70.6858 1499.5601,72.7859 Q1499.5601,74.8777 1500.2449,75.9444 Q1500.9297,77.011 1502.2744,77.011 Q1502.9053,77.011 1503.4988,76.7412 Q1504.0923,76.4715 1504.7231,75.8904 Z " fill="#000000"/><text fill="#000000" font-family="sans-serif" font-size="14" lengthAdjust="spacing" textLength="155" x="1522.75" y="77.761">arkivmeldingKvittering</text><line style="stroke:#181818;stroke-width:0.5;" x1="1414" x2="1754" y1="88.47" y2="88.47"/><ellipse cx="1424" cy="102.2141" fill="none" rx="3" ry="3" style="stroke:#038048;stroke-width:1.0;"/><text fill="#000000" font-family="sans-serif" font-size="14" lengthAdjust="spacing" textLength="99" x="1433" y="106.0052">system : string</text><ellipse cx="1424" cy="118.7024" fill="none" rx="3" ry="3" style="stroke:#038048;stroke-width:1.0;"/><text fill="#000000" font-family="sans-serif" font-size="14" lengthAdjust="spacing" textLength="141" x="1433" y="122.4934">tidspunkt : dateTime</text><ellipse cx="1424" cy="135.1907" fill="none" rx="3" ry="3" style="stroke:#038048;stroke-width:1.0;"/><text fill="#000000" font-family="sans-serif" font-size="14" lengthAdjust="spacing" textLength="248" x="1433" y="138.9817">mappeKvittering : mappeKvittering[]</text><ellipse cx="1424" cy="151.679" fill="none" rx="3" ry="3" style="stroke:#038048;stroke-width:1.0;"/><text fill="#000000" font-family="sans-serif" font-size="14" lengthAdjust="spacing" textLength="316" x="1433" y="155.47">registreringKvittering : registreringKvittering[]</text><line style="stroke:#181818;stroke-width:0.5;" x1="1414" x2="1754" y1="162.4231" y2="162.4231"/></g><!--class dokumentbeskrivelseKvittering--><g id="elem_dokumentbeskrivelseKvittering"><rect codeLine="8" fill="#F1F1F1" height="113.9531" id="dokumentbeskrivelseKvittering" rx="2.5" ry="2.5" style="stroke:#181818;stroke-width:0.5;" width="340" x="1790" y="56.47"/><ellipse cx="1849.75" cy="72.47" fill="#ADD1B2" rx="11" ry="11" style="stroke:#181818;stroke-width:1.0;"/><path d="M1852.2231,78.6131 Q1851.6421,78.9119 1851.0029,79.0613 Q1850.3638,79.2107 1849.6582,79.2107 Q1847.1514,79.2107 1845.8315,77.5589 Q1844.5117,75.907 1844.5117,72.7859 Q1844.5117,69.6565 1845.8315,68.0047 Q1847.1514,66.3528 1849.6582,66.3528 Q1850.3638,66.3528 1851.0112,66.5022 Q1851.6587,66.6516 1852.2231,66.9505 L1852.2231,69.6731 Q1851.5923,69.0921 1850.9988,68.8223 Q1850.4053,68.5525 1849.7744,68.5525 Q1848.4297,68.5525 1847.7449,69.6192 Q1847.0601,70.6858 1847.0601,72.7859 Q1847.0601,74.8777 1847.7449,75.9444 Q1848.4297,77.011 1849.7744,77.011 Q1850.4053,77.011 1850.9988,76.7412 Q1851.5923,76.4715 1852.2231,75.8904 Z " fill="#000000"/><text fill="#000000" font-family="sans-serif" font-size="14" lengthAdjust="spacing" textLength="212" x="1870.25" y="77.761">dokumentbeskrivelseKvittering</text><line style="stroke:#181818;stroke-width:0.5;" x1="1791" x2="2129" y1="88.47" y2="88.47"/><ellipse cx="1801" cy="102.2141" fill="none" rx="3" ry="3" style="stroke:#038048;stroke-width:1.0;"/><text fill="#000000" font-family="sans-serif" font-size="14" lengthAdjust="spacing" textLength="134" x="1810" y="106.0052">systemID : systemID</text><ellipse cx="1801" cy="118.7024" fill="none" rx="3" ry="3" style="stroke:#038048;stroke-width:1.0;"/><text fill="#000000" font-family="sans-serif" font-size="14" lengthAdjust="spacing" textLength="172" x="1810" y="122.4934">opprettetDato : dateTime</text><ellipse cx="1801" cy="135.1907" fill="none" rx="3" ry="3" style="stroke:#038048;stroke-width:1.0;"/><text fill="#000000" font-family="sans-serif" font-size="14" lengthAdjust="spacing" textLength="133" x="1810" y="138.9817">opprettetAv : string</text><ellipse cx="1801" cy="151.679" fill="none" rx="3" ry="3" style="stroke:#038048;stroke-width:1.0;"/><text fill="#000000" font-family="sans-serif" font-size="14" lengthAdjust="spacing" textLength="314" x="1810" y="155.47">dokumentobjekt : dokumentobjektKvittering[]</text><line style="stroke:#181818;stroke-width:0.5;" x1="1791" x2="2129" y1="162.4231" y2="162.4231"/></g><!--class dokumentobjektKvittering--><g id="elem_dokumentobjektKvittering"><rect codeLine="14" fill="#F1F1F1" height="97.4648" id="dokumentobjektKvittering" rx="2.5" ry="2.5" style="stroke:#181818;stroke-width:0.5;" width="211" x="1478.5" y="279.89"/><ellipse cx="1493.5" cy="295.89" fill="#ADD1B2" rx="11" ry="11" style="stroke:#181818;stroke-width:1.0;"/><path d="M1495.9731,302.0331 Q1495.3921,302.3319 1494.7529,302.4813 Q1494.1138,302.6307 1493.4082,302.6307 Q1490.9014,302.6307 1489.5815,300.9789 Q1488.2617,299.327 1488.2617,296.2059 Q1488.2617,293.0765 1489.5815,291.4247 Q1490.9014,289.7728 1493.4082,289.7728 Q1494.1138,289.7728 1494.7612,289.9222 Q1495.4087,290.0716 1495.9731,290.3705 L1495.9731,293.0931 Q1495.3423,292.5121 1494.7488,292.2423 Q1494.1553,291.9725 1493.5244,291.9725 Q1492.1797,291.9725 1491.4949,293.0392 Q1490.8101,294.1058 1490.8101,296.2059 Q1490.8101,298.2977 1491.4949,299.3644 Q1492.1797,300.431 1493.5244,300.431 Q1494.1553,300.431 1494.7488,300.1612 Q1495.3423,299.8915 1495.9731,299.3104 Z " fill="#000000"/><text fill="#000000" font-family="sans-serif" font-size="14" lengthAdjust="spacing" textLength="179" x="1507.5" y="301.181">dokumentobjektKvittering</text><line style="stroke:#181818;stroke-width:0.5;" x1="1479.5" x2="1688.5" y1="311.89" y2="311.89"/><ellipse cx="1489.5" cy="325.6341" fill="none" rx="3" ry="3" style="stroke:#038048;stroke-width:1.0;"/><text fill="#000000" font-family="sans-serif" font-size="14" lengthAdjust="spacing" textLength="134" x="1498.5" y="329.4252">systemID : systemID</text><ellipse cx="1489.5" cy="342.1224" fill="none" rx="3" ry="3" style="stroke:#038048;stroke-width:1.0;"/><text fill="#000000" font-family="sans-serif" font-size="14" lengthAdjust="spacing" textLength="172" x="1498.5" y="345.9134">opprettetDato : dateTime</text><ellipse cx="1489.5" cy="358.6107" fill="none" rx="3" ry="3" style="stroke:#038048;stroke-width:1.0;"/><text fill="#000000" font-family="sans-serif" font-size="14" lengthAdjust="spacing" textLength="133" x="1498.5" y="362.4017">opprettetAv : string</text><line style="stroke:#181818;stroke-width:0.5;" x1="1479.5" x2="1688.5" y1="369.3548" y2="369.3548"/></g><!--class journalpostKvittering--><g id="elem_journalpostKvittering"><rect codeLine="19" fill="#F1F1F1" height="163.418" id="journalpostKvittering" rx="2.5" ry="2.5" style="stroke:#181818;stroke-width:0.5;" width="254" x="7" y="31.73"/><ellipse cx="57.25" cy="47.73" fill="#ADD1B2" rx="11" ry="11" style="stroke:#181818;stroke-width:1.0;"/><path d="M59.7231,53.8731 Q59.1421,54.1719 58.5029,54.3213 Q57.8638,54.4707 57.1582,54.4707 Q54.6514,54.4707 53.3315,52.8189 Q52.0117,51.167 52.0117,48.0459 Q52.0117,44.9165 53.3315,43.2647 Q54.6514,41.6128 57.1582,41.6128 Q57.8638,41.6128 58.5112,41.7622 Q59.1587,41.9116 59.7231,42.2105 L59.7231,44.9331 Q59.0923,44.3521 58.4988,44.0823 Q57.9053,43.8125 57.2744,43.8125 Q55.9297,43.8125 55.2449,44.8792 Q54.5601,45.9458 54.5601,48.0459 Q54.5601,50.1377 55.2449,51.2044 Q55.9297,52.271 57.2744,52.271 Q57.9053,52.271 58.4988,52.0012 Q59.0923,51.7315 59.7231,51.1504 Z " fill="#000000"/><text fill="#000000" font-family="sans-serif" font-size="14" lengthAdjust="spacing" textLength="145" x="77.75" y="53.021">journalpostKvittering</text><line style="stroke:#181818;stroke-width:0.5;" x1="8" x2="260" y1="63.73" y2="63.73"/><ellipse cx="18" cy="77.4741" fill="none" rx="3" ry="3" style="stroke:#038048;stroke-width:1.0;"/><text fill="#000000" font-family="sans-serif" font-size="14" lengthAdjust="spacing" textLength="101" x="27" y="81.2652">journalaar : int</text><ellipse cx="18" cy="93.9624" fill="none" rx="3" ry="3" style="stroke:#038048;stroke-width:1.0;"/><text fill="#000000" font-family="sans-serif" font-size="14" lengthAdjust="spacing" textLength="191" x="27" y="97.7534">journalsekvensnummer : int</text><ellipse cx="18" cy="110.4507" fill="none" rx="3" ry="3" style="stroke:#038048;stroke-width:1.0;"/><text fill="#000000" font-family="sans-serif" font-size="14" lengthAdjust="spacing" textLength="167" x="27" y="114.2417">journalpostnummer : int</text><ellipse cx="18" cy="126.939" fill="none" rx="3" ry="3" style="stroke:#038048;stroke-width:1.0;"/><text fill="#000000" font-family="sans-serif" font-size="14" lengthAdjust="spacing" textLength="228" x="27" y="130.73">journalposttype : journalposttype</text><ellipse cx="18" cy="143.4273" fill="none" rx="3" ry="3" style="stroke:#038048;stroke-width:1.0;"/><text fill="#000000" font-family="sans-serif" font-size="14" lengthAdjust="spacing" textLength="192" x="27" y="147.2183">journalstatus : journalstatus</text><ellipse cx="18" cy="159.9155" fill="none" rx="3" ry="3" style="stroke:#038048;stroke-width:1.0;"/><text fill="#000000" font-family="sans-serif" font-size="14" lengthAdjust="spacing" textLength="122" x="27" y="163.7066">journaldato : date</text><ellipse cx="18" cy="176.4038" fill="none" rx="3" ry="3" style="stroke:#038048;stroke-width:1.0;"/><text fill="#000000" font-family="sans-serif" font-size="14" lengthAdjust="spacing" textLength="121" x="27" y="180.1948">forfallsdato : date</text><line style="stroke:#181818;stroke-width:0.5;" x1="8" x2="260" y1="187.148" y2="187.148"/></g><!--class registreringKvittering--><g id="elem_registreringKvittering"><rect codeLine="41" fill="#F1F1F1" height="179.9063" id="registreringKvittering" rx="2.5" ry="2.5" style="stroke:#181818;stroke-width:0.5;" width="472" x="296" y="23.49"/><ellipse cx="454.25" cy="39.49" fill="#ADD1B2" rx="11" ry="11" style="stroke:#181818;stroke-width:1.0;"/><path d="M456.7231,45.6331 Q456.1421,45.9319 455.5029,46.0813 Q454.8638,46.2307 454.1582,46.2307 Q451.6514,46.2307 450.3315,44.5789 Q449.0117,42.927 449.0117,39.8059 Q449.0117,36.6765 450.3315,35.0247 Q451.6514,33.3728 454.1582,33.3728 Q454.8638,33.3728 455.5112,33.5222 Q456.1587,33.6716 456.7231,33.9705 L456.7231,36.6931 Q456.0923,36.1121 455.4988,35.8423 Q454.9053,35.5725 454.2744,35.5725 Q452.9297,35.5725 452.2449,36.6392 Q451.5601,37.7058 451.5601,39.8059 Q451.5601,41.8977 452.2449,42.9644 Q452.9297,44.031 454.2744,44.031 Q454.9053,44.031 455.4988,43.7612 Q456.0923,43.4915 456.7231,42.9104 Z " fill="#000000"/><text fill="#000000" font-family="sans-serif" font-size="14" lengthAdjust="spacing" textLength="147" x="474.75" y="44.781">registreringKvittering</text><line style="stroke:#181818;stroke-width:0.5;" x1="297" x2="767" y1="55.49" y2="55.49"/><ellipse cx="307" cy="69.2341" fill="none" rx="3" ry="3" style="stroke:#038048;stroke-width:1.0;"/><text fill="#000000" font-family="sans-serif" font-size="14" lengthAdjust="spacing" textLength="134" x="316" y="73.0252">systemID : systemID</text><ellipse cx="307" cy="85.7224" fill="none" rx="3" ry="3" style="stroke:#038048;stroke-width:1.0;"/><text fill="#000000" font-family="sans-serif" font-size="14" lengthAdjust="spacing" textLength="172" x="316" y="89.5134">opprettetDato : dateTime</text><ellipse cx="307" cy="102.2107" fill="none" rx="3" ry="3" style="stroke:#038048;stroke-width:1.0;"/><text fill="#000000" font-family="sans-serif" font-size="14" lengthAdjust="spacing" textLength="133" x="316" y="106.0017">opprettetAv : string</text><ellipse cx="307" cy="118.699" fill="none" rx="3" ry="3" style="stroke:#038048;stroke-width:1.0;"/><text fill="#000000" font-family="sans-serif" font-size="14" lengthAdjust="spacing" textLength="160" x="316" y="122.49">arkivertDato : dateTime</text><ellipse cx="307" cy="135.1873" fill="none" rx="3" ry="3" style="stroke:#038048;stroke-width:1.0;"/><text fill="#000000" font-family="sans-serif" font-size="14" lengthAdjust="spacing" textLength="121" x="316" y="138.9783">arkivertAv : string</text><ellipse cx="307" cy="151.6755" fill="none" rx="3" ry="3" style="stroke:#038048;stroke-width:1.0;"/><text fill="#000000" font-family="sans-serif" font-size="14" lengthAdjust="spacing" textLength="446" x="316" y="155.4666">dokumentbeskrivelseKvittering : dokumentbeskrivelseKvittering[]</text><ellipse cx="307" cy="168.1638" fill="none" rx="3" ry="3" style="stroke:#038048;stroke-width:1.0;"/><text fill="#000000" font-family="sans-serif" font-size="14" lengthAdjust="spacing" textLength="154" x="316" y="171.9548">registreringsID : string</text><ellipse cx="307" cy="184.6521" fill="none" rx="3" ry="3" style="stroke:#038048;stroke-width:1.0;"/><text fill="#000000" font-family="sans-serif" font-size="14" lengthAdjust="spacing" textLength="289" x="316" y="188.4431">referanseEksternNoekkel : eksternNoekkel</text><line style="stroke:#181818;stroke-width:0.5;" x1="297" x2="767" y1="195.3963" y2="195.3963"/></g><!--class mappeKvittering--><g id="elem_mappeKvittering"><rect codeLine="29" fill="#F1F1F1" height="212.8828" id="mappeKvittering" rx="2.5" ry="2.5" style="stroke:#181818;stroke-width:0.5;" width="342" x="1036" y="7"/><ellipse cx="1146.25" cy="23" fill="#ADD1B2" rx="11" ry="11" style="stroke:#181818;stroke-width:1.0;"/><path d="M1148.7231,29.1431 Q1148.1421,29.4419 1147.5029,29.5913 Q1146.8638,29.7407 1146.1582,29.7407 Q1143.6514,29.7407 1142.3315,28.0889 Q1141.0117,26.437 1141.0117,23.3159 Q1141.0117,20.1865 1142.3315,18.5347 Q1143.6514,16.8828 1146.1582,16.8828 Q1146.8638,16.8828 1147.5112,17.0322 Q1148.1587,17.1816 1148.7231,17.4805 L1148.7231,20.2031 Q1148.0923,19.6221 1147.4988,19.3523 Q1146.9053,19.0825 1146.2744,19.0825 Q1144.9297,19.0825 1144.2449,20.1492 Q1143.5601,21.2158 1143.5601,23.3159 Q1143.5601,25.4077 1144.2449,26.4744 Q1144.9297,27.541 1146.2744,27.541 Q1146.9053,27.541 1147.4988,27.2712 Q1148.0923,27.0015 1148.7231,26.4204 Z " fill="#000000"/><text fill="#000000" font-family="sans-serif" font-size="14" lengthAdjust="spacing" textLength="113" x="1166.75" y="28.291">mappeKvittering</text><line style="stroke:#181818;stroke-width:0.5;" x1="1037" x2="1377" y1="39" y2="39"/><ellipse cx="1047" cy="52.7441" fill="none" rx="3" ry="3" style="stroke:#038048;stroke-width:1.0;"/><text fill="#000000" font-family="sans-serif" font-size="14" lengthAdjust="spacing" textLength="134" x="1056" y="56.5352">systemID : systemID</text><ellipse cx="1047" cy="69.2324" fill="none" rx="3" ry="3" style="stroke:#038048;stroke-width:1.0;"/><text fill="#000000" font-family="sans-serif" font-size="14" lengthAdjust="spacing" textLength="113" x="1056" y="73.0234">mappeID : string</text><ellipse cx="1047" cy="85.7207" fill="none" rx="3" ry="3" style="stroke:#038048;stroke-width:1.0;"/><text fill="#000000" font-family="sans-serif" font-size="14" lengthAdjust="spacing" textLength="310" x="1056" y="89.5117">referanseForeldermappe : referanseTilMappe</text><ellipse cx="1047" cy="102.209" fill="none" rx="3" ry="3" style="stroke:#038048;stroke-width:1.0;"/><text fill="#000000" font-family="sans-serif" font-size="14" lengthAdjust="spacing" textLength="172" x="1056" y="106">opprettetDato : dateTime</text><ellipse cx="1047" cy="118.6973" fill="none" rx="3" ry="3" style="stroke:#038048;stroke-width:1.0;"/><text fill="#000000" font-family="sans-serif" font-size="14" lengthAdjust="spacing" textLength="133" x="1056" y="122.4883">opprettetAv : string</text><ellipse cx="1047" cy="135.1855" fill="none" rx="3" ry="3" style="stroke:#038048;stroke-width:1.0;"/><text fill="#000000" font-family="sans-serif" font-size="14" lengthAdjust="spacing" textLength="166" x="1056" y="138.9766">avsluttetDato : dateTime</text><ellipse cx="1047" cy="151.6738" fill="none" rx="3" ry="3" style="stroke:#038048;stroke-width:1.0;"/><text fill="#000000" font-family="sans-serif" font-size="14" lengthAdjust="spacing" textLength="127" x="1056" y="155.4648">avsluttetAv : string</text><ellipse cx="1047" cy="168.1621" fill="none" rx="3" ry="3" style="stroke:#038048;stroke-width:1.0;"/><text fill="#000000" font-family="sans-serif" font-size="14" lengthAdjust="spacing" textLength="289" x="1056" y="171.9531">referanseEksternNoekkel : eksternNoekkel</text><ellipse cx="1047" cy="184.6504" fill="none" rx="3" ry="3" style="stroke:#038048;stroke-width:1.0;"/><text fill="#000000" font-family="sans-serif" font-size="14" lengthAdjust="spacing" textLength="248" x="1056" y="188.4414">mappeKvittering : mappeKvittering[]</text><ellipse cx="1047" cy="201.1387" fill="none" rx="3" ry="3" style="stroke:#038048;stroke-width:1.0;"/><text fill="#000000" font-family="sans-serif" font-size="14" lengthAdjust="spacing" textLength="316" x="1056" y="204.9297">registreringKvittering : registreringKvittering[]</text><line style="stroke:#181818;stroke-width:0.5;" x1="1037" x2="1377" y1="211.8828" y2="211.8828"/></g><!--class saksmappeKvittering--><g id="elem_saksmappeKvittering"><rect codeLine="51" fill="#F1F1F1" height="97.4648" id="saksmappeKvittering" rx="2.5" ry="2.5" style="stroke:#181818;stroke-width:0.5;" width="198" x="803" y="64.71"/><ellipse cx="828.35" cy="80.71" fill="#ADD1B2" rx="11" ry="11" style="stroke:#181818;stroke-width:1.0;"/><path d="M830.8231,86.8531 Q830.2421,87.1519 829.6029,87.3013 Q828.9638,87.4507 828.2582,87.4507 Q825.7514,87.4507 824.4315,85.7989 Q823.1117,84.147 823.1117,81.0259 Q823.1117,77.8965 824.4315,76.2447 Q825.7514,74.5928 828.2582,74.5928 Q828.9638,74.5928 829.6112,74.7422 Q830.2587,74.8916 830.8231,75.1905 L830.8231,77.9131 Q830.1923,77.3321 829.5988,77.0623 Q829.0053,76.7925 828.3744,76.7925 Q827.0297,76.7925 826.3449,77.8592 Q825.6601,78.9258 825.6601,81.0259 Q825.6601,83.1177 826.3449,84.1844 Q827.0297,85.251 828.3744,85.251 Q829.0053,85.251 829.5988,84.9812 Q830.1923,84.7115 830.8231,84.1304 Z " fill="#000000"/><text fill="#000000" font-family="sans-serif" font-size="14" lengthAdjust="spacing" textLength="143" x="844.65" y="86.001">saksmappeKvittering</text><line style="stroke:#181818;stroke-width:0.5;" x1="804" x2="1000" y1="96.71" y2="96.71"/><ellipse cx="814" cy="110.4541" fill="none" rx="3" ry="3" style="stroke:#038048;stroke-width:1.0;"/><text fill="#000000" font-family="sans-serif" font-size="14" lengthAdjust="spacing" textLength="82" x="823" y="114.2452">saksaar : int</text><ellipse cx="814" cy="126.9424" fill="none" rx="3" ry="3" style="stroke:#038048;stroke-width:1.0;"/><text fill="#000000" font-family="sans-serif" font-size="14" lengthAdjust="spacing" textLength="172" x="823" y="130.7334">sakssekvensnummer : int</text><ellipse cx="814" cy="143.4307" fill="none" rx="3" ry="3" style="stroke:#038048;stroke-width:1.0;"/><text fill="#000000" font-family="sans-serif" font-size="14" lengthAdjust="spacing" textLength="103" x="823" y="147.2217">saksdato : date</text><line style="stroke:#181818;stroke-width:0.5;" x1="804" x2="1000" y1="154.1748" y2="154.1748"/></g><!--reverse link journalpostKvittering to registreringKvittering--><g id="link_journalpostKvittering_registreringKvittering"><path codeLine="28" d="M275.33,113.44 C282.07,113.44 288.82,113.44 295.56,113.44 " fill="none" id="journalpostKvittering-backto-registreringKvittering" style="stroke:#181818;stroke-width:1.0;"/><polygon fill="#181818" points="262.48,113.44,268.48,117.44,274.48,113.44,268.48,109.44,262.48,113.44" style="stroke:#181818;stroke-width:1.0;"/></g><!--reverse link saksmappeKvittering to mappeKvittering--><g id="link_saksmappeKvittering_mappeKvittering"><path codeLine="56" d="M1015.34,113.44 C1022.1,113.44 1028.85,113.44 1035.6,113.44 " fill="none" id="saksmappeKvittering-backto-mappeKvittering" style="stroke:#181818;stroke-width:1.0;"/><polygon fill="#181818" points="1002.48,113.44,1008.48,117.44,1014.48,113.44,1008.48,109.44,1002.48,113.44" style="stroke:#181818;stroke-width:1.0;"/></g><!--SRC=[lLJBJiCm4BpdAt86yGEz8HKaXE3K6-BWDjlAjMDRkvj85Ug_uyJfmwxT7b39oPcPVNhNAos8Qe5AzYteHfhDUo-P0Vsf_gbg_ptIZXZQUbOJ3t00MJRaEgFOuurWMCWM0jCAv-3CownEaA_l84JOIEzon29zdl1c-servjjOrRLWU0caKFQW2Kfflys7nATZ8Anp25xCSy7s8lqZ-zmd9H-YskKMGjqHS3NJL7AF90ynjxP38xIpb0auaKAWDvI68vH0zM38T6qBENvmUPNadGDF9KWSWmLtT1A5_qZId4eE-DhYMcXDvyI-ojVvy5IOdwaxwNZUkeXH7_2pMK1O0mf3y6hHxmtWA1jdTo8MKdyCsDzcJlIakwBTaRsmEwRnedmnQ3ujA0NQgo02_crb2vRtsjNnHGCij6qYYnkUVrTcrz-TN8-eF3YtBkRGE1AAIZFhgMIH1wYunGCPhr3EkL-W1Af-0G00]--></g></svg>