<?xml version="1.0" encoding="us-ascii" standalone="no"?><svg xmlns="http://www.w3.org/2000/svg" xmlns:xlink="http://www.w3.org/1999/xlink" contentStyleType="text/css" height="400px" preserveAspectRatio="none" style="width:2185px;height:400px;background:#FFFFFF;" version="1.1" viewBox="0 0 2185 400" width="2185px" zoomAndPan="magnify"><defs/><g><!--class arkivmeldingKvittering--><g id="elem_arkivmeldingKvittering"><rect codeLine="2" fill="#F1F1F1" height="113.9531" id="arkivmeldingKvittering" rx="2.5" ry="2.5" style="stroke:#181818;stroke-width:0.5;" width="332" x="1471" y="48.22"/><ellipse cx="1555.25" cy="64.22" fill="#ADD1B2" rx="11" ry="11" style="stroke:#181818;stroke-width:1.0;"/><path d="M1557.7231,70.3631 Q1557.1421,70.6619 1556.5029,70.8113 Q1555.8638,70.9607 1555.1582,70.9607 Q1552.6514,70.9607 1551.3315,69.3089 Q1550.0117,67.657 1550.0117,64.5359 Q1550.0117,61.4065 1551.3315,59.7547 Q1552.6514,58.1028 1555.1582,58.1028 Q1555.8638,58.1028 1556.5112,58.2522 Q1557.1587,58.4016 1557.7231,58.7005 L1557.7231,61.4231 Q1557.0923,60.8421 1556.4988,60.5723 Q1555.9053,60.3025 1555.2744,60.3025 Q1553.9297,60.3025 1553.2449,61.3692 Q1552.5601,62.4358 1552.5601,64.5359 Q1552.5601,66.6277 1553.2449,67.6944 Q1553.9297,68.761 1555.2744,68.761 Q1555.9053,68.761 1556.4988,68.4912 Q1557.0923,68.2215 1557.7231,67.6404 Z " fill="#000000"/><text fill="#000000" font-family="sans-serif" font-size="14" lengthAdjust="spacing" textLength="155" x="1575.75" y="69.511">arkivmeldingKvittering</text><line style="stroke:#181818;stroke-width:0.5;" x1="1472" x2="1802" y1="80.22" y2="80.22"/><ellipse cx="1482" cy="93.9641" fill="none" rx="3" ry="3" style="stroke:#038048;stroke-width:1.0;"/><text fill="#000000" font-family="sans-serif" font-size="14" lengthAdjust="spacing" textLength="238" x="1491" y="97.7552">mappeKvittering : mappeKvittering</text><ellipse cx="1482" cy="110.4524" fill="none" rx="3" ry="3" style="stroke:#038048;stroke-width:1.0;"/><text fill="#000000" font-family="sans-serif" font-size="14" lengthAdjust="spacing" textLength="204" x="1491" y="114.2434">mappeFeilet : feilmeldingBase</text><ellipse cx="1482" cy="126.9407" fill="none" rx="3" ry="3" style="stroke:#038048;stroke-width:1.0;"/><text fill="#000000" font-family="sans-serif" font-size="14" lengthAdjust="spacing" textLength="306" x="1491" y="130.7317">registreringKvittering : registreringKvittering</text><ellipse cx="1482" cy="143.429" fill="none" rx="3" ry="3" style="stroke:#038048;stroke-width:1.0;"/><text fill="#000000" font-family="sans-serif" font-size="14" lengthAdjust="spacing" textLength="238" x="1491" y="147.22">registreringFeilet : feilmeldingBase</text><line style="stroke:#181818;stroke-width:0.5;" x1="1472" x2="1802" y1="154.1731" y2="154.1731"/></g><!--class dokumentbeskrivelseKvittering--><g id="elem_dokumentbeskrivelseKvittering"><rect codeLine="8" fill="#F1F1F1" height="130.4414" id="dokumentbeskrivelseKvittering" rx="2.5" ry="2.5" style="stroke:#181818;stroke-width:0.5;" width="340" x="1838" y="39.98"/><ellipse cx="1897.75" cy="55.98" fill="#ADD1B2" rx="11" ry="11" style="stroke:#181818;stroke-width:1.0;"/><path d="M1900.2231,62.1231 Q1899.6421,62.4219 1899.0029,62.5713 Q1898.3638,62.7207 1897.6582,62.7207 Q1895.1514,62.7207 1893.8315,61.0689 Q1892.5117,59.417 1892.5117,56.2959 Q1892.5117,53.1665 1893.8315,51.5147 Q1895.1514,49.8628 1897.6582,49.8628 Q1898.3638,49.8628 1899.0112,50.0122 Q1899.6587,50.1616 1900.2231,50.4605 L1900.2231,53.1831 Q1899.5923,52.6021 1898.9988,52.3323 Q1898.4053,52.0625 1897.7744,52.0625 Q1896.4297,52.0625 1895.7449,53.1292 Q1895.0601,54.1958 1895.0601,56.2959 Q1895.0601,58.3877 1895.7449,59.4544 Q1896.4297,60.521 1897.7744,60.521 Q1898.4053,60.521 1898.9988,60.2512 Q1899.5923,59.9815 1900.2231,59.4004 Z " fill="#000000"/><text fill="#000000" font-family="sans-serif" font-size="14" lengthAdjust="spacing" textLength="212" x="1918.25" y="61.271">dokumentbeskrivelseKvittering</text><line style="stroke:#181818;stroke-width:0.5;" x1="1839" x2="2177" y1="71.98" y2="71.98"/><ellipse cx="1849" cy="85.7241" fill="none" rx="3" ry="3" style="stroke:#038048;stroke-width:1.0;"/><text fill="#000000" font-family="sans-serif" font-size="14" lengthAdjust="spacing" textLength="134" x="1858" y="89.5152">systemID : systemID</text><ellipse cx="1849" cy="102.2124" fill="none" rx="3" ry="3" style="stroke:#038048;stroke-width:1.0;"/><text fill="#000000" font-family="sans-serif" font-size="14" lengthAdjust="spacing" textLength="172" x="1858" y="106.0034">opprettetDato : dateTime</text><ellipse cx="1849" cy="118.7007" fill="none" rx="3" ry="3" style="stroke:#038048;stroke-width:1.0;"/><text fill="#000000" font-family="sans-serif" font-size="14" lengthAdjust="spacing" textLength="133" x="1858" y="122.4917">opprettetAv : string</text><ellipse cx="1849" cy="135.189" fill="none" rx="3" ry="3" style="stroke:#038048;stroke-width:1.0;"/><text fill="#000000" font-family="sans-serif" font-size="14" lengthAdjust="spacing" textLength="158" x="1858" y="138.98">dokumentnummer : int</text><ellipse cx="1849" cy="151.6773" fill="none" rx="3" ry="3" style="stroke:#038048;stroke-width:1.0;"/><text fill="#000000" font-family="sans-serif" font-size="14" lengthAdjust="spacing" textLength="314" x="1858" y="155.4683">dokumentobjekt : dokumentobjektKvittering[]</text><line style="stroke:#181818;stroke-width:0.5;" x1="1839" x2="2177" y1="162.4214" y2="162.4214"/></g><!--class dokumentobjektKvittering--><g id="elem_dokumentobjektKvittering"><rect codeLine="15" fill="#F1F1F1" height="130.4414" id="dokumentobjektKvittering" rx="2.5" ry="2.5" style="stroke:#181818;stroke-width:0.5;" width="224" x="1525" y="263.4"/><ellipse cx="1545.85" cy="279.4" fill="#ADD1B2" rx="11" ry="11" style="stroke:#181818;stroke-width:1.0;"/><path d="M1548.3231,285.5431 Q1547.7421,285.8419 1547.1029,285.9913 Q1546.4638,286.1407 1545.7582,286.1407 Q1543.2514,286.1407 1541.9315,284.4889 Q1540.6117,282.837 1540.6117,279.7159 Q1540.6117,276.5865 1541.9315,274.9347 Q1543.2514,273.2828 1545.7582,273.2828 Q1546.4638,273.2828 1547.1112,273.4322 Q1547.7587,273.5816 1548.3231,273.8805 L1548.3231,276.6031 Q1547.6923,276.0221 1547.0988,275.7523 Q1546.5053,275.4825 1545.8744,275.4825 Q1544.5297,275.4825 1543.8449,276.5492 Q1543.1601,277.6158 1543.1601,279.7159 Q1543.1601,281.8077 1543.8449,282.8744 Q1544.5297,283.941 1545.8744,283.941 Q1546.5053,283.941 1547.0988,283.6712 Q1547.6923,283.4015 1548.3231,282.8204 Z " fill="#000000"/><text fill="#000000" font-family="sans-serif" font-size="14" lengthAdjust="spacing" textLength="179" x="1561.15" y="284.691">dokumentobjektKvittering</text><line style="stroke:#181818;stroke-width:0.5;" x1="1526" x2="1748" y1="295.4" y2="295.4"/><ellipse cx="1536" cy="309.1441" fill="none" rx="3" ry="3" style="stroke:#038048;stroke-width:1.0;"/><text fill="#000000" font-family="sans-serif" font-size="14" lengthAdjust="spacing" textLength="134" x="1545" y="312.9352">systemID : systemID</text><ellipse cx="1536" cy="325.6324" fill="none" rx="3" ry="3" style="stroke:#038048;stroke-width:1.0;"/><text fill="#000000" font-family="sans-serif" font-size="14" lengthAdjust="spacing" textLength="145" x="1545" y="329.4234">versjonsnummer : int</text><ellipse cx="1536" cy="342.1207" fill="none" rx="3" ry="3" style="stroke:#038048;stroke-width:1.0;"/><text fill="#000000" font-family="sans-serif" font-size="14" lengthAdjust="spacing" textLength="198" x="1545" y="345.9117">variantformat : variantformat</text><ellipse cx="1536" cy="358.609" fill="none" rx="3" ry="3" style="stroke:#038048;stroke-width:1.0;"/><text fill="#000000" font-family="sans-serif" font-size="14" lengthAdjust="spacing" textLength="172" x="1545" y="362.4">opprettetDato : dateTime</text><ellipse cx="1536" cy="375.0973" fill="none" rx="3" ry="3" style="stroke:#038048;stroke-width:1.0;"/><text fill="#000000" font-family="sans-serif" font-size="14" lengthAdjust="spacing" textLength="133" x="1545" y="378.8883">opprettetAv : string</text><line style="stroke:#181818;stroke-width:0.5;" x1="1526" x2="1748" y1="385.8414" y2="385.8414"/></g><!--class journalpostKvittering--><g id="elem_journalpostKvittering"><rect codeLine="22" fill="#F1F1F1" height="163.418" id="journalpostKvittering" rx="2.5" ry="2.5" style="stroke:#181818;stroke-width:0.5;" width="254" x="7" y="23.49"/><ellipse cx="57.25" cy="39.49" fill="#ADD1B2" rx="11" ry="11" style="stroke:#181818;stroke-width:1.0;"/><path d="M59.7231,45.6331 Q59.1421,45.9319 58.5029,46.0813 Q57.8638,46.2307 57.1582,46.2307 Q54.6514,46.2307 53.3315,44.5789 Q52.0117,42.927 52.0117,39.8059 Q52.0117,36.6765 53.3315,35.0247 Q54.6514,33.3728 57.1582,33.3728 Q57.8638,33.3728 58.5112,33.5222 Q59.1587,33.6716 59.7231,33.9705 L59.7231,36.6931 Q59.0923,36.1121 58.4988,35.8423 Q57.9053,35.5725 57.2744,35.5725 Q55.9297,35.5725 55.2449,36.6392 Q54.5601,37.7058 54.5601,39.8059 Q54.5601,41.8977 55.2449,42.9644 Q55.9297,44.031 57.2744,44.031 Q57.9053,44.031 58.4988,43.7612 Q59.0923,43.4915 59.7231,42.9104 Z " fill="#000000"/><text fill="#000000" font-family="sans-serif" font-size="14" lengthAdjust="spacing" textLength="145" x="77.75" y="44.781">journalpostKvittering</text><line style="stroke:#181818;stroke-width:0.5;" x1="8" x2="260" y1="55.49" y2="55.49"/><ellipse cx="18" cy="69.2341" fill="none" rx="3" ry="3" style="stroke:#038048;stroke-width:1.0;"/><text fill="#000000" font-family="sans-serif" font-size="14" lengthAdjust="spacing" textLength="101" x="27" y="73.0252">journalaar : int</text><ellipse cx="18" cy="85.7224" fill="none" rx="3" ry="3" style="stroke:#038048;stroke-width:1.0;"/><text fill="#000000" font-family="sans-serif" font-size="14" lengthAdjust="spacing" textLength="191" x="27" y="89.5134">journalsekvensnummer : int</text><ellipse cx="18" cy="102.2107" fill="none" rx="3" ry="3" style="stroke:#038048;stroke-width:1.0;"/><text fill="#000000" font-family="sans-serif" font-size="14" lengthAdjust="spacing" textLength="167" x="27" y="106.0017">journalpostnummer : int</text><ellipse cx="18" cy="118.699" fill="none" rx="3" ry="3" style="stroke:#038048;stroke-width:1.0;"/><text fill="#000000" font-family="sans-serif" font-size="14" lengthAdjust="spacing" textLength="228" x="27" y="122.49">journalposttype : journalposttype</text><ellipse cx="18" cy="135.1873" fill="none" rx="3" ry="3" style="stroke:#038048;stroke-width:1.0;"/><text fill="#000000" font-family="sans-serif" font-size="14" lengthAdjust="spacing" textLength="192" x="27" y="138.9783">journalstatus : journalstatus</text><ellipse cx="18" cy="151.6755" fill="none" rx="3" ry="3" style="stroke:#038048;stroke-width:1.0;"/><text fill="#000000" font-family="sans-serif" font-size="14" lengthAdjust="spacing" textLength="122" x="27" y="155.4666">journaldato : date</text><ellipse cx="18" cy="168.1638" fill="none" rx="3" ry="3" style="stroke:#038048;stroke-width:1.0;"/><text fill="#000000" font-family="sans-serif" font-size="14" lengthAdjust="spacing" textLength="121" x="27" y="171.9548">forfallsdato : date</text><line style="stroke:#181818;stroke-width:0.5;" x1="8" x2="260" y1="178.908" y2="178.908"/></g><!--class registreringKvittering--><g id="elem_registreringKvittering"><rect codeLine="47" fill="#F1F1F1" height="179.9063" id="registreringKvittering" rx="2.5" ry="2.5" style="stroke:#181818;stroke-width:0.5;" width="472" x="296" y="15.25"/><ellipse cx="454.25" cy="31.25" fill="#ADD1B2" rx="11" ry="11" style="stroke:#181818;stroke-width:1.0;"/><path d="M456.7231,37.3931 Q456.1421,37.6919 455.5029,37.8413 Q454.8638,37.9907 454.1582,37.9907 Q451.6514,37.9907 450.3315,36.3389 Q449.0117,34.687 449.0117,31.5659 Q449.0117,28.4365 450.3315,26.7847 Q451.6514,25.1328 454.1582,25.1328 Q454.8638,25.1328 455.5112,25.2822 Q456.1587,25.4316 456.7231,25.7305 L456.7231,28.4531 Q456.0923,27.8721 455.4988,27.6023 Q454.9053,27.3325 454.2744,27.3325 Q452.9297,27.3325 452.2449,28.3992 Q451.5601,29.4658 451.5601,31.5659 Q451.5601,33.6577 452.2449,34.7244 Q452.9297,35.791 454.2744,35.791 Q454.9053,35.791 455.4988,35.5212 Q456.0923,35.2515 456.7231,34.6704 Z " fill="#000000"/><text fill="#000000" font-family="sans-serif" font-size="14" lengthAdjust="spacing" textLength="147" x="474.75" y="36.541">registreringKvittering</text><line style="stroke:#181818;stroke-width:0.5;" x1="297" x2="767" y1="47.25" y2="47.25"/><ellipse cx="307" cy="60.9941" fill="none" rx="3" ry="3" style="stroke:#038048;stroke-width:1.0;"/><text fill="#000000" font-family="sans-serif" font-size="14" lengthAdjust="spacing" textLength="134" x="316" y="64.7852">systemID : systemID</text><ellipse cx="307" cy="77.4824" fill="none" rx="3" ry="3" style="stroke:#038048;stroke-width:1.0;"/><text fill="#000000" font-family="sans-serif" font-size="14" lengthAdjust="spacing" textLength="172" x="316" y="81.2734">opprettetDato : dateTime</text><ellipse cx="307" cy="93.9707" fill="none" rx="3" ry="3" style="stroke:#038048;stroke-width:1.0;"/><text fill="#000000" font-family="sans-serif" font-size="14" lengthAdjust="spacing" textLength="133" x="316" y="97.7617">opprettetAv : string</text><ellipse cx="307" cy="110.459" fill="none" rx="3" ry="3" style="stroke:#038048;stroke-width:1.0;"/><text fill="#000000" font-family="sans-serif" font-size="14" lengthAdjust="spacing" textLength="160" x="316" y="114.25">arkivertDato : dateTime</text><ellipse cx="307" cy="126.9473" fill="none" rx="3" ry="3" style="stroke:#038048;stroke-width:1.0;"/><text fill="#000000" font-family="sans-serif" font-size="14" lengthAdjust="spacing" textLength="121" x="316" y="130.7383">arkivertAv : string</text><ellipse cx="307" cy="143.4355" fill="none" rx="3" ry="3" style="stroke:#038048;stroke-width:1.0;"/><text fill="#000000" font-family="sans-serif" font-size="14" lengthAdjust="spacing" textLength="446" x="316" y="147.2266">dokumentbeskrivelseKvittering : dokumentbeskrivelseKvittering[]</text><ellipse cx="307" cy="159.9238" fill="none" rx="3" ry="3" style="stroke:#038048;stroke-width:1.0;"/><text fill="#000000" font-family="sans-serif" font-size="14" lengthAdjust="spacing" textLength="154" x="316" y="163.7148">registreringsID : string</text><ellipse cx="307" cy="176.4121" fill="none" rx="3" ry="3" style="stroke:#038048;stroke-width:1.0;"/><text fill="#000000" font-family="sans-serif" font-size="14" lengthAdjust="spacing" textLength="289" x="316" y="180.2031">referanseEksternNoekkel : eksternNoekkel</text><line style="stroke:#181818;stroke-width:0.5;" x1="297" x2="767" y1="187.1563" y2="187.1563"/></g><!--class mappeKvittering--><g id="elem_mappeKvittering"><rect codeLine="32" fill="#F1F1F1" height="196.3945" id="mappeKvittering" rx="2.5" ry="2.5" style="stroke:#181818;stroke-width:0.5;" width="400" x="1036" y="7"/><ellipse cx="1175.25" cy="23" fill="#ADD1B2" rx="11" ry="11" style="stroke:#181818;stroke-width:1.0;"/><path d="M1177.7231,29.1431 Q1177.1421,29.4419 1176.5029,29.5913 Q1175.8638,29.7407 1175.1582,29.7407 Q1172.6514,29.7407 1171.3315,28.0889 Q1170.0117,26.437 1170.0117,23.3159 Q1170.0117,20.1865 1171.3315,18.5347 Q1172.6514,16.8828 1175.1582,16.8828 Q1175.8638,16.8828 1176.5112,17.0322 Q1177.1587,17.1816 1177.7231,17.4805 L1177.7231,20.2031 Q1177.0923,19.6221 1176.4988,19.3523 Q1175.9053,19.0825 1175.2744,19.0825 Q1173.9297,19.0825 1173.2449,20.1492 Q1172.5601,21.2158 1172.5601,23.3159 Q1172.5601,25.4077 1173.2449,26.4744 Q1173.9297,27.541 1175.2744,27.541 Q1175.9053,27.541 1176.4988,27.2712 Q1177.0923,27.0015 1177.7231,26.4204 Z " fill="#000000"/><text fill="#000000" font-family="sans-serif" font-size="14" lengthAdjust="spacing" textLength="113" x="1195.75" y="28.291">mappeKvittering</text><line style="stroke:#181818;stroke-width:0.5;" x1="1037" x2="1435" y1="39" y2="39"/><ellipse cx="1047" cy="52.7441" fill="none" rx="3" ry="3" style="stroke:#038048;stroke-width:1.0;"/><text fill="#000000" font-family="sans-serif" font-size="14" lengthAdjust="spacing" textLength="134" x="1056" y="56.5352">systemID : systemID</text><ellipse cx="1047" cy="69.2324" fill="none" rx="3" ry="3" style="stroke:#038048;stroke-width:1.0;"/><text fill="#000000" font-family="sans-serif" font-size="14" lengthAdjust="spacing" textLength="113" x="1056" y="73.0234">mappeID : string</text><ellipse cx="1047" cy="85.7207" fill="none" rx="3" ry="3" style="stroke:#038048;stroke-width:1.0;"/><text fill="#000000" font-family="sans-serif" font-size="14" lengthAdjust="spacing" textLength="310" x="1056" y="89.5117">referanseForeldermappe : referanseTilMappe</text><ellipse cx="1047" cy="102.209" fill="none" rx="3" ry="3" style="stroke:#038048;stroke-width:1.0;"/><text fill="#000000" font-family="sans-serif" font-size="14" lengthAdjust="spacing" textLength="172" x="1056" y="106">opprettetDato : dateTime</text><ellipse cx="1047" cy="118.6973" fill="none" rx="3" ry="3" style="stroke:#038048;stroke-width:1.0;"/><text fill="#000000" font-family="sans-serif" font-size="14" lengthAdjust="spacing" textLength="133" x="1056" y="122.4883">opprettetAv : string</text><ellipse cx="1047" cy="135.1855" fill="none" rx="3" ry="3" style="stroke:#038048;stroke-width:1.0;"/><text fill="#000000" font-family="sans-serif" font-size="14" lengthAdjust="spacing" textLength="166" x="1056" y="138.9766">avsluttetDato : dateTime</text><ellipse cx="1047" cy="151.6738" fill="none" rx="3" ry="3" style="stroke:#038048;stroke-width:1.0;"/><text fill="#000000" font-family="sans-serif" font-size="14" lengthAdjust="spacing" textLength="127" x="1056" y="155.4648">avsluttetAv : string</text><ellipse cx="1047" cy="168.1621" fill="none" rx="3" ry="3" style="stroke:#038048;stroke-width:1.0;"/><text fill="#000000" font-family="sans-serif" font-size="14" lengthAdjust="spacing" textLength="289" x="1056" y="171.9531">referanseEksternNoekkel : eksternNoekkel</text><ellipse cx="1047" cy="184.6504" fill="none" rx="3" ry="3" style="stroke:#038048;stroke-width:1.0;"/><text fill="#000000" font-family="sans-serif" font-size="14" lengthAdjust="spacing" textLength="374" x="1056" y="188.4414">opprettetEllerEksisterende : opprettetEllerEksisterende</text><line style="stroke:#181818;stroke-width:0.5;" x1="1037" x2="1435" y1="195.3945" y2="195.3945"/></g><!--class opprettetEllerEksisterende--><g id="elem_opprettetEllerEksisterende"><rect codeLine="43" fill="#F1F1F1" height="80.9766" id="opprettetEllerEksisterende" rx="2.5" ry="2.5" style="stroke:#181818;stroke-width:0.5;" width="213" x="1783.5" y="288.13"/><ellipse cx="1798.5" cy="304.13" fill="#EB937F" rx="11" ry="11" style="stroke:#181818;stroke-width:1.0;"/><path d="M1802.1143,310.63 L1794.3945,310.63 L1794.3945,298.2369 L1802.1143,298.2369 L1802.1143,300.3951 L1796.8433,300.3951 L1796.8433,303.068 L1801.6162,303.068 L1801.6162,305.2262 L1796.8433,305.2262 L1796.8433,308.4718 L1802.1143,308.4718 Z " fill="#000000"/><text fill="#000000" font-family="sans-serif" font-size="14" lengthAdjust="spacing" textLength="181" x="1812.5" y="309.421">opprettetEllerEksisterende</text><line style="stroke:#181818;stroke-width:0.5;" x1="1784.5" x2="1995.5" y1="320.13" y2="320.13"/><text fill="#000000" font-family="sans-serif" font-size="14" lengthAdjust="spacing" textLength="151" x="1789.5" y="337.6652">Opprettet = Opprettet</text><text fill="#000000" font-family="sans-serif" font-size="14" lengthAdjust="spacing" textLength="193" x="1789.5" y="354.1534">Eksisterende = Eksisterende</text><line style="stroke:#181818;stroke-width:0.5;" x1="1784.5" x2="1995.5" y1="361.1066" y2="361.1066"/></g><!--class saksmappeKvittering--><g id="elem_saksmappeKvittering"><rect codeLine="57" fill="#F1F1F1" height="97.4648" id="saksmappeKvittering" rx="2.5" ry="2.5" style="stroke:#181818;stroke-width:0.5;" width="198" x="803" y="56.47"/><ellipse cx="828.35" cy="72.47" fill="#ADD1B2" rx="11" ry="11" style="stroke:#181818;stroke-width:1.0;"/><path d="M830.8231,78.6131 Q830.2421,78.9119 829.6029,79.0613 Q828.9638,79.2107 828.2582,79.2107 Q825.7514,79.2107 824.4315,77.5589 Q823.1117,75.907 823.1117,72.7859 Q823.1117,69.6565 824.4315,68.0047 Q825.7514,66.3528 828.2582,66.3528 Q828.9638,66.3528 829.6112,66.5022 Q830.2587,66.6516 830.8231,66.9505 L830.8231,69.6731 Q830.1923,69.0921 829.5988,68.8223 Q829.0053,68.5525 828.3744,68.5525 Q827.0297,68.5525 826.3449,69.6192 Q825.6601,70.6858 825.6601,72.7859 Q825.6601,74.8777 826.3449,75.9444 Q827.0297,77.011 828.3744,77.011 Q829.0053,77.011 829.5988,76.7412 Q830.1923,76.4715 830.8231,75.8904 Z " fill="#000000"/><text fill="#000000" font-family="sans-serif" font-size="14" lengthAdjust="spacing" textLength="143" x="844.65" y="77.761">saksmappeKvittering</text><line style="stroke:#181818;stroke-width:0.5;" x1="804" x2="1000" y1="88.47" y2="88.47"/><ellipse cx="814" cy="102.2141" fill="none" rx="3" ry="3" style="stroke:#038048;stroke-width:1.0;"/><text fill="#000000" font-family="sans-serif" font-size="14" lengthAdjust="spacing" textLength="82" x="823" y="106.0052">saksaar : int</text><ellipse cx="814" cy="118.7024" fill="none" rx="3" ry="3" style="stroke:#038048;stroke-width:1.0;"/><text fill="#000000" font-family="sans-serif" font-size="14" lengthAdjust="spacing" textLength="172" x="823" y="122.4934">sakssekvensnummer : int</text><ellipse cx="814" cy="135.1907" fill="none" rx="3" ry="3" style="stroke:#038048;stroke-width:1.0;"/><text fill="#000000" font-family="sans-serif" font-size="14" lengthAdjust="spacing" textLength="103" x="823" y="138.9817">saksdato : date</text><line style="stroke:#181818;stroke-width:0.5;" x1="804" x2="1000" y1="145.9348" y2="145.9348"/></g><!--reverse link journalpostKvittering to registreringKvittering--><g id="link_journalpostKvittering_registreringKvittering"><path codeLine="31" d="M275.33,105.2 C282.07,105.2 288.82,105.2 295.56,105.2 " fill="none" id="journalpostKvittering-backto-registreringKvittering" style="stroke:#181818;stroke-width:1.0;"/><polygon fill="#181818" points="262.48,105.2,268.48,109.2,274.48,105.2,268.48,101.2,262.48,105.2" style="stroke:#181818;stroke-width:1.0;"/></g><!--reverse link saksmappeKvittering to mappeKvittering--><g id="link_saksmappeKvittering_mappeKvittering"><path codeLine="62" d="M1015.44,105.2 C1022.24,105.2 1029.04,105.2 1035.84,105.2 " fill="none" id="saksmappeKvittering-backto-mappeKvittering" style="stroke:#181818;stroke-width:1.0;"/><polygon fill="#181818" points="1002.48,105.2,1008.48,109.2,1014.48,105.2,1008.48,101.2,1002.48,105.2" style="stroke:#181818;stroke-width:1.0;"/></g><!--SRC=[jLLDJyCm3BtlL_GCuWzCuW0298I0osw8Ww7kb2LDAZkjX13_7VUBDccpII1sIlsUdMV7zjuDC6T0MZKbcbpP_KEZl4UIK_QvoUHtNa9LuSoypIBBZ7Q7og0NIY678U8rCFOKmhrYJvrJ470TM3ebmtzjthjCSgVh4gr_GzQa6ZICouJuWpsMzpSIPppsWAigGY7x6_1Eq1myxbI94NhLj9v-aZZUQkkoH19GMHyYxks0kXKU6YPjBw-B76BAIVaD4X-SvQMC1aY1zOMZ4beLmVUlSny57rnD5apbU4Nj0084WWOhesvmJV0iv57GVrGeK6G9x_3WQvv8_NT0oQUKUxiKfW1ZU0vyRTRpFBj8jMzVdNXyJhrYn-_jVZu51H9OnZj7qlT87QqRdG7OAVFOslxMoj2mgPD-F-Z2xqV6hPPao3uvr1gDi30mHFVV6eCaBghbeCtRZDAWl05AEnnX3DLz7WdPvNJka81ycKNH-nTBhAd_sXxTzaLAL7m0apjdVTDjZsz2sJQBtShfdZlrfcFX63IdsbsWQ0UqfkG2QC5m-jQ2o-p5_qNV]--></g></svg>