<?xml version="1.0" encoding="us-ascii" standalone="no"?><svg xmlns="http://www.w3.org/2000/svg" xmlns:xlink="http://www.w3.org/1999/xlink" contentStyleType="text/css" height="873px" preserveAspectRatio="none" style="width:1661px;height:873px;background:#FFFFFF;" version="1.1" viewBox="0 0 1661 873" width="1661px" zoomAndPan="magnify"><defs/><g><!--class arkivmeldingKvittering--><g id="elem_arkivmeldingKvittering"><rect codeLine="2" fill="#F1F1F1" height="113.9531" id="arkivmeldingKvittering" rx="2.5" ry="2.5" style="stroke:#181818;stroke-width:0.5;" width="332" x="983" y="7"/><ellipse cx="1067.25" cy="23" fill="#ADD1B2" rx="11" ry="11" style="stroke:#181818;stroke-width:1.0;"/><path d="M1069.7231,29.1431 Q1069.1421,29.4419 1068.5029,29.5913 Q1067.8638,29.7407 1067.1582,29.7407 Q1064.6514,29.7407 1063.3315,28.0889 Q1062.0117,26.437 1062.0117,23.3159 Q1062.0117,20.1865 1063.3315,18.5347 Q1064.6514,16.8828 1067.1582,16.8828 Q1067.8638,16.8828 1068.5112,17.0322 Q1069.1587,17.1816 1069.7231,17.4805 L1069.7231,20.2031 Q1069.0923,19.6221 1068.4988,19.3523 Q1067.9053,19.0825 1067.2744,19.0825 Q1065.9297,19.0825 1065.2449,20.1492 Q1064.5601,21.2158 1064.5601,23.3159 Q1064.5601,25.4077 1065.2449,26.4744 Q1065.9297,27.541 1067.2744,27.541 Q1067.9053,27.541 1068.4988,27.2712 Q1069.0923,27.0015 1069.7231,26.4204 Z " fill="#000000"/><text fill="#000000" font-family="sans-serif" font-size="14" lengthAdjust="spacing" textLength="155" x="1087.75" y="28.291">arkivmeldingKvittering</text><line style="stroke:#181818;stroke-width:0.5;" x1="984" x2="1314" y1="39" y2="39"/><ellipse cx="994" cy="52.7441" fill="none" rx="3" ry="3" style="stroke:#038048;stroke-width:1.0;"/><text fill="#000000" font-family="sans-serif" font-size="14" lengthAdjust="spacing" textLength="238" x="1003" y="56.5352">mappeKvittering : mappeKvittering</text><ellipse cx="994" cy="69.2324" fill="none" rx="3" ry="3" style="stroke:#038048;stroke-width:1.0;"/><text fill="#000000" font-family="sans-serif" font-size="14" lengthAdjust="spacing" textLength="204" x="1003" y="73.0234">mappeFeilet : feilmeldingBase</text><ellipse cx="994" cy="85.7207" fill="none" rx="3" ry="3" style="stroke:#038048;stroke-width:1.0;"/><text fill="#000000" font-family="sans-serif" font-size="14" lengthAdjust="spacing" textLength="306" x="1003" y="89.5117">registreringKvittering : registreringKvittering</text><ellipse cx="994" cy="102.209" fill="none" rx="3" ry="3" style="stroke:#038048;stroke-width:1.0;"/><text fill="#000000" font-family="sans-serif" font-size="14" lengthAdjust="spacing" textLength="238" x="1003" y="106">registreringFeilet : feilmeldingBase</text><line style="stroke:#181818;stroke-width:0.5;" x1="984" x2="1314" y1="112.9531" y2="112.9531"/></g><!--class mappeKvittering--><g id="elem_mappeKvittering"><rect codeLine="39" fill="#F1F1F1" height="196.3945" id="mappeKvittering" rx="2.5" ry="2.5" style="stroke:#181818;stroke-width:0.5;" width="400" x="1254" y="180.95"/><ellipse cx="1393.25" cy="196.95" fill="#ADD1B2" rx="11" ry="11" style="stroke:#181818;stroke-width:1.0;"/><path d="M1395.7231,203.0931 Q1395.1421,203.3919 1394.5029,203.5413 Q1393.8638,203.6907 1393.1582,203.6907 Q1390.6514,203.6907 1389.3315,202.0389 Q1388.0117,200.387 1388.0117,197.2659 Q1388.0117,194.1365 1389.3315,192.4847 Q1390.6514,190.8328 1393.1582,190.8328 Q1393.8638,190.8328 1394.5112,190.9822 Q1395.1587,191.1316 1395.7231,191.4305 L1395.7231,194.1531 Q1395.0923,193.5721 1394.4988,193.3023 Q1393.9053,193.0325 1393.2744,193.0325 Q1391.9297,193.0325 1391.2449,194.0992 Q1390.5601,195.1658 1390.5601,197.2659 Q1390.5601,199.3577 1391.2449,200.4244 Q1391.9297,201.491 1393.2744,201.491 Q1393.9053,201.491 1394.4988,201.2212 Q1395.0923,200.9515 1395.7231,200.3704 Z " fill="#000000"/><text fill="#000000" font-family="sans-serif" font-size="14" lengthAdjust="spacing" textLength="113" x="1413.75" y="202.241">mappeKvittering</text><line style="stroke:#181818;stroke-width:0.5;" x1="1255" x2="1653" y1="212.95" y2="212.95"/><ellipse cx="1265" cy="226.6941" fill="none" rx="3" ry="3" style="stroke:#038048;stroke-width:1.0;"/><text fill="#000000" font-family="sans-serif" font-size="14" lengthAdjust="spacing" textLength="134" x="1274" y="230.4852">systemID : systemID</text><ellipse cx="1265" cy="243.1824" fill="none" rx="3" ry="3" style="stroke:#038048;stroke-width:1.0;"/><text fill="#000000" font-family="sans-serif" font-size="14" lengthAdjust="spacing" textLength="113" x="1274" y="246.9734">mappeID : string</text><ellipse cx="1265" cy="259.6707" fill="none" rx="3" ry="3" style="stroke:#038048;stroke-width:1.0;"/><text fill="#000000" font-family="sans-serif" font-size="14" lengthAdjust="spacing" textLength="310" x="1274" y="263.4617">referanseForeldermappe : referanseTilMappe</text><ellipse cx="1265" cy="276.159" fill="none" rx="3" ry="3" style="stroke:#038048;stroke-width:1.0;"/><text fill="#000000" font-family="sans-serif" font-size="14" lengthAdjust="spacing" textLength="172" x="1274" y="279.95">opprettetDato : dateTime</text><ellipse cx="1265" cy="292.6473" fill="none" rx="3" ry="3" style="stroke:#038048;stroke-width:1.0;"/><text fill="#000000" font-family="sans-serif" font-size="14" lengthAdjust="spacing" textLength="133" x="1274" y="296.4383">opprettetAv : string</text><ellipse cx="1265" cy="309.1355" fill="none" rx="3" ry="3" style="stroke:#038048;stroke-width:1.0;"/><text fill="#000000" font-family="sans-serif" font-size="14" lengthAdjust="spacing" textLength="166" x="1274" y="312.9266">avsluttetDato : dateTime</text><ellipse cx="1265" cy="325.6238" fill="none" rx="3" ry="3" style="stroke:#038048;stroke-width:1.0;"/><text fill="#000000" font-family="sans-serif" font-size="14" lengthAdjust="spacing" textLength="127" x="1274" y="329.4148">avsluttetAv : string</text><ellipse cx="1265" cy="342.1121" fill="none" rx="3" ry="3" style="stroke:#038048;stroke-width:1.0;"/><text fill="#000000" font-family="sans-serif" font-size="14" lengthAdjust="spacing" textLength="289" x="1274" y="345.9031">referanseEksternNoekkel : eksternNoekkel</text><ellipse cx="1265" cy="358.6004" fill="none" rx="3" ry="3" style="stroke:#038048;stroke-width:1.0;"/><text fill="#000000" font-family="sans-serif" font-size="14" lengthAdjust="spacing" textLength="374" x="1274" y="362.3914">opprettetEllerEksisterende : opprettetEllerEksisterende</text><line style="stroke:#181818;stroke-width:0.5;" x1="1255" x2="1653" y1="369.3445" y2="369.3445"/></g><!--class feilmeldingBase--><g id="elem_feilmeldingBase"><rect fill="#F1F1F1" height="48" id="feilmeldingBase" rx="2.5" ry="2.5" style="stroke:#181818;stroke-width:0.5;" width="140" x="1079" y="255.15"/><ellipse cx="1094" cy="271.15" fill="#ADD1B2" rx="11" ry="11" style="stroke:#181818;stroke-width:1.0;"/><path d="M1096.4731,277.2931 Q1095.8921,277.5919 1095.2529,277.7413 Q1094.6138,277.8907 1093.9082,277.8907 Q1091.4014,277.8907 1090.0815,276.2389 Q1088.7617,274.587 1088.7617,271.4659 Q1088.7617,268.3365 1090.0815,266.6847 Q1091.4014,265.0328 1093.9082,265.0328 Q1094.6138,265.0328 1095.2612,265.1822 Q1095.9087,265.3316 1096.4731,265.6305 L1096.4731,268.3531 Q1095.8423,267.7721 1095.2488,267.5023 Q1094.6553,267.2325 1094.0244,267.2325 Q1092.6797,267.2325 1091.9949,268.2992 Q1091.3101,269.3658 1091.3101,271.4659 Q1091.3101,273.5577 1091.9949,274.6244 Q1092.6797,275.691 1094.0244,275.691 Q1094.6553,275.691 1095.2488,275.4212 Q1095.8423,275.1515 1096.4731,274.5704 Z " fill="#000000"/><text fill="#000000" font-family="sans-serif" font-size="14" lengthAdjust="spacing" textLength="108" x="1108" y="276.441">feilmeldingBase</text><line style="stroke:#181818;stroke-width:0.5;" x1="1080" x2="1218" y1="287.15" y2="287.15"/><line style="stroke:#181818;stroke-width:0.5;" x1="1080" x2="1218" y1="295.15" y2="295.15"/></g><!--class registreringKvittering--><g id="elem_registreringKvittering"><rect codeLine="57" fill="#F1F1F1" height="196.3945" id="registreringKvittering" rx="2.5" ry="2.5" style="stroke:#181818;stroke-width:0.5;" width="472" x="339" y="180.95"/><ellipse cx="497.25" cy="196.95" fill="#ADD1B2" rx="11" ry="11" style="stroke:#181818;stroke-width:1.0;"/><path d="M499.7231,203.0931 Q499.1421,203.3919 498.5029,203.5413 Q497.8638,203.6907 497.1582,203.6907 Q494.6514,203.6907 493.3315,202.0389 Q492.0117,200.387 492.0117,197.2659 Q492.0117,194.1365 493.3315,192.4847 Q494.6514,190.8328 497.1582,190.8328 Q497.8638,190.8328 498.5112,190.9822 Q499.1587,191.1316 499.7231,191.4305 L499.7231,194.1531 Q499.0923,193.5721 498.4988,193.3023 Q497.9053,193.0325 497.2744,193.0325 Q495.9297,193.0325 495.2449,194.0992 Q494.5601,195.1658 494.5601,197.2659 Q494.5601,199.3577 495.2449,200.4244 Q495.9297,201.491 497.2744,201.491 Q497.9053,201.491 498.4988,201.2212 Q499.0923,200.9515 499.7231,200.3704 Z " fill="#000000"/><text fill="#000000" font-family="sans-serif" font-size="14" lengthAdjust="spacing" textLength="147" x="517.75" y="202.241">registreringKvittering</text><line style="stroke:#181818;stroke-width:0.5;" x1="340" x2="810" y1="212.95" y2="212.95"/><ellipse cx="350" cy="226.6941" fill="none" rx="3" ry="3" style="stroke:#038048;stroke-width:1.0;"/><text fill="#000000" font-family="sans-serif" font-size="14" lengthAdjust="spacing" textLength="134" x="359" y="230.4852">systemID : systemID</text><ellipse cx="350" cy="243.1824" fill="none" rx="3" ry="3" style="stroke:#038048;stroke-width:1.0;"/><text fill="#000000" font-family="sans-serif" font-size="14" lengthAdjust="spacing" textLength="172" x="359" y="246.9734">opprettetDato : dateTime</text><ellipse cx="350" cy="259.6707" fill="none" rx="3" ry="3" style="stroke:#038048;stroke-width:1.0;"/><text fill="#000000" font-family="sans-serif" font-size="14" lengthAdjust="spacing" textLength="133" x="359" y="263.4617">opprettetAv : string</text><ellipse cx="350" cy="276.159" fill="none" rx="3" ry="3" style="stroke:#038048;stroke-width:1.0;"/><text fill="#000000" font-family="sans-serif" font-size="14" lengthAdjust="spacing" textLength="160" x="359" y="279.95">arkivertDato : dateTime</text><ellipse cx="350" cy="292.6473" fill="none" rx="3" ry="3" style="stroke:#038048;stroke-width:1.0;"/><text fill="#000000" font-family="sans-serif" font-size="14" lengthAdjust="spacing" textLength="121" x="359" y="296.4383">arkivertAv : string</text><ellipse cx="350" cy="309.1355" fill="none" rx="3" ry="3" style="stroke:#038048;stroke-width:1.0;"/><text fill="#000000" font-family="sans-serif" font-size="14" lengthAdjust="spacing" textLength="446" x="359" y="312.9266">dokumentbeskrivelseKvittering : dokumentbeskrivelseKvittering[]</text><ellipse cx="350" cy="325.6238" fill="none" rx="3" ry="3" style="stroke:#038048;stroke-width:1.0;"/><text fill="#000000" font-family="sans-serif" font-size="14" lengthAdjust="spacing" textLength="154" x="359" y="329.4148">registreringsID : string</text><ellipse cx="350" cy="342.1121" fill="none" rx="3" ry="3" style="stroke:#038048;stroke-width:1.0;"/><text fill="#000000" font-family="sans-serif" font-size="14" lengthAdjust="spacing" textLength="289" x="359" y="345.9031">referanseEksternNoekkel : eksternNoekkel</text><ellipse cx="350" cy="358.6004" fill="none" rx="3" ry="3" style="stroke:#038048;stroke-width:1.0;"/><text fill="#000000" font-family="sans-serif" font-size="14" lengthAdjust="spacing" textLength="374" x="359" y="362.3914">opprettetEllerEksisterende : opprettetEllerEksisterende</text><line style="stroke:#181818;stroke-width:0.5;" x1="340" x2="810" y1="369.3445" y2="369.3445"/></g><!--class dokumentbeskrivelseKvittering--><g id="elem_dokumentbeskrivelseKvittering"><rect codeLine="11" fill="#F1F1F1" height="130.4414" id="dokumentbeskrivelseKvittering" rx="2.5" ry="2.5" style="stroke:#181818;stroke-width:0.5;" width="340" x="405" y="437.35"/><ellipse cx="464.75" cy="453.35" fill="#ADD1B2" rx="11" ry="11" style="stroke:#181818;stroke-width:1.0;"/><path d="M467.2231,459.4931 Q466.6421,459.7919 466.0029,459.9413 Q465.3638,460.0907 464.6582,460.0907 Q462.1514,460.0907 460.8315,458.4389 Q459.5117,456.787 459.5117,453.6659 Q459.5117,450.5365 460.8315,448.8847 Q462.1514,447.2328 464.6582,447.2328 Q465.3638,447.2328 466.0112,447.3822 Q466.6587,447.5316 467.2231,447.8305 L467.2231,450.5531 Q466.5923,449.9721 465.9988,449.7023 Q465.4053,449.4325 464.7744,449.4325 Q463.4297,449.4325 462.7449,450.4992 Q462.0601,451.5658 462.0601,453.6659 Q462.0601,455.7577 462.7449,456.8244 Q463.4297,457.891 464.7744,457.891 Q465.4053,457.891 465.9988,457.6212 Q466.5923,457.3515 467.2231,456.7704 Z " fill="#000000"/><text fill="#000000" font-family="sans-serif" font-size="14" lengthAdjust="spacing" textLength="212" x="485.25" y="458.641">dokumentbeskrivelseKvittering</text><line style="stroke:#181818;stroke-width:0.5;" x1="406" x2="744" y1="469.35" y2="469.35"/><ellipse cx="416" cy="483.0941" fill="none" rx="3" ry="3" style="stroke:#038048;stroke-width:1.0;"/><text fill="#000000" font-family="sans-serif" font-size="14" lengthAdjust="spacing" textLength="134" x="425" y="486.8852">systemID : systemID</text><ellipse cx="416" cy="499.5824" fill="none" rx="3" ry="3" style="stroke:#038048;stroke-width:1.0;"/><text fill="#000000" font-family="sans-serif" font-size="14" lengthAdjust="spacing" textLength="172" x="425" y="503.3734">opprettetDato : dateTime</text><ellipse cx="416" cy="516.0707" fill="none" rx="3" ry="3" style="stroke:#038048;stroke-width:1.0;"/><text fill="#000000" font-family="sans-serif" font-size="14" lengthAdjust="spacing" textLength="133" x="425" y="519.8617">opprettetAv : string</text><ellipse cx="416" cy="532.559" fill="none" rx="3" ry="3" style="stroke:#038048;stroke-width:1.0;"/><text fill="#000000" font-family="sans-serif" font-size="14" lengthAdjust="spacing" textLength="158" x="425" y="536.35">dokumentnummer : int</text><ellipse cx="416" cy="549.0473" fill="none" rx="3" ry="3" style="stroke:#038048;stroke-width:1.0;"/><text fill="#000000" font-family="sans-serif" font-size="14" lengthAdjust="spacing" textLength="314" x="425" y="552.8383">dokumentobjekt : dokumentobjektKvittering[]</text><line style="stroke:#181818;stroke-width:0.5;" x1="406" x2="744" y1="559.7914" y2="559.7914"/></g><!--class dokumentobjektKvittering--><g id="elem_dokumentobjektKvittering"><rect codeLine="19" fill="#F1F1F1" height="130.4414" id="dokumentobjektKvittering" rx="2.5" ry="2.5" style="stroke:#181818;stroke-width:0.5;" width="224" x="463" y="627.79"/><ellipse cx="483.85" cy="643.79" fill="#ADD1B2" rx="11" ry="11" style="stroke:#181818;stroke-width:1.0;"/><path d="M486.3231,649.9331 Q485.7421,650.2319 485.1029,650.3813 Q484.4638,650.5307 483.7582,650.5307 Q481.2514,650.5307 479.9315,648.8789 Q478.6117,647.227 478.6117,644.1059 Q478.6117,640.9765 479.9315,639.3247 Q481.2514,637.6728 483.7582,637.6728 Q484.4638,637.6728 485.1112,637.8222 Q485.7587,637.9716 486.3231,638.2705 L486.3231,640.9931 Q485.6923,640.4121 485.0988,640.1423 Q484.5053,639.8725 483.8744,639.8725 Q482.5297,639.8725 481.8449,640.9392 Q481.1601,642.0058 481.1601,644.1059 Q481.1601,646.1977 481.8449,647.2644 Q482.5297,648.331 483.8744,648.331 Q484.5053,648.331 485.0988,648.0612 Q485.6923,647.7915 486.3231,647.2104 Z " fill="#000000"/><text fill="#000000" font-family="sans-serif" font-size="14" lengthAdjust="spacing" textLength="179" x="499.15" y="649.081">dokumentobjektKvittering</text><line style="stroke:#181818;stroke-width:0.5;" x1="464" x2="686" y1="659.79" y2="659.79"/><ellipse cx="474" cy="673.5341" fill="none" rx="3" ry="3" style="stroke:#038048;stroke-width:1.0;"/><text fill="#000000" font-family="sans-serif" font-size="14" lengthAdjust="spacing" textLength="134" x="483" y="677.3252">systemID : systemID</text><ellipse cx="474" cy="690.0224" fill="none" rx="3" ry="3" style="stroke:#038048;stroke-width:1.0;"/><text fill="#000000" font-family="sans-serif" font-size="14" lengthAdjust="spacing" textLength="145" x="483" y="693.8134">versjonsnummer : int</text><ellipse cx="474" cy="706.5107" fill="none" rx="3" ry="3" style="stroke:#038048;stroke-width:1.0;"/><text fill="#000000" font-family="sans-serif" font-size="14" lengthAdjust="spacing" textLength="198" x="483" y="710.3017">variantformat : variantformat</text><ellipse cx="474" cy="722.999" fill="none" rx="3" ry="3" style="stroke:#038048;stroke-width:1.0;"/><text fill="#000000" font-family="sans-serif" font-size="14" lengthAdjust="spacing" textLength="172" x="483" y="726.79">opprettetDato : dateTime</text><ellipse cx="474" cy="739.4873" fill="none" rx="3" ry="3" style="stroke:#038048;stroke-width:1.0;"/><text fill="#000000" font-family="sans-serif" font-size="14" lengthAdjust="spacing" textLength="133" x="483" y="743.2783">opprettetAv : string</text><line style="stroke:#181818;stroke-width:0.5;" x1="464" x2="686" y1="750.2314" y2="750.2314"/></g><!--class variantformat--><g id="elem_variantformat"><rect fill="#F1F1F1" height="48" id="variantformat" rx="2.5" ry="2.5" style="stroke:#181818;stroke-width:0.5;" width="125" x="512.5" y="818.23"/><ellipse cx="527.5" cy="834.23" fill="#ADD1B2" rx="11" ry="11" style="stroke:#181818;stroke-width:1.0;"/><path d="M529.9731,840.3731 Q529.3921,840.6719 528.7529,840.8213 Q528.1138,840.9707 527.4082,840.9707 Q524.9014,840.9707 523.5815,839.3189 Q522.2617,837.667 522.2617,834.5459 Q522.2617,831.4165 523.5815,829.7647 Q524.9014,828.1128 527.4082,828.1128 Q528.1138,828.1128 528.7612,828.2622 Q529.4087,828.4116 529.9731,828.7105 L529.9731,831.4331 Q529.3423,830.8521 528.7488,830.5823 Q528.1553,830.3125 527.5244,830.3125 Q526.1797,830.3125 525.4949,831.3792 Q524.8101,832.4458 524.8101,834.5459 Q524.8101,836.6377 525.4949,837.7044 Q526.1797,838.771 527.5244,838.771 Q528.1553,838.771 528.7488,838.5012 Q529.3423,838.2315 529.9731,837.6504 Z " fill="#000000"/><text fill="#000000" font-family="sans-serif" font-size="14" lengthAdjust="spacing" textLength="93" x="541.5" y="839.521">variantformat</text><line style="stroke:#181818;stroke-width:0.5;" x1="513.5" x2="636.5" y1="850.23" y2="850.23"/><line style="stroke:#181818;stroke-width:0.5;" x1="513.5" x2="636.5" y1="858.23" y2="858.23"/></g><!--class journalpostKvittering--><g id="elem_journalpostKvittering"><rect codeLine="27" fill="#F1F1F1" height="163.418" id="journalpostKvittering" rx="2.5" ry="2.5" style="stroke:#181818;stroke-width:0.5;" width="254" x="50" y="197.44"/><ellipse cx="100.25" cy="213.44" fill="#ADD1B2" rx="11" ry="11" style="stroke:#181818;stroke-width:1.0;"/><path d="M102.7231,219.5831 Q102.1421,219.8819 101.5029,220.0313 Q100.8638,220.1807 100.1582,220.1807 Q97.6514,220.1807 96.3315,218.5289 Q95.0117,216.877 95.0117,213.7559 Q95.0117,210.6265 96.3315,208.9747 Q97.6514,207.3228 100.1582,207.3228 Q100.8638,207.3228 101.5112,207.4722 Q102.1587,207.6216 102.7231,207.9205 L102.7231,210.6431 Q102.0923,210.0621 101.4988,209.7923 Q100.9053,209.5225 100.2744,209.5225 Q98.9297,209.5225 98.2449,210.5892 Q97.5601,211.6558 97.5601,213.7559 Q97.5601,215.8477 98.2449,216.9144 Q98.9297,217.981 100.2744,217.981 Q100.9053,217.981 101.4988,217.7112 Q102.0923,217.4415 102.7231,216.8604 Z " fill="#000000"/><text fill="#000000" font-family="sans-serif" font-size="14" lengthAdjust="spacing" textLength="145" x="120.75" y="218.731">journalpostKvittering</text><line style="stroke:#181818;stroke-width:0.5;" x1="51" x2="303" y1="229.44" y2="229.44"/><ellipse cx="61" cy="243.1841" fill="none" rx="3" ry="3" style="stroke:#038048;stroke-width:1.0;"/><text fill="#000000" font-family="sans-serif" font-size="14" lengthAdjust="spacing" textLength="101" x="70" y="246.9752">journalaar : int</text><ellipse cx="61" cy="259.6724" fill="none" rx="3" ry="3" style="stroke:#038048;stroke-width:1.0;"/><text fill="#000000" font-family="sans-serif" font-size="14" lengthAdjust="spacing" textLength="191" x="70" y="263.4634">journalsekvensnummer : int</text><ellipse cx="61" cy="276.1607" fill="none" rx="3" ry="3" style="stroke:#038048;stroke-width:1.0;"/><text fill="#000000" font-family="sans-serif" font-size="14" lengthAdjust="spacing" textLength="167" x="70" y="279.9517">journalpostnummer : int</text><ellipse cx="61" cy="292.649" fill="none" rx="3" ry="3" style="stroke:#038048;stroke-width:1.0;"/><text fill="#000000" font-family="sans-serif" font-size="14" lengthAdjust="spacing" textLength="228" x="70" y="296.44">journalposttype : journalposttype</text><ellipse cx="61" cy="309.1373" fill="none" rx="3" ry="3" style="stroke:#038048;stroke-width:1.0;"/><text fill="#000000" font-family="sans-serif" font-size="14" lengthAdjust="spacing" textLength="192" x="70" y="312.9283">journalstatus : journalstatus</text><ellipse cx="61" cy="325.6255" fill="none" rx="3" ry="3" style="stroke:#038048;stroke-width:1.0;"/><text fill="#000000" font-family="sans-serif" font-size="14" lengthAdjust="spacing" textLength="122" x="70" y="329.4166">journaldato : date</text><ellipse cx="61" cy="342.1138" fill="none" rx="3" ry="3" style="stroke:#038048;stroke-width:1.0;"/><text fill="#000000" font-family="sans-serif" font-size="14" lengthAdjust="spacing" textLength="121" x="70" y="345.9048">forfallsdato : date</text><line style="stroke:#181818;stroke-width:0.5;" x1="51" x2="303" y1="352.858" y2="352.858"/></g><!--class journalposttype--><g id="elem_journalposttype"><rect fill="#F1F1F1" height="48" id="journalposttype" rx="2.5" ry="2.5" style="stroke:#181818;stroke-width:0.5;" width="140" x="7" y="478.57"/><ellipse cx="22" cy="494.57" fill="#ADD1B2" rx="11" ry="11" style="stroke:#181818;stroke-width:1.0;"/><path d="M24.4731,500.7131 Q23.8921,501.0119 23.2529,501.1613 Q22.6138,501.3107 21.9082,501.3107 Q19.4014,501.3107 18.0815,499.6589 Q16.7617,498.007 16.7617,494.8859 Q16.7617,491.7565 18.0815,490.1047 Q19.4014,488.4528 21.9082,488.4528 Q22.6138,488.4528 23.2612,488.6022 Q23.9087,488.7516 24.4731,489.0505 L24.4731,491.7731 Q23.8423,491.1921 23.2488,490.9223 Q22.6553,490.6525 22.0244,490.6525 Q20.6797,490.6525 19.9949,491.7192 Q19.3101,492.7858 19.3101,494.8859 Q19.3101,496.9777 19.9949,498.0444 Q20.6797,499.111 22.0244,499.111 Q22.6553,499.111 23.2488,498.8412 Q23.8423,498.5715 24.4731,497.9904 Z " fill="#000000"/><text fill="#000000" font-family="sans-serif" font-size="14" lengthAdjust="spacing" textLength="108" x="36" y="499.861">journalposttype</text><line style="stroke:#181818;stroke-width:0.5;" x1="8" x2="146" y1="510.57" y2="510.57"/><line style="stroke:#181818;stroke-width:0.5;" x1="8" x2="146" y1="518.57" y2="518.57"/></g><!--class journalstatus--><g id="elem_journalstatus"><rect fill="#F1F1F1" height="48" id="journalstatus" rx="2.5" ry="2.5" style="stroke:#181818;stroke-width:0.5;" width="122" x="182" y="478.57"/><ellipse cx="197" cy="494.57" fill="#ADD1B2" rx="11" ry="11" style="stroke:#181818;stroke-width:1.0;"/><path d="M199.4731,500.7131 Q198.8921,501.0119 198.2529,501.1613 Q197.6138,501.3107 196.9082,501.3107 Q194.4014,501.3107 193.0815,499.6589 Q191.7617,498.007 191.7617,494.8859 Q191.7617,491.7565 193.0815,490.1047 Q194.4014,488.4528 196.9082,488.4528 Q197.6138,488.4528 198.2612,488.6022 Q198.9087,488.7516 199.4731,489.0505 L199.4731,491.7731 Q198.8423,491.1921 198.2488,490.9223 Q197.6553,490.6525 197.0244,490.6525 Q195.6797,490.6525 194.9949,491.7192 Q194.3101,492.7858 194.3101,494.8859 Q194.3101,496.9777 194.9949,498.0444 Q195.6797,499.111 197.0244,499.111 Q197.6553,499.111 198.2488,498.8412 Q198.8423,498.5715 199.4731,497.9904 Z " fill="#000000"/><text fill="#000000" font-family="sans-serif" font-size="14" lengthAdjust="spacing" textLength="90" x="211" y="499.861">journalstatus</text><line style="stroke:#181818;stroke-width:0.5;" x1="183" x2="303" y1="510.57" y2="510.57"/><line style="stroke:#181818;stroke-width:0.5;" x1="183" x2="303" y1="518.57" y2="518.57"/></g><!--class referanseTilMappe--><g id="elem_referanseTilMappe"><rect fill="#F1F1F1" height="48" id="referanseTilMappe" rx="2.5" ry="2.5" style="stroke:#181818;stroke-width:0.5;" width="160" x="1374" y="478.57"/><ellipse cx="1389" cy="494.57" fill="#ADD1B2" rx="11" ry="11" style="stroke:#181818;stroke-width:1.0;"/><path d="M1391.4731,500.7131 Q1390.8921,501.0119 1390.2529,501.1613 Q1389.6138,501.3107 1388.9082,501.3107 Q1386.4014,501.3107 1385.0815,499.6589 Q1383.7617,498.007 1383.7617,494.8859 Q1383.7617,491.7565 1385.0815,490.1047 Q1386.4014,488.4528 1388.9082,488.4528 Q1389.6138,488.4528 1390.2612,488.6022 Q1390.9087,488.7516 1391.4731,489.0505 L1391.4731,491.7731 Q1390.8423,491.1921 1390.2488,490.9223 Q1389.6553,490.6525 1389.0244,490.6525 Q1387.6797,490.6525 1386.9949,491.7192 Q1386.3101,492.7858 1386.3101,494.8859 Q1386.3101,496.9777 1386.9949,498.0444 Q1387.6797,499.111 1389.0244,499.111 Q1389.6553,499.111 1390.2488,498.8412 Q1390.8423,498.5715 1391.4731,497.9904 Z " fill="#000000"/><text fill="#000000" font-family="sans-serif" font-size="14" lengthAdjust="spacing" textLength="128" x="1403" y="499.861">referanseTilMappe</text><line style="stroke:#181818;stroke-width:0.5;" x1="1375" x2="1533" y1="510.57" y2="510.57"/><line style="stroke:#181818;stroke-width:0.5;" x1="1375" x2="1533" y1="518.57" y2="518.57"/></g><!--class eksternNoekkel--><g id="elem_eksternNoekkel"><rect fill="#F1F1F1" height="48" id="eksternNoekkel" rx="2.5" ry="2.5" style="stroke:#181818;stroke-width:0.5;" width="138" x="824" y="478.57"/><ellipse cx="839" cy="494.57" fill="#ADD1B2" rx="11" ry="11" style="stroke:#181818;stroke-width:1.0;"/><path d="M841.4731,500.7131 Q840.8921,501.0119 840.2529,501.1613 Q839.6138,501.3107 838.9082,501.3107 Q836.4014,501.3107 835.0815,499.6589 Q833.7617,498.007 833.7617,494.8859 Q833.7617,491.7565 835.0815,490.1047 Q836.4014,488.4528 838.9082,488.4528 Q839.6138,488.4528 840.2612,488.6022 Q840.9087,488.7516 841.4731,489.0505 L841.4731,491.7731 Q840.8423,491.1921 840.2488,490.9223 Q839.6553,490.6525 839.0244,490.6525 Q837.6797,490.6525 836.9949,491.7192 Q836.3101,492.7858 836.3101,494.8859 Q836.3101,496.9777 836.9949,498.0444 Q837.6797,499.111 839.0244,499.111 Q839.6553,499.111 840.2488,498.8412 Q840.8423,498.5715 841.4731,497.9904 Z " fill="#000000"/><text fill="#000000" font-family="sans-serif" font-size="14" lengthAdjust="spacing" textLength="106" x="853" y="499.861">eksternNoekkel</text><line style="stroke:#181818;stroke-width:0.5;" x1="825" x2="961" y1="510.57" y2="510.57"/><line style="stroke:#181818;stroke-width:0.5;" x1="825" x2="961" y1="518.57" y2="518.57"/></g><!--class opprettetEllerEksisterende--><g id="elem_opprettetEllerEksisterende"><rect codeLine="53" fill="#F1F1F1" height="80.9766" id="opprettetEllerEksisterende" rx="2.5" ry="2.5" style="stroke:#181818;stroke-width:0.5;" width="213" x="1083.5" y="462.08"/><ellipse cx="1098.5" cy="478.08" fill="#EB937F" rx="11" ry="11" style="stroke:#181818;stroke-width:1.0;"/><path d="M1102.1143,484.58 L1094.3945,484.58 L1094.3945,472.1869 L1102.1143,472.1869 L1102.1143,474.3451 L1096.8433,474.3451 L1096.8433,477.018 L1101.6162,477.018 L1101.6162,479.1762 L1096.8433,479.1762 L1096.8433,482.4218 L1102.1143,482.4218 Z " fill="#000000"/><text fill="#000000" font-family="sans-serif" font-size="14" lengthAdjust="spacing" textLength="181" x="1112.5" y="483.371">opprettetEllerEksisterende</text><line style="stroke:#181818;stroke-width:0.5;" x1="1084.5" x2="1295.5" y1="494.08" y2="494.08"/><text fill="#000000" font-family="sans-serif" font-size="14" lengthAdjust="spacing" textLength="151" x="1089.5" y="511.6152">Opprettet = Opprettet</text><text fill="#000000" font-family="sans-serif" font-size="14" lengthAdjust="spacing" textLength="193" x="1089.5" y="528.1034">Eksisterende = Eksisterende</text><line style="stroke:#181818;stroke-width:0.5;" x1="1084.5" x2="1295.5" y1="535.0566" y2="535.0566"/></g><!--class saksmappeKvittering--><g id="elem_saksmappeKvittering"><rect codeLine="71" fill="#F1F1F1" height="97.4648" id="saksmappeKvittering" rx="2.5" ry="2.5" style="stroke:#181818;stroke-width:0.5;" width="198" x="846" y="230.42"/><ellipse cx="871.35" cy="246.42" fill="#ADD1B2" rx="11" ry="11" style="stroke:#181818;stroke-width:1.0;"/><path d="M873.8231,252.5631 Q873.2421,252.8619 872.6029,253.0113 Q871.9638,253.1607 871.2582,253.1607 Q868.7514,253.1607 867.4315,251.5089 Q866.1117,249.857 866.1117,246.7359 Q866.1117,243.6065 867.4315,241.9547 Q868.7514,240.3028 871.2582,240.3028 Q871.9638,240.3028 872.6112,240.4522 Q873.2587,240.6016 873.8231,240.9005 L873.8231,243.6231 Q873.1923,243.0421 872.5988,242.7723 Q872.0053,242.5025 871.3744,242.5025 Q870.0297,242.5025 869.3449,243.5692 Q868.6601,244.6358 868.6601,246.7359 Q868.6601,248.8277 869.3449,249.8944 Q870.0297,250.961 871.3744,250.961 Q872.0053,250.961 872.5988,250.6912 Q873.1923,250.4215 873.8231,249.8404 Z " fill="#000000"/><text fill="#000000" font-family="sans-serif" font-size="14" lengthAdjust="spacing" textLength="143" x="887.65" y="251.711">saksmappeKvittering</text><line style="stroke:#181818;stroke-width:0.5;" x1="847" x2="1043" y1="262.42" y2="262.42"/><ellipse cx="857" cy="276.1641" fill="none" rx="3" ry="3" style="stroke:#038048;stroke-width:1.0;"/><text fill="#000000" font-family="sans-serif" font-size="14" lengthAdjust="spacing" textLength="82" x="866" y="279.9552">saksaar : int</text><ellipse cx="857" cy="292.6524" fill="none" rx="3" ry="3" style="stroke:#038048;stroke-width:1.0;"/><text fill="#000000" font-family="sans-serif" font-size="14" lengthAdjust="spacing" textLength="172" x="866" y="296.4434">sakssekvensnummer : int</text><ellipse cx="857" cy="309.1407" fill="none" rx="3" ry="3" style="stroke:#038048;stroke-width:1.0;"/><text fill="#000000" font-family="sans-serif" font-size="14" lengthAdjust="spacing" textLength="103" x="866" y="312.9317">saksdato : date</text><line style="stroke:#181818;stroke-width:0.5;" x1="847" x2="1043" y1="319.8848" y2="319.8848"/></g><!--link arkivmeldingKvittering to mappeKvittering--><g id="link_arkivmeldingKvittering_mappeKvittering"><path codeLine="8" d="M1229.53,121.26 C1255.57,139.46 1285.23,160.19 1314.27,180.49 " fill="none" id="arkivmeldingKvittering-mappeKvittering" style="stroke:#181818;stroke-width:1.0;"/></g><!--link arkivmeldingKvittering to feilmeldingBase--><g id="link_arkivmeldingKvittering_feilmeldingBase"><path codeLine="9" d="M1149,121.26 C1149,164.81 1149,222.88 1149,254.76 " fill="none" id="arkivmeldingKvittering-feilmeldingBase" style="stroke:#181818;stroke-width:1.0;"/></g><!--link arkivmeldingKvittering to registreringKvittering--><g id="link_arkivmeldingKvittering_registreringKvittering"><path codeLine="10" d="M990.81,121.42 C938.86,140.14 880.89,161.24 828,180.95 C822.49,183.01 816.91,185.09 811.29,187.2 " fill="none" id="arkivmeldingKvittering-registreringKvittering" style="stroke:#181818;stroke-width:1.0;"/></g><!--link dokumentbeskrivelseKvittering to dokumentobjektKvittering--><g id="link_dokumentbeskrivelseKvittering_dokumentobjektKvittering"><path codeLine="18" d="M575,568.16 C575,587.33 575,608.33 575,627.51 " fill="none" id="dokumentbeskrivelseKvittering-dokumentobjektKvittering" style="stroke:#181818;stroke-width:1.0;"/></g><!--link dokumentobjektKvittering to variantformat--><g id="link_dokumentobjektKvittering_variantformat"><path codeLine="26" d="M575,758.58 C575,779.75 575,801.93 575,817.98 " fill="none" id="dokumentobjektKvittering-variantformat" style="stroke:#181818;stroke-width:1.0;"/></g><!--reverse link journalpostKvittering to registreringKvittering--><g id="link_journalpostKvittering_registreringKvittering"><path codeLine="36" d="M318.33,279.15 C325.07,279.15 331.82,279.15 338.56,279.15 " fill="none" id="journalpostKvittering-backto-registreringKvittering" style="stroke:#181818;stroke-width:1.0;"/><polygon fill="#181818" points="305.48,279.15,311.48,283.15,317.48,279.15,311.48,275.15,305.48,279.15" style="stroke:#181818;stroke-width:1.0;"/></g><!--link journalpostKvittering to journalposttype--><g id="link_journalpostKvittering_journalposttype"><path codeLine="37" d="M140.33,361.34 C121.49,403.06 99.93,450.81 87.44,478.44 " fill="none" id="journalpostKvittering-journalposttype" style="stroke:#181818;stroke-width:1.0;"/></g><!--link journalpostKvittering to journalstatus--><g id="link_journalpostKvittering_journalstatus"><path codeLine="38" d="M201.2,361.34 C213.64,403.06 227.87,450.81 236.11,478.44 " fill="none" id="journalpostKvittering-journalstatus" style="stroke:#181818;stroke-width:1.0;"/></g><!--link mappeKvittering to referanseTilMappe--><g id="link_mappeKvittering_referanseTilMappe"><path codeLine="50" d="M1454,377.59 C1454,414.95 1454,454.35 1454,478.45 " fill="none" id="mappeKvittering-referanseTilMappe" style="stroke:#181818;stroke-width:1.0;"/></g><!--link mappeKvittering to eksternNoekkel--><g id="link_mappeKvittering_eksternNoekkel"><path codeLine="51" d="M1253.51,370.27 C1247.62,372.68 1241.77,375.05 1236,377.35 C1161.57,407.02 1141.34,410.07 1066,437.35 C1029.25,450.65 988.24,465.86 955.37,478.14 " fill="none" id="mappeKvittering-eksternNoekkel" style="stroke:#181818;stroke-width:1.0;"/></g><!--link mappeKvittering to opprettetEllerEksisterende--><g id="link_mappeKvittering_opprettetEllerEksisterende"><path codeLine="52" d="M1337.82,377.59 C1302.41,407.29 1265.45,438.29 1237.35,461.86 " fill="none" id="mappeKvittering-opprettetEllerEksisterende" style="stroke:#181818;stroke-width:1.0;"/></g><!--link registreringKvittering to dokumentbeskrivelseKvittering--><g id="link_registreringKvittering_dokumentbeskrivelseKvittering"><path codeLine="68" d="M575,377.59 C575,397.66 575,418.32 575,436.89 " fill="none" id="registreringKvittering-dokumentbeskrivelseKvittering" style="stroke:#181818;stroke-width:1.0;"/></g><!--link registreringKvittering to eksternNoekkel--><g id="link_registreringKvittering_eksternNoekkel"><path codeLine="69" d="M714.94,377.59 C768.43,414.83 824.84,454.11 859.48,478.23 " fill="none" id="registreringKvittering-eksternNoekkel" style="stroke:#181818;stroke-width:1.0;"/></g><!--link registreringKvittering to opprettetEllerEksisterende--><g id="link_registreringKvittering_opprettetEllerEksisterende"><path codeLine="70" d="M811.25,371.22 C816.88,373.29 822.47,375.34 828,377.35 C913.4,408.39 1010.85,441.71 1083.12,466.02 " fill="none" id="registreringKvittering-opprettetEllerEksisterende" style="stroke:#181818;stroke-width:1.0;"/></g><!--reverse link saksmappeKvittering to mappeKvittering--><g id="link_saksmappeKvittering_mappeKvittering"><path codeLine="76" d="M989.39,219.79 C1012.9,193.37 1044.2,165.08 1079.5,150.95 C1136.85,128 1158.63,135.71 1218.5,150.95 C1245.34,157.79 1272.43,168.37 1298.19,180.59 " fill="none" id="saksmappeKvittering-backto-mappeKvittering" style="stroke:#181818;stroke-width:1.0;"/><polygon fill="#181818" points="980.45,229.17,987.3973,227.2375,988.2855,220.0813,981.3382,222.0138,980.45,229.17" style="stroke:#181818;stroke-width:1.0;"/></g><!--SRC=[jLR1JkGm3BtFL_GCuWUGE2m2fDLguJAt5OT0FIYJDAdij192_FkwJOSsQToHTiMSKh_dv3tNTURLAg9AeT5z0xRMxkrNhqC0v5NriQluTzcejeL5-BhA8WlQ0sWBWIa7NamxtYg2I45uqnHmJ4esB0Fh977xpvtWuUfgfLPcvhlAJ47mwrZEsfkk0HTUW0pg7Yp1kghqJW6QdtTivhICW6zR12Q7EnKyexKAiDSDPEYFViWCSvrEfxgkQG0Pr2waY7yvWXcgbmPcRN-UkP3Rwjcxb9svp-6pndj0Edf7QmEzGgrSE7XirA0_UVxdgirMLrBPPNf6j7Rq7JfbMqy5NnEeL29zYXAO7ahM5bjkWk6z1OQoI7f6KA6ZcHIV4qez5oV6sTv1MKjBu7DNzdaXjdsPpqNCvPuZJf9ZjVEvSwv_HdwCX-NuE00gH_3WaRzam94spfm9s6lxUuZzt-UdUhATcFU5hlA-PDmRDeFkqOCnO9a5II0x_zvQG4xH0mTSFJYIGNwdUJN78PPNe43AL1GO6yS2z_G6FhtIfnEXkfdN8vAGRwhCKcmJuLBvhZ4xtWc0mckUG74ubuVgzVQLmMDvTHEItEZVt4X2lHSNGz74HbwcJoPkw8gzGCgGD3OOocRp4187ym2cKx6q-SNwxyLV]--></g></svg>