<?xml version="1.0" encoding="us-ascii" standalone="no"?><svg xmlns="http://www.w3.org/2000/svg" xmlns:xlink="http://www.w3.org/1999/xlink" contentStyleType="text/css" height="417px" preserveAspectRatio="none" style="width:2137px;height:417px;background:#FFFFFF;" version="1.1" viewBox="0 0 2137 417" width="2137px" zoomAndPan="magnify"><defs/><g><!--class arkivmeldingKvittering--><g id="elem_arkivmeldingKvittering"><rect codeLine="2" fill="#F1F1F1" height="97.4648" id="arkivmeldingKvittering" rx="2.5" ry="2.5" style="stroke:#181818;stroke-width:0.5;" width="342" x="1413" y="64.7"/><ellipse cx="1502.25" cy="80.7" fill="#ADD1B2" rx="11" ry="11" style="stroke:#181818;stroke-width:1.0;"/><path d="M1504.7231,86.8431 Q1504.1421,87.1419 1503.5029,87.2913 Q1502.8638,87.4407 1502.1582,87.4407 Q1499.6514,87.4407 1498.3315,85.7889 Q1497.0117,84.137 1497.0117,81.0159 Q1497.0117,77.8865 1498.3315,76.2347 Q1499.6514,74.5828 1502.1582,74.5828 Q1502.8638,74.5828 1503.5112,74.7322 Q1504.1587,74.8816 1504.7231,75.1805 L1504.7231,77.9031 Q1504.0923,77.3221 1503.4988,77.0523 Q1502.9053,76.7825 1502.2744,76.7825 Q1500.9297,76.7825 1500.2449,77.8492 Q1499.5601,78.9158 1499.5601,81.0159 Q1499.5601,83.1077 1500.2449,84.1744 Q1500.9297,85.241 1502.2744,85.241 Q1502.9053,85.241 1503.4988,84.9712 Q1504.0923,84.7015 1504.7231,84.1204 Z " fill="#000000"/><text fill="#000000" font-family="sans-serif" font-size="14" lengthAdjust="spacing" textLength="155" x="1522.75" y="85.991">arkivmeldingKvittering</text><line style="stroke:#181818;stroke-width:0.5;" x1="1414" x2="1754" y1="96.7" y2="96.7"/><ellipse cx="1424" cy="110.4441" fill="none" rx="3" ry="3" style="stroke:#038048;stroke-width:1.0;"/><text fill="#000000" font-family="sans-serif" font-size="14" lengthAdjust="spacing" textLength="99" x="1433" y="114.2352">system : string</text><ellipse cx="1424" cy="126.9324" fill="none" rx="3" ry="3" style="stroke:#038048;stroke-width:1.0;"/><text fill="#000000" font-family="sans-serif" font-size="14" lengthAdjust="spacing" textLength="248" x="1433" y="130.7234">mappeKvittering : mappeKvittering[]</text><ellipse cx="1424" cy="143.4207" fill="none" rx="3" ry="3" style="stroke:#038048;stroke-width:1.0;"/><text fill="#000000" font-family="sans-serif" font-size="14" lengthAdjust="spacing" textLength="316" x="1433" y="147.2117">registreringKvittering : registreringKvittering[]</text><line style="stroke:#181818;stroke-width:0.5;" x1="1414" x2="1754" y1="154.1648" y2="154.1648"/></g><!--class dokumentbeskrivelseKvittering--><g id="elem_dokumentbeskrivelseKvittering"><rect codeLine="7" fill="#F1F1F1" height="130.4414" id="dokumentbeskrivelseKvittering" rx="2.5" ry="2.5" style="stroke:#181818;stroke-width:0.5;" width="340" x="1790" y="48.22"/><ellipse cx="1849.75" cy="64.22" fill="#ADD1B2" rx="11" ry="11" style="stroke:#181818;stroke-width:1.0;"/><path d="M1852.2231,70.3631 Q1851.6421,70.6619 1851.0029,70.8113 Q1850.3638,70.9607 1849.6582,70.9607 Q1847.1514,70.9607 1845.8315,69.3089 Q1844.5117,67.657 1844.5117,64.5359 Q1844.5117,61.4065 1845.8315,59.7547 Q1847.1514,58.1028 1849.6582,58.1028 Q1850.3638,58.1028 1851.0112,58.2522 Q1851.6587,58.4016 1852.2231,58.7005 L1852.2231,61.4231 Q1851.5923,60.8421 1850.9988,60.5723 Q1850.4053,60.3025 1849.7744,60.3025 Q1848.4297,60.3025 1847.7449,61.3692 Q1847.0601,62.4358 1847.0601,64.5359 Q1847.0601,66.6277 1847.7449,67.6944 Q1848.4297,68.761 1849.7744,68.761 Q1850.4053,68.761 1850.9988,68.4912 Q1851.5923,68.2215 1852.2231,67.6404 Z " fill="#000000"/><text fill="#000000" font-family="sans-serif" font-size="14" lengthAdjust="spacing" textLength="212" x="1870.25" y="69.511">dokumentbeskrivelseKvittering</text><line style="stroke:#181818;stroke-width:0.5;" x1="1791" x2="2129" y1="80.22" y2="80.22"/><ellipse cx="1801" cy="93.9641" fill="none" rx="3" ry="3" style="stroke:#038048;stroke-width:1.0;"/><text fill="#000000" font-family="sans-serif" font-size="14" lengthAdjust="spacing" textLength="134" x="1810" y="97.7552">systemID : systemID</text><ellipse cx="1801" cy="110.4524" fill="none" rx="3" ry="3" style="stroke:#038048;stroke-width:1.0;"/><text fill="#000000" font-family="sans-serif" font-size="14" lengthAdjust="spacing" textLength="172" x="1810" y="114.2434">opprettetDato : dateTime</text><ellipse cx="1801" cy="126.9407" fill="none" rx="3" ry="3" style="stroke:#038048;stroke-width:1.0;"/><text fill="#000000" font-family="sans-serif" font-size="14" lengthAdjust="spacing" textLength="133" x="1810" y="130.7317">opprettetAv : string</text><ellipse cx="1801" cy="143.429" fill="none" rx="3" ry="3" style="stroke:#038048;stroke-width:1.0;"/><text fill="#000000" font-family="sans-serif" font-size="14" lengthAdjust="spacing" textLength="158" x="1810" y="147.22">dokumentnummer : int</text><ellipse cx="1801" cy="159.9173" fill="none" rx="3" ry="3" style="stroke:#038048;stroke-width:1.0;"/><text fill="#000000" font-family="sans-serif" font-size="14" lengthAdjust="spacing" textLength="314" x="1810" y="163.7083">dokumentobjekt : dokumentobjektKvittering[]</text><line style="stroke:#181818;stroke-width:0.5;" x1="1791" x2="2129" y1="170.6614" y2="170.6614"/></g><!--class dokumentobjektKvittering--><g id="elem_dokumentobjektKvittering"><rect codeLine="14" fill="#F1F1F1" height="130.4414" id="dokumentobjektKvittering" rx="2.5" ry="2.5" style="stroke:#181818;stroke-width:0.5;" width="224" x="1472" y="279.88"/><ellipse cx="1492.85" cy="295.88" fill="#ADD1B2" rx="11" ry="11" style="stroke:#181818;stroke-width:1.0;"/><path d="M1495.3231,302.0231 Q1494.7421,302.3219 1494.1029,302.4713 Q1493.4638,302.6207 1492.7582,302.6207 Q1490.2514,302.6207 1488.9315,300.9689 Q1487.6117,299.317 1487.6117,296.1959 Q1487.6117,293.0665 1488.9315,291.4147 Q1490.2514,289.7628 1492.7582,289.7628 Q1493.4638,289.7628 1494.1112,289.9122 Q1494.7587,290.0616 1495.3231,290.3605 L1495.3231,293.0831 Q1494.6923,292.5021 1494.0988,292.2323 Q1493.5053,291.9625 1492.8744,291.9625 Q1491.5297,291.9625 1490.8449,293.0292 Q1490.1601,294.0958 1490.1601,296.1959 Q1490.1601,298.2877 1490.8449,299.3544 Q1491.5297,300.421 1492.8744,300.421 Q1493.5053,300.421 1494.0988,300.1512 Q1494.6923,299.8815 1495.3231,299.3004 Z " fill="#000000"/><text fill="#000000" font-family="sans-serif" font-size="14" lengthAdjust="spacing" textLength="179" x="1508.15" y="301.171">dokumentobjektKvittering</text><line style="stroke:#181818;stroke-width:0.5;" x1="1473" x2="1695" y1="311.88" y2="311.88"/><ellipse cx="1483" cy="325.6241" fill="none" rx="3" ry="3" style="stroke:#038048;stroke-width:1.0;"/><text fill="#000000" font-family="sans-serif" font-size="14" lengthAdjust="spacing" textLength="134" x="1492" y="329.4152">systemID : systemID</text><ellipse cx="1483" cy="342.1124" fill="none" rx="3" ry="3" style="stroke:#038048;stroke-width:1.0;"/><text fill="#000000" font-family="sans-serif" font-size="14" lengthAdjust="spacing" textLength="145" x="1492" y="345.9034">versjonsnummer : int</text><ellipse cx="1483" cy="358.6007" fill="none" rx="3" ry="3" style="stroke:#038048;stroke-width:1.0;"/><text fill="#000000" font-family="sans-serif" font-size="14" lengthAdjust="spacing" textLength="198" x="1492" y="362.3917">variantformat : variantformat</text><ellipse cx="1483" cy="375.089" fill="none" rx="3" ry="3" style="stroke:#038048;stroke-width:1.0;"/><text fill="#000000" font-family="sans-serif" font-size="14" lengthAdjust="spacing" textLength="172" x="1492" y="378.88">opprettetDato : dateTime</text><ellipse cx="1483" cy="391.5773" fill="none" rx="3" ry="3" style="stroke:#038048;stroke-width:1.0;"/><text fill="#000000" font-family="sans-serif" font-size="14" lengthAdjust="spacing" textLength="133" x="1492" y="395.3683">opprettetAv : string</text><line style="stroke:#181818;stroke-width:0.5;" x1="1473" x2="1695" y1="402.3214" y2="402.3214"/></g><!--class journalpostKvittering--><g id="elem_journalpostKvittering"><rect codeLine="21" fill="#F1F1F1" height="163.418" id="journalpostKvittering" rx="2.5" ry="2.5" style="stroke:#181818;stroke-width:0.5;" width="254" x="7" y="31.73"/><ellipse cx="57.25" cy="47.73" fill="#ADD1B2" rx="11" ry="11" style="stroke:#181818;stroke-width:1.0;"/><path d="M59.7231,53.8731 Q59.1421,54.1719 58.5029,54.3213 Q57.8638,54.4707 57.1582,54.4707 Q54.6514,54.4707 53.3315,52.8189 Q52.0117,51.167 52.0117,48.0459 Q52.0117,44.9165 53.3315,43.2647 Q54.6514,41.6128 57.1582,41.6128 Q57.8638,41.6128 58.5112,41.7622 Q59.1587,41.9116 59.7231,42.2105 L59.7231,44.9331 Q59.0923,44.3521 58.4988,44.0823 Q57.9053,43.8125 57.2744,43.8125 Q55.9297,43.8125 55.2449,44.8792 Q54.5601,45.9458 54.5601,48.0459 Q54.5601,50.1377 55.2449,51.2044 Q55.9297,52.271 57.2744,52.271 Q57.9053,52.271 58.4988,52.0012 Q59.0923,51.7315 59.7231,51.1504 Z " fill="#000000"/><text fill="#000000" font-family="sans-serif" font-size="14" lengthAdjust="spacing" textLength="145" x="77.75" y="53.021">journalpostKvittering</text><line style="stroke:#181818;stroke-width:0.5;" x1="8" x2="260" y1="63.73" y2="63.73"/><ellipse cx="18" cy="77.4741" fill="none" rx="3" ry="3" style="stroke:#038048;stroke-width:1.0;"/><text fill="#000000" font-family="sans-serif" font-size="14" lengthAdjust="spacing" textLength="101" x="27" y="81.2652">journalaar : int</text><ellipse cx="18" cy="93.9624" fill="none" rx="3" ry="3" style="stroke:#038048;stroke-width:1.0;"/><text fill="#000000" font-family="sans-serif" font-size="14" lengthAdjust="spacing" textLength="191" x="27" y="97.7534">journalsekvensnummer : int</text><ellipse cx="18" cy="110.4507" fill="none" rx="3" ry="3" style="stroke:#038048;stroke-width:1.0;"/><text fill="#000000" font-family="sans-serif" font-size="14" lengthAdjust="spacing" textLength="167" x="27" y="114.2417">journalpostnummer : int</text><ellipse cx="18" cy="126.939" fill="none" rx="3" ry="3" style="stroke:#038048;stroke-width:1.0;"/><text fill="#000000" font-family="sans-serif" font-size="14" lengthAdjust="spacing" textLength="228" x="27" y="130.73">journalposttype : journalposttype</text><ellipse cx="18" cy="143.4273" fill="none" rx="3" ry="3" style="stroke:#038048;stroke-width:1.0;"/><text fill="#000000" font-family="sans-serif" font-size="14" lengthAdjust="spacing" textLength="192" x="27" y="147.2183">journalstatus : journalstatus</text><ellipse cx="18" cy="159.9155" fill="none" rx="3" ry="3" style="stroke:#038048;stroke-width:1.0;"/><text fill="#000000" font-family="sans-serif" font-size="14" lengthAdjust="spacing" textLength="122" x="27" y="163.7066">journaldato : date</text><ellipse cx="18" cy="176.4038" fill="none" rx="3" ry="3" style="stroke:#038048;stroke-width:1.0;"/><text fill="#000000" font-family="sans-serif" font-size="14" lengthAdjust="spacing" textLength="121" x="27" y="180.1948">forfallsdato : date</text><line style="stroke:#181818;stroke-width:0.5;" x1="8" x2="260" y1="187.148" y2="187.148"/></g><!--class registreringKvittering--><g id="elem_registreringKvittering"><rect codeLine="43" fill="#F1F1F1" height="179.9063" id="registreringKvittering" rx="2.5" ry="2.5" style="stroke:#181818;stroke-width:0.5;" width="472" x="296" y="23.48"/><ellipse cx="454.25" cy="39.48" fill="#ADD1B2" rx="11" ry="11" style="stroke:#181818;stroke-width:1.0;"/><path d="M456.7231,45.6231 Q456.1421,45.9219 455.5029,46.0713 Q454.8638,46.2207 454.1582,46.2207 Q451.6514,46.2207 450.3315,44.5689 Q449.0117,42.917 449.0117,39.7959 Q449.0117,36.6665 450.3315,35.0147 Q451.6514,33.3628 454.1582,33.3628 Q454.8638,33.3628 455.5112,33.5122 Q456.1587,33.6616 456.7231,33.9605 L456.7231,36.6831 Q456.0923,36.1021 455.4988,35.8323 Q454.9053,35.5625 454.2744,35.5625 Q452.9297,35.5625 452.2449,36.6292 Q451.5601,37.6958 451.5601,39.7959 Q451.5601,41.8877 452.2449,42.9544 Q452.9297,44.021 454.2744,44.021 Q454.9053,44.021 455.4988,43.7512 Q456.0923,43.4815 456.7231,42.9004 Z " fill="#000000"/><text fill="#000000" font-family="sans-serif" font-size="14" lengthAdjust="spacing" textLength="147" x="474.75" y="44.771">registreringKvittering</text><line style="stroke:#181818;stroke-width:0.5;" x1="297" x2="767" y1="55.48" y2="55.48"/><ellipse cx="307" cy="69.2241" fill="none" rx="3" ry="3" style="stroke:#038048;stroke-width:1.0;"/><text fill="#000000" font-family="sans-serif" font-size="14" lengthAdjust="spacing" textLength="134" x="316" y="73.0152">systemID : systemID</text><ellipse cx="307" cy="85.7124" fill="none" rx="3" ry="3" style="stroke:#038048;stroke-width:1.0;"/><text fill="#000000" font-family="sans-serif" font-size="14" lengthAdjust="spacing" textLength="172" x="316" y="89.5034">opprettetDato : dateTime</text><ellipse cx="307" cy="102.2007" fill="none" rx="3" ry="3" style="stroke:#038048;stroke-width:1.0;"/><text fill="#000000" font-family="sans-serif" font-size="14" lengthAdjust="spacing" textLength="133" x="316" y="105.9917">opprettetAv : string</text><ellipse cx="307" cy="118.689" fill="none" rx="3" ry="3" style="stroke:#038048;stroke-width:1.0;"/><text fill="#000000" font-family="sans-serif" font-size="14" lengthAdjust="spacing" textLength="160" x="316" y="122.48">arkivertDato : dateTime</text><ellipse cx="307" cy="135.1773" fill="none" rx="3" ry="3" style="stroke:#038048;stroke-width:1.0;"/><text fill="#000000" font-family="sans-serif" font-size="14" lengthAdjust="spacing" textLength="121" x="316" y="138.9683">arkivertAv : string</text><ellipse cx="307" cy="151.6655" fill="none" rx="3" ry="3" style="stroke:#038048;stroke-width:1.0;"/><text fill="#000000" font-family="sans-serif" font-size="14" lengthAdjust="spacing" textLength="446" x="316" y="155.4566">dokumentbeskrivelseKvittering : dokumentbeskrivelseKvittering[]</text><ellipse cx="307" cy="168.1538" fill="none" rx="3" ry="3" style="stroke:#038048;stroke-width:1.0;"/><text fill="#000000" font-family="sans-serif" font-size="14" lengthAdjust="spacing" textLength="154" x="316" y="171.9448">registreringsID : string</text><ellipse cx="307" cy="184.6421" fill="none" rx="3" ry="3" style="stroke:#038048;stroke-width:1.0;"/><text fill="#000000" font-family="sans-serif" font-size="14" lengthAdjust="spacing" textLength="289" x="316" y="188.4331">referanseEksternNoekkel : eksternNoekkel</text><line style="stroke:#181818;stroke-width:0.5;" x1="297" x2="767" y1="195.3863" y2="195.3863"/></g><!--class mappeKvittering--><g id="elem_mappeKvittering"><rect codeLine="31" fill="#F1F1F1" height="212.8828" id="mappeKvittering" rx="2.5" ry="2.5" style="stroke:#181818;stroke-width:0.5;" width="342" x="1036" y="7"/><ellipse cx="1146.25" cy="23" fill="#ADD1B2" rx="11" ry="11" style="stroke:#181818;stroke-width:1.0;"/><path d="M1148.7231,29.1431 Q1148.1421,29.4419 1147.5029,29.5913 Q1146.8638,29.7407 1146.1582,29.7407 Q1143.6514,29.7407 1142.3315,28.0889 Q1141.0117,26.437 1141.0117,23.3159 Q1141.0117,20.1865 1142.3315,18.5347 Q1143.6514,16.8828 1146.1582,16.8828 Q1146.8638,16.8828 1147.5112,17.0322 Q1148.1587,17.1816 1148.7231,17.4805 L1148.7231,20.2031 Q1148.0923,19.6221 1147.4988,19.3523 Q1146.9053,19.0825 1146.2744,19.0825 Q1144.9297,19.0825 1144.2449,20.1492 Q1143.5601,21.2158 1143.5601,23.3159 Q1143.5601,25.4077 1144.2449,26.4744 Q1144.9297,27.541 1146.2744,27.541 Q1146.9053,27.541 1147.4988,27.2712 Q1148.0923,27.0015 1148.7231,26.4204 Z " fill="#000000"/><text fill="#000000" font-family="sans-serif" font-size="14" lengthAdjust="spacing" textLength="113" x="1166.75" y="28.291">mappeKvittering</text><line style="stroke:#181818;stroke-width:0.5;" x1="1037" x2="1377" y1="39" y2="39"/><ellipse cx="1047" cy="52.7441" fill="none" rx="3" ry="3" style="stroke:#038048;stroke-width:1.0;"/><text fill="#000000" font-family="sans-serif" font-size="14" lengthAdjust="spacing" textLength="134" x="1056" y="56.5352">systemID : systemID</text><ellipse cx="1047" cy="69.2324" fill="none" rx="3" ry="3" style="stroke:#038048;stroke-width:1.0;"/><text fill="#000000" font-family="sans-serif" font-size="14" lengthAdjust="spacing" textLength="113" x="1056" y="73.0234">mappeID : string</text><ellipse cx="1047" cy="85.7207" fill="none" rx="3" ry="3" style="stroke:#038048;stroke-width:1.0;"/><text fill="#000000" font-family="sans-serif" font-size="14" lengthAdjust="spacing" textLength="310" x="1056" y="89.5117">referanseForeldermappe : referanseTilMappe</text><ellipse cx="1047" cy="102.209" fill="none" rx="3" ry="3" style="stroke:#038048;stroke-width:1.0;"/><text fill="#000000" font-family="sans-serif" font-size="14" lengthAdjust="spacing" textLength="172" x="1056" y="106">opprettetDato : dateTime</text><ellipse cx="1047" cy="118.6973" fill="none" rx="3" ry="3" style="stroke:#038048;stroke-width:1.0;"/><text fill="#000000" font-family="sans-serif" font-size="14" lengthAdjust="spacing" textLength="133" x="1056" y="122.4883">opprettetAv : string</text><ellipse cx="1047" cy="135.1855" fill="none" rx="3" ry="3" style="stroke:#038048;stroke-width:1.0;"/><text fill="#000000" font-family="sans-serif" font-size="14" lengthAdjust="spacing" textLength="166" x="1056" y="138.9766">avsluttetDato : dateTime</text><ellipse cx="1047" cy="151.6738" fill="none" rx="3" ry="3" style="stroke:#038048;stroke-width:1.0;"/><text fill="#000000" font-family="sans-serif" font-size="14" lengthAdjust="spacing" textLength="127" x="1056" y="155.4648">avsluttetAv : string</text><ellipse cx="1047" cy="168.1621" fill="none" rx="3" ry="3" style="stroke:#038048;stroke-width:1.0;"/><text fill="#000000" font-family="sans-serif" font-size="14" lengthAdjust="spacing" textLength="289" x="1056" y="171.9531">referanseEksternNoekkel : eksternNoekkel</text><ellipse cx="1047" cy="184.6504" fill="none" rx="3" ry="3" style="stroke:#038048;stroke-width:1.0;"/><text fill="#000000" font-family="sans-serif" font-size="14" lengthAdjust="spacing" textLength="248" x="1056" y="188.4414">mappeKvittering : mappeKvittering[]</text><ellipse cx="1047" cy="201.1387" fill="none" rx="3" ry="3" style="stroke:#038048;stroke-width:1.0;"/><text fill="#000000" font-family="sans-serif" font-size="14" lengthAdjust="spacing" textLength="316" x="1056" y="204.9297">registreringKvittering : registreringKvittering[]</text><line style="stroke:#181818;stroke-width:0.5;" x1="1037" x2="1377" y1="211.8828" y2="211.8828"/></g><!--class saksmappeKvittering--><g id="elem_saksmappeKvittering"><rect codeLine="53" fill="#F1F1F1" height="97.4648" id="saksmappeKvittering" rx="2.5" ry="2.5" style="stroke:#181818;stroke-width:0.5;" width="198" x="803" y="64.7"/><ellipse cx="828.35" cy="80.7" fill="#ADD1B2" rx="11" ry="11" style="stroke:#181818;stroke-width:1.0;"/><path d="M830.8231,86.8431 Q830.2421,87.1419 829.6029,87.2913 Q828.9638,87.4407 828.2582,87.4407 Q825.7514,87.4407 824.4315,85.7889 Q823.1117,84.137 823.1117,81.0159 Q823.1117,77.8865 824.4315,76.2347 Q825.7514,74.5828 828.2582,74.5828 Q828.9638,74.5828 829.6112,74.7322 Q830.2587,74.8816 830.8231,75.1805 L830.8231,77.9031 Q830.1923,77.3221 829.5988,77.0523 Q829.0053,76.7825 828.3744,76.7825 Q827.0297,76.7825 826.3449,77.8492 Q825.6601,78.9158 825.6601,81.0159 Q825.6601,83.1077 826.3449,84.1744 Q827.0297,85.241 828.3744,85.241 Q829.0053,85.241 829.5988,84.9712 Q830.1923,84.7015 830.8231,84.1204 Z " fill="#000000"/><text fill="#000000" font-family="sans-serif" font-size="14" lengthAdjust="spacing" textLength="143" x="844.65" y="85.991">saksmappeKvittering</text><line style="stroke:#181818;stroke-width:0.5;" x1="804" x2="1000" y1="96.7" y2="96.7"/><ellipse cx="814" cy="110.4441" fill="none" rx="3" ry="3" style="stroke:#038048;stroke-width:1.0;"/><text fill="#000000" font-family="sans-serif" font-size="14" lengthAdjust="spacing" textLength="82" x="823" y="114.2352">saksaar : int</text><ellipse cx="814" cy="126.9324" fill="none" rx="3" ry="3" style="stroke:#038048;stroke-width:1.0;"/><text fill="#000000" font-family="sans-serif" font-size="14" lengthAdjust="spacing" textLength="172" x="823" y="130.7234">sakssekvensnummer : int</text><ellipse cx="814" cy="143.4207" fill="none" rx="3" ry="3" style="stroke:#038048;stroke-width:1.0;"/><text fill="#000000" font-family="sans-serif" font-size="14" lengthAdjust="spacing" textLength="103" x="823" y="147.2117">saksdato : date</text><line style="stroke:#181818;stroke-width:0.5;" x1="804" x2="1000" y1="154.1648" y2="154.1648"/></g><!--reverse link journalpostKvittering to registreringKvittering--><g id="link_journalpostKvittering_registreringKvittering"><path codeLine="30" d="M275.33,113.44 C282.07,113.44 288.82,113.44 295.56,113.44 " fill="none" id="journalpostKvittering-backto-registreringKvittering" style="stroke:#181818;stroke-width:1.0;"/><polygon fill="#181818" points="262.48,113.44,268.48,117.44,274.48,113.44,268.48,109.44,262.48,113.44" style="stroke:#181818;stroke-width:1.0;"/></g><!--reverse link saksmappeKvittering to mappeKvittering--><g id="link_saksmappeKvittering_mappeKvittering"><path codeLine="58" d="M1015.34,113.44 C1022.1,113.44 1028.85,113.44 1035.6,113.44 " fill="none" id="saksmappeKvittering-backto-mappeKvittering" style="stroke:#181818;stroke-width:1.0;"/><polygon fill="#181818" points="1002.48,113.44,1008.48,117.44,1014.48,113.44,1008.48,109.44,1002.48,113.44" style="stroke:#181818;stroke-width:1.0;"/></g><!--SRC=[lLHDJyCm3BttL_GCuW_iXZIG48BJReY3jtfJbg_AJYDDQF-Tz6DRapMT18AUslUUasVNzaO1SmaaXTUeAc5shruuXnJUog-Y3Cyz7zYXBXSbknRkGGrrZIFjeaoGZyzUIBWJ8R338lqq4SAEnQPpLLdPQ3HkZIn9U5ICENClozRUyDeJjgu9WzWjmTd0Lk1m9JGcxADF4ZlTQXgjaG8fZ8iPkzwZTEsH4J2RGogvQTyZyTuQlhRXWGGOjxMaeNKHVVyuzvFXlMt8WAejJxWTI838q80oIezJXaT7pfBkK6EW4YI-mu5h-2BgloD9TKcvnqDXjg0KZubZCPtdtKEcBOVgf5r_wozs-XuVjHZX5WaCuxEbC7H8dQmRYO5O2VNMOhzhPV2iccpScRsAEzjuaY4PCkyMfKGLL1W1_xO9Cf5_jGAwTOYKATj0PXV7zBfQpA-pgHfnld5k_PXJuHWavtesKCaWjr1sYbio7g6fmyC09L3n3G00]--></g></svg>