<svg xmlns="http://www.w3.org/2000/svg" xmlns:xlink="http://www.w3.org/1999/xlink" contentStyleType="text/css" height="193px" preserveAspectRatio="none" style="width:1186px;height:193px;background:#FFFFFF;" version="1.1" viewBox="0 0 1186 193" width="1186px" zoomAndPan="magnify"><defs/><g><rect fill="#F1F1F1" height="102.4414" rx="5" ry="5" style="stroke:#F1F1F1;stroke-width:1.5;" width="590" x="10" y="10"/><text fill="#000000" font-family="sans-serif" font-size="14" font-weight="bold" lengthAdjust="spacing" textLength="101" x="15" y="25.5352">protokollnavn</text><text fill="#000000" font-family="sans-serif" font-size="14" lengthAdjust="spacing" textLength="102" x="126" y="25.5352">no.ks.fiks.arkiv</text><line style="stroke:#000000;stroke-width:1.0;" x1="121" x2="121" y1="10" y2="30.4883"/><line style="stroke:#000000;stroke-width:1.0;" x1="10" x2="600" y1="30.4883" y2="30.4883"/><text fill="#000000" font-family="sans-serif" font-size="14" font-weight="bold" lengthAdjust="spacing" textLength="34" x="15" y="46.0234">navn</text><text fill="#000000" font-family="sans-serif" font-size="14" lengthAdjust="spacing" textLength="63" x="126" y="46.0234">flytStatus</text><line style="stroke:#000000;stroke-width:1.0;" x1="121" x2="121" y1="30.4883" y2="50.9766"/><line style="stroke:#000000;stroke-width:1.0;" x1="10" x2="600" y1="50.9766" y2="50.9766"/><text fill="#000000" font-family="sans-serif" font-size="14" font-weight="bold" lengthAdjust="spacing" textLength="53" x="15" y="66.5117">versjon</text><text fill="#000000" font-family="sans-serif" font-size="14" lengthAdjust="spacing" textLength="16" x="126" y="66.5117">v1</text><line style="stroke:#000000;stroke-width:1.0;" x1="121" x2="121" y1="50.9766" y2="71.4648"/><line style="stroke:#000000;stroke-width:1.0;" x1="10" x2="600" y1="71.4648" y2="71.4648"/><text fill="#000000" font-family="sans-serif" font-size="14" font-weight="bold" lengthAdjust="spacing" textLength="73" x="15" y="87">definisjon</text><text fill="#000000" font-family="sans-serif" font-size="14" lengthAdjust="spacing" textLength="469" x="126" y="87">Godkjennelse/ikke godkjennelse av dokumentet som er sendt p&#229; flyt</text><line style="stroke:#000000;stroke-width:1.0;" x1="121" x2="121" y1="71.4648" y2="91.9531"/><line style="stroke:#000000;stroke-width:1.0;" x1="10" x2="600" y1="91.9531" y2="91.9531"/><text fill="#000000" font-family="sans-serif" font-size="14" font-weight="bold" lengthAdjust="spacing" textLength="67" x="15" y="107.4883">kodeliste</text><text fill="#000000" font-family="sans-serif" font-size="14" lengthAdjust="spacing" textLength="12" x="126" y="107.4883">&#160;&#160;&#160;</text><line style="stroke:#000000;stroke-width:1.0;" x1="121" x2="121" y1="91.9531" y2="112.4414"/><rect fill="none" height="102.4414" rx="5" ry="5" style="stroke:#000000;stroke-width:1.5;" width="590" x="10" y="10"/><rect fill="#F1F1F1" height="61.4648" rx="5" ry="5" style="stroke:#F1F1F1;stroke-width:1.5;" width="22" x="637" y="71.4883"/><text fill="#000000" font-family="sans-serif" font-size="14" lengthAdjust="spacing" textLength="12" x="642" y="87.0234">&#160;&#160;&#160;</text><line style="stroke:#000000;stroke-width:1.0;" x1="637" x2="659" y1="91.9766" y2="91.9766"/><text fill="#000000" font-family="sans-serif" font-size="14" lengthAdjust="spacing" textLength="12" x="642" y="107.5117">&#160;&#160;&#160;</text><line style="stroke:#000000;stroke-width:1.0;" x1="637" x2="659" y1="112.4648" y2="112.4648"/><text fill="#000000" font-family="sans-serif" font-size="14" lengthAdjust="spacing" textLength="12" x="642" y="128">&#160;&#160;&#160;</text><rect fill="none" height="61.4648" rx="5" ry="5" style="stroke:#000000;stroke-width:1.5;" width="22" x="637" y="71.4883"/><rect fill="#F1F1F1" height="40.9766" rx="5" ry="5" style="stroke:#F1F1F1;stroke-width:1.5;" width="199" x="835.5" y="22.7207"/><text fill="#000000" font-family="sans-serif" font-size="14" font-weight="bold" lengthAdjust="spacing" textLength="71" x="840.5" y="38.2559">kodeverdi</text><text fill="#000000" font-family="sans-serif" font-size="14" lengthAdjust="spacing" textLength="10" x="967.5" y="38.2559">G</text><line style="stroke:#000000;stroke-width:1.0;" x1="962.5" x2="962.5" y1="22.7207" y2="43.209"/><line style="stroke:#000000;stroke-width:1.0;" x1="835.5" x2="1034.5" y1="43.209" y2="43.209"/><text fill="#000000" font-family="sans-serif" font-size="14" font-weight="bold" lengthAdjust="spacing" textLength="117" x="840.5" y="58.7441">kodebeskrivelse</text><text fill="#000000" font-family="sans-serif" font-size="14" lengthAdjust="spacing" textLength="62" x="967.5" y="58.7441">Godkjent</text><line style="stroke:#000000;stroke-width:1.0;" x1="962.5" x2="962.5" y1="43.209" y2="63.6973"/><rect fill="none" height="40.9766" rx="5" ry="5" style="stroke:#000000;stroke-width:1.5;" width="199" x="835.5" y="22.7207"/><rect fill="#F1F1F1" height="40.9766" rx="5" ry="5" style="stroke:#F1F1F1;stroke-width:1.5;" width="230" x="820" y="81.7207"/><text fill="#000000" font-family="sans-serif" font-size="14" font-weight="bold" lengthAdjust="spacing" textLength="71" x="825" y="97.2559">kodeverdi</text><text fill="#000000" font-family="sans-serif" font-size="14" lengthAdjust="spacing" textLength="4" x="952" y="97.2559">I</text><line style="stroke:#000000;stroke-width:1.0;" x1="947" x2="947" y1="81.7207" y2="102.209"/><line style="stroke:#000000;stroke-width:1.0;" x1="820" x2="1050" y1="102.209" y2="102.209"/><text fill="#000000" font-family="sans-serif" font-size="14" font-weight="bold" lengthAdjust="spacing" textLength="117" x="825" y="117.7441">kodebeskrivelse</text><text fill="#000000" font-family="sans-serif" font-size="14" lengthAdjust="spacing" textLength="93" x="952" y="117.7441">Ikke godkjent</text><line style="stroke:#000000;stroke-width:1.0;" x1="947" x2="947" y1="102.209" y2="122.6973"/><rect fill="none" height="40.9766" rx="5" ry="5" style="stroke:#000000;stroke-width:1.5;" width="230" x="820" y="81.7207"/><rect fill="#F1F1F1" height="40.9766" rx="5" ry="5" style="stroke:#F1F1F1;stroke-width:1.5;" width="478" x="696" y="140.7207"/><text fill="#000000" font-family="sans-serif" font-size="14" font-weight="bold" lengthAdjust="spacing" textLength="71" x="701" y="156.2559">kodeverdi</text><text fill="#000000" font-family="sans-serif" font-size="14" lengthAdjust="spacing" textLength="8" x="828" y="156.2559">S</text><line style="stroke:#000000;stroke-width:1.0;" x1="823" x2="823" y1="140.7207" y2="161.209"/><line style="stroke:#000000;stroke-width:1.0;" x1="696" x2="1174" y1="161.209" y2="161.209"/><text fill="#000000" font-family="sans-serif" font-size="14" font-weight="bold" lengthAdjust="spacing" textLength="117" x="701" y="176.7441">kodebeskrivelse</text><text fill="#000000" font-family="sans-serif" font-size="14" lengthAdjust="spacing" textLength="341" x="828" y="176.7441">Sendt tilbake til saksbehandler med kommentarer</text><line style="stroke:#000000;stroke-width:1.0;" x1="823" x2="823" y1="161.209" y2="181.6973"/><rect fill="none" height="40.9766" rx="5" ry="5" style="stroke:#000000;stroke-width:1.5;" width="478" x="696" y="140.7207"/><path d="M647,82.2207 L660,82.2207 C676.4924,82.2207 679.7892,76.2553 696,73.2207 C738.9608,65.1786 786.6879,58.6956 828.0912,53.842 " fill="none" style="stroke:#000000;stroke-width:1.0;stroke-dasharray:3.0,3.0;"/><path d="M828.4461,56.9039 L830.3876,53.5758 L827.7363,50.7802 L835.7459,52.9547 L828.4461,56.9039 " fill="#000000" style="stroke:#000000;stroke-width:1.0;"/><ellipse cx="647" cy="82.2207" fill="#000000" rx="3" ry="3" style="stroke:#000000;stroke-width:1.0;"/><path d="M647,102.2207 L660,102.2207 C709.986,102.2207 765.0921,102.2207 812.7314,102.2207 " fill="none" style="stroke:#000000;stroke-width:1.0;stroke-dasharray:3.0,3.0;"/><path d="M812.7314,105.2526 L815.0054,102.2207 L812.7314,99.1888 L820.3112,102.2207 L812.7314,105.2526 " fill="#000000" style="stroke:#000000;stroke-width:1.0;"/><ellipse cx="647" cy="102.2207" fill="#000000" rx="3" ry="3" style="stroke:#000000;stroke-width:1.0;"/><path d="M647,122.2207 L660,122.2207 C676.6058,122.2207 679.712,128.9872 696,132.2207 C709.204,134.842 722.8693,137.2632 736.6697,139.4932 " fill="none" style="stroke:#000000;stroke-width:1.0;stroke-dasharray:3.0,3.0;"/><path d="M736.182,142.5647 L738.9733,139.859 L737.1574,136.4217 L744.3485,140.7125 L736.182,142.5647 " fill="#000000" style="stroke:#000000;stroke-width:1.0;"/><ellipse cx="647" cy="122.2207" fill="#000000" rx="3" ry="3" style="stroke:#000000;stroke-width:1.0;"/><path d="M588,102.2207 L601,102.2207 C610.4213,102.2207 620.9164,102.2207 629.5483,102.2207 " fill="none" style="stroke:#000000;stroke-width:1.0;stroke-dasharray:3.0,3.0;"/><path d="M629.5483,105.2644 L631.8311,102.2207 L629.5483,99.177 L637.1575,102.2207 L629.5483,105.2644 " fill="#000000" style="stroke:#000000;stroke-width:1.0;"/><ellipse cx="588" cy="102.2207" fill="#000000" rx="3" ry="3" style="stroke:#000000;stroke-width:1.0;"/><!--SRC=[ZP5BJiCm48RtFiKeAof18HL5LLQ8LqLfeIB01h5myRIuTiQLFObK8Ox3IRWOJj82guhDMFh_yJUlqy3Iyp8u4ky285bvnyuuQqbMb6IGaEkQq9th6AGtkahswxIjExThpbbo6LgzGX-Mhh6gj9KKpZNfhJfqoYoH26t0GsqCmkAF0h82vKnP834o15S0UWX8Yc7rzGbrkPPgd4Ah0sE4FaS1uBs96olseNG2TS4c_yUOOJ1ULtMnrcwhSz8aVUplGbtlHbt_cUPVl7mtBs_6PcrdCeBZ2q6QCCCtISh6jHIemBYYtfNqw3SLOtmH7-8qVcwkAgPM4ZzEnb3VHZk2jDixwXrt-tjvIJ2HQ-YTG9fcQJ_h3-3yCd-0sk-8lU5q74zG-bS45LVjzQpa2EY8aQmat9V4ki0CxbP8eukRhG2NL6dlgEvBZ9uclmadnmTdcY577rk1fucumBaiBSSVhqvfMcJm-71rC11ZIOjIBY8RIPoxoFNh36xllW40]--></g></svg>