<?xml version="1.0" encoding="us-ascii" standalone="no"?><svg xmlns="http://www.w3.org/2000/svg" xmlns:xlink="http://www.w3.org/1999/xlink" contentStyleType="text/css" height="422px" preserveAspectRatio="none" style="width:983px;height:422px;background:#FFFFFF;" version="1.1" viewBox="0 0 983 422" width="983px" zoomAndPan="magnify"><defs/><g><text fill="#000000" font-family="sans-serif" font-size="14" font-weight="bold" lengthAdjust="spacing" textLength="254" x="363.5" y="28.5352">Oppdater arkivmelding - serverfeil</text><line style="stroke:#181818;stroke-width:0.5;stroke-dasharray:5.0,5.0;" x1="61" x2="61" y1="78.6875" y2="147.3086"/><line style="stroke:#A80036;stroke-width:1.0;stroke-dasharray:1.0,4.0;" x1="61" x2="61" y1="147.3086" y2="201.2188"/><line style="stroke:#181818;stroke-width:0.5;stroke-dasharray:5.0,5.0;" x1="61" x2="61" y1="201.2188" y2="259.8398"/><line style="stroke:#A80036;stroke-width:1.0;stroke-dasharray:1.0,4.0;" x1="61" x2="61" y1="259.8398" y2="313.75"/><line style="stroke:#181818;stroke-width:0.5;stroke-dasharray:5.0,5.0;" x1="61" x2="61" y1="313.75" y2="382.3711"/><line style="stroke:#181818;stroke-width:0.5;stroke-dasharray:5.0,5.0;" x1="486.5" x2="486.5" y1="78.6875" y2="147.3086"/><line style="stroke:#A80036;stroke-width:1.0;stroke-dasharray:1.0,4.0;" x1="486.5" x2="486.5" y1="147.3086" y2="201.2188"/><line style="stroke:#181818;stroke-width:0.5;stroke-dasharray:5.0,5.0;" x1="486.5" x2="486.5" y1="201.2188" y2="259.8398"/><line style="stroke:#A80036;stroke-width:1.0;stroke-dasharray:1.0,4.0;" x1="486.5" x2="486.5" y1="259.8398" y2="313.75"/><line style="stroke:#181818;stroke-width:0.5;stroke-dasharray:5.0,5.0;" x1="486.5" x2="486.5" y1="313.75" y2="382.3711"/><line style="stroke:#181818;stroke-width:0.5;stroke-dasharray:5.0,5.0;" x1="913" x2="913" y1="78.6875" y2="147.3086"/><line style="stroke:#A80036;stroke-width:1.0;stroke-dasharray:1.0,4.0;" x1="913" x2="913" y1="147.3086" y2="201.2188"/><line style="stroke:#181818;stroke-width:0.5;stroke-dasharray:5.0,5.0;" x1="913" x2="913" y1="201.2188" y2="259.8398"/><line style="stroke:#A80036;stroke-width:1.0;stroke-dasharray:1.0,4.0;" x1="913" x2="913" y1="259.8398" y2="313.75"/><line style="stroke:#181818;stroke-width:0.5;stroke-dasharray:5.0,5.0;" x1="913" x2="913" y1="313.75" y2="382.3711"/><rect fill="#E2E2F0" height="35.1992" rx="2.5" ry="2.5" style="stroke:#181818;stroke-width:0.5;" width="112" x="5" y="42.4883"/><text fill="#000000" font-family="sans-serif" font-size="18" font-weight="bold" lengthAdjust="spacing" textLength="98" x="12" y="66.8906">Fagsystem</text><rect fill="#E2E2F0" height="35.1992" rx="2.5" ry="2.5" style="stroke:#181818;stroke-width:0.5;" width="112" x="5" y="381.3711"/><text fill="#000000" font-family="sans-serif" font-size="18" font-weight="bold" lengthAdjust="spacing" textLength="98" x="12" y="405.7734">Fagsystem</text><rect fill="#E2E2F0" height="35.1992" rx="2.5" ry="2.5" style="stroke:#181818;stroke-width:0.5;" width="139" x="417.5" y="42.4883"/><text fill="#000000" font-family="sans-serif" font-size="18" font-weight="bold" lengthAdjust="spacing" textLength="125" x="424.5" y="66.8906">Fiks Protokoll</text><rect fill="#E2E2F0" height="35.1992" rx="2.5" ry="2.5" style="stroke:#181818;stroke-width:0.5;" width="139" x="417.5" y="381.3711"/><text fill="#000000" font-family="sans-serif" font-size="18" font-weight="bold" lengthAdjust="spacing" textLength="125" x="424.5" y="405.7734">Fiks Protokoll</text><rect fill="#E2E2F0" height="35.1992" rx="2.5" ry="2.5" style="stroke:#181818;stroke-width:0.5;" width="128" x="849" y="42.4883"/><text fill="#000000" font-family="sans-serif" font-size="18" font-weight="bold" lengthAdjust="spacing" textLength="114" x="856" y="66.8906">Arkivsystem</text><rect fill="#E2E2F0" height="35.1992" rx="2.5" ry="2.5" style="stroke:#181818;stroke-width:0.5;" width="128" x="849" y="381.3711"/><text fill="#000000" font-family="sans-serif" font-size="18" font-weight="bold" lengthAdjust="spacing" textLength="114" x="856" y="405.7734">Arkivsystem</text><polygon fill="#181818" points="475,105.998,485,109.998,475,113.998,479,109.998" style="stroke:#181818;stroke-width:1.0;"/><line style="stroke:#181818;stroke-width:1.0;" x1="61" x2="481" y1="109.998" y2="109.998"/><text fill="#000000" font-family="sans-serif" font-size="13" font-weight="bold" lengthAdjust="spacing" textLength="350" x="99" y="105.2559">no.ks.fiks.arkiv.v1.arkivering.arkivmelding.oppdater</text><polygon fill="#181818" points="901,135.3086,911,139.3086,901,143.3086,905,139.3086" style="stroke:#181818;stroke-width:1.0;"/><line style="stroke:#181818;stroke-width:1.0;" x1="487" x2="907" y1="139.3086" y2="139.3086"/><text fill="#000000" font-family="sans-serif" font-size="13" font-weight="bold" lengthAdjust="spacing" textLength="350" x="525" y="134.5664">no.ks.fiks.arkiv.v1.arkivering.arkivmelding.oppdater</text><text fill="#000000" font-family="sans-serif" font-size="11" lengthAdjust="spacing" textLength="66" x="329" y="171.9434">Arkivsystem</text><text fill="#000000" font-family="sans-serif" font-size="11" font-weight="bold" lengthAdjust="spacing" textLength="20" x="398" y="171.9434">kan</text><text fill="#000000" font-family="sans-serif" font-size="11" lengthAdjust="spacing" textLength="224" x="421" y="171.9434">melde at melding er mottatt og h&#229;ndteres.</text><text fill="#000000" font-family="sans-serif" font-size="11" lengthAdjust="spacing" textLength="347" x="313.5" y="184.8984">Merk at serverfeil kan inntreffe b&#229;de f&#248;r og etter mottatt-melding</text><polygon fill="#181818" points="498,218.5293,488,222.5293,498,226.5293,494,222.5293" style="stroke:#181818;stroke-width:1.0;"/><line style="stroke:#181818;stroke-width:1.0;" x1="492" x2="912" y1="222.5293" y2="222.5293"/><text fill="#000000" font-family="sans-serif" font-size="13" font-weight="bold" lengthAdjust="spacing" textLength="402" x="499" y="217.7871">no.ks.fiks.arkiv.v1.arkivering.arkivmelding.oppdater.mottatt</text><polygon fill="#181818" points="72,247.8398,62,251.8398,72,255.8398,68,251.8398" style="stroke:#181818;stroke-width:1.0;"/><line style="stroke:#181818;stroke-width:1.0;" x1="66" x2="486" y1="251.8398" y2="251.8398"/><text fill="#000000" font-family="sans-serif" font-size="13" font-weight="bold" lengthAdjust="spacing" textLength="402" x="73" y="247.0977">no.ks.fiks.arkiv.v1.arkivering.arkivmelding.oppdater.mottatt</text><text fill="#000000" font-family="sans-serif" font-size="11" lengthAdjust="spacing" textLength="225" x="374.5" y="284.4746">Arkivsystem feiler av en eller annen grunn</text><text fill="#000000" font-family="sans-serif" font-size="11" lengthAdjust="spacing" textLength="169" x="404" y="297.4297">og sender serverfeil feilmelding</text><polygon fill="#181818" points="498,331.0605,488,335.0605,498,339.0605,494,335.0605" style="stroke:#181818;stroke-width:1.0;"/><line style="stroke:#181818;stroke-width:1.0;" x1="492" x2="912" y1="335.0605" y2="335.0605"/><text fill="#000000" font-family="sans-serif" font-size="13" font-weight="bold" lengthAdjust="spacing" textLength="266" x="567" y="330.3184">no.ks.fiks.arkiv.v1.feilmelding.serverfeil</text><polygon fill="#181818" points="72,360.3711,62,364.3711,72,368.3711,68,364.3711" style="stroke:#181818;stroke-width:1.0;"/><line style="stroke:#181818;stroke-width:1.0;" x1="66" x2="486" y1="364.3711" y2="364.3711"/><text fill="#000000" font-family="sans-serif" font-size="13" font-weight="bold" lengthAdjust="spacing" textLength="266" x="141" y="359.6289">no.ks.fiks.arkiv.v1.feilmelding.serverfeil</text><!--SRC=[hPB1JiCm38RlUGfhnqYBn1K9f5suJN1d74BhbYYfKnAl4W-qT-2-5yCP6-qgkB3r45c_xC_sxsRlgBV9Tf3nVOjKuHfpjYskWci9AYJ6f1Gx3WYBnxwlhGXWatT3Xw5srC9IQjE0gK4N5ae9ZbtbUaiC3xRD7vcnWsS5yjsDYdevptG-FwN8qSSGncnHuKUUbQpA43FyH9DiDVPVtizQt8BM58tFfX7T73OomyrtW4aMCzCjJJpkhhKw1mbvEia5N6FCbAIrjwGrb4m4ot0oN0xGHMRB3B65j_sEQW5WDXjQO_8bTRm820GS4ITi6eJN_KvWpVupbLfa7c7BqqZ6gEaSLxFE71lzPk5ugIlGPqOM6yfFEm0IO3Z4H1AtQKkqeU94Hgf5d_XMdaiTcJ96zF_s_vFr1G00]--></g></svg>