<svg xmlns="http://www.w3.org/2000/svg" xmlns:xlink="http://www.w3.org/1999/xlink" contentStyleType="text/css" height="435px" preserveAspectRatio="none" style="width:983px;height:435px;background:#FFFFFF;" version="1.1" viewBox="0 0 983 435" width="983px" zoomAndPan="magnify"><defs/><g><text fill="#000000" font-family="sans-serif" font-size="14" font-weight="bold" lengthAdjust="spacing" textLength="330" x="325.5" y="28.5352">Oppdater arkivmelding - ugyldigforespoersel</text><line style="stroke:#181818;stroke-width:0.5;stroke-dasharray:5.0,5.0;" x1="61" x2="61" y1="78.6875" y2="147.3086"/><line style="stroke:#A80036;stroke-width:1.0;stroke-dasharray:1.0,4.0;" x1="61" x2="61" y1="147.3086" y2="214.1738"/><line style="stroke:#181818;stroke-width:0.5;stroke-dasharray:5.0,5.0;" x1="61" x2="61" y1="214.1738" y2="272.7949"/><line style="stroke:#A80036;stroke-width:1.0;stroke-dasharray:1.0,4.0;" x1="61" x2="61" y1="272.7949" y2="326.7051"/><line style="stroke:#181818;stroke-width:0.5;stroke-dasharray:5.0,5.0;" x1="61" x2="61" y1="326.7051" y2="395.3262"/><line style="stroke:#181818;stroke-width:0.5;stroke-dasharray:5.0,5.0;" x1="486.5" x2="486.5" y1="78.6875" y2="147.3086"/><line style="stroke:#A80036;stroke-width:1.0;stroke-dasharray:1.0,4.0;" x1="486.5" x2="486.5" y1="147.3086" y2="214.1738"/><line style="stroke:#181818;stroke-width:0.5;stroke-dasharray:5.0,5.0;" x1="486.5" x2="486.5" y1="214.1738" y2="272.7949"/><line style="stroke:#A80036;stroke-width:1.0;stroke-dasharray:1.0,4.0;" x1="486.5" x2="486.5" y1="272.7949" y2="326.7051"/><line style="stroke:#181818;stroke-width:0.5;stroke-dasharray:5.0,5.0;" x1="486.5" x2="486.5" y1="326.7051" y2="395.3262"/><line style="stroke:#181818;stroke-width:0.5;stroke-dasharray:5.0,5.0;" x1="913" x2="913" y1="78.6875" y2="147.3086"/><line style="stroke:#A80036;stroke-width:1.0;stroke-dasharray:1.0,4.0;" x1="913" x2="913" y1="147.3086" y2="214.1738"/><line style="stroke:#181818;stroke-width:0.5;stroke-dasharray:5.0,5.0;" x1="913" x2="913" y1="214.1738" y2="272.7949"/><line style="stroke:#A80036;stroke-width:1.0;stroke-dasharray:1.0,4.0;" x1="913" x2="913" y1="272.7949" y2="326.7051"/><line style="stroke:#181818;stroke-width:0.5;stroke-dasharray:5.0,5.0;" x1="913" x2="913" y1="326.7051" y2="395.3262"/><rect fill="#E2E2F0" height="35.1992" rx="2.5" ry="2.5" style="stroke:#181818;stroke-width:0.5;" width="112" x="5" y="42.4883"/><text fill="#000000" font-family="sans-serif" font-size="18" font-weight="bold" lengthAdjust="spacing" textLength="98" x="12" y="66.8906">Fagsystem</text><rect fill="#E2E2F0" height="35.1992" rx="2.5" ry="2.5" style="stroke:#181818;stroke-width:0.5;" width="112" x="5" y="394.3262"/><text fill="#000000" font-family="sans-serif" font-size="18" font-weight="bold" lengthAdjust="spacing" textLength="98" x="12" y="418.7285">Fagsystem</text><rect fill="#E2E2F0" height="35.1992" rx="2.5" ry="2.5" style="stroke:#181818;stroke-width:0.5;" width="139" x="417.5" y="42.4883"/><text fill="#000000" font-family="sans-serif" font-size="18" font-weight="bold" lengthAdjust="spacing" textLength="125" x="424.5" y="66.8906">Fiks Protokoll</text><rect fill="#E2E2F0" height="35.1992" rx="2.5" ry="2.5" style="stroke:#181818;stroke-width:0.5;" width="139" x="417.5" y="394.3262"/><text fill="#000000" font-family="sans-serif" font-size="18" font-weight="bold" lengthAdjust="spacing" textLength="125" x="424.5" y="418.7285">Fiks Protokoll</text><rect fill="#E2E2F0" height="35.1992" rx="2.5" ry="2.5" style="stroke:#181818;stroke-width:0.5;" width="128" x="849" y="42.4883"/><text fill="#000000" font-family="sans-serif" font-size="18" font-weight="bold" lengthAdjust="spacing" textLength="114" x="856" y="66.8906">Arkivsystem</text><rect fill="#E2E2F0" height="35.1992" rx="2.5" ry="2.5" style="stroke:#181818;stroke-width:0.5;" width="128" x="849" y="394.3262"/><text fill="#000000" font-family="sans-serif" font-size="18" font-weight="bold" lengthAdjust="spacing" textLength="114" x="856" y="418.7285">Arkivsystem</text><polygon fill="#181818" points="475,105.998,485,109.998,475,113.998,479,109.998" style="stroke:#181818;stroke-width:1.0;"/><line style="stroke:#181818;stroke-width:1.0;" x1="61" x2="481" y1="109.998" y2="109.998"/><text fill="#000000" font-family="sans-serif" font-size="13" font-weight="bold" lengthAdjust="spacing" textLength="350" x="99" y="105.2559">no.ks.fiks.arkiv.v1.arkivering.arkivmelding.oppdater</text><polygon fill="#181818" points="901,135.3086,911,139.3086,901,143.3086,905,139.3086" style="stroke:#181818;stroke-width:1.0;"/><line style="stroke:#181818;stroke-width:1.0;" x1="487" x2="907" y1="139.3086" y2="139.3086"/><text fill="#000000" font-family="sans-serif" font-size="13" font-weight="bold" lengthAdjust="spacing" textLength="350" x="525" y="134.5664">no.ks.fiks.arkiv.v1.arkivering.arkivmelding.oppdater</text><text fill="#000000" font-family="sans-serif" font-size="11" lengthAdjust="spacing" textLength="298" x="338" y="171.9434">Arkivsystem melder at melding er mottatt og h&#229;ndteres.</text><text fill="#000000" font-family="sans-serif" font-size="11" lengthAdjust="spacing" textLength="193" x="389" y="184.8984">Merk at i noen tilfeller kan validering</text><text fill="#000000" font-family="sans-serif" font-size="11" lengthAdjust="spacing" textLength="347" x="313.5" y="197.8535">inntreffe f&#248;r mottatt-melding sendes og man f&#229;r bare feilmelding</text><polygon fill="#181818" points="498,231.4844,488,235.4844,498,239.4844,494,235.4844" style="stroke:#181818;stroke-width:1.0;"/><line style="stroke:#181818;stroke-width:1.0;" x1="492" x2="912" y1="235.4844" y2="235.4844"/><text fill="#000000" font-family="sans-serif" font-size="13" font-weight="bold" lengthAdjust="spacing" textLength="402" x="499" y="230.7422">no.ks.fiks.arkiv.v1.arkivering.arkivmelding.oppdater.mottatt</text><polygon fill="#181818" points="72,260.7949,62,264.7949,72,268.7949,68,264.7949" style="stroke:#181818;stroke-width:1.0;"/><line style="stroke:#181818;stroke-width:1.0;" x1="66" x2="486" y1="264.7949" y2="264.7949"/><text fill="#000000" font-family="sans-serif" font-size="13" font-weight="bold" lengthAdjust="spacing" textLength="402" x="73" y="260.0527">no.ks.fiks.arkiv.v1.arkivering.arkivmelding.oppdater.mottatt</text><text fill="#000000" font-family="sans-serif" font-size="11" lengthAdjust="spacing" textLength="248" x="363" y="297.4297">Arkivsystem finner ut at melding ikke er gyldig</text><text fill="#000000" font-family="sans-serif" font-size="11" lengthAdjust="spacing" textLength="340" x="317" y="310.3848">F.eks. ikke validerer mot xsd-skjema eller annet ugyldig innhold</text><polygon fill="#181818" points="498,344.0156,488,348.0156,498,352.0156,494,348.0156" style="stroke:#181818;stroke-width:1.0;"/><line style="stroke:#181818;stroke-width:1.0;" x1="492" x2="912" y1="348.0156" y2="348.0156"/><text fill="#000000" font-family="sans-serif" font-size="13" font-weight="bold" lengthAdjust="spacing" textLength="338" x="531" y="343.2734">no.ks.fiks.arkiv.v1.feilmelding.ugyldigforespoersel</text><polygon fill="#181818" points="72,373.3262,62,377.3262,72,381.3262,68,377.3262" style="stroke:#181818;stroke-width:1.0;"/><line style="stroke:#181818;stroke-width:1.0;" x1="66" x2="486" y1="377.3262" y2="377.3262"/><text fill="#000000" font-family="sans-serif" font-size="13" font-weight="bold" lengthAdjust="spacing" textLength="338" x="105" y="372.584">no.ks.fiks.arkiv.v1.feilmelding.ugyldigforespoersel</text><!--SRC=[hPEnRi8m48PtFyM9CL8iTQtKIYnigDrB1vTSWclddDe7AW_4EtJdnNeX14A4L8cIoVdrtt_dptPobXeJJGq9lzP8IvnZIgR2gRSLmHA9CIh5bZt2vALf2YC2cEZifaPVMAeWXtMrbMLLXeYf2HWJ-ebIaijsQHj333DJfMrYhE5DWNnFPqMzNpgjIwynS731-xDRL3Z9ev9fEyqeVg29Mvtxvy-Z5e-GPHIqIxeKNH-sfZSFtGAZx50Fjwl34KAMgSiWIHvEyezShVKmgNMqq1bwvF9N1sR33A62rNv7XLHYqWkQOtIjrG85963hI_HU2fmXs1XlYqDlM90bueXbYL3kVqw1UTyZ8HMOslnQAilzBiA7YM96w_kPjLR3GU_6LX-7kSRuV9HtI1-HBeM9e5hp4BPr3blYtILVq4oZTEla8z3kFE0x5NbodrWRw9WRYUF-UO24hu8lRgOs97_boTq6w-_GNm00]--></g></svg>