<?xml version="1.0" encoding="us-ascii" standalone="no"?><svg xmlns="http://www.w3.org/2000/svg" xmlns:xlink="http://www.w3.org/1999/xlink" contentStyleType="text/css" height="396px" preserveAspectRatio="none" style="width:1017px;height:396px;background:#FFFFFF;" version="1.1" viewBox="0 0 1017 396" width="1017px" zoomAndPan="magnify"><defs/><g><text fill="#000000" font-family="sans-serif" font-size="14" font-weight="bold" lengthAdjust="spacing" textLength="204" x="405.5" y="28.5352">Oppdater arkivmelding - ok</text><line style="stroke:#181818;stroke-width:0.5;stroke-dasharray:5.0,5.0;" x1="61" x2="61" y1="78.6875" y2="147.3086"/><line style="stroke:#A80036;stroke-width:1.0;stroke-dasharray:1.0,4.0;" x1="61" x2="61" y1="147.3086" y2="188.2637"/><line style="stroke:#181818;stroke-width:0.5;stroke-dasharray:5.0,5.0;" x1="61" x2="61" y1="188.2637" y2="246.8848"/><line style="stroke:#A80036;stroke-width:1.0;stroke-dasharray:1.0,4.0;" x1="61" x2="61" y1="246.8848" y2="287.8398"/><line style="stroke:#181818;stroke-width:0.5;stroke-dasharray:5.0,5.0;" x1="61" x2="61" y1="287.8398" y2="356.4609"/><line style="stroke:#181818;stroke-width:0.5;stroke-dasharray:5.0,5.0;" x1="503.5" x2="503.5" y1="78.6875" y2="147.3086"/><line style="stroke:#A80036;stroke-width:1.0;stroke-dasharray:1.0,4.0;" x1="503.5" x2="503.5" y1="147.3086" y2="188.2637"/><line style="stroke:#181818;stroke-width:0.5;stroke-dasharray:5.0,5.0;" x1="503.5" x2="503.5" y1="188.2637" y2="246.8848"/><line style="stroke:#A80036;stroke-width:1.0;stroke-dasharray:1.0,4.0;" x1="503.5" x2="503.5" y1="246.8848" y2="287.8398"/><line style="stroke:#181818;stroke-width:0.5;stroke-dasharray:5.0,5.0;" x1="503.5" x2="503.5" y1="287.8398" y2="356.4609"/><line style="stroke:#181818;stroke-width:0.5;stroke-dasharray:5.0,5.0;" x1="947" x2="947" y1="78.6875" y2="147.3086"/><line style="stroke:#A80036;stroke-width:1.0;stroke-dasharray:1.0,4.0;" x1="947" x2="947" y1="147.3086" y2="188.2637"/><line style="stroke:#181818;stroke-width:0.5;stroke-dasharray:5.0,5.0;" x1="947" x2="947" y1="188.2637" y2="246.8848"/><line style="stroke:#A80036;stroke-width:1.0;stroke-dasharray:1.0,4.0;" x1="947" x2="947" y1="246.8848" y2="287.8398"/><line style="stroke:#181818;stroke-width:0.5;stroke-dasharray:5.0,5.0;" x1="947" x2="947" y1="287.8398" y2="356.4609"/><rect fill="#E2E2F0" height="35.1992" rx="2.5" ry="2.5" style="stroke:#181818;stroke-width:0.5;" width="112" x="5" y="42.4883"/><text fill="#000000" font-family="sans-serif" font-size="18" font-weight="bold" lengthAdjust="spacing" textLength="98" x="12" y="66.8906">Fagsystem</text><rect fill="#E2E2F0" height="35.1992" rx="2.5" ry="2.5" style="stroke:#181818;stroke-width:0.5;" width="112" x="5" y="355.4609"/><text fill="#000000" font-family="sans-serif" font-size="18" font-weight="bold" lengthAdjust="spacing" textLength="98" x="12" y="379.8633">Fagsystem</text><rect fill="#E2E2F0" height="35.1992" rx="2.5" ry="2.5" style="stroke:#181818;stroke-width:0.5;" width="139" x="434.5" y="42.4883"/><text fill="#000000" font-family="sans-serif" font-size="18" font-weight="bold" lengthAdjust="spacing" textLength="125" x="441.5" y="66.8906">Fiks Protokoll</text><rect fill="#E2E2F0" height="35.1992" rx="2.5" ry="2.5" style="stroke:#181818;stroke-width:0.5;" width="139" x="434.5" y="355.4609"/><text fill="#000000" font-family="sans-serif" font-size="18" font-weight="bold" lengthAdjust="spacing" textLength="125" x="441.5" y="379.8633">Fiks Protokoll</text><rect fill="#E2E2F0" height="35.1992" rx="2.5" ry="2.5" style="stroke:#181818;stroke-width:0.5;" width="128" x="883" y="42.4883"/><text fill="#000000" font-family="sans-serif" font-size="18" font-weight="bold" lengthAdjust="spacing" textLength="114" x="890" y="66.8906">Arkivsystem</text><rect fill="#E2E2F0" height="35.1992" rx="2.5" ry="2.5" style="stroke:#181818;stroke-width:0.5;" width="128" x="883" y="355.4609"/><text fill="#000000" font-family="sans-serif" font-size="18" font-weight="bold" lengthAdjust="spacing" textLength="114" x="890" y="379.8633">Arkivsystem</text><polygon fill="#181818" points="492,105.998,502,109.998,492,113.998,496,109.998" style="stroke:#181818;stroke-width:1.0;"/><line style="stroke:#181818;stroke-width:1.0;" x1="61" x2="498" y1="109.998" y2="109.998"/><text fill="#000000" font-family="sans-serif" font-size="13" font-weight="bold" lengthAdjust="spacing" textLength="350" x="107.5" y="105.2559">no.ks.fiks.arkiv.v1.arkivering.arkivmelding.oppdater</text><polygon fill="#181818" points="935,135.3086,945,139.3086,935,143.3086,939,139.3086" style="stroke:#181818;stroke-width:1.0;"/><line style="stroke:#181818;stroke-width:1.0;" x1="504" x2="941" y1="139.3086" y2="139.3086"/><text fill="#000000" font-family="sans-serif" font-size="13" font-weight="bold" lengthAdjust="spacing" textLength="350" x="550.5" y="134.5664">no.ks.fiks.arkiv.v1.arkivering.arkivmelding.oppdater</text><text fill="#000000" font-family="sans-serif" font-size="11" lengthAdjust="spacing" textLength="295" x="356.5" y="171.9434">Arkivsystem melder at melding er mottatt og h&#229;ndteres</text><polygon fill="#181818" points="515,205.5742,505,209.5742,515,213.5742,511,209.5742" style="stroke:#181818;stroke-width:1.0;"/><line style="stroke:#181818;stroke-width:1.0;" x1="509" x2="946" y1="209.5742" y2="209.5742"/><text fill="#000000" font-family="sans-serif" font-size="13" font-weight="bold" lengthAdjust="spacing" textLength="402" x="524.5" y="204.832">no.ks.fiks.arkiv.v1.arkivering.arkivmelding.oppdater.mottatt</text><polygon fill="#181818" points="72,234.8848,62,238.8848,72,242.8848,68,238.8848" style="stroke:#181818;stroke-width:1.0;"/><line style="stroke:#181818;stroke-width:1.0;" x1="66" x2="503" y1="238.8848" y2="238.8848"/><text fill="#000000" font-family="sans-serif" font-size="13" font-weight="bold" lengthAdjust="spacing" textLength="402" x="81.5" y="234.1426">no.ks.fiks.arkiv.v1.arkivering.arkivmelding.oppdater.mottatt</text><text fill="#000000" font-family="sans-serif" font-size="11" lengthAdjust="spacing" textLength="318" x="345" y="271.5195">Arkivsystem kvitterer med kvitteringsmelding uten payload.</text><polygon fill="#181818" points="515,305.1504,505,309.1504,515,313.1504,511,309.1504" style="stroke:#181818;stroke-width:1.0;"/><line style="stroke:#181818;stroke-width:1.0;" x1="509" x2="946" y1="309.1504" y2="309.1504"/><text fill="#000000" font-family="sans-serif" font-size="13" font-weight="bold" lengthAdjust="spacing" textLength="419" x="516" y="304.4082">no.ks.fiks.arkiv.v1.arkivering.arkivmelding.oppdater.kvittering</text><polygon fill="#181818" points="72,334.4609,62,338.4609,72,342.4609,68,338.4609" style="stroke:#181818;stroke-width:1.0;"/><line style="stroke:#181818;stroke-width:1.0;" x1="66" x2="503" y1="338.4609" y2="338.4609"/><text fill="#000000" font-family="sans-serif" font-size="13" font-weight="bold" lengthAdjust="spacing" textLength="419" x="73" y="333.7188">no.ks.fiks.arkiv.v1.arkivering.arkivmelding.oppdater.kvittering</text><!--SRC=[jP11JiCm44NtFiMeoqWTYIrIaRfXXs2FM5ZnO2mxjXjF8_L0dAGNOm8DSI9sj5xPNpF_-_tYNSowrnqKEXmfjlH4fMXB- -1iX9OYKwyKEmu4c-USZHO1TE_Tq54mBbhOGl8RfSI6NUkoZWoFsfPJOUhWLO6StQoej-May-MbJvny2c6U5XL-vTNAVWnVsLUQJAivV_kmYhY7fea9VS5tqV6R18Uxdmlr0eGr7QOBSzEefP4urp_vXoyYraxZnDWnmzImlBh4h9aXMVWuVqOZcrHaKTMRLuF5IznVq7EtLt1VeVl1yKWcl6IcbwoMgOaZKuIiJo5fWxV3dvDlrC0Yu0i0]--></g></svg>