<?xml version="1.0" encoding="us-ascii" standalone="no"?><svg xmlns="http://www.w3.org/2000/svg" xmlns:xlink="http://www.w3.org/1999/xlink" contentStyleType="text/css" height="396px" preserveAspectRatio="none" style="width:983px;height:396px;background:#FFFFFF;" version="1.1" viewBox="0 0 983 396" width="983px" zoomAndPan="magnify"><defs/><g><text fill="#000000" font-family="sans-serif" font-size="14" font-weight="bold" lengthAdjust="spacing" textLength="264" x="358.5" y="28.5352">Oppdater arkivmelding - ikkefunnet</text><line style="stroke:#181818;stroke-width:0.5;stroke-dasharray:5.0,5.0;" x1="61" x2="61" y1="78.6875" y2="147.3086"/><line style="stroke:#A80036;stroke-width:1.0;stroke-dasharray:1.0,4.0;" x1="61" x2="61" y1="147.3086" y2="188.2637"/><line style="stroke:#181818;stroke-width:0.5;stroke-dasharray:5.0,5.0;" x1="61" x2="61" y1="188.2637" y2="246.8848"/><line style="stroke:#A80036;stroke-width:1.0;stroke-dasharray:1.0,4.0;" x1="61" x2="61" y1="246.8848" y2="287.8398"/><line style="stroke:#181818;stroke-width:0.5;stroke-dasharray:5.0,5.0;" x1="61" x2="61" y1="287.8398" y2="356.4609"/><line style="stroke:#181818;stroke-width:0.5;stroke-dasharray:5.0,5.0;" x1="486.5" x2="486.5" y1="78.6875" y2="147.3086"/><line style="stroke:#A80036;stroke-width:1.0;stroke-dasharray:1.0,4.0;" x1="486.5" x2="486.5" y1="147.3086" y2="188.2637"/><line style="stroke:#181818;stroke-width:0.5;stroke-dasharray:5.0,5.0;" x1="486.5" x2="486.5" y1="188.2637" y2="246.8848"/><line style="stroke:#A80036;stroke-width:1.0;stroke-dasharray:1.0,4.0;" x1="486.5" x2="486.5" y1="246.8848" y2="287.8398"/><line style="stroke:#181818;stroke-width:0.5;stroke-dasharray:5.0,5.0;" x1="486.5" x2="486.5" y1="287.8398" y2="356.4609"/><line style="stroke:#181818;stroke-width:0.5;stroke-dasharray:5.0,5.0;" x1="913" x2="913" y1="78.6875" y2="147.3086"/><line style="stroke:#A80036;stroke-width:1.0;stroke-dasharray:1.0,4.0;" x1="913" x2="913" y1="147.3086" y2="188.2637"/><line style="stroke:#181818;stroke-width:0.5;stroke-dasharray:5.0,5.0;" x1="913" x2="913" y1="188.2637" y2="246.8848"/><line style="stroke:#A80036;stroke-width:1.0;stroke-dasharray:1.0,4.0;" x1="913" x2="913" y1="246.8848" y2="287.8398"/><line style="stroke:#181818;stroke-width:0.5;stroke-dasharray:5.0,5.0;" x1="913" x2="913" y1="287.8398" y2="356.4609"/><rect fill="#E2E2F0" height="35.1992" rx="2.5" ry="2.5" style="stroke:#181818;stroke-width:0.5;" width="112" x="5" y="42.4883"/><text fill="#000000" font-family="sans-serif" font-size="18" font-weight="bold" lengthAdjust="spacing" textLength="98" x="12" y="66.8906">Fagsystem</text><rect fill="#E2E2F0" height="35.1992" rx="2.5" ry="2.5" style="stroke:#181818;stroke-width:0.5;" width="112" x="5" y="355.4609"/><text fill="#000000" font-family="sans-serif" font-size="18" font-weight="bold" lengthAdjust="spacing" textLength="98" x="12" y="379.8633">Fagsystem</text><rect fill="#E2E2F0" height="35.1992" rx="2.5" ry="2.5" style="stroke:#181818;stroke-width:0.5;" width="139" x="417.5" y="42.4883"/><text fill="#000000" font-family="sans-serif" font-size="18" font-weight="bold" lengthAdjust="spacing" textLength="125" x="424.5" y="66.8906">Fiks Protokoll</text><rect fill="#E2E2F0" height="35.1992" rx="2.5" ry="2.5" style="stroke:#181818;stroke-width:0.5;" width="139" x="417.5" y="355.4609"/><text fill="#000000" font-family="sans-serif" font-size="18" font-weight="bold" lengthAdjust="spacing" textLength="125" x="424.5" y="379.8633">Fiks Protokoll</text><rect fill="#E2E2F0" height="35.1992" rx="2.5" ry="2.5" style="stroke:#181818;stroke-width:0.5;" width="128" x="849" y="42.4883"/><text fill="#000000" font-family="sans-serif" font-size="18" font-weight="bold" lengthAdjust="spacing" textLength="114" x="856" y="66.8906">Arkivsystem</text><rect fill="#E2E2F0" height="35.1992" rx="2.5" ry="2.5" style="stroke:#181818;stroke-width:0.5;" width="128" x="849" y="355.4609"/><text fill="#000000" font-family="sans-serif" font-size="18" font-weight="bold" lengthAdjust="spacing" textLength="114" x="856" y="379.8633">Arkivsystem</text><polygon fill="#181818" points="475,105.998,485,109.998,475,113.998,479,109.998" style="stroke:#181818;stroke-width:1.0;"/><line style="stroke:#181818;stroke-width:1.0;" x1="61" x2="481" y1="109.998" y2="109.998"/><text fill="#000000" font-family="sans-serif" font-size="13" font-weight="bold" lengthAdjust="spacing" textLength="350" x="99" y="105.2559">no.ks.fiks.arkiv.v1.arkivering.arkivmelding.oppdater</text><polygon fill="#181818" points="901,135.3086,911,139.3086,901,143.3086,905,139.3086" style="stroke:#181818;stroke-width:1.0;"/><line style="stroke:#181818;stroke-width:1.0;" x1="487" x2="907" y1="139.3086" y2="139.3086"/><text fill="#000000" font-family="sans-serif" font-size="13" font-weight="bold" lengthAdjust="spacing" textLength="350" x="525" y="134.5664">no.ks.fiks.arkiv.v1.arkivering.arkivmelding.oppdater</text><text fill="#000000" font-family="sans-serif" font-size="11" lengthAdjust="spacing" textLength="295" x="339.5" y="171.9434">Arkivsystem melder at melding er mottatt og h&#229;ndteres</text><polygon fill="#181818" points="498,205.5742,488,209.5742,498,213.5742,494,209.5742" style="stroke:#181818;stroke-width:1.0;"/><line style="stroke:#181818;stroke-width:1.0;" x1="492" x2="912" y1="209.5742" y2="209.5742"/><text fill="#000000" font-family="sans-serif" font-size="13" font-weight="bold" lengthAdjust="spacing" textLength="402" x="499" y="204.832">no.ks.fiks.arkiv.v1.arkivering.arkivmelding.oppdater.mottatt</text><polygon fill="#181818" points="72,234.8848,62,238.8848,72,242.8848,68,238.8848" style="stroke:#181818;stroke-width:1.0;"/><line style="stroke:#181818;stroke-width:1.0;" x1="66" x2="486" y1="238.8848" y2="238.8848"/><text fill="#000000" font-family="sans-serif" font-size="13" font-weight="bold" lengthAdjust="spacing" textLength="402" x="73" y="234.1426">no.ks.fiks.arkiv.v1.arkivering.arkivmelding.oppdater.mottatt</text><text fill="#000000" font-family="sans-serif" font-size="11" lengthAdjust="spacing" textLength="338" x="318" y="271.5195">Arkivsystem finner ikke objektet det refereres til i hent-melding</text><polygon fill="#181818" points="498,305.1504,488,309.1504,498,313.1504,494,309.1504" style="stroke:#181818;stroke-width:1.0;"/><line style="stroke:#181818;stroke-width:1.0;" x1="492" x2="912" y1="309.1504" y2="309.1504"/><text fill="#000000" font-family="sans-serif" font-size="13" font-weight="bold" lengthAdjust="spacing" textLength="275" x="562.5" y="304.4082">no.ks.fiks.arkiv.v1.feilmelding.ikkefunnet</text><polygon fill="#181818" points="72,334.4609,62,338.4609,72,342.4609,68,338.4609" style="stroke:#181818;stroke-width:1.0;"/><line style="stroke:#181818;stroke-width:1.0;" x1="66" x2="486" y1="338.4609" y2="338.4609"/><text fill="#000000" font-family="sans-serif" font-size="13" font-weight="bold" lengthAdjust="spacing" textLength="275" x="136.5" y="333.7188">no.ks.fiks.arkiv.v1.feilmelding.ikkefunnet</text><!--SRC=[hPB1JiCm38RlUGfhnqgDn1LfIBjmGt177BBMwKpIf2JU91w89-75SCTAkWekOvKgjR_iB_aiPqTXCCdqaF5jZw711ypPTBZnr0LeC30cfPZO8wmUXw4r4e19ZWuz-fP21pMGSsZt8I2lb18SKqE32GptfillcR67PmNoh4kYNiuhoUMd53cww7sfbXH-uaNBPhp40Z_Bf5gLy-kxnH6tK5KXQfUrbLmVZVJXvli3auZfkQME9_UgKkSW8SzlyW-krdfE6Yl6MJDCavQ_FZ8RPeWTx3u_GYkTcALHpJkl9gjFn_qcNMPx1Vf2tP8iKphk5SJjApf6XbRUX5Q4HHcOF13iP47hYNlf52oIdnXbbIzp_fFr1G00]--></g></svg>